<svg width="36" height="10" viewBox="0 0 36 10" fill="none" xmlns="http://www.w3.org/2000/svg">
<path d="M3.23051 0.342636H4.50864V5.34614C4.5032 5.80843 4.41073 6.20004 4.21493 6.53179C4.02458 6.86355 3.75266 7.11911 3.41003 7.29315C3.0674 7.47262 2.66496 7.5597 2.20811 7.5597C1.79478 7.5597 1.41934 7.48354 1.08215 7.3367C0.750392 7.18442 0.489498 6.96144 0.293707 6.66776C0.0979165 6.37407 0 6.00968 0 5.56915H1.28344C1.28888 5.76494 1.32694 5.92805 1.40852 6.06946C1.49554 6.20542 1.60982 6.31424 1.75667 6.38494C1.89807 6.46108 2.06662 6.49913 2.25698 6.49913C2.46364 6.49913 2.63753 6.45563 2.78437 6.36861C2.92578 6.28159 3.0346 6.15108 3.11074 5.98249C3.18689 5.80845 3.22507 5.59632 3.23051 5.34614V0.342636ZM9.25655 5.21562V2.12108H10.5129V7.46178H9.29453V6.51002H9.23477C9.11513 6.80914 8.91915 7.05387 8.64178 7.24422C8.36985 7.43457 8.03273 7.53248 7.63027 7.53248C7.2822 7.53248 6.97222 7.45631 6.70029 7.29859C6.4338 7.14087 6.22718 6.91244 6.0749 6.61332C5.92806 6.3142 5.85183 5.94987 5.85183 5.52022V2.12108H7.10819V5.32981C7.10819 5.66701 7.20078 5.93356 7.3857 6.13478C7.57605 6.33057 7.81513 6.43387 8.1197 6.43387C8.30461 6.43387 8.48421 6.38492 8.65825 6.2979C8.83228 6.20545 8.97357 6.07492 9.08235 5.89545C9.19656 5.71054 9.25655 5.48755 9.25655 5.21562ZM13.0636 4.33457V7.46178H11.8072V2.12108H13.0091V3.02928H13.0745C13.1941 2.73016 13.3897 2.4909 13.6616 2.31686C13.9336 2.14282 14.2655 2.05037 14.6625 2.05037C15.0323 2.05037 15.3532 2.13192 15.6252 2.28964C15.9025 2.44736 16.1145 2.67579 16.2667 2.97491C16.419 3.27404 16.4954 3.63299 16.4954 4.06264V7.46178H15.2335V4.25842C15.2335 3.89947 15.1411 3.62208 14.9562 3.42085C14.7713 3.21962 14.5212 3.11632 14.1949 3.11632C13.9773 3.11632 13.7815 3.16528 13.6075 3.26317C13.4389 3.35563 13.3083 3.49704 13.2104 3.67652C13.1125 3.85599 13.0636 4.07351 13.0636 4.33457ZM17.7733 7.46178V2.12108H19.0296V7.46178H17.7733ZM18.4042 1.3651C18.2084 1.3651 18.0344 1.29984 17.893 1.16387C17.7462 1.03335 17.6755 0.870185 17.6755 0.685272C17.6755 0.49492 17.7462 0.331753 17.893 0.201226C18.0344 0.0652608 18.2084 0 18.4042 0C18.6055 0 18.7796 0.0652608 18.921 0.201226C19.0624 0.331753 19.1329 0.49492 19.1329 0.685272C19.1329 0.870185 19.0624 1.03335 18.921 1.16387C18.7796 1.29984 18.6055 1.3651 18.4042 1.3651ZM20.3239 9.46322V2.12108H21.5641V3.00758H21.6347C21.7 2.87705 21.7926 2.73563 21.9122 2.58879C22.0265 2.44195 22.1895 2.31682 22.3908 2.21349C22.592 2.10472 22.8476 2.05037 23.163 2.05037C23.5764 2.05037 23.9461 2.15913 24.2778 2.37123C24.6096 2.5779 24.8763 2.88788 25.0721 3.29577C25.2679 3.70367 25.3656 4.20403 25.3656 4.79684C25.3656 5.38421 25.2678 5.88456 25.0774 6.29246C24.8871 6.70579 24.6206 7.01579 24.2943 7.23333C23.9625 7.44544 23.5872 7.55426 23.163 7.55426C22.8585 7.55426 22.6083 7.50529 22.4017 7.40196C22.2004 7.29863 22.0426 7.17895 21.9176 7.0321C21.7979 6.8907 21.7054 6.74929 21.6347 6.61876H21.5859V9.46322H20.3239ZM21.5585 4.79139C21.5585 5.13947 21.6075 5.43861 21.7054 5.69967C21.8033 5.96072 21.9501 6.16195 22.135 6.30879C22.32 6.4502 22.5484 6.52091 22.8149 6.52091C23.0922 6.52091 23.3263 6.45019 23.5112 6.30335C23.7015 6.15107 23.8428 5.94439 23.9353 5.68334C24.0332 5.42228 24.0821 5.12315 24.0821 4.79139C24.0821 4.45964 24.0333 4.16595 23.9408 3.91034C23.8484 3.64929 23.7068 3.44806 23.5165 3.30666C23.3261 3.15982 23.0922 3.08366 22.8149 3.08366C22.5429 3.08366 22.3146 3.15437 22.1297 3.29577C21.9394 3.43718 21.798 3.63839 21.7001 3.89401C21.6076 4.14418 21.5585 4.44876 21.5585 4.79139ZM28.8082 7.56508C28.2698 7.56508 27.8076 7.45631 27.4215 7.23333C27.0354 7.00491 26.7362 6.68947 26.5295 6.28157C26.3174 5.86824 26.214 5.38424 26.214 4.82406C26.214 4.27476 26.3174 3.7907 26.5295 3.37736C26.7362 2.95859 27.0299 2.63769 27.4106 2.40383C27.7859 2.16997 28.232 2.05037 28.7432 2.05037C29.0695 2.05037 29.3795 2.10472 29.6732 2.21349C29.9669 2.31682 30.2277 2.47999 30.4507 2.69754C30.6791 2.92052 30.8587 3.19792 30.9893 3.54055C31.1198 3.87774 31.1797 4.28019 31.1797 4.74791V5.13403H26.807V4.28564H29.9775C29.9721 4.04634 29.9234 3.8342 29.82 3.64385C29.7167 3.4535 29.5753 3.30669 29.3904 3.19791C29.2109 3.08914 28.9987 3.03473 28.7594 3.03473C28.5038 3.03473 28.2753 3.09453 28.0796 3.21962C27.8838 3.34471 27.7369 3.50788 27.6281 3.70911C27.5193 3.9049 27.4651 4.12793 27.4651 4.36179V5.10688C27.4651 5.41688 27.5195 5.68335 27.6337 5.90634C27.7479 6.12388 27.9054 6.29244 28.1066 6.41209C28.3133 6.5263 28.5528 6.58617 28.8247 6.58617C29.0096 6.58617 29.1726 6.55897 29.3194 6.51002C29.4717 6.45563 29.5968 6.37946 29.7056 6.27613C29.8143 6.17279 29.9016 6.04773 29.956 5.89545L31.1306 6.03142C31.0544 6.34142 30.9131 6.61334 30.7065 6.84177C30.4998 7.07019 30.2333 7.24966 29.9124 7.38018C29.5916 7.50527 29.2216 7.56508 28.8082 7.56508ZM32.2456 7.46178V2.12108H33.4693V3.01295H33.5235C33.6214 2.70295 33.7848 2.46369 34.0241 2.30053C34.2634 2.13193 34.5353 2.04493 34.8399 2.04493C34.9106 2.04493 34.9865 2.05038 35.0736 2.05582C35.1606 2.06125 35.2312 2.06665 35.291 2.08297V3.23595C35.2367 3.21964 35.1552 3.20334 35.0356 3.18703C34.9268 3.17071 34.8125 3.16525 34.7092 3.16525C34.4808 3.16525 34.274 3.21421 34.0891 3.3121C33.9097 3.41 33.7682 3.54596 33.6595 3.72C33.5561 3.89404 33.5073 4.09526 33.5073 4.32368V7.46178H32.2456Z" fill="black"/>
</svg>
