<svg width="53" height="9" viewBox="0 0 53 9" fill="none" xmlns="http://www.w3.org/2000/svg">
<path d="M0.804906 6.3305H0L2.32788 0H3.11632L5.43863 6.3305H4.6393L2.7464 1.00062H2.69754L0.804906 6.3305ZM1.10419 3.8559H4.34001V4.53573H1.10419V3.8559ZM7.05932 3.47522V6.3305H6.32506V1.58259H7.03224V2.32761H7.09199C7.2062 2.08288 7.37477 1.89262 7.60319 1.74578C7.82617 1.59893 8.11978 1.52271 8.47873 1.52271C8.79961 1.52271 9.08258 1.58803 9.32188 1.71856C9.56118 1.84908 9.75141 2.04492 9.88194 2.31142C10.0179 2.57791 10.0832 2.90958 10.0832 3.31204V6.3305H9.35454V3.36648C9.35454 2.99121 9.2565 2.70291 9.06615 2.4908C8.87036 2.28413 8.60401 2.17545 8.26682 2.17545C8.03296 2.17545 7.82608 2.22972 7.64116 2.32761C7.46169 2.43095 7.3204 2.57782 7.21707 2.76818C7.10829 2.96397 7.05932 3.19785 7.05932 3.47522ZM12.8134 6.43925C12.5143 6.43925 12.2424 6.38483 11.9976 6.27062C11.7529 6.15641 11.5571 5.9933 11.4102 5.77575C11.2688 5.55821 11.1927 5.29173 11.1927 4.98173C11.1927 4.7098 11.247 4.49228 11.3558 4.32368C11.4646 4.14964 11.606 4.01912 11.7855 3.92123C11.9649 3.82333 12.1609 3.75255 12.3784 3.7036C12.596 3.65466 12.819 3.6166 13.0365 3.58397C13.3247 3.55134 13.5586 3.5242 13.7381 3.50244C13.9176 3.48069 14.0535 3.44809 14.1351 3.39914C14.2167 3.35563 14.2602 3.26851 14.2602 3.1543V3.12721C14.2602 2.82265 14.1786 2.58876 14.01 2.42016C13.8469 2.25156 13.5965 2.16456 13.2593 2.16456C12.9112 2.16456 12.6394 2.24066 12.4382 2.39294C12.2424 2.54522 12.1063 2.70833 12.0247 2.88237L11.3287 2.63221C11.4538 2.34396 11.6225 2.12099 11.8237 1.96327C12.0358 1.80011 12.2588 1.68596 12.5035 1.6207C12.7537 1.55544 12.9984 1.52271 13.2322 1.52271C13.3899 1.52271 13.5638 1.53908 13.7596 1.57715C13.9608 1.61522 14.1512 1.68587 14.3361 1.79464C14.5265 1.90885 14.679 2.07754 14.8041 2.30053C14.9291 2.52351 14.9889 2.82803 14.9889 3.20329V6.3305H14.2602V5.68878H14.222C14.173 5.79211 14.0916 5.90081 13.9774 6.02046C13.8632 6.13467 13.7054 6.23803 13.515 6.31961C13.3247 6.40119 13.0908 6.43925 12.8134 6.43925ZM12.9276 5.78664C13.2159 5.78664 13.4551 5.73222 13.6563 5.61801C13.8521 5.5038 14.0044 5.35692 14.1078 5.17745C14.2111 4.99797 14.2602 4.80773 14.2602 4.61194V3.943C14.2276 3.98107 14.1622 4.01367 14.0589 4.04631C13.9556 4.0735 13.8358 4.10063 13.6999 4.12239C13.5639 4.14414 13.4335 4.16596 13.3084 4.18227C13.1779 4.19315 13.0798 4.20406 12.9983 4.21493C12.8079 4.24213 12.634 4.28019 12.4709 4.34001C12.3077 4.38896 12.1717 4.47051 12.0739 4.57928C11.976 4.68805 11.927 4.83493 11.927 5.01984C11.927 5.27546 12.0193 5.46571 12.2042 5.59623C12.3946 5.72132 12.6339 5.78664 12.9276 5.78664ZM17.0501 0V6.3305H16.3215V0H17.0501ZM18.8557 8.10894C18.7306 8.10894 18.6219 8.09804 18.524 8.08172C18.4261 8.05997 18.3608 8.04373 18.3227 8.02197L18.5078 7.38012C18.6873 7.42907 18.8448 7.44543 18.9807 7.42911C19.1167 7.41824 19.2365 7.35837 19.3398 7.2496C19.4486 7.14082 19.5465 6.96681 19.6335 6.72751L19.7695 6.35772L18.0128 1.58259H18.8068L20.1176 5.36785H20.1665L21.4773 1.58259H22.2657L20.2536 7.02122C20.1611 7.26596 20.0523 7.47255 19.9163 7.63027C19.7803 7.79343 19.6281 7.91317 19.4487 7.99475C19.2746 8.07089 19.0787 8.10894 18.8557 8.10894ZM23.0924 6.3305V5.77575L25.7899 2.31142V2.26242H23.1795V1.58259H26.7255V2.16456L24.1095 5.60168V5.65067H26.8123V6.3305H23.0924ZM29.7929 6.42836C29.3361 6.42836 28.939 6.33056 28.6072 6.1239C28.2809 5.92267 28.0253 5.63983 27.8459 5.27544C27.6664 4.90561 27.5792 4.48134 27.5792 3.99187C27.5792 3.50783 27.6664 3.07825 27.8459 2.70842C28.0253 2.3386 28.2753 2.04486 28.5908 1.83819C28.9116 1.62609 29.2871 1.52271 29.7167 1.52271C29.9669 1.52271 30.2063 1.56077 30.451 1.64779C30.6903 1.72937 30.9078 1.86002 31.109 2.04493C31.3048 2.22984 31.4624 2.4745 31.582 2.77906C31.6962 3.07819 31.7562 3.45348 31.7562 3.89401V4.20405H28.096V3.57308H31.0166C31.0166 3.30659 30.9621 3.06738 30.8533 2.85528C30.75 2.64861 30.5977 2.47993 30.4019 2.36028C30.2115 2.24063 29.9832 2.17545 29.7167 2.17545C29.4285 2.17545 29.1784 2.25154 28.9663 2.39294C28.7542 2.53435 28.5908 2.71927 28.4766 2.94769C28.3624 3.17611 28.3079 3.42622 28.3079 3.68727V4.10606C28.3079 4.465 28.3679 4.76966 28.493 5.01984C28.6181 5.26458 28.7921 5.45495 29.0151 5.58003C29.2381 5.71056 29.4993 5.77575 29.7929 5.77575C29.9833 5.77575 30.1572 5.74861 30.3094 5.69422C30.4672 5.63984 30.6031 5.55815 30.7173 5.44938C30.8316 5.33517 30.9186 5.19933 30.9784 5.03073L31.6856 5.23189C31.6094 5.47119 31.4841 5.67781 31.3101 5.86272C31.136 6.0422 30.9186 6.17817 30.6576 6.28151C30.402 6.3794 30.1138 6.42836 29.7929 6.42836ZM37.1077 6.42836C36.7107 6.42836 36.3625 6.33044 36.058 6.12921C35.7534 5.92798 35.5198 5.64527 35.3458 5.27544C35.1772 4.90561 35.09 4.47044 35.09 3.97009C35.09 3.46974 35.1772 3.04014 35.3458 2.67032C35.5198 2.30593 35.759 2.02309 36.0636 1.82186C36.3681 1.62063 36.7162 1.52271 37.1186 1.52271C37.4286 1.52271 37.6734 1.57167 37.8529 1.67501C38.0324 1.77834 38.1682 1.89263 38.2661 2.02315C38.364 2.14824 38.4348 2.25692 38.4892 2.3385H38.5545V0H39.2832V6.3305H38.5763V5.60168H38.4892C38.4348 5.6887 38.3587 5.79752 38.2608 5.92805C38.1629 6.05858 38.0213 6.17273 37.8364 6.27606C37.6569 6.3794 37.4123 6.42836 37.1077 6.42836ZM37.2057 5.77575C37.4994 5.77575 37.7441 5.69965 37.9453 5.54737C38.1465 5.38965 38.3043 5.17745 38.4076 4.90552C38.511 4.63359 38.5654 4.31815 38.5654 3.9592C38.5654 3.60025 38.511 3.29027 38.4076 3.02922C38.3097 2.75729 38.1521 2.55067 37.9509 2.40383C37.7496 2.25155 37.4994 2.17545 37.2057 2.17545C36.8957 2.17545 36.6401 2.257 36.4335 2.41472C36.2268 2.57244 36.0745 2.78451 35.9711 3.05644C35.8732 3.32293 35.8187 3.62201 35.8187 3.9592C35.8187 4.2964 35.8731 4.60106 35.9765 4.87843C36.0798 5.15036 36.2321 5.36788 36.4388 5.53104C36.6455 5.6942 36.9012 5.77575 37.2057 5.77575ZM42.1167 6.43925C41.8121 6.43925 41.5403 6.38483 41.2956 6.27062C41.0508 6.15641 40.8549 5.9933 40.7135 5.77575C40.5666 5.55821 40.496 5.29173 40.496 4.98173C40.496 4.7098 40.5505 4.49228 40.6593 4.32368C40.7626 4.14964 40.9094 4.01912 41.0834 3.92123C41.2629 3.82333 41.4642 3.75255 41.6817 3.7036C41.8992 3.65466 42.1168 3.6166 42.3398 3.58397C42.628 3.55134 42.8619 3.5242 43.0414 3.50244C43.2208 3.48069 43.3512 3.44809 43.4328 3.39914C43.5198 3.35563 43.5634 3.26851 43.5634 3.1543V3.12721C43.5634 2.82265 43.4764 2.58876 43.3133 2.42016C43.1447 2.25156 42.8946 2.16456 42.5628 2.16456C42.2147 2.16456 41.9372 2.24066 41.7414 2.39294C41.5457 2.54522 41.4042 2.70833 41.3227 2.88237L40.6319 2.63221C40.757 2.34396 40.9203 2.12099 41.1269 1.96327C41.3336 1.80011 41.562 1.68596 41.8068 1.6207C42.0515 1.55544 42.2962 1.52271 42.5355 1.52271C42.6877 1.52271 42.8619 1.53908 43.0631 1.57715C43.2589 1.61522 43.4547 1.68587 43.6397 1.79464C43.8246 1.90885 43.9822 2.07754 44.1073 2.30053C44.227 2.52351 44.2921 2.82803 44.2921 3.20329V6.3305H43.5634V5.68878H43.5255C43.4765 5.79211 43.3947 5.90081 43.275 6.02046C43.1608 6.13467 43.0086 6.23803 42.8183 6.31961C42.6225 6.40119 42.3886 6.43925 42.1167 6.43925ZM42.2256 5.78664C42.5138 5.78664 42.7585 5.73222 42.9543 5.61801C43.1555 5.5038 43.3078 5.35692 43.4057 5.17745C43.509 4.99797 43.5634 4.80773 43.5634 4.61194V3.943C43.5308 3.98107 43.4602 4.01367 43.3568 4.04631C43.2535 4.0735 43.1338 4.10063 42.9978 4.12239C42.8673 4.14414 42.7366 4.16596 42.6061 4.18227C42.481 4.19315 42.3779 4.20406 42.3018 4.21493C42.1114 4.24213 41.9317 4.28019 41.7685 4.34001C41.6054 4.38896 41.4749 4.47051 41.3715 4.57928C41.2736 4.68805 41.2247 4.83493 41.2247 5.01984C41.2247 5.27546 41.3171 5.46571 41.5075 5.59623C41.6978 5.72132 41.9373 5.78664 42.2256 5.78664ZM47.686 1.58259V2.20254H45.2277V1.58259H47.686ZM45.9455 0.445872H46.6742V4.97085C46.6742 5.17751 46.7015 5.32985 46.7613 5.43318C46.8211 5.53652 46.9028 5.60172 46.9952 5.63979C47.0931 5.67242 47.1964 5.68878 47.3052 5.68878C47.3813 5.68878 47.4465 5.68333 47.5009 5.67789C47.5498 5.66702 47.5933 5.65611 47.6259 5.65067L47.7728 6.30328C47.7239 6.32504 47.6532 6.34141 47.5662 6.36316C47.4792 6.37948 47.3649 6.39038 47.2289 6.39038C47.0223 6.39038 46.8211 6.34688 46.6253 6.25986C46.4295 6.17284 46.2664 6.03688 46.1359 5.85197C46.0054 5.67249 45.9455 5.44406 45.9455 5.16669V0.445872ZM50.1822 6.43925C49.8776 6.43925 49.6058 6.38483 49.3611 6.27062C49.1164 6.15641 48.9204 5.9933 48.779 5.77575C48.6322 5.55821 48.5615 5.29173 48.5615 4.98173C48.5615 4.7098 48.6159 4.49228 48.7192 4.32368C48.828 4.14964 48.9694 4.01912 49.1489 3.92123C49.3284 3.82333 49.5295 3.75255 49.7416 3.7036C49.9646 3.65466 50.1822 3.6166 50.3997 3.58397C50.6879 3.55134 50.9218 3.5242 51.1013 3.50244C51.2862 3.48069 51.4167 3.44809 51.4983 3.39914C51.5853 3.35563 51.6234 3.26851 51.6234 3.1543V3.12721C51.6234 2.82265 51.5418 2.58876 51.3732 2.42016C51.2101 2.25156 50.96 2.16456 50.6228 2.16456C50.2747 2.16456 50.0028 2.24066 49.807 2.39294C49.6057 2.54522 49.4698 2.70833 49.3882 2.88237L48.6975 2.63221C48.8226 2.34396 48.9858 2.12099 49.1925 1.96327C49.3991 1.80011 49.6276 1.68596 49.8723 1.6207C50.117 1.55544 50.3617 1.52271 50.601 1.52271C50.7533 1.52271 50.9273 1.53908 51.1231 1.57715C51.3243 1.61522 51.52 1.68587 51.7049 1.79464C51.8898 1.90885 52.0476 2.07754 52.1673 2.30053C52.2923 2.52351 52.3577 2.82803 52.3577 3.20329V6.3305H51.6234V5.68878H51.5907C51.5418 5.79211 51.4548 5.90081 51.3406 6.02046C51.2264 6.13467 51.074 6.23803 50.8782 6.31961C50.6879 6.40119 50.4541 6.43925 50.1822 6.43925ZM50.2911 5.78664C50.5793 5.78664 50.824 5.73222 51.0198 5.61801C51.221 5.5038 51.3679 5.35692 51.4712 5.17745C51.5746 4.99797 51.6234 4.80773 51.6234 4.61194V3.943C51.5962 3.98107 51.5254 4.01367 51.4221 4.04631C51.3188 4.0735 51.1993 4.10063 51.0633 4.12239C50.9274 4.14414 50.7967 4.16596 50.6716 4.18227C50.5465 4.19315 50.4432 4.20406 50.367 4.21493C50.1767 4.24213 49.9972 4.28019 49.8341 4.34001C49.6709 4.38896 49.5404 4.47051 49.437 4.57928C49.3392 4.68805 49.2902 4.83493 49.2902 5.01984C49.2902 5.27546 49.3827 5.46571 49.573 5.59623C49.7579 5.72132 50.0028 5.78664 50.2911 5.78664Z" fill="black"/>
</svg>
