<svg width="194" height="17" viewBox="0 0 194 17" fill="none" xmlns="http://www.w3.org/2000/svg">
<path d="M0 2.53442V0.614567H10.0994V2.53442H6.18909V13.2703H3.91592V2.53442H0ZM10.9644 13.2703V3.77988H13.1342V5.35703H13.2322C13.4063 4.81317 13.6999 4.38898 14.1186 4.08986C14.5483 3.79073 15.0324 3.64392 15.5763 3.64392C15.6959 3.64392 15.8372 3.64931 15.9895 3.66018C16.1418 3.66562 16.2723 3.68198 16.3756 3.70374V5.75949C16.2832 5.72685 16.1311 5.69971 15.9244 5.67252C15.7232 5.64532 15.5274 5.62896 15.337 5.62896C14.9291 5.62896 14.5647 5.72142 14.2384 5.89545C13.9175 6.06949 13.662 6.30883 13.4771 6.61883C13.2921 6.92883 13.1996 7.28777 13.1996 7.69022V13.2703H10.9644ZM19.5411 16.8326C19.2365 16.8326 18.9535 16.8054 18.6979 16.7564C18.4423 16.7129 18.2357 16.6585 18.0834 16.5933L18.6055 14.8529C18.9264 14.9454 19.2201 14.9943 19.4757 14.9889C19.7314 14.9834 19.9545 14.9018 20.1503 14.7495C20.3461 14.5973 20.5146 14.3417 20.6506 13.9828L20.8407 13.466L17.3983 3.77988H19.7695L21.9611 10.948H22.0591L24.2507 3.77988H26.6331L22.8313 14.4178C22.6519 14.9236 22.4181 15.3532 22.1244 15.7122C21.8362 16.0766 21.4771 16.3485 21.0529 16.5389C20.6287 16.7347 20.1284 16.8326 19.5411 16.8326ZM40.9745 3.77988L37.5972 13.2703H35.1227L31.7453 3.77988H34.1274L36.3084 10.8283H36.4061L38.598 3.77988H40.9745ZM46.3425 13.4552C45.4125 13.4552 44.6132 13.2539 43.9334 12.846C43.2535 12.4381 42.7259 11.8671 42.3506 11.1328C41.9808 10.3986 41.7959 9.53934 41.7959 8.56039C41.7959 7.58144 41.9808 6.72214 42.3506 5.98249C42.7259 5.24827 43.2535 4.67176 43.9334 4.26386C44.6132 3.85597 45.4125 3.65474 46.3425 3.65474C47.2671 3.65474 48.0721 3.85597 48.7519 4.26386C49.4317 4.67176 49.9592 5.24827 50.3291 5.98249C50.7043 6.72214 50.8891 7.58144 50.8891 8.56039C50.8891 9.53934 50.7043 10.3986 50.3291 11.1328C49.9592 11.8671 49.4317 12.4381 48.7519 12.846C48.0721 13.2539 47.2671 13.4552 46.3425 13.4552ZM46.3534 11.6659C46.8592 11.6659 47.2781 11.5245 47.6153 11.2471C47.9525 10.9697 48.2025 10.5944 48.3711 10.1267C48.5397 9.65356 48.6213 9.13144 48.6213 8.55495C48.6213 7.97301 48.5397 7.45096 48.3711 6.9778C48.2025 6.50464 47.9525 6.12933 47.6153 5.84652C47.2781 5.56915 46.8592 5.42774 46.3534 5.42774C45.8367 5.42774 45.4126 5.56915 45.07 5.84652C44.7328 6.12933 44.4772 6.50464 44.3086 6.9778C44.1454 7.45096 44.0638 7.97301 44.0638 8.55495C44.0638 9.13144 44.1454 9.65356 44.3086 10.1267C44.4772 10.5944 44.7328 10.9697 45.07 11.2471C45.4126 11.5245 45.8367 11.6659 46.3534 11.6659ZM52.7873 13.2703V3.77988H55.0281V13.2703H52.7873ZM53.913 2.43105C53.5595 2.43105 53.2551 2.31145 52.9995 2.07759C52.7439 1.83829 52.6187 1.55 52.6187 1.21825C52.6187 0.881052 52.7439 0.592829 52.9995 0.358968C53.2551 0.119668 53.5595 0 53.913 0C54.272 0 54.5766 0.119668 54.8268 0.358968C55.0824 0.592829 55.2129 0.881052 55.2129 1.21825C55.2129 1.55 55.0824 1.83829 54.8268 2.07759C54.5766 2.31145 54.272 2.43105 53.913 2.43105ZM61.4674 13.4552C60.521 13.4552 59.7054 13.2485 59.0255 12.8297C58.3512 12.4164 57.829 11.8399 57.4646 11.1057C57.1002 10.3715 56.9207 9.52303 56.9207 8.56039C56.9207 7.59775 57.1057 6.74392 57.4755 6.00971C57.8453 5.26462 58.3672 4.68809 59.0471 4.2802C59.7269 3.86142 60.5265 3.65474 61.4565 3.65474C62.2287 3.65474 62.9087 3.79616 63.5015 4.07897C64.0998 4.36178 64.5729 4.75884 64.9318 5.27551C65.2853 5.7813 65.4865 6.3795 65.5354 7.06477H63.398C63.3109 6.60792 63.1045 6.22723 62.7781 5.92267C62.4573 5.61267 62.0276 5.4604 61.4891 5.4604C61.0268 5.4604 60.6297 5.58001 60.2816 5.83019C59.9336 6.07493 59.6672 6.42303 59.4714 6.87987C59.2811 7.33672 59.1886 7.88603 59.1886 8.52235C59.1886 9.16955 59.2811 9.72426 59.4714 10.192C59.6618 10.6543 59.9281 11.0078 60.2707 11.2634C60.6134 11.5082 61.0214 11.6332 61.4891 11.6332C61.8154 11.6332 62.1092 11.568 62.3703 11.4483C62.6367 11.3178 62.8541 11.1383 63.0336 10.899C63.2076 10.6597 63.3327 10.366 63.398 10.0234H65.5354C65.481 10.6978 65.2853 11.2906 64.9427 11.8127C64.6001 12.3293 64.1322 12.7319 63.5448 13.0255C62.9574 13.3138 62.2614 13.4552 61.4674 13.4552ZM71.5724 13.4552C70.6206 13.4552 69.7992 13.2594 69.1085 12.8624C68.4178 12.4653 67.8903 11.8997 67.5205 11.171C67.1507 10.4367 66.9657 9.572 66.9657 8.58217C66.9657 7.60321 67.1507 6.74392 67.5205 6.00971C67.8957 5.26462 68.4179 4.68809 69.0923 4.2802C69.7613 3.86142 70.5499 3.65474 71.4582 3.65474C72.0401 3.65474 72.5949 3.74721 73.1115 3.93756C73.6391 4.12247 74.0958 4.41077 74.4983 4.80235C74.9007 5.19393 75.2162 5.69428 75.45 6.29797C75.6785 6.90166 75.7982 7.61953 75.7982 8.45164V9.13692H68.0155V7.62496H73.6498C73.6444 7.20075 73.5521 6.82006 73.3726 6.48287C73.1931 6.14567 72.9375 5.8792 72.6112 5.68885C72.2903 5.49306 71.9149 5.39514 71.4853 5.39514C71.0284 5.39514 70.6314 5.50935 70.2833 5.73233C69.9353 5.94988 69.6689 6.23811 69.4731 6.59705C69.2828 6.95057 69.1847 7.33672 69.1847 7.76637V9.08254C69.1847 9.63185 69.2828 10.105 69.484 10.502C69.6852 10.8936 69.9678 11.1927 70.3322 11.4048C70.6966 11.6114 71.121 11.7148 71.605 11.7148C71.9313 11.7148 72.225 11.6659 72.4915 11.5789C72.7525 11.481 72.9811 11.345 73.1769 11.1601C73.3672 10.9806 73.5139 10.7576 73.6118 10.4911L75.7002 10.725C75.5697 11.2743 75.3195 11.7583 74.9497 12.1716C74.5799 12.5795 74.1123 12.895 73.5412 13.1234C72.9647 13.3464 72.312 13.4552 71.5724 13.4552ZM82.0037 13.2703V3.77988H84.141V5.3897H84.2551C84.4509 4.84583 84.7827 4.42164 85.2396 4.11708C85.6964 3.80707 86.2404 3.65474 86.8767 3.65474C87.5185 3.65474 88.0622 3.81252 88.5027 4.12252C88.9433 4.43252 89.2588 4.85671 89.4383 5.3897H89.5416C89.7483 4.86215 90.1016 4.44334 90.602 4.1279C91.1023 3.81246 91.7007 3.65474 92.386 3.65474C93.2616 3.65474 93.974 3.93212 94.5288 4.48142C95.0781 5.03616 95.3555 5.84111 95.3555 6.89621V13.2703H93.1094V7.24429C93.1094 6.65691 92.9569 6.22727 92.6415 5.95533C92.326 5.67796 91.9454 5.53655 91.494 5.53655C90.9501 5.53655 90.5313 5.70512 90.2267 6.04775C89.9222 6.3795 89.7753 6.8146 89.7753 7.34759V13.2703H87.5783V7.15181C87.5783 6.66233 87.4313 6.27073 87.1322 5.97704C86.8439 5.68336 86.4579 5.53655 85.9847 5.53655C85.6638 5.53655 85.3702 5.62355 85.1092 5.78671C84.8427 5.94443 84.6359 6.17285 84.4782 6.47198C84.3205 6.76566 84.2443 7.1083 84.2443 7.49989V13.2703H82.0037ZM101.768 13.4552C100.838 13.4552 100.033 13.2539 99.3529 12.846C98.6731 12.4381 98.1454 11.8671 97.7702 11.1328C97.4004 10.3986 97.2154 9.53934 97.2154 8.56039C97.2154 7.58144 97.4004 6.72214 97.7702 5.98249C98.1454 5.24827 98.6731 4.67176 99.3529 4.26386C100.033 3.85597 100.838 3.65474 101.768 3.65474C102.692 3.65474 103.497 3.85597 104.177 4.26386C104.857 4.67176 105.379 5.24827 105.749 5.98249C106.124 6.72214 106.314 7.58144 106.314 8.56039C106.314 9.53934 106.124 10.3986 105.749 11.1328C105.379 11.8671 104.857 12.4381 104.177 12.846C103.497 13.2539 102.692 13.4552 101.768 13.4552ZM101.779 11.6659C102.279 11.6659 102.703 11.5245 103.04 11.2471C103.377 10.9697 103.627 10.5944 103.791 10.1267C103.959 9.65356 104.046 9.13144 104.046 8.55495C104.046 7.97301 103.959 7.45096 103.791 6.9778C103.627 6.50464 103.377 6.12933 103.04 5.84652C102.703 5.56915 102.279 5.42774 101.779 5.42774C101.262 5.42774 100.832 5.56915 100.489 5.84652C100.152 6.12933 99.902 6.50464 99.7334 6.9778C99.5648 7.45096 99.4833 7.97301 99.4833 8.55495C99.4833 9.13144 99.5648 9.65356 99.7334 10.1267C99.902 10.5944 100.152 10.9697 100.489 11.2471C100.832 11.5245 101.262 11.6659 101.779 11.6659ZM111.737 13.4389C110.992 13.4389 110.323 13.2431 109.735 12.8624C109.142 12.4817 108.68 11.9215 108.338 11.1927C107.995 10.464 107.821 9.57746 107.821 8.53868C107.821 7.48359 107.995 6.59164 108.343 5.8683C108.691 5.13952 109.164 4.58476 109.757 4.21493C110.35 3.83967 111.013 3.65474 111.742 3.65474C112.297 3.65474 112.754 3.74721 113.113 3.93756C113.471 4.12247 113.754 4.34545 113.967 4.61194C114.179 4.873 114.342 5.11779 114.456 5.34621H114.548V0.614567H116.789V13.2703H114.592V11.7746H114.456C114.342 12.0031 114.173 12.2478 113.956 12.5088C113.738 12.7645 113.45 12.982 113.091 13.167C112.732 13.3464 112.281 13.4389 111.737 13.4389ZM112.362 11.6006C112.835 11.6006 113.238 11.4755 113.569 11.2199C113.906 10.9588 114.157 10.5999 114.331 10.1376C114.505 9.67532 114.592 9.13691 114.592 8.52235C114.592 7.90778 114.505 7.37477 114.331 6.92336C114.162 6.47195 113.912 6.11847 113.575 5.8683C113.249 5.61268 112.841 5.48755 112.362 5.48755C111.862 5.48755 111.443 5.61813 111.111 5.87919C110.78 6.14024 110.524 6.49918 110.355 6.95602C110.187 7.41287 110.105 7.93498 110.105 8.52235C110.105 9.11516 110.187 9.6481 110.355 10.1104C110.529 10.5727 110.785 10.9371 111.117 11.2036C111.454 11.47 111.867 11.6006 112.362 11.6006ZM123.375 13.4552C122.424 13.4552 121.602 13.2594 120.911 12.8624C120.221 12.4653 119.693 11.8997 119.323 11.171C118.954 10.4367 118.769 9.572 118.769 8.58217C118.769 7.60321 118.954 6.74392 119.323 6.00971C119.699 5.26462 120.221 4.68809 120.895 4.2802C121.564 3.86142 122.353 3.65474 123.261 3.65474C123.843 3.65474 124.398 3.74721 124.914 3.93756C125.442 4.12247 125.899 4.41077 126.301 4.80235C126.704 5.19393 127.019 5.69428 127.253 6.29797C127.481 6.90166 127.601 7.61953 127.601 8.45164V9.13692H119.818V7.62496H125.453C125.447 7.20075 125.355 6.82006 125.175 6.48287C124.996 6.14567 124.74 5.8792 124.414 5.68885C124.093 5.49306 123.718 5.39514 123.288 5.39514C122.831 5.39514 122.434 5.50935 122.086 5.73233C121.738 5.94988 121.472 6.23811 121.276 6.59705C121.086 6.95057 120.988 7.33672 120.988 7.76637V9.08254C120.988 9.63185 121.086 10.105 121.287 10.502C121.488 10.8936 121.771 11.1927 122.135 11.4048C122.499 11.6114 122.924 11.7148 123.408 11.7148C123.734 11.7148 124.028 11.6659 124.294 11.5789C124.555 11.481 124.784 11.345 124.98 11.1601C125.17 10.9806 125.317 10.7576 125.415 10.4911L127.503 10.725C127.373 11.2743 127.122 11.7583 126.753 12.1716C126.383 12.5795 125.915 12.895 125.344 13.1234C124.768 13.3464 124.115 13.4552 123.375 13.4552ZM138.614 3.77988V5.50933H133.007V3.77988H138.614ZM134.41 13.2703V2.8825C134.41 2.24074 134.541 1.71316 134.802 1.28895C135.068 0.864739 135.427 0.54386 135.879 0.337192C136.33 0.125086 136.825 0.0217757 137.374 0.0217757C137.76 0.0217757 138.103 0.0489928 138.408 0.114256C138.707 0.174081 138.93 0.228428 139.071 0.277375L138.631 2.01233C138.533 1.9797 138.413 1.95249 138.272 1.92529C138.125 1.89266 137.967 1.87637 137.788 1.87637C137.374 1.87637 137.075 1.97422 136.907 2.17545C136.738 2.37668 136.651 2.65952 136.651 3.02935V13.2703H134.41ZM144.151 13.4552C143.226 13.4552 142.421 13.2539 141.742 12.846C141.062 12.4381 140.534 11.8671 140.159 11.1328C139.789 10.3986 139.604 9.53934 139.604 8.56039C139.604 7.58144 139.789 6.72214 140.159 5.98249C140.534 5.24827 141.062 4.67176 141.742 4.26386C142.421 3.85597 143.226 3.65474 144.151 3.65474C145.081 3.65474 145.88 3.85597 146.56 4.26386C147.24 4.67176 147.767 5.24827 148.137 5.98249C148.512 6.72214 148.703 7.58144 148.703 8.56039C148.703 9.53934 148.512 10.3986 148.137 11.1328C147.767 11.8671 147.24 12.4381 146.56 12.846C145.88 13.2539 145.081 13.4552 144.151 13.4552ZM144.167 11.6659C144.667 11.6659 145.086 11.5245 145.423 11.2471C145.766 10.9697 146.016 10.5944 146.18 10.1267C146.348 9.65356 146.435 9.13144 146.435 8.55495C146.435 7.97301 146.348 7.45096 146.18 6.9778C146.016 6.50464 145.766 6.12933 145.423 5.84652C145.086 5.56915 144.667 5.42774 144.167 5.42774C143.65 5.42774 143.221 5.56915 142.878 5.84652C142.541 6.12933 142.285 6.50464 142.117 6.9778C141.954 7.45096 141.872 7.97301 141.872 8.55495C141.872 9.13144 141.954 9.65356 142.117 10.1267C142.285 10.5944 142.541 10.9697 142.878 11.2471C143.221 11.5245 143.65 11.6659 144.167 11.6659ZM150.601 13.2703V3.77988H152.771V5.35703H152.869C153.043 4.81317 153.337 4.38898 153.755 4.08986C154.185 3.79073 154.669 3.64392 155.213 3.64392C155.333 3.64392 155.474 3.64931 155.626 3.66018C155.778 3.66562 155.909 3.68198 156.012 3.70374V5.75949C155.92 5.72685 155.768 5.69971 155.561 5.67252C155.36 5.64532 155.164 5.62896 154.974 5.62896C154.566 5.62896 154.201 5.72142 153.875 5.89545C153.554 6.06949 153.299 6.30883 153.114 6.61883C152.929 6.92883 152.836 7.28777 152.836 7.69022V13.2703H150.601ZM166.623 3.77988V5.50933H161.016V3.77988H166.623ZM162.419 13.2703V2.8825C162.419 2.24074 162.55 1.71316 162.811 1.28895C163.077 0.864739 163.436 0.54386 163.887 0.337192C164.339 0.125086 164.834 0.0217757 165.383 0.0217757C165.769 0.0217757 166.112 0.0489928 166.417 0.114256C166.716 0.174081 166.939 0.228428 167.08 0.277375L166.639 2.01233C166.542 1.9797 166.422 1.95249 166.281 1.92529C166.134 1.89266 165.976 1.87637 165.797 1.87637C165.383 1.87637 165.084 1.97422 164.915 2.17545C164.747 2.37668 164.66 2.65952 164.66 3.02935V13.2703H162.419ZM168.38 13.2703V3.77988H170.544V5.35703H170.648C170.816 4.81317 171.115 4.38898 171.534 4.08986C171.958 3.79073 172.442 3.64392 172.986 3.64392C173.111 3.64392 173.247 3.64931 173.4 3.66018C173.557 3.66562 173.688 3.68198 173.791 3.70374V5.75949C173.699 5.72685 173.547 5.69971 173.34 5.67252C173.139 5.64532 172.943 5.62896 172.753 5.62896C172.345 5.62896 171.98 5.72142 171.654 5.89545C171.333 6.06949 171.078 6.30883 170.893 6.61883C170.708 6.92883 170.615 7.28777 170.615 7.69022V13.2703H168.38ZM179.089 13.4552C178.137 13.4552 177.316 13.2594 176.625 12.8624C175.934 12.4653 175.406 11.8997 175.037 11.171C174.667 10.4367 174.477 9.572 174.477 8.58217C174.477 7.60321 174.667 6.74392 175.037 6.00971C175.412 5.26462 175.934 4.68809 176.603 4.2802C177.278 3.86142 178.066 3.65474 178.974 3.65474C179.556 3.65474 180.111 3.74721 180.628 3.93756C181.15 4.12247 181.612 4.41077 182.014 4.80235C182.417 5.19393 182.732 5.69428 182.966 6.29797C183.195 6.90166 183.309 7.61953 183.309 8.45164V9.13692H175.532V7.62496H181.166C181.161 7.20075 181.068 6.82006 180.889 6.48287C180.709 6.14567 180.454 5.8792 180.127 5.68885C179.806 5.49306 179.431 5.39514 179.001 5.39514C178.545 5.39514 178.142 5.50935 177.799 5.73233C177.451 5.94988 177.18 6.23811 176.989 6.59705C176.799 6.95057 176.701 7.33672 176.696 7.76637V9.08254C176.696 9.63185 176.799 10.105 177 10.502C177.201 10.8936 177.484 11.1927 177.849 11.4048C178.208 11.6114 178.632 11.7148 179.121 11.7148C179.447 11.7148 179.741 11.6659 180.002 11.5789C180.269 11.481 180.497 11.345 180.687 11.1601C180.883 10.9806 181.03 10.7576 181.128 10.4911L183.216 10.725C183.086 11.2743 182.836 11.7583 182.466 12.1716C182.096 12.5795 181.628 12.895 181.057 13.1234C180.481 13.3464 179.828 13.4552 179.089 13.4552ZM189.406 13.4552C188.454 13.4552 187.633 13.2594 186.942 12.8624C186.251 12.4653 185.724 11.8997 185.354 11.171C184.979 10.4367 184.794 9.572 184.794 8.58217C184.794 7.60321 184.979 6.74392 185.354 6.00971C185.729 5.26462 186.251 4.68809 186.92 4.2802C187.594 3.86142 188.383 3.65474 189.286 3.65474C189.873 3.65474 190.428 3.74721 190.945 3.93756C191.467 4.12247 191.929 4.41077 192.332 4.80235C192.734 5.19393 193.05 5.69428 193.283 6.29797C193.512 6.90166 193.626 7.61953 193.626 8.45164V9.13692H185.843V7.62496H191.483C191.478 7.20075 191.385 6.82006 191.206 6.48287C191.021 6.14567 190.771 5.8792 190.444 5.68885C190.123 5.49306 189.748 5.39514 189.319 5.39514C188.862 5.39514 188.459 5.50935 188.117 5.73233C187.769 5.94988 187.497 6.23811 187.306 6.59705C187.116 6.95057 187.018 7.33672 187.012 7.76637V9.08254C187.012 9.63185 187.116 10.105 187.317 10.502C187.518 10.8936 187.801 11.1927 188.166 11.4048C188.524 11.6114 188.949 11.7148 189.438 11.7148C189.764 11.7148 190.058 11.6659 190.319 11.5789C190.586 11.481 190.814 11.345 191.005 11.1601C191.2 10.9806 191.347 10.7576 191.445 10.4911L193.534 10.725C193.403 11.2743 193.153 11.7583 192.777 12.1716C192.413 12.5795 191.945 12.895 191.369 13.1234C190.798 13.3464 190.145 13.4552 189.406 13.4552Z" fill="black"/>
</svg>
