<svg width="85" height="10" viewBox="0 0 85 10" fill="none" xmlns="http://www.w3.org/2000/svg">
<path d="M0 7.34214V0.223002H0.859345V6.57528H4.17138V7.34214H0ZM7.56521 7.45089C7.08117 7.45089 6.65678 7.33668 6.29239 7.10825C5.93344 6.87983 5.6506 6.55901 5.44394 6.14567C5.24271 5.73234 5.14492 5.25372 5.14492 4.69898C5.14492 4.14424 5.24271 3.66017 5.44394 3.2414C5.6506 2.82806 5.93344 2.50717 6.29239 2.27875C6.65678 2.04489 7.08117 1.93074 7.56521 1.93074C8.04381 1.93074 8.46793 2.04489 8.82688 2.27875C9.19127 2.50717 9.47411 2.82806 9.67534 3.2414C9.882 3.66017 9.97993 4.14424 9.97993 4.69898C9.97993 5.25372 9.882 5.73234 9.67534 6.14567C9.47411 6.55901 9.19127 6.87983 8.82688 7.10825C8.46793 7.33668 8.04381 7.45089 7.56521 7.45089ZM7.56521 6.71669C7.9296 6.71669 8.22854 6.62422 8.46784 6.43387C8.7017 6.24896 8.87572 5.99879 8.98993 5.69422C9.10414 5.38966 9.16414 5.05793 9.16414 4.69898C9.16414 4.34547 9.10414 4.0083 8.98993 3.70374C8.87572 3.39373 8.7017 3.14355 8.46784 2.9532C8.22854 2.76285 7.9296 2.67038 7.56521 2.67038C7.19539 2.67038 6.8963 2.76285 6.657 2.9532C6.42314 3.14355 6.24886 3.39373 6.13465 3.70374C6.02044 4.0083 5.96629 4.34547 5.96629 4.69898C5.96629 5.05793 6.02044 5.38966 6.13465 5.69422C6.24886 5.99879 6.42314 6.24896 6.657 6.43387C6.8963 6.62422 7.19539 6.71669 7.56521 6.71669ZM13.39 9.45778C12.9929 9.45778 12.6558 9.40337 12.3676 9.30548C12.0848 9.20215 11.8454 9.07163 11.6551 8.90847C11.4702 8.74531 11.3177 8.5713 11.2089 8.38638L11.8617 7.92405C11.9324 8.02194 12.0303 8.13615 12.1445 8.26124C12.2533 8.38633 12.411 8.49515 12.6068 8.58761C12.8081 8.68551 13.0691 8.73446 13.39 8.73446C13.8196 8.73446 14.1785 8.63109 14.4559 8.41898C14.7387 8.21231 14.88 7.88604 14.88 7.44007V6.35234H14.8094C14.7495 6.45024 14.6624 6.57528 14.5536 6.71669C14.4394 6.85809 14.2873 6.98322 14.0807 7.09743C13.874 7.2062 13.5965 7.26055 13.2484 7.26055C12.8188 7.26055 12.4327 7.15725 12.0901 6.95058C11.7474 6.74935 11.4811 6.45022 11.2798 6.06408C11.084 5.6725 10.9861 5.19935 10.9861 4.64461C10.9861 4.09531 11.0785 3.62214 11.2743 3.21425C11.4646 2.80635 11.7312 2.49091 12.0739 2.26793C12.4165 2.04495 12.8135 1.93074 13.2649 1.93074C13.613 1.93074 13.8903 1.99053 14.0916 2.10475C14.2982 2.21896 14.4557 2.34947 14.5645 2.49631C14.6787 2.63771 14.7604 2.75738 14.8203 2.84983H14.9074V2.00144H15.6958V7.49444C15.6958 7.95129 15.5926 8.32652 15.3859 8.61476C15.1792 8.90301 14.9017 9.11514 14.5536 9.25111C14.2056 9.38707 13.8142 9.45778 13.39 9.45778ZM13.3626 6.52091C13.6889 6.52091 13.9719 6.44475 14.1949 6.2979C14.4233 6.14562 14.5973 5.9281 14.717 5.6453C14.8312 5.36249 14.8909 5.0253 14.8909 4.62828C14.8909 4.24757 14.8312 3.90494 14.717 3.61126C14.6027 3.31757 14.4287 3.08914 14.2058 2.92054C13.9773 2.75194 13.6944 2.67038 13.3626 2.67038C13.0145 2.67038 12.7265 2.75739 12.4926 2.93143C12.2642 3.1109 12.0901 3.34473 11.9759 3.64385C11.8617 3.93754 11.8072 4.26933 11.8072 4.62828C11.8072 5.00354 11.8617 5.32982 11.9759 5.61263C12.0955 5.89544 12.2695 6.11848 12.498 6.28164C12.7318 6.43936 13.02 6.52091 13.3626 6.52091ZM19.9543 7.34214V2.00144H20.7757V7.34214H19.9543ZM20.3731 1.11494C20.2099 1.11494 20.0739 1.06053 19.9543 0.951759C19.8455 0.837548 19.7857 0.707032 19.7857 0.55475C19.7857 0.402469 19.8455 0.271958 19.9543 0.163185C20.0739 0.0544128 20.2099 0 20.3731 0C20.5308 0 20.6668 0.0544128 20.781 0.163185C20.8952 0.271958 20.9549 0.402469 20.9549 0.55475C20.9549 0.707032 20.8952 0.837548 20.781 0.951759C20.6668 1.06053 20.5308 1.11494 20.3731 1.11494ZM23.098 4.1279V7.34214H22.2766V2.00144H23.0706V2.83895H23.1412C23.2663 2.56702 23.4513 2.34949 23.7069 2.18089C23.9625 2.01774 24.2944 1.93074 24.6969 1.93074C25.0558 1.93074 25.3766 2.00683 25.6431 2.15367C25.915 2.30052 26.1271 2.52349 26.2793 2.82261C26.4262 3.12174 26.5024 3.49704 26.5024 3.94845V7.34214H25.6813V4.00282C25.6813 3.58405 25.5725 3.25777 25.3549 3.02391C25.1374 2.79005 24.8383 2.67038 24.4576 2.67038C24.1966 2.67038 23.9627 2.72474 23.756 2.83895C23.5548 2.95316 23.3915 3.12178 23.2719 3.33932C23.1577 3.55687 23.098 3.8179 23.098 4.1279ZM31.9681 7.34214L30.3365 2.00144H31.2015L32.3545 6.09123H32.4087L33.5508 2.00144H34.4264L35.5524 6.07497H35.6068L36.7652 2.00144H37.6245L35.9982 7.34214H35.1933L34.0241 3.2414H33.9425L32.773 7.34214H31.9681ZM38.7122 7.34214V2.00144H39.5333V7.34214H38.7122ZM39.1254 1.11494C38.9677 1.11494 38.8319 1.06053 38.7122 0.951759C38.598 0.837548 38.5436 0.707032 38.5436 0.55475C38.5436 0.402469 38.598 0.271958 38.7122 0.163185C38.8319 0.0544128 38.9677 0 39.1254 0C39.2886 0 39.4247 0.0544128 39.5389 0.163185C39.6531 0.271958 39.7129 0.402469 39.7129 0.55475C39.7129 0.707032 39.6531 0.837548 39.5389 0.951759C39.4247 1.06053 39.2886 1.11494 39.1254 1.11494ZM43.3568 2.00144V2.69754H40.5884V2.00144H43.3568ZM41.3933 0.723313H42.2147V5.81386C42.2147 6.04228 42.2473 6.21636 42.318 6.33601C42.3832 6.45022 42.4757 6.52632 42.579 6.56439C42.6878 6.60246 42.8021 6.61883 42.9272 6.61883C43.0142 6.61883 43.0903 6.61338 43.1447 6.6025C43.2045 6.59162 43.2533 6.58616 43.2859 6.57528L43.4546 7.31492C43.3947 7.33668 43.3188 7.35849 43.2209 7.37481C43.123 7.402 42.9923 7.41285 42.8401 7.41285C42.6116 7.41285 42.3832 7.36389 42.1602 7.26055C41.9372 7.16266 41.7576 7.0104 41.6108 6.80917C41.464 6.6025 41.3933 6.34686 41.3933 6.03686V0.723313ZM45.5267 4.1279V7.34214H44.7056V0.223002H45.5267V2.83895H45.592C45.7171 2.56158 45.9075 2.34405 46.1577 2.18089C46.4079 2.01774 46.7451 1.93074 47.1639 1.93074C47.5283 1.93074 47.849 2.00683 48.1209 2.15367C48.3929 2.29508 48.6049 2.51811 48.7572 2.81724C48.9095 3.11092 48.9856 3.4916 48.9856 3.94845V7.34214H48.1645V4.00282C48.1645 3.57861 48.0557 3.25232 47.8381 3.01846C47.6206 2.7846 47.3161 2.67038 46.9299 2.67038C46.658 2.67038 46.4186 2.72474 46.2065 2.83895C45.9944 2.95316 45.8259 3.12178 45.7062 3.33932C45.5866 3.55687 45.5267 3.8179 45.5267 4.1279ZM58.2204 2.44738C58.1442 2.21352 58.0411 2.0014 57.916 1.81648C57.7964 1.63157 57.6495 1.46841 57.4755 1.33788C57.3069 1.20735 57.1165 1.10405 56.899 1.03335C56.6814 0.968089 56.4474 0.929984 56.1918 0.929984C55.7676 0.929984 55.3816 1.03881 55.039 1.25635C54.6964 1.4739 54.4189 1.79472 54.2176 2.21894C54.011 2.64315 53.9077 3.16525 53.9077 3.77982C53.9077 4.39982 54.011 4.91649 54.2176 5.3407C54.4243 5.76491 54.7017 6.08581 55.0552 6.30879C55.4087 6.52634 55.8057 6.6351 56.2462 6.6351C56.6541 6.6351 57.0131 6.54809 57.3231 6.37405C57.6331 6.19458 57.878 5.94984 58.052 5.62896C58.2315 5.30808 58.3184 4.9274 58.3184 4.49231L58.5794 4.54668H56.4419V3.77982H59.1504V4.54668C59.1504 5.13405 59.0253 5.64532 58.7751 6.07497C58.5304 6.51006 58.1825 6.84725 57.7474 7.08654C57.3123 7.32041 56.8118 7.44007 56.2462 7.44007C55.6153 7.44007 55.0606 7.29319 54.582 6.99406C54.1088 6.70038 53.739 6.27619 53.4725 5.72689C53.206 5.18303 53.0755 4.53579 53.0755 3.77982C53.0755 3.21964 53.1517 2.71389 53.2985 2.26249C53.4562 1.81108 53.6683 1.42494 53.9457 1.1095C54.2231 0.794061 54.5547 0.549275 54.9354 0.380677C55.3161 0.21208 55.7349 0.125078 56.1918 0.125078C56.567 0.125078 56.9152 0.179496 57.2415 0.293707C57.5678 0.407918 57.8561 0.565641 58.1118 0.772309C58.3674 0.973538 58.5848 1.21826 58.7534 1.50651C58.9274 1.78932 59.0471 2.10475 59.1124 2.44738H58.2204ZM62.6855 7.45089C62.2014 7.45089 61.7829 7.33668 61.4185 7.10825C61.0541 6.87983 60.7713 6.55901 60.57 6.14567C60.3688 5.73234 60.2654 5.25372 60.2654 4.69898C60.2654 4.14424 60.3688 3.66017 60.57 3.2414C60.7713 2.82806 61.0541 2.50717 61.4185 2.27875C61.7829 2.04489 62.2014 1.93074 62.6855 1.93074C63.1695 1.93074 63.5883 2.04489 63.9527 2.27875C64.3171 2.50717 64.5999 2.82806 64.8012 3.2414C65.0024 3.66017 65.1058 4.14424 65.1058 4.69898C65.1058 5.25372 65.0024 5.73234 64.8012 6.14567C64.5999 6.55901 64.3171 6.87983 63.9527 7.10825C63.5883 7.33668 63.1695 7.45089 62.6855 7.45089ZM62.6855 6.71669C63.0499 6.71669 63.3545 6.62422 63.5884 6.43387C63.8277 6.24896 64.0018 5.99879 64.116 5.69422C64.2302 5.38966 64.2847 5.05793 64.2847 4.69898C64.2847 4.34547 64.2302 4.0083 64.116 3.70374C64.0018 3.39373 63.8277 3.14355 63.5884 2.9532C63.3545 2.76285 63.0499 2.67038 62.6855 2.67038C62.3211 2.67038 62.0167 2.76285 61.7828 2.9532C61.5435 3.14355 61.3694 3.39373 61.2552 3.70374C61.141 4.0083 61.0865 4.34547 61.0865 4.69898C61.0865 5.05793 61.141 5.38966 61.2552 5.69422C61.3694 5.99879 61.5435 6.24896 61.7828 6.43387C62.0167 6.62422 62.3211 6.71669 62.6855 6.71669ZM68.5267 7.45089C68.0426 7.45089 67.6238 7.33668 67.2594 7.10825C66.8951 6.87983 66.6122 6.55901 66.411 6.14567C66.2097 5.73234 66.1064 5.25372 66.1064 4.69898C66.1064 4.14424 66.2097 3.66017 66.411 3.2414C66.6122 2.82806 66.8951 2.50717 67.2594 2.27875C67.6238 2.04489 68.0426 1.93074 68.5267 1.93074C69.0107 1.93074 69.4295 2.04489 69.7939 2.27875C70.1583 2.50717 70.4411 2.82806 70.6424 3.2414C70.8436 3.66017 70.947 4.14424 70.947 4.69898C70.947 5.25372 70.8436 5.73234 70.6424 6.14567C70.4411 6.55901 70.1583 6.87983 69.7939 7.10825C69.4295 7.33668 69.0107 7.45089 68.5267 7.45089ZM68.5267 6.71669C68.8911 6.71669 69.1957 6.62422 69.4296 6.43387C69.6689 6.24896 69.8428 5.99879 69.957 5.69422C70.0712 5.38966 70.1256 5.05793 70.1256 4.69898C70.1256 4.34547 70.0712 4.0083 69.957 3.70374C69.8428 3.39373 69.6689 3.14355 69.4296 2.9532C69.1957 2.76285 68.8911 2.67038 68.5267 2.67038C68.1623 2.67038 67.8576 2.76285 67.6238 2.9532C67.3845 3.14355 67.2106 3.39373 67.0964 3.70374C66.9876 4.0083 66.9278 4.34547 66.9278 4.69898C66.9278 5.05793 66.9876 5.38966 67.0964 5.69422C67.2106 5.99879 67.3845 6.24896 67.6238 6.43387C67.8576 6.62422 68.1623 6.71669 68.5267 6.71669ZM74.357 9.45778C73.96 9.45778 73.6171 9.40337 73.3343 9.30548C73.0461 9.20215 72.8122 9.07163 72.6218 8.90847C72.4315 8.74531 72.2849 8.5713 72.1707 8.38638L72.8231 7.92405C72.8993 8.02194 72.9917 8.13615 73.106 8.26124C73.2202 8.38633 73.3778 8.49515 73.5736 8.58761C73.7694 8.68551 74.0307 8.73446 74.357 8.73446C74.7867 8.73446 75.1401 8.63109 75.423 8.41898C75.7003 8.21231 75.8417 7.88604 75.8417 7.44007V6.35234H75.7708C75.711 6.45024 75.6296 6.57528 75.5154 6.71669C75.4066 6.85809 75.2488 6.98322 75.0421 7.09743C74.8409 7.2062 74.5635 7.26055 74.2155 7.26055C73.7858 7.26055 73.3997 7.15725 73.0571 6.95058C72.7145 6.74935 72.4424 6.45022 72.2466 6.06408C72.0454 5.6725 71.9476 5.19935 71.9476 4.64461C71.9476 4.09531 72.0454 3.62214 72.2357 3.21425C72.4315 2.80635 72.698 2.49091 73.0406 2.26793C73.3833 2.04495 73.7805 1.93074 74.2319 1.93074C74.5746 1.93074 74.8517 1.99053 75.0583 2.10475C75.265 2.21896 75.4228 2.34947 75.5316 2.49631C75.6403 2.63771 75.7275 2.75738 75.7873 2.84983H75.8688V2.00144H76.6628V7.49444C76.6628 7.95129 76.5595 8.32652 76.3474 8.61476C76.1461 8.90301 75.8634 9.11514 75.5154 9.25111C75.1673 9.38707 74.7812 9.45778 74.357 9.45778ZM74.3243 6.52091C74.6561 6.52091 74.9335 6.44475 75.1619 6.2979C75.3903 6.14562 75.5588 5.9281 75.6784 5.6453C75.7981 5.36249 75.8579 5.0253 75.8579 4.62828C75.8579 4.24757 75.7982 3.90494 75.684 3.61126C75.5643 3.31757 75.3956 3.08914 75.1672 2.92054C74.9388 2.75194 74.6615 2.67038 74.3243 2.67038C73.9817 2.67038 73.6878 2.75739 73.4594 2.93143C73.2256 3.1109 73.057 3.34473 72.9373 3.64385C72.8286 3.93754 72.7687 4.26933 72.7687 4.62828C72.7687 5.00354 72.8287 5.32982 72.9429 5.61263C73.0626 5.89544 73.2366 6.11848 73.465 6.28164C73.6989 6.43936 73.9817 6.52091 74.3243 6.52091ZM78.9851 0.223002V7.34214H78.164V0.223002H78.9851ZM82.7269 7.45089C82.2102 7.45089 81.7698 7.34212 81.3945 7.1137C81.0247 6.88528 80.7364 6.56445 80.5352 6.15112C80.3394 5.74322 80.2359 5.25917 80.2359 4.71531C80.2359 4.16601 80.3394 3.68739 80.5352 3.26862C80.7364 2.84984 81.0191 2.5235 81.3781 2.28964C81.737 2.05034 82.1613 1.93074 82.6453 1.93074C82.9227 1.93074 83.1948 1.97969 83.4667 2.07215C83.7386 2.1646 83.9833 2.31686 84.2063 2.52353C84.4293 2.7302 84.6087 3.00213 84.7393 3.34477C84.8698 3.6874 84.935 4.10614 84.935 4.60106V4.94914H80.8233V4.24215H84.103C84.103 3.93759 84.0431 3.67104 83.9235 3.43718C83.8038 3.19788 83.6351 3.01302 83.4176 2.87705C83.1946 2.73565 82.939 2.67038 82.6453 2.67038C82.319 2.67038 82.0362 2.75194 81.7969 2.9151C81.5576 3.07282 81.3782 3.2795 81.2477 3.54055C81.1226 3.79617 81.0573 4.07355 81.0573 4.36723V4.84039C81.0573 5.24285 81.1279 5.58548 81.2639 5.86285C81.4053 6.14022 81.601 6.35229 81.8566 6.49913C82.1068 6.64597 82.3951 6.71669 82.7269 6.71669C82.9444 6.71669 83.1349 6.6841 83.309 6.62427C83.4884 6.56445 83.6406 6.47199 83.7657 6.3469C83.8962 6.22181 83.9942 6.06948 84.0594 5.88456L84.8534 6.10212C84.7719 6.37405 84.6304 6.60795 84.4347 6.81461C84.2389 7.01584 83.9942 7.17356 83.706 7.28777C83.4123 7.39654 83.0858 7.45089 82.7269 7.45089Z" fill="black"/>
</svg>
