<svg width="4" height="6" viewBox="0 0 4 6" fill="none" xmlns="http://www.w3.org/2000/svg">
<path d="M0 5.55826V0H2.06684C2.48561 0 2.8444 0.0815475 3.12721 0.239268C3.41546 0.396988 3.63311 0.614578 3.77995 0.897386C3.93223 1.17476 4.00275 1.48475 4.00275 1.83826C4.00275 2.19721 3.93223 2.51265 3.77995 2.79002C3.63311 3.06739 3.41558 3.28491 3.1219 3.44263C2.83365 3.60035 2.47459 3.68196 2.05037 3.68196H0.685405V2.84983H1.91441C2.16458 2.84983 2.36588 2.80634 2.5236 2.72476C2.68132 2.63774 2.7956 2.51807 2.87174 2.36579C2.94788 2.21351 2.99124 2.03949 2.99124 1.83826C2.99124 1.64247 2.94788 1.46839 2.87174 1.32155C2.7956 1.16927 2.68132 1.04967 2.5236 0.968091C2.36588 0.881073 2.15927 0.842947 1.9091 0.842947H1.00062V5.55826H0Z" fill="black"/>
</svg>
