<svg width="49" height="9" viewBox="0 0 49 9" fill="none" xmlns="http://www.w3.org/2000/svg">
<path d="M3.73082 1.77844C3.69275 1.46844 3.54587 1.22365 3.27937 1.04962C3.01832 0.875582 2.69212 0.788574 2.31142 0.788574C2.02861 0.788574 1.78368 0.837522 1.57157 0.92454C1.3649 1.017 1.20194 1.14205 1.08773 1.29977C0.973514 1.45749 0.913519 1.64241 0.913519 1.84364C0.913519 2.01223 0.951706 2.15366 1.03329 2.27875C1.11487 2.3984 1.22368 2.49632 1.34877 2.5779C1.4793 2.65404 1.60968 2.71937 1.75109 2.77375C1.89249 2.8227 2.01756 2.86075 2.13721 2.89339L2.77906 3.06733C2.94222 3.11084 3.12701 3.1707 3.32824 3.24684C3.5349 3.32298 3.73074 3.42636 3.91565 3.55688C4.10056 3.68741 4.2529 3.85596 4.37799 4.05719C4.49764 4.26386 4.5575 4.51411 4.5575 4.80779C4.5575 5.15043 4.47036 5.46041 4.29088 5.73778C4.11141 6.00971 3.85596 6.23267 3.51333 6.39583C3.1707 6.55355 2.75721 6.6351 2.27318 6.6351C1.82177 6.6351 1.42479 6.56445 1.09304 6.4176C0.766719 6.27076 0.505569 6.06947 0.315217 5.80841C0.130304 5.54736 0.0217545 5.24283 0 4.89476H0.788441C0.810196 5.13406 0.891743 5.3299 1.02771 5.48762C1.17455 5.6399 1.35415 5.75949 1.56626 5.83563C1.78924 5.90634 2.023 5.94438 2.27318 5.94438C2.56686 5.94438 2.82802 5.89543 3.06188 5.80297C3.29574 5.70508 3.47509 5.57455 3.61106 5.40052C3.74702 5.22648 3.81766 5.02533 3.81766 4.7969C3.81766 4.5848 3.75793 4.4161 3.64372 4.28557C3.52407 4.14961 3.37186 4.04635 3.17607 3.95934C2.98572 3.87776 2.77898 3.80698 2.55599 3.74715L1.77818 3.52422C1.28326 3.38281 0.89186 3.17622 0.603613 2.91516C0.315366 2.64867 0.17394 2.30595 0.17394 1.8763C0.17394 1.52279 0.266408 1.21281 0.45676 0.951759C0.65255 0.685267 0.913572 0.478657 1.23989 0.331815C1.56621 0.184972 1.93047 0.108746 2.33293 0.108746C2.74082 0.108746 3.10521 0.184972 3.42065 0.331815C3.74153 0.473219 3.99178 0.674363 4.17669 0.92454C4.36161 1.17472 4.46496 1.463 4.4704 1.77844H3.73082ZM8.71242 4.58472V1.77844H9.44138V6.52635H8.71242V5.72144H8.66356C8.54935 5.96618 8.37533 6.16735 8.14147 6.33595C7.90761 6.50454 7.61399 6.58623 7.25504 6.58623C6.95592 6.58623 6.69488 6.52092 6.46102 6.39583C6.2326 6.25986 6.04769 6.06402 5.91716 5.79753C5.78663 5.53647 5.72118 5.19936 5.72118 4.7969V1.77844H6.45014V4.74791C6.45014 5.09054 6.54791 5.36792 6.73827 5.57459C6.93406 5.78126 7.18417 5.88463 7.48873 5.88463C7.66821 5.88463 7.85313 5.83568 8.04348 5.74322C8.2284 5.65076 8.39162 5.50934 8.51671 5.31899C8.64723 5.12864 8.71242 4.88385 8.71242 4.58472ZM10.7793 6.52635V1.77844H11.4809V2.49638H11.5297C11.6167 2.26252 11.7745 2.07214 12.003 1.92529C12.2259 1.77845 12.4815 1.70767 12.7643 1.70767C12.8187 1.70767 12.8895 1.70767 12.9656 1.70767C13.0472 1.71311 13.1069 1.71312 13.1504 1.71856V2.45827C13.1232 2.45283 13.0688 2.44193 12.9818 2.43105C12.8948 2.42017 12.8024 2.40927 12.7046 2.40927C12.4761 2.40927 12.2694 2.45823 12.0845 2.55613C11.905 2.64858 11.7637 2.78454 11.6604 2.95314C11.557 3.1163 11.508 3.30667 11.508 3.52422V6.52635H10.7793ZM14.0151 8.30479V1.77844H14.7167V2.53435H14.8038C14.8582 2.45277 14.9344 2.34409 15.0269 2.219C15.1248 2.08847 15.2606 1.97419 15.4401 1.87086C15.625 1.76752 15.8699 1.71856 16.1799 1.71856C16.5769 1.71856 16.9304 1.81648 17.235 2.01771C17.5395 2.21894 17.7789 2.50178 17.9475 2.86617C18.1215 3.23599 18.2029 3.66559 18.2029 4.16594C18.2029 4.66629 18.1215 5.10146 17.9475 5.47129C17.7789 5.84112 17.5395 6.12383 17.235 6.32506C16.9358 6.52629 16.5876 6.62421 16.1905 6.62421C15.886 6.62421 15.6414 6.57524 15.4565 6.47191C15.2716 6.36858 15.1355 6.25442 15.0322 6.1239C14.9343 5.99337 14.8582 5.88454 14.8038 5.79753H14.744V8.30479H14.0151ZM14.7332 4.15505C14.7332 4.514 14.7821 4.82944 14.8909 5.10137C14.9942 5.3733 15.1464 5.5855 15.3477 5.74322C15.5489 5.8955 15.7991 5.9716 16.0928 5.9716C16.3974 5.9716 16.6529 5.89005 16.8542 5.72689C17.0608 5.56373 17.2132 5.34621 17.3165 5.07428C17.4253 4.79691 17.4742 4.49225 17.4742 4.15505C17.4742 3.81786 17.4251 3.51878 17.3218 3.25229C17.2185 2.98036 17.0664 2.76829 16.8597 2.61057C16.6585 2.45285 16.3974 2.3713 16.0928 2.3713C15.7937 2.3713 15.5436 2.4474 15.3423 2.59968C15.1411 2.74652 14.9886 2.95314 14.8853 3.22507C14.782 3.48612 14.7332 3.7961 14.7332 4.15505ZM19.3177 6.52635V1.77844H20.0193V2.49638H20.0685C20.1555 2.26252 20.313 2.07214 20.5414 1.92529C20.7699 1.77845 21.0201 1.70767 21.3084 1.70767C21.3627 1.70767 21.4281 1.70767 21.5097 1.70767C21.5858 1.71311 21.6511 1.71312 21.6892 1.71856V2.45827C21.6674 2.45283 21.6076 2.44193 21.5205 2.43105C21.4335 2.42017 21.3409 2.40927 21.243 2.40927C21.0146 2.40927 20.808 2.45823 20.6285 2.55613C20.4491 2.64858 20.3076 2.78454 20.1989 2.95314C20.0955 3.1163 20.0467 3.30667 20.0467 3.52422V6.52635H19.3177ZM22.5538 6.52635V1.77844H23.2825V6.52635H22.5538ZM22.9238 0.989867C22.7823 0.989867 22.6627 0.940909 22.5594 0.843013C22.4561 0.745118 22.407 0.630833 22.407 0.494867C22.407 0.358901 22.4561 0.244749 22.5594 0.146854C22.6627 0.0489582 22.7823 0 22.9238 0C23.0652 0 23.1902 0.0489582 23.2881 0.146854C23.3914 0.244749 23.4458 0.358901 23.4458 0.494867C23.4458 0.630833 23.3914 0.745118 23.2881 0.843013C23.1902 0.940909 23.0652 0.989867 22.9238 0.989867ZM27.9816 2.84439L27.3291 3.02935C27.2856 2.92058 27.2256 2.81176 27.144 2.70842C27.0679 2.60509 26.9592 2.51809 26.8232 2.45283C26.6872 2.38212 26.5132 2.34952 26.3011 2.34952C26.0129 2.34952 25.768 2.41472 25.5722 2.55068C25.3818 2.68121 25.2896 2.8499 25.2896 3.05113C25.2896 3.23604 25.3548 3.37733 25.4853 3.48067C25.6159 3.58944 25.8226 3.67645 26.1054 3.74715L26.8067 3.91578C27.231 4.01912 27.5464 4.1769 27.7585 4.38901C27.9652 4.60111 28.0687 4.87305 28.0687 5.2048C28.0687 5.47673 27.9924 5.72139 27.8347 5.93349C27.677 6.1456 27.465 6.31429 27.1822 6.43938C26.9049 6.56447 26.5838 6.62421 26.214 6.62421C25.73 6.62421 25.3275 6.52096 25.0121 6.30886C24.6967 6.10219 24.4955 5.79209 24.4085 5.38963L25.0992 5.21569C25.1699 5.4713 25.295 5.66156 25.4744 5.79208C25.6593 5.91717 25.904 5.98249 26.2031 5.98249C26.5403 5.98249 26.8124 5.91184 27.0136 5.765C27.2148 5.61815 27.3126 5.44401 27.3126 5.24278C27.3126 5.07418 27.2583 4.93821 27.1387 4.82944C27.0245 4.71522 26.8503 4.62822 26.611 4.57384L25.817 4.38901C25.3819 4.28567 25.0666 4.12788 24.8599 3.91034C24.6587 3.69279 24.5553 3.41542 24.5553 3.0891C24.5553 2.82261 24.6314 2.58328 24.7837 2.38205C24.936 2.17539 25.1427 2.01228 25.4038 1.89263C25.6703 1.77842 25.9694 1.71856 26.3011 1.71856C26.7688 1.71856 27.1385 1.82193 27.405 2.0286C27.677 2.23526 27.8674 2.5072 27.9816 2.84439ZM31.1576 6.62421C30.7008 6.62421 30.3039 6.52641 29.9722 6.31975C29.6404 6.11852 29.3903 5.83568 29.2108 5.47129C29.0314 5.10146 28.9442 4.67719 28.9442 4.18772C28.9442 3.70368 29.0314 3.2741 29.2108 2.90427C29.3903 2.53445 29.6403 2.24071 29.9557 2.03404C30.2766 1.82193 30.652 1.71856 31.0817 1.71856C31.3319 1.71856 31.5712 1.75662 31.816 1.84364C32.0553 1.92521 32.2728 2.05586 32.474 2.24078C32.6698 2.42569 32.8273 2.67035 32.947 2.97491C33.0612 3.27404 33.1212 3.64933 33.1212 4.08986V4.3999H29.461V3.76893H32.3813C32.3813 3.50244 32.327 3.26323 32.2183 3.05113C32.1149 2.84446 31.9626 2.67578 31.7668 2.55613C31.5765 2.43648 31.3482 2.3713 31.0817 2.3713C30.7934 2.3713 30.5378 2.44739 30.3256 2.58879C30.119 2.7302 29.9557 2.91512 29.8415 3.14354C29.7273 3.37196 29.6729 3.62207 29.6729 3.88312V4.3019C29.6729 4.66085 29.7329 4.96551 29.858 5.21569C29.9831 5.46043 30.1571 5.6508 30.3801 5.77588C30.6031 5.90641 30.864 5.9716 31.1576 5.9716C31.348 5.9716 31.5221 5.94446 31.6744 5.89007C31.8321 5.83569 31.9681 5.754 32.0823 5.64523C32.1911 5.53102 32.2835 5.39517 32.3434 5.22658L33.045 5.42774C32.9743 5.66704 32.8491 5.87366 32.675 6.05857C32.4956 6.23804 32.2836 6.37402 32.0226 6.47736C31.7669 6.57525 31.4785 6.62421 31.1576 6.62421ZM36.6781 6.52635V1.77844H37.385V2.52346H37.4447C37.5426 2.26785 37.7005 2.07214 37.9235 1.93074C38.1465 1.78933 38.4075 1.71856 38.7175 1.71856C39.033 1.71856 39.294 1.78933 39.5007 1.93074C39.7073 2.07214 39.8759 2.26785 39.9901 2.52346H40.039C40.164 2.27873 40.3437 2.08303 40.5884 1.93618C40.8277 1.78934 41.1213 1.71856 41.4639 1.71856C41.8882 1.71856 42.2309 1.84907 42.5028 2.11557C42.7747 2.38206 42.9051 2.78997 42.9051 3.35015V6.52635H42.1764V3.35015C42.1764 3.00207 42.084 2.74652 41.8936 2.59968C41.6978 2.4474 41.4748 2.3713 41.2138 2.3713C40.882 2.3713 40.621 2.47453 40.4415 2.67576C40.2566 2.87699 40.164 3.12725 40.164 3.43725V6.52635H39.4245V3.27406C39.4245 3.00757 39.3321 2.79005 39.1581 2.62145C38.9841 2.4583 38.761 2.3713 38.4836 2.3713C38.2932 2.3713 38.1138 2.42557 37.9506 2.52346C37.7875 2.6268 37.6569 2.76821 37.5536 2.94225C37.4557 3.12172 37.4067 3.32847 37.4067 3.56233V6.52635H36.6781ZM46.2336 6.62421C45.7713 6.62421 45.3797 6.52641 45.0479 6.31975C44.7162 6.11852 44.466 5.83568 44.2866 5.47129C44.1071 5.10146 44.0202 4.67719 44.0202 4.18772C44.0202 3.70368 44.1071 3.2741 44.2866 2.90427C44.466 2.53445 44.7108 2.24071 45.0317 2.03404C45.3526 1.82193 45.7278 1.71856 46.1574 1.71856C46.4021 1.71856 46.6469 1.75662 46.8917 1.84364C47.131 1.92521 47.3485 2.05586 47.5497 2.24078C47.7455 2.42569 47.9033 2.67035 48.023 2.97491C48.1372 3.27404 48.1969 3.64933 48.1969 4.08986V4.3999H44.5367V3.76893H47.4573C47.4573 3.50244 47.403 3.26323 47.2943 3.05113C47.1909 2.84446 47.0386 2.67578 46.8428 2.55613C46.647 2.43648 46.4185 2.3713 46.1574 2.3713C45.8692 2.3713 45.6137 2.44739 45.4016 2.58879C45.195 2.7302 45.0317 2.91512 44.9175 3.14354C44.8033 3.37196 44.7489 3.62207 44.7489 3.88312V4.3019C44.7489 4.66085 44.8086 4.96551 44.9337 5.21569C45.0588 5.46043 45.2328 5.6508 45.4558 5.77588C45.6788 5.90641 45.9345 5.9716 46.2336 5.9716C46.424 5.9716 46.5981 5.94446 46.7504 5.89007C46.9081 5.83569 47.0439 5.754 47.1527 5.64523C47.2669 5.53102 47.3541 5.39517 47.4193 5.22658L48.1209 5.42774C48.0502 5.66704 47.9251 5.87366 47.751 6.05857C47.5715 6.23804 47.3593 6.37402 47.0983 6.47736C46.8427 6.57525 46.5545 6.62421 46.2336 6.62421Z" fill="black"/>
</svg>
