<svg width="11" height="11" viewBox="0 0 11 11" fill="none" xmlns="http://www.w3.org/2000/svg">
<path d="M9.708 6.85866L7.30417 5.78182L7.29859 5.77638C7.1735 5.72199 7.03755 5.70024 6.90158 5.71656C6.76562 5.72744 6.63512 5.77094 6.52635 5.84708C6.51003 5.85796 6.49925 5.86886 6.48838 5.8743L5.24291 6.93481C4.45975 6.5541 3.64932 5.74919 3.26318 4.97147L4.32381 3.70967C4.33469 3.6988 4.34533 3.68795 4.35621 3.67163C4.42691 3.55742 4.47068 3.43236 4.48155 3.2964C4.49787 3.16043 4.47592 3.02985 4.42154 2.90477V2.89932L3.33939 0.490049C3.27413 0.332328 3.14884 0.196323 2.99656 0.109305C2.84427 0.022287 2.67028 -0.0157515 2.49624 0.00600297C1.80554 0.0984596 1.16934 0.43566 0.712492 0.963206C0.250209 1.48531 0 2.15969 0 2.85584C0 6.90217 3.29581 10.198 7.34214 10.198C8.03829 10.198 8.71267 9.94777 9.23477 9.48549C9.76232 9.02865 10.0997 8.39238 10.1921 7.70167C10.2139 7.52764 10.1756 7.35358 10.0885 7.20129C10.0015 7.04901 9.86572 6.92392 9.708 6.85866ZM7.34214 9.38219C5.61266 9.38219 3.95389 8.69147 2.7302 7.46778C1.50651 6.24409 0.815794 4.58532 0.815794 2.85584C0.815794 2.35548 0.995364 1.87689 1.32168 1.50162C1.648 1.12636 2.09932 0.881616 2.59423 0.816353V0.821797L3.66576 3.22025L2.61043 4.48198C2.59956 4.49286 2.58879 4.50377 2.58335 4.52009C2.50721 4.63974 2.45813 4.77025 2.45269 4.91165C2.44182 5.05306 2.46908 5.19446 2.52891 5.31955C2.99119 6.26587 3.94288 7.21216 4.90007 7.66901C5.02516 7.73427 5.16657 7.75604 5.30797 7.7506C5.44938 7.73972 5.5856 7.69078 5.70525 7.61463C5.71612 7.60376 5.72677 7.59285 5.73764 7.58197L6.9778 6.52691L9.37632 7.5983H9.38163C9.31637 8.09322 9.07175 8.55005 8.69649 8.87637C8.32122 9.20268 7.8425 9.38219 7.34214 9.38219Z" fill="black"/>
</svg>
