<svg width="523" height="44" viewBox="0 0 523 44" fill="none" xmlns="http://www.w3.org/2000/svg">
<path d="M0 20.8843C0 13.5748 6.37961e-05 9.9201 1.42498 7.12465C2.67587 4.67183 4.67157 2.67587 7.12439 1.42498C9.91984 6.37961e-05 13.575 0 20.8845 0H501.223C508.511 0 512.21 6.37961e-05 514.984 1.42498C517.431 2.67587 519.443 4.67183 520.694 7.12465C522.108 9.9201 522.108 13.5748 522.108 20.8843V22.6247C522.108 29.9342 522.108 33.5889 520.694 36.3843C519.443 38.8372 517.431 40.8331 514.984 42.084C512.21 43.5089 508.511 43.509 501.223 43.509H20.8845C13.575 43.509 9.91984 43.5089 7.12439 42.084C4.67157 40.8331 2.67587 38.8372 1.42498 36.3843C6.37961e-05 33.5889 0 29.9342 0 22.6247V20.8843Z" fill="white"/>
</svg>
