<svg width="28" height="8" viewBox="0 0 28 8" fill="none" xmlns="http://www.w3.org/2000/svg">
<path d="M3.26318 1.55544C3.23054 1.28351 3.10017 1.07138 2.87174 0.919096C2.63788 0.766814 2.3549 0.690716 2.01771 0.690716C1.77297 0.690716 1.56103 0.734209 1.37612 0.81035C1.19665 0.891929 1.04965 1.00069 0.951759 1.13665C0.848426 1.27806 0.799595 1.43578 0.799595 1.60981C0.799595 1.75665 0.832195 1.88722 0.902897 1.99056C0.973599 2.09933 1.06619 2.18634 1.1804 2.25704C1.28918 2.32231 1.40864 2.3821 1.52829 2.42561C1.65337 2.46911 1.76779 2.50178 1.87112 2.52897L2.43118 2.68127C2.57803 2.71934 2.73568 2.77368 2.90972 2.83895C3.08919 2.90421 3.2632 2.99667 3.42092 3.11088C3.58951 3.22509 3.72004 3.37196 3.82881 3.55144C3.93759 3.73091 3.98655 3.94844 3.98655 4.20949C3.98655 4.50862 3.91058 4.7751 3.75286 5.01984C3.60058 5.25914 3.37216 5.44952 3.07304 5.59637C2.77391 5.73777 2.41496 5.80848 1.98531 5.80848C1.59373 5.80848 1.24558 5.74316 0.957336 5.61808C0.669089 5.48755 0.440667 5.30808 0.277508 5.07966C0.114349 4.85123 0.0217545 4.58476 0 4.28564H0.690716C0.707032 4.49231 0.777808 4.66632 0.902897 4.80228C1.02255 4.93825 1.18019 5.03617 1.37054 5.10688C1.5609 5.17214 1.76777 5.20474 1.98531 5.20474C2.24636 5.20474 2.4748 5.16124 2.67603 5.07966C2.88269 4.99264 3.04022 4.87842 3.15987 4.72613C3.27952 4.57385 3.33939 4.39983 3.33939 4.1986C3.33939 4.01369 3.29056 3.86143 3.18723 3.74722C3.08389 3.63301 2.94793 3.54054 2.77933 3.4644C2.61073 3.3937 2.43126 3.32845 2.23547 3.27951L1.55564 3.08372C1.12055 2.95864 0.77784 2.77911 0.527663 2.55068C0.277487 2.31682 0.146854 2.01774 0.146854 1.64248C0.146854 1.33247 0.233988 1.06599 0.402586 0.832126C0.571183 0.598265 0.799605 0.418795 1.08241 0.293707C1.37066 0.16318 1.68597 0.0979245 2.03948 0.0979245C2.39843 0.0979245 2.71387 0.163175 2.99124 0.288263C3.26861 0.413351 3.49171 0.587366 3.65487 0.81035C3.81803 1.02789 3.90517 1.27807 3.91061 1.55544H3.26318ZM5.00364 5.71056V1.55544H5.63992V5.71056H5.00364ZM5.33001 0.864723C5.20492 0.864723 5.09597 0.821224 5.00895 0.739645C4.9165 0.652627 4.87299 0.549328 4.87299 0.435117C4.87299 0.315467 4.9165 0.212096 5.00895 0.125078C5.09597 0.0434984 5.20492 0 5.33001 0C5.4551 0 5.55848 0.0434984 5.64549 0.125078C5.73795 0.212096 5.78146 0.315467 5.78146 0.435117C5.78146 0.549328 5.73795 0.652627 5.64549 0.739645C5.55848 0.821224 5.4551 0.864723 5.33001 0.864723ZM8.48989 7.35303C8.17988 7.35303 7.91327 7.31498 7.69029 7.2334C7.47275 7.15726 7.28796 7.05389 7.14112 6.9288C6.99427 6.80371 6.87441 6.66775 6.78739 6.52091L7.29886 6.16738C7.35324 6.23808 7.42933 6.32515 7.51635 6.42305C7.60337 6.52094 7.72841 6.60795 7.8807 6.67865C8.03298 6.75479 8.23971 6.79284 8.48989 6.79284C8.82164 6.79284 9.09902 6.71128 9.31657 6.54813C9.53411 6.38497 9.64267 6.13478 9.64267 5.78671V4.94369H9.5885C9.54499 5.01983 9.47953 5.1123 9.39252 5.22651C9.3055 5.33528 9.18602 5.4332 9.02286 5.52022C8.86514 5.6018 8.6475 5.6453 8.38101 5.6453C8.04381 5.6453 7.7446 5.56368 7.47811 5.40596C7.21162 5.24824 6.99969 5.01988 6.84741 4.71531C6.69513 4.41075 6.61903 4.04635 6.61903 3.61126C6.61903 3.18704 6.68955 2.81719 6.84183 2.50175C6.98868 2.18631 7.20073 1.93615 7.46722 1.76755C7.73371 1.58808 8.03838 1.50107 8.39189 1.50107C8.65839 1.50107 8.87603 1.55001 9.03375 1.63703C9.19691 1.72949 9.31639 1.82735 9.4034 1.94156C9.49042 2.05577 9.55588 2.14279 9.59939 2.21894H9.66445V1.55544H10.2845V5.83019C10.2845 6.18914 10.2028 6.47737 10.0397 6.70036C9.87652 6.92334 9.66445 7.09196 9.39252 7.19529C9.12059 7.29862 8.82164 7.35303 8.48989 7.35303ZM8.46811 5.07421C8.72372 5.07421 8.9358 5.01441 9.11527 4.89476C9.28931 4.78055 9.42514 4.61193 9.51759 4.38894C9.61005 4.1714 9.65356 3.91037 9.65356 3.60037C9.65356 3.30124 9.61019 3.04022 9.52317 2.81179C9.43071 2.57793 9.29462 2.39846 9.12059 2.27337C8.94111 2.14285 8.72372 2.07753 8.46811 2.07753C8.19618 2.07753 7.97319 2.14279 7.78828 2.2842C7.61425 2.42016 7.47815 2.60508 7.3857 2.8335C7.29868 3.06192 7.25531 3.323 7.25531 3.60037C7.25531 3.88861 7.29882 4.14425 7.39127 4.36723C7.48373 4.58478 7.61956 4.75879 7.79359 4.88387C7.97307 5.00896 8.20162 5.07421 8.46811 5.07421ZM12.0901 3.21425V5.71056H11.4538V1.55544H12.0685V2.20811H12.1227C12.2206 1.99601 12.3675 1.82738 12.5633 1.69685C12.7645 1.56632 13.0201 1.50107 13.3355 1.50107C13.6129 1.50107 13.8577 1.56086 14.0698 1.67507C14.2819 1.78928 14.4451 1.96336 14.5648 2.19723C14.679 2.42565 14.7387 2.71933 14.7387 3.07284V5.71056H14.1025V3.11632C14.1025 2.79 14.0153 2.53438 13.8467 2.3549C13.6781 2.16999 13.4444 2.07753 13.1507 2.07753C12.944 2.07753 12.7647 2.1211 12.6015 2.20811C12.4438 2.29513 12.3185 2.42564 12.226 2.59423C12.1336 2.76283 12.0901 2.96951 12.0901 3.21425ZM21.7654 0.174007H22.4399V3.8397C22.4399 4.22041 22.3474 4.55759 22.168 4.85128C21.9939 5.1504 21.7437 5.38422 21.4228 5.55281C21.0965 5.72141 20.7213 5.80848 20.2862 5.80848C19.8511 5.80848 19.4703 5.72141 19.1494 5.55281C18.8285 5.38422 18.5784 5.1504 18.3989 4.85128C18.2194 4.55759 18.1326 4.22041 18.1326 3.8397V0.174007H18.8015V3.78526C18.8015 4.05719 18.8614 4.29654 18.981 4.50864C19.1007 4.71531 19.2692 4.88386 19.4922 5.00351C19.7098 5.12316 19.9762 5.18303 20.2862 5.18303C20.5962 5.18303 20.8573 5.12316 21.0802 5.00351C21.3032 4.88386 21.4719 4.71531 21.5861 4.50864C21.7058 4.29654 21.7654 4.05719 21.7654 3.78526V0.174007ZM23.6907 7.266V1.55544H24.3055V2.21894H24.3814C24.4303 2.14279 24.4958 2.05577 24.5774 1.94156C24.6644 1.82735 24.784 1.72949 24.9417 1.63703C25.0994 1.55001 25.3114 1.50107 25.5833 1.50107C25.9314 1.50107 26.2415 1.58808 26.508 1.76755C26.7745 1.94159 26.9811 2.18632 27.1334 2.5072C27.2802 2.82808 27.3564 3.20876 27.3564 3.64385C27.3564 4.08438 27.2802 4.46514 27.1334 4.78602C26.9811 5.1069 26.7745 5.35708 26.508 5.53655C26.2469 5.71059 25.9423 5.79759 25.5942 5.79759C25.3277 5.79759 25.1158 5.75409 24.9526 5.66707C24.7949 5.57461 24.6697 5.47124 24.5827 5.35703C24.4957 5.24282 24.4303 5.15035 24.3814 5.07421H24.327V7.266H23.6907ZM24.3161 3.63303C24.3161 3.94847 24.3652 4.22579 24.4576 4.46509C24.5501 4.70439 24.6805 4.88932 24.8599 5.02528C25.034 5.15581 25.2517 5.22651 25.5074 5.22651C25.7739 5.22651 25.9968 5.1558 26.1763 5.0144C26.3558 4.87299 26.4916 4.67724 26.5786 4.43794C26.6711 4.19864 26.7202 3.93216 26.7202 3.63303C26.7202 3.33934 26.6712 3.07825 26.5842 2.84439C26.4972 2.61053 26.3611 2.42016 26.1816 2.2842C26.0021 2.14823 25.7793 2.07753 25.5074 2.07753C25.2463 2.07753 25.0287 2.14285 24.8546 2.27337C24.6751 2.4039 24.5445 2.58332 24.452 2.82261C24.365 3.05104 24.3161 3.32303 24.3161 3.63303Z" fill="#9F9FF8"/>
</svg>
