<svg width="208" height="19" viewBox="0 0 208 19" fill="none" xmlns="http://www.w3.org/2000/svg">
<path d="M0.087103 5.79753V0.261043H3.41003V0.853769H0.76162V2.72476H3.15987V3.32293H0.76162V5.79753H0.087103ZM5.8521 5.8845C5.47683 5.8845 5.15048 5.79748 4.86768 5.61801C4.58487 5.43853 4.36721 5.18842 4.20405 4.86754C4.05176 4.54666 3.97036 4.17136 3.97036 3.74171C3.97036 3.31206 4.05176 2.93131 4.20405 2.61043C4.36721 2.28956 4.58487 2.034 4.86768 1.85997C5.15048 1.68049 5.47683 1.58804 5.8521 1.58804C6.22736 1.58804 6.55915 1.68049 6.83652 1.85997C7.11933 2.034 7.34217 2.28956 7.49989 2.61043C7.65761 2.93131 7.73384 3.31206 7.73384 3.74171C7.73384 4.17136 7.65761 4.54666 7.49989 4.86754C7.34217 5.18842 7.11933 5.43853 6.83652 5.61801C6.55915 5.79748 6.22736 5.8845 5.8521 5.8845ZM5.8521 5.31355C6.14035 5.31355 6.37423 5.23732 6.5537 5.09048C6.73862 4.94364 6.87445 4.75325 6.96691 4.51395C7.05393 4.28009 7.09757 4.01908 7.09757 3.74171C7.09757 3.46434 7.05393 3.20876 6.96691 2.96402C6.87445 2.72472 6.73862 2.53434 6.5537 2.3875C6.37423 2.23522 6.14035 2.16456 5.8521 2.16456C5.56929 2.16456 5.33541 2.23522 5.1505 2.3875C4.96558 2.53434 4.82962 2.72472 4.7426 2.96402C4.65558 3.20876 4.61194 3.46434 4.61194 3.74171C4.61194 4.01908 4.65558 4.28009 4.7426 4.51395C4.82962 4.75325 4.96558 4.94364 5.1505 5.09048C5.33541 5.23732 5.56929 5.31355 5.8521 5.31355ZM8.70738 5.79753V1.64248H9.32745V2.27331H9.37074C9.44688 2.06664 9.58285 1.89809 9.77864 1.773C9.97987 1.64247 10.203 1.57715 10.4532 1.57715C10.4967 1.57715 10.5564 1.58259 10.6271 1.58259C10.6978 1.58259 10.7522 1.58804 10.7848 1.58804V2.24064C10.7631 2.23521 10.7141 2.2243 10.638 2.21342C10.5618 2.20255 10.4803 2.19709 10.3987 2.19709C10.192 2.19709 10.0126 2.24072 9.85485 2.3223C9.69713 2.40388 9.57195 2.52347 9.48493 2.67032C9.39247 2.81716 9.34896 2.98028 9.34896 3.17063V5.79753H8.70738ZM13.6837 5.79753V1.64248H14.2982V2.29508H14.3526C14.4396 2.0721 14.581 1.89809 14.7714 1.77844C14.9672 1.65335 15.1955 1.58804 15.4674 1.58804C15.7448 1.58804 15.9679 1.65335 16.1528 1.77844C16.3377 1.89809 16.4792 2.0721 16.5825 2.29508H16.626C16.7294 2.07754 16.8925 1.90897 17.1046 1.78389C17.3167 1.65336 17.5724 1.58804 17.8715 1.58804C18.2413 1.58804 18.5459 1.70763 18.7797 1.94149C19.019 2.16992 19.1332 2.52885 19.1332 3.01833V5.79753H18.4969V3.01833C18.4969 2.71377 18.4153 2.49081 18.2467 2.36028C18.0781 2.22975 17.8822 2.16456 17.6538 2.16456C17.3601 2.16456 17.1371 2.25157 16.9739 2.43105C16.8162 2.60509 16.7347 2.82261 16.7347 3.09455V5.79753H16.0822V2.95314C16.0822 2.71928 16.0061 2.5289 15.8538 2.38205C15.7015 2.23521 15.5056 2.16456 15.2608 2.16456C15.0977 2.16456 14.9399 2.20807 14.7985 2.29508C14.6571 2.3821 14.5376 2.50715 14.4506 2.66487C14.3636 2.81715 14.3199 2.99662 14.3199 3.20329V5.79753H13.6837ZM21.9885 5.8845C21.6132 5.8845 21.2868 5.79748 21.004 5.61801C20.7212 5.43853 20.4984 5.18842 20.3407 4.86754C20.183 4.54666 20.1067 4.17136 20.1067 3.74171C20.1067 3.31206 20.183 2.93131 20.3407 2.61043C20.4984 2.28956 20.7212 2.034 21.004 1.85997C21.2868 1.68049 21.6132 1.58804 21.9885 1.58804C22.3637 1.58804 22.6901 1.68049 22.9729 1.85997C23.2557 2.034 23.4732 2.28956 23.6309 2.61043C23.7887 2.93131 23.8702 3.31206 23.8702 3.74171C23.8702 4.17136 23.7887 4.54666 23.6309 4.86754C23.4732 5.18842 23.2557 5.43853 22.9729 5.61801C22.6901 5.79748 22.3637 5.8845 21.9885 5.8845ZM21.9885 5.31355C22.2713 5.31355 22.5051 5.23732 22.6901 5.09048C22.875 4.94364 23.0109 4.75325 23.098 4.51395C23.1904 4.28009 23.2339 4.01908 23.2339 3.74171C23.2339 3.46434 23.1904 3.20876 23.098 2.96402C23.0109 2.72472 22.875 2.53434 22.6901 2.3875C22.5051 2.23522 22.2713 2.16456 21.9885 2.16456C21.7056 2.16456 21.4718 2.23522 21.2869 2.3875C21.1019 2.53434 20.966 2.72472 20.879 2.96402C20.7865 3.20876 20.743 3.46434 20.743 3.74171C20.743 4.01908 20.7865 4.28009 20.879 4.51395C20.966 4.75325 21.1019 4.94364 21.2869 5.09048C21.4718 5.23732 21.7056 5.31355 21.9885 5.31355ZM24.8437 5.79753V1.64248H25.4638V2.27331H25.5018C25.5779 2.06664 25.7195 1.89809 25.9153 1.773C26.1111 1.64247 26.3395 1.57715 26.5842 1.57715C26.6332 1.57715 26.6928 1.58259 26.7635 1.58259C26.8342 1.58259 26.8831 1.58804 26.9212 1.58804V2.24064C26.8994 2.23521 26.8505 2.2243 26.7743 2.21342C26.6982 2.20255 26.6168 2.19709 26.5298 2.19709C26.3285 2.19709 26.1489 2.24072 25.9912 2.3223C25.8335 2.40388 25.7084 2.52347 25.616 2.67032C25.529 2.81716 25.48 2.98028 25.48 3.17063V5.79753H24.8437ZM29.2926 5.8845C28.8902 5.8845 28.5473 5.79748 28.2591 5.61801C27.9708 5.43853 27.7479 5.19387 27.5901 4.87299C27.4324 4.55211 27.3564 4.17681 27.3564 3.7526C27.3564 3.32839 27.4324 2.95308 27.5901 2.62677C27.7479 2.30045 27.9655 2.05032 28.2429 1.86541C28.5257 1.6805 28.852 1.58804 29.2273 1.58804C29.4448 1.58804 29.657 1.62608 29.8692 1.69678C30.0813 1.77292 30.2714 1.88721 30.4454 2.05037C30.6194 2.20809 30.7556 2.4256 30.8589 2.68665C30.9622 2.95314 31.0111 3.27949 31.0111 3.66563V3.93756H27.8132V3.38825H30.3639C30.3639 3.14895 30.3151 2.9422 30.2226 2.75729C30.1302 2.57237 29.9996 2.43108 29.8256 2.3223C29.657 2.21897 29.4557 2.16456 29.2273 2.16456C28.9717 2.16456 28.7542 2.22431 28.5692 2.35483C28.3843 2.47448 28.2428 2.63772 28.1449 2.83895C28.0416 3.04018 27.9927 3.25224 27.9927 3.48067V3.85046C27.9927 4.1659 28.047 4.43237 28.1558 4.64992C28.2645 4.86202 28.417 5.03071 28.6128 5.14492C28.8086 5.25369 29.037 5.31355 29.2926 5.31355C29.4612 5.31355 29.6134 5.28629 29.7494 5.24278C29.8854 5.19383 29.9995 5.11774 30.1028 5.02528C30.2007 4.92739 30.2768 4.80765 30.3312 4.66081L30.946 4.83488C30.8807 5.04155 30.7719 5.22647 30.6196 5.38419C30.4673 5.54191 30.277 5.66696 30.054 5.75398C29.8256 5.84099 29.5754 5.8845 29.2926 5.8845ZM34.1221 5.79753V1.64248H34.7639V5.79753H34.1221ZM34.4484 0.951759C34.3233 0.951759 34.2144 0.908261 34.1274 0.826682C34.0404 0.739664 33.997 0.636298 33.997 0.522087C33.997 0.402437 34.0404 0.299066 34.1274 0.212048C34.2144 0.130469 34.3233 0.0869702 34.4484 0.0869702C34.5735 0.0869702 34.6768 0.130469 34.7692 0.212048C34.8562 0.299066 34.9052 0.402437 34.9052 0.522087C34.9052 0.636298 34.8562 0.739664 34.7692 0.826682C34.6768 0.908261 34.5735 0.951759 34.4484 0.951759ZM36.5694 3.30115V5.79753H35.9332V1.64248H36.5477V2.29508H36.6021C36.7 2.08298 36.8469 1.91441 37.0427 1.78389C37.2439 1.65336 37.4995 1.58804 37.8149 1.58804C38.0923 1.58804 38.3425 1.6479 38.5492 1.76211C38.7613 1.87632 38.9243 2.05034 39.0439 2.2842C39.1581 2.51262 39.2181 2.80623 39.2181 3.15974V5.79753H38.5816V3.20329C38.5816 2.87697 38.4947 2.62141 38.3261 2.44194C38.1575 2.25702 37.9235 2.16456 37.6298 2.16456C37.4231 2.16456 37.2438 2.20807 37.0806 2.29508C36.9229 2.3821 36.7979 2.51261 36.7054 2.68121C36.613 2.8498 36.5694 3.05641 36.5694 3.30115ZM42.2365 1.64248V2.18634H39.9957V1.64248H42.2365ZM40.6646 5.79753V1.07139C40.6646 0.832094 40.7245 0.636255 40.8332 0.478535C40.9475 0.315377 41.089 0.201213 41.2685 0.119634C41.448 0.0380544 41.6383 0 41.8341 0C41.9918 0 42.1169 0.0107816 42.2202 0.0379748C42.3181 0.0651679 42.3888 0.0869915 42.4377 0.108746L42.2582 0.658052C42.2256 0.647175 42.1766 0.636261 42.1223 0.619945C42.0624 0.603629 41.9916 0.592725 41.8992 0.592725C41.6871 0.592725 41.5349 0.647138 41.4424 0.75591C41.35 0.859244 41.3065 1.01702 41.3065 1.22369V5.79753H40.6646ZM44.6459 5.8845C44.2706 5.8845 43.9387 5.79748 43.6559 5.61801C43.3785 5.43853 43.1555 5.18842 42.9978 4.86754C42.8401 4.54666 42.7641 4.17136 42.7641 3.74171C42.7641 3.31206 42.8401 2.93131 42.9978 2.61043C43.1555 2.28956 43.3785 2.034 43.6559 1.85997C43.9387 1.68049 44.2706 1.58804 44.6459 1.58804C45.0211 1.58804 45.3475 1.68049 45.6303 1.85997C45.9131 2.034 46.1306 2.28956 46.2883 2.61043C46.446 2.93131 46.5276 3.31206 46.5276 3.74171C46.5276 4.17136 46.446 4.54666 46.2883 4.86754C46.1306 5.18842 45.9131 5.43853 45.6303 5.61801C45.3475 5.79748 45.0211 5.8845 44.6459 5.8845ZM44.6459 5.31355C44.9287 5.31355 45.1625 5.23732 45.3475 5.09048C45.5324 4.94364 45.6683 4.75325 45.7554 4.51395C45.8424 4.28009 45.8913 4.01908 45.8913 3.74171C45.8913 3.46434 45.8424 3.20876 45.7554 2.96402C45.6683 2.72472 45.5324 2.53434 45.3475 2.3875C45.1625 2.23522 44.9287 2.16456 44.6459 2.16456C44.3576 2.16456 44.1237 2.23522 43.9443 2.3875C43.7593 2.53434 43.6234 2.72472 43.5364 2.96402C43.4439 3.20876 43.4004 3.46434 43.4004 3.74171C43.4004 4.01908 43.4439 4.28009 43.5364 4.51395C43.6234 4.75325 43.7593 4.94364 43.9443 5.09048C44.1237 5.23732 44.3576 5.31355 44.6459 5.31355ZM47.5011 5.79753V1.64248H48.1156V2.27331H48.1592C48.2353 2.06664 48.3712 1.89809 48.5724 1.773C48.7682 1.64247 48.9912 1.57715 49.2413 1.57715C49.2903 1.57715 49.3503 1.58259 49.4155 1.58259C49.4862 1.58259 49.5405 1.58804 49.5786 1.58804V2.24064C49.5568 2.23521 49.508 2.2243 49.4264 2.21342C49.3557 2.20255 49.2739 2.19709 49.1869 2.19709C48.9857 2.19709 48.8063 2.24072 48.6486 2.3223C48.4909 2.40388 48.3658 2.52347 48.2734 2.67032C48.1864 2.81716 48.1374 2.98028 48.1374 3.17063V5.79753H47.5011ZM50.3346 5.79753V1.64248H50.9491V2.29508H51.0036C51.0906 2.0721 51.232 1.89809 51.4224 1.77844C51.6182 1.65335 51.8465 1.58804 52.1184 1.58804C52.3903 1.58804 52.6189 1.65335 52.8038 1.77844C52.9887 1.89809 53.1301 2.0721 53.2335 2.29508H53.2768C53.3801 2.07754 53.5434 1.90897 53.7556 1.78389C53.9677 1.65336 54.2232 1.58804 54.5169 1.58804C54.8922 1.58804 55.1968 1.70763 55.4307 1.94149C55.6646 2.16992 55.7841 2.52885 55.7841 3.01833V5.79753H55.1479V3.01833C55.1479 2.71377 55.0606 2.49081 54.8974 2.36028C54.7289 2.22975 54.5277 2.16456 54.3047 2.16456C54.011 2.16456 53.7826 2.25157 53.6249 2.43105C53.4617 2.60509 53.3856 2.82261 53.3856 3.09455V5.79753H52.7329V2.95314C52.7329 2.71928 52.6568 2.5289 52.5045 2.38205C52.3522 2.23521 52.1565 2.16456 51.9118 2.16456C51.7486 2.16456 51.5909 2.20807 51.4494 2.29508C51.308 2.3821 51.1883 2.50715 51.1013 2.66487C51.0143 2.81715 50.9709 2.99662 50.9709 3.20329V5.79753H50.3346ZM58.1715 5.89538C57.9105 5.89538 57.6714 5.84643 57.4593 5.74853C57.2417 5.6452 57.0729 5.49846 56.9478 5.31355C56.8173 5.11776 56.7577 4.88932 56.7577 4.61739C56.7577 4.37809 56.8011 4.1877 56.899 4.04086C56.9914 3.88858 57.1165 3.77442 57.2742 3.6874C57.4319 3.60582 57.6006 3.54051 57.791 3.497C57.9813 3.45349 58.1771 3.4209 58.3675 3.39914C58.6231 3.36651 58.8243 3.33924 58.982 3.32293C59.1397 3.30661 59.254 3.27403 59.3301 3.23596C59.4008 3.19245 59.4388 3.12166 59.4388 3.01833V2.99669C59.4388 2.7302 59.3681 2.52345 59.2213 2.37661C59.0744 2.22433 58.8569 2.15367 58.5632 2.15367C58.2586 2.15367 58.0194 2.21887 57.8454 2.35483C57.6714 2.48536 57.5515 2.62678 57.4808 2.77906L56.8772 2.56157C56.986 2.31139 57.1274 2.11556 57.3069 1.97416C57.4918 1.83275 57.6876 1.73483 57.9052 1.67501C58.1173 1.62062 58.3348 1.58804 58.5414 1.58804C58.6774 1.58804 58.8297 1.6044 59.0038 1.63703C59.1778 1.66966 59.3464 1.73485 59.5041 1.83275C59.6727 1.93064 59.8088 2.07752 59.9176 2.27331C60.0209 2.4691 60.075 2.73013 60.075 3.06188V5.79753H59.4388V5.23733H59.4061C59.3626 5.32435 59.2919 5.42226 59.1886 5.5256C59.0907 5.62893 58.9549 5.71594 58.7863 5.78664C58.6177 5.85734 58.4163 5.89538 58.1715 5.89538ZM58.2695 5.31899C58.5251 5.31899 58.7373 5.27003 58.9114 5.17214C59.0854 5.07424 59.2158 4.94361 59.3028 4.79133C59.3952 4.63361 59.4388 4.46506 59.4388 4.29646V3.70905C59.4116 3.74168 59.3517 3.7744 59.2592 3.80159C59.1722 3.82335 59.0635 3.84503 58.9493 3.86679C58.8297 3.8831 58.7154 3.89947 58.6012 3.91578C58.4924 3.92666 58.4055 3.93757 58.3348 3.94845C58.1717 3.9702 58.0139 4.0028 57.8725 4.05175C57.7311 4.1007 57.6114 4.17135 57.5243 4.26924C57.4373 4.3617 57.394 4.48676 57.394 4.64992C57.394 4.8729 57.4754 5.04159 57.6385 5.15581C57.8071 5.26458 58.0193 5.31899 58.2695 5.31899ZM63.0501 1.64248V2.18634H60.8964V1.64248H63.0501ZM61.5218 0.647165H62.1636V4.6065C62.1636 4.78597 62.1852 4.92194 62.2396 5.0144C62.294 5.10141 62.3649 5.16115 62.4465 5.19378C62.528 5.22097 62.6204 5.23733 62.7128 5.23733C62.7835 5.23733 62.8435 5.23188 62.887 5.22644C62.9305 5.21557 62.9684 5.21011 62.9956 5.20467L63.1263 5.77575C63.0828 5.79207 63.0228 5.80843 62.9412 5.82475C62.8651 5.84106 62.7671 5.85197 62.6475 5.85197C62.468 5.85197 62.2887 5.81378 62.1201 5.73764C61.9461 5.65606 61.8046 5.5419 61.6904 5.37874C61.5816 5.22102 61.5218 5.01974 61.5218 4.78044V0.647165ZM64.0071 5.79753V1.64248H64.6437V5.79753H64.0071ZM64.3335 0.951759C64.2084 0.951759 64.0997 0.908261 64.0127 0.826682C63.9203 0.739664 63.8768 0.636298 63.8768 0.522087C63.8768 0.402437 63.9203 0.299066 64.0127 0.212048C64.0997 0.130469 64.2084 0.0869702 64.3335 0.0869702C64.4586 0.0869702 64.562 0.130469 64.649 0.212048C64.7415 0.299066 64.785 0.402437 64.785 0.522087C64.785 0.636298 64.7415 0.739664 64.649 0.826682C64.562 0.908261 64.4586 0.951759 64.3335 0.951759ZM67.5043 5.8845C67.129 5.8845 66.7974 5.79748 66.5145 5.61801C66.2317 5.43853 66.0142 5.18842 65.8565 4.86754C65.6988 4.54666 65.6225 4.17136 65.6225 3.74171C65.6225 3.31206 65.6988 2.93131 65.8565 2.61043C66.0142 2.28956 66.2317 2.034 66.5145 1.85997C66.7974 1.68049 67.129 1.58804 67.5043 1.58804C67.8795 1.58804 68.2059 1.68049 68.4887 1.85997C68.7715 2.034 68.989 2.28956 69.1468 2.61043C69.3045 2.93131 69.386 3.31206 69.386 3.74171C69.386 4.17136 69.3045 4.54666 69.1468 4.86754C68.989 5.18842 68.7715 5.43853 68.4887 5.61801C68.2059 5.79748 67.8795 5.8845 67.5043 5.8845ZM67.5043 5.31355C67.7871 5.31355 68.021 5.23732 68.2059 5.09048C68.3908 4.94364 68.5268 4.75325 68.6138 4.51395C68.7008 4.28009 68.7444 4.01908 68.7444 3.74171C68.7444 3.46434 68.7008 3.20876 68.6138 2.96402C68.5268 2.72472 68.3908 2.53434 68.2059 2.3875C68.021 2.23522 67.7871 2.16456 67.5043 2.16456C67.216 2.16456 66.9823 2.23522 66.7974 2.3875C66.6179 2.53434 66.4765 2.72472 66.3895 2.96402C66.3025 3.20876 66.2588 3.46434 66.2588 3.74171C66.2588 4.01908 66.3025 4.28009 66.3895 4.51395C66.4765 4.75325 66.6179 4.94364 66.7974 5.09048C66.9823 5.23732 67.216 5.31355 67.5043 5.31355ZM70.9958 3.30115V5.79753H70.3596V1.64248H70.9741V2.29508H71.0285C71.1264 2.08298 71.2734 1.91441 71.4746 1.78389C71.6704 1.65336 71.9259 1.58804 72.2413 1.58804C72.5187 1.58804 72.7689 1.6479 72.9756 1.76211C73.1877 1.87632 73.3509 2.05034 73.4706 2.2842C73.5848 2.51262 73.6445 2.80623 73.6445 3.15974V5.79753H73.0082V3.20329C73.0082 2.87697 72.9211 2.62141 72.7525 2.44194C72.5839 2.25702 72.3502 2.16456 72.0565 2.16456C71.8498 2.16456 71.6703 2.20807 71.5126 2.29508C71.3494 2.3821 71.2243 2.51261 71.1318 2.68121C71.0393 2.8498 70.9958 3.05641 70.9958 3.30115ZM78.1749 5.89538C77.9139 5.89538 77.6747 5.84643 77.4571 5.74853C77.245 5.6452 77.0762 5.49846 76.9457 5.31355C76.8206 5.11776 76.7608 4.88932 76.7608 4.61739C76.7608 4.37809 76.8043 4.1877 76.8968 4.04086C76.9947 3.88858 77.1199 3.77442 77.2776 3.6874C77.4299 3.60582 77.6038 3.54051 77.7941 3.497C77.9845 3.45349 78.1749 3.4209 78.3706 3.39914C78.6208 3.36651 78.8274 3.33924 78.9851 3.32293C79.1429 3.30661 79.2573 3.27403 79.328 3.23596C79.4041 3.19245 79.4422 3.12166 79.4422 3.01833V2.99669C79.4422 2.7302 79.3661 2.52345 79.2247 2.37661C79.0778 2.22433 78.86 2.15367 78.5664 2.15367C78.2618 2.15367 78.0226 2.21887 77.8486 2.35483C77.6745 2.48536 77.5549 2.62678 77.4842 2.77906L76.875 2.56157C76.9838 2.31139 77.1308 2.11556 77.3103 1.97416C77.4952 1.83275 77.6909 1.73483 77.903 1.67501C78.1205 1.62062 78.3327 1.58804 78.5448 1.58804C78.6754 1.58804 78.8276 1.6044 79.0016 1.63703C79.1756 1.66966 79.3441 1.73485 79.5072 1.83275C79.6704 1.93064 79.8064 2.07752 79.9151 2.27331C80.0239 2.4691 80.0784 2.73013 80.0784 3.06188V5.79753H79.4422V5.23733H79.4095C79.366 5.32435 79.2953 5.42226 79.192 5.5256C79.0887 5.62893 78.958 5.71594 78.7894 5.78664C78.6208 5.85734 78.4197 5.89538 78.1749 5.89538ZM78.2729 5.31899C78.5231 5.31899 78.7406 5.27003 78.9092 5.17214C79.0887 5.07424 79.2192 4.94361 79.3062 4.79133C79.3987 4.63361 79.4422 4.46506 79.4422 4.29646V3.70905C79.415 3.74168 79.3551 3.7744 79.2626 3.80159C79.1702 3.82335 79.0668 3.84503 78.9472 3.86679C78.833 3.8831 78.7188 3.89947 78.6046 3.91578C78.4958 3.92666 78.4087 3.93757 78.338 3.94845C78.1694 3.9702 78.0172 4.0028 77.8703 4.05175C77.7289 4.1007 77.6148 4.17135 77.5278 4.26924C77.4407 4.3617 77.3971 4.48676 77.3971 4.64992C77.3971 4.8729 77.4788 5.04159 77.642 5.15581C77.8105 5.26458 78.0173 5.31899 78.2729 5.31899ZM81.3292 5.79753V0.261043H81.9711V2.30597H82.0199C82.0689 2.22983 82.1343 2.14281 82.2159 2.0286C82.3029 1.91439 82.4225 1.81646 82.5803 1.724C82.738 1.63698 82.9499 1.58804 83.2219 1.58804C83.5699 1.58804 83.88 1.67505 84.1465 1.85452C84.413 2.02856 84.6251 2.27336 84.7719 2.59423C84.9242 2.91511 84.995 3.29573 84.995 3.73082C84.995 4.17135 84.9242 4.55211 84.7719 4.87299C84.6251 5.19387 84.4129 5.44398 84.1518 5.62345C83.8853 5.79749 83.5808 5.8845 83.2327 5.8845C82.9662 5.8845 82.7543 5.84099 82.5912 5.75398C82.4334 5.66152 82.3083 5.55828 82.2212 5.44407C82.1342 5.32986 82.0689 5.23739 82.0199 5.16125H81.9493V5.79753H81.3292ZM81.9602 3.71993C81.9602 4.03538 82.0037 4.31276 82.0962 4.55206C82.1886 4.79136 82.319 4.97629 82.4985 5.11225C82.6725 5.24278 82.8903 5.31355 83.1459 5.31355C83.4124 5.31355 83.6354 5.24277 83.8148 5.10137C83.9943 4.95996 84.1303 4.76414 84.2227 4.52484C84.3152 4.28554 84.3587 4.01906 84.3587 3.71993C84.3587 3.42625 84.3152 3.16522 84.2227 2.93136C84.1357 2.6975 83.9996 2.50713 83.8202 2.37117C83.6407 2.2352 83.4178 2.16456 83.1459 2.16456C82.8903 2.16456 82.6672 2.22975 82.4932 2.36028C82.3137 2.49081 82.183 2.67029 82.0906 2.90958C82.0036 3.13801 81.9602 3.40993 81.9602 3.71993ZM87.6599 5.8845C87.2846 5.8845 86.9582 5.79748 86.6754 5.61801C86.3926 5.43853 86.1698 5.18842 86.0121 4.86754C85.8543 4.54666 85.7781 4.17136 85.7781 3.74171C85.7781 3.31206 85.8543 2.93131 86.0121 2.61043C86.1698 2.28956 86.3926 2.034 86.6754 1.85997C86.9582 1.68049 87.2846 1.58804 87.6599 1.58804C88.0351 1.58804 88.3615 1.68049 88.6443 1.85997C88.9271 2.034 89.1446 2.28956 89.3023 2.61043C89.4601 2.93131 89.5416 3.31206 89.5416 3.74171C89.5416 4.17136 89.4601 4.54666 89.3023 4.86754C89.1446 5.18842 88.9271 5.43853 88.6443 5.61801C88.3615 5.79748 88.0351 5.8845 87.6599 5.8845ZM87.6599 5.31355C87.9427 5.31355 88.1765 5.23732 88.3615 5.09048C88.5464 4.94364 88.6823 4.75325 88.7694 4.51395C88.8618 4.28009 88.9053 4.01908 88.9053 3.74171C88.9053 3.46434 88.8618 3.20876 88.7694 2.96402C88.6823 2.72472 88.5464 2.53434 88.3615 2.3875C88.1765 2.23522 87.9427 2.16456 87.6599 2.16456C87.377 2.16456 87.1432 2.23522 86.9583 2.3875C86.7733 2.53434 86.6374 2.72472 86.5504 2.96402C86.4579 3.20876 86.4144 3.46434 86.4144 3.74171C86.4144 4.01908 86.4579 4.28009 86.5504 4.51395C86.6374 4.75325 86.7733 4.94364 86.9583 5.09048C87.1432 5.23732 87.377 5.31355 87.6599 5.31355ZM93.1311 4.10061V1.64248H93.773V5.79753H93.1311V5.09592H93.0876C92.9951 5.30803 92.8428 5.48206 92.6361 5.63434C92.4295 5.78118 92.1686 5.85197 91.8586 5.85197C91.5975 5.85197 91.369 5.79755 91.1623 5.68334C90.9611 5.56369 90.8033 5.39511 90.6891 5.16125C90.5749 4.92739 90.5151 4.63908 90.5151 4.28557V1.64248H91.1514V4.24202C91.1514 4.54115 91.2385 4.78593 91.4071 4.9654C91.5812 5.14488 91.7987 5.23733 92.0652 5.23733C92.2229 5.23733 92.3807 5.19383 92.5493 5.11225C92.7125 5.03068 92.8537 4.90562 92.9625 4.74247C93.0767 4.57387 93.1311 4.36167 93.1311 4.10061ZM96.7478 1.64248V2.18634H94.5941V1.64248H96.7478ZM95.2195 0.647165H95.8613V4.6065C95.8613 4.78597 95.8832 4.92194 95.9376 5.0144C95.992 5.10141 96.0626 5.16115 96.1442 5.19378C96.2257 5.22097 96.3181 5.23733 96.4105 5.23733C96.4812 5.23733 96.5412 5.23188 96.5847 5.22644C96.6282 5.21557 96.6661 5.21011 96.6933 5.20467L96.824 5.77575C96.7805 5.79207 96.7205 5.80843 96.6389 5.82475C96.5628 5.84106 96.4651 5.85197 96.3455 5.85197C96.166 5.85197 95.9918 5.81378 95.8178 5.73764C95.6438 5.65606 95.5023 5.5419 95.3881 5.37874C95.2794 5.22102 95.2195 5.01974 95.2195 4.78044V0.647165ZM101.072 5.89538C100.805 5.89538 100.566 5.84643 100.354 5.74853C100.141 5.6452 99.9674 5.49846 99.8423 5.31355C99.7172 5.11776 99.6519 4.88932 99.6519 4.61739C99.6519 4.37809 99.701 4.1877 99.7935 4.04086C99.8859 3.88858 100.011 3.77442 100.169 3.6874C100.326 3.60582 100.5 3.54051 100.691 3.497C100.881 3.45349 101.071 3.4209 101.262 3.39914C101.517 3.36651 101.724 3.33924 101.876 3.32293C102.04 3.30661 102.154 3.27403 102.224 3.23596C102.301 3.19245 102.333 3.12166 102.333 3.01833V2.99669C102.333 2.7302 102.263 2.52345 102.116 2.37661C101.974 2.22433 101.751 2.15367 101.458 2.15367C101.153 2.15367 100.914 2.21887 100.745 2.35483C100.571 2.48536 100.446 2.62678 100.375 2.77906L99.7717 2.56157C99.8805 2.31139 100.022 2.11556 100.207 1.97416C100.386 1.83275 100.588 1.73483 100.8 1.67501C101.017 1.62062 101.229 1.58804 101.436 1.58804C101.572 1.58804 101.724 1.6044 101.898 1.63703C102.072 1.66966 102.241 1.73485 102.404 1.83275C102.567 1.93064 102.703 2.07752 102.812 2.27331C102.921 2.4691 102.975 2.73013 102.975 3.06188V5.79753H102.333V5.23733H102.301C102.257 5.32435 102.186 5.42226 102.088 5.5256C101.985 5.62893 101.849 5.71594 101.686 5.78664C101.517 5.85734 101.311 5.89538 101.072 5.89538ZM101.169 5.31899C101.419 5.31899 101.632 5.27003 101.806 5.17214C101.98 5.07424 102.11 4.94361 102.203 4.79133C102.29 4.63361 102.333 4.46506 102.333 4.29646V3.70905C102.306 3.74168 102.246 3.7744 102.159 3.80159C102.067 3.82335 101.963 3.84503 101.844 3.86679C101.724 3.8831 101.61 3.89947 101.501 3.91578C101.392 3.92666 101.3 3.93757 101.235 3.94845C101.066 3.9702 100.914 4.0028 100.767 4.05175C100.626 4.1007 100.511 4.17135 100.419 4.26924C100.332 4.3617 100.294 4.48676 100.294 4.64992C100.294 4.8729 100.375 5.04159 100.539 5.15581C100.702 5.26458 100.914 5.31899 101.169 5.31899ZM105.825 5.8845C105.433 5.8845 105.101 5.79204 104.819 5.60712C104.536 5.42221 104.324 5.17208 104.171 4.84577C104.019 4.52489 103.943 4.15505 103.943 3.74171C103.943 3.32294 104.019 2.94764 104.177 2.62677C104.335 2.30045 104.552 2.05032 104.829 1.86541C105.112 1.6805 105.439 1.58804 105.814 1.58804C106.108 1.58804 106.369 1.64245 106.603 1.75122C106.836 1.85999 107.032 2.01219 107.179 2.20798C107.331 2.40377 107.424 2.62675 107.456 2.88781H106.82C106.771 2.69746 106.662 2.5289 106.494 2.3875C106.331 2.23522 106.108 2.16456 105.825 2.16456C105.575 2.16456 105.357 2.22975 105.172 2.36028C104.987 2.48537 104.84 2.66484 104.737 2.90414C104.634 3.13256 104.579 3.40993 104.579 3.71993C104.579 4.04081 104.634 4.32364 104.732 4.5575C104.835 4.7968 104.982 4.98173 105.167 5.11225C105.352 5.24278 105.575 5.31355 105.825 5.31355C105.993 5.31355 106.14 5.28083 106.276 5.22644C106.412 5.16662 106.526 5.08506 106.619 4.97629C106.711 4.86752 106.782 4.73701 106.82 4.58472H107.456C107.424 4.82946 107.331 5.05243 107.19 5.24822C107.049 5.44401 106.864 5.59635 106.63 5.716C106.401 5.82477 106.129 5.8845 105.825 5.8845ZM110.078 5.8845C109.692 5.8845 109.355 5.79204 109.072 5.60712C108.789 5.42221 108.577 5.17208 108.425 4.84577C108.272 4.52489 108.196 4.15505 108.196 3.74171C108.196 3.32294 108.272 2.94764 108.43 2.62677C108.588 2.30045 108.805 2.05032 109.083 1.86541C109.365 1.6805 109.692 1.58804 110.067 1.58804C110.361 1.58804 110.622 1.64245 110.856 1.75122C111.089 1.85999 111.285 2.01219 111.432 2.20798C111.584 2.40377 111.677 2.62675 111.71 2.88781H111.073C111.024 2.69746 110.916 2.5289 110.747 2.3875C110.584 2.23522 110.361 2.16456 110.078 2.16456C109.828 2.16456 109.61 2.22975 109.425 2.36028C109.24 2.48537 109.094 2.66484 108.99 2.90414C108.887 3.13256 108.833 3.40993 108.833 3.71993C108.833 4.04081 108.887 4.32364 108.985 4.5575C109.088 4.7968 109.235 4.98173 109.42 5.11225C109.605 5.24278 109.828 5.31355 110.078 5.31355C110.247 5.31355 110.393 5.28083 110.529 5.22644C110.665 5.16662 110.78 5.08506 110.872 4.97629C110.97 4.86752 111.035 4.73701 111.073 4.58472H111.71C111.677 4.82946 111.584 5.05243 111.443 5.24822C111.302 5.44401 111.117 5.59635 110.883 5.716C110.654 5.82477 110.383 5.8845 110.078 5.8845ZM114.331 5.8845C113.956 5.8845 113.629 5.79748 113.346 5.61801C113.064 5.43853 112.846 5.18842 112.683 4.86754C112.531 4.54666 112.449 4.17136 112.449 3.74171C112.449 3.31206 112.531 2.93131 112.683 2.61043C112.846 2.28956 113.064 2.034 113.346 1.85997C113.629 1.68049 113.956 1.58804 114.331 1.58804C114.706 1.58804 115.033 1.68049 115.315 1.85997C115.598 2.034 115.821 2.28956 115.973 2.61043C116.137 2.93131 116.213 3.31206 116.213 3.74171C116.213 4.17136 116.137 4.54666 115.973 4.86754C115.821 5.18842 115.598 5.43853 115.315 5.61801C115.033 5.79748 114.706 5.8845 114.331 5.8845ZM114.331 5.31355C114.619 5.31355 114.853 5.23732 115.033 5.09048C115.217 4.94364 115.353 4.75325 115.44 4.51395C115.533 4.28009 115.576 4.01908 115.576 3.74171C115.576 3.46434 115.533 3.20876 115.44 2.96402C115.353 2.72472 115.217 2.53434 115.033 2.3875C114.853 2.23522 114.619 2.16456 114.331 2.16456C114.048 2.16456 113.814 2.23522 113.629 2.3875C113.444 2.53434 113.308 2.72472 113.221 2.96402C113.134 3.20876 113.085 3.46434 113.085 3.74171C113.085 4.01908 113.134 4.28009 113.221 4.51395C113.308 4.75325 113.444 4.94364 113.629 5.09048C113.814 5.23732 114.048 5.31355 114.331 5.31355ZM119.807 4.10061V1.64248H120.444V5.79753H119.807V5.09592H119.764C119.666 5.30803 119.514 5.48206 119.307 5.63434C119.101 5.78118 118.845 5.85197 118.529 5.85197C118.268 5.85197 118.04 5.79755 117.839 5.68334C117.632 5.56369 117.474 5.39511 117.36 5.16125C117.246 4.92739 117.186 4.63908 117.186 4.28557V1.64248H117.828V4.24202C117.828 4.54115 117.91 4.78593 118.078 4.9654C118.252 5.14488 118.47 5.23733 118.736 5.23733C118.894 5.23733 119.051 5.19383 119.22 5.11225C119.383 5.03068 119.525 4.90562 119.634 4.74247C119.748 4.57387 119.807 4.36167 119.807 4.10061ZM122.25 3.30115V5.79753H121.613V1.64248H122.228V2.29508H122.282C122.38 2.08298 122.527 1.91441 122.728 1.78389C122.924 1.65336 123.18 1.58804 123.495 1.58804C123.772 1.58804 124.023 1.6479 124.229 1.76211C124.441 1.87632 124.604 2.05034 124.724 2.2842C124.844 2.51262 124.898 2.80623 124.898 3.15974V5.79753H124.262V3.20329C124.262 2.87697 124.175 2.62141 124.006 2.44194C123.838 2.25702 123.604 2.16456 123.31 2.16456C123.109 2.16456 122.924 2.20807 122.766 2.29508C122.603 2.3821 122.478 2.51261 122.386 2.68121C122.299 2.8498 122.25 3.05641 122.25 3.30115ZM127.873 1.64248V2.18634H125.719V1.64248H127.873ZM126.345 0.647165H126.987V4.6065C126.987 4.78597 127.014 4.92194 127.063 5.0144C127.117 5.10141 127.188 5.16115 127.269 5.19378C127.351 5.22097 127.443 5.23733 127.536 5.23733C127.606 5.23733 127.666 5.23188 127.71 5.22644C127.753 5.21557 127.791 5.21011 127.819 5.20467L127.949 5.77575C127.906 5.79207 127.846 5.80843 127.764 5.82475C127.688 5.84106 127.59 5.85197 127.471 5.85197C127.291 5.85197 127.117 5.81378 126.943 5.73764C126.769 5.65606 126.628 5.5419 126.513 5.37874C126.405 5.22102 126.345 5.01974 126.345 4.78044V0.647165ZM131.609 0.261043V5.79753H130.973V0.261043H131.609ZM134.465 5.8845C134.095 5.8845 133.763 5.79748 133.48 5.61801C133.197 5.43853 132.98 5.18842 132.822 4.86754C132.665 4.54666 132.583 4.17136 132.583 3.74171C132.583 3.31206 132.665 2.93131 132.822 2.61043C132.98 2.28956 133.197 2.034 133.48 1.85997C133.763 1.68049 134.095 1.58804 134.465 1.58804C134.84 1.58804 135.172 1.68049 135.449 1.85997C135.732 2.034 135.955 2.28956 136.112 2.61043C136.27 2.93131 136.352 3.31206 136.352 3.74171C136.352 4.17136 136.27 4.54666 136.112 4.86754C135.955 5.18842 135.732 5.43853 135.449 5.61801C135.172 5.79748 134.84 5.8845 134.465 5.8845ZM134.465 5.31355C134.753 5.31355 134.987 5.23732 135.172 5.09048C135.357 4.94364 135.492 4.75325 135.58 4.51395C135.667 4.28009 135.71 4.01908 135.71 3.74171C135.71 3.46434 135.667 3.20876 135.58 2.96402C135.492 2.72472 135.357 2.53434 135.172 2.3875C134.987 2.23522 134.753 2.16456 134.465 2.16456C134.182 2.16456 133.948 2.23522 133.763 2.3875C133.578 2.53434 133.442 2.72472 133.355 2.96402C133.268 3.20876 133.225 3.46434 133.225 3.74171C133.225 4.01908 133.268 4.28009 133.355 4.51395C133.442 4.75325 133.578 4.94364 133.763 5.09048C133.948 5.23732 134.182 5.31355 134.465 5.31355ZM139 7.44C138.69 7.44 138.424 7.40195 138.206 7.32037C137.983 7.24423 137.799 7.14086 137.652 7.01577C137.505 6.89069 137.391 6.75472 137.304 6.60788L137.809 6.25442C137.869 6.32512 137.94 6.41212 138.027 6.51002C138.119 6.60791 138.239 6.69492 138.391 6.76562C138.544 6.84176 138.75 6.87981 139 6.87981C139.332 6.87981 139.61 6.79825 139.827 6.6351C140.05 6.47194 140.159 6.22168 140.159 5.87361V5.03073H140.105C140.056 5.10687 139.99 5.19934 139.903 5.31355C139.816 5.42232 139.697 5.5201 139.533 5.60712C139.376 5.6887 139.164 5.7322 138.892 5.7322C138.555 5.7322 138.255 5.65065 137.989 5.49293C137.722 5.33521 137.516 5.10678 137.358 4.80222C137.206 4.49765 137.13 4.13325 137.13 3.69816C137.13 3.27395 137.206 2.90423 137.353 2.58879C137.505 2.27335 137.712 2.02312 137.978 1.85452C138.245 1.67505 138.555 1.58804 138.903 1.58804C139.175 1.58804 139.387 1.63698 139.544 1.724C139.707 1.81646 139.827 1.91439 139.914 2.0286C140.001 2.14281 140.067 2.22983 140.116 2.30597H140.181V1.64248H140.795V5.91716C140.795 6.27611 140.714 6.56441 140.55 6.78739C140.393 7.01038 140.175 7.17893 139.903 7.28226C139.631 7.38559 139.332 7.44 139 7.44ZM138.979 5.16125C139.234 5.16125 139.452 5.10138 139.626 4.98173C139.805 4.86752 139.936 4.69896 140.028 4.47598C140.121 4.25843 140.17 3.99741 140.17 3.6874C140.17 3.38828 140.121 3.12712 140.034 2.8987C139.941 2.66484 139.811 2.48537 139.631 2.36028C139.457 2.22975 139.24 2.16456 138.979 2.16456C138.707 2.16456 138.484 2.22976 138.304 2.37117C138.125 2.50713 137.989 2.69205 137.896 2.92047C137.809 3.1489 137.766 3.41003 137.766 3.6874C137.766 3.97565 137.809 4.23122 137.902 4.4542C137.994 4.67175 138.13 4.84576 138.31 4.97085C138.489 5.09593 138.712 5.16125 138.979 5.16125ZM141.965 5.79753V1.64248H142.601V5.79753H141.965ZM142.285 0.951759C142.166 0.951759 142.057 0.908261 141.965 0.826682C141.878 0.739664 141.834 0.636298 141.834 0.522087C141.834 0.402437 141.878 0.299066 141.965 0.212048C142.057 0.130469 142.166 0.0869702 142.285 0.0869702C142.41 0.0869702 142.519 0.130469 142.606 0.212048C142.699 0.299066 142.742 0.402437 142.742 0.522087C142.742 0.636298 142.699 0.739664 142.606 0.826682C142.519 0.908261 142.41 0.951759 142.285 0.951759ZM144.406 3.30115V5.79753H143.77V1.64248H144.385V2.29508H144.439C144.537 2.08298 144.684 1.91441 144.885 1.78389C145.081 1.65336 145.336 1.58804 145.652 1.58804C145.935 1.58804 146.18 1.6479 146.392 1.76211C146.598 1.87632 146.767 2.05034 146.881 2.2842C147.001 2.51262 147.061 2.80623 147.061 3.15974V5.79753H146.419V3.20329C146.419 2.87697 146.337 2.62141 146.163 2.44194C145.994 2.25702 145.766 2.16456 145.467 2.16456C145.266 2.16456 145.081 2.20807 144.923 2.29508C144.765 2.3821 144.64 2.51261 144.548 2.68121C144.455 2.8498 144.406 3.05641 144.406 3.30115ZM151.585 5.89538C151.324 5.89538 151.085 5.84643 150.873 5.74853C150.655 5.6452 150.487 5.49846 150.362 5.31355C150.231 5.11776 150.171 4.88932 150.171 4.61739C150.171 4.37809 150.215 4.1877 150.313 4.04086C150.405 3.88858 150.53 3.77442 150.688 3.6874C150.846 3.60582 151.014 3.54051 151.205 3.497C151.395 3.45349 151.591 3.4209 151.781 3.39914C152.037 3.36651 152.238 3.33924 152.396 3.32293C152.553 3.30661 152.668 3.27403 152.744 3.23596C152.815 3.19245 152.853 3.12166 152.853 3.01833V2.99669C152.853 2.7302 152.782 2.52345 152.635 2.37661C152.488 2.22433 152.271 2.15367 151.977 2.15367C151.672 2.15367 151.433 2.21887 151.259 2.35483C151.085 2.48536 150.965 2.62678 150.895 2.77906L150.291 2.56157C150.4 2.31139 150.541 2.11556 150.721 1.97416C150.906 1.83275 151.101 1.73483 151.319 1.67501C151.531 1.62062 151.749 1.58804 151.955 1.58804C152.091 1.58804 152.244 1.6044 152.412 1.63703C152.592 1.66966 152.76 1.73485 152.918 1.83275C153.087 1.93064 153.222 2.07752 153.331 2.27331C153.435 2.4691 153.489 2.73013 153.489 3.06188V5.79753H152.853V5.23733H152.82C152.777 5.32435 152.706 5.42226 152.603 5.5256C152.505 5.62893 152.369 5.71594 152.2 5.78664C152.031 5.85734 151.83 5.89538 151.585 5.89538ZM151.683 5.31899C151.939 5.31899 152.151 5.27003 152.325 5.17214C152.499 5.07424 152.63 4.94361 152.717 4.79133C152.809 4.63361 152.853 4.46506 152.853 4.29646V3.70905C152.826 3.74168 152.766 3.7744 152.673 3.80159C152.586 3.82335 152.478 3.84503 152.363 3.86679C152.244 3.8831 152.129 3.89947 152.015 3.91578C151.906 3.92666 151.819 3.93757 151.749 3.94845C151.585 3.9702 151.428 4.0028 151.286 4.05175C151.145 4.1007 151.025 4.17135 150.938 4.26924C150.851 4.3617 150.808 4.48676 150.808 4.64992C150.808 4.8729 150.889 5.04159 151.053 5.15581C151.221 5.26458 151.433 5.31899 151.683 5.31899ZM155.295 3.30115V5.79753H154.658V1.64248H155.273V2.29508H155.327C155.425 2.08298 155.572 1.91441 155.768 1.78389C155.969 1.65336 156.225 1.58804 156.54 1.58804C156.817 1.58804 157.062 1.6479 157.274 1.76211C157.486 1.87632 157.65 2.05034 157.769 2.2842C157.883 2.51262 157.943 2.80623 157.943 3.15974V5.79753H157.307V3.20329C157.307 2.87697 157.22 2.62141 157.051 2.44194C156.883 2.25702 156.649 2.16456 156.355 2.16456C156.148 2.16456 155.969 2.20807 155.806 2.29508C155.648 2.3821 155.523 2.51261 155.43 2.68121C155.338 2.8498 155.295 3.05641 155.295 3.30115ZM160.679 5.8845C160.331 5.8845 160.026 5.79749 159.76 5.62345C159.499 5.44398 159.287 5.19387 159.14 4.87299C158.988 4.55211 158.917 4.17135 158.917 3.73082C158.917 3.29573 158.988 2.91511 159.14 2.59423C159.287 2.27336 159.499 2.02856 159.765 1.85452C160.032 1.67505 160.342 1.58804 160.69 1.58804C160.962 1.58804 161.174 1.63698 161.331 1.724C161.489 1.81646 161.609 1.91439 161.69 2.0286C161.778 2.14281 161.843 2.22983 161.892 2.30597H161.941V0.261043H162.582V5.79753H161.962V5.16125H161.892C161.843 5.23739 161.778 5.32986 161.69 5.44407C161.603 5.55828 161.478 5.66152 161.321 5.75398C161.157 5.84099 160.945 5.8845 160.679 5.8845ZM160.766 5.31355C161.021 5.31355 161.239 5.24278 161.413 5.11225C161.592 4.97629 161.723 4.79136 161.816 4.55206C161.908 4.31276 161.952 4.03538 161.952 3.71993C161.952 3.40993 161.908 3.13801 161.821 2.90958C161.728 2.67029 161.598 2.49081 161.419 2.36028C161.245 2.22975 161.021 2.16456 160.766 2.16456C160.494 2.16456 160.271 2.2352 160.086 2.37117C159.912 2.50713 159.776 2.6975 159.684 2.93136C159.597 3.16522 159.553 3.42625 159.553 3.71993C159.553 4.01906 159.597 4.28554 159.689 4.52484C159.781 4.76414 159.918 4.95996 160.092 5.10137C160.276 5.24277 160.499 5.31355 160.766 5.31355ZM165.981 5.79753V1.64248H166.596V2.27331H166.64C166.716 2.06664 166.852 1.89809 167.053 1.773C167.249 1.64247 167.472 1.57715 167.722 1.57715C167.771 1.57715 167.825 1.58259 167.896 1.58259C167.966 1.58259 168.021 1.58804 168.059 1.58804V2.24064C168.037 2.23521 167.983 2.2243 167.907 2.21342C167.831 2.20255 167.754 2.19709 167.667 2.19709C167.466 2.19709 167.287 2.24072 167.129 2.3223C166.971 2.40388 166.846 2.52347 166.754 2.67032C166.661 2.81716 166.618 2.98028 166.618 3.17063V5.79753H165.981ZM170.43 5.8845C170.028 5.8845 169.685 5.79748 169.391 5.61801C169.103 5.43853 168.88 5.19387 168.722 4.87299C168.57 4.55211 168.494 4.17681 168.494 3.7526C168.494 3.32839 168.57 2.95308 168.722 2.62677C168.88 2.30045 169.098 2.05032 169.381 1.86541C169.658 1.6805 169.99 1.58804 170.365 1.58804C170.577 1.58804 170.795 1.62608 171.001 1.69678C171.214 1.77292 171.409 1.88721 171.578 2.05037C171.752 2.20809 171.893 2.4256 171.991 2.68665C172.095 2.95314 172.149 3.27949 172.149 3.66563V3.93756H168.946V3.38825H171.496C171.496 3.14895 171.453 2.9422 171.36 2.75729C171.268 2.57237 171.132 2.43108 170.963 2.3223C170.795 2.21897 170.593 2.16456 170.365 2.16456C170.109 2.16456 169.886 2.22431 169.702 2.35483C169.522 2.47448 169.381 2.63772 169.277 2.83895C169.179 3.04018 169.13 3.25224 169.13 3.48067V3.85046C169.13 4.1659 169.185 4.43237 169.294 4.64992C169.402 4.86202 169.555 5.03071 169.75 5.14492C169.946 5.25369 170.169 5.31355 170.43 5.31355C170.593 5.31355 170.746 5.28629 170.882 5.24278C171.018 5.19383 171.137 5.11774 171.235 5.02528C171.333 4.92739 171.415 4.80765 171.464 4.66081L172.084 4.83488C172.018 5.04155 171.91 5.22647 171.757 5.38419C171.605 5.54191 171.415 5.66696 171.186 5.75398C170.963 5.84099 170.708 5.8845 170.43 5.8845ZM174.792 7.44C174.487 7.44 174.221 7.40195 173.998 7.32037C173.78 7.24423 173.596 7.14086 173.443 7.01577C173.302 6.89069 173.182 6.75472 173.095 6.60788L173.606 6.25442C173.661 6.32512 173.737 6.41212 173.824 6.51002C173.911 6.60791 174.031 6.69492 174.188 6.76562C174.341 6.84176 174.542 6.87981 174.792 6.87981C175.129 6.87981 175.407 6.79825 175.624 6.6351C175.842 6.47194 175.95 6.22168 175.95 5.87361V5.03073H175.896C175.853 5.10687 175.782 5.19934 175.7 5.31355C175.613 5.42232 175.488 5.5201 175.331 5.60712C175.173 5.6887 174.955 5.7322 174.689 5.7322C174.352 5.7322 174.052 5.65065 173.786 5.49293C173.519 5.33521 173.307 5.10678 173.155 4.80222C173.003 4.49765 172.921 4.13325 172.921 3.69816C172.921 3.27395 172.997 2.90423 173.15 2.58879C173.296 2.27335 173.508 2.02312 173.775 1.85452C174.041 1.67505 174.346 1.58804 174.7 1.58804C174.966 1.58804 175.184 1.63698 175.341 1.724C175.499 1.81646 175.624 1.91439 175.711 2.0286C175.793 2.14281 175.863 2.22983 175.907 2.30597H175.972V1.64248H176.592V5.91716C176.592 6.27611 176.511 6.56441 176.347 6.78739C176.184 7.01038 175.972 7.17893 175.7 7.28226C175.428 7.38559 175.124 7.44 174.792 7.44ZM174.776 5.16125C175.031 5.16125 175.244 5.10138 175.423 4.98173C175.597 4.86752 175.733 4.69896 175.825 4.47598C175.918 4.25843 175.961 3.99741 175.961 3.6874C175.961 3.38828 175.918 3.12712 175.825 2.8987C175.738 2.66484 175.602 2.48537 175.428 2.36028C175.249 2.22975 175.031 2.16456 174.776 2.16456C174.504 2.16456 174.275 2.22976 174.096 2.37117C173.917 2.50713 173.786 2.69205 173.693 2.92047C173.606 3.1489 173.563 3.41003 173.563 3.6874C173.563 3.97565 173.607 4.23122 173.699 4.4542C173.791 4.67175 173.922 4.84576 174.101 4.97085C174.281 5.09593 174.504 5.16125 174.776 5.16125ZM177.756 5.79753V1.64248H178.398V5.79753H177.756ZM178.082 0.951759C177.957 0.951759 177.849 0.908261 177.762 0.826682C177.674 0.739664 177.631 0.636298 177.631 0.522087C177.631 0.402437 177.674 0.299066 177.762 0.212048C177.849 0.130469 177.957 0.0869702 178.082 0.0869702C178.207 0.0869702 178.311 0.130469 178.403 0.212048C178.49 0.299066 178.539 0.402437 178.539 0.522087C178.539 0.636298 178.49 0.739664 178.403 0.826682C178.311 0.908261 178.207 0.951759 178.082 0.951759ZM182.509 2.57246L181.933 2.73564C181.895 2.64319 181.846 2.55073 181.775 2.45827C181.704 2.36581 181.612 2.28958 181.492 2.22976C181.373 2.16993 181.22 2.14279 181.036 2.14279C180.78 2.14279 180.568 2.20265 180.399 2.31686C180.231 2.43107 180.149 2.57781 180.149 2.75729C180.149 2.91501 180.209 3.0402 180.323 3.13265C180.437 3.22511 180.617 3.30121 180.862 3.36648L181.481 3.51333C181.851 3.60579 182.129 3.74176 182.308 3.92667C182.493 4.11158 182.58 4.35092 182.58 4.63916C182.58 4.87846 182.515 5.09053 182.379 5.28088C182.243 5.4658 182.053 5.61267 181.808 5.72144C181.563 5.83022 181.28 5.8845 180.959 5.8845C180.535 5.8845 180.187 5.79204 179.91 5.60712C179.633 5.42221 179.453 5.15573 179.382 4.80222L179.986 4.64992C180.046 4.8729 180.154 5.04159 180.312 5.15581C180.475 5.26458 180.687 5.31899 180.948 5.31899C181.248 5.31899 181.482 5.25912 181.656 5.13403C181.835 5.0035 181.922 4.85117 181.922 4.67169C181.922 4.53029 181.873 4.40525 181.77 4.31279C181.672 4.20946 181.514 4.1388 181.308 4.08986L180.611 3.92667C180.236 3.83421 179.953 3.69824 179.774 3.50789C179.6 3.31753 179.513 3.0782 179.513 2.78995C179.513 2.55609 179.578 2.34948 179.709 2.17001C179.839 1.99053 180.024 1.84911 180.252 1.74578C180.481 1.64244 180.742 1.58804 181.036 1.58804C181.449 1.58804 181.77 1.68049 182.004 1.85997C182.238 2.03944 182.406 2.27877 182.509 2.57246ZM185.349 1.64248V2.18634H183.195V1.64248H185.349ZM183.826 0.647165H184.462V4.6065C184.462 4.78597 184.489 4.92194 184.538 5.0144C184.592 5.10141 184.663 5.16115 184.745 5.19378C184.832 5.22097 184.919 5.23733 185.011 5.23733C185.082 5.23733 185.142 5.23188 185.185 5.22644C185.234 5.21557 185.267 5.21011 185.294 5.20467L185.424 5.77575C185.381 5.79207 185.321 5.80843 185.245 5.82475C185.169 5.84106 185.066 5.85197 184.951 5.85197C184.767 5.85197 184.593 5.81378 184.419 5.73764C184.25 5.65606 184.103 5.5419 183.994 5.37874C183.88 5.22102 183.826 5.01974 183.826 4.78044V0.647165ZM186.311 5.79753V1.64248H186.926V2.27331H186.969C187.045 2.06664 187.181 1.89809 187.382 1.773C187.578 1.64247 187.801 1.57715 188.051 1.57715C188.095 1.57715 188.155 1.58259 188.226 1.58259C188.296 1.58259 188.351 1.58804 188.383 1.58804V2.24064C188.362 2.23521 188.313 2.2243 188.236 2.21342C188.16 2.20255 188.079 2.19709 187.997 2.19709C187.796 2.19709 187.616 2.24072 187.453 2.3223C187.301 2.40388 187.176 2.52347 187.083 2.67032C186.991 2.81716 186.947 2.98028 186.947 3.17063V5.79753H186.311ZM190.363 5.89538C190.102 5.89538 189.862 5.84643 189.65 5.74853C189.433 5.6452 189.264 5.49846 189.139 5.31355C189.009 5.11776 188.949 4.88932 188.949 4.61739C188.949 4.37809 188.992 4.1877 189.09 4.04086C189.183 3.88858 189.308 3.77442 189.465 3.6874C189.623 3.60582 189.792 3.54051 189.982 3.497C190.173 3.45349 190.368 3.4209 190.559 3.39914C190.809 3.36651 191.016 3.33924 191.173 3.32293C191.331 3.30661 191.445 3.27403 191.521 3.23596C191.592 3.19245 191.63 3.12166 191.63 3.01833V2.99669C191.63 2.7302 191.554 2.52345 191.413 2.37661C191.266 2.22433 191.048 2.15367 190.754 2.15367C190.45 2.15367 190.211 2.21887 190.037 2.35483C189.863 2.48536 189.743 2.62678 189.672 2.77906L189.068 2.56157C189.177 2.31139 189.319 2.11556 189.498 1.97416C189.683 1.83275 189.879 1.73483 190.096 1.67501C190.309 1.62062 190.521 1.58804 190.733 1.58804C190.863 1.58804 191.021 1.6044 191.189 1.63703C191.369 1.66966 191.538 1.73485 191.695 1.83275C191.864 1.93064 192 2.07752 192.103 2.27331C192.212 2.4691 192.266 2.73013 192.266 3.06188V5.79753H191.63V5.23733H191.597C191.554 5.32435 191.483 5.42226 191.38 5.5256C191.282 5.62893 191.146 5.71594 190.978 5.78664C190.809 5.85734 190.608 5.89538 190.363 5.89538ZM190.461 5.31899C190.716 5.31899 190.928 5.27003 191.097 5.17214C191.277 5.07424 191.407 4.94361 191.494 4.79133C191.587 4.63361 191.63 4.46506 191.63 4.29646V3.70905C191.603 3.74168 191.543 3.7744 191.451 3.80159C191.363 3.82335 191.255 3.84503 191.135 3.86679C191.021 3.8831 190.907 3.89947 190.792 3.91578C190.684 3.92666 190.597 3.93757 190.526 3.94845C190.363 3.9702 190.205 4.0028 190.064 4.05175C189.917 4.1007 189.803 4.17135 189.716 4.26924C189.629 4.3617 189.585 4.48676 189.585 4.64992C189.585 4.8729 189.667 5.04159 189.83 5.15581C189.998 5.26458 190.205 5.31899 190.461 5.31899ZM195.241 1.64248V2.18634H193.088V1.64248H195.241ZM193.713 0.647165H194.349V4.6065C194.349 4.78597 194.376 4.92194 194.431 5.0144C194.485 5.10141 194.551 5.16115 194.638 5.19378C194.719 5.22097 194.812 5.23733 194.904 5.23733C194.975 5.23733 195.029 5.23188 195.078 5.22644C195.122 5.21557 195.16 5.21011 195.187 5.20467L195.312 5.77575C195.268 5.79207 195.209 5.80843 195.132 5.82475C195.056 5.84106 194.958 5.85197 194.839 5.85197C194.659 5.85197 194.48 5.81378 194.306 5.73764C194.137 5.65606 193.996 5.5419 193.882 5.37874C193.767 5.22102 193.713 5.01974 193.713 4.78044V0.647165ZM196.198 5.79753V1.64248H196.835V5.79753H196.198ZM196.525 0.951759C196.4 0.951759 196.291 0.908261 196.198 0.826682C196.111 0.739664 196.068 0.636298 196.068 0.522087C196.068 0.402437 196.111 0.299066 196.198 0.212048C196.291 0.130469 196.4 0.0869702 196.525 0.0869702C196.65 0.0869702 196.753 0.130469 196.84 0.212048C196.933 0.299066 196.976 0.402437 196.976 0.522087C196.976 0.636298 196.933 0.739664 196.84 0.826682C196.753 0.908261 196.65 0.951759 196.525 0.951759ZM199.69 5.8845C199.32 5.8845 198.989 5.79748 198.706 5.61801C198.423 5.43853 198.205 5.18842 198.048 4.86754C197.89 4.54666 197.808 4.17136 197.808 3.74171C197.808 3.31206 197.89 2.93131 198.048 2.61043C198.205 2.28956 198.423 2.034 198.706 1.85997C198.989 1.68049 199.32 1.58804 199.69 1.58804C200.065 1.58804 200.397 1.68049 200.674 1.85997C200.957 2.034 201.18 2.28956 201.338 2.61043C201.496 2.93131 201.572 3.31206 201.572 3.74171C201.572 4.17136 201.496 4.54666 201.338 4.86754C201.18 5.18842 200.957 5.43853 200.674 5.61801C200.397 5.79748 200.065 5.8845 199.69 5.8845ZM199.69 5.31355C199.978 5.31355 200.212 5.23732 200.397 5.09048C200.582 4.94364 200.718 4.75325 200.805 4.51395C200.892 4.28009 200.935 4.01908 200.935 3.74171C200.935 3.46434 200.892 3.20876 200.805 2.96402C200.718 2.72472 200.582 2.53434 200.397 2.3875C200.212 2.23522 199.978 2.16456 199.69 2.16456C199.407 2.16456 199.174 2.23522 198.989 2.3875C198.804 2.53434 198.668 2.72472 198.581 2.96402C198.494 3.20876 198.45 3.46434 198.45 3.74171C198.45 4.01908 198.494 4.28009 198.581 4.51395C198.668 4.75325 198.804 4.94364 198.989 5.09048C199.174 5.23732 199.407 5.31355 199.69 5.31355ZM203.187 3.30115V5.79753H202.551V1.64248H203.165V2.29508H203.22C203.318 2.08298 203.465 1.91441 203.66 1.78389C203.862 1.65336 204.117 1.58804 204.433 1.58804C204.71 1.58804 204.96 1.6479 205.167 1.76211C205.379 1.87632 205.542 2.05034 205.662 2.2842C205.776 2.51262 205.836 2.80623 205.836 3.15974V5.79753H205.199V3.20329C205.199 2.87697 205.112 2.62141 204.944 2.44194C204.775 2.25702 204.541 2.16456 204.248 2.16456C204.041 2.16456 203.861 2.20807 203.698 2.29508C203.541 2.3821 203.416 2.51261 203.323 2.68121C203.231 2.8498 203.187 3.05641 203.187 3.30115ZM207.957 5.04162L207.913 5.32975C207.881 5.53641 207.832 5.75951 207.772 5.99338C207.707 6.22724 207.647 6.44477 207.576 6.65687C207.511 6.86354 207.456 7.02665 207.413 7.15174H206.929C206.951 7.03209 206.983 6.87976 207.021 6.69485C207.054 6.50449 207.092 6.29243 207.13 6.05857C207.174 5.82471 207.206 5.58537 207.228 5.34063L207.261 5.04162H207.957ZM0 18.2303V12.5197H0.620078V13.1832H0.696293C0.739802 13.1071 0.805118 13.0201 0.886698 12.9058C0.973716 12.7916 1.09332 12.6937 1.25104 12.6013C1.40876 12.5142 1.62614 12.4653 1.89263 12.4653C2.24614 12.4653 2.55081 12.5523 2.8173 12.7318C3.0838 12.9058 3.29585 13.1506 3.44269 13.4715C3.59497 13.7924 3.67107 14.173 3.67107 14.6081C3.67107 15.0486 3.59497 15.4294 3.44269 15.7502C3.29585 16.0711 3.08911 16.3212 2.82261 16.5007C2.55612 16.6747 2.25159 16.7617 1.90352 16.7617C1.63703 16.7617 1.42496 16.7182 1.26724 16.6312C1.10408 16.5388 0.979027 16.4355 0.892009 16.3213C0.81043 16.2071 0.739802 16.1146 0.696293 16.0385H0.641853V18.2303H0ZM0.630966 14.5972C0.630966 14.9126 0.674474 15.19 0.766931 15.4293C0.859388 15.6686 0.995481 15.8535 1.16952 15.9895C1.34899 16.12 1.56107 16.1908 1.81668 16.1908C2.08861 16.1908 2.30615 16.12 2.48562 15.9786C2.6651 15.8372 2.80106 15.6414 2.89352 15.4021C2.98598 15.1628 3.02948 14.8963 3.02948 14.5972C3.02948 14.3035 2.98598 14.0425 2.89352 13.8086C2.8065 13.5747 2.67041 13.3844 2.49093 13.2484C2.31146 13.1125 2.08861 13.0418 1.81668 13.0418C1.56107 13.0418 1.34341 13.107 1.16394 13.2375C0.989904 13.3681 0.853949 13.5475 0.766931 13.7868C0.674474 14.0153 0.630966 14.2872 0.630966 14.5972ZM5.28088 11.1383V16.6748H4.64461V11.1383H5.28088ZM8.1906 16.7617C7.78814 16.7617 7.44569 16.6747 7.152 16.4953C6.86376 16.3158 6.6461 16.0711 6.48838 15.7502C6.33066 15.4294 6.25442 15.0541 6.25442 14.6298C6.25442 14.2056 6.33066 13.8303 6.48838 13.504C6.6461 13.1777 6.86375 12.9276 7.14112 12.7427C7.42393 12.5577 7.75001 12.4653 8.12527 12.4653C8.34282 12.4653 8.55502 12.5033 8.76713 12.574C8.97923 12.6502 9.16962 12.7645 9.34365 12.9276C9.51769 13.0853 9.65353 13.3028 9.75686 13.5639C9.8602 13.8304 9.90929 14.1567 9.90929 14.5429V14.8148H6.70587V14.2655H9.26213C9.26213 14.0262 9.21304 13.8195 9.12059 13.6345C9.02813 13.4496 8.89761 13.3083 8.72358 13.1996C8.55498 13.0962 8.3537 13.0418 8.12527 13.0418C7.86966 13.0418 7.65213 13.1016 7.46722 13.2321C7.28231 13.3517 7.14102 13.515 7.04313 13.7162C6.93979 13.9174 6.89096 14.1295 6.89096 14.3579V14.7277C6.89096 15.0431 6.94524 15.3096 7.05401 15.5272C7.16279 15.7393 7.31498 15.908 7.51077 16.0222C7.70656 16.1309 7.93499 16.1908 8.1906 16.1908C8.3592 16.1908 8.51152 16.1635 8.64205 16.12C8.78345 16.0711 8.89775 15.995 9.00108 15.9025C9.09898 15.8046 9.17508 15.6849 9.22946 15.5381L9.84396 15.7121C9.7787 15.9188 9.66988 16.1037 9.51759 16.2614C9.36531 16.4192 9.17494 16.5442 8.95196 16.6312C8.72353 16.7182 8.47341 16.7617 8.1906 16.7617ZM12.1009 16.7726C11.8399 16.7726 11.6006 16.7237 11.3884 16.6258C11.1709 16.5224 11.0023 16.3757 10.8773 16.1908C10.7467 15.995 10.6871 15.7666 10.6871 15.4946C10.6871 15.2553 10.7305 15.065 10.8284 14.9181C10.9208 14.7658 11.0459 14.6517 11.2036 14.5647C11.3613 14.4831 11.53 14.4178 11.7204 14.3742C11.9107 14.3307 12.1066 14.2981 12.2969 14.2764C12.5471 14.2438 12.7537 14.2165 12.9114 14.2002C13.0691 14.1839 13.1834 14.1513 13.2596 14.1132C13.3303 14.0697 13.3682 13.9989 13.3682 13.8956V13.8739C13.3682 13.6074 13.2975 13.4007 13.1507 13.2539C13.0038 13.1016 12.7863 13.0309 12.4926 13.0309C12.1881 13.0309 11.9489 13.0961 11.7748 13.2321C11.6008 13.3626 11.4809 13.504 11.4102 13.6563L10.8066 13.4388C10.9154 13.1886 11.0568 12.9928 11.2363 12.8514C11.4212 12.71 11.617 12.6121 11.8346 12.5523C12.0467 12.4979 12.2588 12.4653 12.4709 12.4653C12.6014 12.4653 12.759 12.4817 12.9276 12.5143C13.1071 12.5469 13.2758 12.6121 13.4335 12.71C13.6021 12.8079 13.7381 12.9548 13.8414 13.1506C13.9502 13.3463 14.0045 13.6074 14.0045 13.9391V16.6748H13.3682V16.1146H13.3355C13.292 16.2016 13.2214 16.2995 13.118 16.4028C13.0201 16.5062 12.8843 16.5932 12.7157 16.6639C12.5471 16.7346 12.3457 16.7726 12.1009 16.7726ZM12.1989 16.1962C12.4545 16.1962 12.6667 16.1473 12.8408 16.0494C13.0148 15.9515 13.1452 15.8209 13.2322 15.6686C13.3247 15.5109 13.3682 15.3423 13.3682 15.1737V14.5863C13.341 14.6189 13.2811 14.6517 13.1887 14.6788C13.1016 14.7006 12.9931 14.7223 12.8734 14.744C12.7592 14.7604 12.6448 14.7767 12.5306 14.793C12.4218 14.8039 12.335 14.8148 12.2643 14.8257C12.1011 14.8475 11.9433 14.8801 11.8019 14.929C11.6551 14.9779 11.5408 15.0486 11.4538 15.1465C11.3668 15.2389 11.3234 15.364 11.3234 15.5272C11.3234 15.7502 11.4048 15.9188 11.568 16.0331C11.7366 16.1418 11.9433 16.1962 12.1989 16.1962ZM18.1108 13.4497L17.5396 13.6129C17.5015 13.5204 17.4525 13.428 17.3818 13.3355C17.3111 13.2431 17.2187 13.1668 17.099 13.107C16.9794 13.0472 16.8272 13.02 16.6422 13.02C16.3866 13.02 16.1746 13.0799 16.006 13.1941C15.8374 13.3083 15.7558 13.4551 15.7558 13.6345C15.7558 13.7923 15.8101 13.9174 15.9298 14.0099C16.044 14.1024 16.2236 14.1785 16.4683 14.2437L17.0828 14.3906C17.4581 14.483 17.7353 14.619 17.9148 14.8039C18.0997 14.9888 18.1867 15.2282 18.1867 15.5164C18.1867 15.7557 18.1215 15.9678 17.9801 16.1581C17.8496 16.343 17.6592 16.4899 17.4145 16.5987C17.1698 16.7075 16.8869 16.7617 16.566 16.7617C16.1418 16.7617 15.7939 16.6693 15.5165 16.4844C15.2392 16.2995 15.0596 16.033 14.9889 15.6795L15.5928 15.5272C15.6526 15.7502 15.7611 15.9188 15.9189 16.0331C16.082 16.1418 16.2941 16.1962 16.5551 16.1962C16.8543 16.1962 17.0883 16.1364 17.2623 16.0113C17.4418 15.8808 17.5287 15.7284 17.5287 15.5489C17.5287 15.4075 17.4798 15.2825 17.3765 15.19C17.2786 15.0867 17.1208 15.0161 16.9142 14.9671L16.2182 14.8039C15.8374 14.7115 15.5601 14.5755 15.3806 14.3851C15.2065 14.1948 15.1195 13.9554 15.1195 13.6672C15.1195 13.4333 15.1847 13.2267 15.3153 13.0473C15.4458 12.8678 15.6307 12.7264 15.8591 12.623C16.0875 12.5197 16.3486 12.4653 16.6422 12.4653C17.0501 12.4653 17.3766 12.5577 17.6105 12.7372C17.8443 12.9167 18.0129 13.156 18.1108 13.4497ZM20.8898 16.7617C20.4874 16.7617 20.1448 16.6747 19.8566 16.4953C19.5683 16.3158 19.3453 16.0711 19.1876 15.7502C19.0299 15.4294 18.9537 15.0541 18.9537 14.6298C18.9537 14.2056 19.0299 13.8303 19.1876 13.504C19.3453 13.1777 19.5627 12.9276 19.8401 12.7427C20.1229 12.5577 20.4493 12.4653 20.8245 12.4653C21.0421 12.4653 21.2543 12.5033 21.4664 12.574C21.6785 12.6502 21.8689 12.7645 22.0429 12.9276C22.2169 13.0853 22.3528 13.3028 22.4561 13.5639C22.5594 13.8304 22.6085 14.1567 22.6085 14.5429V14.8148H19.4104V14.2655H21.9614C21.9614 14.0262 21.9123 13.8195 21.8198 13.6345C21.7274 13.4496 21.597 13.3083 21.4284 13.1996C21.2544 13.0962 21.0584 13.0418 20.8245 13.0418C20.5689 13.0418 20.3514 13.1016 20.1665 13.2321C19.9816 13.3517 19.8403 13.515 19.7424 13.7162C19.6445 13.9174 19.5899 14.1295 19.5899 14.3579V14.7277C19.5899 15.0431 19.6445 15.3096 19.7533 15.5272C19.862 15.7393 20.0142 15.908 20.21 16.0222C20.4058 16.1309 20.6342 16.1908 20.8898 16.1908C21.0584 16.1908 21.2106 16.1635 21.3466 16.12C21.4826 16.0711 21.597 15.995 21.7003 15.9025C21.7982 15.8046 21.8743 15.6849 21.9287 15.5381L22.5432 15.7121C22.4779 15.9188 22.3691 16.1037 22.2168 16.2614C22.0646 16.4192 21.8742 16.5442 21.6512 16.6312C21.4228 16.7182 21.1727 16.7617 20.8898 16.7617ZM25.7193 16.6748V12.5197H26.3394V13.1506H26.3829C26.459 12.9439 26.595 12.7753 26.7908 12.6502C26.992 12.5197 27.2149 12.4544 27.4651 12.4544C27.5086 12.4544 27.5686 12.4598 27.6393 12.4598C27.71 12.4598 27.7644 12.4653 27.797 12.4653V13.1179C27.7752 13.1125 27.7263 13.1016 27.6502 13.0907C27.574 13.0798 27.4925 13.0743 27.4109 13.0743C27.2097 13.0743 27.0247 13.118 26.867 13.1996C26.7093 13.2811 26.5896 13.4007 26.4971 13.5476C26.4046 13.6944 26.3611 13.8575 26.3611 14.0479V16.6748H25.7193ZM30.1682 16.7617C29.7712 16.7617 29.4231 16.6747 29.1349 16.4953C28.8466 16.3158 28.6237 16.0711 28.4659 15.7502C28.3137 15.4294 28.232 15.0541 28.232 14.6298C28.232 14.2056 28.3137 13.8303 28.4659 13.504C28.6237 13.1777 28.8411 12.9276 29.1184 12.7427C29.4012 12.5577 29.7276 12.4653 30.1028 12.4653C30.3204 12.4653 30.5326 12.5033 30.7447 12.574C30.9568 12.6502 31.1472 12.7645 31.3212 12.9276C31.4953 13.0853 31.6311 13.3028 31.7344 13.5639C31.8378 13.8304 31.8922 14.1567 31.8922 14.5429V14.8148H28.6887V14.2655H31.2394C31.2394 14.0262 31.1961 13.8195 31.0982 13.6345C31.0057 13.4496 30.8751 13.3083 30.7065 13.1996C30.5379 13.0962 30.3367 13.0418 30.1028 13.0418C29.8527 13.0418 29.6297 13.1016 29.4448 13.2321C29.2599 13.3517 29.1186 13.515 29.0207 13.7162C28.9228 13.9174 28.8738 14.1295 28.8738 14.3579V14.7277C28.8738 15.0431 28.9281 15.3096 29.0369 15.5272C29.1457 15.7393 29.2979 15.908 29.4937 16.0222C29.684 16.1309 29.9126 16.1908 30.1682 16.1908C30.3368 16.1908 30.489 16.1635 30.6249 16.12C30.7609 16.0711 30.8805 15.995 30.9784 15.9025C31.0763 15.8046 31.1526 15.6849 31.207 15.5381L31.8268 15.7121C31.7616 15.9188 31.6529 16.1037 31.4952 16.2614C31.3429 16.4192 31.1525 16.5442 30.9295 16.6312C30.7065 16.7182 30.451 16.7617 30.1682 16.7617ZM34.7095 12.5197V13.0636H32.4687V12.5197H34.7095ZM33.143 16.6748V11.9486C33.143 11.7093 33.1974 11.5135 33.3116 11.3558C33.4204 11.1926 33.5674 11.0785 33.7468 10.9969C33.9209 10.9153 34.1111 10.8773 34.3069 10.8773C34.4646 10.8773 34.5951 10.888 34.693 10.9152C34.7909 10.9424 34.8671 10.9642 34.9161 10.986L34.7313 11.5353C34.6986 11.5244 34.6551 11.5135 34.5953 11.4972C34.5409 11.4809 34.4647 11.47 34.3722 11.47C34.1656 11.47 34.0134 11.5244 33.9155 11.6332C33.823 11.7365 33.7795 11.8943 33.7795 12.1009V16.6748H33.143ZM37.1731 16.7617C36.776 16.7617 36.428 16.6747 36.1398 16.4953C35.8515 16.3158 35.6286 16.0711 35.4708 15.7502C35.3131 15.4294 35.2369 15.0541 35.2369 14.6298C35.2369 14.2056 35.3131 13.8303 35.4708 13.504C35.6286 13.1777 35.8462 12.9276 36.1236 12.7427C36.4064 12.5577 36.7325 12.4653 37.1077 12.4653C37.3253 12.4653 37.5375 12.5033 37.7496 12.574C37.9617 12.6502 38.1521 12.7645 38.3261 12.9276C38.5001 13.0853 38.636 13.3028 38.7393 13.5639C38.8427 13.8304 38.8917 14.1567 38.8917 14.5429V14.8148H35.6939V14.2655H38.2446C38.2446 14.0262 38.1955 13.8195 38.103 13.6345C38.0106 13.4496 37.8802 13.3083 37.7116 13.1996C37.5376 13.0962 37.3416 13.0418 37.1077 13.0418C36.8576 13.0418 36.6346 13.1016 36.4497 13.2321C36.2648 13.3517 36.1235 13.515 36.0256 13.7162C35.9277 13.9174 35.8787 14.1295 35.8787 14.3579V14.7277C35.8787 15.0431 35.9331 15.3096 36.0365 15.5272C36.1507 15.7393 36.3029 15.908 36.4932 16.0222C36.689 16.1309 36.9174 16.1908 37.1731 16.1908C37.3417 16.1908 37.4939 16.1635 37.6298 16.12C37.7658 16.0711 37.8856 15.995 37.9835 15.9025C38.0814 15.8046 38.1575 15.6849 38.2119 15.5381L38.8264 15.7121C38.7666 15.9188 38.6523 16.1037 38.5 16.2614C38.3478 16.4192 38.1574 16.5442 37.9344 16.6312C37.706 16.7182 37.4559 16.7617 37.1731 16.7617ZM39.8653 16.6748V12.5197H40.4798V13.1506H40.5233C40.5995 12.9439 40.7353 12.7753 40.9365 12.6502C41.1323 12.5197 41.3553 12.4544 41.6055 12.4544C41.6544 12.4544 41.709 12.4598 41.7797 12.4598C41.8504 12.4598 41.9047 12.4653 41.9427 12.4653V13.1179C41.921 13.1125 41.8722 13.1016 41.7906 13.0907C41.7144 13.0798 41.6383 13.0743 41.5513 13.0743C41.3501 13.0743 41.1705 13.118 41.0128 13.1996C40.855 13.2811 40.73 13.4007 40.6375 13.5476C40.5451 13.6944 40.5016 13.8575 40.5016 14.0479V16.6748H39.8653ZM46.6471 12.5197V13.0636H44.4934V12.5197H46.6471ZM45.1188 11.5244H45.7607V15.4838C45.7607 15.6632 45.7825 15.7992 45.8369 15.8916C45.8913 15.9787 45.9619 16.0384 46.0435 16.071C46.1251 16.0982 46.2177 16.1146 46.3101 16.1146C46.3808 16.1146 46.4405 16.1091 46.484 16.1037C46.5276 16.0928 46.5657 16.0874 46.5929 16.0819L46.7233 16.653C46.6798 16.6693 46.6146 16.6857 46.5385 16.702C46.4623 16.7183 46.3644 16.7292 46.2448 16.7292C46.0653 16.7292 45.8857 16.691 45.7171 16.6149C45.5431 16.5333 45.4017 16.4192 45.2874 16.256C45.1787 16.0983 45.1188 15.897 45.1188 15.6577V11.5244ZM49.2469 16.7617C48.8716 16.7617 48.5453 16.6747 48.2625 16.4953C47.9797 16.3158 47.762 16.0657 47.5989 15.7448C47.4466 15.4239 47.3652 15.0486 47.3652 14.619C47.3652 14.1893 47.4466 13.8086 47.5989 13.4877C47.762 13.1668 47.9797 12.9113 48.2625 12.7372C48.5453 12.5577 48.8716 12.4653 49.2469 12.4653C49.6222 12.4653 49.9485 12.5577 50.2313 12.7372C50.5141 12.9113 50.7371 13.1668 50.8894 13.4877C51.0525 13.8086 51.1287 14.1893 51.1287 14.619C51.1287 15.0486 51.0525 15.4239 50.8894 15.7448C50.7371 16.0657 50.5141 16.3158 50.2313 16.4953C49.9485 16.6747 49.6222 16.7617 49.2469 16.7617ZM49.2469 16.1908C49.5352 16.1908 49.769 16.1146 49.9485 15.9677C50.1334 15.8209 50.2694 15.6305 50.3564 15.3912C50.4489 15.1573 50.4924 14.8963 50.4924 14.619C50.4924 14.3416 50.4489 14.086 50.3564 13.8413C50.2694 13.602 50.1334 13.4116 49.9485 13.2647C49.769 13.1125 49.5352 13.0418 49.2469 13.0418C48.9641 13.0418 48.7302 13.1125 48.5453 13.2647C48.3604 13.4116 48.2244 13.602 48.1374 13.8413C48.0504 14.086 48.0014 14.3416 48.0014 14.619C48.0014 14.8963 48.0504 15.1573 48.1374 15.3912C48.2244 15.6305 48.3604 15.8209 48.5453 15.9677C48.7302 16.1146 48.9641 16.1908 49.2469 16.1908ZM54.5605 16.6748H53.8533L55.8875 11.1383H56.5835L58.6121 16.6748H57.9105L56.2571 12.0138H56.2138L54.5605 16.6748ZM54.8159 14.5102H57.6494V15.1085H54.8159V14.5102ZM62.0059 14.9779V12.5197H62.6475V16.6748H62.0059V15.9732H61.9624C61.8699 16.1853 61.7176 16.3593 61.5109 16.5116C61.3042 16.6584 61.0434 16.7292 60.7334 16.7292C60.4723 16.7292 60.2437 16.6748 60.0371 16.5606C59.8358 16.4409 59.678 16.2724 59.5638 16.0385C59.4496 15.8046 59.3899 15.5163 59.3899 15.1628V12.5197H60.0262V15.1193C60.0262 15.4184 60.1133 15.6632 60.2819 15.8427C60.4559 16.0221 60.6733 16.1146 60.9344 16.1146C61.0975 16.1146 61.2553 16.0711 61.4185 15.9895C61.5871 15.9079 61.7231 15.7829 61.8373 15.6197C61.9515 15.4511 62.0059 15.2389 62.0059 14.9779ZM65.6225 12.5197V13.0636H63.4689V12.5197H65.6225ZM64.0943 11.5244H64.7361V15.4838C64.7361 15.6632 64.7579 15.7992 64.8123 15.8916C64.8667 15.9787 64.9373 16.0384 65.0189 16.071C65.1005 16.0982 65.1928 16.1146 65.2853 16.1146C65.356 16.1146 65.416 16.1091 65.4595 16.1037C65.503 16.0928 65.5409 16.0874 65.5681 16.0819L65.6988 16.653C65.6552 16.6693 65.5952 16.6857 65.5137 16.702C65.4375 16.7183 65.3399 16.7292 65.2202 16.7292C65.0407 16.7292 64.8612 16.691 64.6926 16.6149C64.5185 16.5333 64.3771 16.4192 64.2629 16.256C64.1541 16.0983 64.0943 15.897 64.0943 15.6577V11.5244ZM67.3086 14.1784V16.6748H66.6723V11.1383H67.3086V13.1723H67.363C67.4609 12.9548 67.6076 12.7862 67.798 12.6611C67.9992 12.5306 68.2604 12.4653 68.5867 12.4653C68.8695 12.4653 69.1142 12.5251 69.3263 12.6394C69.5384 12.7481 69.7071 12.9221 69.8213 13.156C69.9409 13.3844 70.0005 13.678 70.0005 14.037V16.6748H69.3643V14.0805C69.3643 13.7488 69.2774 13.4932 69.1088 13.3137C68.9347 13.1343 68.7007 13.0418 68.4016 13.0418C68.1895 13.0418 68.0046 13.0853 67.836 13.1723C67.6728 13.2594 67.5423 13.3899 67.4498 13.5585C67.3574 13.7271 67.3086 13.9337 67.3086 14.1784ZM72.9102 16.7617C72.5078 16.7617 72.1653 16.6747 71.8716 16.4953C71.5834 16.3158 71.3657 16.0711 71.208 15.7502C71.0503 15.4294 70.9741 15.0541 70.9741 14.6298C70.9741 14.2056 71.0503 13.8303 71.208 13.504C71.3657 13.1777 71.5834 12.9276 71.8608 12.7427C72.1436 12.5577 72.4697 12.4653 72.8449 12.4653C73.0625 12.4653 73.2747 12.5033 73.4868 12.574C73.6989 12.6502 73.8893 12.7645 74.0633 12.9276C74.2373 13.0853 74.3732 13.3028 74.4765 13.5639C74.5798 13.8304 74.6289 14.1567 74.6289 14.5429V14.8148H71.4255V14.2655H73.9818C73.9818 14.0262 73.9327 13.8195 73.8402 13.6345C73.7478 13.4496 73.6172 13.3083 73.4432 13.1996C73.2746 13.0962 73.0733 13.0418 72.8449 13.0418C72.5893 13.0418 72.3718 13.1016 72.1869 13.2321C72.0019 13.3517 71.8607 13.515 71.7628 13.7162C71.6594 13.9174 71.6106 14.1295 71.6106 14.3579V14.7277C71.6106 15.0431 71.6649 15.3096 71.7737 15.5272C71.8824 15.7393 72.0346 15.908 72.2304 16.0222C72.4262 16.1309 72.6546 16.1908 72.9102 16.1908C73.0788 16.1908 73.2312 16.1635 73.3617 16.12C73.5031 16.0711 73.6174 15.995 73.7207 15.9025C73.8186 15.8046 73.8947 15.6849 73.9491 15.5381L74.5636 15.7121C74.4983 15.9188 74.3895 16.1037 74.2372 16.2614C74.085 16.4192 73.8946 16.5442 73.6716 16.6312C73.4432 16.7182 73.193 16.7617 72.9102 16.7617ZM76.2387 14.1784V16.6748H75.6025V12.5197H76.217V13.1723H76.2714C76.3693 12.9602 76.5162 12.7917 76.712 12.6611C76.9132 12.5306 77.1688 12.4653 77.4842 12.4653C77.7616 12.4653 78.0118 12.5251 78.2185 12.6394C78.4306 12.7536 78.5936 12.9276 78.7132 13.1614C78.8274 13.3899 78.8874 13.6835 78.8874 14.037V16.6748H78.2511V14.0805C78.2511 13.7542 78.164 13.4987 77.9954 13.3192C77.8268 13.1343 77.5931 13.0418 77.2994 13.0418C77.0927 13.0418 76.9131 13.0853 76.7499 13.1723C76.5922 13.2594 76.4672 13.3899 76.3747 13.5585C76.2822 13.7271 76.2387 13.9337 76.2387 14.1784ZM81.8622 12.5197V13.0636H79.7085V12.5197H81.8622ZM80.3339 11.5244H80.9758V15.4838C80.9758 15.6632 80.9976 15.7992 81.052 15.8916C81.1064 15.9787 81.177 16.0384 81.2586 16.071C81.3402 16.0982 81.4327 16.1146 81.5252 16.1146C81.5959 16.1146 81.6556 16.1091 81.6991 16.1037C81.7427 16.0928 81.7808 16.0874 81.808 16.0819L81.9384 16.653C81.8949 16.6693 81.8297 16.6857 81.7536 16.702C81.6774 16.7183 81.5795 16.7292 81.4599 16.7292C81.2804 16.7292 81.1008 16.691 80.9322 16.6149C80.7582 16.5333 80.6168 16.4192 80.5025 16.256C80.3938 16.0983 80.3339 15.897 80.3339 15.6577V11.5244ZM82.8195 16.6748V12.5197H83.4558V16.6748H82.8195ZM83.1459 11.829C83.0208 11.829 82.9119 11.7855 82.8248 11.7039C82.7324 11.6169 82.6889 11.5135 82.6889 11.3993C82.6889 11.2797 82.7324 11.1763 82.8248 11.0893C82.9119 11.0077 83.0208 10.9642 83.1459 10.9642C83.271 10.9642 83.3741 11.0077 83.4611 11.0893C83.5536 11.1763 83.5971 11.2797 83.5971 11.3993C83.5971 11.5135 83.5536 11.6169 83.4611 11.7039C83.3741 11.7855 83.271 11.829 83.1459 11.829ZM86.3164 16.7617C85.9248 16.7617 85.5878 16.6693 85.3105 16.4844C85.0277 16.2995 84.81 16.0493 84.6577 15.723C84.5054 15.4021 84.4347 15.0323 84.4347 14.619C84.4347 14.2002 84.511 13.8249 84.6633 13.504C84.821 13.1777 85.0385 12.9276 85.3214 12.7427C85.5987 12.5577 85.9302 12.4653 86.3055 12.4653C86.5938 12.4653 86.8604 12.5197 87.0942 12.6285C87.3281 12.7372 87.5185 12.8894 87.6707 13.0852C87.8176 13.281 87.9099 13.504 87.948 13.7651H87.3117C87.2628 13.5747 87.1539 13.4062 86.9853 13.2647C86.8167 13.1125 86.5938 13.0418 86.3164 13.0418C86.0662 13.0418 85.8487 13.107 85.6583 13.2375C85.4734 13.3626 85.3267 13.5421 85.2234 13.7814C85.12 14.0098 85.0712 14.2872 85.0712 14.5972C85.0712 14.9181 85.12 15.2009 85.2234 15.4348C85.3267 15.6741 85.4681 15.859 85.653 15.9895C85.8434 16.12 86.0608 16.1908 86.3164 16.1908C86.4796 16.1908 86.6319 16.1581 86.7678 16.1037C86.8984 16.0439 87.0182 15.9623 87.1107 15.8535C87.2031 15.7448 87.2682 15.6143 87.3117 15.462H87.948C87.9099 15.7067 87.823 15.9297 87.6816 16.1255C87.5402 16.3213 87.3497 16.4736 87.1213 16.5933C86.8874 16.702 86.621 16.7617 86.3164 16.7617ZM90.1019 16.7726C89.8409 16.7726 89.6014 16.7237 89.3839 16.6258C89.1718 16.5224 89.0032 16.3757 88.8727 16.1908C88.7476 15.995 88.6878 15.7666 88.6878 15.4946C88.6878 15.2553 88.7313 15.065 88.8238 14.9181C88.9217 14.7658 89.0466 14.6517 89.2043 14.5647C89.3566 14.4831 89.5308 14.4178 89.7211 14.3742C89.9115 14.3307 90.1019 14.2981 90.2976 14.2764C90.5478 14.2438 90.7544 14.2165 90.9121 14.2002C91.0699 14.1839 91.184 14.1513 91.2547 14.1132C91.3309 14.0697 91.3689 13.9989 91.3689 13.8956V13.8739C91.3689 13.6074 91.2929 13.4007 91.1461 13.2539C91.0047 13.1016 90.787 13.0309 90.4934 13.0309C90.1888 13.0309 89.9496 13.0961 89.7756 13.2321C89.6015 13.3626 89.4819 13.504 89.4112 13.6563L88.802 13.4388C88.9108 13.1886 89.0575 12.9928 89.237 12.8514C89.4165 12.71 89.6179 12.6121 89.83 12.5523C90.0475 12.4979 90.2595 12.4653 90.4716 12.4653C90.6021 12.4653 90.7543 12.4817 90.9283 12.5143C91.1024 12.5469 91.2711 12.6121 91.4342 12.71C91.5974 12.8079 91.7334 12.9548 91.8421 13.1506C91.9509 13.3463 92.0054 13.6074 92.0054 13.9391V16.6748H91.3689V16.1146H91.3362C91.2927 16.2016 91.2221 16.2995 91.1188 16.4028C91.0154 16.5062 90.885 16.5932 90.7164 16.6639C90.5478 16.7346 90.3467 16.7726 90.1019 16.7726ZM90.1997 16.1962C90.4498 16.1962 90.6673 16.1473 90.8359 16.0494C91.01 15.9515 91.1459 15.8209 91.2329 15.6686C91.32 15.5109 91.3689 15.3423 91.3689 15.1737V14.5863C91.3417 14.6189 91.2821 14.6517 91.1897 14.6788C91.0972 14.7006 90.9938 14.7223 90.8742 14.744C90.76 14.7604 90.6455 14.7767 90.5313 14.793C90.4226 14.8039 90.3357 14.8148 90.265 14.8257C90.0964 14.8475 89.9442 14.8801 89.7973 14.929C89.6559 14.9779 89.5415 15.0486 89.4545 15.1465C89.3675 15.2389 89.3241 15.364 89.3241 15.5272C89.3241 15.7502 89.4055 15.9188 89.5687 16.0331C89.7373 16.1418 89.944 16.1962 90.1997 16.1962ZM94.9749 12.5197V13.0636H92.8266V12.5197H94.9749ZM93.4519 11.5244H94.0882V15.4838C94.0882 15.6632 94.1156 15.7992 94.17 15.8916C94.2244 15.9787 94.2895 16.0384 94.371 16.071C94.4581 16.0982 94.5451 16.1146 94.643 16.1146C94.7137 16.1146 94.7682 16.1091 94.8172 16.1037C94.8607 16.0928 94.8933 16.0874 94.9205 16.0819L95.0509 16.653C95.0074 16.6693 94.9475 16.6857 94.8713 16.702C94.7952 16.7183 94.6976 16.7292 94.5779 16.7292C94.3984 16.7292 94.219 16.691 94.0449 16.6149C93.8763 16.5333 93.7348 16.4192 93.6206 16.256C93.5064 16.0983 93.4519 15.897 93.4519 15.6577V11.5244ZM95.9376 16.6748V12.5197H96.5738V16.6748H95.9376ZM96.2584 11.829C96.1387 11.829 96.03 11.7855 95.9376 11.7039C95.8505 11.6169 95.8069 11.5135 95.8069 11.3993C95.8069 11.2797 95.8505 11.1763 95.9376 11.0893C96.03 11.0077 96.1387 10.9642 96.2584 10.9642C96.3834 10.9642 96.4921 11.0077 96.5791 11.0893C96.6716 11.1763 96.7151 11.2797 96.7151 11.3993C96.7151 11.5135 96.6716 11.6169 96.5791 11.7039C96.4921 11.7855 96.3834 11.829 96.2584 11.829ZM99.4291 16.7617C99.0538 16.7617 98.7275 16.6747 98.4447 16.4953C98.1619 16.3158 97.9444 16.0657 97.7866 15.7448C97.6289 15.4239 97.5474 15.0486 97.5474 14.619C97.5474 14.1893 97.6289 13.8086 97.7866 13.4877C97.9444 13.1668 98.1619 12.9113 98.4447 12.7372C98.7275 12.5577 99.0538 12.4653 99.4291 12.4653C99.8044 12.4653 100.136 12.5577 100.414 12.7372C100.696 12.9113 100.919 13.1668 101.077 13.4877C101.235 13.8086 101.311 14.1893 101.311 14.619C101.311 15.0486 101.235 15.4239 101.077 15.7448C100.919 16.0657 100.696 16.3158 100.414 16.4953C100.136 16.6747 99.8044 16.7617 99.4291 16.7617ZM99.4291 16.1908C99.7174 16.1908 99.9511 16.1146 100.136 15.9677C100.316 15.8209 100.451 15.6305 100.544 15.3912C100.631 15.1573 100.675 14.8963 100.675 14.619C100.675 14.3416 100.631 14.086 100.544 13.8413C100.451 13.602 100.316 13.4116 100.136 13.2647C99.9511 13.1125 99.7174 13.0418 99.4291 13.0418C99.1463 13.0418 98.9124 13.1125 98.7275 13.2647C98.5426 13.4116 98.4066 13.602 98.3196 13.8413C98.2326 14.086 98.189 14.3416 98.189 14.619C98.189 14.8963 98.2326 15.1573 98.3196 15.3912C98.4066 15.6305 98.5426 15.8209 98.7275 15.9677C98.9124 16.1146 99.1463 16.1908 99.4291 16.1908ZM102.926 14.1784V16.6748H102.284V12.5197H102.904V13.1723H102.959C103.057 12.9602 103.203 12.7917 103.399 12.6611C103.6 12.5306 103.856 12.4653 104.166 12.4653C104.449 12.4653 104.694 12.5251 104.906 12.6394C105.118 12.7536 105.281 12.9276 105.401 13.1614C105.515 13.3899 105.575 13.6835 105.575 14.037V16.6748H104.938V14.0805C104.938 13.7542 104.851 13.4987 104.683 13.3192C104.514 13.1343 104.28 13.0418 103.987 13.0418C103.78 13.0418 103.6 13.0853 103.437 13.1723C103.279 13.2594 103.154 13.3899 103.062 13.5585C102.969 13.7271 102.926 13.9337 102.926 14.1784ZM107.206 16.7183C107.07 16.7183 106.956 16.6694 106.864 16.5769C106.766 16.479 106.717 16.3647 106.717 16.2288C106.717 16.0982 106.766 15.9841 106.864 15.8862C106.956 15.7937 107.07 15.7448 107.206 15.7448C107.337 15.7448 107.451 15.7937 107.549 15.8862C107.647 15.9841 107.69 16.0982 107.69 16.2288C107.69 16.3212 107.669 16.4028 107.625 16.4735C107.582 16.5496 107.522 16.6095 107.451 16.653C107.375 16.6965 107.293 16.7183 107.206 16.7183Z" fill="#9747FF"/>
</svg>
