<svg width="5" height="6" viewBox="0 0 5 6" fill="none" xmlns="http://www.w3.org/2000/svg">
<path d="M4.8459 1.95245H3.8397C3.81251 1.78385 3.7581 1.63704 3.68196 1.50651C3.60582 1.38142 3.50804 1.26722 3.39383 1.18021C3.27962 1.08775 3.14897 1.01704 3.00213 0.973535C2.86073 0.930026 2.70308 0.90283 2.53448 0.90283C2.23536 0.90283 1.96889 0.978929 1.74047 1.13121C1.50661 1.28349 1.32713 1.50109 1.1966 1.79477C1.06608 2.08302 1.00089 2.4365 1.00089 2.85528C1.00089 3.27949 1.06608 3.63843 1.1966 3.93212C1.32713 4.22036 1.50661 4.43795 1.74047 4.58479C1.96889 4.73163 2.23549 4.80773 2.52917 4.80773C2.69777 4.80773 2.84984 4.78597 2.99124 4.74247C3.13809 4.69896 3.26873 4.62826 3.38294 4.54124C3.49715 4.45422 3.59507 4.35091 3.67665 4.22582C3.75823 4.0953 3.81251 3.95386 3.8397 3.79071L4.8459 3.79615C4.80783 4.0572 4.72641 4.30737 4.60132 4.53579C4.47623 4.76966 4.31844 4.97633 4.11721 5.15036C3.91598 5.3244 3.68196 5.46581 3.41003 5.5637C3.14354 5.6616 2.8446 5.71056 2.51829 5.71056C2.03425 5.71056 1.60439 5.59635 1.22369 5.37336C0.842987 5.14494 0.543916 4.81859 0.326371 4.38894C0.108826 3.96473 0 3.45353 0 2.85528C0 2.25703 0.108826 1.74583 0.326371 1.32162C0.549354 0.891964 0.848564 0.565614 1.22927 0.337192C1.60997 0.114208 2.03969 0 2.51829 0C2.82285 0 3.111 0.0435037 3.37205 0.130522C3.63311 0.21754 3.86699 0.342602 4.07366 0.511199C4.28033 0.679796 4.44889 0.886467 4.58486 1.12577C4.71538 1.36507 4.80783 1.64245 4.8459 1.95245Z" fill="black"/>
</svg>
