<svg width="44" height="7" viewBox="0 0 44 7" fill="none" xmlns="http://www.w3.org/2000/svg">
<path d="M4.5737 2.17545C4.50844 1.96878 4.41612 1.77841 4.30735 1.61526C4.19858 1.44666 4.06793 1.30524 3.91565 1.19103C3.76337 1.07138 3.59493 0.984359 3.39914 0.919096C3.20879 0.859271 2.9966 0.826682 2.76818 0.826682C2.39835 0.826682 2.05578 0.924598 1.74578 1.12039C1.44121 1.31074 1.1963 1.59889 1.01682 1.97416C0.831908 2.34942 0.74489 2.81173 0.74489 3.36103C0.74489 3.91033 0.837346 4.37264 1.01682 4.74791C1.20173 5.12861 1.45197 5.41146 1.76198 5.60725C2.07742 5.79761 2.43103 5.89552 2.82261 5.89552C3.18156 5.89552 3.50232 5.81928 3.77969 5.66156C4.05705 5.50928 4.27457 5.28632 4.42685 5.00351C4.58457 4.71526 4.66081 4.37814 4.66081 3.992L4.89476 4.04086H2.99124V3.36103H5.40596V4.04086C5.40596 4.56297 5.29169 5.01438 5.0687 5.40052C4.85116 5.78666 4.5465 6.08586 4.15492 6.29797C3.76878 6.51008 3.32297 6.61332 2.82261 6.61332C2.26244 6.61332 1.7674 6.4828 1.34319 6.21631C0.918979 5.95526 0.592757 5.58009 0.353458 5.09061C0.119597 4.60657 0 4.02998 0 3.36103C0 2.86068 0.0705003 2.40928 0.201027 2.01226C0.336993 1.60981 0.532815 1.26723 0.777553 0.984423C1.02229 0.701615 1.3159 0.48954 1.6531 0.337258C1.99029 0.184977 2.36572 0.108746 2.76818 0.108746C3.10537 0.108746 3.41522 0.163148 3.70347 0.261043C3.99172 0.358939 4.25287 0.500359 4.48129 0.685272C4.70971 0.864747 4.89996 1.08227 5.05224 1.33788C5.20452 1.58806 5.3079 1.87089 5.36772 2.17545H4.5737ZM8.60912 6.62421C8.15228 6.62421 7.75543 6.52641 7.42367 6.31975C7.09191 6.11852 6.84179 5.83568 6.66232 5.47129C6.48284 5.10146 6.3957 4.67719 6.3957 4.18772C6.3957 3.70368 6.48284 3.2741 6.66232 2.90427C6.84179 2.53445 7.08633 2.24071 7.40721 2.03404C7.72808 1.82193 8.10352 1.71856 8.53317 1.71856C8.77791 1.71856 9.02244 1.75662 9.26717 1.84364C9.50647 1.92521 9.72426 2.05586 9.92549 2.24078C10.1213 2.42569 10.2788 2.67035 10.3984 2.97491C10.5127 3.27404 10.5727 3.64933 10.5727 4.08986V4.3999H6.91247V3.76893H9.83281C9.83281 3.50244 9.77853 3.26323 9.66976 3.05113C9.56643 2.84446 9.4141 2.67578 9.21831 2.55613C9.02252 2.43648 8.79422 2.3713 8.53317 2.3713C8.24492 2.3713 7.98923 2.44739 7.77713 2.58879C7.57046 2.7302 7.40723 2.91512 7.29302 3.14354C7.1788 3.37196 7.12439 3.62207 7.12439 3.88312V4.3019C7.12439 4.66085 7.18439 4.96551 7.30948 5.21569C7.43457 5.46043 7.60858 5.6508 7.83157 5.77588C8.05455 5.90641 8.31 5.9716 8.60912 5.9716C8.79947 5.9716 8.97361 5.94446 9.1259 5.89007C9.28362 5.83569 9.41944 5.754 9.52822 5.64523C9.64243 5.53102 9.72957 5.39517 9.79484 5.22658L10.4964 5.42774C10.4257 5.66704 10.3006 5.87366 10.1265 6.05857C9.94704 6.23804 9.7351 6.37402 9.47404 6.47736C9.21843 6.57525 8.93 6.62421 8.60912 6.62421ZM13.7432 1.77844V2.39839H11.2851V1.77844H13.7432ZM12.003 0.641721H12.7316V5.16669C12.7316 5.37336 12.7642 5.5257 12.8241 5.62903C12.8839 5.73236 12.9601 5.79756 13.058 5.83563C13.1559 5.86827 13.2538 5.88463 13.3626 5.88463C13.4442 5.88463 13.5094 5.87918 13.5583 5.87374C13.6127 5.86286 13.6508 5.85196 13.6834 5.84652L13.8303 6.49913C13.7813 6.52088 13.7161 6.53726 13.6236 6.55901C13.5366 6.57533 13.4224 6.58623 13.2864 6.58623C13.0852 6.58623 12.8786 6.54273 12.6828 6.45571C12.487 6.36869 12.3239 6.23273 12.1934 6.04781C12.0683 5.86834 12.003 5.63991 12.003 5.36254V0.641721ZM18.687 6.6351C18.3879 6.6351 18.1158 6.58068 17.8657 6.46647C17.6209 6.35226 17.4307 6.18915 17.2838 5.9716C17.1424 5.75406 17.0663 5.48758 17.0663 5.17758C17.0663 4.90565 17.1206 4.68813 17.2294 4.51953C17.3382 4.34549 17.4796 4.21497 17.6591 4.11708C17.8385 4.01918 18.0342 3.9484 18.2518 3.89945C18.4693 3.8505 18.6869 3.81245 18.9098 3.77982C19.1981 3.74719 19.432 3.72005 19.6114 3.69829C19.7909 3.67654 19.9214 3.64394 20.0085 3.59499C20.09 3.55148 20.1335 3.46436 20.1335 3.35015V3.32306C20.1335 3.0185 20.052 2.78461 19.8834 2.61601C19.7202 2.44741 19.4701 2.36041 19.1329 2.36041C18.7848 2.36041 18.513 2.43651 18.3118 2.58879C18.116 2.74107 17.9745 2.90418 17.8983 3.07821L17.2023 2.82806C17.3274 2.53981 17.4904 2.31684 17.697 2.15912C17.9037 1.99596 18.1321 1.88181 18.3769 1.81655C18.627 1.75129 18.8665 1.71856 19.1058 1.71856C19.2581 1.71856 19.4374 1.73493 19.6332 1.773C19.8345 1.81107 20.0248 1.88172 20.2098 1.99049C20.4001 2.1047 20.5523 2.27339 20.6774 2.49638C20.8025 2.71936 20.8625 3.02388 20.8625 3.39914V6.52635H20.1335V5.88463H20.0956C20.0466 5.98796 19.9652 6.09666 19.851 6.21631C19.7313 6.33052 19.579 6.43388 19.3886 6.51546C19.1983 6.59704 18.9644 6.6351 18.687 6.6351ZM18.7957 5.98249C19.0839 5.98249 19.3287 5.92807 19.5299 5.81386C19.7257 5.69965 19.878 5.55277 19.9814 5.3733C20.0793 5.19382 20.1335 5.00358 20.1335 4.80779V4.13885C20.1009 4.17692 20.0357 4.20952 19.9269 4.24215C19.8236 4.26935 19.7094 4.29648 19.5735 4.31824C19.4375 4.33999 19.307 4.3618 19.1765 4.37812C19.0514 4.389 18.948 4.39991 18.8719 4.41078C18.6815 4.43798 18.5075 4.47604 18.3389 4.53586C18.1757 4.58481 18.0454 4.66636 17.9475 4.77513C17.8441 4.8839 17.795 5.03078 17.795 5.21569C17.795 5.4713 17.8929 5.66156 18.0779 5.79208C18.2682 5.91717 18.5074 5.98249 18.7957 5.98249ZM23.9841 6.62421C23.5925 6.62421 23.2391 6.52629 22.94 6.32506C22.6354 6.12383 22.3961 5.84112 22.2275 5.47129C22.0589 5.10146 21.972 4.66629 21.972 4.16594C21.972 3.66559 22.0589 3.23599 22.2275 2.86617C22.3961 2.50178 22.6354 2.21894 22.94 2.01771C23.2445 1.81648 23.5981 1.71856 24.0006 1.71856C24.3052 1.71856 24.5498 1.76752 24.7293 1.87086C24.9142 1.97419 25.0503 2.08847 25.1428 2.219C25.2406 2.34409 25.3167 2.45277 25.3711 2.53435H25.4309V0.195849H26.1596V6.52635H25.458V5.79753H25.3711C25.3167 5.88454 25.2406 5.99337 25.1428 6.1239C25.0449 6.25442 24.9033 6.36858 24.7184 6.47191C24.5335 6.57524 24.2887 6.62421 23.9841 6.62421ZM24.0821 5.9716C24.3758 5.9716 24.626 5.8955 24.8273 5.74322C25.0285 5.5855 25.1808 5.3733 25.2896 5.10137C25.3929 4.82944 25.4418 4.514 25.4418 4.15505C25.4418 3.7961 25.3929 3.48612 25.2896 3.22507C25.1863 2.95314 25.0338 2.74652 24.8326 2.59968C24.6314 2.4474 24.3812 2.3713 24.0821 2.3713C23.7776 2.3713 23.5165 2.45285 23.3099 2.61057C23.1086 2.76829 22.9562 2.98036 22.8528 3.25229C22.7495 3.51878 22.7007 3.81786 22.7007 4.15505C22.7007 4.49225 22.7495 4.79691 22.8528 5.07428C22.9616 5.34621 23.1141 5.56373 23.3208 5.72689C23.522 5.89005 23.7776 5.9716 24.0821 5.9716ZM31.4787 1.77844L29.722 6.52635H28.9822L27.2255 1.77844H28.0195L29.3303 5.5637H29.3792L30.69 1.77844H31.4787ZM32.4413 6.52635V1.77844H33.17V6.52635H32.4413ZM32.811 0.989867C32.6696 0.989867 32.55 0.940909 32.4467 0.843013C32.3433 0.745118 32.2945 0.630833 32.2945 0.494867C32.2945 0.358901 32.3433 0.244749 32.4467 0.146854C32.55 0.0489582 32.6696 0 32.811 0C32.9524 0 33.0777 0.0489582 33.1756 0.146854C33.2789 0.244749 33.3331 0.358901 33.3331 0.494867C33.3331 0.630833 33.2789 0.745118 33.1756 0.843013C33.0777 0.940909 32.9524 0.989867 32.811 0.989867ZM36.4332 6.62421C35.9927 6.62421 35.6066 6.52096 35.2857 6.30886C34.9649 6.10219 34.7145 5.80846 34.5459 5.44407C34.3719 5.07424 34.2848 4.64999 34.2848 4.17683C34.2848 3.69823 34.372 3.26866 34.5515 2.90427C34.7309 2.52901 34.9812 2.24071 35.2966 2.03404C35.6175 1.82193 35.9927 1.71856 36.4223 1.71856C36.7541 1.71856 37.0587 1.77843 37.3252 1.90352C37.5917 2.02861 37.8147 2.20262 37.9833 2.42016C38.1519 2.64315 38.2606 2.90417 38.3041 3.20329H37.5698C37.5154 2.98575 37.3959 2.7955 37.2001 2.6269C37.0098 2.4583 36.7541 2.3713 36.4332 2.3713C36.1504 2.3713 35.9002 2.44739 35.6881 2.59423C35.476 2.74108 35.3074 2.94769 35.1877 3.21418C35.0735 3.48067 35.0138 3.7961 35.0138 4.15505C35.0138 4.51944 35.0735 4.84032 35.1877 5.11225C35.302 5.38419 35.4706 5.59638 35.6827 5.74322C35.8949 5.8955 36.145 5.9716 36.4332 5.9716C36.6236 5.9716 36.7977 5.93901 36.95 5.87374C37.1077 5.80304 37.2381 5.71057 37.3414 5.58548C37.4502 5.46583 37.5263 5.31351 37.5698 5.13947H38.3041C38.2606 5.42228 38.1573 5.67254 37.9942 5.90096C37.8364 6.12395 37.6244 6.29797 37.3579 6.42849C37.0914 6.55902 36.7867 6.62421 36.4332 6.62421ZM41.3551 6.62421C40.8982 6.62421 40.5067 6.52641 40.1749 6.31975C39.8432 6.11852 39.5876 5.83568 39.4136 5.47129C39.2341 5.10146 39.1472 4.67719 39.1472 4.18772C39.1472 3.70368 39.2341 3.2741 39.4136 2.90427C39.5876 2.53445 39.8378 2.24071 40.1587 2.03404C40.4796 1.82193 40.8548 1.71856 41.2844 1.71856C41.5292 1.71856 41.774 1.75662 42.0187 1.84364C42.258 1.92521 42.4755 2.05586 42.6767 2.24078C42.8725 2.42569 43.0302 2.67035 43.1444 2.97491C43.264 3.27404 43.3239 3.64933 43.3239 4.08986V4.3999H39.6637V3.76893H42.5788C42.5788 3.50244 42.53 3.26323 42.4213 3.05113C42.3179 2.84446 42.1656 2.67578 41.9698 2.55613C41.774 2.43648 41.5455 2.3713 41.2844 2.3713C40.9907 2.3713 40.7405 2.44739 40.5284 2.58879C40.3217 2.7302 40.1587 2.91512 40.0445 3.14354C39.9303 3.37196 39.8759 3.62207 39.8759 3.88312V4.3019C39.8759 4.66085 39.9356 4.96551 40.0607 5.21569C40.1858 5.46043 40.3598 5.6508 40.5828 5.77588C40.8058 5.90641 41.0614 5.9716 41.3551 5.9716C41.5509 5.9716 41.7251 5.94446 41.8774 5.89007C42.0351 5.83569 42.171 5.754 42.2797 5.64523C42.3939 5.53102 42.4811 5.39517 42.5464 5.22658L43.2477 5.42774C43.177 5.66704 43.0519 5.87366 42.8725 6.05857C42.6984 6.23804 42.4809 6.37402 42.2253 6.47736C41.9697 6.57525 41.6814 6.62421 41.3551 6.62421Z" fill="black"/>
</svg>
