<svg width="8" height="9" viewBox="0 0 8 9" fill="none" xmlns="http://www.w3.org/2000/svg">
<path d="M7.38012 2.47601L5.00351 0.0994038C4.97088 0.0667721 4.93283 0.0395046 4.88932 0.0231887C4.85125 0.00687286 4.80762 -0.00402564 4.76411 0.00141299H0.685139C0.500226 0.00141299 0.331687 0.0721735 0.20116 0.197262C0.0760717 0.327789 0 0.496328 0 0.681241V8.15935C0 8.33882 0.0760717 8.50749 0.20116 8.63802C0.331687 8.76311 0.500226 8.83387 0.685139 8.83387H6.79828C6.98319 8.83387 7.15173 8.76311 7.28226 8.63802C7.40735 8.50749 7.48342 8.33882 7.48342 8.15935V2.72073C7.48342 2.67178 7.47265 2.62827 7.45633 2.5902C7.44002 2.54669 7.41275 2.50865 7.38012 2.47601ZM5.10137 1.15991L6.31961 2.37816H5.10137V1.15991ZM6.79828 8.15935H0.685139V0.681241H4.42154V2.72073C4.42154 2.80774 4.45957 2.89486 4.5194 2.96013C4.58466 3.01995 4.67165 3.05798 4.76411 3.05798H6.79828V8.15935ZM5.43863 4.7549C5.43863 4.84735 5.4059 4.93435 5.34063 4.99961C5.27537 5.05943 5.19382 5.09747 5.10137 5.09747H2.38205C2.2896 5.09747 2.20805 5.05943 2.14279 4.99961C2.07752 4.93435 2.0448 4.84735 2.0448 4.7549C2.0448 4.66788 2.07752 4.58076 2.14279 4.5155C2.20805 4.45567 2.2896 4.41764 2.38205 4.41764H5.10137C5.19382 4.41764 5.27537 4.45567 5.34063 4.5155C5.4059 4.58076 5.43863 4.66788 5.43863 4.7549ZM5.43863 6.11455C5.43863 6.20701 5.4059 6.294 5.34063 6.35927C5.27537 6.41909 5.19382 6.45712 5.10137 6.45712H2.38205C2.2896 6.45712 2.20805 6.41909 2.14279 6.35927C2.07752 6.294 2.0448 6.20701 2.0448 6.11455C2.0448 6.02754 2.07752 5.94042 2.14279 5.87515C2.20805 5.81533 2.2896 5.7773 2.38205 5.7773H5.10137C5.19382 5.7773 5.27537 5.81533 5.34063 5.87515C5.4059 5.94042 5.43863 6.02754 5.43863 6.11455Z" fill="#FFB55B"/>
</svg>
