<svg width="24" height="9" viewBox="0 0 24 9" fill="none" xmlns="http://www.w3.org/2000/svg">
<path d="M0 6.52635V0.195849H0.766931V5.84652H3.70931V6.52635H0ZM6.72764 6.62421C6.29799 6.62421 5.92268 6.52097 5.59637 6.31975C5.27549 6.11308 5.02537 5.83023 4.8459 5.46584C4.66643 5.09602 4.57397 4.6663 4.57397 4.17683C4.57397 3.68191 4.66643 3.25232 4.8459 2.8825C5.02537 2.51267 5.27549 2.22982 5.59637 2.02315C5.92268 1.82192 6.29799 1.71856 6.72764 1.71856C7.15186 1.71856 7.52742 1.82192 7.8483 2.02315C8.17461 2.22982 8.4246 2.51267 8.60408 2.8825C8.78355 3.25232 8.87601 3.68191 8.87601 4.17683C8.87601 4.6663 8.78355 5.09602 8.60408 5.46584C8.4246 5.83023 8.17461 6.11308 7.8483 6.31975C7.52742 6.52097 7.15186 6.62421 6.72764 6.62421ZM6.72764 5.9716C7.04852 5.9716 7.3203 5.8846 7.52697 5.72144C7.73908 5.55285 7.89699 5.33532 7.99489 5.06339C8.09822 4.79146 8.14732 4.49771 8.14732 4.17683C8.14732 3.86139 8.09822 3.56233 7.99489 3.29039C7.89699 3.01846 7.73908 2.7955 7.52697 2.6269C7.3203 2.4583 7.04852 2.3713 6.72764 2.3713C6.40133 2.3713 6.13511 2.4583 5.923 2.6269C5.7109 2.7955 5.55842 3.01846 5.45509 3.29039C5.35719 3.56233 5.30266 3.86139 5.30266 4.17683C5.30266 4.49771 5.35719 4.79146 5.45509 5.06339C5.55842 5.33532 5.7109 5.55285 5.923 5.72144C6.13511 5.8846 6.40133 5.9716 6.72764 5.9716ZM11.9055 8.40265C11.552 8.40265 11.2529 8.35914 10.9973 8.26668C10.7417 8.17966 10.5349 8.06551 10.3663 7.91867C10.1977 7.77183 10.0616 7.61949 9.96373 7.45089L10.5458 7.04299C10.6111 7.13001 10.6927 7.23337 10.796 7.34214C10.8993 7.45635 11.0352 7.55427 11.2092 7.63585C11.3887 7.72287 11.6172 7.76093 11.9055 7.76093C12.2862 7.76093 12.6067 7.66847 12.8514 7.48355C13.1016 7.29864 13.2269 7.01034 13.2269 6.61332V5.65067H13.1669C13.1125 5.73769 13.0364 5.84107 12.9385 5.9716C12.8406 6.09669 12.6995 6.20552 12.52 6.30886C12.3351 6.40131 12.0901 6.45027 11.7801 6.45027C11.3994 6.45027 11.057 6.36325 10.7524 6.17834C10.4479 5.99886 10.2085 5.7377 10.0291 5.38963C9.85502 5.04156 9.76775 4.62288 9.76775 4.12796C9.76775 3.64393 9.85515 3.21967 10.0237 2.86072C10.1923 2.49633 10.4314 2.2135 10.736 2.01771C11.0405 1.81648 11.3942 1.71856 11.7966 1.71856C12.1012 1.71856 12.3457 1.76752 12.5306 1.87085C12.7155 1.97419 12.8518 2.08847 12.9497 2.219C13.0476 2.34409 13.1237 2.45277 13.178 2.53435H13.254V1.77844H13.9556V6.66232C13.9556 7.07021 13.8633 7.40201 13.6784 7.65763C13.4934 7.91324 13.2485 8.10361 12.9385 8.22326C12.6285 8.34291 12.2862 8.40265 11.9055 8.40265ZM11.8779 5.79753C12.1716 5.79753 12.4218 5.73233 12.623 5.59637C12.8243 5.4604 12.9769 5.27002 13.0856 5.01984C13.189 4.76966 13.2375 4.46515 13.2375 4.11708C13.2375 3.77444 13.189 3.46979 13.0856 3.20874C12.9823 2.94768 12.8301 2.74652 12.6289 2.59423C12.4276 2.44739 12.177 2.3713 11.8779 2.3713C11.5733 2.3713 11.3123 2.45285 11.1056 2.61057C10.9044 2.76285 10.7522 2.9749 10.6489 3.23595C10.5455 3.50245 10.497 3.7962 10.497 4.11708C10.497 4.44339 10.5455 4.737 10.6489 4.99262C10.7576 5.2428 10.9101 5.43864 11.1168 5.58548C11.318 5.72688 11.5733 5.79753 11.8779 5.79753ZM17.7409 6.52635V1.77844H18.4695V6.52635H17.7409ZM18.111 0.989867C17.9696 0.989867 17.8442 0.940909 17.7409 0.843013C17.643 0.745118 17.5884 0.630833 17.5884 0.494867C17.5884 0.358901 17.643 0.244749 17.7409 0.146853C17.8442 0.0489582 17.9696 0 18.111 0C18.2525 0 18.3721 0.0489582 18.4754 0.146853C18.5787 0.244749 18.6273 0.358901 18.6273 0.494867C18.6273 0.630833 18.5787 0.745118 18.4754 0.843013C18.3721 0.940909 18.2525 0.989867 18.111 0.989867ZM20.5367 3.67107V6.52635H19.8021V1.77844H20.509V2.52346H20.569C20.6833 2.27873 20.8521 2.08847 21.0805 1.94163C21.3035 1.79478 21.5968 1.71856 21.9558 1.71856C22.2767 1.71856 22.5594 1.78388 22.7987 1.91441C23.038 2.04493 23.2285 2.24077 23.359 2.50726C23.495 2.77376 23.5603 3.10543 23.5603 3.50789V6.52635H22.8316V3.56233C22.8316 3.18706 22.7336 2.89876 22.5432 2.68665C22.3474 2.47998 22.0811 2.3713 21.7439 2.3713C21.51 2.3713 21.3031 2.42557 21.1182 2.52346C20.9387 2.6268 20.7977 2.77367 20.6944 2.96402C20.5856 3.15981 20.5367 3.3937 20.5367 3.67107Z" fill="white"/>
</svg>
