<svg width="79" height="10" viewBox="0 0 79 10" fill="none" xmlns="http://www.w3.org/2000/svg">
<path d="M0 7.34214V0.223002H0.859345V6.57528H4.17138V7.34214H0ZM7.56521 7.45089C7.08117 7.45089 6.65705 7.33668 6.29266 7.10825C5.93371 6.87983 5.65087 6.55901 5.4442 6.14567C5.24297 5.73234 5.14492 5.25372 5.14492 4.69898C5.14492 4.14424 5.24297 3.66017 5.4442 3.2414C5.65087 2.82806 5.93371 2.50717 6.29266 2.27875C6.65705 2.04489 7.08117 1.93074 7.56521 1.93074C8.04381 1.93074 8.46793 2.04489 8.82688 2.27875C9.19127 2.50717 9.4741 2.82806 9.67533 3.2414C9.882 3.66017 9.98551 4.14424 9.98551 4.69898C9.98551 5.25372 9.882 5.73234 9.67533 6.14567C9.4741 6.55901 9.19127 6.87983 8.82688 7.10825C8.46793 7.33668 8.04381 7.45089 7.56521 7.45089ZM7.56521 6.71669C7.9296 6.71669 8.23425 6.62422 8.46811 6.43387C8.70197 6.24896 8.88142 5.99879 8.9902 5.69422C9.10441 5.38966 9.16414 5.05793 9.16414 4.69898C9.16414 4.34547 9.10441 4.0083 8.9902 3.70374C8.88142 3.39373 8.70197 3.14355 8.46811 2.9532C8.23425 2.76285 7.9296 2.67038 7.56521 2.67038C7.19539 2.67038 6.89618 2.76285 6.66232 2.9532C6.42302 3.14355 6.24913 3.39373 6.13492 3.70374C6.02071 4.0083 5.96629 4.34547 5.96629 4.69898C5.96629 5.05793 6.02071 5.38966 6.13492 5.69422C6.24913 5.99879 6.42302 6.24896 6.66232 6.43387C6.89618 6.62422 7.19539 6.71669 7.56521 6.71669ZM13.39 9.45778C12.9929 9.45778 12.6558 9.40337 12.3676 9.30548C12.0848 9.20215 11.8454 9.07163 11.6551 8.90847C11.4702 8.74531 11.318 8.5713 11.2092 8.38638L11.8617 7.92405C11.9378 8.02194 12.0303 8.13615 12.1445 8.26124C12.2587 8.38633 12.411 8.49515 12.6068 8.58761C12.8081 8.68551 13.0691 8.73446 13.39 8.73446C13.825 8.73446 14.1785 8.63109 14.4559 8.41898C14.7387 8.21231 14.8803 7.88604 14.8803 7.44007V6.35234H14.8094C14.7495 6.45024 14.6627 6.57528 14.5539 6.71669C14.4451 6.85809 14.2873 6.98322 14.0807 7.09743C13.874 7.2062 13.6021 7.26055 13.254 7.26055C12.8189 7.26055 12.4327 7.15725 12.0901 6.95058C11.7529 6.74935 11.4811 6.45022 11.2798 6.06408C11.084 5.6725 10.9861 5.19935 10.9861 4.64461C10.9861 4.09531 11.0839 3.62214 11.2743 3.21425C11.4646 2.80635 11.7365 2.49091 12.0792 2.26793C12.4218 2.04495 12.8189 1.93074 13.2649 1.93074C13.613 1.93074 13.8903 1.99053 14.0916 2.10475C14.2982 2.21896 14.456 2.34947 14.5648 2.49631C14.679 2.63771 14.766 2.75738 14.8258 2.84983H14.9074V2.00144H15.7014V7.49444C15.7014 7.95129 15.5926 8.32652 15.3859 8.61476C15.1792 8.90301 14.902 9.11514 14.5539 9.25111C14.2058 9.38707 13.8196 9.45778 13.39 9.45778ZM13.3629 6.52091C13.6946 6.52091 13.972 6.44475 14.2004 6.2979C14.4234 6.14562 14.5973 5.9281 14.717 5.6453C14.8366 5.36249 14.8912 5.0253 14.8912 4.62828C14.8912 4.24757 14.8366 3.90494 14.717 3.61126C14.6027 3.31757 14.4342 3.08914 14.2058 2.92054C13.9773 2.75194 13.6946 2.67038 13.3629 2.67038C13.0148 2.67038 12.7265 2.75739 12.4926 2.93143C12.2642 3.1109 12.0901 3.34473 11.9759 3.64385C11.8617 3.93754 11.8072 4.26933 11.8072 4.62828C11.8072 5.00354 11.8618 5.32982 11.9814 5.61263C12.0956 5.89544 12.2697 6.11848 12.5035 6.28164C12.7319 6.43936 13.0202 6.52091 13.3629 6.52091ZM19.9543 7.34214V2.00144H20.7757V7.34214H19.9543ZM20.3731 1.11494C20.2099 1.11494 20.0741 1.06053 19.9599 0.951759C19.8456 0.837548 19.7859 0.707032 19.7859 0.55475C19.7859 0.402469 19.8456 0.271958 19.9599 0.163185C20.0741 0.0544128 20.2099 0 20.3731 0C20.5308 0 20.6668 0.0544128 20.781 0.163185C20.8952 0.271958 20.9552 0.402469 20.9552 0.55475C20.9552 0.707032 20.8952 0.837548 20.781 0.951759C20.6668 1.06053 20.5308 1.11494 20.3731 1.11494ZM23.098 4.1279V7.34214H22.2766V2.00144H23.0706V2.83895H23.1415C23.2666 2.56702 23.4568 2.34949 23.7125 2.18089C23.9626 2.01774 24.2944 1.93074 24.6969 1.93074C25.0613 1.93074 25.3767 2.00683 25.6486 2.15367C25.9151 2.30052 26.1273 2.52349 26.2796 2.82261C26.4319 3.12174 26.5024 3.49704 26.5024 3.94845V7.34214H25.6866V4.00282C25.6866 3.58405 25.5781 3.25777 25.3605 3.02391C25.1375 2.79005 24.8436 2.67038 24.4629 2.67038C24.1964 2.67038 23.9625 2.72474 23.7613 2.83895C23.5547 2.95316 23.3917 3.12178 23.2775 3.33932C23.1578 3.55687 23.098 3.8179 23.098 4.1279ZM31.9684 7.34214L30.3421 2.00144H31.2015L32.3545 6.09123H32.4143L33.5508 2.00144H34.4267L35.5524 6.07497H35.6121L36.7652 2.00144H37.6245L35.9982 7.34214H35.1933L34.0241 3.2414H33.9425L32.7733 7.34214H31.9684ZM38.7122 7.34214V2.00144H39.5333V7.34214H38.7122ZM39.131 1.11494C38.9678 1.11494 38.8317 1.06053 38.7175 0.951759C38.6033 0.837548 38.5436 0.707032 38.5436 0.55475C38.5436 0.402469 38.6033 0.271958 38.7175 0.163185C38.8317 0.0544128 38.9678 0 39.131 0C39.2887 0 39.4247 0.0544128 39.5389 0.163185C39.6531 0.271958 39.7128 0.402469 39.7128 0.55475C39.7128 0.707032 39.6531 0.837548 39.5389 0.951759C39.4247 1.06053 39.2887 1.11494 39.131 1.11494ZM43.3568 2.00144V2.69754H40.5887V2.00144H43.3568ZM41.3989 0.723313H42.2147V5.81386C42.2147 6.04228 42.2527 6.21636 42.318 6.33601C42.3887 6.45022 42.4757 6.52632 42.579 6.56439C42.6932 6.60246 42.8075 6.61883 42.9272 6.61883C43.0142 6.61883 43.0904 6.61338 43.1502 6.6025C43.2046 6.59162 43.2536 6.58616 43.2862 6.57528L43.4546 7.31492C43.4002 7.33668 43.3188 7.35849 43.2209 7.37481C43.123 7.402 42.9978 7.41285 42.8401 7.41285C42.6116 7.41285 42.3832 7.36389 42.1602 7.26055C41.9427 7.16266 41.7579 7.0104 41.6111 6.80917C41.4697 6.6025 41.3989 6.34686 41.3989 6.03686V0.723313ZM45.5267 4.1279V7.34214H44.7056V0.223002H45.5267V2.83895H45.5976C45.7227 2.56158 45.9075 2.34405 46.1577 2.18089C46.4133 2.01774 46.745 1.93074 47.1692 1.93074C47.5281 1.93074 47.849 2.00683 48.1209 2.15367C48.3983 2.29508 48.6104 2.51811 48.7572 2.81724C48.9095 3.11092 48.9912 3.4916 48.9912 3.94845V7.34214H48.1701V4.00282C48.1701 3.57861 48.0557 3.25232 47.8381 3.01846C47.6206 2.7846 47.3161 2.67038 46.9299 2.67038C46.6634 2.67038 46.4186 2.72474 46.2065 2.83895C45.9944 2.95316 45.8313 3.12178 45.7062 3.33932C45.5866 3.55687 45.5267 3.8179 45.5267 4.1279ZM53.6467 7.34214H52.7438L55.3545 0.223002H56.2462L58.8622 7.34214H57.9596L55.8274 1.34877H55.7733L53.6467 7.34214ZM53.9783 4.56301H57.6223V5.32444H53.9783V4.56301ZM59.8575 9.34359V2.00144H60.6516V2.84983H60.7495C60.8094 2.75738 60.8909 2.63771 60.9997 2.49631C61.1085 2.34947 61.2608 2.21896 61.462 2.10475C61.6687 1.99053 61.946 1.93074 62.294 1.93074C62.74 1.93074 63.1371 2.04495 63.4797 2.26793C63.8224 2.49635 64.0943 2.8118 64.2847 3.22513C64.475 3.63847 64.5728 4.12791 64.5728 4.68809C64.5728 5.25371 64.475 5.74316 64.2847 6.15649C64.0943 6.56983 63.8277 6.89071 63.4851 7.1137C63.1424 7.34212 62.7509 7.45089 62.3049 7.45089C61.9623 7.45089 61.6905 7.39654 61.4838 7.28233C61.2771 7.16812 61.1192 7.0376 61.005 6.89076C60.8962 6.74392 60.8094 6.6188 60.7495 6.52091H60.6789V9.34359H59.8575ZM60.6624 4.67176C60.6624 5.07422 60.7223 5.43321 60.842 5.73778C60.9616 6.04778 61.1357 6.28705 61.3587 6.46109C61.5872 6.62969 61.8645 6.71669 62.1963 6.71669C62.5389 6.71669 62.8215 6.62423 63.0554 6.44476C63.2838 6.25984 63.4579 6.01512 63.5722 5.71056C63.6918 5.39512 63.7517 5.05246 63.7517 4.67176C63.7517 4.2965 63.6917 3.9593 63.5775 3.65474C63.4633 3.35562 63.2894 3.11635 63.061 2.93687C62.8325 2.7574 62.5444 2.67038 62.1963 2.67038C61.8591 2.67038 61.5816 2.75195 61.3532 2.92598C61.1247 3.08914 60.9563 3.32302 60.8366 3.62759C60.7224 3.92671 60.6624 4.27474 60.6624 4.67176ZM65.8238 9.34359V2.00144H66.6178V2.84983H66.7156C66.7754 2.75738 66.8572 2.63771 66.966 2.49631C67.0748 2.34947 67.2268 2.21896 67.4281 2.10475C67.6347 1.99053 67.9121 1.93074 68.2547 1.93074C68.7061 1.93074 69.1031 2.04495 69.4458 2.26793C69.7884 2.49635 70.0549 2.8118 70.2507 3.22513C70.441 3.63847 70.5391 4.12791 70.5391 4.68809C70.5391 5.25371 70.441 5.74316 70.2507 6.15649C70.0549 6.56983 69.7885 6.89071 69.4513 7.1137C69.1087 7.34212 68.7172 7.45089 68.2712 7.45089C67.9286 7.45089 67.6511 7.39654 67.4498 7.28233C67.2432 7.16812 67.0801 7.0376 66.9713 6.89076C66.8625 6.74392 66.7754 6.6188 66.7156 6.52091H66.6449V9.34359H65.8238ZM66.6287 4.67176C66.6287 5.07422 66.6886 5.43321 66.8082 5.73778C66.9279 6.04778 67.0963 6.28705 67.3248 6.46109C67.5532 6.62969 67.8306 6.71669 68.1623 6.71669C68.505 6.71669 68.7877 6.62423 69.0161 6.44476C69.25 6.25984 69.4242 6.01512 69.5384 5.71056C69.6581 5.39512 69.7177 5.05246 69.7177 4.67176C69.7177 4.2965 69.658 3.9593 69.5438 3.65474C69.4295 3.35562 69.2554 3.11635 69.027 2.93687C68.7986 2.7574 68.5104 2.67038 68.1623 2.67038C67.8251 2.67038 67.5479 2.75195 67.3194 2.92598C67.091 3.08914 66.9223 3.32302 66.8027 3.62759C66.6885 3.92671 66.6287 4.27474 66.6287 4.67176ZM72.6112 0.223002V7.34214H71.7898V0.223002H72.6112ZM76.3529 7.45089C75.8363 7.45089 75.3956 7.34212 75.0204 7.1137C74.6505 6.88528 74.3625 6.56445 74.1613 6.15112C73.96 5.74322 73.862 5.25917 73.862 4.71531C73.862 4.16601 73.96 3.68739 74.1613 3.26862C74.3625 2.84984 74.6452 2.5235 75.0042 2.28964C75.3631 2.05034 75.7872 1.93074 76.2658 1.93074C76.5486 1.93074 76.8206 1.97969 77.0925 2.07215C77.3644 2.1646 77.6094 2.31686 77.8324 2.52353C78.0553 2.7302 78.2348 3.00213 78.3653 3.34477C78.4958 3.6874 78.561 4.10614 78.561 4.60106V4.94914H74.4441V4.24215H77.7288C77.7288 3.93759 77.6692 3.67104 77.5495 3.43718C77.4299 3.19788 77.261 3.01302 77.0381 2.87705C76.8205 2.73565 76.5649 2.67038 76.2658 2.67038C75.9395 2.67038 75.6567 2.75194 75.4174 2.9151C75.1835 3.07282 74.9986 3.2795 74.8735 3.54055C74.7484 3.79617 74.6834 4.07355 74.6834 4.36723V4.84039C74.6834 5.24285 74.754 5.58548 74.89 5.86285C75.0314 6.14022 75.2272 6.35229 75.4774 6.49913C75.7276 6.64597 76.0212 6.71669 76.3529 6.71669C76.565 6.71669 76.7607 6.6841 76.9348 6.62427C77.1088 6.56445 77.2613 6.47199 77.3918 6.3469C77.5169 6.22181 77.6148 6.06948 77.6855 5.88456L78.4795 6.10212C78.3979 6.37405 78.2565 6.60795 78.0607 6.81461C77.8595 7.01584 77.6201 7.17356 77.3265 7.28777C77.0382 7.39654 76.7119 7.45089 76.3529 7.45089Z" fill="black"/>
</svg>
