<svg width="62" height="8" viewBox="0 0 62 8" fill="none" xmlns="http://www.w3.org/2000/svg">
<path d="M4.88945 2.84439C4.88945 3.42632 4.78608 3.93207 4.57397 4.35628C4.36186 4.78593 4.07356 5.11228 3.70374 5.3407C3.33935 5.57456 2.9151 5.68878 2.44738 5.68878C1.97422 5.68878 1.55554 5.57456 1.18572 5.3407C0.815889 5.11228 0.527589 4.78593 0.315483 4.35628C0.108815 3.93207 0 3.42632 0 2.84439C0 2.26246 0.108815 1.75664 0.315483 1.32699C0.527589 0.90278 0.815889 0.576436 1.18572 0.348014C1.55554 0.114153 1.97422 0 2.44738 0C2.9151 0 3.33935 0.114153 3.70374 0.348014C4.07356 0.576436 4.36186 0.90278 4.57397 1.32699C4.78608 1.75664 4.88945 2.26246 4.88945 2.84439ZM4.24202 2.84439C4.24202 2.36579 4.16047 1.95791 4.00275 1.63159C3.8396 1.29983 3.62752 1.04965 3.35559 0.881055C3.08366 0.712457 2.77914 0.625389 2.44738 0.625389C2.11019 0.625389 1.80553 0.712457 1.5336 0.881055C1.26167 1.04965 1.04959 1.29983 0.886432 1.63159C0.728712 1.95791 0.652741 2.36579 0.652741 2.84439C0.652741 3.32299 0.728712 3.72544 0.886432 4.05719C1.04959 4.38895 1.26167 4.63913 1.5336 4.80773C1.80553 4.97632 2.11019 5.06333 2.44738 5.06333C2.77914 5.06333 3.08366 4.97632 3.35559 4.80773C3.62752 4.63913 3.8396 4.38895 4.00275 4.05719C4.16047 3.72544 4.24202 3.32299 4.24202 2.84439ZM5.92805 7.16807V1.45751H6.54813V2.12101H6.62434C6.66785 2.04487 6.73304 1.95785 6.82006 1.84364C6.90164 1.72942 7.02137 1.63156 7.17909 1.53911C7.33681 1.45209 7.55432 1.40314 7.82626 1.40314C8.17433 1.40314 8.47873 1.49015 8.75066 1.66963C9.01716 1.84366 9.2239 2.08839 9.37074 2.40927C9.52302 2.73015 9.59912 3.11084 9.59912 3.54593C9.59912 3.98646 9.52302 4.36721 9.37074 4.68809C9.2239 5.00897 9.01716 5.25915 8.75066 5.43863C8.48417 5.61266 8.17964 5.69967 7.83157 5.69967C7.56507 5.69967 7.35301 5.65617 7.19529 5.56915C7.03213 5.47669 6.90695 5.37332 6.82537 5.25911C6.73835 5.1449 6.66785 5.05243 6.62434 4.97629H6.5699V7.16807H5.92805ZM6.55901 3.53511C6.55901 3.85055 6.60252 4.12787 6.69498 4.36717C6.78744 4.60646 6.92326 4.79139 7.0973 4.92736C7.27677 5.05789 7.49443 5.12859 7.75004 5.12859C8.01653 5.12859 8.23963 5.05788 8.41367 4.91647C8.59858 4.77507 8.72911 4.57931 8.82157 4.34001C8.91402 4.10071 8.95753 3.83423 8.95753 3.53511C8.95753 3.24142 8.91402 2.98033 8.82157 2.74647C8.73455 2.5126 8.60389 2.32224 8.41898 2.18627C8.24495 2.05031 8.01653 1.9796 7.75004 1.9796C7.48899 1.9796 7.27146 2.04492 7.09199 2.17545C6.91795 2.30598 6.782 2.48539 6.69498 2.72469C6.60252 2.95311 6.55901 3.2251 6.55901 3.53511ZM12.3131 5.69967C11.9107 5.69967 11.5679 5.61266 11.2743 5.43318C10.986 5.25371 10.7629 5.00897 10.6106 4.68809C10.4529 4.36721 10.3769 3.99192 10.3769 3.5677C10.3769 3.14349 10.4529 2.76825 10.6106 2.44194C10.7629 2.11562 10.986 1.86543 11.2634 1.68052C11.5462 1.4956 11.8725 1.40314 12.2478 1.40314C12.4653 1.40314 12.6775 1.44119 12.8896 1.51189C13.0963 1.58803 13.2919 1.70225 13.4659 1.86541C13.6345 2.02313 13.776 2.2407 13.8794 2.50175C13.9827 2.76825 14.0315 3.09452 14.0315 3.48067V3.7526H10.8284V3.20329H13.3844C13.3844 2.96399 13.3356 2.75737 13.2431 2.57246C13.1506 2.38755 13.0201 2.24611 12.8461 2.13734C12.6775 2.03401 12.4762 1.9796 12.2478 1.9796C11.9922 1.9796 11.7747 2.03948 11.5897 2.17001C11.4048 2.28966 11.2634 2.45282 11.1601 2.65405C11.0622 2.85528 11.0132 3.06735 11.0132 3.29577V3.66563C11.0132 3.98107 11.0675 4.24755 11.1763 4.46509C11.285 4.6772 11.4375 4.84581 11.6333 4.96002C11.8291 5.0688 12.0521 5.12859 12.3131 5.12859C12.4817 5.12859 12.6286 5.10139 12.7646 5.05788C12.9005 5.00893 13.0201 4.93278 13.118 4.84032C13.2214 4.74243 13.2973 4.62282 13.3517 4.47598L13.9665 4.64998C13.9012 4.85665 13.7924 5.04157 13.6401 5.19929C13.4878 5.35701 13.2973 5.48213 13.0689 5.56915C12.8459 5.65617 12.5905 5.69967 12.3131 5.69967ZM15.6414 3.11632V5.61263H14.9998V1.45751H15.6198V2.11019H15.674C15.7719 1.89808 15.9188 1.72945 16.1146 1.59892C16.3158 1.4684 16.5715 1.40314 16.8815 1.40314C17.1643 1.40314 17.409 1.46294 17.6211 1.57715C17.8332 1.69136 17.9964 1.86544 18.1161 2.0993C18.2303 2.32772 18.29 2.6214 18.29 2.97491V5.61263H17.6538V3.0184C17.6538 2.69208 17.5669 2.43645 17.3983 2.25698C17.2297 2.07206 16.9957 1.9796 16.702 1.9796C16.4953 1.9796 16.316 2.02317 16.1528 2.11019C15.9951 2.19721 15.8698 2.32771 15.7773 2.49631C15.6849 2.66491 15.6414 2.87158 15.6414 3.11632ZM22.8204 5.71056C22.554 5.71056 22.3202 5.6616 22.1026 5.5637C21.8905 5.46037 21.7165 5.3135 21.5914 5.12859C21.4664 4.9328 21.401 4.70436 21.401 4.43243C21.401 4.19313 21.4499 4.00281 21.5423 3.85597C21.6348 3.70369 21.7598 3.58946 21.9176 3.50244C22.0753 3.42086 22.2493 3.35561 22.4396 3.3121C22.63 3.2686 22.8204 3.23593 23.0162 3.21418C23.2663 3.18155 23.4732 3.15435 23.6309 3.13803C23.7887 3.12172 23.9028 3.08913 23.9735 3.05106C24.0496 3.00755 24.0877 2.93684 24.0877 2.8335V2.81173C24.0877 2.54523 24.0115 2.33856 23.8646 2.19172C23.7232 2.03943 23.5003 1.96878 23.2066 1.96878C22.902 1.96878 22.6681 2.03404 22.4941 2.17001C22.32 2.30053 22.2004 2.44189 22.1297 2.59417L21.5205 2.37668C21.6293 2.1265 21.7763 1.93067 21.9558 1.78926C22.1353 1.64786 22.3364 1.55 22.5485 1.49018C22.7661 1.43579 22.9781 1.40314 23.1848 1.40314C23.3208 1.40314 23.4731 1.41944 23.6471 1.45207C23.8212 1.4847 23.9899 1.54996 24.153 1.64785C24.3162 1.74575 24.4521 1.89262 24.5609 2.08841C24.6697 2.2842 24.724 2.54523 24.724 2.87699V5.61263H24.0877V5.05244H24.055C24.0115 5.13946 23.9354 5.23737 23.8375 5.3407C23.7342 5.44403 23.6035 5.53104 23.435 5.60174C23.2664 5.67245 23.0597 5.71056 22.8204 5.71056ZM22.9184 5.13403C23.1686 5.13403 23.3807 5.08507 23.5547 4.98718C23.7288 4.88928 23.8593 4.75878 23.9517 4.6065C24.0387 4.44878 24.0877 4.28016 24.0877 4.11157V3.52422C24.0605 3.55685 24.0006 3.58944 23.9082 3.61663C23.8157 3.63839 23.7123 3.66014 23.5927 3.68189C23.4785 3.69821 23.3589 3.71457 23.2501 3.73089C23.1413 3.74177 23.0488 3.75261 22.9835 3.76349C22.8149 3.78524 22.6627 3.81791 22.5159 3.86685C22.3745 3.9158 22.2603 3.98645 22.1733 4.08435C22.0863 4.1768 22.0426 4.30193 22.0426 4.46509C22.0426 4.68807 22.1243 4.85663 22.2875 4.97085C22.4506 5.07962 22.6628 5.13403 22.9184 5.13403ZM26.5242 3.11632V5.61263H25.8879V1.45751H26.5024V2.11019H26.5568C26.6547 1.89808 26.8015 1.72945 27.0027 1.59892C27.1985 1.4684 27.4542 1.40314 27.7697 1.40314C28.0525 1.40314 28.2971 1.46294 28.5092 1.57715C28.7213 1.69136 28.8844 1.86544 28.9987 2.0993C29.1183 2.32772 29.1782 2.6214 29.1782 2.97491V5.61263H28.5366V3.0184C28.5366 2.69208 28.4548 2.43645 28.2862 2.25698C28.1121 2.07206 27.8839 1.9796 27.5848 1.9796C27.3836 1.9796 27.1987 2.02317 27.041 2.11019C26.8832 2.19721 26.7579 2.32771 26.6655 2.49631C26.573 2.66491 26.5242 2.87158 26.5242 3.11632ZM31.9084 5.69967C31.5657 5.69967 31.2613 5.61266 30.9949 5.43863C30.7284 5.25915 30.5215 5.00897 30.3692 4.68809C30.2224 4.36721 30.1464 3.98646 30.1464 3.54593C30.1464 3.11084 30.2224 2.73015 30.3692 2.40927C30.5215 2.08839 30.7284 1.84366 30.9949 1.66963C31.2613 1.49015 31.5712 1.40314 31.9193 1.40314C32.1912 1.40314 32.4034 1.45209 32.5611 1.53911C32.7188 1.63156 32.8439 1.72942 32.9255 1.84364C33.007 1.95785 33.0722 2.04487 33.1212 2.12101H33.1756V0.0760823H33.8119V5.61263H33.1974V4.97629H33.1212C33.0722 5.05243 33.0069 5.1449 32.9199 5.25911C32.8329 5.37332 32.7134 5.47669 32.5502 5.56915C32.3925 5.65617 32.1749 5.69967 31.9084 5.69967ZM31.9955 5.12859C32.2511 5.12859 32.4685 5.05789 32.6479 4.92736C32.822 4.79139 32.9581 4.60646 33.0505 4.36717C33.143 4.12787 33.1865 3.85055 33.1865 3.53511C33.1865 3.2251 33.143 2.95311 33.0505 2.72469C32.9635 2.48539 32.8276 2.30598 32.6535 2.17545C32.4741 2.04492 32.2565 1.9796 31.9955 1.9796C31.729 1.9796 31.5004 2.05031 31.321 2.18627C31.1415 2.32224 31.0057 2.5126 30.9186 2.74647C30.8316 2.98033 30.788 3.24142 30.788 3.53511C30.788 3.83423 30.8316 4.10071 30.9186 4.34001C31.0111 4.57931 31.1471 4.77507 31.3265 4.91647C31.506 5.05788 31.729 5.12859 31.9955 5.12859ZM39.827 3.91578V1.45751H40.4689V5.61263H39.827V4.91103H39.7891C39.6912 5.12313 39.5387 5.29717 39.332 5.44945C39.1254 5.59629 38.8699 5.66701 38.5545 5.66701C38.2934 5.66701 38.065 5.61265 37.8638 5.49844C37.6571 5.37879 37.4994 5.21015 37.3852 4.97629C37.271 4.74243 37.211 4.45419 37.211 4.10068V1.45751H37.8529V4.05719C37.8529 4.35632 37.9344 4.60103 38.103 4.78051C38.2771 4.95998 38.4946 5.05244 38.7611 5.05244C38.9188 5.05244 39.0766 5.00894 39.2452 4.92736C39.4084 4.84578 39.5496 4.72073 39.6584 4.55757C39.7726 4.38897 39.827 4.17684 39.827 3.91578ZM41.6381 7.16807V1.45751H42.2526V2.12101H42.3289C42.3778 2.04487 42.443 1.95785 42.5246 1.84364C42.6062 1.72942 42.7313 1.63156 42.8836 1.53911C43.0468 1.45209 43.2588 1.40314 43.5308 1.40314C43.8788 1.40314 44.189 1.49015 44.4554 1.66963C44.7219 1.84366 44.9286 2.08839 45.0808 2.40927C45.2277 2.73015 45.3036 3.11084 45.3036 3.54593C45.3036 3.98646 45.2277 4.36721 45.0808 4.68809C44.9286 5.00897 44.7219 5.25915 44.4554 5.43863C44.1944 5.61266 43.8843 5.69967 43.5417 5.69967C43.2752 5.69967 43.0575 5.65617 42.8998 5.56915C42.7367 5.47669 42.6172 5.37332 42.5302 5.25911C42.4431 5.1449 42.3778 5.05243 42.3289 4.97629H42.2744V7.16807H41.6381ZM42.2635 3.53511C42.2635 3.85055 42.3125 4.12787 42.3995 4.36717C42.492 4.60646 42.6281 4.79139 42.8021 4.92736C42.9816 5.05789 43.1989 5.12859 43.4546 5.12859C43.7211 5.12859 43.944 5.05788 44.1235 4.91647C44.303 4.77507 44.4391 4.57931 44.5261 4.34001C44.6185 4.10071 44.6674 3.83423 44.6674 3.53511C44.6674 3.24142 44.6184 2.98033 44.5314 2.74647C44.4389 2.5126 44.3086 2.32224 44.1291 2.18627C43.9496 2.05031 43.7265 1.9796 43.4546 1.9796C43.1935 1.9796 42.9761 2.04492 42.8021 2.17545C42.6226 2.30598 42.4865 2.48539 42.3995 2.72469C42.307 2.95311 42.2635 3.2251 42.2635 3.53511ZM46.3643 5.61263V0.0760823H47.0006V2.12101H47.055C47.1039 2.04487 47.1691 1.95785 47.2507 1.84364C47.3323 1.72942 47.4575 1.63156 47.6097 1.53911C47.7729 1.45209 47.985 1.40314 48.2569 1.40314C48.605 1.40314 48.9151 1.49015 49.1816 1.66963C49.4481 1.84366 49.6547 2.08839 49.807 2.40927C49.9538 2.73015 50.03 3.11084 50.03 3.54593C50.03 3.98646 49.9538 4.36721 49.807 4.68809C49.6547 5.00897 49.4481 5.25915 49.1816 5.43863C48.9205 5.61266 48.6104 5.69967 48.2678 5.69967C48.0013 5.69967 47.7837 5.65617 47.6259 5.56915C47.4628 5.47669 47.3433 5.37332 47.2563 5.25911C47.1693 5.1449 47.1039 5.05243 47.055 4.97629H46.9788V5.61263H46.3643ZM46.9897 3.53511C46.9897 3.85055 47.0386 4.12787 47.1256 4.36717C47.2181 4.60646 47.3541 4.79139 47.5335 4.92736C47.7076 5.05789 47.9251 5.12859 48.1807 5.12859C48.4472 5.12859 48.6702 5.05788 48.8496 4.91647C49.0291 4.77507 49.1652 4.57931 49.2522 4.34001C49.3447 4.10071 49.3935 3.83423 49.3935 3.53511C49.3935 3.24142 49.3446 2.98033 49.2575 2.74647C49.1651 2.5126 49.0347 2.32224 48.8552 2.18627C48.6757 2.05031 48.4526 1.9796 48.1807 1.9796C47.9196 1.9796 47.7023 2.04492 47.5282 2.17545C47.3487 2.30598 47.2181 2.48539 47.1256 2.72469C47.0332 2.95311 46.9897 3.2251 46.9897 3.53511ZM52.7494 5.69967C52.3469 5.69967 52.0042 5.61266 51.7105 5.43318C51.4222 5.25371 51.1993 5.00897 51.0415 4.68809C50.8893 4.36721 50.8132 3.99192 50.8132 3.5677C50.8132 3.14349 50.8893 2.76825 51.0415 2.44194C51.1993 2.11562 51.4168 1.86543 51.6996 1.68052C51.977 1.4956 52.3088 1.40314 52.684 1.40314C52.8961 1.40314 53.1136 1.44119 53.3203 1.51189C53.5324 1.58803 53.7282 1.70225 53.8968 1.86541C54.0709 2.02313 54.2121 2.2407 54.31 2.50175C54.4134 2.76825 54.4678 3.09452 54.4678 3.48067V3.7526H51.2644V3.20329H53.8153C53.8153 2.96399 53.7718 2.75737 53.6793 2.57246C53.5869 2.38755 53.4509 2.24611 53.2823 2.13734C53.1137 2.03401 52.9124 1.9796 52.684 1.9796C52.4284 1.9796 52.2053 2.03948 52.0204 2.17001C51.8409 2.28966 51.6942 2.45282 51.5963 2.65405C51.4984 2.85528 51.4494 3.06735 51.4494 3.29577V3.66563C51.4494 3.98107 51.5037 4.24755 51.6125 4.46509C51.7213 4.6772 51.8737 4.84581 52.0695 4.96002C52.2653 5.0688 52.4883 5.12859 52.7494 5.12859C52.9125 5.12859 53.0646 5.10139 53.2005 5.05788C53.3365 5.00893 53.4564 4.93278 53.5543 4.84032C53.6522 4.74243 53.7337 4.62282 53.7826 4.47598L54.4025 4.64998C54.3372 4.85665 54.2286 5.04157 54.0763 5.19929C53.9186 5.35701 53.7336 5.48213 53.5051 5.56915C53.2821 5.65617 53.0267 5.69967 52.7494 5.69967ZM56.6597 5.71056C56.3986 5.71056 56.1592 5.6616 55.9416 5.5637C55.7295 5.46037 55.5555 5.3135 55.4304 5.12859C55.3053 4.9328 55.24 4.70436 55.24 4.43243C55.24 4.19313 55.2891 4.00281 55.3816 3.85597C55.4795 3.70369 55.6045 3.58946 55.7568 3.50244C55.9145 3.42086 56.0885 3.35561 56.2789 3.3121C56.4692 3.2686 56.6596 3.23593 56.8554 3.21418C57.1056 3.18155 57.3122 3.15435 57.4699 3.13803C57.6276 3.12172 57.7418 3.08913 57.8125 3.05106C57.8886 3.00755 57.9267 2.93684 57.9267 2.8335V2.81173C57.9267 2.54523 57.8507 2.33856 57.7039 2.19172C57.5625 2.03943 57.3448 1.96878 57.0511 1.96878C56.7466 1.96878 56.5074 2.03404 56.3333 2.17001C56.1593 2.30053 56.0397 2.44189 55.969 2.59417L55.3598 2.37668C55.4686 2.1265 55.6153 1.93067 55.7948 1.78926C55.9742 1.64786 56.1757 1.55 56.3878 1.49018C56.6053 1.43579 56.8172 1.40314 57.0294 1.40314C57.1599 1.40314 57.3123 1.41944 57.4864 1.45207C57.6604 1.4847 57.8288 1.54996 57.992 1.64785C58.1552 1.74575 58.2911 1.89262 58.3999 2.08841C58.5087 2.2842 58.5632 2.54523 58.5632 2.87699V5.61263H57.9267V5.05244H57.8943C57.8508 5.13946 57.7744 5.23737 57.6765 5.3407C57.5732 5.44403 57.4428 5.53104 57.2742 5.60174C57.1056 5.67245 56.899 5.71056 56.6597 5.71056ZM56.7574 5.13403C57.0076 5.13403 57.2197 5.08507 57.3937 4.98718C57.5677 4.88928 57.7037 4.75878 57.7907 4.6065C57.8777 4.44878 57.9267 4.28016 57.9267 4.11157V3.52422C57.8995 3.55685 57.8399 3.58944 57.7474 3.61663C57.655 3.63839 57.5516 3.66014 57.4319 3.68189C57.3177 3.69821 57.2036 3.71457 57.0894 3.73089C56.9806 3.74177 56.888 3.75261 56.8227 3.76349C56.6541 3.78524 56.5019 3.81791 56.3551 3.86685C56.2137 3.9158 56.0995 3.98645 56.0125 4.08435C55.9255 4.1768 55.8819 4.30193 55.8819 4.46509C55.8819 4.68807 55.9636 4.85663 56.1267 4.97085C56.2899 5.07962 56.5018 5.13403 56.7574 5.13403ZM61.5327 1.45751V2.00138H59.379V1.45751H61.5327ZM60.0097 0.46227H60.646V4.42161C60.646 4.60108 60.6734 4.73705 60.7278 4.8295C60.7767 4.91652 60.8472 4.97632 60.9288 5.00895C61.0158 5.03615 61.1028 5.05244 61.2007 5.05244C61.266 5.05244 61.3259 5.04699 61.3694 5.04155C61.4183 5.03067 61.451 5.02528 61.4782 5.01984L61.6086 5.59086C61.5651 5.60717 61.5055 5.62354 61.4294 5.63985C61.3532 5.65617 61.2499 5.66701 61.1357 5.66701C60.9508 5.66701 60.7767 5.62896 60.6027 5.55281C60.4341 5.47124 60.2925 5.35701 60.1783 5.19385C60.0641 5.03613 60.0097 4.83491 60.0097 4.59561V0.46227Z" fill="black"/>
</svg>
