<svg width="22" height="7" viewBox="0 0 22 7" fill="none" xmlns="http://www.w3.org/2000/svg">
<path d="M5.33532 2.0667H4.56839C4.52488 1.84372 4.44878 1.65333 4.33457 1.48473C4.22036 1.31614 4.08439 1.18016 3.92667 1.06595C3.76895 0.951738 3.58949 0.864731 3.39914 0.804906C3.20335 0.75052 3.00219 0.717936 2.79008 0.717936C2.40938 0.717936 2.06122 0.815852 1.75122 1.01164C1.44122 1.20199 1.19656 1.49015 1.01164 1.86541C0.832168 2.24068 0.739711 2.70299 0.739711 3.25229C0.739711 3.80159 0.832168 4.2639 1.01164 4.63916C1.19656 5.01987 1.44122 5.30272 1.75122 5.49851C2.06122 5.68886 2.40938 5.78677 2.79008 5.78677C3.00219 5.78677 3.20335 5.75949 3.39914 5.69967C3.58949 5.64528 3.76895 5.55828 3.92667 5.44407C4.08439 5.32986 4.22036 5.18844 4.33457 5.01984C4.44878 4.85124 4.52488 4.66099 4.56839 4.438H5.33532C5.28094 4.76432 5.17212 5.05249 5.01984 5.3081C4.86756 5.56372 4.68262 5.78124 4.4542 5.96071C4.22578 6.13475 3.97022 6.27071 3.69285 6.36316C3.41004 6.45562 3.11096 6.50457 2.79008 6.50457C2.25166 6.50457 1.77298 6.37406 1.34877 6.10757C0.929994 5.84651 0.598201 5.47134 0.358901 4.98187C0.119602 4.49783 0 3.92124 0 3.25229C0 2.58334 0.119602 2.00688 0.358901 1.52284C0.598201 1.0388 0.929994 0.663502 1.34877 0.397009C1.77298 0.135955 2.25166 0 2.79008 0C3.11096 0 3.41004 0.0489529 3.69285 0.14141C3.97022 0.233866 4.22578 0.369832 4.4542 0.549306C4.68262 0.728781 4.86756 0.940856 5.01984 1.19647C5.17212 1.45209 5.28094 1.74039 5.33532 2.0667ZM8.40265 6.51546C7.97844 6.51546 7.60327 6.41223 7.27695 6.211C6.95607 6.00433 6.70582 5.72149 6.52091 5.3571C6.34143 4.98727 6.25442 4.55756 6.25442 4.06808C6.25442 3.57317 6.34143 3.14358 6.52091 2.77375C6.70582 2.40393 6.95607 2.12107 7.27695 1.91441C7.60327 1.71318 7.97844 1.60981 8.40265 1.60981C8.8323 1.60981 9.2076 1.71318 9.52848 1.91441C9.8548 2.12107 10.1049 2.40393 10.2844 2.77375C10.4639 3.14358 10.5563 3.57317 10.5563 4.06808C10.5563 4.55756 10.4639 4.98727 10.2844 5.3571C10.1049 5.72149 9.8548 6.00433 9.52848 6.211C9.2076 6.41223 8.8323 6.51546 8.40265 6.51546ZM8.40265 5.86285C8.72897 5.86285 9.00089 5.77586 9.20756 5.6127C9.41966 5.4441 9.572 5.22658 9.67534 4.95465C9.77867 4.68271 9.82763 4.38896 9.82763 4.06808C9.82763 3.75264 9.77867 3.45358 9.67534 3.18165C9.572 2.90972 9.41966 2.68675 9.20756 2.51815C9.00089 2.34956 8.72897 2.26255 8.40265 2.26255C8.08177 2.26255 7.80985 2.34956 7.60319 2.51815C7.39108 2.68675 7.23344 2.90972 7.13554 3.18165C7.03221 3.45358 6.98324 3.75264 6.98324 4.06808C6.98324 4.38896 7.03221 4.68271 7.13554 4.95465C7.23344 5.22658 7.39108 5.4441 7.60319 5.6127C7.80985 5.77586 8.08177 5.86285 8.40265 5.86285ZM13.4606 6.51546C13.0636 6.51546 12.7155 6.41754 12.4164 6.21631C12.1119 6.01508 11.8725 5.73237 11.7039 5.36254C11.5299 4.99272 11.4483 4.55755 11.4483 4.05719C11.4483 3.55684 11.5299 3.12725 11.7039 2.75742C11.8725 2.39303 12.1119 2.11019 12.4164 1.90896C12.721 1.70773 13.0745 1.60981 13.4715 1.60981C13.7815 1.60981 14.0263 1.65878 14.2058 1.76211C14.3852 1.86544 14.5266 1.97973 14.6191 2.11026C14.717 2.23534 14.7931 2.34403 14.8475 2.42561H14.9072V0.087103H15.636V6.4176H14.9344V5.68878H14.8475C14.7931 5.7758 14.717 5.88462 14.6191 6.01515C14.5158 6.14568 14.3798 6.25983 14.1949 6.36316C14.01 6.4665 13.7652 6.51546 13.4606 6.51546ZM13.5585 5.86285C13.8521 5.86285 14.1024 5.78676 14.3036 5.63447C14.5048 5.47675 14.657 5.26455 14.7604 4.99262C14.8691 4.72069 14.9181 4.40525 14.9181 4.04631C14.9181 3.68736 14.8691 3.37738 14.7658 3.11632C14.6625 2.84439 14.5103 2.63778 14.3091 2.49093C14.1078 2.33865 13.8576 2.26255 13.5585 2.26255C13.2539 2.26255 12.9929 2.3441 12.7862 2.50182C12.585 2.65954 12.4327 2.87161 12.3293 3.14354C12.226 3.41003 12.177 3.70911 12.177 4.04631C12.177 4.3835 12.226 4.68816 12.3293 4.96553C12.4381 5.23746 12.5904 5.45498 12.7917 5.61814C12.9983 5.7813 13.2539 5.86285 13.5585 5.86285ZM19.0624 6.51546C18.6056 6.51546 18.214 6.41767 17.8823 6.211C17.5505 6.00977 17.2948 5.72693 17.1153 5.36254C16.9413 4.99272 16.8489 4.56845 16.8489 4.07897C16.8489 3.59493 16.9413 3.16535 17.1153 2.79553C17.2948 2.4257 17.5451 2.13196 17.8659 1.92529C18.1868 1.71319 18.562 1.60981 18.9916 1.60981C19.2364 1.60981 19.4812 1.64787 19.7205 1.73489C19.9652 1.81647 20.1827 1.94712 20.3785 2.13203C20.5797 2.31694 20.7375 2.5616 20.8517 2.86617C20.9714 3.16529 21.0311 3.54058 21.0311 3.98111V4.29115H17.3709V3.66018H20.2861C20.2861 3.39369 20.2317 3.15449 20.1284 2.94238C20.0196 2.73571 19.8727 2.56703 19.6769 2.44738C19.4811 2.32773 19.2527 2.26255 18.9916 2.26255C18.698 2.26255 18.4478 2.33864 18.2357 2.48005C18.0236 2.62145 17.8658 2.80637 17.7516 3.0348C17.6374 3.26322 17.5831 3.51332 17.5831 3.77437V4.19316C17.5831 4.55211 17.6429 4.85677 17.7679 5.10694C17.893 5.35168 18.0672 5.54205 18.2902 5.66714C18.5131 5.79766 18.7687 5.86285 19.0624 5.86285C19.2528 5.86285 19.4268 5.83571 19.5845 5.78133C19.7422 5.72694 19.8727 5.64526 19.9869 5.53648C20.1012 5.42227 20.1882 5.28643 20.248 5.11783L20.955 5.31899C20.8789 5.55829 20.7538 5.76491 20.5798 5.94982C20.4058 6.1293 20.1881 6.26528 19.9325 6.36861C19.6769 6.4665 19.3833 6.51546 19.0624 6.51546Z" fill="black"/>
</svg>
