<svg width="4" height="6" viewBox="0 0 4 6" fill="none" xmlns="http://www.w3.org/2000/svg">
<path d="M0.973535 3.11632V5.55826H0V0H0.951759V2.0993H1.00062C1.09852 1.86 1.24553 1.67507 1.44676 1.53911C1.65343 1.40314 1.91431 1.33788 2.22431 1.33788C2.51256 1.33788 2.76294 1.39775 2.97504 1.5174C3.18715 1.63705 3.35557 1.81651 3.46978 2.05037C3.58943 2.28423 3.6493 2.56701 3.6493 2.90421V5.55826H2.67576V3.0565C2.67576 2.7737 2.60511 2.55618 2.45827 2.4039C2.31686 2.24618 2.12116 2.16456 1.86554 2.16456C1.69151 2.16456 1.53917 2.20261 1.40321 2.27875C1.26724 2.35489 1.16387 2.46372 1.08773 2.60512C1.01158 2.74653 0.973535 2.91509 0.973535 3.11632Z" fill="black"/>
</svg>
