<svg width="96" height="10" viewBox="0 0 96 10" fill="none" xmlns="http://www.w3.org/2000/svg">
<path d="M0 7.45089V0.331748H0.859345V6.68402H4.17138V7.45089H0ZM7.56521 7.55964C7.08117 7.55964 6.65692 7.44542 6.29797 7.217C5.93358 6.98858 5.65074 6.66775 5.44951 6.25442C5.24285 5.84108 5.14492 5.36247 5.14492 4.80773C5.14492 4.25299 5.24285 3.76892 5.44951 3.35014C5.65074 2.93681 5.93358 2.61592 6.29797 2.3875C6.65692 2.15364 7.08117 2.03948 7.56521 2.03948C8.04381 2.03948 8.46807 2.15364 8.83245 2.3875C9.1914 2.61592 9.47411 2.93681 9.67534 3.35014C9.882 3.76892 9.98524 4.25299 9.98524 4.80773C9.98524 5.36247 9.882 5.84108 9.67534 6.25442C9.47411 6.66775 9.1914 6.98858 8.83245 7.217C8.46807 7.44542 8.04381 7.55964 7.56521 7.55964ZM7.56521 6.82543C7.9296 6.82543 8.23398 6.73297 8.46784 6.54261C8.7017 6.3577 8.8813 6.10753 8.99551 5.80297C9.10428 5.49841 9.16414 5.16667 9.16414 4.80773C9.16414 4.45422 9.10428 4.11704 8.99551 3.81248C8.8813 3.50248 8.7017 3.2523 8.46784 3.06195C8.23398 2.8716 7.9296 2.77913 7.56521 2.77913C7.20082 2.77913 6.89618 2.8716 6.66232 3.06195C6.42302 3.2523 6.24913 3.50248 6.13492 3.81248C6.02071 4.11704 5.96629 4.45422 5.96629 4.80773C5.96629 5.16667 6.02071 5.49841 6.13492 5.80297C6.24913 6.10753 6.42302 6.3577 6.66232 6.54261C6.89618 6.73297 7.20082 6.82543 7.56521 6.82543ZM13.39 9.56652C12.9929 9.56652 12.6558 9.51212 12.3676 9.41422C12.0848 9.31089 11.8454 9.18037 11.6551 9.01722C11.4702 8.85406 11.3177 8.68004 11.2089 8.49513L11.8617 8.03279C11.9378 8.13069 12.0303 8.2449 12.1445 8.36998C12.2587 8.49507 12.411 8.6039 12.6068 8.69636C12.8081 8.79425 13.0691 8.84321 13.39 8.84321C13.825 8.84321 14.1784 8.73983 14.4612 8.52773C14.7386 8.32106 14.88 7.99478 14.88 7.54881V6.46109H14.8094C14.7495 6.55898 14.6627 6.68403 14.5539 6.82543C14.4451 6.96684 14.2873 7.09197 14.0807 7.20618C13.874 7.31495 13.6021 7.3693 13.254 7.3693C12.8189 7.3693 12.4327 7.26599 12.0901 7.05932C11.7529 6.8581 11.4811 6.55897 11.2798 6.17283C11.084 5.78124 10.9861 5.30809 10.9861 4.75335C10.9861 4.20405 11.0839 3.73089 11.2743 3.32299C11.4646 2.91509 11.7365 2.59966 12.0792 2.37668C12.4218 2.15369 12.8189 2.03948 13.2649 2.03948C13.613 2.03948 13.8903 2.09928 14.0916 2.21349C14.2982 2.3277 14.456 2.45821 14.5648 2.60506C14.679 2.74646 14.766 2.86612 14.8258 2.95858H14.9074V2.11019H15.7014V7.60319C15.7014 8.06003 15.598 8.43526 15.3859 8.72351C15.1792 9.01176 14.902 9.22389 14.5539 9.35985C14.2058 9.49582 13.8196 9.56652 13.39 9.56652ZM13.3626 6.62965C13.6944 6.62965 13.9718 6.55349 14.2002 6.40665C14.4232 6.25437 14.5973 6.03685 14.717 5.75404C14.8366 5.47123 14.8909 5.13404 14.8909 4.73702C14.8909 4.35632 14.8366 4.01369 14.717 3.72C14.6027 3.42631 14.4342 3.19788 14.2058 3.02928C13.9773 2.86069 13.6998 2.77913 13.3626 2.77913C13.0145 2.77913 12.7265 2.86614 12.4926 3.04017C12.2642 3.21965 12.0901 3.45347 11.9759 3.7526C11.8617 4.04628 11.8072 4.37807 11.8072 4.73702C11.8072 5.11229 11.8618 5.43857 11.9814 5.72138C12.1011 6.00419 12.2697 6.22723 12.5035 6.39038C12.7319 6.5481 13.02 6.62965 13.3626 6.62965ZM19.9543 7.45089V2.11019H20.7757V7.45089H19.9543ZM20.3731 1.22369C20.2099 1.22369 20.0741 1.16928 19.9599 1.06051C19.8456 0.946294 19.7857 0.815778 19.7857 0.663496C19.7857 0.511215 19.8456 0.380704 19.9599 0.271931C20.0741 0.163159 20.2099 0.108746 20.3731 0.108746C20.5308 0.108746 20.6668 0.163159 20.781 0.271931C20.9006 0.380704 20.9552 0.511215 20.9552 0.663496C20.9552 0.815778 20.9006 0.946294 20.781 1.06051C20.6668 1.16928 20.5308 1.22369 20.3731 1.22369ZM23.098 4.23664V7.45089H22.2766V2.11019H23.0706V2.94769H23.1412C23.2663 2.67576 23.4568 2.45824 23.7125 2.28964C23.9626 2.12648 24.2944 2.03948 24.6969 2.03948C25.0613 2.03948 25.3767 2.11558 25.6486 2.26242C25.9206 2.40926 26.1271 2.63224 26.2793 2.93136C26.4316 3.23048 26.508 3.60579 26.508 4.05719V7.45089H25.6866V4.11157C25.6866 3.69279 25.5778 3.36651 25.3602 3.13265C25.1427 2.89879 24.8436 2.77913 24.4629 2.77913C24.2019 2.77913 23.9626 2.83348 23.7613 2.94769C23.5547 3.0619 23.3914 3.23052 23.2772 3.44807C23.1576 3.66561 23.098 3.92664 23.098 4.23664ZM31.9684 7.45089L30.3421 2.11019H31.2015L32.3545 6.19998H32.4143L33.5508 2.11019H34.4264L35.5577 6.18371H35.6121L36.7652 2.11019H37.6298L35.9982 7.45089H35.1933L34.0241 3.35014H33.9425L32.7733 7.45089H31.9684ZM38.7122 7.45089V2.11019H39.5333V7.45089H38.7122ZM39.131 1.22369C38.9679 1.22369 38.8318 1.16928 38.7175 1.06051C38.6033 0.946294 38.5436 0.815778 38.5436 0.663496C38.5436 0.511215 38.6033 0.380704 38.7175 0.271931C38.8318 0.163159 38.9679 0.108746 39.131 0.108746C39.2887 0.108746 39.4247 0.163159 39.5389 0.271931C39.6531 0.380704 39.7129 0.511215 39.7129 0.663496C39.7129 0.815778 39.6531 0.946294 39.5389 1.06051C39.4247 1.16928 39.2887 1.22369 39.131 1.22369ZM43.3568 2.11019V2.80628H40.5884V2.11019H43.3568ZM41.3989 0.832059H42.2147V5.9226C42.2147 6.15103 42.2527 6.32511 42.318 6.44476C42.3887 6.55897 42.4756 6.63507 42.5843 6.67314C42.6931 6.71121 42.8075 6.72758 42.9272 6.72758C43.0142 6.72758 43.0901 6.72212 43.15 6.71124C43.2044 6.70037 43.2533 6.6949 43.2859 6.68402L43.4546 7.42367C43.4002 7.44542 43.3188 7.46724 43.2209 7.48355C43.123 7.51075 42.9978 7.52159 42.8401 7.52159C42.6116 7.52159 42.3832 7.47263 42.1602 7.3693C41.9427 7.2714 41.7579 7.11914 41.6111 6.91791C41.4697 6.71125 41.3989 6.45561 41.3989 6.14561V0.832059ZM45.5267 4.23664V7.45089H44.7056V0.331748H45.5267V2.94769H45.5973C45.7224 2.67032 45.9075 2.4528 46.1577 2.28964C46.4133 2.12648 46.7504 2.03948 47.1692 2.03948C47.5336 2.03948 47.849 2.11558 48.1209 2.26242C48.3983 2.40382 48.6104 2.62686 48.7572 2.92598C48.9149 3.21967 48.9912 3.60035 48.9912 4.05719V7.45089H48.1698V4.11157C48.1698 3.68735 48.0611 3.36107 47.8381 3.12721C47.6206 2.89335 47.3161 2.77913 46.9299 2.77913C46.6634 2.77913 46.4186 2.83348 46.2065 2.94769C45.9944 3.0619 45.8313 3.23052 45.7062 3.44807C45.5866 3.66561 45.5267 3.92664 45.5267 4.23664ZM53.353 0.331748H54.3809L56.801 6.24353H56.8881L59.3081 0.331748H60.3361V7.45089H59.5312V2.03948H59.4605L57.2362 7.45089H56.4528L54.2285 2.03948H54.1632V7.45089H53.353V0.331748ZM61.9515 7.45089V2.11019H62.7726V7.45089H61.9515ZM62.3703 1.22369C62.2071 1.22369 62.071 1.16928 61.9568 1.06051C61.8426 0.946294 61.7881 0.815778 61.7881 0.663496C61.7881 0.511215 61.8426 0.380704 61.9568 0.271931C62.071 0.163159 62.2071 0.108746 62.3703 0.108746C62.528 0.108746 62.6639 0.163159 62.7781 0.271931C62.8978 0.380704 62.9521 0.511215 62.9521 0.663496C62.9521 0.815778 62.8978 0.946294 62.7781 1.06051C62.6639 1.16928 62.528 1.22369 62.3703 1.22369ZM66.4436 7.55964C65.9433 7.55964 65.5137 7.44548 65.1493 7.20618C64.7904 6.97232 64.5131 6.64598 64.3173 6.23264C64.1215 5.81387 64.0236 5.34071 64.0236 4.80773C64.0236 4.26386 64.1268 3.78526 64.3226 3.37192C64.5239 2.95859 64.8066 2.63225 65.1655 2.39839C65.5245 2.15909 65.9487 2.03948 66.4328 2.03948C66.808 2.03948 67.1454 2.11013 67.4445 2.25153C67.7491 2.3875 67.9938 2.58333 68.1841 2.8335C68.3799 3.08368 68.4996 3.37736 68.5431 3.70911H67.7218C67.6619 3.46437 67.5207 3.2523 67.3086 3.06195C67.0965 2.8716 66.808 2.77913 66.4436 2.77913C66.1228 2.77913 65.8454 2.86069 65.6061 3.02928C65.3668 3.19244 65.1765 3.42632 65.046 3.72544C64.91 4.02457 64.8447 4.37805 64.8447 4.78051C64.8447 5.19384 64.9099 5.55278 65.0404 5.85734C65.171 6.16191 65.3559 6.40124 65.5952 6.56983C65.8399 6.73843 66.1228 6.82543 66.4436 6.82543C66.6557 6.82543 66.8517 6.78738 67.0257 6.71124C67.1998 6.64054 67.3464 6.53179 67.466 6.39583C67.5857 6.25442 67.6728 6.0858 67.7218 5.89545H68.5431C68.4996 6.21089 68.3852 6.49366 68.2003 6.74384C68.0208 6.99402 67.7816 7.1953 67.4825 7.34214C67.1834 7.48899 66.8407 7.55964 66.4436 7.55964ZM69.7451 7.45089V2.11019H70.5391V2.91509H70.5932C70.6911 2.65404 70.8653 2.43647 71.1209 2.27331C71.3765 2.11015 71.6648 2.0286 71.9803 2.0286C72.0455 2.0286 72.1162 2.0286 72.2086 2.0286C72.3011 2.03403 72.3663 2.03948 72.4152 2.03948V2.87699C72.388 2.87155 72.3227 2.86071 72.2248 2.84439C72.1269 2.82807 72.0237 2.82261 71.9149 2.82261C71.6539 2.82261 71.4201 2.87703 71.2189 2.9858C71.0177 3.08913 70.8543 3.23594 70.7401 3.42629C70.6205 3.61665 70.5662 3.82879 70.5662 4.07352V7.45089H69.7451ZM75.3956 7.55964C74.9116 7.55964 74.4874 7.44542 74.123 7.217C73.7641 6.98858 73.4813 6.66775 73.2746 6.25442C73.0734 5.84108 72.9756 5.36247 72.9756 4.80773C72.9756 4.25299 73.0734 3.76892 73.2746 3.35014C73.4813 2.93681 73.7641 2.61592 74.123 2.3875C74.4874 2.15364 74.9116 2.03948 75.3956 2.03948C75.8742 2.03948 76.2986 2.15364 76.6575 2.3875C77.0219 2.61592 77.3048 2.93681 77.506 3.35014C77.7127 3.76892 77.8103 4.25299 77.8103 4.80773C77.8103 5.36247 77.7127 5.84108 77.506 6.25442C77.3048 6.66775 77.0219 6.98858 76.6575 7.217C76.2986 7.44542 75.8742 7.55964 75.3956 7.55964ZM75.3956 6.82543C75.76 6.82543 76.0592 6.73297 76.2985 6.54261C76.5324 6.3577 76.7064 6.10753 76.8206 5.80297C76.9348 5.49841 76.9945 5.16667 76.9945 4.80773C76.9945 4.45422 76.9348 4.11704 76.8206 3.81248C76.7064 3.50248 76.5324 3.2523 76.2985 3.06195C76.0592 2.8716 75.76 2.77913 75.3956 2.77913C75.0258 2.77913 74.7267 2.8716 74.4874 3.06195C74.2535 3.2523 74.0795 3.50248 73.9653 3.81248C73.8511 4.11704 73.7914 4.45422 73.7914 4.80773C73.7914 5.16667 73.8511 5.49841 73.9653 5.80297C74.0795 6.10753 74.2535 6.3577 74.4874 6.54261C74.7267 6.73297 75.0258 6.82543 75.3956 6.82543ZM82.8466 3.30666L82.1124 3.51333C82.0634 3.39368 81.9982 3.27402 81.9057 3.15981C81.8187 3.04016 81.6991 2.94224 81.5414 2.8661C81.3891 2.78996 81.1933 2.75191 80.954 2.75191C80.6277 2.75191 80.3557 2.82807 80.1382 2.97491C79.9261 3.12719 79.8174 3.31207 79.8174 3.54593C79.8174 3.74716 79.8879 3.91032 80.0402 4.02453C80.187 4.14418 80.4209 4.2421 80.7309 4.32368L81.5249 4.51946C82.0035 4.63367 82.357 4.80769 82.5909 5.04699C82.8302 5.28629 82.9446 5.59088 82.9446 5.96071C82.9446 6.27071 82.8575 6.54265 82.678 6.78195C82.504 7.02669 82.2647 7.217 81.9493 7.35296C81.6393 7.49437 81.2749 7.55964 80.8616 7.55964C80.3123 7.55964 79.8607 7.44548 79.5072 7.20618C79.1483 6.97232 78.9253 6.62423 78.8274 6.17283L79.6052 5.97704C79.6814 6.26529 79.8226 6.47736 80.0293 6.62421C80.236 6.76561 80.5079 6.84177 80.8451 6.84177C81.2258 6.84177 81.5303 6.76021 81.7533 6.59705C81.9817 6.42846 82.0962 6.23262 82.0962 6.0042C82.0962 5.81928 82.0307 5.66157 81.9002 5.53648C81.7696 5.41139 81.5741 5.31893 81.3021 5.25366L80.4154 5.04699C79.926 4.92734 79.567 4.74787 79.3386 4.50857C79.1102 4.2584 78.996 3.95386 78.996 3.58403C78.996 3.28491 79.0777 3.01843 79.2518 2.78457C79.4204 2.55615 79.6541 2.37124 79.9478 2.24071C80.2469 2.11018 80.5787 2.03948 80.954 2.03948C81.487 2.03948 81.9003 2.15908 82.1995 2.3875C82.504 2.62136 82.7215 2.92596 82.8466 3.30666ZM86.3491 7.55964C85.865 7.55964 85.4462 7.44542 85.0818 7.217C84.7174 6.98858 84.4346 6.66775 84.2334 6.25442C84.0321 5.84108 83.9288 5.36247 83.9288 4.80773C83.9288 4.25299 84.0321 3.76892 84.2334 3.35014C84.4346 2.93681 84.7174 2.61592 85.0818 2.3875C85.4462 2.15364 85.865 2.03948 86.3491 2.03948C86.8331 2.03948 87.2519 2.15364 87.6163 2.3875C87.9807 2.61592 88.2635 2.93681 88.4648 3.35014C88.666 3.76892 88.7694 4.25299 88.7694 4.80773C88.7694 5.36247 88.666 5.84108 88.4648 6.25442C88.2635 6.66775 87.9807 6.98858 87.6163 7.217C87.2519 7.44542 86.8331 7.55964 86.3491 7.55964ZM86.3491 6.82543C86.7134 6.82543 87.0181 6.73297 87.252 6.54261C87.4913 6.3577 87.6651 6.10753 87.7794 5.80297C87.8936 5.49841 87.948 5.16667 87.948 4.80773C87.948 4.45422 87.8936 4.11704 87.7794 3.81248C87.6651 3.50248 87.4913 3.2523 87.252 3.06195C87.0181 2.8716 86.7134 2.77913 86.3491 2.77913C85.9847 2.77913 85.68 2.8716 85.4462 3.06195C85.2069 3.2523 85.033 3.50248 84.9188 3.81248C84.8046 4.11704 84.7501 4.45422 84.7501 4.80773C84.7501 5.16667 84.8046 5.49841 84.9188 5.80297C85.033 6.10753 85.2069 6.3577 85.4462 6.54261C85.68 6.73297 85.9847 6.82543 86.3491 6.82543ZM92.3969 2.11019V2.80628H89.5198V2.11019H92.3969ZM90.3845 7.45089V1.37592C90.3845 1.06592 90.4553 0.815791 90.5967 0.609123C90.7435 0.407894 90.9283 0.250126 91.1567 0.152231C91.3851 0.0488972 91.6301 0 91.8857 0C92.0869 0 92.2499 0.016292 92.3804 0.0434851C92.5055 0.0761168 92.598 0.108772 92.6632 0.135966L92.424 0.848391C92.3859 0.832075 92.3262 0.815772 92.25 0.794018C92.1793 0.772263 92.0869 0.761354 91.9672 0.761354C91.6953 0.761354 91.4994 0.832059 91.3798 0.968025C91.2601 1.10399 91.2003 1.30527 91.2003 1.56633V7.45089H90.3845ZM95.8722 2.11019V2.80628H93.1038V2.11019H95.8722ZM93.9087 0.832059H94.7301V5.9226C94.7301 6.15103 94.7627 6.32511 94.8334 6.44476C94.8986 6.55897 94.9911 6.63507 95.0944 6.67314C95.2032 6.71121 95.3173 6.72758 95.437 6.72758C95.5294 6.72758 95.6057 6.72212 95.6601 6.71124C95.7199 6.70037 95.7687 6.6949 95.8013 6.68402L95.97 7.42367C95.9101 7.44542 95.8342 7.46724 95.7363 7.48355C95.6329 7.51075 95.5077 7.52159 95.3555 7.52159C95.127 7.52159 94.8986 7.47263 94.6756 7.3693C94.4526 7.2714 94.273 7.11914 94.1262 6.91791C93.9793 6.71125 93.9087 6.45561 93.9087 6.14561V0.832059Z" fill="black"/>
</svg>
