<svg width="44" height="8" viewBox="0 0 44 8" fill="none" xmlns="http://www.w3.org/2000/svg">
<path d="M0 7.11914V0H2.40383C2.96401 0 3.42086 0.0978607 3.77437 0.304528C4.12788 0.500319 4.39448 0.77224 4.56308 1.10943C4.73712 1.45207 4.82412 1.83282 4.82412 2.2516C4.82412 2.67037 4.73712 3.05106 4.56308 3.3937C4.39448 3.73633 4.13346 4.01371 3.77995 4.21493C3.42644 4.41616 2.96946 4.51946 2.41472 4.51946H0.690716V3.75266H2.38763C2.77377 3.75266 3.07844 3.68734 3.3123 3.55682C3.54073 3.42629 3.70928 3.24682 3.81261 3.0184C3.92139 2.79541 3.97567 2.53985 3.97567 2.2516C3.97567 1.96879 3.92139 1.71316 3.81261 1.48473C3.70928 1.26175 3.54059 1.08773 3.30673 0.957203C3.07287 0.826676 2.76289 0.766798 2.37674 0.766798H0.859345V7.11914H0ZM7.67409 7.24422C7.33146 7.24422 7.02679 7.17897 6.74942 7.05388C6.47205 6.92335 6.25453 6.73842 6.09137 6.49369C5.93365 6.24895 5.8521 5.94982 5.8521 5.60174C5.8521 5.29718 5.91197 5.04701 6.03162 4.8621C6.15127 4.66631 6.31423 4.51405 6.51546 4.40527C6.71669 4.2965 6.93979 4.21489 7.17909 4.16594C7.42927 4.10611 7.67407 4.06261 7.92425 4.02997C8.24513 3.9919 8.51146 3.95931 8.71269 3.93756C8.91392 3.9158 9.06093 3.87769 9.15883 3.8233C9.25128 3.76892 9.3001 3.67652 9.3001 3.54599V3.51877C9.3001 3.17614 9.2022 2.90966 9.01728 2.71931C8.83237 2.52896 8.54967 2.43105 8.1744 2.43105C7.78282 2.43105 7.47271 2.51806 7.24973 2.69209C7.02675 2.86069 6.87454 3.04561 6.78208 3.2414L6.00426 2.96402C6.14023 2.63771 6.32515 2.38208 6.55901 2.2026C6.79287 2.01769 7.04857 1.89263 7.32594 1.82193C7.60331 1.74579 7.87525 1.70774 8.14174 1.70774C8.31577 1.70774 8.51148 1.72949 8.73446 1.773C8.95745 1.81107 9.1751 1.89262 9.38721 2.01771C9.59387 2.1428 9.77333 2.33317 9.90929 2.58335C10.0507 2.83896 10.1215 3.17615 10.1215 3.60037V7.11914H9.3001V6.39583H9.25655C9.20216 6.51004 9.10984 6.63509 8.97931 6.76562C8.84878 6.90158 8.67464 7.01035 8.46253 7.10281C8.24499 7.19527 7.98409 7.24422 7.67409 7.24422ZM7.79917 6.51002C8.12005 6.51002 8.39742 6.44476 8.61496 6.31424C8.84338 6.18915 9.01195 6.02598 9.12616 5.82475C9.24037 5.62352 9.3001 5.41139 9.3001 5.1884V4.43787C9.26203 4.47594 9.18593 4.51406 9.07172 4.55213C8.95207 4.58476 8.82155 4.6119 8.66383 4.6391C8.51698 4.66085 8.37011 4.68266 8.22326 4.69898C8.08186 4.7153 7.96771 4.73159 7.8807 4.74247C7.66859 4.76966 7.46731 4.81317 7.28239 4.87843C7.09748 4.93826 6.95073 5.03071 6.83652 5.15036C6.72775 5.27001 6.66789 5.43863 6.66789 5.6453C6.66789 5.9281 6.77658 6.14562 6.98869 6.29246C7.20079 6.43386 7.46741 6.51002 7.79917 6.51002ZM15.3968 2.97491L14.6625 3.18158C14.6136 3.06193 14.5484 2.94227 14.4559 2.82806C14.3689 2.70841 14.2492 2.61049 14.0969 2.53435C13.9446 2.45821 13.749 2.42016 13.5097 2.42016C13.1834 2.42016 12.9059 2.49632 12.6884 2.64316C12.4762 2.79545 12.3676 2.98032 12.3676 3.21418C12.3676 3.41541 12.4438 3.57857 12.5906 3.69278C12.7375 3.81243 12.9712 3.91035 13.2867 3.99193L14.0754 4.18772C14.554 4.30193 14.9128 4.47595 15.1466 4.71525C15.3805 4.95455 15.4948 5.25914 15.4948 5.62896C15.4948 5.93897 15.4078 6.2109 15.2337 6.4502C15.0597 6.69494 14.8149 6.88525 14.4995 7.02122C14.1895 7.16262 13.8251 7.22789 13.4117 7.22789C12.8679 7.22789 12.4163 7.11373 12.0574 6.87443C11.6984 6.64057 11.4755 6.29248 11.3776 5.84108L12.161 5.6453C12.2317 5.93354 12.3731 6.14562 12.5797 6.29246C12.7864 6.43386 13.0583 6.51002 13.3955 6.51002C13.7762 6.51002 14.0806 6.42847 14.3091 6.26531C14.532 6.09671 14.6463 5.90087 14.6463 5.67245C14.6463 5.48754 14.5811 5.32982 14.4506 5.20474C14.3255 5.07965 14.1241 4.98718 13.8576 4.92192L12.9659 4.71525C12.4764 4.5956 12.1174 4.41613 11.889 4.17683C11.6606 3.92665 11.5462 3.62211 11.5462 3.25229C11.5462 2.95316 11.6333 2.68669 11.8019 2.45283C11.9705 2.2244 12.2043 2.03949 12.498 1.90896C12.7971 1.77844 13.1345 1.70774 13.5097 1.70774C14.0373 1.70774 14.4505 1.82733 14.7496 2.05575C15.0542 2.28961 15.2717 2.59421 15.3968 2.97491ZM20.5146 2.97491L19.775 3.18158C19.7315 3.06193 19.6608 2.94227 19.5737 2.82806C19.4813 2.70841 19.3617 2.61049 19.2094 2.53435C19.0571 2.45821 18.8613 2.42016 18.622 2.42016C18.2957 2.42016 18.0237 2.49632 17.8062 2.64316C17.5886 2.79545 17.4798 2.98032 17.4798 3.21418C17.4798 3.41541 17.556 3.57857 17.7029 3.69278C17.8552 3.81243 18.0835 3.91035 18.3989 3.99193L19.1929 4.18772C19.6715 4.30193 20.025 4.47595 20.2589 4.71525C20.4927 4.95455 20.6126 5.25914 20.6126 5.62896C20.6126 5.93897 20.52 6.2109 20.346 6.4502C20.1719 6.69494 19.9273 6.88525 19.6173 7.02122C19.3019 7.16262 18.9373 7.22789 18.524 7.22789C17.9801 7.22789 17.5287 7.11373 17.1752 6.87443C16.8163 6.64057 16.5878 6.29248 16.4954 5.84108L17.2732 5.6453C17.3494 5.93354 17.4853 6.14562 17.692 6.29246C17.9041 6.43386 18.1759 6.51002 18.5131 6.51002C18.8938 6.51002 19.1983 6.42847 19.4213 6.26531C19.6497 6.09671 19.7641 5.90087 19.7641 5.67245C19.7641 5.48754 19.6987 5.32982 19.5682 5.20474C19.4376 5.07965 19.2366 4.98718 18.9701 4.92192L18.0781 4.71525C17.5886 4.5956 17.2297 4.41613 17.0013 4.17683C16.7729 3.92665 16.664 3.62211 16.664 3.25229C16.664 2.95316 16.7456 2.68669 16.9142 2.45283C17.0882 2.2244 17.3221 2.03949 17.6158 1.90896C17.9095 1.77844 18.2467 1.70774 18.622 1.70774C19.1495 1.70774 19.5629 1.82733 19.8674 2.05575C20.172 2.28961 20.3841 2.59421 20.5146 2.97491ZM23.0544 7.11914L21.4284 1.77844H22.2931L23.4461 5.86823H23.5003L24.6424 1.77844H25.518L26.644 5.85197H26.6984L27.8512 1.77844H28.7161L27.0898 7.11914H26.2796L25.1157 3.0184H25.0286L23.8649 7.11914H23.0544ZM31.7889 7.22789C31.3048 7.22789 30.8807 7.11367 30.5163 6.88525C30.1574 6.65683 29.8745 6.33601 29.6679 5.92267C29.4666 5.50934 29.3686 5.03072 29.3686 4.47598C29.3686 3.92124 29.4666 3.43717 29.6679 3.0184C29.8745 2.60506 30.1574 2.28417 30.5163 2.05575C30.8807 1.82189 31.3048 1.70774 31.7889 1.70774C32.2675 1.70774 32.6916 1.82189 33.0505 2.05575C33.4149 2.28417 33.6978 2.60506 33.899 3.0184C34.1057 3.43717 34.2092 3.92124 34.2092 4.47598C34.2092 5.03072 34.1057 5.50934 33.899 5.92267C33.6978 6.33601 33.4149 6.65683 33.0505 6.88525C32.6916 7.11367 32.2675 7.22789 31.7889 7.22789ZM31.7889 6.49369C32.1533 6.49369 32.4525 6.40122 32.6918 6.21087C32.9256 6.02595 33.1051 5.77579 33.2139 5.47122C33.3281 5.16666 33.3878 4.83493 33.3878 4.47598C33.3878 4.12247 33.3281 3.7853 33.2139 3.48073C33.1051 3.17073 32.9256 2.92055 32.6918 2.7302C32.4525 2.53985 32.1533 2.44738 31.7889 2.44738C31.419 2.44738 31.1198 2.53985 30.886 2.7302C30.6467 2.92055 30.4728 3.17073 30.3586 3.48073C30.2444 3.7853 30.1899 4.12247 30.1899 4.47598C30.1899 4.83493 30.2444 5.16666 30.3586 5.47122C30.4728 5.77579 30.6467 6.02595 30.886 6.21087C31.1198 6.40122 31.419 6.49369 31.7889 6.49369ZM35.4599 7.11914V1.77844H36.254V2.58335H36.3084C36.4063 2.32229 36.5802 2.10472 36.8358 1.94156C37.0914 1.7784 37.3798 1.69685 37.7007 1.69685C37.7605 1.69685 37.8311 1.69685 37.9235 1.69685C38.016 1.70229 38.0814 1.70774 38.1304 1.70774V2.54524C38.1032 2.5398 38.0379 2.52896 37.94 2.51264C37.8421 2.49633 37.7386 2.49087 37.6298 2.49087C37.3688 2.49087 37.135 2.54528 36.9338 2.65405C36.7326 2.75739 36.5695 2.90419 36.4553 3.09455C36.3356 3.2849 36.281 3.49704 36.281 3.74178V7.11914H35.4599ZM40.953 7.22789C40.5125 7.22789 40.1154 7.11912 39.7782 6.8907C39.4355 6.66771 39.1689 6.34683 38.9786 5.93349C38.7828 5.52016 38.6905 5.03071 38.6905 4.46509C38.6905 3.90491 38.7828 3.41547 38.9786 3.00213C39.1689 2.5888 39.4355 2.27335 39.7782 2.04493C40.1208 1.82194 40.5178 1.70774 40.9692 1.70774C41.3173 1.70774 41.5892 1.76753 41.7959 1.88174C41.9971 1.99595 42.1549 2.12647 42.2582 2.27331C42.367 2.41471 42.4539 2.53438 42.5137 2.62683H42.5846V0H43.4004V7.11914H42.6117V6.2979H42.5137C42.4539 6.3958 42.367 6.52092 42.2582 6.66776C42.144 6.8146 41.9864 6.94511 41.7797 7.05932C41.573 7.17354 41.3011 7.22789 40.953 7.22789ZM41.0672 6.49369C41.3935 6.49369 41.6762 6.40668 41.8992 6.23809C42.1276 6.06405 42.3016 5.82478 42.4213 5.51477C42.5355 5.21021 42.5955 4.85122 42.5955 4.44876C42.5955 4.05174 42.5409 3.70371 42.4213 3.40458C42.3071 3.10002 42.1331 2.86614 41.9101 2.70298C41.6817 2.52894 41.399 2.44738 41.0672 2.44738C40.7191 2.44738 40.4308 2.53439 40.197 2.71387C39.9685 2.89334 39.7944 3.13261 39.6802 3.43174C39.566 3.7363 39.5118 4.07349 39.5118 4.44876C39.5118 4.82946 39.5661 5.17211 39.6858 5.48755C39.8 5.79212 39.9739 6.03684 40.2023 6.22176C40.4361 6.40123 40.7246 6.49369 41.0672 6.49369Z" fill="black" fill-opacity="0.2"/>
</svg>
