<svg width="7" height="5" viewBox="0 0 7 5" fill="none" xmlns="http://www.w3.org/2000/svg">
<path d="M1.88174 4.30742C1.50648 4.30742 1.17455 4.2204 0.891743 4.04093C0.608935 3.86145 0.391411 3.61127 0.233691 3.29039C0.0759708 2.96952 0 2.59421 0 2.16456C0 1.73491 0.0759708 1.35423 0.233691 1.03335C0.391411 0.712473 0.608935 0.456855 0.891743 0.282819C1.17455 0.103344 1.50648 0.0108879 1.88174 0.0108879C2.25701 0.0108879 2.58336 0.103344 2.86617 0.282819C3.14897 0.456855 3.3665 0.712473 3.52422 1.03335C3.68194 1.35423 3.76349 1.73491 3.76349 2.16456C3.76349 2.59421 3.68194 2.96952 3.52422 3.29039C3.3665 3.61127 3.14897 3.86145 2.86617 4.04093C2.58336 4.2204 2.25701 4.30742 1.88174 4.30742ZM1.88174 3.73633C2.16455 3.73633 2.39843 3.66017 2.58335 3.51333C2.76826 3.36649 2.90423 3.17617 2.99124 2.93687C3.07826 2.70301 3.12163 2.44193 3.12163 2.16456C3.12163 1.88719 3.07826 1.63161 2.99124 1.38688C2.90423 1.14758 2.76826 0.957193 2.58335 0.81035C2.39843 0.658068 2.16455 0.587348 1.88174 0.587348C1.5935 0.587348 1.35948 0.658068 1.17456 0.81035C0.995088 0.957193 0.859122 1.14758 0.766666 1.38688C0.679648 1.63161 0.636277 1.88719 0.636277 2.16456C0.636277 2.44193 0.679648 2.70301 0.766666 2.93687C0.859122 3.17617 0.995088 3.36649 1.17456 3.51333C1.35948 3.66017 1.5935 3.73633 1.88174 3.73633ZM4.73702 4.22038V0.0652608H5.35152V0.69616H5.39507C5.47121 0.489492 5.60705 0.320871 5.80828 0.195783C6.00407 0.0652555 6.22705 0 6.47722 0C6.52617 0 6.58073 0.00544394 6.65143 0.00544394C6.72213 0.00544394 6.77641 0.0108879 6.81448 0.0108879V0.663496C6.79273 0.658058 6.73846 0.64722 6.66232 0.636343C6.58617 0.625466 6.5098 0.620011 6.42278 0.620011C6.22155 0.620011 6.04222 0.66351 5.8845 0.745089C5.72678 0.826668 5.60172 0.946326 5.50926 1.09317C5.41681 1.24001 5.3733 1.40319 5.3733 1.59355V4.22038H4.73702Z" fill="black"/>
</svg>
