<svg width="48" height="6" viewBox="0 0 48 6" fill="none" xmlns="http://www.w3.org/2000/svg">
<path d="M0 0.853901V0.261043H4.14961V0.853901H2.40914V5.79759H1.7402V0.853901H0ZM6.23795 5.88463C5.8355 5.88463 5.49292 5.79762 5.20467 5.61814C4.91642 5.43867 4.69345 5.19393 4.53573 4.87305C4.37801 4.55217 4.30177 4.17688 4.30177 3.75266C4.30177 3.32845 4.37801 2.95322 4.53573 2.6269C4.69345 2.30058 4.9111 2.05039 5.18847 1.86548C5.47128 1.68056 5.79736 1.5881 6.17263 1.5881C6.39017 1.5881 6.60237 1.62615 6.81448 1.69685C7.02659 1.77299 7.21697 1.88721 7.39101 2.05037C7.56504 2.20809 7.70088 2.42566 7.80421 2.68672C7.90755 2.95321 7.95665 3.27949 7.95665 3.66563V3.93756H4.7588V3.38825H7.30948C7.30948 3.14895 7.26039 2.94233 7.16794 2.75742C7.07548 2.57251 6.94496 2.43108 6.77093 2.3223C6.60233 2.21897 6.40649 2.16456 6.17263 2.16456C5.91701 2.16456 5.69949 2.22444 5.51458 2.35497C5.32966 2.47462 5.18837 2.63778 5.09048 2.83901C4.99258 3.04024 4.93805 3.25231 4.93805 3.48073V3.85059C4.93805 4.16603 4.99259 4.43251 5.10137 4.65005C5.21014 4.86216 5.36234 5.03077 5.55813 5.14498C5.75392 5.25376 5.98234 5.31355 6.23795 5.31355C6.40655 5.31355 6.55901 5.28635 6.69498 5.24284C6.83095 5.19389 6.9451 5.11774 7.04844 5.02528C7.14633 4.92739 7.22243 4.80778 7.27682 4.66094L7.89132 4.83495C7.82605 5.04161 7.71723 5.22653 7.56495 5.38425C7.41267 5.54197 7.22229 5.66709 6.99931 5.75411C6.77089 5.84113 6.52076 5.88463 6.23795 5.88463ZM8.93018 5.79759V1.64248H9.54468V2.27337H9.58823C9.66437 2.06671 9.80021 1.89809 10.0014 1.773C10.1972 1.64247 10.4202 1.57721 10.6704 1.57721C10.7193 1.57721 10.7739 1.58266 10.8446 1.58266C10.9153 1.58266 10.9696 1.5881 11.0076 1.5881V2.24071C10.9859 2.23527 10.9316 2.22443 10.8555 2.21356C10.7793 2.20268 10.7032 2.19723 10.6162 2.19723C10.415 2.19723 10.2354 2.24072 10.0777 2.3223C9.91994 2.40388 9.79488 2.52354 9.70242 2.67038C9.60997 2.81723 9.56646 2.98041 9.56646 3.17076V5.79759H8.93018ZM11.7637 5.79759V1.64248H12.3782V2.29515H12.4326C12.5196 2.07217 12.6611 1.89809 12.8514 1.77844C13.0418 1.65335 13.2755 1.5881 13.5474 1.5881C13.8194 1.5881 14.0479 1.65335 14.2328 1.77844C14.4123 1.89809 14.5592 2.07217 14.6625 2.29515H14.7061C14.8094 2.07761 14.9671 1.90897 15.1846 1.78389C15.3967 1.65336 15.6523 1.5881 15.946 1.5881C16.3212 1.5881 16.6204 1.70777 16.8597 1.94163C17.0936 2.17005 17.2132 2.52899 17.2132 3.01846V5.79759H16.5769V3.01846C16.5769 2.7139 16.4898 2.49094 16.3212 2.36041C16.158 2.22988 15.9569 2.16456 15.7285 2.16456C15.4402 2.16456 15.2117 2.25164 15.0539 2.43112C14.8908 2.60515 14.8094 2.82268 14.8094 3.09461V5.79759H14.1622V2.9532C14.1622 2.71934 14.0858 2.52896 13.9336 2.38212C13.7813 2.23528 13.5801 2.16456 13.3408 2.16456C13.1722 2.16456 13.02 2.20813 12.8732 2.29515C12.7318 2.38217 12.6176 2.50722 12.5306 2.66494C12.4436 2.81722 12.4 2.99669 12.4 3.20336V5.79759H11.7637ZM21.3193 2.57246L20.7483 2.73564C20.7102 2.64319 20.6613 2.55073 20.5906 2.45827C20.5199 2.36581 20.4274 2.28965 20.3077 2.22982C20.1881 2.17 20.0359 2.14285 19.851 2.14285C19.5954 2.14285 19.383 2.20265 19.2144 2.31686C19.0458 2.43107 18.9643 2.57795 18.9643 2.75742C18.9643 2.91514 19.0188 3.0402 19.1385 3.13265C19.2527 3.22511 19.432 3.30128 19.6768 3.36654L20.2915 3.5134C20.6668 3.60585 20.9441 3.74182 21.1235 3.92674C21.3084 4.11165 21.3955 4.35092 21.3955 4.63916C21.3955 4.87846 21.3303 5.0906 21.1889 5.28095C21.0583 5.46586 20.868 5.61267 20.6232 5.72144C20.3785 5.83022 20.0956 5.88463 19.7748 5.88463C19.3506 5.88463 19.0024 5.79217 18.725 5.60725C18.4476 5.42234 18.2683 5.15586 18.1976 4.80235L18.8012 4.65005C18.8611 4.87303 18.9699 5.04159 19.1276 5.15581C19.2908 5.26458 19.5028 5.31899 19.7639 5.31899C20.063 5.31899 20.2968 5.25919 20.4708 5.1341C20.6503 5.00357 20.7374 4.8513 20.7374 4.67183C20.7374 4.53042 20.6883 4.40532 20.585 4.31286C20.4871 4.20953 20.3296 4.1388 20.1229 4.08986L19.4266 3.92674C19.0459 3.83428 18.7685 3.6983 18.5891 3.50795C18.415 3.3176 18.3227 3.07826 18.3227 2.79002C18.3227 2.55616 18.3935 2.34948 18.524 2.17001C18.6545 1.99053 18.8394 1.84918 19.0679 1.74584C19.2963 1.64251 19.5573 1.5881 19.851 1.5881C20.2589 1.5881 20.5851 1.68056 20.8189 1.86003C21.0528 2.03951 21.2214 2.27877 21.3193 2.57246ZM26.1869 5.88463C25.8117 5.88463 25.4797 5.79762 25.1969 5.61814C24.9196 5.43867 24.6966 5.18849 24.5389 4.86761C24.3812 4.54673 24.3052 4.17143 24.3052 3.74178C24.3052 3.31213 24.3812 2.93145 24.5389 2.61057C24.6966 2.28969 24.9196 2.03407 25.1969 1.86003C25.4797 1.68056 25.8117 1.5881 26.1869 1.5881C26.5622 1.5881 26.8885 1.68056 27.1714 1.86003C27.4542 2.03407 27.6717 2.28969 27.8294 2.61057C27.9871 2.93145 28.0687 3.31213 28.0687 3.74178C28.0687 4.17143 27.9871 4.54673 27.8294 4.86761C27.6717 5.18849 27.4542 5.43867 27.1714 5.61814C26.8885 5.79762 26.5622 5.88463 26.1869 5.88463ZM26.1869 5.31355C26.4697 5.31355 26.7036 5.23739 26.8885 5.09055C27.0734 4.9437 27.2094 4.75339 27.2964 4.51409C27.3834 4.28022 27.4324 4.01915 27.4324 3.74178C27.4324 3.46441 27.3834 3.20883 27.2964 2.96409C27.2094 2.72479 27.0734 2.53441 26.8885 2.38756C26.7036 2.23528 26.4697 2.16456 26.1869 2.16456C25.8987 2.16456 25.6648 2.23528 25.4853 2.38756C25.3004 2.53441 25.1644 2.72479 25.0774 2.96409C24.985 3.20883 24.9415 3.46441 24.9415 3.74178C24.9415 4.01915 24.985 4.28022 25.0774 4.51409C25.1644 4.75339 25.3004 4.9437 25.4853 5.09055C25.6648 5.23739 25.8987 5.31355 26.1869 5.31355ZM30.8913 1.64248V2.18634H28.6505V1.64248H30.8913ZM29.325 5.79759V1.07146C29.325 0.83216 29.3794 0.636322 29.4937 0.478602C29.6024 0.315443 29.7492 0.20128 29.9286 0.1197C30.1027 0.0381208 30.2932 0 30.489 0C30.6467 0 30.7772 0.0109144 30.8751 0.0381076C30.973 0.0653007 31.0489 0.0870578 31.0979 0.108812L30.9131 0.658119C30.8804 0.647242 30.8369 0.636327 30.7771 0.620011C30.7227 0.603695 30.6465 0.592858 30.554 0.592858C30.3474 0.592858 30.1952 0.647204 30.0973 0.755977C30.0048 0.859311 29.9613 1.01702 29.9613 1.22369V5.79759H29.325ZM37.646 0.261043H38.3205V3.92674C38.3205 4.30744 38.2281 4.64463 38.0486 4.93831C37.8746 5.23744 37.6243 5.47125 37.3034 5.63985C36.9771 5.80845 36.6019 5.89552 36.1669 5.89552C35.7318 5.89552 35.3509 5.80845 35.03 5.63985C34.7091 5.47125 34.459 5.23744 34.2795 4.93831C34.1001 4.64463 34.0132 4.30744 34.0132 3.92674V0.261043H34.6821V3.8723C34.6821 4.14423 34.7417 4.38357 34.8614 4.59568C34.981 4.80235 35.1499 4.9709 35.3728 5.09055C35.5904 5.2102 35.8569 5.27006 36.1669 5.27006C36.4769 5.27006 36.7379 5.2102 36.9609 5.09055C37.1839 4.9709 37.3523 4.80235 37.4665 4.59568C37.5861 4.38357 37.646 4.14423 37.646 3.8723V0.261043ZM42.5137 2.57246L41.9372 2.73564C41.9045 2.64319 41.8501 2.55073 41.7794 2.45827C41.7087 2.36581 41.6163 2.28965 41.4966 2.22982C41.3824 2.17 41.2302 2.14285 41.0398 2.14285C40.7897 2.14285 40.5775 2.20265 40.4089 2.31686C40.2403 2.43107 40.1531 2.57795 40.1531 2.75742C40.1531 2.91514 40.2131 3.0402 40.3274 3.13265C40.4416 3.22511 40.621 3.30128 40.8712 3.36654L41.4857 3.5134C41.8555 3.60585 42.1331 3.74182 42.318 3.92674C42.4974 4.11165 42.5899 4.35092 42.5899 4.63916C42.5899 4.87846 42.519 5.0906 42.383 5.28095C42.2471 5.46586 42.0567 5.61267 41.8174 5.72144C41.5727 5.83022 41.2899 5.88463 40.9636 5.88463C40.5449 5.88463 40.1912 5.79217 39.9139 5.60725C39.6365 5.42234 39.4626 5.15586 39.3865 4.80235L39.9901 4.65005C40.0499 4.87303 40.1586 5.04159 40.3218 5.15581C40.4795 5.26458 40.6917 5.31899 40.9527 5.31899C41.2519 5.31899 41.4912 5.25919 41.6652 5.1341C41.8393 5.00357 41.9263 4.8513 41.9263 4.67183C41.9263 4.53042 41.8773 4.40532 41.7794 4.31286C41.6761 4.20953 41.5239 4.1388 41.3118 4.08986L40.6211 3.92674C40.2404 3.83428 39.963 3.6983 39.7835 3.50795C39.604 3.3176 39.5169 3.07826 39.5169 2.79002C39.5169 2.55616 39.5823 2.34948 39.7129 2.17001C39.8488 1.99053 40.0283 1.84918 40.2567 1.74584C40.4906 1.64251 40.7516 1.5881 41.0398 1.5881C41.4532 1.5881 41.7739 1.68056 42.0078 1.86003C42.2471 2.03951 42.4158 2.27877 42.5137 2.57246ZM45.2928 5.88463C44.8903 5.88463 44.5421 5.79762 44.2539 5.61814C43.9656 5.43867 43.7427 5.19393 43.5849 4.87305C43.4327 4.55217 43.3566 4.17688 43.3566 3.75266C43.3566 3.32845 43.4327 2.95322 43.5849 2.6269C43.7427 2.30058 43.9602 2.05039 44.243 1.86548C44.5204 1.68056 44.8522 1.5881 45.2274 1.5881C45.4395 1.5881 45.657 1.62615 45.8637 1.69685C46.0758 1.77299 46.2662 1.88721 46.4402 2.05037C46.6143 2.20809 46.7504 2.42566 46.8537 2.68672C46.957 2.95321 47.0114 3.27949 47.0114 3.66563V3.93756H43.808V3.38825H46.3587C46.3587 3.14895 46.3152 2.94233 46.2227 2.75742C46.1303 2.57251 45.9943 2.43108 45.8257 2.3223C45.6571 2.21897 45.4558 2.16456 45.2274 2.16456C44.9718 2.16456 44.749 2.22444 44.5641 2.35497C44.3792 2.47462 44.2376 2.63778 44.1397 2.83901C44.0418 3.04024 43.9928 3.25231 43.9928 3.48073V3.85059C43.9928 4.16603 44.0474 4.43251 44.1562 4.65005C44.2649 4.86216 44.4171 5.03077 44.6129 5.14498C44.8087 5.25376 45.0317 5.31355 45.2928 5.31355C45.4559 5.31355 45.6082 5.28635 45.7442 5.24284C45.8802 5.19389 45.9998 5.11774 46.0977 5.02528C46.1956 4.92739 46.2717 4.80778 46.326 4.66094L46.9461 4.83495C46.8809 5.04161 46.772 5.22653 46.6197 5.38425C46.462 5.54197 46.2772 5.66709 46.0488 5.75411C45.8258 5.84113 45.5701 5.88463 45.2928 5.88463Z" fill="black" fill-opacity="0.4"/>
</svg>
