<svg width="16" height="16" viewBox="0 0 16 16" fill="none" xmlns="http://www.w3.org/2000/svg">
<path d="M14.1242 6.23264C14.2548 5.8465 14.3199 5.43863 14.3199 5.03617C14.3199 4.36178 14.1405 3.69825 13.7979 3.11632C13.1072 1.92526 11.829 1.19103 10.4476 1.19103C10.1756 1.19103 9.90385 1.21824 9.63736 1.27806C9.27841 0.875605 8.83782 0.554732 8.34834 0.331748C7.85343 0.114203 7.32051 0 6.78208 0H6.76031H6.74942C5.07432 0 3.58944 1.07141 3.07277 2.65405C2.53978 2.76282 2.03945 2.98578 1.59892 3.30122C1.1584 3.6221 0.788579 4.02459 0.522087 4.49775C0.179453 5.07969 0 5.74866 0 6.42305C0 7.37481 0.353553 8.28849 0.995311 8.99551C0.864784 9.38165 0.799595 9.78952 0.799595 10.192C0.799595 10.8664 0.984359 11.5299 1.32699 12.1118C1.72945 12.8189 2.35503 13.3736 3.10012 13.7053C3.85065 14.0371 4.6827 14.1241 5.48218 13.9501C5.84113 14.3525 6.28159 14.6734 6.77651 14.8964C7.26598 15.1139 7.79903 15.2282 8.33745 15.2282H8.36454H8.37543C10.0505 15.2282 11.5353 14.1567 12.0465 12.5687C12.5795 12.4599 13.0854 12.2424 13.5259 11.9215C13.9665 11.6061 14.3308 11.1981 14.6028 10.7304C14.94 10.143 15.1247 9.47949 15.1193 8.8051C15.1193 7.85334 14.766 6.93966 14.1242 6.23264ZM8.36454 14.2329H8.35923C7.69028 14.2329 7.04302 13.999 6.52635 13.5748C6.55898 13.553 6.58613 13.5367 6.61876 13.5204L9.66976 11.7692C9.7459 11.7257 9.80577 11.6659 9.84928 11.5897C9.89822 11.5136 9.92018 11.4265 9.92018 11.3395V7.06477L11.2089 7.80441C11.2144 7.80441 11.22 7.80987 11.2254 7.82075C11.2308 7.82618 11.2308 7.83164 11.2363 7.83708V11.3776C11.2308 12.9548 9.94718 14.2275 8.36454 14.2329ZM2.19165 11.6115C1.94147 11.1818 1.8111 10.6869 1.8111 10.1865C1.8111 10.0234 1.82189 9.86021 1.84908 9.70249C1.87627 9.71337 1.9143 9.74055 1.94149 9.75686L4.99275 11.5081C5.06889 11.5517 5.15589 11.5734 5.24291 11.5734C5.32993 11.5734 5.41692 11.5517 5.49306 11.5081L9.21858 9.37074V10.85C9.21858 10.8609 9.21844 10.8664 9.213 10.8718C9.213 10.8772 9.20755 10.8827 9.20211 10.8881L6.11845 12.6557C5.67792 12.9059 5.18837 13.0418 4.68258 13.0418C4.17679 13.0418 3.68207 12.9059 3.24698 12.6557C2.81189 12.4055 2.44726 12.0465 2.19165 11.6115ZM1.39232 4.99269C1.72408 4.41619 2.25706 3.97564 2.88794 3.74178C2.88794 3.76897 2.88237 3.81789 2.88237 3.85052V7.35303C2.88237 7.44005 2.90976 7.52705 2.95327 7.60319C2.99678 7.67389 3.05638 7.7392 3.13252 7.7827L6.85803 9.92005L5.56928 10.6597C5.56384 10.6651 5.55838 10.6651 5.5475 10.6651C5.54207 10.6651 5.53661 10.6651 5.52573 10.6651L2.44207 8.89214C2.00698 8.64196 1.6425 8.27762 1.39232 7.84797C1.14214 7.41288 1.0062 6.91796 1.0062 6.4176C1.0062 5.91725 1.14214 5.42778 1.39232 4.99269ZM11.9868 7.44545L8.26124 5.3081L9.55026 4.56846C9.56114 4.56302 9.5666 4.56301 9.57203 4.56301C9.58291 4.55758 9.58837 4.56301 9.59381 4.56301L12.6828 6.33601C13.1179 6.58619 13.4824 6.9451 13.7325 7.38019C13.9827 7.80984 14.1186 8.30475 14.1186 8.8051C14.1186 10.0016 13.3681 11.073 12.2369 11.4809V7.87512C12.2369 7.87512 12.2369 7.87511 12.2369 7.86967C12.2369 7.78266 12.2151 7.7011 12.1716 7.62496C12.1281 7.54882 12.0629 7.48896 11.9868 7.44545ZM13.2702 5.52566C13.243 5.50935 13.2105 5.4876 13.1834 5.47129L10.1321 3.72C10.056 3.67649 9.96908 3.65474 9.87663 3.65474C9.78961 3.65474 9.70261 3.67649 9.62647 3.72L5.90096 5.85741V4.37812V4.37268C5.90096 4.3618 5.91186 4.34545 5.92274 4.34001L9.0064 2.57246C9.44149 2.32228 9.93647 2.18634 10.4423 2.18634C12.0249 2.18634 13.3137 3.46441 13.3137 5.04162C13.3137 5.20477 13.2974 5.36794 13.2702 5.52566ZM5.19936 8.16338L3.91034 7.42374C3.9049 7.4183 3.89958 7.41284 3.89414 7.4074C3.8887 7.40197 3.88856 7.39651 3.88856 7.38563V3.84508C3.88856 2.27332 5.17223 0.995245 6.76031 0.995245C7.42926 0.995245 8.08183 1.22916 8.5985 1.65881C8.57131 1.66968 8.53328 1.69142 8.50608 1.70774L5.45482 3.45896C5.37868 3.50247 5.31351 3.56227 5.27 3.63841C5.22649 3.71455 5.20467 3.80161 5.20467 3.88863L5.19936 8.16338ZM5.90096 6.66232L7.55964 5.71056L9.21858 6.66232V8.56583L7.55964 9.51759L5.90096 8.56583V6.66232Z" fill="black"/>
</svg>
