<svg width="217" height="33" viewBox="0 0 217 33" fill="none" xmlns="http://www.w3.org/2000/svg">
<path d="M13.651 0H203.35C205.792 0 207.609 -1.59328e-05 209.045 0.119634C210.388 0.228406 211.383 0.44055 212.231 0.837569L212.4 0.919096C213.885 1.67506 215.114 2.8553 215.924 4.30741L216.082 4.60106C216.533 5.48755 216.767 6.52091 216.881 7.95671C217.001 9.39251 217.001 11.209 217.001 13.6509V18.437C217.001 20.8789 217.001 22.6954 216.881 24.1312C216.767 25.567 216.533 26.6003 216.082 27.4868C215.326 28.9716 214.146 30.2007 212.694 31.011L212.4 31.1688C211.514 31.6202 210.48 31.854 209.045 31.9683C207.609 32.0879 205.792 32.0879 203.35 32.0879H13.651C11.2091 32.0879 9.39244 32.0879 7.95664 31.9683C6.52085 31.854 5.48755 31.6202 4.60106 31.1688C3.01842 30.3584 1.72945 29.0695 0.919096 27.4868C0.46769 26.6003 0.233978 25.567 0.119767 24.1312C0.000116846 22.6954 0 20.8789 0 18.437V13.6509C0 11.209 0.000116846 9.39251 0.119767 7.95671C0.233978 6.52091 0.46769 5.48755 0.919096 4.60106C1.72945 3.01842 3.01842 1.72945 4.60106 0.919096C5.48755 0.46769 6.52085 0.233845 7.95664 0.119634C9.39244 -1.59328e-05 11.2091 0 13.651 0Z" stroke="black" stroke-opacity="0.1" stroke-width="0.543863"/>
</svg>
