<svg width="53" height="5" viewBox="0 0 53 5" fill="none" xmlns="http://www.w3.org/2000/svg">
<path d="M1.09304 2.44738C1.09304 2.19177 1.15278 1.96346 1.27786 1.75135C1.40295 1.54469 1.56607 1.376 1.77818 1.25635C1.98484 1.13127 2.21871 1.07153 2.46889 1.07153C2.68644 1.07153 2.89317 1.11504 3.07808 1.21294C3.26299 1.30539 3.42077 1.4359 3.54042 1.59906C3.66007 1.75678 3.73617 1.9417 3.7688 2.14836H3.20874C3.1761 1.99064 3.0891 1.86 2.94769 1.76211C2.80629 1.65878 2.64837 1.6045 2.46889 1.6045C2.31661 1.6045 2.1752 1.64255 2.05011 1.71869C1.91958 1.79483 1.82192 1.8982 1.74578 2.02329C1.66964 2.14837 1.63159 2.28966 1.63159 2.44738C1.63159 2.59966 1.66964 2.74108 1.74578 2.86617C1.82192 2.99125 1.91958 3.09462 2.05011 3.17076C2.1752 3.2469 2.31661 3.28495 2.46889 3.28495C2.64837 3.28495 2.80083 3.23599 2.92592 3.13265C3.05101 3.02932 3.12698 2.89881 3.15961 2.74109H3.71993C3.69274 2.94776 3.62197 3.13268 3.50775 3.29584C3.39354 3.459 3.24667 3.58406 3.06719 3.68196C2.88772 3.77442 2.68644 3.82337 2.46889 3.82337C2.21871 3.82337 1.98484 3.75819 1.77818 3.63854C1.56607 3.51345 1.40295 3.34477 1.27786 3.1381C1.15278 2.93143 1.09304 2.69756 1.09304 2.44738ZM2.44738 4.89476C2.11019 4.89476 1.79475 4.82958 1.49562 4.70449C1.20194 4.57396 0.940787 4.39994 0.717803 4.17696C0.489381 3.94854 0.315355 3.69282 0.184828 3.3937C0.0597399 3.10001 0 2.78458 0 2.44738C0 2.10475 0.0650511 1.78931 0.190139 1.49562C0.320666 1.20194 0.494819 0.940919 0.717803 0.717936C0.946225 0.489513 1.20181 0.315493 1.50093 0.190405C1.79462 0.059878 2.11019 0 2.44738 0C2.78458 0 3.10002 0.059878 3.39914 0.190405C3.69283 0.315493 3.95371 0.489513 4.17669 0.717936C4.39968 0.940919 4.57369 1.20194 4.69878 1.49562C4.82931 1.78931 4.89476 2.10475 4.89476 2.44738C4.89476 2.78458 4.83488 3.10001 4.70436 3.3937C4.57927 3.69282 4.40525 3.94854 4.18227 4.17696C3.95385 4.39994 3.69827 4.57396 3.39914 4.70449C3.10002 4.82958 2.78458 4.89476 2.44738 4.89476ZM2.44738 4.35634C2.70844 4.35634 2.95841 4.30739 3.19227 4.20949C3.42069 4.10616 3.62742 3.97032 3.80146 3.79628C3.9755 3.62225 4.11146 3.42095 4.20936 3.18709C4.30725 2.95867 4.35621 2.70844 4.35621 2.44738C4.35621 2.18089 4.30194 1.93622 4.20405 1.70236C4.10615 1.47394 3.97019 1.2672 3.79615 1.09317C3.62211 0.919133 3.42082 0.783167 3.18696 0.685272C2.95854 0.587377 2.70844 0.533107 2.44738 0.533107C2.18633 0.533107 1.93596 0.587377 1.70754 0.685272C1.47911 0.783167 1.27238 0.919138 1.09835 1.09861C0.924311 1.27265 0.788473 1.47394 0.685139 1.7078C0.587244 1.93622 0.538286 2.18089 0.538286 2.44738C0.532847 2.70844 0.581805 2.95323 0.685139 3.18709C0.783035 3.41551 0.919 3.62225 1.09304 3.79628C1.26707 3.97032 1.4738 4.10616 1.70223 4.20949C1.93609 4.30739 2.18089 4.35634 2.44738 4.35634ZM7.76066 4.81868V4.3999L9.32719 2.68678C9.5121 2.48555 9.66443 2.31154 9.77864 2.1647C9.89829 2.01241 9.99061 1.87099 10.045 1.74047C10.1048 1.60994 10.1321 1.46852 10.1321 1.32168C10.1321 1.15852 10.0939 1.01166 10.0123 0.892009C9.93619 0.766921 9.82736 0.674453 9.68596 0.60919C9.54999 0.538488 9.39792 0.505888 9.22389 0.505888C9.04441 0.505888 8.88105 0.543937 8.74509 0.620078C8.61456 0.696218 8.51132 0.799595 8.43518 0.93556C8.36448 1.07153 8.3263 1.22374 8.3263 1.40865H7.77713C7.77713 1.13128 7.84232 0.886491 7.97284 0.674384C8.09793 0.462278 8.27195 0.299172 8.49493 0.184961C8.71791 0.0653113 8.96829 0.00544394 9.24566 0.00544394C9.52303 0.00544394 9.7677 0.0653113 9.98524 0.184961C10.1973 0.299172 10.3659 0.456956 10.4856 0.658185C10.6106 0.859414 10.6704 1.07694 10.6704 1.32168C10.6704 1.49572 10.6378 1.66973 10.578 1.83832C10.5127 2.00148 10.4039 2.1864 10.2516 2.38763C10.0993 2.5943 9.88725 2.83897 9.61532 3.13265L8.54937 4.26937V4.30748H10.7519V4.81868H7.76066ZM13.2593 4.88401C12.9112 4.88401 12.612 4.7861 12.3673 4.60119C12.1226 4.4054 11.9322 4.12801 11.8017 3.76906C11.6766 3.39924 11.6113 2.96405 11.6113 2.44738C11.6113 1.93071 11.6766 1.49566 11.8017 1.13128C11.9376 0.766889 12.1226 0.489503 12.3673 0.299151C12.6175 0.10336 12.9112 0.00544394 13.2593 0.00544394C13.6074 0.00544394 13.901 0.10336 14.1457 0.299151C14.3959 0.489503 14.5808 0.766889 14.7114 1.13128C14.8419 1.49566 14.9127 1.93071 14.9127 2.44738C14.9127 2.96405 14.8472 3.39924 14.7167 3.76906C14.5862 4.12801 14.3958 4.4054 14.151 4.60119C13.9063 4.7861 13.6074 4.88401 13.2593 4.88401ZM13.2593 4.37268C13.6074 4.37268 13.8739 4.20412 14.0642 3.87236C14.26 3.54061 14.3523 3.06195 14.3523 2.44738C14.3523 2.03405 14.309 1.68601 14.222 1.39776C14.1349 1.10408 14.0099 0.886549 13.8467 0.734268C13.6836 0.581986 13.4877 0.505888 13.2593 0.505888C12.9167 0.505888 12.6502 0.674453 12.4544 1.01709C12.264 1.35428 12.166 1.82738 12.166 2.44738C12.166 2.85528 12.2096 3.20344 12.2967 3.49169C12.3837 3.77993 12.5086 3.99746 12.6663 4.14974C12.8349 4.29658 13.0309 4.37268 13.2593 4.37268ZM15.7882 4.81868V4.3999L17.36 2.68678C17.5395 2.48555 17.6918 2.31154 17.8115 2.1647C17.9311 2.01241 18.018 1.87099 18.0779 1.74047C18.1322 1.60994 18.165 1.46852 18.165 1.32168C18.165 1.15852 18.1213 1.01166 18.0452 0.892009C17.9636 0.766921 17.8548 0.674453 17.7188 0.60919C17.5829 0.538488 17.4253 0.505888 17.2567 0.505888C17.0718 0.505888 16.9139 0.543937 16.7779 0.620078C16.642 0.696218 16.5386 0.799595 16.4625 0.93556C16.3918 1.07153 16.3539 1.22374 16.3539 1.40865H15.81C15.81 1.13128 15.8753 0.886491 16.0004 0.674384C16.1309 0.462278 16.3048 0.299172 16.5278 0.184961C16.7453 0.0653113 16.9956 0.00544394 17.2729 0.00544394C17.5503 0.00544394 17.8004 0.0653113 18.0125 0.184961C18.2301 0.299172 18.3988 0.456956 18.5184 0.658185C18.6381 0.859414 18.7032 1.07694 18.7032 1.32168C18.7032 1.49572 18.6708 1.66973 18.6055 1.83832C18.5457 2.00148 18.4367 2.1864 18.2845 2.38763C18.1267 2.5943 17.9148 2.83897 17.6429 3.13265L16.5769 4.26937V4.30748H18.7848V4.81868H15.7882ZM21.2268 4.88401C20.9549 4.88401 20.7101 4.82959 20.4926 4.72082C20.275 4.61205 20.0957 4.46517 19.9652 4.27482C19.8346 4.0899 19.7639 3.8724 19.753 3.6331H20.3077C20.3295 3.8452 20.4274 4.02467 20.6014 4.16607C20.7755 4.30204 20.9821 4.37268 21.2268 4.37268C21.4226 4.37268 21.5913 4.32917 21.7436 4.23671C21.8959 4.14425 22.0154 4.0192 22.1024 3.86148C22.1894 3.69832 22.2383 3.51884 22.2383 3.31761C22.2383 3.11095 22.1895 2.92602 22.0971 2.76286C22.0101 2.59971 21.8849 2.4692 21.7271 2.37674C21.5694 2.28429 21.3901 2.23533 21.1889 2.22989C21.042 2.22989 20.895 2.25171 20.7427 2.30066C20.5904 2.34417 20.4601 2.4039 20.3622 2.4746L19.8236 2.40941L20.112 0.0707712H22.5809V0.58197H20.5959L20.4272 1.97973H20.4546C20.5525 1.90359 20.6774 1.83828 20.8243 1.78933C20.9711 1.74038 21.1236 1.71325 21.2813 1.71325C21.5695 1.71325 21.8304 1.78389 22.0588 1.91985C22.2873 2.06125 22.4669 2.24619 22.5974 2.48549C22.7279 2.72479 22.7931 3.00216 22.7931 3.30673C22.7931 3.61129 22.7225 3.88322 22.5865 4.11708C22.456 4.35638 22.271 4.54131 22.0317 4.67727C21.7979 4.81324 21.526 4.88401 21.2268 4.88401ZM29.4501 1.55551H28.8789C28.8408 1.39235 28.781 1.24548 28.6994 1.12039C28.6124 0.9953 28.5146 0.892057 28.3895 0.805039C28.2753 0.718021 28.1394 0.652699 27.998 0.60919C27.8512 0.565681 27.6987 0.543863 27.541 0.543863C27.2528 0.543863 26.9917 0.620083 26.7579 0.761487C26.5295 0.90833 26.3447 1.1204 26.2087 1.40321C26.0727 1.68602 26.0018 2.03405 26.0018 2.44738C26.0018 2.85528 26.0727 3.20344 26.2087 3.48624C26.3447 3.76905 26.5295 3.98112 26.7579 4.12796C26.9917 4.27481 27.2528 4.34546 27.541 4.34546C27.6987 4.34546 27.8512 4.32377 27.998 4.28026C28.1394 4.23675 28.2753 4.17144 28.3895 4.08986C28.5146 4.00284 28.6124 3.89415 28.6994 3.76906C28.781 3.64397 28.8408 3.49711 28.8789 3.33395H29.4501C29.4066 3.57868 29.3304 3.7962 29.2161 3.98655C29.1019 4.17691 28.9605 4.34015 28.7865 4.47611C28.6179 4.60664 28.4276 4.70987 28.2155 4.78057C28.0034 4.85127 27.7803 4.88401 27.541 4.88401C27.1385 4.88401 26.7743 4.78609 26.4589 4.58486C26.1489 4.38907 25.8985 4.10623 25.719 3.74184C25.5341 3.37746 25.4471 2.94773 25.4471 2.44738C25.4471 1.94703 25.5341 1.512 25.719 1.14761C25.8985 0.78322 26.1489 0.500385 26.4589 0.304595C26.7743 0.108804 27.1385 0.00544394 27.541 0.00544394C27.7803 0.00544394 28.0034 0.0436205 28.2155 0.114323C28.4276 0.179586 28.6179 0.282819 28.7865 0.418785C28.9605 0.549312 29.1019 0.712545 29.2161 0.902897C29.3304 1.09325 29.4066 1.31077 29.4501 1.55551ZM30.8533 2.67589V4.81868H30.3039V0.0707712H30.8533V1.81655H30.8966C30.9836 1.63164 31.1089 1.48476 31.2721 1.37599C31.4407 1.26722 31.669 1.21294 31.9463 1.21294C32.1911 1.21294 32.4031 1.26176 32.5826 1.35966C32.7675 1.45211 32.9091 1.60443 33.007 1.80022C33.1103 2.00145 33.1591 2.2517 33.1591 2.55626V4.81868H32.6153V2.59423C32.6153 2.31143 32.5391 2.0939 32.3922 1.93618C32.2508 1.7839 32.0497 1.70236 31.7886 1.70236C31.6091 1.70236 31.4513 1.74041 31.3045 1.81655C31.1685 1.89269 31.0544 2.00152 30.9728 2.14836C30.8912 2.29521 30.8533 2.46923 30.8533 2.67589ZM35.2095 4.90021C34.9811 4.90021 34.7799 4.86215 34.595 4.77513C34.4101 4.68811 34.2632 4.56305 34.1545 4.3999C34.0511 4.23674 33.9967 4.0409 33.9967 3.80704C33.9967 3.60581 34.0349 3.43726 34.1165 3.31217C34.1981 3.18164 34.3013 3.08372 34.4373 3.01302C34.5732 2.93688 34.72 2.88247 34.8832 2.84983C35.0463 2.81176 35.2096 2.78462 35.3782 2.76286C35.5903 2.73023 35.7697 2.71399 35.9002 2.69767C36.0362 2.68135 36.1394 2.65952 36.1993 2.62145C36.2645 2.58338 36.2919 2.52364 36.2919 2.43663V2.42029C36.2919 2.18643 36.2319 2.01241 36.1068 1.88732C35.9818 1.75679 35.7968 1.69691 35.5412 1.69691C35.2801 1.69691 35.079 1.75133 34.9267 1.86554C34.7799 1.97976 34.6766 2.1048 34.6168 2.22989L34.0947 2.04493C34.1872 1.83282 34.3122 1.66426 34.4699 1.53917C34.6222 1.41952 34.7961 1.33253 34.9756 1.28902C35.1605 1.23463 35.3455 1.21294 35.525 1.21294C35.6392 1.21294 35.7696 1.22372 35.9164 1.25635C36.0687 1.27811 36.2103 1.33796 36.3517 1.41954C36.4931 1.50112 36.6074 1.62618 36.6998 1.79477C36.7923 1.96337 36.8411 2.19179 36.8411 2.4746V4.81868H36.2919V4.3347H36.2646C36.2265 4.41628 36.1668 4.49784 36.0798 4.58486C35.9927 4.67187 35.8786 4.74797 35.7372 4.80779C35.5903 4.87306 35.4162 4.90021 35.2095 4.90021ZM35.291 4.41078C35.5086 4.41078 35.6936 4.36729 35.8405 4.28571C35.9873 4.19869 36.1013 4.08986 36.1775 3.95389C36.2536 3.81793 36.2919 3.67651 36.2919 3.52966V3.02935C36.2702 3.05654 36.2211 3.08381 36.1395 3.10557C36.0634 3.12732 35.9765 3.149 35.8731 3.16532C35.7698 3.18163 35.6719 3.19255 35.5794 3.20342C35.4815 3.2143 35.4054 3.22521 35.3511 3.23609C35.2042 3.2524 35.0736 3.27955 34.9485 3.32306C34.8288 3.36657 34.7309 3.42644 34.6548 3.50802C34.5786 3.5896 34.5406 3.69829 34.5406 3.83426C34.5406 4.02461 34.6114 4.17148 34.7528 4.26937C34.8942 4.36183 35.0735 4.41078 35.291 4.41078ZM39.3865 1.25635V1.72413H37.5427V1.25635H39.3865ZM38.081 0.407897H38.6249V3.79628C38.6249 3.954 38.6523 4.06816 38.6958 4.1443C38.7393 4.22044 38.799 4.27484 38.8697 4.30204C38.9404 4.32379 39.0219 4.3347 39.0981 4.3347C39.1579 4.3347 39.207 4.3347 39.2505 4.32926C39.2886 4.31838 39.3157 4.31292 39.3429 4.30748L39.4515 4.80235C39.4135 4.81323 39.3646 4.82958 39.2994 4.84046C39.2287 4.85677 39.147 4.86768 39.0436 4.86768C38.8914 4.86768 38.7393 4.8295 38.5925 4.76424C38.4456 4.69898 38.3204 4.59574 38.2225 4.45978C38.1301 4.32381 38.081 4.15512 38.081 3.94845V0.407897ZM43.5305 1.55551C43.4761 1.39779 43.4111 1.26181 43.3295 1.13672C43.2479 1.01163 43.1444 0.902812 43.0302 0.815794C42.9214 0.728776 42.7911 0.663581 42.6497 0.614634C42.5028 0.565686 42.345 0.543863 42.1764 0.543863C41.8936 0.543863 41.6379 0.620083 41.4095 0.761487C41.1756 0.90833 40.9963 1.1204 40.8603 1.40321C40.7244 1.68602 40.6537 2.03405 40.6537 2.44738C40.6537 2.85528 40.7244 3.20344 40.8603 3.48624C40.9963 3.76905 41.1865 3.98112 41.4204 4.12796C41.6543 4.27481 41.9207 4.34546 42.2144 4.34546C42.4863 4.34546 42.7258 4.28573 42.9325 4.17152C43.1391 4.0573 43.3021 3.88862 43.4163 3.67652C43.536 3.45897 43.5958 3.20885 43.5958 2.92061L43.77 2.95327H42.3395V2.44738H44.1506V2.95327C44.1506 3.34485 44.069 3.68742 43.9004 3.97567C43.7318 4.26391 43.5035 4.48689 43.2153 4.64461C42.9216 4.80233 42.5897 4.88401 42.2144 4.88401C41.7902 4.88401 41.4203 4.78609 41.1049 4.58486C40.7895 4.38907 40.5394 4.10623 40.3653 3.74184C40.1859 3.37746 40.099 2.94773 40.099 2.44738C40.099 2.07212 40.1478 1.73499 40.2511 1.43043C40.349 1.1313 40.4959 0.875736 40.6808 0.663629C40.8657 0.451523 41.0832 0.288284 41.3389 0.174073C41.5945 0.0653007 41.8719 0.00544394 42.1764 0.00544394C42.4266 0.00544394 42.6604 0.0436258 42.8725 0.119767C43.0954 0.195907 43.286 0.299156 43.4546 0.440561C43.6286 0.576526 43.77 0.739765 43.8842 0.930116C43.9984 1.11503 44.08 1.32708 44.1235 1.55551H43.5305ZM45.135 4.81868V0.0707712H46.7395C47.1093 0.0707712 47.4137 0.141404 47.653 0.271931C47.8869 0.407897 48.0665 0.587372 48.1807 0.815794C48.2949 1.03878 48.3493 1.29447 48.3493 1.57184C48.3493 1.85465 48.2949 2.11021 48.1807 2.33864C48.0665 2.56706 47.8925 2.74653 47.6586 2.8825C47.4193 3.01846 47.1147 3.08379 46.7448 3.08379H45.5973V2.5779H46.7286C46.9842 2.5779 47.1908 2.52896 47.3431 2.44194C47.4954 2.35492 47.6097 2.23532 47.6804 2.08848C47.7511 1.9362 47.7837 1.76219 47.7837 1.57184C47.7837 1.38149 47.7511 1.21292 47.6804 1.06608C47.6097 0.913801 47.4954 0.79951 47.3431 0.712492C47.1854 0.625474 46.9788 0.58197 46.7177 0.58197H45.7115V4.81868H45.135ZM49.0183 0.58197V0.0707712H52.5751V0.58197H51.0848V4.81868H50.5083V0.58197H49.0183Z" fill="black" fill-opacity="0.4"/>
</svg>
