<svg width="40" height="6" viewBox="0 0 40 6" fill="none" xmlns="http://www.w3.org/2000/svg">
<path d="M4.67196 1.80559H3.99744C3.95937 1.61524 3.88873 1.44118 3.79084 1.29977C3.69294 1.15293 3.57321 1.02788 3.4318 0.929984C3.29584 0.82665 3.1435 0.750485 2.96947 0.701537C2.80087 0.65259 2.62698 0.625389 2.44207 0.625389C2.10488 0.625389 1.80022 0.712457 1.52829 0.881055C1.26179 1.04965 1.04442 1.29983 0.886698 1.63159C0.723539 1.95791 0.647165 2.36579 0.647165 2.84439C0.647165 3.32299 0.723539 3.72544 0.886698 4.05719C1.04442 4.38895 1.26179 4.63913 1.52829 4.80773C1.80022 4.97632 2.10488 5.06333 2.44207 5.06333C2.62698 5.06333 2.80087 5.03612 2.96947 4.98718C3.1435 4.93279 3.29584 4.86213 3.4318 4.7588C3.57321 4.6609 3.69294 4.53578 3.79084 4.38894C3.88873 4.2421 3.95937 4.07347 3.99744 3.88312H4.67196C4.61757 4.16593 4.52498 4.41612 4.39445 4.64454C4.25849 4.86752 4.09537 5.0579 3.89414 5.21018C3.69835 5.3679 3.47525 5.48757 3.23051 5.56915C2.98577 5.64529 2.71944 5.68878 2.44207 5.68878C1.96891 5.68878 1.54997 5.57456 1.18014 5.3407C0.815751 5.11228 0.522151 4.78593 0.315483 4.35628C0.103376 3.93207 0 3.42632 0 2.84439C0 2.26246 0.103376 1.75664 0.315483 1.32699C0.522151 0.90278 0.815751 0.576436 1.18014 0.348014C1.54997 0.114153 1.96891 0 2.44207 0C2.71944 0 2.98577 0.0380544 3.23051 0.119634C3.47525 0.201213 3.69835 0.320882 3.89414 0.478602C4.09537 0.630883 4.25849 0.82119 4.39445 1.04417C4.52498 1.26716 4.61757 1.52279 4.67196 1.80559ZM7.35303 5.69967C6.97777 5.69967 6.65142 5.61266 6.36861 5.43318C6.0858 5.25371 5.8684 5.00353 5.70525 4.68265C5.55296 4.36177 5.47129 3.98647 5.47129 3.55682C5.47129 3.12716 5.55296 2.74648 5.70525 2.42561C5.8684 2.10473 6.0858 1.84911 6.36861 1.67507C6.65142 1.4956 6.97777 1.40314 7.35303 1.40314C7.7283 1.40314 8.05465 1.4956 8.33745 1.67507C8.62026 1.84911 8.84323 2.10473 8.99551 2.42561C9.15867 2.74648 9.23477 3.12716 9.23477 3.55682C9.23477 3.98647 9.15867 4.36177 8.99551 4.68265C8.84323 5.00353 8.62026 5.25371 8.33745 5.43318C8.05465 5.61266 7.7283 5.69967 7.35303 5.69967ZM7.35303 5.12859C7.64128 5.12859 7.87516 5.05243 8.05464 4.90558C8.23955 4.75874 8.37565 4.56842 8.46811 4.32912C8.55513 4.09526 8.5985 3.83419 8.5985 3.55682C8.5985 3.27945 8.55513 3.02387 8.46811 2.77913C8.37565 2.53983 8.23955 2.34945 8.05464 2.2026C7.87516 2.05032 7.64128 1.9796 7.35303 1.9796C7.07022 1.9796 6.83634 2.05032 6.65143 2.2026C6.46651 2.34945 6.33055 2.53983 6.24353 2.77913C6.15651 3.02387 6.10757 3.27945 6.10757 3.55682C6.10757 3.83419 6.15651 4.09526 6.24353 4.32912C6.33055 4.56842 6.46651 4.75874 6.65143 4.90558C6.83634 5.05243 7.07022 5.12859 7.35303 5.12859ZM10.8502 3.11632V5.61263H10.2083V1.45751H10.8284V2.11019H10.8828C10.9753 1.89808 11.1276 1.72945 11.3234 1.59892C11.5246 1.4684 11.7801 1.40314 12.0901 1.40314C12.3729 1.40314 12.6178 1.46294 12.8299 1.57715C13.042 1.69136 13.205 1.86544 13.3246 2.0993C13.4388 2.32772 13.4988 2.6214 13.4988 2.97491V5.61263H12.8626V3.0184C12.8626 2.69208 12.7754 2.43645 12.6068 2.25698C12.4382 2.07206 12.2045 1.9796 11.9108 1.9796C11.7041 1.9796 11.5245 2.02317 11.3614 2.11019C11.2036 2.19721 11.0786 2.32771 10.9861 2.49631C10.8937 2.66491 10.8502 2.87158 10.8502 3.11632ZM16.4683 1.45751V2.00138H14.3199V1.45751H16.4683ZM14.9453 0.46227H15.5819V4.42161C15.5819 4.60108 15.609 4.73705 15.6634 4.8295C15.7178 4.91652 15.7828 4.97632 15.8644 5.00895C15.9514 5.03615 16.0385 5.05244 16.1364 5.05244C16.2071 5.05244 16.2616 5.04699 16.3106 5.04155C16.3541 5.03067 16.3867 5.02528 16.4139 5.01984L16.5443 5.59086C16.5007 5.60717 16.4411 5.62354 16.365 5.63985C16.2889 5.65617 16.1909 5.66701 16.0713 5.66701C15.8918 5.66701 15.7124 5.62896 15.5383 5.55281C15.3697 5.47124 15.2282 5.35701 15.114 5.19385C14.9997 5.03613 14.9453 4.83491 14.9453 4.59561V0.46227ZM18.6546 5.71056C18.3882 5.71056 18.1487 5.6616 17.9366 5.5637C17.719 5.46037 17.5505 5.3135 17.4254 5.12859C17.3003 4.9328 17.235 4.70436 17.235 4.43243C17.235 4.19313 17.2841 4.00281 17.3765 3.85597C17.469 3.70369 17.594 3.58946 17.7517 3.50244C17.9095 3.42086 18.0836 3.35561 18.2685 3.3121C18.4643 3.2686 18.6547 3.23593 18.845 3.21418C19.1007 3.18155 19.3018 3.15435 19.4595 3.13803C19.6173 3.12172 19.7367 3.08913 19.8074 3.05106C19.8781 3.00755 19.9163 2.93684 19.9163 2.8335V2.81173C19.9163 2.54523 19.8457 2.33856 19.6988 2.19172C19.552 2.03943 19.3345 1.96878 19.0408 1.96878C18.7362 1.96878 18.4967 2.03404 18.3227 2.17001C18.1541 2.30053 18.0291 2.44189 17.9584 2.59417L17.3547 2.37668C17.4635 2.1265 17.6049 1.93067 17.7844 1.78926C17.9693 1.64786 18.1652 1.55 18.3827 1.49018C18.6003 1.43579 18.8123 1.40314 19.019 1.40314C19.155 1.40314 19.3073 1.41944 19.4813 1.45207C19.6554 1.4847 19.8238 1.54996 19.9869 1.64785C20.1501 1.74575 20.2861 1.89262 20.3948 2.08841C20.5036 2.2842 20.5582 2.54523 20.5582 2.87699V5.61263H19.9163V5.05244H19.8836C19.8401 5.13946 19.7695 5.23737 19.6662 5.3407C19.5683 5.44403 19.4322 5.53104 19.2636 5.60174C19.1004 5.67245 18.8939 5.71056 18.6546 5.71056ZM18.7471 5.13403C19.0027 5.13403 19.2149 5.08507 19.3889 4.98718C19.5629 4.88928 19.6933 4.75878 19.7803 4.6065C19.8728 4.44878 19.9163 4.28016 19.9163 4.11157V3.52422C19.8891 3.55685 19.8292 3.58944 19.7368 3.61663C19.6498 3.63839 19.5465 3.66014 19.4269 3.68189C19.3072 3.69821 19.1931 3.71457 19.0843 3.73089C18.9701 3.74177 18.8831 3.75261 18.8124 3.76349C18.6492 3.78524 18.4915 3.81791 18.35 3.86685C18.2086 3.9158 18.0889 3.98645 18.0019 4.08435C17.9149 4.1768 17.8715 4.30193 17.8715 4.46509C17.8715 4.68807 17.9531 4.85663 18.1217 4.97085C18.2848 5.07962 18.4969 5.13403 18.7471 5.13403ZM23.4079 5.69967C23.0163 5.69967 22.6845 5.60721 22.4017 5.42229C22.1189 5.23738 21.9068 4.98719 21.7545 4.66087C21.6022 4.33999 21.5261 3.97015 21.5261 3.55682C21.5261 3.13804 21.6024 2.76282 21.7601 2.44194C21.9124 2.11562 22.1352 1.86543 22.4126 1.68052C22.6954 1.4956 23.0217 1.40314 23.397 1.40314C23.6907 1.40314 23.9518 1.45755 24.1857 1.56633C24.4195 1.6751 24.6099 1.82736 24.7622 2.02315C24.9145 2.21894 25.0068 2.44193 25.0395 2.70298H24.4032C24.3542 2.51263 24.2454 2.34401 24.0768 2.2026C23.9136 2.05032 23.6907 1.9796 23.4079 1.9796C23.1577 1.9796 22.9403 2.04492 22.7554 2.17545C22.565 2.30054 22.4235 2.48001 22.3201 2.71931C22.2168 2.94773 22.1624 3.2251 22.1624 3.53511C22.1624 3.85599 22.2169 4.13875 22.3148 4.37261C22.4182 4.61191 22.5595 4.79683 22.7498 4.92736C22.9347 5.05789 23.1577 5.12859 23.4079 5.12859C23.571 5.12859 23.7233 5.09594 23.8593 5.04155C23.9953 4.98172 24.1094 4.90017 24.2019 4.79139C24.2943 4.68262 24.3651 4.55211 24.4032 4.39983H25.0395C25.0068 4.64457 24.9145 4.86754 24.7731 5.06333C24.6317 5.25912 24.4466 5.41139 24.2128 5.53104C23.9843 5.63981 23.7124 5.69967 23.4079 5.69967ZM27.7805 1.45751V2.00138H25.6269V1.45751H27.7805ZM26.2523 0.46227H26.8941V4.42161C26.8941 4.60108 26.9214 4.73705 26.9703 4.8295C27.0247 4.91652 27.0953 4.97632 27.1769 5.00895C27.2639 5.03615 27.3508 5.05244 27.4433 5.05244C27.514 5.05244 27.574 5.04699 27.6175 5.04155C27.661 5.03067 27.6989 5.02528 27.7261 5.01984L27.8568 5.59086C27.8132 5.60717 27.7535 5.62354 27.6719 5.63985C27.5958 5.65617 27.4979 5.66701 27.3782 5.66701C27.1987 5.66701 27.0246 5.62896 26.8506 5.55281C26.6765 5.47124 26.5351 5.35701 26.4209 5.19385C26.3121 5.03613 26.2523 4.83491 26.2523 4.59561V0.46227ZM34.6006 0.0760823H35.2695V3.74178C35.2695 4.12248 35.1827 4.45967 35.0032 4.75335C34.8291 5.05248 34.5789 5.28629 34.258 5.45489C33.9317 5.62349 33.5565 5.71056 33.1214 5.71056C32.6864 5.71056 32.3055 5.62349 31.9846 5.45489C31.6637 5.28629 31.4136 5.05248 31.2341 4.75335C31.0546 4.45967 30.9675 4.12248 30.9675 3.74178V0.0760823H31.6364V3.68734C31.6364 3.95927 31.6963 4.19861 31.816 4.41072C31.9356 4.61738 32.1042 4.78593 32.3272 4.90558C32.5447 5.02523 32.8114 5.0851 33.1214 5.0851C33.426 5.0851 33.6925 5.02523 33.9155 4.90558C34.1384 4.78593 34.3069 4.61738 34.4211 4.41072C34.5407 4.19861 34.6006 3.95927 34.6006 3.68734V0.0760823ZM39.4683 2.3875L38.8917 2.55068C38.8591 2.45823 38.8047 2.36576 38.734 2.27331C38.6633 2.18085 38.5708 2.10469 38.4512 2.04486C38.3315 1.98504 38.1793 1.95789 37.9944 1.95789C37.7388 1.95789 37.5319 2.01769 37.3579 2.1319C37.1947 2.24611 37.1077 2.39298 37.1077 2.57246C37.1077 2.73018 37.1677 2.85524 37.2819 2.94769C37.3961 3.04015 37.5755 3.11632 37.8202 3.18158L38.4403 3.32844C38.8101 3.42089 39.0875 3.55686 39.267 3.74178C39.4519 3.92669 39.5442 4.16596 39.5442 4.4542C39.5442 4.6935 39.4736 4.90564 39.3376 5.09599C39.2017 5.2809 39.0114 5.42771 38.7667 5.53648C38.5274 5.64526 38.2445 5.69967 37.9182 5.69967C37.494 5.69967 37.1458 5.60721 36.8685 5.42229C36.5911 5.23738 36.4172 4.9709 36.3411 4.61739L36.9447 4.46509C37.0045 4.68807 37.1133 4.85663 37.271 4.97085C37.4342 5.07962 37.6463 5.13403 37.9073 5.13403C38.2064 5.13403 38.4403 5.07422 38.6198 4.94914C38.7938 4.81861 38.8809 4.66634 38.8809 4.48687C38.8809 4.34546 38.8318 4.22035 38.7284 4.1279C38.6305 4.02456 38.473 3.95384 38.2664 3.9049L37.5756 3.74178C37.1949 3.64932 36.9121 3.51334 36.7381 3.32299C36.5586 3.13264 36.4715 2.8933 36.4715 2.60506C36.4715 2.3712 36.5366 2.16452 36.6672 1.98505C36.8031 1.80557 36.9826 1.66422 37.211 1.56088C37.4395 1.45755 37.7062 1.40314 37.9944 1.40314C38.4078 1.40314 38.7285 1.4956 38.9624 1.67507C39.2017 1.85455 39.3649 2.09381 39.4683 2.3875Z" fill="#9F9FF8"/>
</svg>
