<svg width="3" height="6" viewBox="0 0 3 6" fill="none" xmlns="http://www.w3.org/2000/svg">
<path d="M2.37117 0.995245V1.75667H0V0.995245H2.37117ZM0.581837 0H1.55537V3.91041C1.55537 4.04637 1.57705 4.14423 1.61512 4.21493C1.65863 4.28564 1.71291 4.33459 1.77818 4.35634C1.84344 4.38354 1.91435 4.39439 1.99593 4.39439C2.05576 4.39439 2.11561 4.389 2.16456 4.38356C2.21351 4.37269 2.25687 4.36722 2.28406 4.35634L2.44738 5.12865C2.393 5.14497 2.32221 5.16672 2.22431 5.18847C2.12642 5.21022 2.01213 5.22107 1.87617 5.22651C1.63143 5.23195 1.40847 5.1939 1.21811 5.11232C1.02232 5.03074 0.864678 4.90024 0.750467 4.7262C0.636255 4.55216 0.581837 4.33458 0.581837 4.07352V0Z" fill="black"/>
</svg>
