<svg width="60" height="8" viewBox="0 0 60 8" fill="none" xmlns="http://www.w3.org/2000/svg">
<path d="M0 5.53655V0H3.32293V0.592858H0.674517V2.46371H3.07277V3.06195H0.674517V5.53655H0ZM5.765 5.62359C5.38973 5.62359 5.06338 5.53657 4.78057 5.3571C4.49776 5.17762 4.2801 4.92744 4.11694 4.60657C3.96466 4.28569 3.88325 3.91038 3.88325 3.48073C3.88325 3.05108 3.96466 2.6704 4.11694 2.34952C4.2801 2.02864 4.49776 1.77303 4.78057 1.59899C5.06338 1.41952 5.38973 1.32706 5.765 1.32706C6.14026 1.32706 6.47205 1.41952 6.74942 1.59899C7.03223 1.77303 7.25506 2.02864 7.41278 2.34952C7.5705 2.6704 7.64674 3.05108 7.64674 3.48073C7.64674 3.91038 7.5705 4.28569 7.41278 4.60657C7.25506 4.92744 7.03223 5.17762 6.74942 5.3571C6.47205 5.53657 6.14026 5.62359 5.765 5.62359ZM5.765 5.0525C6.05324 5.0525 6.28713 4.97634 6.4666 4.8295C6.65151 4.68266 6.78735 4.49234 6.87981 4.25304C6.96683 4.01918 7.01046 3.7581 7.01046 3.48073C7.01046 3.20336 6.96683 2.94779 6.87981 2.70305C6.78735 2.46375 6.65151 2.27336 6.4666 2.12652C6.28713 1.97424 6.05324 1.90352 5.765 1.90352C5.48219 1.90352 5.24831 1.97424 5.06339 2.12652C4.87848 2.27336 4.74251 2.46375 4.6555 2.70305C4.56848 2.94779 4.52484 3.20336 4.52484 3.48073C4.52484 3.7581 4.56848 4.01918 4.6555 4.25304C4.74251 4.49234 4.87848 4.68266 5.06339 4.8295C5.24831 4.97634 5.48219 5.0525 5.765 5.0525ZM8.62027 5.53655V1.38143H9.24035V2.01233H9.28364C9.35978 1.80566 9.49574 1.63704 9.69153 1.51195C9.89276 1.38143 10.1159 1.31617 10.3661 1.31617C10.4096 1.31617 10.4693 1.32162 10.54 1.32162C10.6107 1.32162 10.6651 1.32706 10.6977 1.32706V1.97967C10.676 1.97423 10.627 1.96339 10.5509 1.95251C10.4747 1.94164 10.3932 1.93618 10.3116 1.93618C10.1049 1.93618 9.92547 1.97968 9.76775 2.06126C9.61003 2.14284 9.48485 2.2625 9.39783 2.40934C9.30537 2.55618 9.26186 2.71937 9.26186 2.90972V5.53655H8.62027ZM13.0038 7.17903C12.6993 7.17903 12.4328 7.14097 12.2098 7.05939C11.9868 6.98325 11.8019 6.87988 11.6551 6.7548C11.5082 6.62971 11.3939 6.49374 11.3069 6.3469L11.8181 5.99338C11.8725 6.06408 11.9486 6.15115 12.0356 6.24904C12.1226 6.34694 12.2424 6.43394 12.3946 6.50464C12.5524 6.58078 12.7537 6.61883 13.0038 6.61883C13.341 6.61883 13.6183 6.53728 13.8358 6.37412C14.0534 6.21096 14.1622 5.96077 14.1622 5.6127V4.76968H14.1078C14.0588 4.84583 13.9935 4.93829 13.9065 5.0525C13.8249 5.16128 13.6998 5.25919 13.5421 5.34621C13.3844 5.42779 13.1669 5.47129 12.895 5.47129C12.5632 5.47129 12.2586 5.38968 11.9921 5.23195C11.731 5.07423 11.5191 4.84587 11.3614 4.54131C11.2091 4.23674 11.133 3.87234 11.133 3.43725C11.133 3.01304 11.2089 2.64319 11.3558 2.32775C11.5081 2.01231 11.7147 1.76214 11.9812 1.59355C12.2477 1.41407 12.5578 1.32706 12.9058 1.32706C13.1778 1.32706 13.3953 1.37601 13.553 1.46302C13.7107 1.55548 13.8358 1.65334 13.9174 1.76755C14.0044 1.88176 14.0697 1.96879 14.1186 2.04493H14.184V1.38143H14.7985V5.65618C14.7985 6.01513 14.7169 6.30337 14.5592 6.52635C14.3961 6.74933 14.1784 6.91795 13.9065 7.02128C13.64 7.12462 13.3356 7.17903 13.0038 7.17903ZM12.9821 4.90021C13.2377 4.90021 13.4551 4.84041 13.6345 4.72076C13.8086 4.60654 13.9447 4.43792 14.0371 4.21493C14.1296 3.99739 14.1731 3.73636 14.1731 3.42636C14.1731 3.12724 14.1296 2.86621 14.0371 2.63779C13.9501 2.40393 13.8142 2.22446 13.6401 2.09937C13.4606 1.96884 13.2431 1.90352 12.9821 1.90352C12.7156 1.90352 12.487 1.96879 12.3075 2.11019C12.1281 2.24615 11.9922 2.43107 11.9052 2.6595C11.8182 2.88792 11.7746 3.14899 11.7746 3.42636C11.7746 3.71461 11.8182 3.97024 11.9052 4.19323C11.9977 4.41077 12.1336 4.58478 12.3131 4.70987C12.4926 4.83496 12.7156 4.90021 12.9821 4.90021ZM17.6538 5.62359C17.2785 5.62359 16.9521 5.53657 16.6693 5.3571C16.3865 5.17762 16.169 4.92744 16.0113 4.60657C15.8536 4.28569 15.772 3.91038 15.772 3.48073C15.772 3.05108 15.8536 2.6704 16.0113 2.34952C16.169 2.02864 16.3865 1.77303 16.6693 1.59899C16.9521 1.41952 17.2785 1.32706 17.6538 1.32706C18.029 1.32706 18.3608 1.41952 18.6382 1.59899C18.921 1.77303 19.1441 2.02864 19.3018 2.34952C19.4595 2.6704 19.5355 3.05108 19.5355 3.48073C19.5355 3.91038 19.4595 4.28569 19.3018 4.60657C19.1441 4.92744 18.921 5.17762 18.6382 5.3571C18.3608 5.53657 18.029 5.62359 17.6538 5.62359ZM17.6538 5.0525C17.942 5.0525 18.176 4.97634 18.3609 4.8295C18.5404 4.68266 18.6764 4.49234 18.7688 4.25304C18.8559 4.01918 18.8992 3.7581 18.8992 3.48073C18.8992 3.20336 18.8559 2.94779 18.7688 2.70305C18.6764 2.46375 18.5404 2.27336 18.3609 2.12652C18.176 1.97424 17.942 1.90352 17.6538 1.90352C17.3709 1.90352 17.1371 1.97424 16.9522 2.12652C16.7672 2.27336 16.6313 2.46375 16.5443 2.70305C16.4572 2.94779 16.4139 3.20336 16.4139 3.48073C16.4139 3.7581 16.4572 4.01918 16.5443 4.25304C16.6313 4.49234 16.7672 4.68266 16.9522 4.8295C17.1371 4.97634 17.3709 5.0525 17.6538 5.0525ZM22.3201 1.38143V1.92529H20.1665V1.38143H22.3201ZM20.7919 0.386188H21.4337V4.34552C21.4337 4.525 21.4553 4.66096 21.5097 4.75342C21.564 4.84044 21.6295 4.90024 21.7165 4.93287C21.7981 4.96006 21.8904 4.97636 21.9829 4.97636C22.0536 4.97636 22.1081 4.97091 22.1571 4.96547C22.2006 4.95459 22.2385 4.9492 22.2657 4.94376L22.3964 5.51477C22.3528 5.53109 22.2874 5.54745 22.2113 5.56377C22.1351 5.58009 22.0372 5.59092 21.9176 5.59092C21.7381 5.59092 21.5588 5.55287 21.3902 5.47673C21.2161 5.39515 21.0747 5.28092 20.9605 5.11776C20.8463 4.96004 20.7919 4.75883 20.7919 4.51953V0.386188ZM25.5071 5.53655V0H27.378C27.813 0 28.1665 0.07617 28.4439 0.23389C28.7213 0.39161 28.9227 0.598297 29.0587 0.864789C29.1946 1.13128 29.2597 1.42497 29.2597 1.75129C29.2597 2.07761 29.1946 2.3713 29.0587 2.64323C28.9281 2.90972 28.7214 3.12179 28.4495 3.27951C28.1721 3.43723 27.8185 3.5134 27.3888 3.5134H26.0457V2.92054H27.3671C27.6608 2.92054 27.9002 2.8662 28.0851 2.76286C28.2646 2.66497 28.395 2.52356 28.4766 2.34952C28.5581 2.17005 28.5963 1.97427 28.5963 1.75129C28.5963 1.5283 28.5581 1.33247 28.4766 1.15843C28.395 0.978955 28.2645 0.842984 28.0796 0.745089C27.9001 0.641755 27.6553 0.592858 27.3562 0.592858H26.176V5.53655H25.5071ZM31.4734 5.63447C31.2123 5.63447 30.9729 5.58552 30.7553 5.48762C30.5432 5.38429 30.3748 5.23742 30.2497 5.0525C30.1192 4.85671 30.0593 4.62828 30.0593 4.35634C30.0593 4.11704 30.1027 3.92673 30.2006 3.77988C30.293 3.6276 30.4183 3.51338 30.5761 3.42636C30.7338 3.34478 30.9022 3.27953 31.0926 3.23602C31.2829 3.19251 31.4788 3.15985 31.6691 3.1381C31.9193 3.10547 32.1259 3.07826 32.2836 3.06195C32.4413 3.04563 32.5556 3.01305 32.6318 2.97498C32.7025 2.93147 32.7406 2.86075 32.7406 2.75742V2.73564C32.7406 2.46915 32.6643 2.26248 32.5229 2.11563C32.376 1.96335 32.1585 1.8927 31.8648 1.8927C31.5603 1.8927 31.3211 1.95796 31.147 2.09392C30.973 2.22445 30.8534 2.3658 30.7827 2.51809L30.1791 2.30059C30.2824 2.05042 30.429 1.85458 30.6085 1.71318C30.7934 1.57178 30.9892 1.47392 31.2068 1.4141C31.4189 1.35971 31.6309 1.32706 31.843 1.32706C31.9736 1.32706 32.1315 1.34336 32.3001 1.37599C32.4795 1.40862 32.6425 1.47388 32.8057 1.57177C32.9688 1.66967 33.1103 1.81654 33.2136 2.01233C33.3224 2.20812 33.3769 2.46915 33.3769 2.80091V5.53655H32.7406V4.97636H32.708C32.6645 5.06337 32.5938 5.16128 32.4905 5.26462C32.3926 5.36795 32.2565 5.45496 32.0879 5.52566C31.9193 5.59636 31.7181 5.63447 31.4734 5.63447ZM31.5711 5.05795C31.8267 5.05795 32.0391 5.00899 32.2077 4.91109C32.3871 4.8132 32.5176 4.6827 32.6047 4.53042C32.6971 4.3727 32.7406 4.20408 32.7406 4.03548V3.44814C32.7134 3.48077 32.6536 3.51336 32.5611 3.54055C32.4741 3.5623 32.3653 3.58406 32.2456 3.60581C32.1314 3.62213 32.0173 3.63849 31.9031 3.65481C31.7943 3.66568 31.7071 3.67653 31.6364 3.6874C31.4733 3.70916 31.3155 3.74182 31.1741 3.79077C31.0273 3.83972 30.9132 3.91037 30.8262 4.00826C30.7392 4.10072 30.6956 4.22585 30.6956 4.38901C30.6956 4.61199 30.7773 4.78055 30.9404 4.89476C31.109 5.00354 31.3155 5.05795 31.5711 5.05795ZM37.483 2.31142L36.912 2.4746C36.8739 2.38214 36.8195 2.28968 36.7543 2.19723C36.6836 2.10477 36.5911 2.0286 36.4715 1.96878C36.3518 1.90895 36.1996 1.88181 36.0147 1.88181C35.7591 1.88181 35.5467 1.94161 35.3782 2.05582C35.2096 2.17003 35.128 2.3169 35.128 2.49638C35.128 2.6541 35.1826 2.77915 35.3022 2.87161C35.4164 2.96407 35.5957 3.04024 35.8405 3.1055L36.455 3.25235C36.8303 3.34481 37.1078 3.48078 37.2872 3.66569C37.4667 3.85061 37.5592 4.08987 37.5592 4.37812C37.5592 4.61742 37.494 4.82956 37.3526 5.01991C37.222 5.20482 37.0317 5.35163 36.7869 5.4604C36.5422 5.56917 36.2594 5.62359 35.9385 5.62359C35.5143 5.62359 35.1661 5.53112 34.8887 5.34621C34.6059 5.1613 34.432 4.89482 34.3613 4.54131L34.9649 4.38901C35.0248 4.61199 35.1336 4.78055 35.2913 4.89476C35.4545 5.00354 35.6665 5.05795 35.9276 5.05795C36.2267 5.05795 36.4605 4.99814 36.6345 4.87305C36.814 4.74253 36.9011 4.59026 36.9011 4.41078C36.9011 4.26938 36.852 4.14427 36.7487 4.05182C36.6454 3.94848 36.4933 3.87776 36.2866 3.82881L35.5903 3.66569C35.2096 3.57324 34.9322 3.43726 34.7528 3.24691C34.5787 3.05656 34.4864 2.81722 34.4864 2.52897C34.4864 2.29511 34.5569 2.08844 34.6874 1.90896C34.818 1.72949 35.0029 1.58813 35.2313 1.4848C35.4597 1.38147 35.721 1.32706 36.0147 1.32706C36.4226 1.32706 36.7488 1.41952 36.9827 1.59899C37.2165 1.77847 37.3851 2.01773 37.483 2.31142ZM41.4642 2.31142L40.8877 2.4746C40.855 2.38214 40.8006 2.28968 40.7299 2.19723C40.6592 2.10477 40.5668 2.0286 40.4471 1.96878C40.3275 1.90895 40.175 1.88181 39.9901 1.88181C39.7399 1.88181 39.5279 1.94161 39.3538 2.05582C39.1907 2.17003 39.1037 2.3169 39.1037 2.49638C39.1037 2.6541 39.1637 2.77915 39.2779 2.87161C39.3921 2.96407 39.5714 3.04024 39.8162 3.1055L40.4362 3.25235C40.8061 3.34481 41.0834 3.48078 41.2629 3.66569C41.4478 3.85061 41.5402 4.08987 41.5402 4.37812C41.5402 4.61742 41.4695 4.82956 41.3336 5.01991C41.1976 5.20482 41.0073 5.35163 40.7626 5.4604C40.5233 5.56917 40.2405 5.62359 39.9141 5.62359C39.4899 5.62359 39.1418 5.53112 38.8644 5.34621C38.587 5.1613 38.4131 4.89482 38.337 4.54131L38.9406 4.38901C39.0004 4.61199 39.1091 4.78055 39.2723 4.89476C39.43 5.00354 39.6422 5.05795 39.9033 5.05795C40.2024 5.05795 40.4363 4.99814 40.6157 4.87305C40.7898 4.74253 40.8768 4.59026 40.8768 4.41078C40.8768 4.26938 40.8278 4.14427 40.7299 4.05182C40.6266 3.94848 40.4687 3.87776 40.262 3.82881L39.5716 3.66569C39.1909 3.57324 38.908 3.43726 38.734 3.24691C38.5545 3.05656 38.4674 2.81722 38.4674 2.52897C38.4674 2.29511 38.5326 2.08844 38.6631 1.90896C38.7991 1.72949 38.9785 1.58813 39.207 1.4848C39.4408 1.38147 39.7018 1.32706 39.9901 1.32706C40.4034 1.32706 40.7245 1.41952 40.9583 1.59899C41.1976 1.77847 41.3663 2.01773 41.4642 2.31142ZM43.4384 5.53655L42.1764 1.38143H42.8454L43.743 4.56301H43.7865L44.6729 1.38143H45.3528L46.2283 4.55213H46.2719L47.1692 1.38143H47.8437L46.5765 5.53655H45.9511L45.0426 2.34408H44.9775L44.0691 5.53655H43.4384ZM50.2311 5.62359C49.8558 5.62359 49.5295 5.53657 49.2466 5.3571C48.9638 5.17762 48.741 4.92744 48.5833 4.60657C48.4256 4.28569 48.3493 3.91038 48.3493 3.48073C48.3493 3.05108 48.4256 2.6704 48.5833 2.34952C48.741 2.02864 48.9638 1.77303 49.2466 1.59899C49.5295 1.41952 49.8558 1.32706 50.2311 1.32706C50.6063 1.32706 50.9327 1.41952 51.2155 1.59899C51.4983 1.77303 51.7158 2.02864 51.8735 2.34952C52.0313 2.6704 52.1128 3.05108 52.1128 3.48073C52.1128 3.91038 52.0313 4.28569 51.8735 4.60657C51.7158 4.92744 51.4983 5.17762 51.2155 5.3571C50.9327 5.53657 50.6063 5.62359 50.2311 5.62359ZM50.2311 5.0525C50.5139 5.0525 50.7478 4.97634 50.9327 4.8295C51.1176 4.68266 51.2536 4.49234 51.3406 4.25304C51.433 4.01918 51.4765 3.7581 51.4765 3.48073C51.4765 3.20336 51.433 2.94779 51.3406 2.70305C51.2536 2.46375 51.1176 2.27336 50.9327 2.12652C50.7478 1.97424 50.5139 1.90352 50.2311 1.90352C49.9483 1.90352 49.7144 1.97424 49.5295 2.12652C49.3446 2.27336 49.2086 2.46375 49.1216 2.70305C49.0291 2.94779 48.9856 3.20336 48.9856 3.48073C48.9856 3.7581 49.0291 4.01918 49.1216 4.25304C49.2086 4.49234 49.3446 4.68266 49.5295 4.8295C49.7144 4.97634 49.9483 5.0525 50.2311 5.0525ZM53.0863 5.53655V1.38143H53.7011V2.01233H53.7444C53.8205 1.80566 53.9621 1.63704 54.1579 1.51195C54.3537 1.38143 54.5821 1.31617 54.8268 1.31617C54.8758 1.31617 54.9356 1.32162 55.0063 1.32162C55.077 1.32162 55.126 1.32706 55.1641 1.32706V1.97967C55.1423 1.97423 55.0934 1.96339 55.0172 1.95251C54.9411 1.94164 54.8594 1.93618 54.7724 1.93618C54.5711 1.93618 54.3918 1.97968 54.2341 2.06126C54.0764 2.14284 53.951 2.2625 53.8586 2.40934C53.7716 2.55618 53.7226 2.71937 53.7226 2.90972V5.53655H53.0863ZM57.3613 5.62359C57.0187 5.62359 56.7086 5.53658 56.4475 5.36254C56.181 5.18307 55.9744 4.93289 55.8221 4.61201C55.6753 4.29113 55.5991 3.91037 55.5991 3.46985C55.5991 3.03476 55.6753 2.65407 55.8221 2.33319C55.9744 2.01231 56.181 1.76758 56.4475 1.59355C56.714 1.41407 57.0241 1.32706 57.3722 1.32706C57.6441 1.32706 57.8561 1.37601 58.0138 1.46302C58.1715 1.55548 58.2911 1.65334 58.3781 1.76755C58.4597 1.88176 58.5252 1.96879 58.5741 2.04493H58.6283V0H59.2648V5.53655H58.6501V4.90021H58.5741C58.5252 4.97635 58.4598 5.06881 58.3728 5.18303C58.2858 5.29724 58.1606 5.40061 58.0029 5.49306C57.8397 5.58008 57.6278 5.62359 57.3613 5.62359ZM57.4481 5.0525C57.7038 5.0525 57.9213 4.9818 58.0953 4.85128C58.2748 4.71531 58.4109 4.53038 58.4979 4.29108C58.5903 4.05178 58.6392 3.77446 58.6392 3.45902C58.6392 3.14902 58.5957 2.87703 58.5032 2.64861C58.4107 2.40931 58.2803 2.22989 58.1009 2.09937C57.9268 1.96884 57.7092 1.90352 57.4481 1.90352C57.1762 1.90352 56.9534 1.97422 56.7739 2.11019C56.5944 2.24615 56.4583 2.43652 56.3713 2.67038C56.2788 2.90424 56.2353 3.16534 56.2353 3.45902C56.2353 3.75815 56.2843 4.02463 56.3713 4.26393C56.4638 4.50323 56.5997 4.69899 56.7792 4.84039C56.9587 4.98179 57.1816 5.0525 57.4481 5.0525Z" fill="#9F9FF8"/>
</svg>
