<svg width="10" height="10" viewBox="0 0 10 10" fill="none" xmlns="http://www.w3.org/2000/svg">
<path d="M7.71738 5.14492L5.52015 4.34001L4.71525 2.14279C4.6663 2.01226 4.5793 1.90344 4.46509 1.82186C4.35632 1.74572 4.22037 1.70223 4.07897 1.70223C3.943 1.70223 3.80706 1.74572 3.69285 1.82186C3.57864 1.90344 3.49151 2.01226 3.448 2.14279L2.63779 4.33457L0.440561 5.14492C0.315472 5.19387 0.201346 5.28086 0.119767 5.38963C0.0436258 5.50384 0 5.63979 0 5.78119C0 5.91716 0.0436258 6.0531 0.119767 6.16732C0.201346 6.28153 0.315472 6.36308 0.440561 6.41203L2.63221 7.22782L3.44269 9.4196C3.49164 9.55013 3.5785 9.65895 3.68727 9.74053C3.80148 9.82211 3.93756 9.86016 4.07897 9.86016C4.21493 9.86016 4.35088 9.82211 4.46509 9.74053C4.5793 9.65895 4.66099 9.55013 4.70993 9.4196L5.52015 7.22782L7.71207 6.41747C7.84259 6.36852 7.95672 6.28697 8.03286 6.17276C8.11444 6.05855 8.15794 5.9226 8.15794 5.78664C8.15794 5.64523 8.11444 5.50928 8.03286 5.39507C7.95672 5.2863 7.84259 5.19931 7.71207 5.15036L7.71738 5.14492ZM5.28646 6.5861C5.194 6.62417 5.11232 6.67314 5.04162 6.74384C4.97091 6.81454 4.91651 6.8961 4.88387 6.98855L4.07897 9.17489L3.27406 6.98855C3.23599 6.8961 3.18702 6.81454 3.11632 6.74384C3.04562 6.67314 2.96393 6.62417 2.87148 6.5861L0.685139 5.78119L2.87148 4.97629C2.96393 4.93822 3.04562 4.88925 3.11632 4.81855C3.18702 4.74785 3.23599 4.66629 3.27406 4.57384L4.07897 2.3875L4.88387 4.57384C4.92195 4.66629 4.97091 4.74785 5.04162 4.81855C5.11232 4.88925 5.194 4.94366 5.28646 4.97629L7.4728 5.78119L5.28646 6.5861ZM5.43863 1.35966C5.43863 1.27264 5.47679 1.18552 5.53662 1.12026C5.60188 1.06043 5.68874 1.0224 5.78119 1.0224H6.46102V0.34257C6.46102 0.250113 6.49375 0.168566 6.55901 0.103302C6.62428 0.0380385 6.70582 0 6.79828 0C6.89074 0 6.97229 0.0380385 7.03755 0.103302C7.10281 0.168566 7.14085 0.250113 7.14085 0.34257V1.0224H7.82068C7.9077 1.0224 7.99468 1.06043 8.05995 1.12026C8.11977 1.18552 8.15794 1.27264 8.15794 1.35966C8.15794 1.45211 8.11977 1.5391 8.05995 1.60437C7.99468 1.66419 7.9077 1.70223 7.82068 1.70223H7.14085V2.38205C7.14085 2.47451 7.10281 2.55606 7.03755 2.62132C6.97229 2.68659 6.89074 2.71931 6.79828 2.71931C6.70582 2.71931 6.62428 2.68659 6.55901 2.62132C6.49375 2.55606 6.46102 2.47451 6.46102 2.38205V1.70223H5.78119C5.68874 1.70223 5.60188 1.66419 5.53662 1.60437C5.47679 1.5391 5.43863 1.45211 5.43863 1.35966ZM9.86016 3.40445C9.86016 3.49147 9.82213 3.57859 9.75686 3.64385C9.6916 3.70368 9.61005 3.74171 9.51759 3.74171H9.18034V4.07897C9.18034 4.17143 9.1423 4.25842 9.07703 4.32368C9.01177 4.38351 8.93022 4.42154 8.83777 4.42154C8.74531 4.42154 8.66376 4.38351 8.5985 4.32368C8.53323 4.25842 8.50051 4.17143 8.50051 4.07897V3.74171H8.15794C8.06548 3.74171 7.98393 3.70368 7.91867 3.64385C7.85341 3.57859 7.82068 3.49147 7.82068 3.40445C7.82068 3.312 7.85341 3.225 7.91867 3.15974C7.98393 3.09992 8.06548 3.06188 8.15794 3.06188H8.50051V2.71931C8.50051 2.63229 8.53323 2.54518 8.5985 2.47991C8.66376 2.42009 8.74531 2.38205 8.83777 2.38205C8.93022 2.38205 9.01177 2.42009 9.07703 2.47991C9.1423 2.54518 9.18034 2.63229 9.18034 2.71931V3.06188H9.51759C9.61005 3.06188 9.6916 3.09992 9.75686 3.15974C9.82213 3.225 9.86016 3.312 9.86016 3.40445Z" fill="#AEC7ED"/>
</svg>
