<svg width="38" height="20" viewBox="0 0 38 20" fill="none" xmlns="http://www.w3.org/2000/svg">
<g opacity="0.2">
<path d="M0 0H1.57715L3.69285 5.15581H3.77437L5.89007 0H7.46722V7.11914H6.22707V2.22982H6.162L4.19316 7.09737H3.26849L1.30522 2.21894H1.23458V7.11914H0V0ZM11.1436 7.22244C10.6215 7.22244 10.1702 7.1083 9.78952 6.87987C9.40882 6.65145 9.10962 6.33056 8.89752 5.91723C8.69085 5.50389 8.58761 5.01983 8.58761 4.47053C8.58761 3.92123 8.69085 3.43717 8.89752 3.0184C9.10962 2.60506 9.40882 2.28417 9.78952 2.05575C10.1702 1.82189 10.6215 1.70774 11.1436 1.70774C11.6657 1.70774 12.1172 1.82189 12.4979 2.05575C12.8841 2.28417 13.1777 2.60506 13.3844 3.0184C13.5965 3.43717 13.7052 3.92123 13.7052 4.47053C13.7052 5.01983 13.5965 5.50389 13.3844 5.91723C13.1777 6.33056 12.8841 6.65145 12.4979 6.87987C12.1172 7.1083 11.6657 7.22244 11.1436 7.22244ZM11.1492 6.21631C11.432 6.21631 11.6713 6.14021 11.8617 5.98249C12.052 5.82477 12.1933 5.61264 12.2858 5.35159C12.3782 5.0851 12.4273 4.79141 12.4273 4.46509C12.4273 4.13877 12.3782 3.84508 12.2858 3.57859C12.1933 3.3121 12.052 3.09997 11.8617 2.94225C11.6713 2.78453 11.432 2.70842 11.1492 2.70842C10.8609 2.70842 10.6216 2.78453 10.4258 2.94225C10.2409 3.09997 10.0942 3.3121 10.0017 3.57859C9.90925 3.84508 9.86016 4.13877 9.86016 4.46509C9.86016 4.79141 9.90925 5.0851 10.0017 5.35159C10.0942 5.61264 10.2409 5.82477 10.4258 5.98249C10.6216 6.14021 10.8609 6.21631 11.1492 6.21631ZM16.0275 3.99193V7.11914H14.7714V1.77844H15.9733V2.68665H16.0384C16.158 2.38752 16.3538 2.14826 16.6258 1.97422C16.8977 1.80019 17.2296 1.70774 17.6267 1.70774C17.9965 1.70774 18.3171 1.78928 18.589 1.947C18.8664 2.10472 19.0786 2.33315 19.2309 2.63228C19.3832 2.9314 19.4593 3.29035 19.4593 3.72V7.11914H18.1976V3.91578C18.1976 3.55683 18.105 3.27944 17.9201 3.07821C17.7352 2.87698 17.4851 2.77369 17.1588 2.77369C16.9412 2.77369 16.7454 2.82264 16.5713 2.92054C16.4027 3.013 16.2668 3.1544 16.1743 3.33388C16.0764 3.51335 16.0275 3.73088 16.0275 3.99193ZM22.7171 7.21162C22.2984 7.21162 21.9229 7.1028 21.5912 6.8907C21.2594 6.67315 20.9984 6.36316 20.8081 5.94982C20.6123 5.54193 20.5199 5.04157 20.5199 4.4542C20.5199 3.86139 20.6123 3.36103 20.8081 2.95314C21.0038 2.54524 21.2705 2.23526 21.6076 2.0286C21.9394 1.81649 22.3091 1.70774 22.7225 1.70774C23.0325 1.70774 23.2935 1.76208 23.4947 1.87085C23.6959 1.97419 23.8538 2.09931 23.9735 2.24615C24.0931 2.393 24.1856 2.53441 24.2454 2.66494H24.2996V0H25.5615V7.11914H24.327V6.27613H24.2454C24.1856 6.40665 24.0876 6.54806 23.9679 6.68947C23.8428 6.83631 23.6797 6.95599 23.4785 7.05932C23.2773 7.16266 23.0217 7.21162 22.7171 7.21162ZM23.0706 6.17827C23.3371 6.17827 23.5655 6.10756 23.7504 5.96616C23.9408 5.81931 24.0822 5.61809 24.1801 5.35703C24.278 5.09598 24.327 4.79683 24.327 4.44876C24.327 4.10612 24.278 3.80155 24.1801 3.55137C24.0822 3.29576 23.9407 3.09454 23.7557 2.95314C23.5708 2.81173 23.3425 2.74102 23.0706 2.74102C22.7878 2.74102 22.5539 2.81718 22.369 2.96402C22.1786 3.10543 22.0374 3.30665 21.9449 3.5677C21.847 3.82332 21.798 4.117 21.798 4.44876C21.798 4.78051 21.847 5.07965 21.9449 5.3407C22.0428 5.60175 22.1841 5.80843 22.369 5.96071C22.5594 6.10755 22.7932 6.17827 23.0706 6.17827ZM28.4386 7.22789C28.1014 7.22789 27.7967 7.16809 27.5248 7.04844C27.2583 6.92335 27.0407 6.74387 26.883 6.50457C26.7307 6.26527 26.6546 5.97159 26.6546 5.62352C26.6546 5.31896 26.7091 5.06878 26.8179 4.87299C26.9321 4.6772 27.0843 4.51948 27.2746 4.39983C27.465 4.28018 27.6827 4.19317 27.9274 4.13334C28.1667 4.06808 28.4222 4.02457 28.6779 3.99738C28.9933 3.96474 29.2434 3.93753 29.4392 3.91034C29.635 3.88315 29.7766 3.83965 29.8636 3.78526C29.956 3.72544 29.9995 3.63842 29.9995 3.51877V3.497C29.9995 3.23594 29.9233 3.03472 29.7656 2.88788C29.6133 2.74647 29.3903 2.67032 29.0966 2.67032C28.7866 2.67032 28.5418 2.74102 28.3624 2.87699C28.1829 3.00751 28.0632 3.16523 28.0033 3.35014L26.8288 3.18158C26.9212 2.8607 27.0734 2.58878 27.2855 2.37123C27.4976 2.14825 27.7587 1.98507 28.0687 1.8763C28.3732 1.76753 28.7158 1.70774 29.0911 1.70774C29.3467 1.70774 29.6024 1.74033 29.858 1.80015C30.1136 1.85998 30.3474 1.9579 30.554 2.0993C30.7661 2.23527 30.935 2.4202 31.0655 2.6595C31.196 2.89336 31.2612 3.19248 31.2612 3.54599V7.11914H30.0484V6.38494H30.0049C29.9287 6.53178 29.8255 6.6732 29.6841 6.80372C29.5481 6.92881 29.3739 7.03212 29.1673 7.1137C28.9606 7.18984 28.716 7.22789 28.4386 7.22789ZM28.765 6.30335C29.0206 6.30335 29.2381 6.25438 29.423 6.15105C29.6079 6.05315 29.7494 5.91719 29.8527 5.7486C29.9506 5.58 30.0049 5.40053 30.0049 5.20473V4.57384C29.9668 4.60647 29.896 4.63912 29.8036 4.66632C29.7111 4.69351 29.6077 4.71527 29.4881 4.73702C29.3739 4.75878 29.2597 4.77508 29.1455 4.79139C29.0313 4.80771 28.9334 4.82407 28.8518 4.83495C28.6614 4.86214 28.493 4.9002 28.3462 4.96002C28.1993 5.01985 28.0795 5.1014 27.9925 5.20473C27.9109 5.30807 27.8674 5.43858 27.8674 5.60174C27.8674 5.83017 27.9489 6.00425 28.1175 6.1239C28.2861 6.24355 28.5039 6.30335 28.765 6.30335ZM33.1159 9.12058C32.9418 9.12058 32.7839 9.10967 32.6371 9.08248C32.4957 9.05528 32.3815 9.02263 32.2945 8.99L32.5882 8.01108C32.7677 8.06003 32.9308 8.08723 33.0776 8.08723C33.219 8.08179 33.3497 8.03828 33.4584 7.95127C33.5672 7.86425 33.6595 7.72282 33.7357 7.52159L33.8446 7.22789L31.9084 1.77844H33.2463L34.4755 5.81386H34.5297L35.7643 1.77844H37.1021L34.9649 7.76631C34.867 8.04911 34.7311 8.28846 34.5679 8.48969C34.4048 8.69635 34.2034 8.85406 33.9641 8.9574C33.7248 9.06617 33.4422 9.12058 33.1159 9.12058Z" fill="black"/>
<path d="M2.78965 19.0843L1.27783 13.5477H1.95766L3.11602 18.0564H3.17046L4.34503 13.5477H5.10665L6.28121 18.0564H6.33565L7.49401 13.5477H8.17384L6.66202 19.0843H5.9713L4.74761 14.6736H4.70406L3.48037 19.0843H2.78965ZM9.56085 16.588V19.0843H8.92457V13.5477H9.56085V15.5818H9.61502C9.71292 15.3643 9.85979 15.1957 10.0556 15.0706C10.2514 14.94 10.5124 14.8748 10.8387 14.8748C11.1215 14.8748 11.3718 14.9346 11.5839 15.0488C11.796 15.1576 11.9592 15.3316 12.0789 15.5655C12.1985 15.7939 12.2528 16.0876 12.2528 16.4466V19.0843H11.6165V16.49C11.6165 16.1583 11.5297 15.9027 11.3611 15.7232C11.1925 15.5437 10.9584 15.4512 10.6539 15.4512C10.4472 15.4512 10.257 15.4948 10.0938 15.5818C9.93066 15.6689 9.80002 15.7994 9.70212 15.968C9.60967 16.1366 9.56085 16.3432 9.56085 16.588ZM14.6458 19.1822C14.3793 19.1822 14.1455 19.1332 13.9279 19.0354C13.7158 18.932 13.5418 18.7851 13.4167 18.6002C13.2917 18.4044 13.2263 18.176 13.2263 17.9041C13.2263 17.6648 13.2754 17.4745 13.3679 17.3276C13.4603 17.1753 13.5854 17.0611 13.7431 16.9741C13.9008 16.8925 14.0749 16.8273 14.2652 16.7838C14.4556 16.7402 14.6459 16.7076 14.8417 16.6858C15.0919 16.6532 15.2985 16.626 15.4562 16.6097C15.614 16.5934 15.7281 16.5608 15.7988 16.5227C15.8749 16.4792 15.913 16.4085 15.913 16.3051V16.2834C15.913 16.0169 15.837 15.8102 15.6902 15.6634C15.5488 15.5111 15.3258 15.4404 15.0321 15.4404C14.7276 15.4404 14.4937 15.5057 14.3196 15.6417C14.1456 15.7722 14.026 15.9135 13.9553 16.0658L13.3461 15.8483C13.4549 15.5981 13.6016 15.4023 13.7811 15.2609C13.9606 15.1195 14.1617 15.0217 14.3738 14.9618C14.5914 14.9074 14.8037 14.8748 15.0104 14.8748C15.1463 14.8748 15.2984 14.8911 15.4724 14.9237C15.6465 14.9563 15.8152 15.0216 15.9783 15.1195C16.1415 15.2174 16.2774 15.3643 16.3862 15.5601C16.495 15.7559 16.5493 16.0169 16.5493 16.3486V19.0843H15.913V18.5241H15.8803C15.8368 18.6111 15.7607 18.709 15.6628 18.8123C15.5595 18.9157 15.4291 19.0027 15.2605 19.0734C15.0919 19.1441 14.885 19.1822 14.6458 19.1822ZM14.7437 18.6057C14.9939 18.6057 15.206 18.5567 15.38 18.4588C15.5541 18.3609 15.6846 18.2304 15.777 18.0781C15.864 17.9204 15.913 17.7518 15.913 17.5832V16.9959C15.8858 17.0285 15.8259 17.0611 15.7335 17.0883C15.641 17.11 15.5379 17.1318 15.4183 17.1535C15.2986 17.1699 15.1842 17.1862 15.0754 17.2025C14.9667 17.2134 14.8743 17.2243 14.8091 17.2351C14.6405 17.2569 14.4883 17.2896 14.3414 17.3385C14.2 17.3874 14.0856 17.4581 13.9986 17.556C13.9116 17.6485 13.8682 17.7736 13.8682 17.9367C13.8682 18.1597 13.9496 18.3283 14.1128 18.4425C14.2759 18.5513 14.4881 18.6057 14.7437 18.6057ZM19.519 14.9292V15.473H17.3651V14.9292H19.519ZM17.996 13.9339H18.6323V17.8933C18.6323 18.0727 18.6596 18.2087 18.7085 18.3011C18.7629 18.3882 18.8335 18.448 18.9151 18.4806C19.0021 18.5078 19.0893 18.5241 19.1817 18.5241C19.2524 18.5241 19.3122 18.5186 19.3557 18.5132C19.4046 18.5023 19.4374 18.4969 19.4646 18.4915L19.595 19.0625C19.5514 19.0788 19.4916 19.0952 19.4154 19.1115C19.3339 19.1278 19.2362 19.1387 19.122 19.1387C18.9371 19.1387 18.7628 19.1006 18.5888 19.0245C18.4202 18.9429 18.2734 18.8287 18.1647 18.6655C18.0504 18.5078 17.996 18.3066 17.996 18.0673V13.9339ZM22.1783 19.1713C21.7758 19.1713 21.4334 19.0843 21.1397 18.9048C20.8515 18.7254 20.6285 18.4806 20.4708 18.1597C20.3185 17.8389 20.2421 17.4636 20.2421 17.0394C20.2421 16.6151 20.3185 16.2399 20.4708 15.9136C20.6285 15.5873 20.846 15.3371 21.1288 15.1522C21.4062 14.9673 21.738 14.8748 22.1132 14.8748C22.3253 14.8748 22.5428 14.9128 22.7495 14.9835C22.9616 15.0597 23.1574 15.1739 23.326 15.3371C23.5001 15.4948 23.6414 15.7123 23.7392 15.9734C23.8426 16.2399 23.897 16.5662 23.897 16.9523V17.2242H20.6936V16.6749H23.2442C23.2442 16.4356 23.2007 16.229 23.1083 16.0441C23.0158 15.8592 22.8799 15.7178 22.7113 15.609C22.5427 15.5057 22.3417 15.4512 22.1132 15.4512C21.8576 15.4512 21.6345 15.5111 21.4496 15.6417C21.2701 15.7613 21.1288 15.9245 21.0255 16.1257C20.9276 16.3269 20.8787 16.539 20.8787 16.7674V17.1373C20.8787 17.4527 20.9329 17.7192 21.0417 17.9367C21.1505 18.1488 21.3027 18.3175 21.4985 18.4317C21.6943 18.5404 21.9172 18.6002 22.1783 18.6002C22.3415 18.6002 22.4938 18.573 22.6297 18.5295C22.7657 18.4806 22.8853 18.4044 22.9832 18.312C23.0811 18.2141 23.1626 18.0945 23.2116 17.9476L23.8317 18.1216C23.7664 18.3283 23.6576 18.5132 23.5053 18.6709C23.3476 18.8287 23.1628 18.9538 22.9343 19.0408C22.7114 19.1278 22.4557 19.1713 22.1783 19.1713ZM28.1337 14.9292L26.6001 19.0843H25.9527L24.4138 14.9292H25.1098L26.252 18.2413H26.2955L27.443 14.9292H28.1337ZM30.5702 19.1713C30.1732 19.1713 29.8252 19.0843 29.5369 18.9048C29.2487 18.7254 29.0257 18.4806 28.868 18.1597C28.7102 17.8389 28.634 17.4636 28.634 17.0394C28.634 16.6151 28.7102 16.2399 28.868 15.9136C29.0257 15.5873 29.2431 15.3371 29.5204 15.1522C29.8033 14.9673 30.1296 14.8748 30.5049 14.8748C30.7224 14.8748 30.9346 14.9128 31.1467 14.9835C31.3588 15.0597 31.5492 15.1739 31.7232 15.3371C31.8973 15.4948 32.0331 15.7123 32.1365 15.9734C32.2398 16.2399 32.2889 16.5662 32.2889 16.9523V17.2242H29.0908V16.6749H31.6415C31.6415 16.4356 31.5926 16.229 31.5002 16.0441C31.4077 15.8592 31.2771 15.7178 31.1085 15.609C30.9344 15.5057 30.7387 15.4512 30.5049 15.4512C30.2493 15.4512 30.0317 15.5111 29.8468 15.6417C29.6619 15.7613 29.5206 15.9245 29.4227 16.1257C29.3248 16.3269 29.2703 16.539 29.2703 16.7674V17.1373C29.2703 17.4527 29.3248 17.7192 29.4336 17.9367C29.5478 18.1488 29.7 18.3175 29.8904 18.4317C30.0862 18.5404 30.3146 18.6002 30.5702 18.6002C30.7388 18.6002 30.891 18.573 31.027 18.5295C31.1629 18.4806 31.2825 18.4044 31.3804 18.312C31.4783 18.2141 31.5547 18.0945 31.6091 17.9476L32.2236 18.1216C32.1583 18.3283 32.0495 18.5132 31.8972 18.6709C31.7449 18.8287 31.5545 18.9538 31.3315 19.0408C31.1031 19.1278 30.853 19.1713 30.5702 19.1713ZM33.2624 19.0843V14.9292H33.8769V15.5601H33.9205C33.9966 15.3534 34.1325 15.1848 34.3337 15.0597C34.5295 14.9292 34.7524 14.8639 35.0026 14.8639C35.0516 14.8639 35.1059 14.8693 35.1766 14.8693C35.2473 14.8693 35.3018 14.8748 35.3399 14.8748V15.5274C35.3181 15.522 35.269 15.5111 35.1874 15.5002C35.1113 15.4894 35.0352 15.4839 34.9482 15.4839C34.747 15.4839 34.5676 15.5274 34.4099 15.609C34.2522 15.6906 34.1271 15.8102 34.0347 15.9571C33.9422 16.1039 33.8987 16.2671 33.8987 16.4574V19.0843H33.2624Z" fill="black"/>
</g>
</svg>
