<svg width="522" height="43" viewBox="0 0 522 43" fill="none" xmlns="http://www.w3.org/2000/svg">
<path d="M20.6126 0H500.952C504.595 0 507.315 4.24821e-05 509.49 0.179517C511.503 0.342676 513.026 0.663555 514.331 1.26724L514.603 1.39232C516.941 2.57794 518.845 4.45419 520.041 6.75473L520.15 6.9778C520.857 8.33202 521.238 9.9037 521.401 12.0628C521.564 14.222 521.564 16.9521 521.564 20.6123V22.3528C521.564 26.013 521.564 28.7432 521.401 30.9023C521.238 32.9309 520.912 34.4373 520.313 35.7317L520.15 35.9873C519.008 38.3151 517.104 40.2241 514.82 41.4532L514.603 41.5728C513.243 42.2581 511.666 42.6116 509.49 42.7856C507.315 42.9651 504.595 42.9651 500.952 42.9651H20.6126C16.9524 42.9651 14.2218 42.9651 12.0627 42.7856C9.90357 42.6116 8.33202 42.2581 6.9778 41.5728C4.57393 40.3491 2.61575 38.3912 1.39205 35.9873C0.706788 34.6331 0.353553 33.0614 0.179517 30.9023C4.24821e-05 28.7432 0 26.013 0 22.3528V20.6123C0 16.9521 4.24821e-05 14.222 0.179517 12.0628C0.353553 9.9037 0.706788 8.33202 1.39205 6.9778C2.61575 4.57393 4.57393 2.61601 6.9778 1.39232C8.33202 0.707053 9.90357 0.353553 12.0627 0.179517C14.2218 4.24821e-05 16.9524 0 20.6126 0Z" stroke="black" stroke-opacity="0.1" stroke-width="0.543863"/>
</svg>
