<svg width="64" height="7" viewBox="0 0 64 7" fill="none" xmlns="http://www.w3.org/2000/svg">
<path d="M3.73096 1.77844C3.69288 1.46844 3.54056 1.22365 3.27951 1.04962C3.01301 0.875582 2.69212 0.788574 2.31142 0.788574C2.02861 0.788574 1.78394 0.837522 1.57184 0.92454C1.36517 1.017 1.20194 1.14205 1.08773 1.29977C0.968075 1.45749 0.913785 1.64241 0.913785 1.84364C0.913785 2.01223 0.951839 2.15366 1.03342 2.27875C1.115 2.3984 1.21837 2.49632 1.3489 2.5779C1.47399 2.65404 1.60995 2.71937 1.75135 2.77375C1.88732 2.8227 2.01783 2.86075 2.13748 2.89339L2.7792 3.06733C2.94235 3.11084 3.12727 3.1707 3.3285 3.24684C3.53517 3.32298 3.72556 3.42636 3.91047 3.55688C4.10082 3.68741 4.25303 3.85596 4.37812 4.05719C4.49777 4.26386 4.55764 4.51411 4.55764 4.80779C4.55764 5.15043 4.47062 5.46041 4.29115 5.73778C4.11167 6.00971 3.85066 6.23267 3.51346 6.39583C3.17083 6.55355 2.75748 6.6351 2.27344 6.6351C1.8166 6.6351 1.42493 6.56445 1.09317 6.4176C0.766851 6.27076 0.505835 6.06947 0.315483 5.80841C0.130569 5.54736 0.0217545 5.24283 0 4.89476H0.788707C0.810461 5.13406 0.892009 5.3299 1.02797 5.48762C1.16938 5.6399 1.34885 5.75949 1.56639 5.83563C1.78394 5.90634 2.02326 5.94438 2.27344 5.94438C2.56713 5.94438 2.82815 5.89543 3.06202 5.80297C3.29044 5.70508 3.47536 5.57455 3.61132 5.40052C3.74729 5.22648 3.81793 5.02533 3.81793 4.7969C3.81793 4.5848 3.75819 4.4161 3.63854 4.28557C3.52433 4.14961 3.36656 4.04635 3.1762 3.95934C2.98585 3.87776 2.77924 3.80698 2.55626 3.74715L1.77844 3.52422C1.28353 3.38281 0.891993 3.17622 0.603746 2.91516C0.315499 2.64867 0.168629 2.30595 0.168629 1.8763C0.168629 1.52279 0.26654 1.21281 0.456892 0.951759C0.652683 0.685267 0.9137 0.478657 1.23458 0.331815C1.56633 0.184972 1.93073 0.108746 2.33319 0.108746C2.74109 0.108746 3.10548 0.184972 3.42092 0.331815C3.73636 0.473219 3.99205 0.674363 4.17696 0.92454C4.36187 1.17472 4.45979 1.463 4.47067 1.77844H3.73096ZM8.71269 4.58472V1.77844H9.44151V6.52635H8.71269V5.72144H8.66383C8.54961 5.96618 8.3756 6.16735 8.14174 6.33595C7.90788 6.50454 7.60868 6.58623 7.25517 6.58623C6.95605 6.58623 6.68958 6.52092 6.46116 6.39583C6.23273 6.25986 6.04782 6.06402 5.91729 5.79753C5.78677 5.53647 5.72144 5.19936 5.72144 4.7969V1.77844H6.45027V4.74791C6.45027 5.09054 6.54818 5.36792 6.73853 5.57459C6.93432 5.78126 7.18443 5.88463 7.489 5.88463C7.66847 5.88463 7.85339 5.83568 8.0383 5.74322C8.22866 5.65076 8.38645 5.50934 8.51697 5.31899C8.6475 5.12864 8.71269 4.88385 8.71269 4.58472ZM10.7739 6.52635V1.77844H11.481V2.52346H11.5409C11.6388 2.26785 11.8019 2.07214 12.0194 1.93074C12.2424 1.78933 12.5089 1.71856 12.8134 1.71856C13.1289 1.71856 13.3899 1.78933 13.5966 1.93074C13.8087 2.07214 13.9719 2.26785 14.0861 2.52346H14.1404C14.2601 2.27873 14.4396 2.08303 14.6843 1.93618C14.929 1.78934 15.2173 1.71856 15.56 1.71856C15.9842 1.71856 16.3322 1.84907 16.5987 2.11557C16.8706 2.38206 17.0066 2.78997 17.0066 3.35015V6.52635H16.2779V3.35015C16.2779 3.00207 16.18 2.74652 15.9896 2.59968C15.7993 2.4474 15.5709 2.3713 15.3098 2.3713C14.9781 2.3713 14.7225 2.47453 14.5376 2.67576C14.3527 2.87699 14.2602 3.12725 14.2602 3.43725V6.52635H13.5205V3.27406C13.5205 3.00757 13.4335 2.79005 13.2594 2.62145C13.08 2.4583 12.857 2.3713 12.5796 2.3713C12.3893 2.3713 12.2152 2.42557 12.0466 2.52346C11.8889 2.6268 11.753 2.76821 11.6551 2.94225C11.5572 3.12172 11.5028 3.32847 11.5028 3.56233V6.52635H10.7739ZM18.3392 6.52635V1.77844H19.0461V2.52346H19.106C19.2039 2.26785 19.3615 2.07214 19.5845 1.93074C19.8075 1.78933 20.0686 1.71856 20.3786 1.71856C20.6941 1.71856 20.9551 1.78933 21.1618 1.93074C21.3684 2.07214 21.537 2.26785 21.6512 2.52346H21.7002C21.8253 2.27873 22.0048 2.08303 22.2495 1.93618C22.4888 1.78934 22.7824 1.71856 23.125 1.71856C23.5493 1.71856 23.892 1.84907 24.1639 2.11557C24.4358 2.38206 24.5664 2.78997 24.5664 3.35015V6.52635H23.8375V3.35015C23.8375 3.00207 23.7451 2.74652 23.5547 2.59968C23.3589 2.4474 23.1359 2.3713 22.8749 2.3713C22.5431 2.3713 22.2821 2.47453 22.0972 2.67576C21.9177 2.87699 21.8253 3.12725 21.8253 3.43725V6.52635H21.0856V3.27406C21.0856 3.00757 20.9931 2.79005 20.8191 2.62145C20.645 2.4583 20.4221 2.3713 20.1447 2.3713C19.9543 2.3713 19.7749 2.42557 19.6117 2.52346C19.4486 2.6268 19.318 2.76821 19.2147 2.94225C19.1168 3.12172 19.0679 3.32847 19.0679 3.56233V6.52635H18.3392ZM27.2966 6.6351C26.9974 6.6351 26.7255 6.58068 26.4808 6.46647C26.236 6.35226 26.0402 6.18915 25.8934 5.9716C25.7519 5.75406 25.6813 5.48758 25.6813 5.17758C25.6813 4.90565 25.7356 4.68813 25.8389 4.51953C25.9477 4.34549 26.0891 4.21497 26.2686 4.11708C26.4481 4.01918 26.6493 3.9484 26.8614 3.89945C27.079 3.8505 27.302 3.81245 27.5195 3.77982C27.8077 3.74719 28.0416 3.72005 28.2211 3.69829C28.406 3.67654 28.5365 3.64394 28.6181 3.59499C28.7051 3.55148 28.7432 3.46436 28.7432 3.35015V3.32306C28.7432 3.0185 28.6616 2.78461 28.493 2.61601C28.3299 2.44741 28.0796 2.36041 27.7424 2.36041C27.3944 2.36041 27.1224 2.43651 26.9266 2.58879C26.7254 2.74107 26.5894 2.90418 26.5079 3.07821L25.8173 2.82806C25.9369 2.53981 26.1055 2.31684 26.3121 2.15912C26.5188 1.99596 26.7472 1.88181 26.992 1.81655C27.2367 1.75129 27.4815 1.71856 27.7208 1.71856C27.8731 1.71856 28.0471 1.73493 28.2429 1.773C28.4441 1.81107 28.6344 1.88172 28.8247 1.99049C29.0096 2.1047 29.1674 2.27339 29.2871 2.49638C29.4121 2.71936 29.472 3.02388 29.472 3.39914V6.52635H28.7432V5.88463H28.7105C28.6561 5.98796 28.5746 6.09666 28.4604 6.21631C28.3462 6.33052 28.194 6.43388 27.9982 6.51546C27.8078 6.59704 27.5739 6.6351 27.2966 6.6351ZM27.4108 5.98249C27.699 5.98249 27.9437 5.92807 28.1394 5.81386C28.3407 5.69965 28.4876 5.55277 28.5909 5.3733C28.6942 5.19382 28.7432 5.00358 28.7432 4.80779V4.13885C28.716 4.17692 28.6454 4.20952 28.542 4.24215C28.4387 4.26935 28.319 4.29648 28.183 4.31824C28.047 4.33999 27.9165 4.3618 27.7914 4.37812C27.6663 4.389 27.563 4.39991 27.4868 4.41078C27.2965 4.43798 27.117 4.47604 26.9539 4.53586C26.7907 4.58481 26.6602 4.66636 26.5568 4.77513C26.459 4.8839 26.41 5.03078 26.41 5.21569C26.41 5.4713 26.5025 5.66156 26.6928 5.79208C26.8777 5.91717 27.1171 5.98249 27.4108 5.98249ZM30.8044 6.52635V1.77844H31.5115V2.49638H31.5604C31.6474 2.26252 31.8052 2.07214 32.0281 1.92529C32.2566 1.77845 32.5121 1.70767 32.7949 1.70767C32.8493 1.70767 32.9146 1.70767 32.9962 1.70767C33.0778 1.71311 33.1376 1.71312 33.1811 1.71856V2.45827C33.1539 2.45283 33.0996 2.44193 33.0071 2.43105C32.9201 2.42017 32.8331 2.40927 32.7352 2.40927C32.5013 2.40927 32.2946 2.45823 32.1151 2.55613C31.9356 2.64858 31.7942 2.78454 31.6909 2.95314C31.5875 3.1163 31.5333 3.30667 31.5333 3.52422V6.52635H30.8044ZM34.0458 6.52635V1.77844H34.7747V6.52635H34.0458ZM34.4156 0.989867C34.2742 0.989867 34.1492 0.940909 34.0458 0.843013C33.948 0.745118 33.8936 0.630833 33.8936 0.494867C33.8936 0.358901 33.948 0.244749 34.0458 0.146854C34.1492 0.0489582 34.2742 0 34.4156 0C34.557 0 34.6768 0.0489582 34.7801 0.146854C34.8834 0.244749 34.9324 0.358901 34.9324 0.494867C34.9324 0.630833 34.8834 0.745118 34.7801 0.843013C34.6768 0.940909 34.557 0.989867 34.4156 0.989867ZM35.9711 6.52635V5.9716L38.6687 2.50726V2.45827H36.0581V1.77844H39.6041V2.36041L36.9881 5.79753V5.84652H39.6912V6.52635H35.9711ZM42.6716 6.62421C42.2147 6.62421 41.8176 6.52641 41.4858 6.31975C41.1595 6.11852 40.904 5.83568 40.7245 5.47129C40.545 5.10146 40.458 4.67719 40.458 4.18772C40.458 3.70368 40.545 3.2741 40.7245 2.90427C40.904 2.53445 41.1541 2.24071 41.4695 2.03404C41.7904 1.82193 42.1657 1.71856 42.5953 1.71856C42.8455 1.71856 43.0849 1.75662 43.3296 1.84364C43.5689 1.92521 43.7864 2.05586 43.9877 2.24078C44.1835 2.42569 44.3411 2.67035 44.4608 2.97491C44.575 3.27404 44.6348 3.64933 44.6348 4.08986V4.3999H40.9747V3.76893H43.8953C43.8953 3.50244 43.8408 3.26323 43.7321 3.05113C43.6287 2.84446 43.4764 2.67578 43.2806 2.55613C43.0903 2.43648 42.8618 2.3713 42.5953 2.3713C42.3071 2.3713 42.0515 2.44739 41.8394 2.58879C41.6328 2.7302 41.4695 2.91512 41.3553 3.14354C41.2411 3.37196 41.1868 3.62207 41.1868 3.88312V4.3019C41.1868 4.66085 41.2466 4.96551 41.3717 5.21569C41.4967 5.46043 41.6708 5.6508 41.8937 5.77588C42.1167 5.90641 42.3779 5.9716 42.6716 5.9716C42.8619 5.9716 43.0359 5.94446 43.1882 5.89007C43.3459 5.83569 43.4819 5.754 43.5961 5.64523C43.7049 5.53102 43.7973 5.39517 43.8571 5.22658L44.5588 5.42774C44.488 5.66704 44.3629 5.87366 44.1888 6.05857C44.0148 6.23804 43.7973 6.37402 43.5362 6.47736C43.2806 6.57525 42.9924 6.62421 42.6716 6.62421ZM50.2584 1.77844V2.39839H47.7947V1.77844H50.2584ZM48.5126 0.641721H49.2413V5.16669C49.2413 5.37336 49.2741 5.5257 49.3339 5.62903C49.3937 5.73236 49.4698 5.79756 49.5677 5.83563C49.6656 5.86827 49.7635 5.88463 49.8723 5.88463C49.9539 5.88463 50.0191 5.87918 50.0735 5.87374C50.1224 5.86286 50.1659 5.85196 50.1931 5.84652L50.3454 6.49913C50.291 6.52088 50.2258 6.53726 50.1333 6.55901C50.0463 6.57533 49.9375 6.58623 49.8015 6.58623C49.5949 6.58623 49.3937 6.54273 49.1925 6.45571C48.9967 6.36869 48.8334 6.23273 48.7029 6.04781C48.5778 5.86834 48.5126 5.63991 48.5126 5.36254V0.641721ZM53.2931 6.62421C52.8362 6.62421 52.4393 6.52641 52.1075 6.31975C51.7812 6.11852 51.5256 5.83568 51.3461 5.47129C51.1667 5.10146 51.0797 4.67719 51.0797 4.18772C51.0797 3.70368 51.1667 3.2741 51.3461 2.90427C51.5256 2.53445 51.7757 2.24071 52.0912 2.03404C52.412 1.82193 52.7873 1.71856 53.217 1.71856C53.4672 1.71856 53.712 1.75662 53.9513 1.84364C54.1906 1.92521 54.4135 2.05586 54.6093 2.24078C54.8051 2.42569 54.9628 2.67035 55.0824 2.97491C55.1966 3.27404 55.2565 3.64933 55.2565 4.08986V4.3999H51.5963V3.76893H54.5168C54.5168 3.50244 54.4625 3.26323 54.3537 3.05113C54.2504 2.84446 54.0981 2.67578 53.9023 2.55613C53.7119 2.43648 53.4835 2.3713 53.217 2.3713C52.9288 2.3713 52.6786 2.44739 52.4665 2.58879C52.2544 2.7302 52.0912 2.91512 51.977 3.14354C51.8682 3.37196 51.8083 3.62207 51.8083 3.88312V4.3019C51.8083 4.66085 51.8682 4.96551 51.9933 5.21569C52.1184 5.46043 52.2924 5.6508 52.5154 5.77588C52.7384 5.90641 52.9994 5.9716 53.2931 5.9716C53.4834 5.9716 53.6576 5.94446 53.8099 5.89007C53.9676 5.83569 54.1035 5.754 54.2178 5.64523C54.332 5.53102 54.419 5.39517 54.4788 5.22658L55.1858 5.42774C55.1097 5.66704 54.9845 5.87366 54.8105 6.05857C54.6364 6.23804 54.4189 6.37402 54.1633 6.47736C53.9023 6.57525 53.614 6.62421 53.2931 6.62421ZM56.7848 1.77844L57.9214 3.72007L59.0581 1.77844H59.8956L58.3674 4.15505L59.8956 6.52635H59.0581L57.9214 4.68271L56.7848 6.52635H55.9418L57.4483 4.15505L55.9418 1.77844H56.7848ZM63.0011 1.77844V2.39839H60.5428V1.77844H63.0011ZM61.2607 0.641721H61.9896V5.16669C61.9896 5.37336 62.0167 5.5257 62.0765 5.62903C62.1418 5.73236 62.2179 5.79756 62.3158 5.83563C62.4083 5.86827 62.5116 5.88463 62.6204 5.88463C62.702 5.88463 62.7672 5.87918 62.8161 5.87374C62.8705 5.86286 62.9087 5.85196 62.9413 5.84652L63.0881 6.49913C63.0391 6.52088 62.9685 6.53726 62.8814 6.55901C62.7944 6.57533 62.6802 6.58623 62.5442 6.58623C62.3375 6.58623 62.1364 6.54273 61.9406 6.45571C61.7448 6.36869 61.5815 6.23273 61.451 6.04781C61.3259 5.86834 61.2607 5.63991 61.2607 5.36254V0.641721Z" fill="black"/>
</svg>
