<svg width="9" height="9" viewBox="0 0 9 9" fill="none" xmlns="http://www.w3.org/2000/svg">
<path d="M4.07897 0C1.78931 0 0 1.04428 0 2.37674V6.45571C0 7.78818 1.78931 8.83245 4.07897 8.83245C6.36863 8.83245 8.15794 7.78818 8.15794 6.45571V2.37674C8.15794 1.04428 6.36863 0 4.07897 0ZM7.47811 4.41623C7.47811 4.82412 7.14095 5.24295 6.55901 5.55839C5.90094 5.91734 5.01985 6.11314 4.07897 6.11314C3.13809 6.11314 2.257 5.91734 1.59892 5.55839C1.01699 5.24295 0.679828 4.82412 0.679828 4.41623V3.70918C1.40317 4.3455 2.64317 4.75349 4.07897 4.75349C5.51477 4.75349 6.75477 4.3455 7.47811 3.70918V4.41623ZM1.59892 1.23458C2.257 0.875629 3.13809 0.674517 4.07897 0.674517C5.01985 0.674517 5.90094 0.875629 6.55901 1.23458C7.14095 1.55002 7.47811 1.96885 7.47811 2.37674C7.47811 2.78464 7.14095 3.20347 6.55901 3.51891C5.90094 3.87786 5.01985 4.07897 4.07897 4.07897C3.13809 4.07897 2.257 3.87786 1.59892 3.51891C1.01699 3.20347 0.679828 2.78464 0.679828 2.37674C0.679828 1.96885 1.01699 1.55002 1.59892 1.23458ZM6.55901 7.59788C5.90094 7.95683 5.01985 8.15794 4.07897 8.15794C3.13809 8.15794 2.257 7.95683 1.59892 7.59788C1.01699 7.28244 0.679828 6.86361 0.679828 6.45571V5.74866C1.40317 6.38498 2.64317 6.79828 4.07897 6.79828C5.51477 6.79828 6.75477 6.38498 7.47811 5.74866V6.45571C7.47811 6.86361 7.14095 7.28244 6.55901 7.59788Z" fill="#96E2D6"/>
</svg>
