<svg width="50" height="8" viewBox="0 0 50 8" fill="none" xmlns="http://www.w3.org/2000/svg">
<path d="M0 5.71056V0.174007H1.87086C2.30595 0.174007 2.66487 0.250177 2.9368 0.407897C3.21417 0.565617 3.42092 0.772303 3.55688 1.0388C3.68741 1.30529 3.7526 1.59898 3.7526 1.92529C3.7526 2.25161 3.68741 2.54531 3.55688 2.81724C3.42092 3.08373 3.21975 3.29579 2.94238 3.45351C2.66501 3.61123 2.31683 3.6874 1.88174 3.6874H0.543863V3.09455H1.85997C2.15909 3.09455 2.39856 3.0402 2.57804 2.93687C2.75751 2.83898 2.88789 2.69757 2.96947 2.52353C3.05105 2.34406 3.09455 2.14828 3.09455 1.92529C3.09455 1.70231 3.05105 1.50647 2.96947 1.33244C2.88789 1.15296 2.75751 1.01699 2.57804 0.919096C2.39312 0.815762 2.15364 0.766865 1.84908 0.766865H0.674517V5.71056H0ZM4.74791 5.71056V1.55544H5.36241V2.18634H5.40596C5.4821 1.97967 5.61821 1.81105 5.81944 1.68596C6.01523 1.55543 6.2382 1.49018 6.48838 1.49018C6.53732 1.49018 6.59719 1.49562 6.66789 1.49562C6.73316 1.49562 6.7873 1.50107 6.82537 1.50107V2.15367C6.80361 2.14824 6.75466 2.1374 6.67851 2.12652C6.60237 2.11564 6.52095 2.11019 6.43394 2.11019C6.23271 2.11019 6.0531 2.15369 5.89538 2.23527C5.73766 2.31685 5.61261 2.4365 5.52015 2.58335C5.43313 2.73019 5.38419 2.89337 5.38419 3.08372V5.71056H4.74791ZM7.58141 5.71056V1.55544H8.21769V5.71056H7.58141ZM7.90778 0.864723C7.78269 0.864723 7.67387 0.821224 7.58141 0.739645C7.49439 0.652627 7.45102 0.549328 7.45102 0.435117C7.45102 0.315467 7.49439 0.212096 7.58141 0.125078C7.67387 0.0434984 7.78269 0 7.90778 0C8.02743 0 8.13625 0.0434984 8.22326 0.125078C8.31572 0.212096 8.35923 0.315467 8.35923 0.435117C8.35923 0.549328 8.31572 0.652627 8.22326 0.739645C8.13625 0.821224 8.02743 0.864723 7.90778 0.864723ZM12.7863 1.55544L11.2472 5.71056H10.6L9.06615 1.55544H9.75686L10.9043 4.86754H10.9479L12.0901 1.55544H12.7863ZM14.7223 5.80848C14.4612 5.80848 14.222 5.75952 14.0045 5.66163C13.7924 5.55829 13.6183 5.41142 13.4933 5.22651C13.3682 5.03072 13.3029 4.80228 13.3029 4.53035C13.3029 4.29105 13.3519 4.10073 13.4444 3.95389C13.5423 3.80161 13.6673 3.68739 13.8196 3.60037C13.9774 3.51879 14.1514 3.45354 14.3417 3.41003C14.5321 3.36652 14.7225 3.33386 14.9182 3.3121C15.1684 3.27947 15.375 3.25227 15.5327 3.23596C15.6905 3.21964 15.8046 3.18706 15.8753 3.14899C15.9515 3.10548 15.9895 3.03476 15.9895 2.93143V2.90965C15.9895 2.64316 15.9135 2.43648 15.7667 2.28964C15.6253 2.13736 15.4076 2.0667 15.114 2.0667C14.8094 2.0667 14.5702 2.13196 14.3962 2.26793C14.2221 2.39846 14.1022 2.53981 14.0315 2.69209L13.4226 2.4746C13.5314 2.22442 13.6781 2.02859 13.8576 1.88719C14.0371 1.74578 14.2382 1.64793 14.4503 1.5881C14.6679 1.53372 14.8801 1.50107 15.0922 1.50107C15.2227 1.50107 15.3749 1.51736 15.5489 1.54999C15.723 1.58263 15.8917 1.64788 16.0548 1.74578C16.218 1.84367 16.354 1.99055 16.4627 2.18634C16.5715 2.38213 16.6258 2.64316 16.6258 2.97491V5.71056H15.9895V5.15036H15.9568C15.9133 5.23738 15.8372 5.33529 15.7393 5.43863C15.636 5.54196 15.5056 5.62897 15.337 5.69967C15.1684 5.77037 14.9616 5.80848 14.7223 5.80848ZM14.8203 5.23195C15.0704 5.23195 15.2825 5.183 15.4565 5.0851C15.6306 4.98721 15.7665 4.85671 15.8535 4.70442C15.9406 4.5467 15.9895 4.37809 15.9895 4.20949V3.62214C15.9623 3.65477 15.9024 3.68736 15.81 3.71456C15.7175 3.73631 15.6144 3.75806 15.4948 3.77982C15.3806 3.79613 15.2661 3.8125 15.1519 3.82881C15.0432 3.83969 14.9508 3.85053 14.8856 3.86141C14.717 3.88317 14.5648 3.91583 14.4179 3.96478C14.2765 4.01373 14.1621 4.08438 14.0751 4.18227C13.9881 4.27473 13.9447 4.39986 13.9447 4.56301C13.9447 4.786 14.0261 4.95456 14.1893 5.06877C14.3579 5.17754 14.5646 5.23195 14.8203 5.23195ZM19.4757 5.79759C19.0896 5.79759 18.7524 5.70513 18.4695 5.52022C18.1922 5.3353 17.9747 5.08511 17.8224 4.7588C17.6701 4.43792 17.594 4.06808 17.594 3.65474C17.594 3.23597 17.6754 2.86074 17.8277 2.53986C17.9854 2.21354 18.2031 1.96335 18.4804 1.77844C18.7632 1.59353 19.0896 1.50107 19.4649 1.50107C19.7585 1.50107 20.0196 1.55548 20.2589 1.66425C20.4927 1.77302 20.683 1.92529 20.8298 2.12108C20.9821 2.31687 21.0746 2.53985 21.1126 2.80091H20.4711C20.4221 2.61055 20.3132 2.44193 20.15 2.30053C19.9814 2.14825 19.7586 2.07753 19.4757 2.07753C19.231 2.07753 19.0079 2.14285 18.823 2.27337C18.6381 2.39846 18.4914 2.57794 18.388 2.81724C18.2847 3.04566 18.2356 3.32303 18.2356 3.63303C18.2356 3.95391 18.2846 4.23667 18.3824 4.47053C18.4858 4.70983 18.6328 4.89476 18.8177 5.02528C19.0026 5.15581 19.2256 5.22651 19.4757 5.22651C19.6443 5.22651 19.7912 5.19386 19.9272 5.13947C20.0632 5.07965 20.1773 4.99809 20.2698 4.88932C20.3677 4.78055 20.433 4.65004 20.4711 4.49775H21.1126C21.0746 4.74249 20.9876 4.96546 20.8407 5.16125C20.7048 5.35704 20.5145 5.50931 20.2807 5.62896C20.0522 5.73774 19.7858 5.79759 19.4757 5.79759ZM22.4561 7.266C22.3473 7.266 22.2496 7.2606 22.168 7.23884C22.081 7.22253 22.0211 7.20616 21.9885 7.18985L22.1515 6.62965C22.3092 6.66772 22.4453 6.68408 22.565 6.6732C22.6792 6.66233 22.7877 6.60792 22.8802 6.51546C22.9727 6.41757 23.0598 6.2653 23.1359 6.05864L23.2557 5.73233L21.7165 1.55544H22.4126L23.56 4.86754H23.5983L24.7457 1.55544H25.4418L23.6742 6.31424C23.5981 6.53178 23.5004 6.70581 23.3808 6.84721C23.2666 6.98862 23.1306 7.09743 22.9729 7.16269C22.8206 7.2334 22.6465 7.266 22.4561 7.266ZM28.5092 5.71056V0.174007H30.3801C30.8152 0.174007 31.1687 0.250177 31.446 0.407897C31.7234 0.565617 31.9303 0.772303 32.0608 1.0388C32.1968 1.30529 32.2618 1.59898 32.2618 1.92529C32.2618 2.25161 32.1968 2.54531 32.0608 2.81724C31.9303 3.08373 31.729 3.29579 31.4516 3.45351C31.1742 3.61123 30.8206 3.6874 30.391 3.6874H29.0531V3.09455H30.3692C30.6683 3.09455 30.9078 3.0402 31.0873 2.93687C31.2667 2.83898 31.3971 2.69757 31.4787 2.52353C31.5603 2.34406 31.6038 2.14828 31.6038 1.92529C31.6038 1.70231 31.5603 1.50647 31.4787 1.33244C31.3971 1.15296 31.2666 1.01699 31.0817 0.919096C30.9022 0.815762 30.6574 0.766865 30.3583 0.766865H29.1782V5.71056H28.5092ZM34.8996 5.79759C34.5243 5.79759 34.1927 5.71058 33.9099 5.53111C33.6325 5.35163 33.4095 5.10145 33.2518 4.78057C33.0941 4.45969 33.0179 4.08439 33.0179 3.65474C33.0179 3.22509 33.0941 2.84441 33.2518 2.52353C33.4095 2.20265 33.6325 1.94703 33.9099 1.773C34.1927 1.59352 34.5243 1.50107 34.8996 1.50107C35.2749 1.50107 35.6012 1.59352 35.884 1.773C36.1668 1.94703 36.3844 2.20265 36.5421 2.52353C36.6998 2.84441 36.7814 3.22509 36.7814 3.65474C36.7814 4.08439 36.6998 4.45969 36.5421 4.78057C36.3844 5.10145 36.1668 5.35163 35.884 5.53111C35.6012 5.71058 35.2749 5.79759 34.8996 5.79759ZM34.8996 5.22651C35.1824 5.22651 35.4163 5.15035 35.6012 5.00351C35.7861 4.85667 35.9221 4.66635 36.0091 4.42705C36.0961 4.19319 36.1451 3.93211 36.1451 3.65474C36.1451 3.37737 36.0961 3.12179 36.0091 2.87705C35.9221 2.63775 35.7861 2.44737 35.6012 2.30053C35.4163 2.14825 35.1824 2.07753 34.8996 2.07753C34.6168 2.07753 34.3775 2.14825 34.198 2.30053C34.0131 2.44737 33.8771 2.63775 33.7901 2.87705C33.6977 3.12179 33.6541 3.37737 33.6541 3.65474C33.6541 3.93211 33.6977 4.19319 33.7901 4.42705C33.8771 4.66635 34.0131 4.85667 34.198 5.00351C34.3775 5.15035 34.6168 5.22651 34.8996 5.22651ZM38.3912 0.174007V5.71056H37.7549V0.174007H38.3912ZM39.5607 5.71056V1.55544H40.2023V5.71056H39.5607ZM39.8868 0.864723C39.7617 0.864723 39.653 0.821224 39.566 0.739645C39.4735 0.652627 39.43 0.549328 39.43 0.435117C39.43 0.315467 39.4735 0.212096 39.566 0.125078C39.653 0.0434984 39.7617 0 39.8868 0C40.0119 0 40.1154 0.0434984 40.2079 0.125078C40.2949 0.212096 40.3382 0.315467 40.3382 0.435117C40.3382 0.549328 40.2949 0.652627 40.2079 0.739645C40.1154 0.821224 40.0119 0.864723 39.8868 0.864723ZM43.0576 5.79759C42.666 5.79759 42.3287 5.70513 42.0514 5.52022C41.7685 5.3353 41.5512 5.08511 41.3989 4.7588C41.252 4.43792 41.1758 4.06808 41.1758 3.65474C41.1758 3.23597 41.2519 2.86074 41.4042 2.53986C41.5619 2.21354 41.7794 1.96335 42.0622 1.77844C42.3396 1.59353 42.6714 1.50107 43.0467 1.50107C43.3349 1.50107 43.6015 1.55548 43.8354 1.66425C44.0692 1.77302 44.2596 1.92529 44.4119 2.12108C44.5587 2.31687 44.6511 2.53985 44.6891 2.80091H44.0529C44.0039 2.61055 43.8951 2.44193 43.7265 2.30053C43.5579 2.14825 43.3349 2.07753 43.0576 2.07753C42.8074 2.07753 42.5899 2.14285 42.3995 2.27337C42.2146 2.39846 42.0733 2.57794 41.9645 2.81724C41.8612 3.04566 41.8121 3.32303 41.8121 3.63303C41.8121 3.95391 41.8612 4.23667 41.9645 4.47053C42.0679 4.70983 42.2093 4.89476 42.3942 5.02528C42.5845 5.15581 42.8019 5.22651 43.0576 5.22651C43.2207 5.22651 43.373 5.19386 43.509 5.13947C43.645 5.07965 43.7591 4.99809 43.8516 4.88932C43.944 4.78055 44.0094 4.65004 44.0529 4.49775H44.6891C44.6511 4.74249 44.5642 4.96546 44.4228 5.16125C44.2814 5.35704 44.0963 5.50931 43.8625 5.62896C43.6286 5.73774 43.3621 5.79759 43.0576 5.79759ZM46.0326 7.266C45.9238 7.266 45.8258 7.2606 45.7442 7.23884C45.6572 7.22253 45.6029 7.20616 45.5703 7.18985L45.728 6.62965C45.8857 6.66772 46.0216 6.68408 46.1412 6.6732C46.2609 6.66233 46.3642 6.60792 46.4567 6.51546C46.5492 6.41757 46.6363 6.2653 46.7124 6.05864L46.8319 5.73233L45.2983 1.55544H45.989L47.1365 4.86754H47.1801L48.3275 1.55544H49.0183L47.2563 6.31424C47.1747 6.53178 47.0768 6.70581 46.9626 6.84721C46.8429 6.98862 46.707 7.09743 46.5547 7.16269C46.397 7.2334 46.2284 7.266 46.0326 7.266Z" fill="black" fill-opacity="0.4"/>
</svg>
