<svg width="27" height="10" viewBox="0 0 27 10" fill="none" xmlns="http://www.w3.org/2000/svg">
<path d="M0 7.34214V0.223002H0.85908V6.57528H4.17138V7.34214H0ZM7.56495 7.45089C7.08091 7.45089 6.65678 7.33668 6.29239 7.10825C5.93344 6.87983 5.6506 6.55901 5.44394 6.14567C5.24271 5.73234 5.14492 5.25372 5.14492 4.69898C5.14492 4.14424 5.24271 3.66017 5.44394 3.2414C5.6506 2.82806 5.93344 2.50717 6.29239 2.27875C6.65678 2.04489 7.08091 1.93074 7.56495 1.93074C8.04355 1.93074 8.46793 2.04489 8.82688 2.27875C9.19127 2.50717 9.47384 2.82806 9.67507 3.2414C9.88174 3.66017 9.97966 4.14424 9.97966 4.69898C9.97966 5.25372 9.88174 5.73234 9.67507 6.14567C9.47384 6.55901 9.19127 6.87983 8.82688 7.10825C8.46793 7.33668 8.04355 7.45089 7.56495 7.45089ZM7.56495 6.71669C7.92934 6.71669 8.22854 6.62422 8.46784 6.43387C8.7017 6.24896 8.87572 5.99879 8.98993 5.69422C9.10414 5.38966 9.16387 5.05793 9.16387 4.69898C9.16387 4.34547 9.10414 4.0083 8.98993 3.70374C8.87572 3.39373 8.7017 3.14355 8.46784 2.9532C8.22854 2.76285 7.92934 2.67038 7.56495 2.67038C7.19512 2.67038 6.89604 2.76285 6.65674 2.9532C6.42288 3.14355 6.24886 3.39373 6.13465 3.70374C6.02044 4.0083 5.96602 4.34547 5.96602 4.69898C5.96602 5.05793 6.02044 5.38966 6.13465 5.69422C6.24886 5.99879 6.42288 6.24896 6.65674 6.43387C6.89604 6.62422 7.19512 6.71669 7.56495 6.71669ZM13.3897 9.45778C12.9927 9.45778 12.6555 9.40337 12.3673 9.30548C12.0845 9.20215 11.8452 9.07163 11.6548 8.90847C11.4699 8.74531 11.3177 8.5713 11.2089 8.38638L11.8614 7.92405C11.9321 8.02194 12.03 8.13615 12.1442 8.26124C12.253 8.38633 12.4108 8.49515 12.6066 8.58761C12.8078 8.68551 13.0688 8.73446 13.3897 8.73446C13.8193 8.73446 14.1783 8.63109 14.4556 8.41898C14.7385 8.21231 14.88 7.88604 14.88 7.44007V6.35234H14.8094C14.7495 6.45024 14.6624 6.57528 14.5536 6.71669C14.4449 6.85809 14.2871 6.98322 14.0804 7.09743C13.8737 7.2062 13.5965 7.26055 13.2484 7.26055C12.8188 7.26055 12.4327 7.15725 12.0901 6.95058C11.7474 6.74935 11.4808 6.45022 11.2796 6.06408C11.0838 5.6725 10.9859 5.19935 10.9859 4.64461C10.9859 4.09531 11.0785 3.62214 11.2743 3.21425C11.4646 2.80635 11.731 2.49091 12.0736 2.26793C12.4162 2.04495 12.8132 1.93074 13.2646 1.93074C13.6127 1.93074 13.8901 1.99053 14.0913 2.10475C14.298 2.21896 14.4557 2.34947 14.5645 2.49631C14.6787 2.63771 14.7604 2.75738 14.8203 2.84983H14.9071V2.00144H15.6958V7.49444C15.6958 7.95129 15.5923 8.32652 15.3856 8.61476C15.179 8.90301 14.9017 9.11514 14.5536 9.25111C14.2056 9.38707 13.8139 9.45778 13.3897 9.45778ZM13.3626 6.52091C13.6889 6.52091 13.9716 6.44475 14.1946 6.2979C14.423 6.14562 14.597 5.9281 14.7167 5.6453C14.8309 5.36249 14.8909 5.0253 14.8909 4.62828C14.8909 4.24757 14.8363 3.90494 14.7167 3.61126C14.6025 3.31757 14.4285 3.08914 14.2055 2.92054C13.9771 2.75194 13.6944 2.67038 13.3626 2.67038C13.0145 2.67038 12.7262 2.75739 12.4924 2.93143C12.264 3.1109 12.0898 3.34473 11.9756 3.64385C11.8614 3.93754 11.8072 4.26933 11.8072 4.62828C11.8072 5.00354 11.8615 5.32982 11.9812 5.61263C12.0954 5.89544 12.2695 6.11848 12.498 6.28164C12.7318 6.43936 13.02 6.52091 13.3626 6.52091ZM19.9543 7.34214V2.00144H20.7754V7.34214H19.9543ZM20.3731 1.11494C20.2099 1.11494 20.0739 1.06053 19.9543 0.951759C19.8455 0.837548 19.7857 0.707032 19.7857 0.55475C19.7857 0.402469 19.8455 0.271958 19.9543 0.163185C20.0739 0.0544128 20.2099 0 20.3731 0C20.5308 0 20.6668 0.0544128 20.781 0.163185C20.8952 0.271958 20.9549 0.402469 20.9549 0.55475C20.9549 0.707032 20.8952 0.837548 20.781 0.951759C20.6668 1.06053 20.5308 1.11494 20.3731 1.11494ZM23.0977 4.1279V7.34214H22.2766V2.00144H23.0706V2.83895H23.1412C23.2663 2.56702 23.4513 2.34949 23.7069 2.18089C23.9625 2.01774 24.2942 1.93074 24.6966 1.93074C25.0556 1.93074 25.3766 2.00683 25.6431 2.15367C25.915 2.30052 26.1271 2.52349 26.2793 2.82261C26.4262 3.12174 26.5024 3.49704 26.5024 3.94845V7.34214H25.681V4.00282C25.681 3.58405 25.5722 3.25777 25.3547 3.02391C25.1371 2.79005 24.8381 2.67038 24.4573 2.67038C24.1963 2.67038 23.9624 2.72474 23.7557 2.83895C23.5545 2.95316 23.3913 3.12178 23.2716 3.33932C23.1574 3.55687 23.0977 3.8179 23.0977 4.1279Z" fill="white"/>
</svg>
