<svg width="5" height="6" viewBox="0 0 5 6" fill="none" xmlns="http://www.w3.org/2000/svg">
<path d="M3.8235 1.84915C3.77999 1.7023 3.71455 1.57179 3.63841 1.45758C3.56227 1.33793 3.46994 1.24001 3.36117 1.15843C3.25239 1.07141 3.12734 1.0116 2.98593 0.968091C2.84997 0.924582 2.6975 0.90283 2.52891 0.90283C2.23522 0.90283 1.97433 0.978929 1.74047 1.13121C1.51204 1.27805 1.32713 1.50108 1.1966 1.78933C1.06608 2.08301 1.00062 2.43106 1.00062 2.84983C1.00062 3.26861 1.06608 3.62754 1.1966 3.91578C1.32713 4.20947 1.50661 4.42706 1.74047 4.57935C1.97433 4.73163 2.24612 4.80773 2.55068 4.80773C2.83349 4.80773 3.07297 4.75338 3.27964 4.64461C3.48631 4.53583 3.64383 4.3835 3.7526 4.18227C3.86681 3.98104 3.92123 3.74722 3.92123 3.47529L4.1443 3.51333H2.65399V2.72476H4.88387V3.3937C4.88387 3.86686 4.78609 4.2802 4.58486 4.62828C4.38363 4.97635 4.10625 5.24283 3.75817 5.43318C3.40466 5.61809 3.00222 5.71056 2.54537 5.71056C2.03958 5.71056 1.59351 5.59634 1.2128 5.36792C0.832099 5.13406 0.533028 4.80777 0.315483 4.37812C0.103376 3.95391 0 3.44809 0 2.86072C0 2.40932 0.0597399 2.01232 0.184828 1.65881C0.315355 1.3053 0.489646 1.00616 0.718068 0.761421C0.946491 0.511244 1.21283 0.32631 1.5174 0.195783C1.8274 0.0652555 2.15907 0 2.51802 0C2.82258 0 3.10556 0.043509 3.37205 0.135966C3.63311 0.222984 3.86685 0.353484 4.06808 0.516643C4.27475 0.679802 4.44331 0.875635 4.57928 1.10406C4.70981 1.32704 4.79681 1.57721 4.84032 1.84915H3.8235Z" fill="black"/>
</svg>
