<svg width="153" height="144" viewBox="0 0 153 144" fill="none" xmlns="http://www.w3.org/2000/svg">
<g filter="url(#filter0_dddddiii_676_4076)">
<path d="M0 13.9229C0 9.04986 0.000127463 6.61336 0.946448 4.75335C1.784 3.11633 3.11646 1.78386 4.75349 0.946315C6.6135 -5.31634e-06 9.04993 0 13.9229 0H138.359C143.232 0 145.668 -5.31634e-06 147.528 0.946315C149.165 1.78386 150.498 3.11633 151.335 4.75335C152.281 6.61336 152.282 9.04986 152.282 13.9229V129.657C152.282 134.53 152.281 136.966 151.335 138.826C150.498 140.463 149.165 141.796 147.528 142.633C145.668 143.58 143.232 143.58 138.359 143.58H13.9229C9.04993 143.58 6.6135 143.58 4.75349 142.633C3.11646 141.796 1.784 140.463 0.946448 138.826C0.000127463 136.966 0 134.53 0 129.657V13.9229Z" fill="white" fill-opacity="0.8"/>
<path d="M14.4126 17.1316H15.5329C15.5928 17.3655 15.7287 17.5721 15.9191 17.719C16.1094 17.8713 16.3487 17.9474 16.588 17.9474C16.8273 17.9474 17.0666 17.8713 17.2569 17.719C17.4473 17.5721 17.5832 17.3655 17.6431 17.1316H20.395C20.4657 17.1316 20.5365 17.1044 20.5854 17.05C20.6398 17.0011 20.667 16.9304 20.667 16.8597C20.667 16.789 20.6398 16.7183 20.5854 16.6694C20.5365 16.615 20.4657 16.5878 20.395 16.5878H17.6431C17.5832 16.3539 17.4473 16.1473 17.2569 16.0004C17.0666 15.8481 16.8273 15.772 16.588 15.772C16.3487 15.772 16.1094 15.8481 15.9191 16.0004C15.7287 16.1473 15.5928 16.3539 15.5329 16.5878H14.4126C14.3419 16.5878 14.2711 16.615 14.2222 16.6694C14.1678 16.7183 14.1406 16.789 14.1406 16.8597C14.1406 16.9304 14.1678 17.0011 14.2222 17.05C14.2711 17.1044 14.3419 17.1316 14.4126 17.1316ZM16.588 16.3158C16.6968 16.3158 16.8001 16.3485 16.8926 16.4083C16.9796 16.4681 17.0502 16.5497 17.0883 16.653C17.1318 16.7509 17.1427 16.8597 17.121 16.9684C17.0992 17.0718 17.0503 17.1697 16.9741 17.2458C16.898 17.322 16.8002 17.3709 16.6969 17.3927C16.5881 17.4144 16.4793 17.4036 16.3814 17.3601C16.2781 17.322 16.1964 17.2513 16.1366 17.1643C16.0767 17.0718 16.0441 16.9685 16.0441 16.8597C16.0441 16.7129 16.104 16.5769 16.2019 16.4736C16.3052 16.3757 16.4412 16.3158 16.588 16.3158ZM20.395 19.8509H19.8185C19.7587 19.6171 19.6227 19.4104 19.4324 19.2636C19.242 19.1113 19.0028 19.0351 18.7635 19.0351C18.5242 19.0351 18.2849 19.1113 18.0945 19.2636C17.9042 19.4104 17.7682 19.6171 17.7084 19.8509H14.4126C14.3419 19.8509 14.2711 19.8781 14.2222 19.9325C14.1678 19.9815 14.1406 20.0522 14.1406 20.1229C14.1406 20.1936 14.1678 20.2643 14.2222 20.3132C14.2711 20.3676 14.3419 20.3948 14.4126 20.3948H17.7084C17.7682 20.6287 17.9042 20.8353 18.0945 20.9822C18.2849 21.1344 18.5242 21.2106 18.7635 21.2106C19.0028 21.2106 19.242 21.1344 19.4324 20.9822C19.6227 20.8353 19.7587 20.6287 19.8185 20.3948H20.395C20.4657 20.3948 20.5365 20.3676 20.5854 20.3132C20.6398 20.2643 20.667 20.1936 20.667 20.1229C20.667 20.0522 20.6398 19.9815 20.5854 19.9325C20.5365 19.8781 20.4657 19.8509 20.395 19.8509ZM18.7635 20.6667C18.6547 20.6667 18.5513 20.6341 18.4589 20.5743C18.3718 20.5144 18.3012 20.4329 18.2631 20.3295C18.2196 20.2316 18.2087 20.1229 18.2305 20.0141C18.2522 19.9108 18.3012 19.8129 18.3773 19.7368C18.4535 19.6606 18.5512 19.6117 18.6546 19.5899C18.7634 19.5681 18.8722 19.579 18.9701 19.6225C19.0734 19.6606 19.1551 19.7313 19.2149 19.8183C19.2747 19.9107 19.3073 20.0141 19.3073 20.1229C19.3073 20.2697 19.2475 20.4057 19.1496 20.509C19.0462 20.6069 18.9103 20.6667 18.7635 20.6667Z" fill="black"/>
<path d="M29.8037 17.0556C29.7711 16.7836 29.6407 16.5715 29.4123 16.4192C29.1784 16.2669 28.8954 16.1908 28.5582 16.1908C28.3135 16.1908 28.1016 16.2343 27.9166 16.3105C27.7372 16.3921 27.5902 16.5008 27.4923 16.6368C27.389 16.7782 27.3401 16.9359 27.3401 17.1099C27.3401 17.2568 27.3727 17.3873 27.4434 17.4907C27.5141 17.5995 27.6067 17.6865 27.7209 17.7572C27.8297 17.8224 27.9492 17.8822 28.0688 17.9257C28.1939 17.9692 28.3083 18.0019 28.4116 18.0291L28.9717 18.1814C29.1186 18.2195 29.2762 18.2738 29.4502 18.3391C29.6297 18.4043 29.8037 18.4968 29.9614 18.611C30.13 18.7252 30.2606 18.8721 30.3693 19.0516C30.4781 19.231 30.5271 19.4486 30.5271 19.7096C30.5271 20.0087 30.4511 20.2752 30.2934 20.52C30.1411 20.7593 29.9127 20.9496 29.6136 21.0965C29.3144 21.2379 28.9555 21.3086 28.5258 21.3086C28.1343 21.3086 27.7861 21.2433 27.4979 21.1182C27.2096 20.9877 26.9812 20.8082 26.818 20.5798C26.6549 20.3514 26.5623 20.0849 26.5405 19.7858H27.2312C27.2476 19.9924 27.3183 20.1664 27.4434 20.3024C27.5631 20.4384 27.7207 20.5363 27.9111 20.607C28.1014 20.6723 28.3083 20.7049 28.5258 20.7049C28.7869 20.7049 29.0153 20.6614 29.2166 20.5798C29.4232 20.4928 29.5808 20.3785 29.7004 20.2263C29.8201 20.074 29.8799 19.9 29.8799 19.6987C29.8799 19.5138 29.8311 19.3616 29.7278 19.2473C29.6244 19.1331 29.4885 19.0407 29.3199 18.9645C29.1513 18.8938 28.9718 18.8286 28.776 18.7796L28.0962 18.5838C27.6611 18.4588 27.3184 18.2792 27.0682 18.0508C26.818 17.8169 26.6874 17.5179 26.6874 17.1426C26.6874 16.8326 26.7745 16.5661 26.9431 16.3322C27.1117 16.0984 27.3401 15.9189 27.6229 15.7938C27.9112 15.6633 28.2265 15.598 28.58 15.598C28.939 15.598 29.2544 15.6633 29.5318 15.7884C29.8091 15.9135 30.0322 16.0875 30.1954 16.3105C30.3586 16.528 30.4457 16.7782 30.4511 17.0556H29.8037ZM33.2846 21.2977C32.8876 21.2977 32.5393 21.2107 32.2511 21.0312C31.9628 20.8518 31.7399 20.607 31.5821 20.2861C31.4299 19.9653 31.3485 19.59 31.3485 19.1658C31.3485 18.7415 31.4299 18.3663 31.5821 18.04C31.7399 17.7137 31.9575 17.4635 32.2349 17.2786C32.5177 17.0936 32.844 17.0012 33.2193 17.0012C33.4369 17.0012 33.6488 17.0392 33.8609 17.1099C34.073 17.1861 34.2634 17.3003 34.4374 17.4635C34.6115 17.6212 34.7476 17.8387 34.8509 18.0998C34.9542 18.3663 35.0086 18.6926 35.0086 19.0787V19.3506H31.8052V18.8013H34.3559C34.3559 18.562 34.3125 18.3554 34.2146 18.1705C34.1222 17.9856 33.9915 17.8442 33.8229 17.7354C33.6543 17.6321 33.4532 17.5776 33.2193 17.5776C32.9691 17.5776 32.7462 17.6375 32.5613 17.7681C32.3763 17.8877 32.2348 18.0509 32.1369 18.2521C32.039 18.4533 31.99 18.6654 31.99 18.8938V19.2637C31.99 19.5791 32.0446 19.8456 32.1534 20.0631C32.2621 20.2752 32.4143 20.4439 32.6101 20.5581C32.8005 20.6668 33.029 20.7266 33.2846 20.7266C33.4532 20.7266 33.6054 20.6994 33.7414 20.6559C33.8774 20.607 33.997 20.5308 34.0949 20.4384C34.1927 20.3405 34.2688 20.2209 34.3232 20.074L34.9433 20.248C34.878 20.4547 34.7693 20.6396 34.6116 20.7973C34.4593 20.9551 34.269 21.0802 34.046 21.1672C33.823 21.2542 33.5674 21.2977 33.2846 21.2977ZM37.7824 17.0556V17.5994H35.6284V17.0556H37.7824ZM36.2594 16.0603H36.8957V20.0197C36.8957 20.1991 36.923 20.3351 36.9719 20.4275C37.0263 20.5146 37.0969 20.5744 37.1785 20.607C37.2655 20.6342 37.3527 20.6505 37.4451 20.6505C37.5158 20.6505 37.5756 20.645 37.6191 20.6396C37.668 20.6287 37.7008 20.6233 37.7279 20.6179L37.8583 21.1889C37.8148 21.2052 37.755 21.2216 37.6788 21.2379C37.5972 21.2542 37.4996 21.2651 37.3854 21.2651C37.2005 21.2651 37.0262 21.227 36.8521 21.1509C36.6835 21.0693 36.5368 20.9551 36.428 20.7919C36.3138 20.6342 36.2594 20.433 36.2594 20.1937V16.0603ZM40.5506 17.0556V17.5994H38.3969V17.0556H40.5506ZM39.0223 16.0603H39.6641V20.0197C39.6641 20.1991 39.6857 20.3351 39.7401 20.4275C39.7945 20.5146 39.8654 20.5744 39.947 20.607C40.0285 20.6342 40.1208 20.6505 40.2133 20.6505C40.284 20.6505 40.3437 20.645 40.3872 20.6396C40.4308 20.6287 40.4689 20.6233 40.4961 20.6179L40.6268 21.1889C40.5833 21.2052 40.5233 21.2216 40.4417 21.2379C40.3655 21.2542 40.2676 21.2651 40.148 21.2651C39.9685 21.2651 39.7892 21.227 39.6206 21.1509C39.4465 21.0693 39.3051 20.9551 39.1909 20.7919C39.0821 20.6342 39.0223 20.433 39.0223 20.1937V16.0603ZM41.5076 21.2107V17.0556H42.1495V21.2107H41.5076ZM41.834 16.3648C41.7089 16.3648 41.6002 16.3213 41.5132 16.2398C41.4208 16.1527 41.3772 16.0494 41.3772 15.9352C41.3772 15.8156 41.4208 15.7122 41.5132 15.6252C41.6002 15.5436 41.7089 15.5001 41.834 15.5001C41.9591 15.5001 42.0623 15.5436 42.1548 15.6252C42.2418 15.7122 42.2855 15.8156 42.2855 15.9352C42.2855 16.0494 42.2418 16.1527 42.1548 16.2398C42.0623 16.3213 41.9591 16.3648 41.834 16.3648ZM43.955 18.7144V21.2107H43.3134V17.0556H43.9332V17.7082H43.9877C44.0856 17.4961 44.2324 17.3275 44.4282 17.197C44.6295 17.0664 44.8852 17.0012 45.1952 17.0012C45.478 17.0012 45.7226 17.061 45.9347 17.1752C46.1469 17.2894 46.3101 17.4635 46.4298 17.6973C46.544 17.9258 46.6037 18.2194 46.6037 18.573V21.2107H45.9674V18.6164C45.9674 18.2901 45.8803 18.0345 45.7117 17.855C45.5431 17.6701 45.3093 17.5776 45.0157 17.5776C44.809 17.5776 44.6294 17.6212 44.4662 17.7082C44.3085 17.7953 44.1834 17.9258 44.091 18.0944C43.9985 18.263 43.955 18.4696 43.955 18.7144ZM49.4481 22.8532C49.1381 22.8532 48.8717 22.8151 48.6488 22.7335C48.4312 22.6574 48.2462 22.554 48.0993 22.4289C47.9525 22.3038 47.8329 22.1679 47.7459 22.021L48.2571 21.6675C48.3114 21.7382 48.3875 21.8253 48.4745 21.9232C48.5616 22.0211 48.6866 22.1081 48.8389 22.1788C48.9912 22.2549 49.1979 22.293 49.4481 22.293C49.7798 22.293 50.0572 22.2114 50.2748 22.0482C50.4923 21.8851 50.6011 21.6349 50.6011 21.2868V20.4438H50.5467C50.5032 20.52 50.438 20.6124 50.351 20.7266C50.264 20.8354 50.1442 20.9333 49.9811 21.0203C49.8233 21.1019 49.606 21.1454 49.3395 21.1454C49.0023 21.1454 48.7031 21.0638 48.4366 20.9061C48.1701 20.7484 47.9579 20.52 47.8056 20.2154C47.6533 19.9109 47.5772 19.5465 47.5772 19.1114C47.5772 18.6872 47.648 18.3173 47.8003 18.0019C47.9471 17.6864 48.1592 17.4363 48.4257 17.2677C48.6922 17.0882 48.9968 17.0012 49.3504 17.0012C49.6168 17.0012 49.8342 17.0501 49.9919 17.1372C50.1551 17.2296 50.2748 17.3275 50.3619 17.4417C50.4489 17.5559 50.5141 17.6429 50.5576 17.7191H50.6229V17.0556H51.243V21.3303C51.243 21.6893 51.1613 21.9775 50.9981 22.2005C50.835 22.4235 50.6229 22.5921 50.351 22.6954C50.079 22.7987 49.7798 22.8532 49.4481 22.8532ZM49.4263 20.5743C49.6819 20.5743 49.894 20.5145 50.0735 20.3949C50.2475 20.2807 50.3836 20.112 50.4761 19.8891C50.5685 19.6715 50.612 19.4105 50.612 19.1005C50.612 18.8014 50.5684 18.5403 50.4814 18.3119C50.3889 18.0781 50.2531 17.8986 50.079 17.7735C49.8996 17.643 49.6819 17.5776 49.4263 17.5776C49.1544 17.5776 48.926 17.6429 48.7465 17.7843C48.5724 17.9203 48.4366 18.1052 48.3442 18.3336C48.2571 18.562 48.2135 18.8231 48.2135 19.1005C48.2135 19.3887 48.257 19.6444 48.3495 19.8674C48.4419 20.0849 48.578 20.2589 48.7521 20.384C48.9315 20.5091 49.1598 20.5743 49.4263 20.5743ZM55.349 17.9855L54.7781 18.1487C54.74 18.0563 54.6911 17.9638 54.6204 17.8714C54.5496 17.7789 54.4572 17.7027 54.3375 17.6429C54.2179 17.5831 54.0654 17.5559 53.8805 17.5559C53.6249 17.5559 53.4128 17.6157 53.2442 17.7299C53.0756 17.8442 52.9941 17.991 52.9941 18.1705C52.9941 18.3282 53.0484 18.4533 53.168 18.5457C53.2822 18.6382 53.4618 18.7144 53.7066 18.7796L54.3211 18.9265C54.6963 19.0189 54.9739 19.1549 55.1533 19.3398C55.3382 19.5247 55.4253 19.764 55.4253 20.0522C55.4253 20.2915 55.3599 20.5037 55.224 20.694C55.088 20.8789 54.8978 21.0258 54.653 21.1345C54.4083 21.2433 54.1254 21.2977 53.8046 21.2977C53.3803 21.2977 53.0322 21.2053 52.7548 21.0203C52.4774 20.8354 52.2978 20.5689 52.2271 20.2154L52.831 20.0631C52.8908 20.2861 52.9997 20.4547 53.1574 20.5689C53.3206 20.6777 53.5326 20.7321 53.7937 20.7321C54.0928 20.7321 54.3265 20.6723 54.5006 20.5472C54.6801 20.4167 54.7672 20.2644 54.7672 20.0849C54.7672 19.9435 54.7181 19.8184 54.6148 19.7259C54.5169 19.6226 54.3591 19.5519 54.1524 19.5029L53.4564 19.3398C53.0757 19.2474 52.7983 19.1114 52.6188 18.921C52.4448 18.7307 52.3578 18.4913 52.3578 18.2031C52.3578 17.9692 52.423 17.7626 52.5535 17.5831C52.684 17.4036 52.869 17.2623 53.0974 17.1589C53.3258 17.0556 53.5868 17.0012 53.8805 17.0012C54.2938 17.0012 54.6149 17.0936 54.8487 17.2731C55.0826 17.4526 55.2511 17.6919 55.349 17.9855Z" fill="black"/>
<path d="M20.6507 35.3511H14.1567C14.0099 35.3511 13.8685 35.4109 13.7597 35.5143C13.6564 35.623 13.5967 35.7644 13.5967 35.9113V40.2295C13.5967 40.3763 13.6564 40.5177 13.7597 40.6265C13.8685 40.7298 14.0099 40.7897 14.1567 40.7897H20.6507C20.7975 40.7897 20.9389 40.7298 21.0477 40.6265C21.151 40.5177 21.2108 40.3763 21.2108 40.2295V35.9113C21.2108 35.7644 21.151 35.623 21.0477 35.5143C20.9389 35.4109 20.7975 35.3511 20.6507 35.3511ZM20.6669 40.2295V40.2349L20.6616 40.2404L20.656 40.2458H20.6507H14.1567H14.1514L14.1459 40.2404C14.1459 40.2404 14.146 40.2349 14.1405 40.2349V40.2295V35.9113C14.1405 35.9058 14.1404 35.9058 14.1459 35.9004C14.1513 35.8949 14.1513 35.8949 14.1567 35.8949H20.6507C20.6561 35.8949 20.6616 35.8949 20.6616 35.9004C20.667 35.9058 20.6669 35.9058 20.6669 35.9113V40.2295ZM20.123 38.0704C20.123 38.1411 20.0959 38.2118 20.0415 38.2607C19.9926 38.3151 19.9218 38.3423 19.8511 38.3423H14.9563C14.8856 38.3423 14.8149 38.3151 14.7659 38.2607C14.7115 38.2118 14.6844 38.1411 14.6844 38.0704C14.6844 37.9997 14.7115 37.929 14.7659 37.88C14.8149 37.8257 14.8856 37.7985 14.9563 37.7985H19.8511C19.9218 37.7985 19.9926 37.8257 20.0415 37.88C20.0959 37.929 20.123 37.9997 20.123 38.0704ZM20.123 36.9827C20.123 37.0534 20.0959 37.1241 20.0415 37.173C19.9926 37.2274 19.9218 37.2546 19.8511 37.2546H14.9563C14.8856 37.2546 14.8149 37.2274 14.7659 37.173C14.7115 37.1241 14.6844 37.0534 14.6844 36.9827C14.6844 36.912 14.7115 36.8413 14.7659 36.7923C14.8149 36.7379 14.8856 36.7107 14.9563 36.7107H19.8511C19.9218 36.7107 19.9926 36.7379 20.0415 36.7923C20.0959 36.8413 20.123 36.912 20.123 36.9827ZM15.5002 39.1581C15.5002 39.2288 15.4731 39.2995 15.4187 39.3485C15.3697 39.4028 15.299 39.43 15.2283 39.43H14.9563C14.8856 39.43 14.8149 39.4028 14.7659 39.3485C14.7115 39.2995 14.6844 39.2288 14.6844 39.1581C14.6844 39.0874 14.7115 39.0167 14.7659 38.9678C14.8149 38.9134 14.8856 38.8862 14.9563 38.8862H15.2283C15.299 38.8862 15.3697 38.9134 15.4187 38.9678C15.4731 39.0167 15.5002 39.0874 15.5002 39.1581ZM18.7634 39.1581C18.7634 39.2288 18.7362 39.2995 18.6818 39.3485C18.6329 39.4028 18.5621 39.43 18.4914 39.43H16.316C16.2453 39.43 16.1745 39.4028 16.1256 39.3485C16.0712 39.2995 16.0441 39.2288 16.0441 39.1581C16.0441 39.0874 16.0712 39.0167 16.1256 38.9678C16.1745 38.9134 16.2453 38.8862 16.316 38.8862H18.4914C18.5621 38.8862 18.6329 38.9134 18.6818 38.9678C18.7362 39.0167 18.7634 39.0874 18.7634 39.1581ZM20.123 39.1581C20.123 39.2288 20.0959 39.2995 20.0415 39.3485C19.9926 39.4028 19.9218 39.43 19.8511 39.43H19.5792C19.5085 39.43 19.4377 39.4028 19.3888 39.3485C19.3344 39.2995 19.3072 39.2288 19.3072 39.1581C19.3072 39.0874 19.3344 39.0167 19.3888 38.9678C19.4377 38.9134 19.5085 38.8862 19.5792 38.8862H19.8511C19.9218 38.8862 19.9926 38.9134 20.0415 38.9678C20.0959 39.0167 20.123 39.0874 20.123 39.1581Z" fill="black"/>
<path d="M26.7749 40.7896V35.2531H27.4494V37.9996H27.5145L30.0001 35.2531H30.8756L28.548 37.7494L30.8756 40.7896H30.0652L28.1401 38.2171L27.4494 38.9948V40.7896H26.7749ZM33.0946 40.8766C32.6922 40.8766 32.3495 40.7896 32.0558 40.6102C31.7675 40.4307 31.5447 40.1859 31.3924 39.8651C31.2347 39.5442 31.1585 39.1689 31.1585 38.7447C31.1585 38.3205 31.2347 37.9452 31.3924 37.6189C31.5447 37.2926 31.7675 37.0424 32.0449 36.8575C32.3277 36.6726 32.6541 36.5801 33.0293 36.5801C33.2469 36.5801 33.4591 36.6182 33.6712 36.6889C33.8778 36.765 34.0737 36.8792 34.2477 37.0424C34.4163 37.2001 34.5576 37.4177 34.6609 37.6787C34.7642 37.9452 34.8131 38.2715 34.8131 38.6576V38.9296H31.6099V38.3803H34.1659C34.1659 38.141 34.1171 37.9343 34.0246 37.7494C33.9322 37.5645 33.8017 37.4231 33.6276 37.3143C33.459 37.211 33.2577 37.1566 33.0293 37.1566C32.7737 37.1566 32.5562 37.2164 32.3713 37.347C32.1864 37.4666 32.0449 37.6298 31.9416 37.831C31.8437 38.0323 31.7947 38.2443 31.7947 38.4727V38.8426C31.7947 39.158 31.849 39.4245 31.9578 39.6421C32.0666 39.8542 32.219 40.0228 32.4148 40.137C32.6106 40.2458 32.8336 40.3056 33.0946 40.3056C33.2632 40.3056 33.4101 40.2784 33.5461 40.2349C33.6821 40.1859 33.8017 40.1097 33.8996 40.0173C34.0029 39.9194 34.0789 39.7998 34.1332 39.6529L34.748 39.827C34.6827 40.0336 34.5739 40.2185 34.4216 40.3763C34.2694 40.534 34.0791 40.6591 33.8507 40.7461C33.6277 40.8331 33.372 40.8766 33.0946 40.8766ZM36.0694 42.345C35.9607 42.345 35.8629 42.3396 35.7813 42.3179C35.6943 42.3016 35.6344 42.2852 35.6018 42.2689L35.7648 41.7087C35.9226 41.7468 36.0587 41.7631 36.1783 41.7522C36.298 41.7414 36.4013 41.687 36.4938 41.5945C36.5862 41.4966 36.6731 41.3443 36.7493 41.1377L36.869 40.8114L35.3354 36.6345H36.0261L37.1736 39.9466H37.2172L38.3591 36.6345H39.0554L37.2878 41.3933C37.2117 41.6108 37.1137 41.7849 36.9941 41.9263C36.8799 42.0677 36.7439 42.1765 36.5862 42.2417C36.4339 42.3124 36.2598 42.345 36.0694 42.345ZM39.9798 40.7896V35.2531H40.6216V37.298H40.6761C40.7196 37.2218 40.7849 37.1348 40.8665 37.0206C40.9535 36.9064 41.0731 36.8085 41.2308 36.7161C41.3885 36.6291 41.6062 36.5801 41.8727 36.5801C42.2262 36.5801 42.5306 36.6671 42.7971 36.8466C43.069 37.0206 43.2756 37.2654 43.4225 37.5862C43.5747 37.9071 43.6508 38.2878 43.6508 38.7229C43.6508 39.1634 43.5747 39.5442 43.4225 39.8651C43.2756 40.1859 43.0691 40.4361 42.8026 40.6156C42.5362 40.7896 42.2314 40.8766 41.8833 40.8766C41.6168 40.8766 41.4047 40.8331 41.247 40.7461C41.0838 40.6537 40.9588 40.5503 40.8718 40.4361C40.7902 40.3219 40.7196 40.2294 40.6761 40.1533H40.5998V40.7896H39.9798ZM40.6107 38.7121C40.6107 39.0275 40.6542 39.3048 40.7467 39.5441C40.8392 39.7834 40.9752 39.9684 41.1493 40.1043C41.3288 40.2349 41.5407 40.3056 41.8018 40.3056C42.0683 40.3056 42.2859 40.2348 42.4654 40.0934C42.6449 39.952 42.7808 39.7563 42.8733 39.517C42.9657 39.2777 43.0093 39.0112 43.0093 38.7121C43.0093 38.4184 42.9657 38.1573 42.8733 37.9234C42.7863 37.6896 42.6502 37.4992 42.4707 37.3632C42.2912 37.2273 42.0683 37.1566 41.8018 37.1566C41.5407 37.1566 41.3232 37.2219 41.1437 37.3524C40.9697 37.4829 40.8337 37.6624 40.7467 37.9017C40.6542 38.1301 40.6107 38.4021 40.6107 38.7121ZM46.3104 40.8766C45.9351 40.8766 45.6088 40.7896 45.326 40.6102C45.0432 40.4307 44.8258 40.1805 44.6626 39.8596C44.5103 39.5387 44.4287 39.1634 44.4287 38.7338C44.4287 38.3041 44.5103 37.9235 44.6626 37.6026C44.8258 37.2817 45.0432 37.0261 45.326 36.852C45.6088 36.6726 45.9351 36.5801 46.3104 36.5801C46.6857 36.5801 47.0175 36.6726 47.2948 36.852C47.5776 37.0261 47.8007 37.2817 47.9585 37.6026C48.1162 37.9235 48.1921 38.3041 48.1921 38.7338C48.1921 39.1634 48.1162 39.5387 47.9585 39.8596C47.8007 40.1805 47.5776 40.4307 47.2948 40.6102C47.0175 40.7896 46.6857 40.8766 46.3104 40.8766ZM46.3104 40.3056C46.5986 40.3056 46.8327 40.2294 47.0176 40.0826C47.1971 39.9357 47.333 39.7454 47.4255 39.5061C47.5125 39.2722 47.5559 39.0112 47.5559 38.7338C47.5559 38.4564 47.5125 38.2008 47.4255 37.9561C47.333 37.7168 47.1971 37.5264 47.0176 37.3796C46.8327 37.2273 46.5986 37.1566 46.3104 37.1566C46.0276 37.1566 45.7937 37.2273 45.6088 37.3796C45.4239 37.5264 45.2879 37.7168 45.2009 37.9561C45.1139 38.2008 45.0705 38.4564 45.0705 38.7338C45.0705 39.0112 45.1139 39.2722 45.2009 39.5061C45.2879 39.7454 45.4239 39.9357 45.6088 40.0826C45.7937 40.2294 46.0276 40.3056 46.3104 40.3056ZM50.3894 40.8875C50.1283 40.8875 49.8891 40.8386 49.6716 40.7407C49.4595 40.6373 49.2909 40.4905 49.1604 40.3056C49.0353 40.1098 48.9753 39.8813 48.9753 39.6094C48.9753 39.3701 49.0188 39.1798 49.1112 39.0329C49.2091 38.8807 49.3343 38.7664 49.492 38.6794C49.6443 38.5978 49.8185 38.5326 50.0088 38.4891C50.1992 38.4456 50.3893 38.4129 50.5851 38.3911C50.8353 38.3585 51.0421 38.3313 51.1999 38.315C51.3576 38.2987 51.4717 38.2661 51.5424 38.228C51.6186 38.1845 51.6566 38.1138 51.6566 38.0105V37.9887C51.6566 37.7222 51.5805 37.5155 51.4391 37.3687C51.2923 37.2164 51.0748 37.1457 50.7811 37.1457C50.4765 37.1457 50.237 37.211 50.063 37.347C49.889 37.4775 49.7694 37.6189 49.6987 37.7711L49.0895 37.5536C49.1982 37.3035 49.3452 37.1076 49.5247 36.9662C49.7042 36.8248 49.9053 36.727 50.1174 36.6671C50.335 36.6128 50.5472 36.5801 50.7593 36.5801C50.8898 36.5801 51.042 36.5964 51.216 36.629C51.3901 36.6617 51.5588 36.7269 51.7219 36.8248C51.8851 36.9227 52.0211 37.0696 52.1298 37.2654C52.2386 37.4612 52.2929 37.7222 52.2929 38.054V40.7896H51.6566V40.2294H51.6239C51.5804 40.3164 51.5098 40.4143 51.4065 40.5177C51.3031 40.621 51.1725 40.708 51.0039 40.7787C50.8353 40.8494 50.6341 40.8875 50.3894 40.8875ZM50.4874 40.311C50.7375 40.311 50.955 40.262 51.1236 40.1641C51.2977 40.0663 51.4336 39.9358 51.5206 39.7835C51.6077 39.6257 51.6566 39.4571 51.6566 39.2885V38.7012C51.6294 38.7338 51.5695 38.7664 51.4771 38.7936C51.3846 38.8154 51.2813 38.8371 51.1616 38.8589C51.0474 38.8752 50.9333 38.8915 50.819 38.9079C50.7103 38.9187 50.6234 38.9296 50.5527 38.9405C50.3841 38.9622 50.2316 38.9949 50.0848 39.0438C49.9434 39.0928 49.8292 39.1634 49.7422 39.2613C49.6552 39.3538 49.6118 39.4789 49.6118 39.6421C49.6118 39.865 49.6932 40.0336 49.8564 40.1478C50.025 40.2566 50.2317 40.311 50.4874 40.311ZM53.4568 40.7896V36.6345H54.0769V37.2654H54.1202C54.1909 37.0587 54.3323 36.8901 54.5281 36.765C54.7293 36.6345 54.9526 36.5692 55.1973 36.5692C55.2462 36.5692 55.3058 36.5747 55.3765 36.5747C55.4472 36.5747 55.4962 36.5801 55.5343 36.5801V37.2327C55.5125 37.2273 55.4636 37.2164 55.3874 37.2056C55.3113 37.1947 55.2299 37.1892 55.1429 37.1892C54.9416 37.1892 54.762 37.2327 54.6043 37.3143C54.4466 37.3959 54.3215 37.5155 54.2291 37.6624C54.1421 37.8092 54.0987 37.9724 54.0987 38.1628V40.7896H53.4568ZM57.7315 40.8766C57.3889 40.8766 57.079 40.7896 56.818 40.6156C56.5515 40.4361 56.3446 40.1859 56.1923 39.8651C56.0455 39.5442 55.9695 39.1634 55.9695 38.7229C55.9695 38.2878 56.0455 37.9071 56.1923 37.5862C56.3446 37.2654 56.5515 37.0206 56.818 36.8466C57.0845 36.6671 57.3943 36.5801 57.7424 36.5801C58.0143 36.5801 58.2265 36.6291 58.3843 36.7161C58.542 36.8085 58.6616 36.9064 58.7486 37.0206C58.8302 37.1348 58.8954 37.2218 58.9443 37.298H58.9988V35.2531H59.635V40.7896H59.0205V40.1533H58.9443C58.8954 40.2294 58.83 40.3219 58.743 40.4361C58.656 40.5503 58.5365 40.6537 58.3734 40.7461C58.2156 40.8331 57.998 40.8766 57.7315 40.8766ZM57.8186 40.3056C58.0742 40.3056 58.2917 40.2349 58.4658 40.1043C58.6453 39.9684 58.7812 39.7834 58.8737 39.5441C58.9607 39.3048 59.0096 39.0275 59.0096 38.7121C59.0096 38.4021 58.9661 38.1301 58.8737 37.9017C58.7812 37.6624 58.6506 37.4829 58.4711 37.3524C58.2971 37.2219 58.0797 37.1566 57.8186 37.1566C57.5467 37.1566 57.3236 37.2273 57.1441 37.3632C56.9646 37.4992 56.8288 37.6896 56.7418 37.9234C56.6548 38.1573 56.6058 38.4184 56.6058 38.7121C56.6058 39.0112 56.6548 39.2777 56.7418 39.517C56.8342 39.7563 56.9702 39.952 57.1497 40.0934C57.3291 40.2348 57.5521 40.3056 57.8186 40.3056ZM65.9766 37.5645L65.4053 37.7277C65.3673 37.6352 65.313 37.5427 65.2423 37.4503C65.177 37.3578 65.0847 37.2817 64.965 37.2218C64.8454 37.162 64.6929 37.1349 64.508 37.1349C64.2524 37.1349 64.0403 37.1947 63.8717 37.3089C63.7031 37.4231 63.6216 37.57 63.6216 37.7494C63.6216 37.9071 63.676 38.0322 63.7902 38.1247C63.9099 38.2171 64.0893 38.2933 64.3341 38.3586L64.9486 38.5054C65.3184 38.5979 65.5959 38.7338 65.7808 38.9187C65.9603 39.1037 66.0528 39.3429 66.0528 39.6312C66.0528 39.8705 65.9819 40.0826 65.8459 40.273C65.7099 40.4579 65.525 40.6047 65.2803 40.7135C65.0355 40.8222 64.7529 40.8766 64.4321 40.8766C64.0079 40.8766 63.6541 40.7842 63.3767 40.5993C63.0994 40.4143 62.9255 40.1479 62.8493 39.7944L63.4585 39.6421C63.5129 39.865 63.6215 40.0336 63.7846 40.1478C63.9478 40.2566 64.1601 40.311 64.4212 40.311C64.7149 40.311 64.9541 40.2512 65.1281 40.1261C65.3021 39.9956 65.3947 39.8433 65.3947 39.6638C65.3947 39.5224 65.3402 39.3973 65.2423 39.3049C65.139 39.2015 64.9867 39.1308 64.7746 39.0819L64.0839 38.9187C63.7032 38.8263 63.4258 38.6903 63.2463 38.5C63.0669 38.3096 62.9797 38.0703 62.9797 37.782C62.9797 37.5482 63.0451 37.3415 63.181 37.162C63.3116 36.9825 63.4912 36.8412 63.7196 36.7379C63.9534 36.6345 64.2143 36.5801 64.508 36.5801C64.9159 36.5801 65.2424 36.6726 65.4762 36.852C65.7101 37.0315 65.8787 37.2708 65.9766 37.5645ZM67.6517 38.2933V40.7896H67.0154V35.2531H67.6517V37.2872H67.7061C67.804 37.0696 67.9508 36.901 68.1411 36.7759C68.3423 36.6454 68.6035 36.5801 68.9298 36.5801C69.2126 36.5801 69.4573 36.6399 69.6694 36.7541C69.8815 36.8629 70.0499 37.037 70.1641 37.2708C70.2838 37.4992 70.3437 37.7929 70.3437 38.1519V40.7896H69.7074V38.1954C69.7074 37.8636 69.6205 37.608 69.4519 37.4285C69.2779 37.249 69.0438 37.1566 68.7447 37.1566C68.5326 37.1566 68.3477 37.2001 68.1791 37.2872C68.0159 37.3742 67.8854 37.5047 67.793 37.6733C67.7005 37.8419 67.6517 38.0486 67.6517 38.2933ZM73.1989 40.8766C72.8237 40.8766 72.4973 40.7896 72.2145 40.6102C71.9317 40.4307 71.7089 40.1805 71.5511 39.8596C71.3934 39.5387 71.3172 39.1634 71.3172 38.7338C71.3172 38.3041 71.3934 37.9235 71.5511 37.6026C71.7089 37.2817 71.9317 37.0261 72.2145 36.852C72.4973 36.6726 72.8237 36.5801 73.1989 36.5801C73.5742 36.5801 73.9005 36.6726 74.1833 36.852C74.4662 37.0261 74.6837 37.2817 74.8414 37.6026C74.9991 37.9235 75.0807 38.3041 75.0807 38.7338C75.0807 39.1634 74.9991 39.5387 74.8414 39.8596C74.6837 40.1805 74.4662 40.4307 74.1833 40.6102C73.9005 40.7896 73.5742 40.8766 73.1989 40.8766ZM73.1989 40.3056C73.4817 40.3056 73.7156 40.2294 73.9005 40.0826C74.0854 39.9357 74.2214 39.7454 74.3084 39.5061C74.4009 39.2722 74.4444 39.0112 74.4444 38.7338C74.4444 38.4564 74.4009 38.2008 74.3084 37.9561C74.2214 37.7168 74.0854 37.5264 73.9005 37.3796C73.7156 37.2273 73.4817 37.1566 73.1989 37.1566C72.9161 37.1566 72.6822 37.2273 72.4973 37.3796C72.3124 37.5264 72.1764 37.7168 72.0894 37.9561C71.997 38.2008 71.9535 38.4564 71.9535 38.7338C71.9535 39.0112 71.997 39.2722 72.0894 39.5061C72.1764 39.7454 72.3124 39.9357 72.4973 40.0826C72.6822 40.2294 72.9161 40.3056 73.1989 40.3056ZM76.0542 40.7896V36.6345H76.669V37.2654H76.7123C76.7884 37.0587 76.9299 36.8901 77.1257 36.765C77.3215 36.6345 77.5499 36.5692 77.7947 36.5692C77.8436 36.5692 77.9035 36.5747 77.9742 36.5747C78.0449 36.5747 78.0939 36.5801 78.1319 36.5801V37.2327C78.1102 37.2273 78.0612 37.2164 77.9851 37.2056C77.9089 37.1947 77.8273 37.1892 77.7402 37.1892C77.539 37.1892 77.3597 37.2327 77.2019 37.3143C77.0442 37.3959 76.9189 37.5155 76.8264 37.6624C76.7394 37.8092 76.6905 37.9724 76.6905 38.1628V40.7896H76.0542ZM80.9545 36.6345V37.1783H78.8009V36.6345H80.9545ZM79.4316 35.6392H80.0681V39.5986C80.0681 39.778 80.0951 39.914 80.1441 40.0065C80.1984 40.0935 80.2694 40.1533 80.3509 40.1859C80.438 40.2131 80.5248 40.2294 80.6173 40.2294C80.688 40.2294 80.7477 40.224 80.7912 40.2185C80.8347 40.2076 80.8729 40.2022 80.9001 40.1968L81.0308 40.7678C80.9873 40.7841 80.9274 40.8005 80.8512 40.8168C80.7697 40.8331 80.6716 40.844 80.552 40.844C80.3725 40.844 80.1986 40.8059 80.0246 40.7298C79.8505 40.6482 79.7091 40.534 79.5949 40.3708C79.4861 40.2131 79.4316 40.0119 79.4316 39.7726V35.6392ZM83.5597 40.8766C83.1681 40.8766 82.8308 40.7842 82.5535 40.5993C82.2707 40.4143 82.053 40.1642 81.9007 39.8378C81.7484 39.517 81.6723 39.1471 81.6723 38.7338C81.6723 38.315 81.754 37.9398 81.9063 37.6189C82.064 37.2926 82.2815 37.0424 82.5644 36.8575C82.8417 36.6726 83.1735 36.5801 83.5488 36.5801C83.837 36.5801 84.1034 36.6345 84.3372 36.7433C84.5711 36.8521 84.7615 37.0043 84.9137 37.2001C85.0606 37.3959 85.1532 37.6189 85.1913 37.88H84.5494C84.5059 37.6896 84.3972 37.521 84.2286 37.3796C84.06 37.2273 83.837 37.1566 83.5597 37.1566C83.3095 37.1566 83.092 37.2219 82.9016 37.3524C82.7167 37.4775 82.5697 37.657 82.4664 37.8963C82.363 38.1247 82.3142 38.4021 82.3142 38.7121C82.3142 39.033 82.363 39.3157 82.4664 39.5496C82.5697 39.7889 82.7111 39.9738 82.896 40.1043C83.0864 40.2349 83.3041 40.3056 83.5597 40.3056C83.7228 40.3056 83.8751 40.2729 84.0111 40.2185C84.1416 40.1587 84.2558 40.0771 84.3537 39.9684C84.4461 39.8596 84.5113 39.7291 84.5494 39.5768H85.1913C85.1532 39.8215 85.066 40.0445 84.9246 40.2403C84.7832 40.4361 84.593 40.5884 84.3646 40.708C84.1307 40.8168 83.8642 40.8766 83.5597 40.8766ZM88.7426 39.0928V36.6345H89.3788V40.7896H88.7426V40.088H88.699C88.6011 40.3001 88.4489 40.4741 88.2422 40.6264C88.0356 40.7733 87.7799 40.844 87.4644 40.844C87.2034 40.844 86.9749 40.7896 86.7737 40.6754C86.5725 40.5558 86.4094 40.3871 86.2952 40.1533C86.181 39.9194 86.1212 39.6312 86.1212 39.2776V36.6345H86.7628V39.2342C86.7628 39.5333 86.8447 39.778 87.0132 39.9575C87.1873 40.137 87.4048 40.2294 87.6713 40.2294C87.829 40.2294 87.992 40.1859 88.1551 40.1043C88.3183 40.0227 88.4598 39.8977 88.5686 39.7345C88.6828 39.5659 88.7426 39.3538 88.7426 39.0928ZM92.3539 36.6345V37.1783H90.2002V36.6345H92.3539ZM90.8256 35.6392H91.4674V39.5986C91.4674 39.778 91.4945 39.914 91.5434 40.0065C91.5978 40.0935 91.6687 40.1533 91.7503 40.1859C91.8373 40.2131 91.9242 40.2294 92.0166 40.2294C92.0873 40.2294 92.1471 40.224 92.1906 40.2185C92.2341 40.2076 92.2722 40.2022 92.2994 40.1968L92.4301 40.7678C92.3866 40.7841 92.3267 40.8005 92.2506 40.8168C92.169 40.8331 92.0709 40.844 91.9513 40.844C91.7718 40.844 91.5979 40.8059 91.4239 40.7298C91.2499 40.6482 91.1084 40.534 90.9942 40.3708C90.8855 40.2131 90.8256 40.0119 90.8256 39.7726V35.6392ZM96.1827 37.5645L95.6062 37.7277C95.5735 37.6352 95.5191 37.5427 95.4484 37.4503C95.3777 37.3578 95.2853 37.2817 95.1656 37.2218C95.046 37.162 94.8938 37.1349 94.7088 37.1349C94.4532 37.1349 94.2412 37.1947 94.0726 37.3089C93.9094 37.4231 93.8222 37.57 93.8222 37.7494C93.8222 37.9071 93.8821 38.0322 93.9964 38.1247C94.1106 38.2171 94.2899 38.2933 94.5346 38.3586L95.1547 38.5054C95.5245 38.5979 95.8019 38.7338 95.9814 38.9187C96.1663 39.1037 96.2589 39.3429 96.2589 39.6312C96.2589 39.8705 96.188 40.0826 96.052 40.273C95.9161 40.4579 95.7258 40.6047 95.4811 40.7135C95.2418 40.8222 94.9589 40.8766 94.6326 40.8766C94.2084 40.8766 93.8603 40.7842 93.5829 40.5993C93.3055 40.4143 93.1262 40.1479 93.0555 39.7944L93.6591 39.6421C93.7189 39.865 93.8278 40.0336 93.9855 40.1478C94.1486 40.2566 94.3607 40.311 94.6217 40.311C94.9209 40.311 95.1548 40.2512 95.3342 40.1261C95.5083 39.9956 95.5953 39.8433 95.5953 39.6638C95.5953 39.5224 95.5464 39.3973 95.4431 39.3049C95.3452 39.2015 95.1874 39.1308 94.9808 39.0819L94.2901 38.9187C93.9094 38.8263 93.6264 38.6903 93.4469 38.5C93.2729 38.3096 93.1859 38.0703 93.1859 37.782C93.1859 37.5482 93.2513 37.3415 93.3819 37.162C93.5178 36.9825 93.6973 36.8412 93.9257 36.7379C94.1541 36.6345 94.4152 36.5801 94.7088 36.5801C95.1222 36.5801 95.4429 36.6726 95.6768 36.852C95.9161 37.0315 96.0794 37.2708 96.1827 37.5645Z" fill="black"/>
<path d="M13.3247 51.9388H138.957" stroke="black" stroke-opacity="0.1" stroke-width="0.543863" stroke-linecap="round"/>
<path d="M20.667 65.5354C20.667 65.6061 20.6398 65.6768 20.5854 65.7257C20.5365 65.7801 20.4657 65.8073 20.395 65.8073C20.3243 65.8073 20.2536 65.7801 20.2046 65.7257C20.1503 65.6768 20.1231 65.6061 20.1231 65.5354V64.018L17.8661 66.2696C17.8172 66.324 17.7464 66.3512 17.6757 66.3512C17.605 66.3512 17.5343 66.324 17.4853 66.2696C17.4309 66.2206 17.4038 66.15 17.4038 66.0793C17.4038 66.0086 17.4309 65.9379 17.4853 65.8889L19.737 63.6319H18.2196C18.1489 63.6319 18.0781 63.6047 18.0292 63.5503C17.9748 63.5013 17.9477 63.4306 17.9477 63.3599C17.9477 63.2892 17.9748 63.2186 18.0292 63.1696C18.0781 63.1152 18.1489 63.088 18.2196 63.088H20.395C20.4657 63.088 20.5365 63.1152 20.5854 63.1696C20.6398 63.2186 20.667 63.2892 20.667 63.3599V65.5354ZM19.3073 66.3512C19.2366 66.3512 19.1659 66.3784 19.1169 66.4328C19.0625 66.4817 19.0354 66.5524 19.0354 66.6231V69.0705H14.6845V64.7196H17.1319C17.2026 64.7196 17.2733 64.6924 17.3223 64.638C17.3767 64.5891 17.4038 64.5184 17.4038 64.4477C17.4038 64.377 17.3767 64.3063 17.3223 64.2573C17.2733 64.2029 17.2026 64.1757 17.1319 64.1757H14.6845C14.5376 64.1757 14.4017 64.2356 14.2984 64.3335C14.2005 64.4368 14.1406 64.5728 14.1406 64.7196V69.0705C14.1406 69.2173 14.2005 69.3533 14.2984 69.4566C14.4017 69.5545 14.5376 69.6144 14.6845 69.6144H19.0354C19.1822 69.6144 19.3182 69.5545 19.4215 69.4566C19.5194 69.3533 19.5793 69.2173 19.5793 69.0705V66.6231C19.5793 66.5524 19.5521 66.4817 19.4977 66.4328C19.4488 66.3784 19.378 66.3512 19.3073 66.3512Z" fill="black"/>
<path d="M26.7749 69.0706V63.5341H27.4494V65.9978H30.3971V63.5341H31.0714V69.0706H30.3971V66.596H27.4494V69.0706H26.7749ZM34.0682 69.1577C33.6657 69.1577 33.323 69.0707 33.0293 68.8912C32.7411 68.7117 32.5234 68.467 32.3657 68.1461C32.208 67.8252 32.132 67.4499 32.132 67.0257C32.132 66.6015 32.208 66.2263 32.3657 65.8999C32.5234 65.5736 32.7411 65.3234 33.0184 65.1385C33.3012 64.9536 33.6276 64.8611 34.0029 64.8611C34.2204 64.8611 34.4326 64.8992 34.6447 64.9699C34.8568 65.046 35.0469 65.1603 35.221 65.3234C35.3896 65.4811 35.5311 65.6987 35.6344 65.9598C35.7378 66.2263 35.7866 66.5525 35.7866 66.9387V67.2106H32.5834V66.6613H35.1394C35.1394 66.422 35.0906 66.2154 34.9982 66.0305C34.9057 65.8456 34.7752 65.7041 34.6012 65.5954C34.4326 65.492 34.2313 65.4376 34.0029 65.4376C33.7472 65.4376 33.5297 65.4975 33.3448 65.628C33.1599 65.7477 33.0183 65.9108 32.9204 66.1121C32.8171 66.3133 32.7683 66.5254 32.7683 66.7538V67.1236C32.7683 67.4391 32.8226 67.7056 32.9313 67.9231C33.0401 68.1352 33.1926 68.3038 33.3884 68.418C33.5841 68.5268 33.8071 68.5866 34.0682 68.5866C34.2368 68.5866 34.3891 68.5594 34.5196 68.5159C34.661 68.4669 34.7751 68.3908 34.8784 68.2983C34.9763 68.2004 35.0524 68.0808 35.1068 67.934L35.7215 68.108C35.6563 68.3147 35.5475 68.4996 35.3952 68.6573C35.2429 68.815 35.0525 68.9401 34.8295 69.0272C34.6011 69.1142 34.351 69.1577 34.0682 69.1577ZM37.3964 63.5341V69.0706H36.7601V63.5341H37.3964ZM38.5659 70.6261V64.9155H39.1804V65.579H39.2567C39.3056 65.5029 39.3708 65.4159 39.4524 65.3016C39.5339 65.1874 39.6591 65.0896 39.8114 64.9971C39.9746 64.9101 40.1866 64.8611 40.4586 64.8611C40.8066 64.8611 41.1165 64.9482 41.383 65.1276C41.6495 65.3017 41.8563 65.5464 42.0086 65.8673C42.1555 66.1882 42.2314 66.5688 42.2314 67.0039C42.2314 67.4445 42.1555 67.8252 42.0086 68.1461C41.8563 68.467 41.6495 68.7172 41.383 68.8966C41.1219 69.0707 40.8121 69.1577 40.4695 69.1577C40.203 69.1577 39.9853 69.1142 39.8276 69.0272C39.6644 68.9347 39.5447 68.8313 39.4577 68.7171C39.3707 68.6029 39.3056 68.5104 39.2567 68.4343H39.2022V70.6261H38.5659ZM39.1913 66.9931C39.1913 67.3086 39.2403 67.5859 39.3273 67.8252C39.4197 68.0645 39.5557 68.2494 39.7352 68.3854C39.9092 68.5159 40.1267 68.5866 40.3824 68.5866C40.6488 68.5866 40.8718 68.5159 41.0513 68.3745C41.2308 68.2331 41.3669 68.0373 41.4539 67.798C41.5463 67.5587 41.5952 67.2922 41.5952 66.9931C41.5952 66.6994 41.5462 66.4383 41.4592 66.2045C41.3722 65.9706 41.2363 65.7802 41.0569 65.6443C40.8774 65.5083 40.6543 65.4376 40.3824 65.4376C40.1213 65.4376 39.9036 65.5029 39.7296 65.6335C39.5501 65.764 39.4197 65.9434 39.3273 66.1827C39.2348 66.4111 39.1913 66.6831 39.1913 66.9931ZM46.914 69.1468C46.5496 69.1468 46.2342 69.0815 45.9731 68.9456C45.7121 68.815 45.5056 68.6301 45.3642 68.3963C45.2228 68.1624 45.152 67.9014 45.152 67.6022C45.152 67.3684 45.201 67.1671 45.2989 66.9877C45.3968 66.8082 45.5328 66.6396 45.7068 66.4873C45.8808 66.3296 46.082 66.1773 46.3104 66.0196L47.11 65.4268C47.2677 65.3235 47.3928 65.2146 47.4852 65.095C47.5777 64.9808 47.6265 64.8231 47.6265 64.6381C47.6265 64.4967 47.5668 64.3608 47.4417 64.2303C47.3166 64.0943 47.1588 64.029 46.9576 64.029C46.8162 64.029 46.6911 64.0671 46.5823 64.1378C46.479 64.2085 46.392 64.301 46.3322 64.4098C46.2724 64.5185 46.2451 64.6273 46.2451 64.747C46.2451 64.872 46.2779 65.008 46.3486 65.1385C46.4193 65.2691 46.5118 65.405 46.6206 65.5464C46.7348 65.6824 46.8488 65.8238 46.9685 65.9652L49.5082 69.0706H48.7416L46.6421 66.5417C46.4517 66.3078 46.2724 66.0903 46.1147 65.8999C45.957 65.7096 45.8263 65.5247 45.7339 65.3343C45.6414 65.1494 45.5926 64.9482 45.5926 64.7361C45.5926 64.4859 45.6525 64.2683 45.7612 64.078C45.87 63.8876 46.0276 63.7408 46.2289 63.6375C46.4301 63.5341 46.6639 63.4797 46.9358 63.4797C47.2132 63.4797 47.4526 63.5341 47.6539 63.6429C47.8551 63.7462 48.0074 63.8877 48.1162 64.0671C48.225 64.2412 48.2792 64.4315 48.2792 64.6381C48.2792 64.8992 48.2085 65.1331 48.078 65.3234C47.9474 65.5192 47.7681 65.7041 47.5397 65.8673L46.4411 66.6885C46.1909 66.8734 46.0222 67.0529 45.9352 67.2269C45.8427 67.401 45.7992 67.5261 45.7992 67.6022C45.7992 67.7708 45.8427 67.9339 45.9352 68.0862C46.0276 68.2331 46.1528 68.3527 46.316 68.4452C46.4791 68.5376 46.675 68.5866 46.8925 68.5866C47.0992 68.5866 47.3056 68.5376 47.5014 68.4506C47.7027 68.3636 47.8823 68.2331 48.04 68.0645C48.2031 67.8905 48.3336 67.6892 48.4261 67.4499C48.5186 67.2106 48.5674 66.9442 48.5674 66.6505H49.1875C49.1875 67.0149 49.1441 67.3139 49.0571 67.5478C48.9755 67.7817 48.8776 67.9611 48.7742 68.0971C48.6655 68.2276 48.5785 68.3255 48.5132 68.3908C48.4914 68.418 48.4749 68.4452 48.4532 68.4724C48.4369 68.4996 48.4152 68.5268 48.3934 68.554C48.2194 68.7498 47.9911 68.902 47.7192 68.9999C47.4473 69.0978 47.1805 69.1468 46.914 69.1468ZM52.4453 69.0706V63.5341H55.7627V64.1269H53.1143V65.9978H55.5181V66.596H53.1143V69.0706H52.4453ZM56.4481 69.0706H55.7465L57.7806 63.5341H58.4711L60.5053 69.0706H59.8037L58.145 64.4098H58.1014L56.4481 69.0706ZM56.7091 66.9061H59.5426V67.5043H56.7091V66.9061ZM63.1157 67.3411H63.8555L64.47 68.1515L64.6331 68.369L65.5522 69.5873H64.8182L64.209 68.7769L64.0566 68.5757L63.1157 67.3411ZM65.7808 66.3024C65.7808 66.8843 65.672 67.3901 65.4654 67.8143C65.2533 68.2439 64.965 68.5703 64.5951 68.7987C64.2253 69.0326 63.8066 69.1468 63.3335 69.1468C62.8603 69.1468 62.4415 69.0326 62.0771 68.7987C61.7073 68.5703 61.419 68.2439 61.2069 67.8143C60.9948 67.3901 60.8914 66.8843 60.8914 66.3024C60.8914 65.7205 60.9948 65.2147 61.2069 64.785C61.419 64.3608 61.7073 64.0344 62.0771 63.806C62.4415 63.5722 62.8603 63.458 63.3335 63.458C63.8066 63.458 64.2253 63.5722 64.5951 63.806C64.965 64.0344 65.2533 64.3608 65.4654 64.785C65.672 65.2147 65.7808 65.7205 65.7808 66.3024ZM65.1281 66.3024C65.1281 65.8238 65.052 65.4159 64.8888 65.0896C64.7311 64.7578 64.5136 64.5077 64.2417 64.3391C63.9752 64.1705 63.6707 64.0834 63.3335 64.0834C63.0017 64.0834 62.6969 64.1705 62.425 64.3391C62.1531 64.5077 61.9355 64.7578 61.7778 65.0896C61.6201 65.4159 61.5386 65.8238 61.5386 66.3024C61.5386 66.781 61.6201 67.1834 61.7778 67.5152C61.9355 67.847 62.1531 68.0971 62.425 68.2657C62.6969 68.4343 63.0017 68.5213 63.3335 68.5213C63.6707 68.5213 63.9752 68.4343 64.2417 68.2657C64.5136 68.0971 64.7311 67.847 64.8888 67.5152C65.052 67.1834 65.1281 66.781 65.1281 66.3024Z" fill="black"/>
<path d="M20.667 85.1145C20.667 85.1852 20.6398 85.2559 20.5854 85.3048C20.5365 85.3592 20.4657 85.3864 20.395 85.3864C20.3243 85.3864 20.2536 85.3592 20.2046 85.3048C20.1503 85.2559 20.1231 85.1852 20.1231 85.1145V83.5971L17.8661 85.8487C17.8172 85.9031 17.7464 85.9303 17.6757 85.9303C17.605 85.9303 17.5343 85.9031 17.4853 85.8487C17.4309 85.7997 17.4038 85.7291 17.4038 85.6584C17.4038 85.5877 17.4309 85.517 17.4853 85.468L19.737 83.211H18.2196C18.1489 83.211 18.0781 83.1838 18.0292 83.1294C17.9748 83.0804 17.9477 83.0097 17.9477 82.939C17.9477 82.8683 17.9748 82.7977 18.0292 82.7487C18.0781 82.6943 18.1489 82.6671 18.2196 82.6671H20.395C20.4657 82.6671 20.5365 82.6943 20.5854 82.7487C20.6398 82.7977 20.667 82.8683 20.667 82.939V85.1145ZM19.3073 85.9303C19.2366 85.9303 19.1659 85.9575 19.1169 86.0119C19.0625 86.0608 19.0354 86.1315 19.0354 86.2022V88.6496H14.6845V84.2987H17.1319C17.2026 84.2987 17.2733 84.2715 17.3223 84.2171C17.3767 84.1682 17.4038 84.0975 17.4038 84.0268C17.4038 83.9561 17.3767 83.8854 17.3223 83.8364C17.2733 83.782 17.2026 83.7548 17.1319 83.7548H14.6845C14.5376 83.7548 14.4017 83.8147 14.2984 83.9126C14.2005 84.0159 14.1406 84.1519 14.1406 84.2987V88.6496C14.1406 88.7964 14.2005 88.9324 14.2984 89.0357C14.4017 89.1336 14.5376 89.1935 14.6845 89.1935H19.0354C19.1822 89.1935 19.3182 89.1336 19.4215 89.0357C19.5194 88.9324 19.5793 88.7964 19.5793 88.6496V86.2022C19.5793 86.1315 19.5521 86.0608 19.4977 86.0119C19.4488 85.9575 19.378 85.9303 19.3073 85.9303Z" fill="black"/>
<path d="M26.7749 88.6495V83.1129H28.6458C29.0808 83.1129 29.4343 83.1836 29.7117 83.3359C29.9891 83.4773 30.1958 83.6785 30.3318 83.9342C30.4623 84.1952 30.5275 84.4834 30.5275 84.8098C30.5275 85.1361 30.4623 85.4244 30.3318 85.68C30.1958 85.9302 29.9892 86.1259 29.7173 86.2728C29.4399 86.4142 29.0863 86.4849 28.6566 86.4849H27.1448V85.8812H28.6349C28.934 85.8812 29.168 85.8377 29.3529 85.7507C29.5324 85.6637 29.6628 85.544 29.7444 85.3808C29.8259 85.2231 29.8694 85.0327 29.8694 84.8098C29.8694 84.5868 29.8259 84.3965 29.7444 84.2279C29.6628 84.0647 29.5323 83.9342 29.3474 83.8472C29.1679 83.7547 28.9231 83.7058 28.624 83.7058H27.4494V88.6495H26.7749ZM29.3853 86.164L30.745 88.6495H29.9674L28.624 86.164H29.3853ZM33.2577 88.7365C32.8552 88.7365 32.5128 88.6495 32.2191 88.47C31.9309 88.2905 31.7078 88.0458 31.5555 87.7249C31.3978 87.404 31.3215 87.0287 31.3215 86.6045C31.3215 86.1803 31.3978 85.8051 31.5555 85.4788C31.7078 85.1525 31.9308 84.9023 32.2082 84.7173C32.491 84.5324 32.8171 84.44 33.1924 84.44C33.4099 84.44 33.6221 84.478 33.8342 84.5487C34.0463 84.6249 34.2367 84.7391 34.4108 84.9022C34.5794 85.06 34.7206 85.2775 34.824 85.5386C34.9273 85.8051 34.9764 86.1314 34.9764 86.5175V86.7894H31.773V86.2401H34.3292C34.3292 86.0008 34.2801 85.7942 34.1877 85.6093C34.0952 85.4244 33.9647 85.2829 33.7907 85.1742C33.6221 85.0708 33.4208 85.0164 33.1924 85.0164C32.9368 85.0164 32.7192 85.0763 32.5343 85.2068C32.3494 85.3265 32.2081 85.4897 32.1102 85.6909C32.0069 85.8921 31.9578 86.1042 31.9578 86.3326V86.7025C31.9578 87.0179 32.0123 87.2844 32.1211 87.5019C32.2299 87.714 32.3821 87.8826 32.5779 87.9969C32.7737 88.1056 32.9966 88.1654 33.2577 88.1654C33.4263 88.1654 33.5786 88.1382 33.7091 88.0947C33.8506 88.0458 33.9648 87.9696 34.0682 87.8772C34.1661 87.7793 34.2422 87.6597 34.2966 87.5128L34.9111 87.6868C34.8458 87.8935 34.737 88.0784 34.5847 88.2361C34.4324 88.3938 34.242 88.519 34.0191 88.606C33.7906 88.693 33.5405 88.7365 33.2577 88.7365ZM36.5862 83.1129V88.6495H35.9499V83.1129H36.5862ZM39.4959 88.7365C39.0935 88.7365 38.7509 88.6495 38.4626 88.47C38.169 88.2905 37.9514 88.0458 37.7937 87.7249C37.636 87.404 37.5597 87.0287 37.5597 86.6045C37.5597 86.1803 37.636 85.8051 37.7937 85.4788C37.9514 85.1525 38.1688 84.9023 38.4462 84.7173C38.729 84.5324 39.0553 84.44 39.4306 84.44C39.6481 84.44 39.8603 84.478 40.0724 84.5487C40.2846 84.6249 40.4749 84.7391 40.649 84.9022C40.823 85.06 40.9588 85.2775 41.0622 85.5386C41.1655 85.8051 41.2143 86.1314 41.2143 86.5175V86.7894H38.0112V86.2401H40.5672C40.5672 86.0008 40.5184 85.7942 40.4259 85.6093C40.3334 85.4244 40.2029 85.2829 40.0289 85.1742C39.8603 85.0708 39.659 85.0164 39.4306 85.0164C39.175 85.0164 38.9575 85.0763 38.7725 85.2068C38.5876 85.3265 38.4461 85.4897 38.3482 85.6909C38.2448 85.8921 38.196 86.1042 38.196 86.3326V86.7025C38.196 87.0179 38.2503 87.2844 38.3591 87.5019C38.4678 87.714 38.6203 87.8826 38.8161 87.9969C39.0119 88.1056 39.2403 88.1654 39.4959 88.1654C39.6645 88.1654 39.8168 88.1382 39.9474 88.0947C40.0888 88.0458 40.2028 87.9696 40.3061 87.8772C40.404 87.7793 40.4801 87.6597 40.5345 87.5128L41.1493 87.6868C41.084 87.8935 40.9752 88.0784 40.8229 88.2361C40.6706 88.3938 40.4803 88.519 40.2573 88.606C40.0289 88.693 39.7787 88.7365 39.4959 88.7365ZM43.4063 88.7474C43.1452 88.7474 42.9059 88.6984 42.6938 88.6005C42.4762 88.4972 42.3077 88.3503 42.1826 88.1654C42.052 87.9696 41.9922 87.7412 41.9922 87.4693C41.9922 87.23 42.0358 87.0396 42.1337 86.8928C42.2262 86.7405 42.3512 86.6263 42.5089 86.5393C42.6667 86.4577 42.8351 86.3924 43.0255 86.3489C43.2158 86.3054 43.4116 86.2728 43.602 86.251C43.8576 86.2184 44.0588 86.1912 44.2165 86.1749C44.3742 86.1585 44.4885 86.126 44.5646 86.0879C44.6353 86.0444 44.6735 85.9737 44.6735 85.8703V85.8486C44.6735 85.5821 44.6029 85.3754 44.456 85.2285C44.3092 85.0763 44.0914 85.0056 43.7977 85.0056C43.4931 85.0056 43.2539 85.0709 43.0799 85.2068C42.9059 85.3374 42.7862 85.4787 42.7155 85.631L42.1119 85.4135C42.2207 85.1633 42.3621 84.9675 42.5416 84.8261C42.7265 84.6847 42.9221 84.5868 43.1396 84.527C43.3517 84.4726 43.5641 84.44 43.7762 84.44C43.9067 84.44 44.0643 84.4563 44.2329 84.4889C44.4124 84.5215 44.5808 84.5868 44.7386 84.6847C44.9072 84.7826 45.0431 84.9295 45.1465 85.1252C45.2552 85.321 45.3098 85.5821 45.3098 85.9138V88.6495H44.6735V88.0893H44.6408C44.5973 88.1763 44.5267 88.2742 44.4233 88.3775C44.3255 88.4809 44.1894 88.5679 44.0208 88.6386C43.8522 88.7093 43.651 88.7474 43.4063 88.7474ZM43.5043 88.1709C43.7599 88.1709 43.9718 88.1219 44.1458 88.024C44.3199 87.9261 44.4505 87.7956 44.5375 87.6433C44.63 87.4856 44.6735 87.317 44.6735 87.1484V86.5611C44.6463 86.5937 44.5864 86.6263 44.494 86.6535C44.407 86.6752 44.2983 86.697 44.1841 86.7187C44.0644 86.735 43.9501 86.7514 43.8359 86.7677C43.7272 86.7786 43.64 86.7894 43.5693 86.8003C43.4062 86.8221 43.2484 86.8547 43.107 86.9037C42.9601 86.9526 42.8461 87.0233 42.7591 87.1212C42.6721 87.2136 42.6284 87.3388 42.6284 87.5019C42.6284 87.7249 42.7101 87.8935 42.8733 88.0077C43.0419 88.1165 43.2486 88.1709 43.5043 88.1709ZM49.4158 85.4243L48.8449 85.5875C48.8068 85.4951 48.7578 85.4026 48.6871 85.3101C48.6164 85.2177 48.524 85.1415 48.4043 85.0817C48.2847 85.0219 48.1325 84.9947 47.9476 84.9947C47.6919 84.9947 47.4799 85.0545 47.3113 85.1687C47.1427 85.2829 47.0609 85.4298 47.0609 85.6093C47.0609 85.767 47.1154 85.8921 47.2351 85.9845C47.3493 86.077 47.5286 86.1532 47.7734 86.2184L48.3881 86.3653C48.7634 86.4577 49.0406 86.5937 49.2201 86.7786C49.405 86.9635 49.4921 87.2028 49.4921 87.491C49.4921 87.7303 49.4267 87.9425 49.2908 88.1328C49.1548 88.3177 48.9645 88.4645 48.7198 88.5733C48.4751 88.6821 48.1922 88.7365 47.8714 88.7365C47.4471 88.7365 47.099 88.644 46.8216 88.4591C46.5442 88.2742 46.3649 88.0077 46.2942 87.6542L46.8978 87.5019C46.9576 87.7249 47.0665 87.8935 47.2242 88.0077C47.3873 88.1165 47.5994 88.1709 47.8605 88.1709C48.1596 88.1709 48.3933 88.1111 48.5674 87.986C48.7469 87.8554 48.834 87.7032 48.834 87.5237C48.834 87.3823 48.7849 87.2572 48.6816 87.1647C48.5837 87.0614 48.4262 86.9907 48.2195 86.9417L47.5232 86.7786C47.1425 86.6862 46.8651 86.5502 46.6856 86.3598C46.5116 86.1695 46.4246 85.9301 46.4246 85.6419C46.4246 85.408 46.49 85.2014 46.6206 85.0219C46.7511 84.8424 46.936 84.701 47.1644 84.5977C47.3929 84.4944 47.6539 84.44 47.9476 84.44C48.3555 84.44 48.6817 84.5324 48.9155 84.7119C49.1494 84.8914 49.3179 85.1306 49.4158 85.4243ZM52.1952 88.7365C51.7981 88.7365 51.4499 88.6495 51.1616 88.47C50.8734 88.2905 50.6504 88.0458 50.4927 87.7249C50.335 87.404 50.259 87.0287 50.259 86.6045C50.259 86.1803 50.335 85.8051 50.4927 85.4788C50.6504 85.1525 50.868 84.9023 51.1454 84.7173C51.4282 84.5324 51.7546 84.44 52.1298 84.44C52.3474 84.44 52.5593 84.478 52.7714 84.5487C52.9835 84.6249 53.1739 84.7391 53.3479 84.9022C53.522 85.06 53.6581 85.2775 53.7614 85.5386C53.8648 85.8051 53.9136 86.1314 53.9136 86.5175V86.7894H50.7157V86.2401H53.2664C53.2664 86.0008 53.2176 85.7942 53.1251 85.6093C53.0327 85.4244 52.902 85.2829 52.7334 85.1742C52.5594 85.0708 52.3637 85.0164 52.1298 85.0164C51.8742 85.0164 51.6567 85.0763 51.4718 85.2068C51.2869 85.3265 51.1453 85.4897 51.0474 85.6909C50.9495 85.8921 50.8953 86.1042 50.8953 86.3326V86.7025C50.8953 87.0179 50.9495 87.2844 51.0583 87.5019C51.1671 87.714 51.325 87.8826 51.5153 87.9969C51.7111 88.1056 51.9395 88.1654 52.1952 88.1654C52.3638 88.1654 52.516 88.1382 52.6519 88.0947C52.7879 88.0458 52.9075 87.9696 53.0054 87.8772C53.1033 87.7793 53.1794 87.6597 53.2338 87.5128L53.8483 87.6868C53.783 87.8935 53.6744 88.0784 53.5222 88.2361C53.3699 88.3938 53.1795 88.519 52.9565 88.606C52.7281 88.693 52.478 88.7365 52.1952 88.7365ZM57.6662 86.1532V88.6495H57.0299V84.4943H57.6447V85.147H57.6989C57.7967 84.9349 57.9436 84.7663 58.1394 84.6358C58.3406 84.5052 58.5962 84.44 58.9117 84.44C59.189 84.44 59.4338 84.4998 59.6459 84.614C59.858 84.7282 60.0213 84.9023 60.1409 85.1361C60.2551 85.3646 60.3149 85.6582 60.3149 86.0117V88.6495H59.6786V86.0552C59.6786 85.7289 59.5914 85.4733 59.4229 85.2938C59.2543 85.1089 59.0205 85.0164 58.7268 85.0164C58.5202 85.0164 58.3408 85.06 58.1777 85.147C58.0199 85.234 57.8946 85.3645 57.8022 85.5331C57.7097 85.7017 57.6662 85.9084 57.6662 86.1532ZM63.1701 88.7365C62.7949 88.7365 62.4632 88.6495 62.1804 88.47C61.903 88.2905 61.6801 88.0404 61.5224 87.7195C61.3646 87.3986 61.2884 87.0233 61.2884 86.5936C61.2884 86.164 61.3646 85.7833 61.5224 85.4624C61.6801 85.1416 61.903 84.8859 62.1804 84.7119C62.4632 84.5324 62.7949 84.44 63.1701 84.44C63.5454 84.44 63.8718 84.5324 64.1546 84.7119C64.4374 84.8859 64.6549 85.1416 64.8126 85.4624C64.9703 85.7833 65.0519 86.164 65.0519 86.5936C65.0519 87.0233 64.9703 87.3986 64.8126 87.7195C64.6549 88.0404 64.4374 88.2905 64.1546 88.47C63.8718 88.6495 63.5454 88.7365 63.1701 88.7365ZM63.1701 88.1654C63.4529 88.1654 63.6868 88.0893 63.8717 87.9424C64.0567 87.7956 64.1926 87.6053 64.2796 87.366C64.3667 87.1321 64.4103 86.871 64.4103 86.5936C64.4103 86.3163 64.3667 86.0607 64.2796 85.816C64.1926 85.5767 64.0567 85.3863 63.8717 85.2394C63.6868 85.0872 63.4529 85.0164 63.1701 85.0164C62.8819 85.0164 62.6481 85.0872 62.4632 85.2394C62.2837 85.3863 62.1478 85.5767 62.0553 85.816C61.9683 86.0607 61.9247 86.3163 61.9247 86.5936C61.9247 86.871 61.9683 87.1321 62.0553 87.366C62.1478 87.6053 62.2837 87.7956 62.4632 87.9424C62.6481 88.0893 62.8819 88.1654 63.1701 88.1654ZM67.8312 84.4943V85.0382H65.6773V84.4943H67.8312ZM66.3082 83.4991H66.9445V87.4584C66.9445 87.6379 66.9718 87.7739 67.0207 87.8663C67.0751 87.9534 67.1458 88.0132 67.2273 88.0458C67.3144 88.073 67.4015 88.0893 67.494 88.0893C67.5647 88.0893 67.6244 88.0838 67.6679 88.0784C67.7114 88.0675 67.7496 88.0621 67.7768 88.0567L67.9072 88.6277C67.8637 88.644 67.8038 88.6604 67.7276 88.6767C67.6461 88.693 67.5483 88.7038 67.4286 88.7038C67.2491 88.7038 67.075 88.6658 66.901 88.5896C66.7269 88.5081 66.5858 88.3938 66.4716 88.2307C66.3628 88.073 66.3082 87.8717 66.3082 87.6324V83.4991ZM70.4852 88.7365C70.0882 88.7365 69.7402 88.6495 69.4519 88.47C69.1637 88.2905 68.9407 88.0458 68.783 87.7249C68.6307 87.404 68.549 87.0287 68.549 86.6045C68.549 86.1803 68.6307 85.8051 68.783 85.4788C68.9407 85.1525 69.1581 84.9023 69.4354 84.7173C69.7183 84.5324 70.0446 84.44 70.4199 84.44C70.6374 84.44 70.8496 84.478 71.0617 84.5487C71.2738 84.6249 71.4642 84.7391 71.6382 84.9022C71.8123 85.06 71.9481 85.2775 72.0515 85.5386C72.1548 85.8051 72.2092 86.1314 72.2092 86.5175V86.7894H69.0058V86.2401H71.5565C71.5565 86.0008 71.5131 85.7942 71.4152 85.6093C71.3227 85.4244 71.1921 85.2829 71.0235 85.1742C70.8549 85.0708 70.6537 85.0164 70.4199 85.0164C70.1697 85.0164 69.9467 85.0763 69.7618 85.2068C69.5769 85.3265 69.4356 85.4897 69.3377 85.6909C69.2398 85.8921 69.1909 86.1042 69.1909 86.3326V86.7025C69.1909 87.0179 69.2451 87.2844 69.3539 87.5019C69.4627 87.714 69.6149 87.8826 69.8107 87.9969C70.001 88.1056 70.2296 88.1654 70.4852 88.1654C70.6538 88.1654 70.806 88.1382 70.942 88.0947C71.0779 88.0458 71.1975 87.9696 71.2954 87.8772C71.3933 87.7793 71.4694 87.6597 71.5238 87.5128L72.1439 87.6868C72.0786 87.8935 71.9699 88.0784 71.8122 88.2361C71.6599 88.3938 71.475 88.519 71.2466 88.606C71.0236 88.693 70.768 88.7365 70.4852 88.7365ZM76.1195 85.4243L75.5486 85.5875C75.5105 85.4951 75.456 85.4026 75.3853 85.3101C75.32 85.2177 75.2222 85.1415 75.108 85.0817C74.9884 85.0219 74.836 84.9947 74.6457 84.9947C74.3955 84.9947 74.1833 85.0545 74.0147 85.1687C73.8461 85.2829 73.7593 85.4298 73.7593 85.6093C73.7593 85.767 73.819 85.8921 73.9332 85.9845C74.0474 86.077 74.2323 86.1532 74.4771 86.2184L75.0916 86.3653C75.4614 86.4577 75.7389 86.5937 75.9238 86.7786C76.1033 86.9635 76.1958 87.2028 76.1958 87.491C76.1958 87.7303 76.1251 87.9425 75.9892 88.1328C75.8532 88.3177 75.6628 88.4645 75.4235 88.5733C75.1788 88.6821 74.8959 88.7365 74.5751 88.7365C74.1508 88.7365 73.7974 88.644 73.52 88.4591C73.2426 88.2742 73.0685 88.0077 72.9923 87.6542L73.6015 87.5019C73.6559 87.7249 73.7647 87.8935 73.9279 88.0077C74.091 88.1165 74.3031 88.1709 74.5642 88.1709C74.8579 88.1709 75.097 88.1111 75.2711 87.986C75.4451 87.8554 75.5377 87.7032 75.5377 87.5237C75.5377 87.3823 75.4832 87.2572 75.3853 87.1647C75.2819 87.0614 75.1297 86.9907 74.9176 86.9417L74.2269 86.7786C73.8462 86.6862 73.5688 86.5502 73.3893 86.3598C73.2099 86.1695 73.123 85.9301 73.123 85.6419C73.123 85.408 73.1882 85.2014 73.3187 85.0219C73.4547 84.8424 73.6341 84.701 73.8626 84.5977C74.0964 84.4944 74.3574 84.44 74.6457 84.44C75.059 84.44 75.3798 84.5324 75.6137 84.7119C75.853 84.8914 76.0216 85.1306 76.1195 85.4243Z" fill="black"/>
<path d="M20.667 104.693C20.667 104.764 20.6398 104.835 20.5854 104.884C20.5365 104.938 20.4657 104.965 20.395 104.965C20.3243 104.965 20.2536 104.938 20.2046 104.884C20.1503 104.835 20.1231 104.764 20.1231 104.693V103.176L17.8661 105.428C17.8172 105.482 17.7464 105.509 17.6757 105.509C17.605 105.509 17.5343 105.482 17.4853 105.428C17.4309 105.379 17.4038 105.308 17.4038 105.237C17.4038 105.167 17.4309 105.096 17.4853 105.047L19.737 102.79H18.2196C18.1489 102.79 18.0781 102.763 18.0292 102.708C17.9748 102.659 17.9477 102.589 17.9477 102.518C17.9477 102.447 17.9748 102.377 18.0292 102.328C18.0781 102.273 18.1489 102.246 18.2196 102.246H20.395C20.4657 102.246 20.5365 102.273 20.5854 102.328C20.6398 102.377 20.667 102.447 20.667 102.518V104.693ZM19.3073 105.509C19.2366 105.509 19.1659 105.536 19.1169 105.591C19.0625 105.64 19.0354 105.71 19.0354 105.781V108.229H14.6845V103.878H17.1319C17.2026 103.878 17.2733 103.85 17.3223 103.796C17.3767 103.747 17.4038 103.676 17.4038 103.606C17.4038 103.535 17.3767 103.464 17.3223 103.415C17.2733 103.361 17.2026 103.334 17.1319 103.334H14.6845C14.5376 103.334 14.4017 103.394 14.2984 103.492C14.2005 103.595 14.1406 103.731 14.1406 103.878V108.229C14.1406 108.375 14.2005 108.511 14.2984 108.615C14.4017 108.713 14.5376 108.772 14.6845 108.772H19.0354C19.1822 108.772 19.3182 108.713 19.4215 108.615C19.5194 108.511 19.5793 108.375 19.5793 108.229V105.781C19.5793 105.71 19.5521 105.64 19.4977 105.591C19.4488 105.536 19.378 105.509 19.3073 105.509Z" fill="black"/>
<path d="M26.4751 103.285V102.692H30.6247V103.285H28.8842V108.229H28.2153V103.285H26.4751ZM32.7131 108.316C32.3106 108.316 31.968 108.229 31.6798 108.049C31.3915 107.87 31.1685 107.625 31.0108 107.304C30.8531 106.983 30.7769 106.608 30.7769 106.184C30.7769 105.759 30.8531 105.384 31.0108 105.058C31.1685 104.732 31.3862 104.481 31.6636 104.297C31.9464 104.112 32.2725 104.019 32.6477 104.019C32.8653 104.019 33.0775 104.057 33.2896 104.128C33.5017 104.204 33.6921 104.318 33.8661 104.481C34.0401 104.639 34.176 104.857 34.2793 105.118C34.3826 105.384 34.4317 105.711 34.4317 106.097V106.369H31.2339V105.819H33.7846C33.7846 105.58 33.7355 105.373 33.643 105.188C33.5506 105.004 33.4201 104.862 33.246 104.753C33.0774 104.65 32.8816 104.596 32.6477 104.596C32.3921 104.596 32.1746 104.655 31.9897 104.786C31.8048 104.906 31.6635 105.069 31.5656 105.27C31.4677 105.471 31.4131 105.683 31.4131 105.912V106.282C31.4131 106.597 31.4677 106.864 31.5765 107.081C31.6852 107.293 31.8374 107.462 32.0332 107.576C32.229 107.685 32.4574 107.745 32.7131 107.745C32.8816 107.745 33.0341 107.717 33.1701 107.674C33.306 107.625 33.4202 107.549 33.5235 107.456C33.6214 107.358 33.6975 107.239 33.7519 107.092L34.3664 107.266C34.3012 107.473 34.1923 107.658 34.04 107.815C33.8878 107.973 33.6974 108.098 33.4744 108.185C33.246 108.272 32.9959 108.316 32.7131 108.316ZM35.4053 108.229V104.074H36.0198V104.704H36.0633C36.1395 104.498 36.2753 104.329 36.4765 104.204C36.6723 104.073 36.8953 104.008 37.1455 104.008C37.1944 104.008 37.249 104.014 37.3197 104.014C37.3904 104.014 37.4447 104.019 37.4827 104.019V104.672C37.461 104.666 37.4067 104.655 37.3306 104.645C37.2544 104.634 37.1783 104.628 37.0913 104.628C36.8901 104.628 36.7105 104.672 36.5528 104.753C36.395 104.835 36.27 104.955 36.1775 105.101C36.0851 105.248 36.0416 105.411 36.0416 105.602V108.229H35.4053ZM38.2388 108.229V104.074H38.8533V104.726H38.9077C38.9947 104.503 39.1362 104.329 39.3265 104.209C39.5169 104.084 39.7506 104.019 40.0225 104.019C40.2945 104.019 40.523 104.084 40.7079 104.209C40.8874 104.329 41.0343 104.503 41.1376 104.726H41.1812C41.2845 104.509 41.4422 104.34 41.6597 104.215C41.8718 104.084 42.1274 104.019 42.4211 104.019C42.7963 104.019 43.0955 104.139 43.3348 104.373C43.5687 104.601 43.6883 104.96 43.6883 105.449V108.229H43.052V105.449C43.052 105.145 42.9649 104.922 42.7963 104.791C42.6331 104.661 42.432 104.596 42.2036 104.596C41.9153 104.596 41.6868 104.683 41.529 104.862C41.3659 105.036 41.2845 105.254 41.2845 105.526V108.229H40.6373V105.384C40.6373 105.15 40.5609 104.96 40.4087 104.813C40.2564 104.666 40.0552 104.596 39.8159 104.596C39.6473 104.596 39.4951 104.639 39.3483 104.726C39.2069 104.813 39.0927 104.938 39.0057 105.096C38.9187 105.248 38.8751 105.428 38.8751 105.634V108.229H38.2388ZM47.7943 105.003L47.2234 105.167C47.1853 105.074 47.1364 104.982 47.0657 104.889C46.995 104.797 46.9025 104.721 46.7828 104.661C46.6632 104.601 46.511 104.574 46.3261 104.574C46.0705 104.574 45.8581 104.634 45.6895 104.748C45.5209 104.862 45.4394 105.009 45.4394 105.188C45.4394 105.346 45.4939 105.471 45.6136 105.564C45.7278 105.656 45.9071 105.732 46.1519 105.798L46.7666 105.944C47.1419 106.037 47.4192 106.173 47.5986 106.358C47.7835 106.543 47.8706 106.782 47.8706 107.07C47.8706 107.309 47.8054 107.522 47.664 107.712C47.5334 107.897 47.3431 108.044 47.0983 108.152C46.8536 108.261 46.5707 108.316 46.2499 108.316C45.8257 108.316 45.4775 108.223 45.2001 108.038C44.9227 107.853 44.7434 107.587 44.6727 107.233L45.2763 107.081C45.3362 107.304 45.445 107.473 45.6027 107.587C45.7659 107.696 45.9779 107.75 46.239 107.75C46.5381 107.75 46.7719 107.69 46.9459 107.565C47.1254 107.435 47.2125 107.282 47.2125 107.103C47.2125 106.961 47.1634 106.836 47.0601 106.744C46.9622 106.641 46.8047 106.57 46.598 106.521L45.9017 106.358C45.521 106.265 45.2436 106.129 45.0641 105.939C44.8901 105.749 44.7978 105.509 44.7978 105.221C44.7978 104.987 44.8686 104.781 44.9991 104.601C45.1296 104.422 45.3145 104.28 45.5429 104.177C45.7714 104.074 46.0324 104.019 46.3261 104.019C46.734 104.019 47.0602 104.112 47.294 104.291C47.5279 104.471 47.6965 104.71 47.7943 105.003ZM52.5423 108.305C52.1779 108.305 51.8624 108.24 51.6014 108.104C51.3403 107.973 51.1336 107.788 50.9922 107.554C50.8508 107.32 50.7803 107.059 50.7803 106.76C50.7803 106.526 50.8292 106.325 50.9271 106.146C51.025 105.966 51.161 105.798 51.335 105.645C51.5091 105.488 51.7102 105.335 51.9386 105.178L52.7382 104.585C52.896 104.481 53.021 104.373 53.1135 104.253C53.2059 104.139 53.2547 103.981 53.2547 103.796C53.2547 103.655 53.195 103.519 53.0699 103.388C52.9448 103.252 52.787 103.187 52.5858 103.187C52.4444 103.187 52.3193 103.225 52.2106 103.296C52.1072 103.367 52.0202 103.459 51.9604 103.568C51.9006 103.677 51.8733 103.785 51.8733 103.905C51.8733 104.03 51.9059 104.166 51.9766 104.297C52.0473 104.427 52.1398 104.563 52.2486 104.704C52.3628 104.84 52.477 104.982 52.5967 105.123L55.1365 108.229H54.3698L52.2703 105.7C52.0745 105.466 51.9007 105.248 51.7429 105.058C51.5852 104.868 51.4546 104.683 51.3621 104.492C51.2697 104.307 51.2208 104.106 51.2208 103.894C51.2208 103.644 51.2753 103.426 51.3895 103.236C51.4982 103.046 51.6559 102.899 51.8571 102.795C52.0583 102.692 52.2921 102.638 52.564 102.638C52.8414 102.638 53.0809 102.692 53.2821 102.801C53.4779 102.904 53.6354 103.046 53.7442 103.225C53.8529 103.399 53.9075 103.589 53.9075 103.796C53.9075 104.057 53.8367 104.291 53.7062 104.481C53.5757 104.677 53.3961 104.862 53.1676 105.025L52.0637 105.847C51.819 106.031 51.6504 106.211 51.5634 106.385C51.471 106.559 51.4274 106.684 51.4274 106.76C51.4274 106.929 51.471 107.092 51.5634 107.244C51.6559 107.391 51.7808 107.511 51.944 107.603C52.1071 107.696 52.3029 107.745 52.5205 107.745C52.7271 107.745 52.9339 107.696 53.1297 107.609C53.3309 107.522 53.5105 107.391 53.6682 107.222C53.8314 107.048 53.9619 106.847 54.0543 106.608C54.1468 106.369 54.1956 106.102 54.1956 105.808H54.8157C54.8157 106.173 54.7721 106.472 54.685 106.706C54.6035 106.94 54.5056 107.119 54.4022 107.255C54.2935 107.386 54.2064 107.484 54.1412 107.549C54.1194 107.576 54.1032 107.603 54.0814 107.63C54.0651 107.658 54.0434 107.685 54.0217 107.712C53.8476 107.908 53.6191 108.06 53.3472 108.158C53.0752 108.256 52.8088 108.305 52.5423 108.305ZM57.9865 109.784V104.074H58.601V104.737H58.6772C58.7261 104.661 58.7913 104.574 58.8729 104.46C58.9599 104.345 59.0795 104.248 59.2372 104.155C59.395 104.068 59.6072 104.019 59.8791 104.019C60.2272 104.019 60.537 104.106 60.8035 104.286C61.07 104.46 61.2769 104.704 61.4292 105.025C61.576 105.346 61.652 105.727 61.652 106.162C61.652 106.602 61.576 106.983 61.4292 107.304C61.2769 107.625 61.07 107.875 60.8035 108.055C60.5424 108.229 60.2381 108.316 59.89 108.316C59.6235 108.316 59.4113 108.272 59.2481 108.185C59.0904 108.093 58.9652 107.989 58.8782 107.875C58.7912 107.761 58.7261 107.668 58.6772 107.592H58.6227V109.784H57.9865ZM58.6119 106.151C58.6119 106.467 58.6607 106.744 58.7531 106.983C58.8401 107.222 58.9762 107.407 59.1557 107.543C59.3297 107.674 59.5473 107.745 59.8029 107.745C60.0694 107.745 60.2923 107.674 60.4718 107.532C60.6513 107.391 60.7874 107.195 60.8744 106.956C60.9669 106.717 61.0157 106.45 61.0157 106.151C61.0157 105.857 60.9667 105.596 60.8797 105.362C60.7927 105.129 60.6569 104.938 60.4774 104.802C60.2979 104.666 60.0748 104.596 59.8029 104.596C59.5418 104.596 59.3242 104.661 59.1501 104.791C58.9707 104.922 58.8403 105.101 58.7478 105.341C58.6608 105.569 58.6119 105.841 58.6119 106.151ZM64.3115 108.316C63.9363 108.316 63.6099 108.229 63.3271 108.049C63.0443 107.87 62.8269 107.62 62.6637 107.299C62.5114 106.978 62.4298 106.602 62.4298 106.173C62.4298 105.743 62.5114 105.362 62.6637 105.042C62.8269 104.721 63.0443 104.465 63.3271 104.291C63.6099 104.112 63.9363 104.019 64.3115 104.019C64.6868 104.019 65.0131 104.112 65.2959 104.291C65.5788 104.465 65.8016 104.721 65.9593 105.042C66.117 105.362 66.1933 105.743 66.1933 106.173C66.1933 106.602 66.117 106.978 65.9593 107.299C65.8016 107.62 65.5788 107.87 65.2959 108.049C65.0131 108.229 64.6868 108.316 64.3115 108.316ZM64.3115 107.745C64.5998 107.745 64.8336 107.668 65.0131 107.522C65.198 107.375 65.3339 107.184 65.4263 106.945C65.5133 106.711 65.557 106.45 65.557 106.173C65.557 105.895 65.5133 105.64 65.4263 105.395C65.3339 105.156 65.198 104.965 65.0131 104.819C64.8336 104.666 64.5998 104.596 64.3115 104.596C64.0287 104.596 63.7948 104.666 63.6099 104.819C63.425 104.965 63.289 105.156 63.202 105.395C63.115 105.64 63.0716 105.895 63.0716 106.173C63.0716 106.45 63.115 106.711 63.202 106.945C63.289 107.184 63.425 107.375 63.6099 107.522C63.7948 107.668 64.0287 107.745 64.3115 107.745ZM67.8087 102.692V108.229H67.1668V102.692H67.8087ZM68.9779 108.229V104.074H69.6142V108.229H68.9779ZM69.2987 103.383C69.1736 103.383 69.0704 103.339 68.9779 103.258C68.8909 103.171 68.8472 103.067 68.8472 102.953C68.8472 102.834 68.8909 102.73 68.9779 102.643C69.0704 102.562 69.1736 102.518 69.2987 102.518C69.4238 102.518 69.5325 102.562 69.6195 102.643C69.7065 102.73 69.7555 102.834 69.7555 102.953C69.7555 103.067 69.7065 103.171 69.6195 103.258C69.5325 103.339 69.4238 103.383 69.2987 103.383ZM72.4695 108.316C72.0779 108.316 71.7461 108.223 71.4633 108.038C71.1804 107.853 70.9684 107.603 70.8161 107.277C70.6638 106.956 70.5877 106.586 70.5877 106.173C70.5877 105.754 70.6639 105.379 70.8217 105.058C70.9794 104.732 71.1968 104.481 71.4741 104.297C71.757 104.112 72.0833 104.019 72.4586 104.019C72.7523 104.019 73.0134 104.074 73.2473 104.182C73.4811 104.291 73.677 104.443 73.8238 104.639C73.9761 104.835 74.0684 105.058 74.101 105.319H73.4648C73.4158 105.129 73.307 104.96 73.1384 104.819C72.9752 104.666 72.7523 104.596 72.4695 104.596C72.2193 104.596 72.0016 104.661 71.8167 104.791C71.6318 104.917 71.4851 105.096 71.3817 105.335C71.2784 105.564 71.224 105.841 71.224 106.151C71.224 106.472 71.2785 106.755 71.3764 106.989C71.4798 107.228 71.6265 107.413 71.8114 107.543C71.9963 107.674 72.2193 107.745 72.4695 107.745C72.6381 107.745 72.7849 107.712 72.9209 107.658C73.0569 107.598 73.171 107.516 73.2635 107.407C73.3559 107.299 73.4267 107.168 73.4648 107.016H74.101C74.0684 107.261 73.9758 107.484 73.8344 107.679C73.693 107.875 73.5082 108.027 73.2744 108.147C73.0459 108.256 72.774 108.316 72.4695 108.316ZM75.0366 108.229V104.074H75.6729V108.229H75.0366ZM75.3574 103.383C75.2377 103.383 75.1291 103.339 75.0366 103.258C74.9496 103.171 74.9059 103.067 74.9059 102.953C74.9059 102.834 74.9496 102.73 75.0366 102.643C75.1291 102.562 75.2377 102.518 75.3574 102.518C75.4825 102.518 75.5912 102.562 75.6782 102.643C75.7706 102.73 75.8142 102.834 75.8142 102.953C75.8142 103.067 75.7706 103.171 75.6782 103.258C75.5912 103.339 75.4825 103.383 75.3574 103.383ZM78.5826 108.316C78.1856 108.316 77.8373 108.229 77.549 108.049C77.2608 107.87 77.0378 107.625 76.8801 107.304C76.7278 106.983 76.6464 106.608 76.6464 106.184C76.6464 105.759 76.7278 105.384 76.8801 105.058C77.0378 104.732 77.2555 104.481 77.5328 104.297C77.8157 104.112 78.142 104.019 78.5173 104.019C78.7348 104.019 78.9468 104.057 79.1589 104.128C79.371 104.204 79.5613 104.318 79.7354 104.481C79.9094 104.639 80.0455 104.857 80.1489 105.118C80.2522 105.384 80.301 105.711 80.301 106.097V106.369H77.1032V105.819H79.6539C79.6539 105.58 79.605 105.373 79.5126 105.188C79.4201 105.004 79.2895 104.862 79.1209 104.753C78.9523 104.65 78.7511 104.596 78.5173 104.596C78.2671 104.596 78.0441 104.655 77.8592 104.786C77.6743 104.906 77.5328 105.069 77.4349 105.27C77.337 105.471 77.288 105.683 77.288 105.912V106.282C77.288 106.597 77.3424 106.864 77.4457 107.081C77.56 107.293 77.7124 107.462 77.9028 107.576C78.0986 107.685 78.327 107.745 78.5826 107.745C78.7512 107.745 78.9034 107.717 79.0394 107.674C79.1753 107.625 79.2949 107.549 79.3928 107.456C79.4907 107.358 79.5668 107.239 79.6212 107.092L80.2357 107.266C80.1759 107.473 80.0673 107.658 79.9096 107.815C79.7573 107.973 79.5669 108.098 79.344 108.185C79.121 108.272 78.8654 108.316 78.5826 108.316ZM84.2169 105.003L83.6404 105.167C83.6078 105.074 83.5534 104.982 83.4827 104.889C83.412 104.797 83.3195 104.721 83.1999 104.661C83.0856 104.601 82.9334 104.574 82.7431 104.574C82.4929 104.574 82.2807 104.634 82.1121 104.748C81.9435 104.862 81.8564 105.009 81.8564 105.188C81.8564 105.346 81.9164 105.471 82.0306 105.564C82.1448 105.656 82.3243 105.732 82.5745 105.798L83.189 105.944C83.5588 106.037 83.8363 106.173 84.0212 106.358C84.2007 106.543 84.2932 106.782 84.2932 107.07C84.2932 107.309 84.2223 107.522 84.0863 107.712C83.9503 107.897 83.7599 108.044 83.5206 108.152C83.2759 108.261 82.9932 108.316 82.6669 108.316C82.2481 108.316 81.8945 108.223 81.6171 108.038C81.3398 107.853 81.1659 107.587 81.0897 107.233L81.6933 107.081C81.7532 107.304 81.8619 107.473 82.025 107.587C82.1827 107.696 82.3949 107.75 82.656 107.75C82.9551 107.75 83.1944 107.69 83.3685 107.565C83.5425 107.435 83.6295 107.282 83.6295 107.103C83.6295 106.961 83.5806 106.836 83.4827 106.744C83.3793 106.641 83.2271 106.57 83.015 106.521L82.3243 106.358C81.9436 106.265 81.6662 106.129 81.4867 105.939C81.3073 105.749 81.2201 105.509 81.2201 105.221C81.2201 104.987 81.2856 104.781 81.4161 104.601C81.5521 104.422 81.7315 104.28 81.96 104.177C82.1938 104.074 82.4548 104.019 82.7431 104.019C83.1564 104.019 83.4772 104.112 83.7111 104.291C83.9504 104.471 84.119 104.71 84.2169 105.003Z" fill="black"/>
<path d="M20.5416 126.127C20.5036 126.1 20.4545 126.089 20.411 126.083C20.3675 126.083 20.3187 126.089 20.2806 126.111C20.1773 126.16 20.0631 126.181 19.9489 126.176C19.8347 126.165 19.7204 126.132 19.6226 126.073C19.5301 126.007 19.4486 125.926 19.3942 125.822C19.3398 125.725 19.3071 125.61 19.3071 125.496C19.3071 125.382 19.3398 125.268 19.3942 125.17C19.4486 125.066 19.5301 124.985 19.6226 124.92C19.7204 124.86 19.8347 124.827 19.9489 124.816C20.0631 124.811 20.1773 124.833 20.2806 124.882C20.3187 124.903 20.3675 124.909 20.411 124.909C20.4599 124.903 20.5036 124.892 20.5416 124.865C20.5797 124.843 20.6123 124.805 20.6341 124.767C20.6558 124.729 20.6667 124.68 20.6667 124.637V123.185C20.6667 123.038 20.6123 122.902 20.509 122.799C20.4056 122.701 20.2697 122.641 20.1229 122.641H18.8939C18.8993 122.597 18.8992 122.548 18.8992 122.505C18.8992 122.336 18.8664 122.173 18.8012 122.021C18.7305 121.863 18.6327 121.727 18.5131 121.613C18.3445 121.455 18.1379 121.346 17.9094 121.303C17.681 121.259 17.4472 121.281 17.2296 121.363C17.0175 121.45 16.827 121.591 16.6911 121.776C16.5551 121.966 16.4734 122.184 16.4571 122.418C16.4517 122.489 16.4518 122.565 16.4627 122.641H15.2281C15.0867 122.641 14.9453 122.701 14.842 122.799C14.7441 122.902 14.6842 123.038 14.6842 123.185V124.278C14.6407 124.272 14.5918 124.272 14.5483 124.272C14.3797 124.272 14.2164 124.305 14.0642 124.376C13.9119 124.441 13.7705 124.539 13.6563 124.659C13.5421 124.778 13.455 124.925 13.3952 125.083C13.3408 125.241 13.3136 125.409 13.3299 125.578C13.3462 125.871 13.4714 126.149 13.678 126.361C13.8901 126.568 14.1675 126.698 14.4612 126.72C14.5373 126.725 14.6081 126.72 14.6842 126.714V127.808C14.6842 127.954 14.7441 128.09 14.842 128.194C14.9453 128.292 15.0867 128.351 15.2281 128.351H20.1229C20.2697 128.351 20.4056 128.292 20.509 128.194C20.6123 128.09 20.6667 127.954 20.6667 127.808V126.355C20.6667 126.312 20.6558 126.263 20.6341 126.225C20.6123 126.187 20.5797 126.149 20.5416 126.127ZM20.1229 127.808H15.2281V126.355C15.2281 126.312 15.2172 126.263 15.1954 126.225C15.1737 126.187 15.1411 126.149 15.103 126.127C15.065 126.1 15.0213 126.089 14.9724 126.083C14.9289 126.083 14.88 126.089 14.842 126.111C14.7386 126.16 14.6245 126.181 14.5103 126.176C14.3961 126.165 14.2818 126.132 14.1839 126.073C14.0915 126.007 14.0099 125.926 13.9555 125.822C13.9012 125.725 13.8684 125.61 13.8684 125.496C13.8684 125.382 13.9012 125.268 13.9555 125.17C14.0099 125.066 14.0915 124.985 14.1839 124.92C14.2818 124.86 14.3961 124.827 14.5103 124.816C14.6245 124.811 14.7386 124.833 14.842 124.882C14.88 124.903 14.9289 124.909 14.9724 124.909C15.0213 124.903 15.065 124.892 15.103 124.865C15.1411 124.843 15.1737 124.805 15.1954 124.767C15.2172 124.729 15.2281 124.68 15.2281 124.637V123.185H16.8161C16.8596 123.185 16.9087 123.174 16.9468 123.152C16.9849 123.13 17.0228 123.098 17.0445 123.06C17.0717 123.022 17.0826 122.973 17.0881 122.929C17.0881 122.886 17.0827 122.837 17.061 122.799C17.012 122.695 16.9902 122.576 16.9957 122.461C17.0065 122.347 17.0391 122.238 17.099 122.14C17.1642 122.043 17.2458 121.966 17.3491 121.912C17.447 121.852 17.5613 121.825 17.6755 121.825C17.7897 121.825 17.904 121.852 18.0019 121.912C18.1052 121.966 18.1867 122.043 18.252 122.14C18.3118 122.238 18.3499 122.347 18.3553 122.461C18.3607 122.576 18.3389 122.695 18.29 122.799C18.2682 122.837 18.2629 122.886 18.2629 122.929C18.2683 122.973 18.2793 123.022 18.3064 123.06C18.3336 123.098 18.3661 123.13 18.4042 123.152C18.4477 123.174 18.4913 123.185 18.5348 123.185H20.1229V124.278C20.0467 124.272 19.9759 124.272 19.8998 124.278C19.5844 124.3 19.2852 124.441 19.0731 124.68C18.861 124.914 18.7523 125.224 18.7632 125.54C18.7741 125.855 18.91 126.16 19.1384 126.377C19.3669 126.6 19.6715 126.72 19.9869 126.72C20.0304 126.72 20.0794 126.72 20.1229 126.714V127.808Z" fill="black"/>
<path d="M30.5595 124.001C30.4996 123.821 30.4234 123.658 30.3255 123.511C30.2276 123.364 30.1135 123.239 29.9829 123.136C29.8524 123.038 29.7001 122.956 29.5315 122.902C29.3683 122.848 29.1835 122.82 28.9823 122.82C28.656 122.82 28.3569 122.908 28.085 123.076C27.8185 123.245 27.6064 123.495 27.4487 123.827C27.2856 124.153 27.2092 124.561 27.2092 125.039C27.2092 125.518 27.291 125.921 27.4487 126.252C27.6119 126.584 27.8293 126.834 28.1012 127.003C28.3731 127.171 28.6832 127.258 29.0259 127.258C29.3413 127.258 29.6241 127.188 29.8634 127.052C30.1082 126.916 30.2985 126.725 30.4291 126.475C30.5705 126.225 30.6357 125.931 30.6357 125.589L30.8423 125.632H29.178V125.039H31.2881V125.632C31.2881 126.089 31.1905 126.486 30.9947 126.823C30.7989 127.16 30.5323 127.422 30.1951 127.606C29.8525 127.791 29.4664 127.884 29.0259 127.884C28.5364 127.884 28.1068 127.77 27.7315 127.536C27.3617 127.307 27.0733 126.981 26.8666 126.551C26.6599 126.127 26.562 125.621 26.562 125.039C26.562 124.599 26.6166 124.207 26.7362 123.859C26.8559 123.506 27.0244 123.207 27.2365 122.962C27.4541 122.712 27.7096 122.521 28.0088 122.391C28.3025 122.26 28.6288 122.195 28.9823 122.195C29.276 122.195 29.5479 122.239 29.7981 122.326C30.0537 122.413 30.2767 122.538 30.4779 122.695C30.6792 122.859 30.8423 123.049 30.9782 123.266C31.1088 123.489 31.2014 123.734 31.2557 124.001H30.5595ZM34.0892 127.895C33.6868 127.895 33.3439 127.808 33.0557 127.628C32.7675 127.449 32.5445 127.204 32.3868 126.883C32.229 126.562 32.1531 126.187 32.1531 125.763C32.1531 125.339 32.229 124.963 32.3868 124.637C32.5445 124.311 32.7621 124.061 33.0395 123.876C33.3223 123.691 33.6487 123.598 34.0239 123.598C34.2415 123.598 34.4537 123.636 34.6658 123.707C34.8779 123.783 35.068 123.897 35.242 124.061C35.4161 124.218 35.5522 124.436 35.6555 124.697C35.7588 124.963 35.8077 125.29 35.8077 125.676V125.948H32.6098V125.398H35.1605C35.1605 125.159 35.1117 124.952 35.0192 124.768C34.9268 124.583 34.7963 124.441 34.6222 124.332C34.4536 124.229 34.2523 124.175 34.0239 124.175C33.7683 124.175 33.5508 124.235 33.3659 124.365C33.181 124.485 33.0394 124.648 32.9415 124.849C32.8382 125.05 32.7893 125.262 32.7893 125.491V125.861C32.7893 126.176 32.8436 126.443 32.9524 126.66C33.0612 126.872 33.2136 127.041 33.4094 127.155C33.6052 127.264 33.8336 127.324 34.0892 127.324C34.2578 127.324 34.41 127.296 34.546 127.253C34.682 127.204 34.7961 127.128 34.8995 127.035C34.9974 126.938 35.0735 126.818 35.1278 126.671L35.7426 126.845C35.6773 127.052 35.5685 127.237 35.4162 127.394C35.264 127.552 35.0736 127.677 34.8506 127.764C34.6222 127.851 34.3721 127.895 34.0892 127.895ZM38.587 123.653V124.196H36.4333V123.653H38.587ZM37.0587 122.657H37.7003V126.617C37.7003 126.796 37.7221 126.932 37.7765 127.025C37.8309 127.112 37.9015 127.171 37.9831 127.204C38.0647 127.231 38.1573 127.248 38.2497 127.248C38.3204 127.248 38.3802 127.242 38.4237 127.237C38.4672 127.226 38.5054 127.22 38.5326 127.215L38.663 127.786C38.6194 127.802 38.5597 127.819 38.4781 127.835C38.402 127.851 38.3041 127.862 38.1844 127.862C38.0049 127.862 37.8311 127.824 37.657 127.748C37.483 127.666 37.3416 127.552 37.2273 127.389C37.1186 127.231 37.0587 127.03 37.0587 126.791V122.657ZM46.2282 124.001H45.5592C45.5212 123.81 45.4505 123.636 45.3526 123.495C45.2547 123.348 45.135 123.223 44.9936 123.125C44.8576 123.022 44.6998 122.946 44.5312 122.897C44.3627 122.848 44.1833 122.82 44.0039 122.82C43.6667 122.82 43.362 122.908 43.0901 123.076C42.8181 123.245 42.6061 123.495 42.4429 123.827C42.2852 124.153 42.2036 124.561 42.2036 125.039C42.2036 125.518 42.2852 125.921 42.4429 126.252C42.6061 126.584 42.8181 126.834 43.0901 127.003C43.362 127.171 43.6667 127.258 44.0039 127.258C44.1833 127.258 44.3627 127.231 44.5312 127.182C44.6998 127.128 44.8576 127.057 44.9936 126.954C45.135 126.856 45.2547 126.731 45.3526 126.584C45.4505 126.437 45.5212 126.269 45.5592 126.078H46.2282C46.1792 126.361 46.0868 126.611 45.9562 126.84C45.8203 127.063 45.6572 127.253 45.4559 127.405C45.2601 127.563 45.0372 127.683 44.787 127.764C44.5422 127.84 44.2812 127.884 44.0039 127.884C43.5307 127.884 43.1117 127.77 42.7419 127.536C42.3721 127.307 42.0841 126.981 41.872 126.551C41.6653 126.127 41.5565 125.621 41.5565 125.039C41.5565 124.458 41.6653 123.952 41.872 123.522C42.0841 123.098 42.3721 122.772 42.7419 122.543C43.1117 122.309 43.5307 122.195 44.0039 122.195C44.2812 122.195 44.5422 122.233 44.787 122.315C45.0372 122.396 45.2601 122.516 45.4559 122.674C45.6572 122.826 45.8203 123.016 45.9562 123.239C46.0868 123.462 46.1792 123.718 46.2282 124.001ZM47.8651 125.311V127.808H47.2288V122.271H47.8651V124.305H47.9195C48.0174 124.088 48.1644 123.919 48.3548 123.794C48.5505 123.663 48.8169 123.598 49.1432 123.598C49.426 123.598 49.6709 123.658 49.883 123.772C50.0951 123.881 50.2636 124.055 50.3778 124.289C50.4974 124.517 50.5573 124.811 50.5573 125.17V127.808H49.921V125.213C49.921 124.882 49.834 124.626 49.66 124.447C49.4914 124.267 49.2575 124.175 48.9584 124.175C48.7463 124.175 48.5613 124.218 48.3927 124.305C48.2296 124.392 48.0991 124.523 48.0066 124.691C47.9142 124.86 47.8651 125.067 47.8651 125.311ZM52.9449 127.906C52.6839 127.906 52.4445 127.857 52.2324 127.759C52.0149 127.655 51.8463 127.509 51.7212 127.324C51.5961 127.128 51.5308 126.899 51.5308 126.628C51.5308 126.388 51.5796 126.198 51.6721 126.051C51.7646 125.899 51.8899 125.785 52.0476 125.698C52.2053 125.616 52.3792 125.551 52.5641 125.507C52.7545 125.464 52.9503 125.431 53.1406 125.409C53.3963 125.377 53.5974 125.349 53.7551 125.333C53.9129 125.317 54.0271 125.284 54.1033 125.246C54.174 125.203 54.2122 125.132 54.2122 125.029V125.007C54.2122 124.74 54.1412 124.534 53.9944 124.387C53.8476 124.235 53.63 124.164 53.3364 124.164C53.0318 124.164 52.7926 124.229 52.6185 124.365C52.4445 124.496 52.3249 124.637 52.2542 124.789L51.6506 124.572C51.7594 124.322 51.9005 124.126 52.08 123.984C52.2649 123.843 52.4608 123.745 52.6783 123.685C52.8904 123.631 53.1079 123.598 53.3146 123.598C53.4505 123.598 53.6029 123.615 53.7769 123.647C53.9509 123.68 54.1196 123.745 54.2828 123.843C54.446 123.941 54.5819 124.088 54.6907 124.284C54.794 124.479 54.8484 124.74 54.8484 125.072V127.808H54.2122V127.248H54.1795C54.136 127.335 54.0653 127.432 53.962 127.536C53.8641 127.639 53.728 127.726 53.5594 127.797C53.3908 127.868 53.1897 127.906 52.9449 127.906ZM53.0426 127.329C53.2983 127.329 53.5105 127.28 53.6845 127.182C53.8585 127.084 53.9892 126.954 54.0762 126.802C54.1687 126.644 54.2122 126.475 54.2122 126.307V125.719C54.185 125.752 54.1251 125.785 54.0326 125.812C53.9456 125.833 53.8367 125.855 53.7225 125.877C53.6028 125.893 53.4888 125.91 53.3746 125.926C53.2658 125.937 53.1787 125.948 53.108 125.959C52.9448 125.98 52.787 126.013 52.6456 126.062C52.5042 126.111 52.3848 126.182 52.2978 126.279C52.2107 126.372 52.1671 126.497 52.1671 126.66C52.1671 126.883 52.2488 127.052 52.4119 127.166C52.5805 127.275 52.7925 127.329 53.0426 127.329ZM57.8232 123.653V124.196H55.6695V123.653H57.8232ZM56.2949 122.657H56.9368V126.617C56.9368 126.796 56.9586 126.932 57.013 127.025C57.0674 127.112 57.138 127.171 57.2196 127.204C57.3012 127.231 57.3938 127.248 57.4862 127.248C57.5569 127.248 57.6167 127.242 57.6602 127.237C57.7037 127.226 57.7419 127.22 57.769 127.215L57.8994 127.786C57.8559 127.802 57.7962 127.819 57.7146 127.835C57.6385 127.851 57.5405 127.862 57.4209 127.862C57.2414 127.862 57.0618 127.824 56.8932 127.748C56.7192 127.666 56.5778 127.552 56.4636 127.389C56.3548 127.231 56.2949 127.03 56.2949 126.791V122.657ZM62.6529 124.001C62.5931 123.821 62.5169 123.658 62.419 123.511C62.3211 123.364 62.2069 123.239 62.0764 123.136C61.9459 123.038 61.7935 122.956 61.6249 122.902C61.4563 122.848 61.2767 122.82 61.0755 122.82C60.7438 122.82 60.4501 122.908 60.1782 123.076C59.9117 123.245 59.6998 123.495 59.5366 123.827C59.3789 124.153 59.3026 124.561 59.3026 125.039C59.3026 125.518 59.3787 125.921 59.5419 126.252C59.6996 126.584 59.9173 126.834 60.1946 127.003C60.4666 127.171 60.7764 127.258 61.1191 127.258C61.4345 127.258 61.7119 127.188 61.9566 127.052C62.2014 126.916 62.3863 126.725 62.5223 126.475C62.6582 126.225 62.7289 125.931 62.7289 125.589L62.9357 125.632H61.2715V125.039H63.376V125.632C63.376 126.089 63.2783 126.486 63.0879 126.823C62.8921 127.16 62.6256 127.422 62.283 127.606C61.9458 127.791 61.5596 127.884 61.1191 127.884C60.6296 127.884 60.1946 127.77 59.8247 127.536C59.4549 127.307 59.1667 126.981 58.9601 126.551C58.7534 126.127 58.6499 125.621 58.6499 125.039C58.6499 124.599 58.7098 124.207 58.8294 123.859C58.9436 123.506 59.1122 123.207 59.3297 122.962C59.5473 122.712 59.803 122.521 60.0967 122.391C60.3958 122.26 60.7166 122.195 61.0755 122.195C61.3638 122.195 61.6357 122.239 61.8913 122.326C62.1469 122.413 62.3699 122.538 62.5711 122.695C62.7669 122.859 62.9357 123.049 63.0717 123.266C63.2022 123.489 63.2947 123.734 63.3436 124.001H62.6529ZM64.5291 127.808V122.271H66.3999C66.8296 122.271 67.1886 122.347 67.4606 122.505C67.7379 122.663 67.9447 122.869 68.0807 123.136C68.2112 123.402 68.2817 123.696 68.2817 124.022C68.2817 124.349 68.2112 124.642 68.0807 124.914C67.9501 125.181 67.7433 125.393 67.4659 125.551C67.194 125.708 66.8405 125.785 66.4108 125.785H65.0676V125.192H66.3891C66.6827 125.192 66.9221 125.137 67.1015 125.034C67.281 124.936 67.4117 124.795 67.4932 124.621C67.5803 124.441 67.6183 124.245 67.6183 124.022C67.6183 123.799 67.5803 123.604 67.4932 123.43C67.4117 123.25 67.281 123.114 67.1015 123.016C66.9166 122.913 66.6773 122.864 66.3782 122.864H65.198V127.808H64.5291ZM69.0542 122.864V122.271H73.2091V122.864H71.4689V127.808H70.8V122.864H69.0542ZM79.2407 124.583L78.6695 124.746C78.6314 124.653 78.5772 124.561 78.5065 124.468C78.4412 124.376 78.3486 124.3 78.229 124.24C78.1093 124.18 77.9571 124.153 77.7722 124.153C77.5166 124.153 77.3045 124.213 77.1359 124.327C76.9673 124.441 76.8858 124.588 76.8858 124.768C76.8858 124.925 76.9402 125.05 77.0544 125.143C77.174 125.235 77.3535 125.311 77.5983 125.377L78.2128 125.524C78.588 125.616 78.8598 125.752 79.0447 125.937C79.2242 126.122 79.3167 126.361 79.3167 126.649C79.3167 126.889 79.246 127.101 79.1101 127.291C78.9741 127.476 78.7892 127.623 78.5444 127.732C78.2997 127.84 78.0169 127.895 77.696 127.895C77.2718 127.895 76.9183 127.802 76.6409 127.617C76.3635 127.432 76.1897 127.166 76.1135 126.812L76.7224 126.66C76.7768 126.883 76.8857 127.052 77.0488 127.166C77.212 127.275 77.424 127.329 77.6851 127.329C77.9788 127.329 78.2182 127.269 78.3923 127.144C78.5717 127.014 78.6586 126.861 78.6586 126.682C78.6586 126.541 78.6098 126.415 78.5065 126.323C78.4031 126.22 78.2509 126.149 78.0388 126.1L77.3481 125.937C76.9674 125.844 76.69 125.708 76.5105 125.518C76.3365 125.328 76.2439 125.088 76.2439 124.8C76.2439 124.566 76.3092 124.36 76.4452 124.18C76.5757 124.001 76.7552 123.859 76.9891 123.756C77.2175 123.653 77.4785 123.598 77.7722 123.598C78.1801 123.598 78.5063 123.691 78.7402 123.87C78.974 124.05 79.1428 124.289 79.2407 124.583ZM82.0198 127.895C81.6173 127.895 81.2746 127.808 80.9809 127.628C80.6927 127.449 80.4753 127.204 80.3176 126.883C80.1598 126.562 80.0836 126.187 80.0836 125.763C80.0836 125.339 80.1598 124.963 80.3176 124.637C80.4753 124.311 80.6927 124.061 80.97 123.876C81.2528 123.691 81.5792 123.598 81.9545 123.598C82.172 123.598 82.3842 123.636 82.5963 123.707C82.8084 123.783 82.9988 123.897 83.1728 124.061C83.3414 124.218 83.4827 124.436 83.5861 124.697C83.6894 124.963 83.7385 125.29 83.7385 125.676V125.948H80.5351V125.398H83.091C83.091 125.159 83.0422 124.952 82.9498 124.768C82.8573 124.583 82.7268 124.441 82.5528 124.332C82.3842 124.229 82.1829 124.175 81.9545 124.175C81.6988 124.175 81.4813 124.235 81.2964 124.365C81.1115 124.485 80.9702 124.648 80.8723 124.849C80.769 125.05 80.7199 125.262 80.7199 125.491V125.861C80.7199 126.176 80.7744 126.443 80.8832 126.66C80.992 126.872 81.1442 127.041 81.34 127.155C81.5358 127.264 81.7587 127.324 82.0198 127.324C82.1884 127.324 82.3407 127.296 82.4712 127.253C82.6126 127.204 82.7267 127.128 82.83 127.035C82.9279 126.938 83.0043 126.818 83.0587 126.671L83.6732 126.845C83.6079 127.052 83.4991 127.237 83.3468 127.394C83.1945 127.552 83.0041 127.677 82.7811 127.764C82.5527 127.851 82.3026 127.895 82.0198 127.895ZM85.9301 127.906C85.6691 127.906 85.4297 127.857 85.2176 127.759C85.0001 127.655 84.8315 127.509 84.7064 127.324C84.5759 127.128 84.516 126.899 84.516 126.628C84.516 126.388 84.5597 126.198 84.6576 126.051C84.75 125.899 84.8751 125.785 85.0328 125.698C85.1905 125.616 85.359 125.551 85.5493 125.507C85.7397 125.464 85.9355 125.431 86.1258 125.409C86.376 125.377 86.5829 125.349 86.7406 125.333C86.8983 125.317 87.0124 125.284 87.0885 125.246C87.1592 125.203 87.1974 125.132 87.1974 125.029V125.007C87.1974 124.74 87.1267 124.534 86.9799 124.387C86.833 124.235 86.6155 124.164 86.3218 124.164C86.0173 124.164 85.7778 124.229 85.6038 124.365C85.4297 124.496 85.3101 124.637 85.2394 124.789L84.6358 124.572C84.7446 124.322 84.886 124.126 85.0655 123.984C85.2504 123.843 85.446 123.745 85.6635 123.685C85.8756 123.631 86.0879 123.598 86.3001 123.598C86.4306 123.598 86.5882 123.615 86.7568 123.647C86.9363 123.68 87.105 123.745 87.2627 123.843C87.4313 123.941 87.5673 124.088 87.6706 124.284C87.7794 124.479 87.8336 124.74 87.8336 125.072V127.808H87.1974V127.248H87.1647C87.1212 127.335 87.0505 127.432 86.9472 127.536C86.8493 127.639 86.7132 127.726 86.5446 127.797C86.376 127.868 86.1749 127.906 85.9301 127.906ZM86.0281 127.329C86.2837 127.329 86.4958 127.28 86.6644 127.182C86.8439 127.084 86.9744 126.954 87.0614 126.802C87.1539 126.644 87.1974 126.475 87.1974 126.307V125.719C87.1702 125.752 87.1103 125.785 87.0179 125.812C86.9308 125.833 86.822 125.855 86.7024 125.877C86.5882 125.893 86.474 125.91 86.3598 125.926C86.251 125.937 86.1639 125.948 86.0932 125.959C85.93 125.98 85.7725 126.013 85.6311 126.062C85.4843 126.111 85.37 126.182 85.283 126.279C85.1959 126.372 85.1523 126.497 85.1523 126.66C85.1523 126.883 85.234 127.052 85.3972 127.166C85.5658 127.275 85.7725 127.329 86.0281 127.329ZM88.9976 127.808V123.653H89.6174V124.284H89.661C89.7371 124.077 89.8731 123.908 90.0688 123.783C90.2701 123.653 90.4932 123.587 90.7434 123.587C90.7869 123.587 90.8466 123.593 90.9173 123.593C90.988 123.593 91.0424 123.598 91.0751 123.598V124.251C91.0533 124.245 91.0043 124.235 90.9282 124.224C90.8521 124.213 90.7705 124.207 90.6889 124.207C90.4877 124.207 90.3028 124.251 90.1451 124.332C89.9873 124.414 89.8676 124.534 89.7751 124.681C89.6827 124.827 89.6392 124.991 89.6392 125.181V127.808H88.9976ZM93.392 127.895C93.0059 127.895 92.6686 127.802 92.3858 127.617C92.1085 127.432 91.891 127.182 91.7387 126.856C91.5864 126.535 91.51 126.165 91.51 125.752C91.51 125.333 91.5917 124.958 91.744 124.637C91.9017 124.311 92.1194 124.061 92.3967 123.876C92.6795 123.691 93.0059 123.598 93.3811 123.598C93.6748 123.598 93.9357 123.653 94.1696 123.761C94.4089 123.87 94.5993 124.022 94.7461 124.218C94.8984 124.414 94.9909 124.637 95.0289 124.898H94.3871C94.3381 124.708 94.2295 124.539 94.0663 124.398C93.8977 124.245 93.6749 124.175 93.392 124.175C93.1473 124.175 92.9242 124.24 92.7393 124.371C92.5544 124.496 92.4076 124.675 92.3043 124.914C92.201 125.143 92.1519 125.42 92.1519 125.73C92.1519 126.051 92.2008 126.334 92.2987 126.568C92.4021 126.807 92.5488 126.992 92.7337 127.122C92.9186 127.253 93.1419 127.324 93.392 127.324C93.5606 127.324 93.7073 127.291 93.8432 127.237C93.9792 127.177 94.0936 127.095 94.1861 126.986C94.284 126.878 94.349 126.747 94.3871 126.595H95.0289C94.9909 126.84 94.9038 127.063 94.757 127.258C94.621 127.454 94.4308 127.606 94.1969 127.726C93.9685 127.835 93.702 127.895 93.392 127.895ZM96.5952 125.311V127.808H95.9589V122.271H96.5952V124.305H96.6496C96.7475 124.088 96.8944 123.919 97.0902 123.794C97.286 123.663 97.547 123.598 97.8733 123.598C98.1561 123.598 98.4064 123.658 98.6185 123.772C98.8306 123.881 98.9938 124.055 99.1135 124.289C99.2331 124.517 99.2927 124.811 99.2927 125.17V127.808H98.6511V125.213C98.6511 124.882 98.5695 124.626 98.3954 124.447C98.2268 124.267 97.9931 124.175 97.6885 124.175C97.4818 124.175 97.2913 124.218 97.1282 124.305C96.965 124.392 96.8346 124.523 96.7367 124.691C96.6443 124.86 96.5952 125.067 96.5952 125.311ZM104.34 127.895C103.943 127.895 103.595 127.808 103.307 127.628C103.018 127.449 102.795 127.204 102.638 126.883C102.48 126.562 102.404 126.187 102.404 125.763C102.404 125.339 102.48 124.963 102.638 124.637C102.795 124.311 103.013 124.061 103.29 123.876C103.573 123.691 103.899 123.598 104.275 123.598C104.492 123.598 104.704 123.636 104.916 123.707C105.129 123.783 105.319 123.897 105.493 124.061C105.667 124.218 105.803 124.436 105.906 124.697C106.01 124.963 106.058 125.29 106.058 125.676V125.948H102.861V125.398H105.411C105.411 125.159 105.362 124.952 105.27 124.768C105.177 124.583 105.047 124.441 104.878 124.332C104.704 124.229 104.508 124.175 104.275 124.175C104.024 124.175 103.801 124.235 103.617 124.365C103.432 124.485 103.29 124.648 103.192 124.849C103.095 125.05 103.046 125.262 103.046 125.491V125.861C103.046 126.176 103.094 126.443 103.203 126.66C103.317 126.872 103.47 127.041 103.66 127.155C103.856 127.264 104.084 127.324 104.34 127.324C104.509 127.324 104.661 127.296 104.797 127.253C104.933 127.204 105.052 127.128 105.15 127.035C105.248 126.938 105.324 126.818 105.379 126.671L105.993 126.845C105.933 127.052 105.819 127.237 105.667 127.394C105.515 127.552 105.324 127.677 105.101 127.764C104.873 127.851 104.623 127.895 104.34 127.895ZM107.396 123.653L108.392 125.355L109.387 123.653H110.121L108.778 125.73L110.121 127.808H109.387L108.392 126.198L107.396 127.808H106.662L107.978 125.73L106.662 123.653H107.396ZM112.835 123.653V124.196H110.687V123.653H112.835ZM111.312 122.657H111.948V126.617C111.948 126.796 111.976 126.932 112.03 127.025C112.085 127.112 112.15 127.171 112.237 127.204C112.318 127.231 112.411 127.248 112.503 127.248C112.574 127.248 112.628 127.242 112.677 127.237C112.721 127.226 112.759 127.22 112.786 127.215L112.911 127.786C112.868 127.802 112.808 127.819 112.732 127.835C112.655 127.851 112.558 127.862 112.438 127.862C112.259 127.862 112.079 127.824 111.905 127.748C111.736 127.666 111.595 127.552 111.481 127.389C111.367 127.231 111.312 127.03 111.312 126.791V122.657ZM115.494 127.895C115.092 127.895 114.749 127.808 114.461 127.628C114.173 127.449 113.95 127.204 113.792 126.883C113.634 126.562 113.558 126.187 113.558 125.763C113.558 125.339 113.634 124.963 113.792 124.637C113.95 124.311 114.168 124.061 114.445 123.876C114.728 123.691 115.054 123.598 115.429 123.598C115.647 123.598 115.859 123.636 116.071 123.707C116.283 123.783 116.473 123.897 116.647 124.061C116.822 124.218 116.958 124.436 117.061 124.697C117.164 124.963 117.213 125.29 117.213 125.676V125.948H114.015V125.398H116.566C116.566 125.159 116.517 124.952 116.424 124.768C116.332 124.583 116.201 124.441 116.027 124.332C115.859 124.229 115.658 124.175 115.429 124.175C115.174 124.175 114.956 124.235 114.771 124.365C114.586 124.485 114.445 124.648 114.347 124.849C114.244 125.05 114.195 125.262 114.195 125.491V125.861C114.195 126.176 114.249 126.443 114.358 126.66C114.467 126.872 114.619 127.041 114.815 127.155C115.01 127.264 115.239 127.324 115.494 127.324C115.663 127.324 115.815 127.296 115.946 127.253C116.087 127.204 116.202 127.128 116.305 127.035C116.403 126.938 116.479 126.818 116.533 126.671L117.148 126.845C117.083 127.052 116.974 127.237 116.821 127.394C116.669 127.552 116.479 127.677 116.256 127.764C116.027 127.851 115.777 127.895 115.494 127.895ZM118.823 125.311V127.808H118.187V123.653H118.801V124.305H118.856C118.953 124.093 119.1 123.925 119.296 123.794C119.497 123.663 119.753 123.598 120.068 123.598C120.346 123.598 120.596 123.658 120.803 123.772C121.015 123.886 121.178 124.061 121.297 124.294C121.412 124.523 121.472 124.816 121.472 125.17V127.808H120.835V125.213C120.835 124.887 120.748 124.632 120.58 124.452C120.411 124.267 120.177 124.175 119.884 124.175C119.677 124.175 119.497 124.218 119.334 124.305C119.176 124.392 119.051 124.523 118.959 124.691C118.866 124.86 118.823 125.067 118.823 125.311ZM125.578 124.583L125.007 124.746C124.969 124.653 124.92 124.561 124.849 124.468C124.778 124.376 124.686 124.3 124.566 124.24C124.446 124.18 124.294 124.153 124.109 124.153C123.854 124.153 123.641 124.213 123.473 124.327C123.304 124.441 123.223 124.588 123.223 124.768C123.223 124.925 123.283 125.05 123.397 125.143C123.511 125.235 123.69 125.311 123.935 125.377L124.555 125.524C124.925 125.616 125.202 125.752 125.382 125.937C125.567 126.122 125.654 126.361 125.654 126.649C125.654 126.889 125.589 127.101 125.453 127.291C125.317 127.476 125.126 127.623 124.882 127.732C124.637 127.84 124.354 127.895 124.033 127.895C123.609 127.895 123.261 127.802 122.983 127.617C122.706 127.432 122.527 127.166 122.456 126.812L123.06 126.66C123.119 126.883 123.228 127.052 123.386 127.166C123.549 127.275 123.761 127.329 124.022 127.329C124.321 127.329 124.555 127.269 124.729 127.144C124.909 127.014 124.996 126.861 124.996 126.682C124.996 126.541 124.947 126.415 124.843 126.323C124.745 126.22 124.588 126.149 124.381 126.1L123.685 125.937C123.31 125.844 123.027 125.708 122.847 125.518C122.673 125.328 122.586 125.088 122.586 124.8C122.586 124.566 122.652 124.36 122.782 124.18C122.913 124.001 123.098 123.859 123.326 123.756C123.554 123.653 123.816 123.598 124.109 123.598C124.523 123.598 124.843 123.691 125.077 123.87C125.311 124.05 125.48 124.289 125.578 124.583ZM126.617 127.808V123.653H127.253V127.808H126.617ZM126.943 122.962C126.818 122.962 126.709 122.918 126.622 122.837C126.529 122.75 126.486 122.646 126.486 122.532C126.486 122.413 126.529 122.309 126.622 122.222C126.709 122.141 126.818 122.097 126.943 122.097C127.068 122.097 127.171 122.141 127.258 122.222C127.351 122.309 127.394 122.413 127.394 122.532C127.394 122.646 127.351 122.75 127.258 122.837C127.171 122.918 127.068 122.962 126.943 122.962ZM130.108 127.895C129.738 127.895 129.406 127.808 129.124 127.628C128.841 127.449 128.623 127.199 128.466 126.878C128.308 126.557 128.226 126.182 128.226 125.752C128.226 125.322 128.308 124.942 128.466 124.621C128.623 124.3 128.841 124.044 129.124 123.87C129.406 123.691 129.738 123.598 130.108 123.598C130.483 123.598 130.815 123.691 131.092 123.87C131.375 124.044 131.598 124.3 131.756 124.621C131.914 124.942 131.99 125.322 131.99 125.752C131.99 126.182 131.914 126.557 131.756 126.878C131.598 127.199 131.375 127.449 131.092 127.628C130.815 127.808 130.483 127.895 130.108 127.895ZM130.108 127.324C130.396 127.324 130.63 127.248 130.815 127.101C131 126.954 131.136 126.764 131.223 126.524C131.31 126.29 131.354 126.029 131.354 125.752C131.354 125.475 131.31 125.219 131.223 124.974C131.136 124.735 131 124.545 130.815 124.398C130.63 124.245 130.396 124.175 130.108 124.175C129.825 124.175 129.591 124.245 129.406 124.398C129.222 124.545 129.086 124.735 128.999 124.974C128.912 125.219 128.868 125.475 128.868 125.752C128.868 126.029 128.912 126.29 128.999 126.524C129.086 126.764 129.222 126.954 129.406 127.101C129.591 127.248 129.825 127.324 130.108 127.324ZM133.605 125.311V127.808H132.969V123.653H133.583V124.305H133.638C133.736 124.093 133.882 123.925 134.078 123.794C134.279 123.663 134.535 123.598 134.851 123.598C135.128 123.598 135.378 123.658 135.585 123.772C135.797 123.886 135.96 124.061 136.08 124.294C136.194 124.523 136.254 124.816 136.254 125.17V127.808H135.617V125.213C135.617 124.887 135.53 124.632 135.362 124.452C135.193 124.267 134.959 124.175 134.666 124.175C134.459 124.175 134.28 124.218 134.116 124.305C133.959 124.392 133.834 124.523 133.741 124.691C133.649 124.86 133.605 125.067 133.605 125.311Z" fill="black"/>
</g>
<defs>
<filter id="filter0_dddddiii_676_4076" x="-21.7545" y="-17.4036" width="195.791" height="187.089" filterUnits="userSpaceOnUse" color-interpolation-filters="sRGB">
<feFlood flood-opacity="0" result="BackgroundImageFix"/>
<feColorMatrix in="SourceAlpha" type="matrix" values="0 0 0 0 0 0 0 0 0 0 0 0 0 0 0 0 0 0 127 0" result="hardAlpha"/>
<feOffset dy="4.3509"/>
<feGaussianBlur stdDeviation="10.8773"/>
<feComposite in2="hardAlpha" operator="out"/>
<feColorMatrix type="matrix" values="0 0 0 0 0 0 0 0 0 0 0 0 0 0 0 0 0 0 0.1 0"/>
<feBlend mode="normal" in2="BackgroundImageFix" result="effect1_dropShadow_676_4076"/>
<feColorMatrix in="SourceAlpha" type="matrix" values="0 0 0 0 0 0 0 0 0 0 0 0 0 0 0 0 0 0 127 0" result="hardAlpha"/>
<feOffset dx="-0.652635" dy="-0.652635"/>
<feComposite in2="hardAlpha" operator="out"/>
<feColorMatrix type="matrix" values="0 0 0 0 1 0 0 0 0 1 0 0 0 0 1 0 0 0 0.04 0"/>
<feBlend mode="normal" in2="effect1_dropShadow_676_4076" result="effect2_dropShadow_676_4076"/>
<feColorMatrix in="SourceAlpha" type="matrix" values="0 0 0 0 0 0 0 0 0 0 0 0 0 0 0 0 0 0 127 0" result="hardAlpha"/>
<feOffset dx="-0.489476" dy="-0.489476"/>
<feComposite in2="hardAlpha" operator="out"/>
<feColorMatrix type="matrix" values="0 0 0 0 1 0 0 0 0 1 0 0 0 0 1 0 0 0 0.1 0"/>
<feBlend mode="normal" in2="effect2_dropShadow_676_4076" result="effect3_dropShadow_676_4076"/>
<feColorMatrix in="SourceAlpha" type="matrix" values="0 0 0 0 0 0 0 0 0 0 0 0 0 0 0 0 0 0 127 0" result="hardAlpha"/>
<feOffset dx="-0.271931" dy="-0.271931"/>
<feComposite in2="hardAlpha" operator="out"/>
<feColorMatrix type="matrix" values="0 0 0 0 1 0 0 0 0 1 0 0 0 0 1 0 0 0 0.2 0"/>
<feBlend mode="normal" in2="effect3_dropShadow_676_4076" result="effect4_dropShadow_676_4076"/>
<feColorMatrix in="SourceAlpha" type="matrix" values="0 0 0 0 0 0 0 0 0 0 0 0 0 0 0 0 0 0 127 0" result="hardAlpha"/>
<feOffset dx="0.652635" dy="0.652635"/>
<feComposite in2="hardAlpha" operator="out"/>
<feColorMatrix type="matrix" values="0 0 0 0 1 0 0 0 0 1 0 0 0 0 1 0 0 0 0.1 0"/>
<feBlend mode="normal" in2="effect4_dropShadow_676_4076" result="effect5_dropShadow_676_4076"/>
<feBlend mode="normal" in="SourceGraphic" in2="effect5_dropShadow_676_4076" result="shape"/>
<feColorMatrix in="SourceAlpha" type="matrix" values="0 0 0 0 0 0 0 0 0 0 0 0 0 0 0 0 0 0 127 0" result="hardAlpha"/>
<feOffset dx="-0.271931" dy="-0.271931"/>
<feGaussianBlur stdDeviation="0.543863"/>
<feComposite in2="hardAlpha" operator="arithmetic" k2="-1" k3="1"/>
<feColorMatrix type="matrix" values="0 0 0 0 1 0 0 0 0 1 0 0 0 0 1 0 0 0 0.4 0"/>
<feBlend mode="normal" in2="shape" result="effect6_innerShadow_676_4076"/>
<feColorMatrix in="SourceAlpha" type="matrix" values="0 0 0 0 0 0 0 0 0 0 0 0 0 0 0 0 0 0 127 0" result="hardAlpha"/>
<feOffset dx="0.489476" dy="0.489476"/>
<feGaussianBlur stdDeviation="0.0815794"/>
<feComposite in2="hardAlpha" operator="arithmetic" k2="-1" k3="1"/>
<feColorMatrix type="matrix" values="0 0 0 0 1 0 0 0 0 1 0 0 0 0 1 0 0 0 0.2 0"/>
<feBlend mode="normal" in2="effect6_innerShadow_676_4076" result="effect7_innerShadow_676_4076"/>
<feColorMatrix in="SourceAlpha" type="matrix" values="0 0 0 0 0 0 0 0 0 0 0 0 0 0 0 0 0 0 127 0" result="hardAlpha"/>
<feOffset dx="0.271931" dy="0.271931"/>
<feGaussianBlur stdDeviation="0.0815794"/>
<feComposite in2="hardAlpha" operator="arithmetic" k2="-1" k3="1"/>
<feColorMatrix type="matrix" values="0 0 0 0 1 0 0 0 0 1 0 0 0 0 1 0 0 0 0.8 0"/>
<feBlend mode="normal" in2="effect7_innerShadow_676_4076" result="effect8_innerShadow_676_4076"/>
</filter>
</defs>
</svg>
