<svg width="11" height="14" viewBox="0 0 11 14" fill="none" xmlns="http://www.w3.org/2000/svg">
<path d="M8.07528 3.0565C8.94002 3.0565 9.85356 3.54057 10.5062 4.37812C8.36882 5.58549 8.71699 8.73442 10.8761 9.57741C10.577 10.2572 10.4357 10.5564 10.055 11.1601C9.52203 11.9976 8.76602 13.0418 7.83601 13.0527C7.0039 13.0581 6.79167 12.4925 5.66588 12.5034C4.54552 12.5088 4.30621 13.0636 3.47954 13.0527C2.54409 13.0418 1.83176 12.1009 1.29878 11.2634C-0.191407 8.91932 -0.349308 6.16741 0.56982 4.70442C1.22245 3.66565 2.25587 3.0565 3.22938 3.0565C4.21377 3.0565 4.83919 3.6167 5.65499 3.6167C6.44903 3.6167 6.93317 3.0565 8.07528 3.0565ZM7.82513 0C7.93934 0.794039 7.6237 1.57178 7.21036 2.12108C6.76439 2.70845 5.99763 3.16529 5.25798 3.1381C5.12201 2.38213 5.47017 1.59894 5.88894 1.07139C6.35123 0.494899 7.1453 0.0489476 7.82513 0Z" fill="black"/>
</svg>
