<svg width="218" height="31" viewBox="0 0 218 31" fill="none" xmlns="http://www.w3.org/2000/svg">
<path d="M0 13.9229C0 9.04986 0.000127463 6.61336 0.946448 4.75335C1.784 3.11633 3.11646 1.78386 4.75349 0.946315C6.6135 -5.31634e-06 9.04993 0 13.9229 0H203.622C208.495 0 210.932 -5.31634e-06 212.792 0.946315C214.429 1.78386 215.761 3.11633 216.599 4.75335C217.545 6.61336 217.545 9.04986 217.545 13.9229V16.5334C217.545 21.4064 217.545 23.8429 216.599 25.7029C215.761 27.34 214.429 28.6724 212.792 29.51C210.932 30.4563 208.495 30.4563 203.622 30.4563H13.9229C9.04993 30.4563 6.6135 30.4563 4.75349 29.51C3.11646 28.6724 1.784 27.34 0.946448 25.7029C0.000127463 23.8429 0 21.4064 0 16.5334V13.9229Z" fill="black" fill-opacity="0.04"/>
</svg>
