<svg width="218" height="33" viewBox="0 0 218 33" fill="none" xmlns="http://www.w3.org/2000/svg">
<path d="M0 13.9229C0 9.04986 0.000127463 6.61336 0.946448 4.75335C1.784 3.11633 3.11646 1.78386 4.75349 0.946315C6.6135 -5.31634e-06 9.04993 0 13.9229 0H203.622C208.495 0 210.932 -5.31634e-06 212.792 0.946315C214.429 1.78386 215.761 3.11633 216.599 4.75335C217.545 6.61336 217.545 9.04986 217.545 13.9229V18.7089C217.545 23.5819 217.545 26.0184 216.599 27.8784C215.761 29.5154 214.429 30.8479 212.792 31.6854C210.932 32.6318 208.495 32.6318 203.622 32.6318H13.9229C9.04993 32.6318 6.6135 32.6318 4.75349 31.6854C3.11646 30.8479 1.784 29.5154 0.946448 27.8784C0.000127463 26.0184 0 23.5819 0 18.7089V13.9229Z" fill="white"/>
</svg>
