<svg width="4" height="5" viewBox="0 0 4 5" fill="none" xmlns="http://www.w3.org/2000/svg">
<path d="M1.70223 4.29653C1.37591 4.29653 1.08747 4.20952 0.826416 4.04093C0.570801 3.87233 0.369646 3.62761 0.222803 3.30673C0.0759602 2.98585 0 2.5997 0 2.14285C0 1.68057 0.0759602 1.28897 0.222803 0.968091C0.375085 0.647212 0.581689 0.407937 0.837304 0.244778C1.09836 0.0816192 1.38679 0 1.70223 0C1.94153 0 2.14281 0.0380544 2.30053 0.119634C2.45281 0.201213 2.57773 0.304574 2.67018 0.418785C2.76264 0.532996 2.83342 0.64175 2.88237 0.739645H2.92034V0.048929H3.89945V4.22038H2.94212V3.56233H2.88237C2.83342 3.66566 2.75733 3.77442 2.66487 3.88863C2.56698 3.9974 2.44192 4.09531 2.28964 4.17689C2.13192 4.25303 1.93609 4.29653 1.70223 4.29653ZM1.96858 3.48618C2.17525 3.48618 2.35484 3.43176 2.49624 3.31755C2.64309 3.20334 2.75179 3.04562 2.82793 2.84439C2.90407 2.64316 2.94212 2.4039 2.94212 2.13741C2.94212 1.86548 2.90407 1.6316 2.82793 1.4358C2.75179 1.23458 2.64296 1.07686 2.50156 0.968091C2.35471 0.859319 2.18069 0.804906 1.96858 0.804906C1.75647 0.804906 1.5717 0.859324 1.43029 0.973535C1.28345 1.08775 1.17449 1.24546 1.09835 1.44669C1.02765 1.64792 0.989734 1.87635 0.989734 2.13741C0.989734 2.39846 1.02765 2.6269 1.09835 2.83357C1.17449 3.0348 1.28345 3.19789 1.43029 3.3121C1.57714 3.43175 1.75647 3.48618 1.96858 3.48618Z" fill="black"/>
</svg>
