<svg width="48" height="9" viewBox="0 0 48 9" fill="none" xmlns="http://www.w3.org/2000/svg">
<path d="M0 0H0.913652L3.06202 5.25366H3.1381L5.28633 0H6.20542V6.3305H5.48762V1.52271H5.42229L3.44814 6.3305H2.75742L0.777686 1.52271H0.717936V6.3305H0V0ZM9.03906 6.43925C8.7345 6.43925 8.46256 6.38483 8.21782 6.27062C7.97308 6.15641 7.77726 5.9933 7.63585 5.77575C7.48901 5.55821 7.41823 5.29173 7.41823 4.98173C7.41823 4.7098 7.47264 4.49228 7.58141 4.32368C7.68475 4.14964 7.83161 4.01912 8.01108 3.92123C8.19056 3.82333 8.3864 3.75255 8.60394 3.7036C8.82149 3.65466 9.03901 3.6166 9.26199 3.58397C9.55024 3.55134 9.78412 3.5242 9.9636 3.50244C10.1431 3.48069 10.2736 3.44809 10.3552 3.39914C10.4422 3.35563 10.4857 3.26851 10.4857 3.1543V3.12721C10.4857 2.82265 10.3987 2.58876 10.2355 2.42016C10.0669 2.25156 9.81669 2.16456 9.48493 2.16456C9.13686 2.16456 8.85948 2.24066 8.66369 2.39294C8.4679 2.54522 8.32649 2.70833 8.24491 2.88237L7.55419 2.63221C7.67928 2.34396 7.84252 2.12099 8.04919 1.96327C8.25586 1.80011 8.48428 1.68596 8.72902 1.6207C8.97376 1.55544 9.21841 1.52271 9.45771 1.52271C9.60999 1.52271 9.78415 1.53908 9.98537 1.57715C10.1812 1.61522 10.3769 1.68587 10.5618 1.79464C10.7467 1.90885 10.9045 2.07754 11.0295 2.30053C11.1492 2.52351 11.2145 2.82803 11.2145 3.20329V6.3305H10.4857V5.68878H10.4476C10.3986 5.79211 10.3171 5.90081 10.1974 6.02046C10.0832 6.13467 9.93088 6.23803 9.74053 6.31961C9.55018 6.40119 9.31643 6.43925 9.03906 6.43925ZM9.14781 5.78664C9.43605 5.78664 9.68071 5.73222 9.8765 5.61801C10.0777 5.5038 10.23 5.35692 10.3279 5.17745C10.4313 4.99797 10.4857 4.80773 10.4857 4.61194V3.943C10.4531 3.98107 10.3877 4.01367 10.2789 4.04631C10.1756 4.0735 10.056 4.10063 9.92005 4.12239C9.78952 4.14414 9.65901 4.16596 9.52848 4.18227C9.40339 4.19315 9.30003 4.20406 9.22389 4.21493C9.03354 4.24213 8.85407 4.28019 8.69091 4.34001C8.52775 4.38896 8.39724 4.47051 8.2939 4.57928C8.19601 4.68805 8.14705 4.83493 8.14705 5.01984C8.14705 5.27546 8.23952 5.46571 8.42987 5.59623C8.62022 5.72132 8.85956 5.78664 9.14781 5.78664ZM13.2268 4.60106L13.2104 3.69816H13.3627L15.4349 1.58259H16.3377L14.1241 3.82324H14.0643L13.2268 4.60106ZM12.5469 6.3305V0H13.2756V6.3305H12.5469ZM15.56 6.3305L13.7053 3.98098L14.2274 3.47522L16.4899 6.3305H15.56ZM19.0733 6.42836C18.6165 6.42836 18.2193 6.33056 17.8876 6.1239C17.5613 5.92267 17.3057 5.63983 17.1262 5.27544C16.9468 4.90561 16.8597 4.48134 16.8597 3.99187C16.8597 3.50783 16.9468 3.07825 17.1262 2.70842C17.3057 2.3386 17.5559 2.04486 17.8714 1.83819C18.1923 1.62609 18.5674 1.52271 18.9971 1.52271C19.2473 1.52271 19.492 1.56077 19.7313 1.64779C19.9706 1.72937 20.1936 1.86002 20.3894 2.04493C20.5852 2.22984 20.743 2.4745 20.8626 2.77906C20.9768 3.07819 21.0366 3.45348 21.0366 3.89401V4.20405H17.3764V3.57308H20.297C20.297 3.30659 20.2426 3.06738 20.1338 2.85528C20.0305 2.64861 19.8781 2.47993 19.6824 2.36028C19.492 2.24063 19.2636 2.17545 18.9971 2.17545C18.7088 2.17545 18.4587 2.25154 18.2466 2.39294C18.0345 2.53435 17.8713 2.71927 17.7571 2.94769C17.6483 3.17611 17.5886 3.42622 17.5886 3.68727V4.10606C17.5886 4.465 17.6483 4.76966 17.7734 5.01984C17.8985 5.26458 18.0725 5.45495 18.2955 5.58003C18.5185 5.71056 18.7796 5.77575 19.0733 5.77575C19.2636 5.77575 19.4377 5.74861 19.5899 5.69422C19.7477 5.63984 19.8836 5.55815 19.9978 5.44938C20.112 5.33517 20.1991 5.19933 20.2589 5.03073L20.9659 5.23189C20.8898 5.47119 20.7647 5.67781 20.5907 5.86272C20.4167 6.0422 20.199 6.17817 19.938 6.28151C19.6823 6.3794 19.3942 6.42836 19.0733 6.42836ZM25.9912 6.43925C25.6921 6.43925 25.4147 6.38483 25.17 6.27062C24.9252 6.15641 24.7348 5.9933 24.588 5.77575C24.4466 5.55821 24.3705 5.29173 24.3705 4.98173C24.3705 4.7098 24.4249 4.49228 24.5337 4.32368C24.637 4.14964 24.7838 4.01912 24.9632 3.92123C25.1427 3.82333 25.3385 3.75255 25.5561 3.7036C25.7736 3.65466 25.9912 3.6166 26.2141 3.58397C26.5024 3.55134 26.7363 3.5242 26.9158 3.50244C27.0952 3.48069 27.2257 3.44809 27.3128 3.39914C27.3943 3.35563 27.4378 3.26851 27.4378 3.1543V3.12721C27.4378 2.82265 27.3563 2.58876 27.1877 2.42016C27.0245 2.25156 26.7744 2.16456 26.4372 2.16456C26.0891 2.16456 25.8172 2.24066 25.616 2.39294C25.4202 2.54522 25.2788 2.70833 25.2026 2.88237L24.5065 2.63221C24.6316 2.34396 24.7947 2.12099 25.0013 1.96327C25.208 1.80011 25.4364 1.68596 25.6812 1.6207C25.9313 1.55544 26.1707 1.52271 26.41 1.52271C26.5623 1.52271 26.7363 1.53908 26.9375 1.57715C27.1388 1.61522 27.3291 1.68587 27.5141 1.79464C27.7044 1.90885 27.8566 2.07754 27.9817 2.30053C28.1068 2.52351 28.1667 2.82803 28.1667 3.20329V6.3305H27.4378V5.68878H27.3999C27.3509 5.79211 27.2692 5.90081 27.155 6.02046C27.0354 6.13467 26.8832 6.23803 26.6928 6.31961C26.5025 6.40119 26.2686 6.43925 25.9912 6.43925ZM26.1 5.78664C26.3882 5.78664 26.633 5.73222 26.8342 5.61801C27.03 5.5038 27.1822 5.35692 27.2801 5.17745C27.3834 4.99797 27.4378 4.80773 27.4378 4.61194V3.943C27.4052 3.98107 27.34 4.01367 27.2312 4.04631C27.1279 4.0735 27.0082 4.10063 26.8722 4.12239C26.7417 4.14414 26.6112 4.16596 26.4806 4.18227C26.3555 4.19315 26.2523 4.20406 26.1762 4.21493C25.9858 4.24213 25.8117 4.28019 25.6431 4.34001C25.4799 4.38896 25.3494 4.47051 25.2515 4.57928C25.1482 4.68805 25.0992 4.83493 25.0992 5.01984C25.0992 5.27546 25.1971 5.46571 25.382 5.59623C25.5724 5.72132 25.8117 5.78664 26.1 5.78664ZM31.9465 8.10894V1.58259H32.6481V2.3385H32.7351C32.7894 2.25692 32.8657 2.14824 32.9581 2.02315C33.056 1.89263 33.192 1.77834 33.3715 1.67501C33.5564 1.57167 33.801 1.52271 34.1056 1.52271C34.5081 1.52271 34.8615 1.62063 35.1661 1.82186C35.4707 2.02309 35.71 2.30593 35.8786 2.67032C36.0472 3.04014 36.1342 3.46974 36.1342 3.97009C36.1342 4.47044 36.0472 4.90561 35.8786 5.27544C35.71 5.64527 35.4707 5.92798 35.1661 6.12921C34.867 6.33044 34.5135 6.42836 34.1219 6.42836C33.8174 6.42836 33.5726 6.3794 33.3877 6.27606C33.2027 6.17273 33.0615 6.05858 32.9636 5.92805C32.8657 5.79752 32.7894 5.6887 32.7351 5.60168H32.6753V8.10894H31.9465ZM32.6644 3.9592C32.6644 4.31815 32.7134 4.63359 32.8222 4.90552C32.9255 5.17745 33.0777 5.38965 33.2789 5.54737C33.4801 5.69965 33.7304 5.77575 34.0241 5.77575C34.3286 5.77575 34.5788 5.6942 34.7854 5.53104C34.9921 5.36788 35.1444 5.15036 35.2478 4.87843C35.3511 4.60106 35.4055 4.2964 35.4055 3.9592C35.4055 3.62201 35.3565 3.32293 35.2532 3.05644C35.1499 2.78451 34.9975 2.57244 34.7909 2.41472C34.5896 2.257 34.3286 2.17545 34.0241 2.17545C33.7249 2.17545 33.4747 2.25155 33.2735 2.40383C33.0722 2.55067 32.92 2.75729 32.8167 3.02922C32.7134 3.29027 32.6644 3.60025 32.6644 3.9592ZM37.978 0V6.3305H37.2491V0H37.978ZM40.7082 6.43925C40.409 6.43925 40.1371 6.38483 39.8924 6.27062C39.6476 6.15641 39.4518 5.9933 39.305 5.77575C39.1636 5.55821 39.0929 5.29173 39.0929 4.98173C39.0929 4.7098 39.1417 4.49228 39.2505 4.32368C39.3593 4.14964 39.5007 4.01912 39.6802 3.92123C39.8597 3.82333 40.0555 3.75255 40.273 3.7036C40.4906 3.65466 40.7136 3.6166 40.9311 3.58397C41.2193 3.55134 41.4532 3.5242 41.6327 3.50244C41.8122 3.48069 41.9481 3.44809 42.0297 3.39914C42.1113 3.35563 42.1548 3.26851 42.1548 3.1543V3.12721C42.1548 2.82265 42.0732 2.58876 41.9046 2.42016C41.7415 2.25156 41.4912 2.16456 41.154 2.16456C40.806 2.16456 40.534 2.24066 40.3328 2.39294C40.137 2.54522 40.001 2.70833 39.9195 2.88237L39.2289 2.63221C39.3485 2.34396 39.5171 2.12099 39.7183 1.96327C39.9304 1.80011 40.1534 1.68596 40.3981 1.6207C40.6483 1.55544 40.8931 1.52271 41.1324 1.52271C41.2847 1.52271 41.4587 1.53908 41.6545 1.57715C41.8557 1.61522 42.0461 1.68587 42.231 1.79464C42.4214 1.90885 42.5736 2.07754 42.6987 2.30053C42.8237 2.52351 42.8835 2.82803 42.8835 3.20329V6.3305H42.1548V5.68878H42.1168C42.0679 5.79211 41.9862 5.90081 41.872 6.02046C41.7578 6.13467 41.6 6.23803 41.4096 6.31961C41.2193 6.40119 40.9855 6.43925 40.7082 6.43925ZM40.8224 5.78664C41.1106 5.78664 41.3498 5.73222 41.551 5.61801C41.7523 5.5038 41.8993 5.35692 42.0026 5.17745C42.106 4.99797 42.1548 4.80773 42.1548 4.61194V3.943C42.1222 3.98107 42.0568 4.01367 41.9535 4.04631C41.8502 4.0735 41.7306 4.10063 41.5946 4.12239C41.4586 4.14414 41.3281 4.16596 41.203 4.18227C41.0725 4.19315 40.9746 4.20406 40.893 4.21493C40.7026 4.24213 40.5286 4.28019 40.3655 4.34001C40.2023 4.38896 40.0663 4.47051 39.9685 4.57928C39.8706 4.68805 39.8216 4.83493 39.8216 5.01984C39.8216 5.27546 39.9141 5.46571 40.099 5.59623C40.2893 5.72132 40.5287 5.78664 40.8224 5.78664ZM44.9447 3.47522V6.3305H44.216V1.58259H44.923V2.32761H44.983C45.0918 2.08288 45.2602 1.89262 45.4886 1.74578C45.717 1.59893 46.0109 1.52271 46.3644 1.52271C46.6907 1.52271 46.9679 1.58803 47.2126 1.71856C47.4519 1.84908 47.637 2.04492 47.7729 2.31142C47.9089 2.57791 47.9742 2.90958 47.9742 3.31204V6.3305H47.2453V3.36648C47.2453 2.99121 47.1474 2.70291 46.9516 2.4908C46.7612 2.28413 46.4947 2.17545 46.1575 2.17545C45.9237 2.17545 45.7171 2.22972 45.5322 2.32761C45.3527 2.43095 45.2058 2.57782 45.1025 2.76818C44.9991 2.96397 44.9447 3.19785 44.9447 3.47522Z" fill="black"/>
</svg>
