<svg width="63" height="9" viewBox="0 0 63 9" fill="none" xmlns="http://www.w3.org/2000/svg">
<path d="M3.75286 1.8763C3.69848 1.5663 3.53511 1.32151 3.26318 1.14748C2.99124 0.97344 2.66503 0.886432 2.28433 0.886432C2.0124 0.886432 1.79496 0.93538 1.57741 1.0224C1.35987 1.11485 1.1965 1.23991 1.08773 1.39763C0.978953 1.55535 0.924672 1.74026 0.924672 1.94149C0.924672 2.11009 0.924779 2.25152 1.03355 2.37661C1.08794 2.49626 1.1965 2.59418 1.35966 2.67576C1.46843 2.7519 1.63169 2.81722 1.74047 2.87161C1.90363 2.92056 2.0125 2.95861 2.12128 2.99124L2.77402 3.16518C2.93718 3.20869 3.10034 3.26856 3.31788 3.3447C3.53542 3.42084 3.69837 3.52421 3.91592 3.65474C4.07908 3.78527 4.24213 3.95382 4.3509 4.15505C4.51406 4.36172 4.56866 4.61196 4.56866 4.90565C4.56866 5.24828 4.45989 5.55826 4.29673 5.83563C4.13357 6.10757 3.86164 6.33053 3.48093 6.49369C3.15462 6.65141 2.77381 6.73295 2.28433 6.73295C1.79485 6.73295 1.41404 6.66231 1.08773 6.51546C0.761407 6.36862 0.489795 6.16733 0.326636 5.90627C0.109091 5.64522 0 5.34069 0 4.99262H0.76162C0.816006 5.23192 0.870393 5.42776 1.03355 5.58548C1.14232 5.73776 1.35987 5.85735 1.57741 5.93349C1.79496 6.00419 2.0124 6.04224 2.28433 6.04224C2.55626 6.04224 2.8284 5.99329 3.04595 5.90083C3.26349 5.80293 3.48104 5.67241 3.58981 5.49838C3.75297 5.32434 3.80704 5.12319 3.80704 4.89476C3.80704 4.68266 3.75276 4.51396 3.64399 4.38343C3.53521 4.24747 3.37237 4.14421 3.15483 4.05719C2.99167 3.97561 2.77381 3.90484 2.55626 3.84501L1.79517 3.62208C1.30569 3.48067 0.870499 3.27407 0.598567 3.01302C0.326636 2.74653 0.163584 2.40381 0.163584 1.97416C0.163584 1.62065 0.272356 1.31067 0.435515 1.04962C0.65306 0.783125 0.924991 0.576515 1.25131 0.429673C1.57763 0.28283 1.90394 0.206604 2.33903 0.206604C2.71974 0.206604 3.10044 0.28283 3.42676 0.429673C3.75308 0.571077 3.9703 0.772221 4.18785 1.0224C4.35101 1.27257 4.45978 1.56086 4.45978 1.8763H3.75286ZM5.71056 6.62421V1.8763H6.47218V6.62421H5.71056ZM6.09137 1.08773C5.92821 1.08773 5.81933 1.03877 5.71056 0.940872C5.60178 0.842976 5.5475 0.728691 5.5475 0.592725C5.5475 0.45676 5.60178 0.342607 5.71056 0.244712C5.81933 0.146816 5.92821 0.0978581 6.09137 0.0978581C6.25453 0.0978581 6.3634 0.146816 6.47218 0.244712C6.58095 0.342607 6.58106 0.45676 6.58106 0.592725C6.58106 0.728691 6.58095 0.842976 6.47218 0.940872C6.3634 1.03877 6.25453 1.08773 6.09137 1.08773ZM9.68118 8.50051C9.35486 8.50051 9.02822 8.457 8.81068 8.36454C8.53875 8.27752 8.3211 8.16337 8.15794 8.01653C7.99478 7.86969 7.83205 7.71735 7.77766 7.54875L8.32152 7.14085C8.43029 7.22787 8.48468 7.33123 8.59345 7.44C8.70223 7.55421 8.81089 7.65213 9.02844 7.73371C9.1916 7.82073 9.40925 7.85879 9.68118 7.85879C10.0619 7.85879 10.3881 7.76632 10.66 7.58141C10.8776 7.3965 11.0408 7.1082 11.0408 6.71118V5.74853H10.932C10.8776 5.83555 10.823 5.93893 10.7142 6.06946C10.6054 6.19455 10.4965 6.30338 10.3334 6.40672C10.1158 6.49917 9.89862 6.54813 9.5723 6.54813C9.1916 6.54813 8.86507 6.46111 8.53875 6.27619C8.21243 6.09672 7.99499 5.83556 7.83183 5.48749C7.66867 5.13942 7.5599 4.72074 7.5599 4.22582C7.5599 3.74178 7.66867 3.31753 7.83183 2.95858C7.99499 2.59419 8.21243 2.31136 8.53875 2.11557C8.81068 1.91434 9.1916 1.81642 9.5723 1.81642C9.89862 1.81642 10.1158 1.86538 10.3334 1.96871C10.4965 2.07205 10.6601 2.18633 10.7689 2.31686C10.8233 2.44195 10.9317 2.55063 10.9861 2.63221H11.0408V1.8763H11.7477V6.76017C11.7477 7.16807 11.639 7.49987 11.4758 7.75549C11.3127 8.0111 11.0405 8.20147 10.7142 8.32112C10.4423 8.44077 10.0619 8.50051 9.68118 8.50051ZM9.68118 5.89538C9.95311 5.89538 10.2249 5.83019 10.3881 5.69422C10.6056 5.55826 10.7685 5.36788 10.8773 5.1177C10.986 4.86752 11.0408 4.56301 11.0408 4.21493C11.0408 3.8723 10.986 3.56765 10.8773 3.30659C10.7685 3.04554 10.6054 2.84437 10.4423 2.69209C10.2247 2.54525 9.95311 2.46916 9.68118 2.46916C9.35486 2.46916 9.08272 2.5507 8.91956 2.70842C8.70201 2.86071 8.53864 3.07276 8.42987 3.33381C8.3211 3.60031 8.26682 3.89406 8.26682 4.21493C8.26682 4.54125 8.3211 4.83486 8.42987 5.09048C8.53864 5.34066 8.70201 5.53649 8.91956 5.68334C9.1371 5.82474 9.35486 5.89538 9.68118 5.89538ZM13.8143 3.76893V6.62421H13.1074V1.8763H13.8143V2.62132H13.8685C13.9773 2.37658 14.1406 2.18633 14.3582 2.03948C14.5757 1.89264 14.9018 1.81642 15.2282 1.81642C15.5545 1.81642 15.8267 1.88174 16.0986 2.01226C16.3162 2.14279 16.5337 2.33863 16.6425 2.60512C16.7513 2.87162 16.8597 3.20329 16.8597 3.60574V6.62421H16.0986V3.66018C16.0986 3.28492 15.9899 2.99661 15.8267 2.78451C15.6092 2.57784 15.3372 2.46916 15.0109 2.46916C14.7934 2.46916 14.5755 2.52343 14.4124 2.62132C14.1948 2.72466 14.0861 2.87153 13.9774 3.06188C13.8686 3.25767 13.8143 3.49156 13.8143 3.76893ZM23.6038 4.68258V1.8763H24.3655V6.62421H23.6038V5.8193H23.5497C23.4409 6.06404 23.2775 6.26521 23.06 6.4338C22.7881 6.6024 22.516 6.68409 22.1353 6.68409C21.8634 6.68409 21.5918 6.61877 21.3742 6.49369C21.1567 6.35772 20.9391 6.16188 20.8304 5.89538C20.6672 5.63433 20.6126 5.29722 20.6126 4.89476V1.8763H21.3742V4.84577C21.3742 5.1884 21.4286 5.46578 21.6462 5.67245C21.8637 5.87912 22.0809 5.98249 22.4072 5.98249C22.5704 5.98249 22.7336 5.93353 22.9511 5.84108C23.1143 5.74862 23.2776 5.6072 23.4408 5.41685C23.5496 5.2265 23.6038 4.98171 23.6038 4.68258ZM25.6704 8.40265V1.8763H26.3773V2.63221H26.4862C26.5406 2.55063 26.5952 2.44195 26.704 2.31686C26.8127 2.18633 26.9216 2.07205 27.0848 1.96871C27.3023 1.86538 27.5196 1.81642 27.8459 1.81642C28.2266 1.81642 28.6075 1.91434 28.8794 2.11557C29.2057 2.3168 29.4232 2.59964 29.5863 2.96402C29.8039 3.33385 29.8583 3.76344 29.8583 4.2638C29.8583 4.76415 29.8039 5.19932 29.5863 5.56915C29.4232 5.93897 29.2057 6.22169 28.8794 6.42292C28.6075 6.62414 28.2266 6.72207 27.8459 6.72207C27.5739 6.72207 27.3021 6.6731 27.139 6.56977C26.9214 6.46643 26.8127 6.35228 26.704 6.22176C26.5952 6.09123 26.5406 5.9824 26.4862 5.89538H26.432V8.40265H25.6704ZM26.3773 4.25291C26.3773 4.61186 26.4321 4.92729 26.5409 5.19922C26.6497 5.47116 26.8125 5.68336 27.0301 5.84108C27.1932 5.99336 27.4651 6.06946 27.737 6.06946C28.0633 6.06946 28.3354 5.98791 28.4986 5.82475C28.7162 5.66159 28.8795 5.44407 28.9883 5.17214C29.0971 4.89477 29.1514 4.5901 29.1514 4.25291C29.1514 3.91571 29.0971 3.61664 28.9883 3.35015C28.8795 3.07821 28.7162 2.86614 28.4986 2.70842C28.3354 2.5507 28.0633 2.46916 27.737 2.46916C27.4651 2.46916 27.1932 2.54526 27.0301 2.69754C26.8125 2.84438 26.6497 3.05099 26.5409 3.32293C26.4321 3.58398 26.3773 3.89396 26.3773 4.25291ZM35.5146 1.8763V2.49624H32.9584V1.8763H35.5146ZM33.7742 6.62421V1.22369C33.7742 0.951759 33.8285 0.723337 33.9372 0.543863C34.046 0.358949 34.2094 0.222984 34.4269 0.135966C34.6445 0.043509 34.8616 0 35.0791 0C35.2423 0 35.4059 0.010787 35.5146 0.0434187C35.6234 0.0706118 35.7322 0.0978846 35.7866 0.125078L35.5688 0.750467C35.5144 0.739589 35.4602 0.723364 35.4058 0.707048C35.3514 0.690732 35.2426 0.679828 35.1338 0.679828C34.9163 0.679828 34.7529 0.739563 34.6441 0.859213C34.5354 0.984301 34.4811 1.15833 34.4811 1.39763V6.62421H33.7742ZM38.2881 6.72207C37.853 6.72207 37.4726 6.61883 37.1462 6.4176C36.8743 6.21094 36.6019 5.92809 36.4388 5.5637C36.2212 5.19388 36.1669 4.76416 36.1669 4.27468C36.1669 3.77977 36.2212 3.35018 36.4388 2.98036C36.6019 2.61053 36.8743 2.32768 37.1462 2.12101C37.4726 1.91978 37.853 1.81642 38.2881 1.81642C38.7232 1.81642 39.1037 1.91978 39.43 2.12101C39.7564 2.32768 39.9741 2.61053 40.1917 2.98036C40.3548 3.35018 40.4636 3.77977 40.4636 4.27468C40.4636 4.76416 40.3548 5.19388 40.1917 5.5637C39.9741 5.92809 39.7564 6.21094 39.43 6.4176C39.1037 6.61883 38.7232 6.72207 38.2881 6.72207ZM38.2881 6.06946C38.6145 6.06946 38.8864 5.98246 39.1039 5.8193C39.3215 5.6507 39.4848 5.43318 39.5936 5.16125C39.648 4.88932 39.702 4.59556 39.702 4.27468C39.702 3.95924 39.648 3.66018 39.5936 3.38825C39.4848 3.11632 39.3215 2.89335 39.1039 2.72476C38.8864 2.55616 38.6145 2.46916 38.2881 2.46916C37.9618 2.46916 37.6899 2.55616 37.4723 2.72476C37.3092 2.89335 37.1461 3.11632 37.0374 3.38825C36.9286 3.66018 36.8743 3.95924 36.8743 4.27468C36.8743 4.59556 36.9286 4.88932 37.0374 5.16125C37.1461 5.43318 37.3092 5.6507 37.4723 5.8193C37.6899 5.98246 37.9618 6.06946 38.2881 6.06946ZM41.5513 6.62421V1.8763H42.2582V2.59423H42.3129C42.4217 2.36037 42.5302 2.17 42.8021 2.02315C43.0196 1.87631 43.2918 1.80553 43.5637 1.80553C43.6181 1.80553 43.6724 1.80553 43.7268 1.80553C43.8355 1.81097 43.8901 1.81098 43.9445 1.81642V2.55613C43.8901 2.55069 43.8353 2.53978 43.7809 2.52891C43.6722 2.51803 43.5634 2.50713 43.509 2.50713C43.2371 2.50713 43.0743 2.55609 42.8568 2.65399C42.6936 2.74644 42.53 2.8824 42.4213 3.05099C42.3669 3.21415 42.3129 3.40453 42.3129 3.62208V6.62421H41.5513ZM49.3831 1.8763V2.49624H46.8269V1.8763H49.3831ZM47.588 6.62421V1.22369C47.588 0.951759 47.6428 0.723337 47.7516 0.543863C47.8603 0.358949 48.0776 0.222984 48.2407 0.135966C48.4583 0.043509 48.6759 0 48.8935 0C49.0566 0 49.2197 0.010787 49.3284 0.0434187C49.4372 0.0706118 49.546 0.0978846 49.6004 0.125078L49.3831 0.750467C49.3288 0.739589 49.2739 0.723364 49.2196 0.707048C49.1652 0.690732 49.0567 0.679828 49.0023 0.679828C48.7304 0.679828 48.5672 0.739563 48.4585 0.859213C48.3497 0.984301 48.2954 1.15833 48.2954 1.39763V6.62421H47.588ZM50.362 6.62421V1.8763H51.0689V2.59423H51.1231C51.2318 2.36037 51.3952 2.17 51.6128 2.02315C51.8303 1.87631 52.1025 1.80553 52.3744 1.80553C52.4288 1.80553 52.4828 1.80553 52.5916 1.80553C52.646 1.81097 52.7003 1.81098 52.7547 1.81642V2.55613C52.7547 2.55069 52.646 2.53978 52.5916 2.52891C52.4828 2.51803 52.4285 2.50713 52.3197 2.50713C52.1021 2.50713 51.8845 2.55609 51.6669 2.65399C51.5038 2.74644 51.3954 2.8824 51.2867 3.05099C51.1779 3.21415 51.1231 3.40453 51.1231 3.62208V6.62421H50.362ZM55.474 6.72207C54.9845 6.72207 54.6042 6.62427 54.2779 6.4176C53.9516 6.21638 53.6794 5.93353 53.5163 5.56915C53.3531 5.19932 53.2444 4.77505 53.2444 4.28557C53.2444 3.80154 53.3531 3.37196 53.5163 3.00213C53.6794 2.63231 53.9516 2.33857 54.2779 2.1319C54.6042 1.91979 54.9849 1.81642 55.3656 1.81642C55.6376 1.81642 55.8548 1.85448 56.1267 1.94149C56.3443 2.02307 56.5619 2.15372 56.7795 2.33864C56.997 2.52355 57.1604 2.76821 57.2691 3.07277C57.3779 3.37189 57.4322 3.74719 57.4322 4.18772V4.49775H53.7882V3.86679H56.6706C56.6706 3.6003 56.6163 3.36109 56.5075 3.14899C56.3988 2.94232 56.2901 2.77364 56.0725 2.65399C55.9094 2.53434 55.6376 2.46916 55.3656 2.46916C55.0937 2.46916 54.8213 2.54524 54.6582 2.68665C54.4406 2.82805 54.2778 3.01298 54.169 3.2414C54.0603 3.46982 54.006 3.71992 54.006 3.98098V4.39976C54.006 4.75871 54.0603 5.06337 54.169 5.31355C54.2778 5.55829 54.441 5.74865 54.7129 5.87374C54.9304 6.00427 55.1477 6.06946 55.474 6.06946C55.6371 6.06946 55.8549 6.04232 55.9637 5.98793C56.1268 5.93355 56.2899 5.85186 56.3987 5.74309C56.5074 5.62888 56.5618 5.49303 56.6706 5.32444L57.3775 5.5256C57.2687 5.76489 57.1604 5.97151 56.9972 6.15643C56.7797 6.3359 56.6164 6.47188 56.3445 6.57521C56.0725 6.67311 55.8003 6.72207 55.474 6.72207ZM60.5323 6.72207C60.0972 6.72207 59.662 6.62427 59.3357 6.4176C59.0094 6.21638 58.7373 5.93353 58.5741 5.56915C58.4109 5.19932 58.3022 4.77505 58.3022 4.28557C58.3022 3.80154 58.4109 3.37196 58.5741 3.00213C58.7373 2.63231 59.0094 2.33857 59.3357 2.1319C59.662 1.91979 60.0425 1.81642 60.4776 1.81642C60.6952 1.81642 60.967 1.85448 61.1845 1.94149C61.4021 2.02307 61.6741 2.15372 61.8373 2.33864C62.0548 2.52355 62.2182 2.76821 62.327 3.07277C62.4357 3.37189 62.49 3.74719 62.49 4.18772V4.49775H58.846V3.86679H61.7284C61.7284 3.6003 61.6741 3.36109 61.5653 3.14899C61.511 2.94232 61.3479 2.77364 61.1304 2.65399C60.9672 2.53434 60.6952 2.46916 60.4776 2.46916C60.1513 2.46916 59.9341 2.54524 59.7165 2.68665C59.499 2.82805 59.3356 3.01298 59.2268 3.2414C59.1181 3.46982 59.0638 3.71992 59.0638 3.98098V4.39976C59.0638 4.75871 59.1181 5.06337 59.2268 5.31355C59.3356 5.55829 59.5532 5.74865 59.7707 5.87374C59.9882 6.00427 60.2604 6.06946 60.5323 6.06946C60.6955 6.06946 60.9127 6.04232 61.0215 5.98793C61.1846 5.93355 61.3477 5.85186 61.4565 5.74309C61.5652 5.62888 61.674 5.49303 61.7284 5.32444L62.4358 5.5256C62.3271 5.76489 62.2182 5.97151 62.055 6.15643C61.8919 6.3359 61.6742 6.47188 61.4023 6.57521C61.1304 6.67311 60.8586 6.72207 60.5323 6.72207Z" fill="black"/>
</svg>
