<svg width="202" height="54" viewBox="0 0 202 54" fill="none" xmlns="http://www.w3.org/2000/svg">
<path d="M0 24.3651C0 15.8373 -0.000106197 11.5734 1.65867 8.31568C3.12166 5.44952 5.44952 3.1218 8.31568 1.65881C11.5734 2.65817e-05 15.8372 0 24.3649 0H177.408C185.936 0 190.2 2.65817e-05 193.457 1.65881C196.323 3.1218 198.651 5.44952 200.114 8.31568C201.773 11.5734 201.773 15.8373 201.773 24.3651V28.9335C201.773 37.4612 201.773 41.7251 200.114 44.9828C198.651 47.849 196.323 50.1767 193.457 51.6397C190.2 53.2985 185.936 53.2985 177.408 53.2985H24.3649C15.8372 53.2985 11.5734 53.2985 8.31568 51.6397C5.44952 50.1767 3.12166 47.849 1.65867 44.9828C-0.000106197 41.7251 0 37.4612 0 28.9335V24.3651Z" fill="black" fill-opacity="0.8"/>
</svg>
