<svg width="57" height="8" viewBox="0 0 57 8" fill="none" xmlns="http://www.w3.org/2000/svg">
<path d="M0 7.11914V0H2.49093C2.98585 0 3.39388 0.0870021 3.7202 0.255599C4.04108 0.424197 4.28028 0.652624 4.438 0.940872C4.59572 1.22912 4.67196 1.54456 4.67196 1.89263C4.67196 2.19719 4.61741 2.44738 4.50864 2.64861C4.40531 2.84984 4.26402 3.00755 4.08455 3.12177C3.91051 3.23598 3.72558 3.32298 3.51891 3.37737V3.44807C3.73645 3.46439 3.95398 3.54055 4.17696 3.67652C4.3945 3.81792 4.57943 4.0137 4.73171 4.27475C4.87855 4.53581 4.9492 4.85125 4.9492 5.22651C4.9492 5.58546 4.87309 5.90635 4.70993 6.18916C4.54678 6.47741 4.2912 6.70039 3.93769 6.86899C3.58962 7.03758 3.13264 7.11914 2.57246 7.11914H0ZM0.864922 6.35228H2.57246C3.13808 6.35228 3.53507 6.24352 3.77437 6.02597C4.01367 5.80843 4.13341 5.54195 4.13341 5.22651C4.13341 4.98721 4.06823 4.76424 3.94858 4.56301C3.82349 4.35635 3.64934 4.18773 3.42092 4.06808C3.19249 3.94299 2.92601 3.87774 2.61601 3.87774H0.864922V6.35228ZM0.864922 3.12721H2.46385C2.7249 3.12721 2.95878 3.07825 3.16545 2.97491C3.37756 2.87158 3.54067 2.73015 3.66576 2.54524C3.79085 2.36033 3.85059 2.14281 3.85059 1.89263C3.85059 1.57719 3.74176 1.31071 3.52422 1.09317C3.30667 0.875624 2.96409 0.766798 2.49093 0.766798H0.864922V3.12721ZM7.82626 7.24422C7.48906 7.24422 7.18453 7.17897 6.90716 7.05388C6.62979 6.92335 6.41227 6.73842 6.24911 6.49369C6.08595 6.24895 6.00426 5.94982 6.00426 5.60174C6.00426 5.29718 6.06944 5.04701 6.18909 4.8621C6.30874 4.66631 6.47197 4.51405 6.6732 4.40527C6.87443 4.2965 7.09753 4.21489 7.33683 4.16594C7.58157 4.10611 7.83167 4.06261 8.07641 4.02997C8.40273 3.9919 8.66376 3.95931 8.87043 3.93756C9.07166 3.9158 9.21853 3.87769 9.31099 3.8233C9.40889 3.76892 9.45784 3.67652 9.45784 3.54599V3.51877C9.45784 3.17614 9.35994 2.90966 9.17502 2.71931C8.99011 2.52896 8.70727 2.43105 8.32657 2.43105C7.93499 2.43105 7.63046 2.51806 7.40747 2.69209C7.18449 2.86069 7.02684 3.04561 6.93982 3.2414L6.162 2.96402C6.29797 2.63771 6.48289 2.38208 6.71676 2.2026C6.95062 2.01769 7.20632 1.89263 7.48369 1.82193C7.76106 1.74579 8.03299 1.70774 8.29948 1.70774C8.47352 1.70774 8.66922 1.72949 8.89221 1.773C9.11519 1.81107 9.33284 1.89262 9.54495 2.01771C9.75161 2.1428 9.93107 2.33317 10.067 2.58335C10.2084 2.83896 10.2736 3.17615 10.2736 3.60037V7.11914H9.45784V6.39583H9.41429C9.35991 6.51004 9.26758 6.63509 9.13705 6.76562C9.00652 6.90158 8.83238 7.01035 8.62027 7.10281C8.40273 7.19527 8.1417 7.24422 7.82626 7.24422ZM7.95133 6.51002C8.27765 6.51002 8.54945 6.44476 8.77244 6.31424C9.00086 6.18915 9.16969 6.02598 9.2839 5.82475C9.39811 5.62352 9.45784 5.41139 9.45784 5.1884V4.43787C9.41977 4.47594 9.34354 4.51406 9.22389 4.55213C9.10968 4.58476 8.97385 4.6119 8.82157 4.6391C8.67472 4.66085 8.52241 4.68266 8.38101 4.69898C8.2396 4.7153 8.12545 4.73159 8.03844 4.74247C7.82633 4.76966 7.62505 4.81317 7.44014 4.87843C7.25522 4.93826 7.10821 5.03071 6.994 5.15036C6.88523 5.27001 6.82563 5.43863 6.82563 5.6453C6.82563 5.9281 6.93432 6.14562 7.14643 6.29246C7.35853 6.43386 7.62502 6.51002 7.95133 6.51002ZM13.9447 7.22789C13.4444 7.22789 13.0093 7.11373 12.6504 6.87443C12.286 6.64057 12.0086 6.31423 11.8128 5.9009C11.6225 5.48212 11.5244 5.00896 11.5244 4.47598C11.5244 3.93212 11.6225 3.45351 11.8237 3.04017C12.0249 2.62684 12.3023 2.3005 12.6613 2.06664C13.0257 1.82734 13.4442 1.70774 13.9282 1.70774C14.3035 1.70774 14.6408 1.77838 14.9453 1.91978C15.2445 2.05575 15.4948 2.25158 15.6852 2.50175C15.8755 2.75193 15.995 3.04561 16.0439 3.37737H15.2228C15.1576 3.13263 15.0216 2.92055 14.8041 2.7302C14.5919 2.53985 14.3037 2.44738 13.9447 2.44738C13.6238 2.44738 13.3411 2.52894 13.1018 2.69754C12.8625 2.8607 12.6775 3.09457 12.5415 3.3937C12.411 3.69282 12.3458 4.0463 12.3458 4.44876C12.3458 4.86209 12.4111 5.22103 12.5362 5.5256C12.6722 5.83016 12.857 6.06949 13.0963 6.23809C13.3356 6.40668 13.6184 6.49369 13.9447 6.49369C14.1568 6.49369 14.3472 6.45564 14.5212 6.3795C14.6953 6.30879 14.842 6.20005 14.9671 6.06408C15.0868 5.92268 15.1685 5.75406 15.2228 5.5637H16.0439C15.995 5.87914 15.8807 6.16192 15.6958 6.41209C15.5163 6.66227 15.2771 6.86355 14.978 7.0104C14.6843 7.15724 14.3363 7.22789 13.9447 7.22789ZM18.0072 5.17214L17.991 4.15512H18.1596L20.4981 1.77844H21.5099L19.0243 4.29653H18.9537L18.0072 5.17214ZM17.2405 7.11914V0H18.0617V7.11914H17.2405ZM20.6341 7.11914L18.5511 4.47598L19.1332 3.9049L21.6783 7.11914H20.6341ZM27.6446 1.77844V2.47453H24.8764V1.77844H27.6446ZM25.6813 0.500311H26.5024V5.59086C26.5024 5.81928 26.5351 5.99336 26.6004 6.11301C26.6711 6.22722 26.758 6.30332 26.8668 6.34139C26.9755 6.37946 27.0899 6.39583 27.2096 6.39583C27.302 6.39583 27.378 6.39037 27.4324 6.3795C27.4922 6.36862 27.5359 6.36315 27.5739 6.35228L27.737 7.09192C27.6826 7.11368 27.6065 7.13549 27.5086 7.15181C27.4053 7.179 27.2801 7.18985 27.1278 7.18985C26.8939 7.18985 26.671 7.14088 26.448 7.03755C26.225 6.93965 26.0456 6.7874 25.8988 6.58617C25.752 6.3795 25.6813 6.12386 25.6813 5.81386V0.500311ZM30.9893 7.22789C30.5052 7.22789 30.081 7.11367 29.722 6.88525C29.3576 6.65683 29.0751 6.33601 28.8738 5.92267C28.6672 5.50934 28.5692 5.03072 28.5692 4.47598C28.5692 3.92124 28.6672 3.43717 28.8738 3.0184C29.0751 2.60506 29.3576 2.28417 29.722 2.05575C30.081 1.82189 30.5052 1.70774 30.9893 1.70774C31.4679 1.70774 31.8923 1.82189 32.2512 2.05575C32.6156 2.28417 32.8982 2.60506 33.0994 3.0184C33.3061 3.43717 33.4096 3.92124 33.4096 4.47598C33.4096 5.03072 33.3061 5.50934 33.0994 5.92267C32.8982 6.33601 32.6156 6.65683 32.2512 6.88525C31.8923 7.11367 31.4679 7.22789 30.9893 7.22789ZM30.9893 6.49369C31.3537 6.49369 31.6583 6.40122 31.8922 6.21087C32.126 6.02595 32.3054 5.77579 32.4196 5.47122C32.5283 5.16666 32.5882 4.83493 32.5882 4.47598C32.5882 4.12247 32.5283 3.7853 32.4196 3.48073C32.3054 3.17073 32.126 2.92055 31.8922 2.7302C31.6583 2.53985 31.3537 2.44738 30.9893 2.44738C30.6194 2.44738 30.3205 2.53985 30.0866 2.7302C29.8473 2.92055 29.6732 3.17073 29.559 3.48073C29.4448 3.7853 29.3904 4.12247 29.3904 4.47598C29.3904 4.83493 29.4448 5.16666 29.559 5.47122C29.6732 5.77579 29.8473 6.02595 30.0866 6.21087C30.3205 6.40122 30.6194 6.49369 30.9893 6.49369ZM39.5825 7.22789C39.0821 7.22789 38.6523 7.11373 38.2879 6.87443C37.9289 6.64057 37.6517 6.31423 37.4559 5.9009C37.2601 5.48212 37.1622 5.00896 37.1622 4.47598C37.1622 3.93212 37.2654 3.45351 37.4612 3.04017C37.6624 2.62684 37.9454 2.3005 38.3043 2.06664C38.6633 1.82734 39.0875 1.70774 39.5716 1.70774C39.9468 1.70774 40.284 1.77838 40.5831 1.91978C40.8876 2.05575 41.1323 2.25158 41.3227 2.50175C41.5185 2.75193 41.6382 3.04561 41.6817 3.37737H40.8603C40.8005 3.13263 40.6592 2.92055 40.4471 2.7302C40.2296 2.53985 39.9468 2.44738 39.5825 2.44738C39.2616 2.44738 38.9841 2.52894 38.7393 2.69754C38.5055 2.8607 38.3152 3.09457 38.1793 3.3937C38.0487 3.69282 37.9835 4.0463 37.9835 4.44876C37.9835 4.86209 38.0487 5.22103 38.1793 5.5256C38.3098 5.83016 38.4947 6.06949 38.734 6.23809C38.9733 6.40668 39.2561 6.49369 39.5825 6.49369C39.7946 6.49369 39.9903 6.45564 40.1643 6.3795C40.3383 6.30879 40.4852 6.20005 40.6049 6.06408C40.7245 5.92268 40.8114 5.75406 40.8603 5.5637H41.6817C41.6382 5.87914 41.524 6.16192 41.3391 6.41209C41.1597 6.66227 40.9202 6.86355 40.6211 7.0104C40.3219 7.15724 39.9795 7.22789 39.5825 7.22789ZM43.7047 3.9049V7.11914H42.8836V0H43.7047V2.61594H43.77C43.8951 2.33857 44.0855 2.12105 44.3357 1.95789C44.5859 1.79473 44.9231 1.70774 45.3419 1.70774C45.7063 1.70774 46.027 1.78383 46.299 1.93067C46.5709 2.07208 46.7832 2.29511 46.9355 2.59423C47.0878 2.88792 47.1639 3.2686 47.1639 3.72545V7.11914H46.3425V3.77982C46.3425 3.35561 46.2337 3.02932 46.0161 2.79546C45.7986 2.5616 45.4941 2.44738 45.1079 2.44738C44.836 2.44738 44.5967 2.50173 44.3845 2.61594C44.1724 2.73016 44.0039 2.89878 43.8842 3.11632C43.7646 3.33387 43.7047 3.59489 43.7047 3.9049ZM50.2366 7.24422C49.8994 7.24422 49.5895 7.17897 49.3176 7.05388C49.0402 6.92335 48.8227 6.73842 48.6595 6.49369C48.4963 6.24895 48.4147 5.94982 48.4147 5.60174C48.4147 5.29718 48.4745 5.04701 48.5942 4.8621C48.7193 4.66631 48.8771 4.51405 49.0783 4.40527C49.2795 4.2965 49.5025 4.21489 49.7472 4.16594C49.992 4.10611 50.2421 4.06261 50.4868 4.02997C50.8131 3.9919 51.0743 3.95931 51.2755 3.93756C51.4822 3.9158 51.6289 3.87769 51.7214 3.8233C51.8138 3.76892 51.8627 3.67652 51.8627 3.54599V3.51877C51.8627 3.17614 51.7705 2.90966 51.5801 2.71931C51.3952 2.52896 51.1177 2.43105 50.737 2.43105C50.3454 2.43105 50.0408 2.51806 49.8179 2.69209C49.5949 2.86069 49.4371 3.04561 49.3446 3.2414L48.5671 2.96402C48.7085 2.63771 48.8933 2.38208 49.1271 2.2026C49.361 2.01769 49.6111 1.89263 49.8885 1.82193C50.1659 1.74579 50.4434 1.70774 50.7099 1.70774C50.8839 1.70774 51.0796 1.72949 51.3026 1.773C51.5256 1.81107 51.7431 1.89262 51.9498 2.01771C52.1619 2.1428 52.336 2.33317 52.4774 2.58335C52.6134 2.83896 52.684 3.17615 52.684 3.60037V7.11914H51.8627V6.39583H51.8247C51.7649 6.51004 51.6724 6.63509 51.5419 6.76562C51.4168 6.90158 51.2429 7.01035 51.0254 7.10281C50.8132 7.19527 50.5466 7.24422 50.2366 7.24422ZM50.3617 6.51002C50.688 6.51002 50.9598 6.44476 51.1828 6.31424C51.4058 6.18915 51.5745 6.02598 51.6887 5.82475C51.8084 5.62352 51.8627 5.41139 51.8627 5.1884V4.43787C51.83 4.47594 51.7539 4.51406 51.6343 4.55213C51.5201 4.58476 51.3842 4.6119 51.232 4.6391C51.0797 4.66085 50.9328 4.68266 50.7914 4.69898C50.65 4.7153 50.5357 4.73159 50.4432 4.74247C50.2311 4.76966 50.0353 4.81317 49.8449 4.87843C49.6655 4.93826 49.5189 5.03071 49.4047 5.15036C49.2904 5.27001 49.236 5.43863 49.236 5.6453C49.236 5.9281 49.3391 6.14562 49.5512 6.29246C49.7633 6.43386 50.0354 6.51002 50.3617 6.51002ZM56.502 1.77844V2.47453H53.7391V1.77844H56.502ZM54.544 0.500311H55.3654V5.59086C55.3654 5.81928 55.3978 5.99336 55.4631 6.11301C55.5338 6.22722 55.6209 6.30332 55.7297 6.34139C55.8385 6.37946 55.9526 6.39583 56.0723 6.39583C56.1647 6.39583 56.2355 6.39037 56.2953 6.3795C56.3552 6.36862 56.3986 6.36315 56.4366 6.35228L56.5999 7.09192C56.5456 7.11368 56.4693 7.13549 56.366 7.15181C56.2681 7.179 56.143 7.18985 55.9908 7.18985C55.7569 7.18985 55.5285 7.14088 55.3109 7.03755C55.0879 6.93965 54.9029 6.7874 54.7615 6.58617C54.6146 6.3795 54.544 6.12386 54.544 5.81386V0.500311Z" fill="black"/>
</svg>
