<svg width="23" height="8" viewBox="0 0 23 8" fill="none" xmlns="http://www.w3.org/2000/svg">
<path d="M0 7.34214V0.223002H4.29673V0.989801H0.859345V3.3937H4.07366V4.15512H0.859345V6.57528H4.3509V7.34214H0ZM5.73791 7.34214V2.00144H6.53193V2.83895H6.59725C6.71147 2.5507 6.8908 2.32773 7.13554 2.17545C7.38572 2.01229 7.68479 1.93074 8.03286 1.93074C8.38093 1.93074 8.67481 2.01229 8.90867 2.17545C9.14797 2.32773 9.33289 2.5507 9.46342 2.83895H9.51759C9.65356 2.56158 9.86043 2.34405 10.1324 2.18089C10.4097 2.01774 10.7358 1.93074 11.1165 1.93074C11.5951 1.93074 11.9868 2.083 12.2913 2.38212C12.5959 2.67581 12.7428 3.13812 12.7428 3.769V7.34214H11.927V3.769C11.927 3.37198 11.8182 3.09458 11.6006 2.92598C11.3885 2.75195 11.133 2.67038 10.8393 2.67038C10.464 2.67038 10.1757 2.7846 9.96904 3.01302C9.76237 3.236 9.65914 3.51878 9.65914 3.86685V7.34214H8.82157V3.6874C8.82157 3.38284 8.72365 3.13812 8.52786 2.9532C8.33207 2.76285 8.07651 2.67038 7.76651 2.67038C7.5544 2.67038 7.35312 2.72474 7.1682 2.83895C6.98873 2.95316 6.83654 3.11088 6.72233 3.3121C6.61356 3.51333 6.55901 3.74177 6.55901 4.00282V7.34214H5.73791ZM15.8156 7.46722C15.4784 7.46722 15.1738 7.40197 14.8965 7.27688C14.6191 7.14636 14.4016 6.96143 14.2384 6.71669C14.0753 6.47195 13.9936 6.17282 13.9936 5.82475C13.9936 5.52018 14.0536 5.27001 14.1787 5.0851C14.2983 4.88931 14.456 4.73705 14.6572 4.62828C14.8584 4.5195 15.0814 4.43789 15.3261 4.38894C15.5709 4.32912 15.821 4.28561 16.0657 4.25298C16.392 4.21491 16.6532 4.18232 16.8544 4.16056C17.0611 4.13881 17.2078 4.10069 17.3003 4.04631C17.3982 3.99192 17.4418 3.89952 17.4418 3.769V3.74178C17.4418 3.39914 17.3492 3.13267 17.1643 2.94231C16.9794 2.75196 16.6966 2.65405 16.3159 2.65405C15.9243 2.65405 15.6198 2.74106 15.3968 2.9151C15.1738 3.08369 15.0162 3.26861 14.9291 3.4644L14.146 3.18703C14.2874 2.86071 14.4722 2.60508 14.7061 2.42561C14.9399 2.24069 15.1955 2.11563 15.4674 2.04493C15.7448 1.96879 16.0223 1.93074 16.2888 1.93074C16.4628 1.93074 16.6585 1.95249 16.8815 1.996C17.1045 2.03407 17.322 2.11562 17.5287 2.24071C17.7408 2.3658 17.9149 2.55617 18.0563 2.80635C18.1923 3.06196 18.2629 3.39916 18.2629 3.82337V7.34214H17.4418V6.61883H17.4036C17.3438 6.73304 17.2514 6.85809 17.1264 6.98862C16.9958 7.12459 16.8218 7.23336 16.6043 7.32581C16.3922 7.41827 16.1256 7.46722 15.8156 7.46722ZM15.9406 6.73302C16.267 6.73302 16.539 6.66777 16.762 6.53724C16.985 6.41215 17.1589 6.24898 17.2676 6.04775C17.3873 5.84652 17.4418 5.63439 17.4418 5.41141V4.66087C17.4092 4.69894 17.3331 4.73706 17.2135 4.77513C17.0993 4.80776 16.9632 4.83491 16.8109 4.8621C16.6586 4.88385 16.5117 4.90567 16.3703 4.92198C16.2289 4.9383 16.1148 4.95459 16.0277 4.96547C15.8102 4.99266 15.6144 5.03617 15.4294 5.10143C15.2445 5.16126 15.0978 5.25371 14.9836 5.37336C14.8694 5.49301 14.8149 5.66163 14.8149 5.8683C14.8149 6.15111 14.9238 6.36862 15.1304 6.51546C15.348 6.65687 15.6143 6.73302 15.9406 6.73302ZM19.7641 7.34214V2.00144H20.5799V7.34214H19.7641ZM20.1774 1.11494C20.0196 1.11494 19.8838 1.06053 19.7641 0.951759C19.6499 0.837548 19.5955 0.707032 19.5955 0.55475C19.5955 0.402469 19.6499 0.271958 19.7641 0.163185C19.8838 0.0544128 20.0196 0 20.1774 0C20.3405 0 20.4766 0.0544128 20.5908 0.163185C20.705 0.271958 20.7648 0.402469 20.7648 0.55475C20.7648 0.707032 20.705 0.837548 20.5908 0.951759C20.4766 1.06053 20.3405 1.11494 20.1774 1.11494ZM22.9076 0.223002V7.34214H22.0864V0.223002H22.9076Z" fill="black" fill-opacity="0.2"/>
</svg>
