<svg width="178" height="20" viewBox="0 0 178 20" fill="none" xmlns="http://www.w3.org/2000/svg">
<path d="M2.40941 19.5791H0L6.97222 0.592858H9.34365L16.3159 19.5791H13.9065L8.22858 3.59499H8.08172L2.40941 19.5791ZM3.30115 12.1608H13.0147V14.2003H3.30115V12.1608ZM27.9492 13.7597V5.34077H30.1355V19.5791H27.9492V17.1698H27.8023C27.4651 17.8931 26.9484 18.5076 26.2414 19.0134C25.5398 19.5138 24.6478 19.764 23.5709 19.764C22.6844 19.764 21.8905 19.5682 21.1998 19.182C20.509 18.785 19.9652 18.1922 19.5682 17.3982C19.1711 16.6041 18.9754 15.598 18.9754 14.3851V5.34077H21.1618V14.2383C21.1618 15.2771 21.4555 16.1038 22.032 16.7238C22.6194 17.3438 23.3698 17.6483 24.2781 17.6483C24.822 17.6483 25.3766 17.5123 25.9368 17.235C26.5078 16.9576 26.9809 16.528 27.3671 15.957C27.7532 15.3805 27.9492 14.6462 27.9492 13.7597ZM40.3382 5.34077V7.19529H32.9581V5.34077H40.3382ZM35.1062 1.93074H37.2981V15.5001C37.2981 16.1201 37.385 16.5824 37.5645 16.8924C37.7494 17.1915 37.9834 17.3981 38.2717 17.5015C38.5599 17.5994 38.8643 17.6483 39.1852 17.6483C39.4299 17.6483 39.6259 17.6374 39.7782 17.6156C39.9359 17.583 40.0555 17.5559 40.1534 17.5396L40.594 19.503C40.4471 19.5628 40.2404 19.6171 39.9739 19.6715C39.7074 19.7313 39.3703 19.764 38.9624 19.764C38.3478 19.764 37.7385 19.6335 37.1457 19.367C36.5583 19.1005 36.0743 18.6979 35.6827 18.1541C35.2966 17.6102 35.1062 16.9196 35.1062 16.0929V1.93074ZM46.1194 11.0132V19.5791H43.9331V0.592858H46.1194V7.56508H46.3045C46.6417 6.83087 47.1419 6.24351 47.8055 5.81386C48.4799 5.37333 49.3773 5.15581 50.4977 5.15581C51.4658 5.15581 52.3142 5.35163 53.0484 5.73778C53.7771 6.12392 54.3427 6.7113 54.7397 7.51077C55.1476 8.29937 55.3542 9.30555 55.3542 10.5292V19.5791H53.1681V10.6814C53.1681 9.55017 52.8744 8.67464 52.287 8.05464C51.7051 7.42919 50.9001 7.11921 49.8667 7.11921C49.1488 7.11921 48.5072 7.2714 47.9361 7.57597C47.3759 7.87509 46.9299 8.32115 46.6035 8.89765C46.2827 9.47958 46.1194 10.1865 46.1194 11.0132ZM65.3288 19.8782C63.9529 19.8782 62.7725 19.5735 61.7773 18.9699C60.7874 18.3553 60.026 17.5015 59.4876 16.4083C58.9546 15.3097 58.6883 14.0317 58.6883 12.5687C58.6883 11.1112 58.9546 9.82761 59.4876 8.71269C60.026 7.59777 60.7712 6.72213 61.7284 6.10212C62.6965 5.47124 63.8168 5.15581 65.1058 5.15581C65.8454 5.15581 66.5797 5.27542 67.303 5.5256C68.0263 5.77033 68.6843 6.17278 69.2771 6.73295C69.87 7.28226 70.3433 8.01104 70.6968 8.91929C71.0449 9.82754 71.2242 10.9426 71.2242 12.275V13.1996H60.249V11.3124H68.9999C68.9999 10.5075 68.8367 9.78957 68.5158 9.15869C68.2003 8.52781 67.7491 8.0329 67.1617 7.66851C66.5798 7.30413 65.8944 7.11921 65.1058 7.11921C64.2356 7.11921 63.4795 7.33672 62.8432 7.76637C62.2123 8.19602 61.7285 8.7508 61.3858 9.43607C61.0486 10.1213 60.8746 10.8609 60.8746 11.644V12.9058C60.8746 13.9773 61.0649 14.891 61.4347 15.6415C61.81 16.3811 62.332 16.9467 63.0009 17.3383C63.6699 17.719 64.4423 17.9094 65.3288 17.9094C65.8999 17.9094 66.4219 17.8278 66.8842 17.6701C67.3519 17.5015 67.7598 17.2568 68.097 16.9251C68.4396 16.5933 68.7008 16.18 68.8857 15.685L71.0011 16.2778C70.7782 16.9957 70.4031 17.6265 69.881 18.1704C69.3535 18.7088 68.7062 19.1276 67.934 19.4322C67.1617 19.7259 66.2915 19.8782 65.3288 19.8782ZM76.7391 11.0132V19.5791H74.5527V5.34077H76.6628V7.56508H76.8477C77.1849 6.84174 77.6908 6.25983 78.3706 5.8193C79.0505 5.37877 79.926 5.15581 81.0029 5.15581C81.9655 5.15581 82.8084 5.35164 83.5318 5.74866C84.2551 6.13481 84.8209 6.73307 85.2234 7.52711C85.6204 8.32114 85.8214 9.32186 85.8214 10.5292V19.5791H83.6351V10.6814C83.6351 9.56104 83.347 8.69097 82.7651 8.06552C82.1832 7.43464 81.3889 7.11921 80.3719 7.11921C79.6757 7.11921 79.0503 7.2714 78.501 7.57597C77.9572 7.87509 77.5277 8.32115 77.2123 8.89765C76.8968 9.47958 76.7391 10.1865 76.7391 11.0132ZM96.0135 5.34077V7.19529H88.6334V5.34077H96.0135ZM90.7871 1.93074H92.9734V15.5001C92.9734 16.1201 93.0657 16.5824 93.2398 16.8924C93.4301 17.1915 93.6641 17.3981 93.9469 17.5015C94.2352 17.5994 94.5452 17.6483 94.866 17.6483C95.1053 17.6483 95.301 17.6374 95.4588 17.6156C95.611 17.583 95.7362 17.5559 95.8287 17.5396L96.2746 19.503C96.1277 19.5628 95.921 19.6171 95.6545 19.6715C95.388 19.7313 95.0509 19.764 94.643 19.764C94.023 19.764 93.4194 19.6335 92.8266 19.367C92.2392 19.1005 91.7496 18.6979 91.358 18.1541C90.9773 17.6102 90.7871 16.9196 90.7871 16.0929V1.93074ZM99.3038 19.5791V5.34077H101.496V19.5791H99.3038ZM100.419 2.96402C99.9892 2.96402 99.6247 2.82259 99.3147 2.52891C99.0101 2.24066 98.8579 1.89263 98.8579 1.48473C98.8579 1.07684 99.0101 0.728802 99.3147 0.435117C99.6247 0.146869 99.9892 0 100.419 0C100.843 0 101.207 0.146869 101.512 0.435117C101.822 0.728802 101.974 1.07684 101.974 1.48473C101.974 1.89263 101.822 2.24066 101.512 2.52891C101.207 2.82259 100.843 2.96402 100.419 2.96402ZM111.285 19.8782C109.947 19.8782 108.8 19.5628 107.837 18.9319C106.874 18.301 106.129 17.4308 105.613 16.3268C105.091 15.2173 104.835 13.9555 104.835 12.5361C104.835 11.0894 105.096 9.81129 105.629 8.70724C106.168 7.59233 106.918 6.72213 107.875 6.10212C108.838 5.47124 109.963 5.15581 111.247 5.15581C112.248 5.15581 113.15 5.34073 113.955 5.71056C114.76 6.08038 115.419 6.60255 115.93 7.26606C116.441 7.93501 116.762 8.71263 116.882 9.60456H114.695C114.532 8.95737 114.157 8.38092 113.586 7.88056C113.015 7.37477 112.248 7.11921 111.285 7.11921C110.431 7.11921 109.686 7.34218 109.039 7.78815C108.403 8.22324 107.908 8.84864 107.549 9.64812C107.195 10.4476 107.021 11.383 107.021 12.4598C107.021 13.5584 107.195 14.5157 107.538 15.3315C107.891 16.1472 108.386 16.7836 109.023 17.235C109.664 17.6864 110.42 17.9094 111.285 17.9094C111.851 17.9094 112.368 17.8114 112.835 17.6156C113.298 17.4144 113.689 17.1317 114.01 16.7619C114.331 16.3921 114.559 15.9461 114.695 15.424H116.882C116.762 16.267 116.457 17.0229 115.968 17.6973C115.484 18.3663 114.842 18.8938 114.048 19.2908C113.254 19.6824 112.335 19.8782 111.285 19.8782ZM124.273 19.9109C123.37 19.9109 122.554 19.7422 121.814 19.405C121.08 19.0569 120.498 18.5566 120.063 17.9094C119.634 17.2567 119.416 16.4628 119.416 15.5382C119.416 14.7224 119.574 14.0588 119.895 13.553C120.221 13.0418 120.65 12.6393 121.183 12.3457C121.722 12.0574 122.315 11.8399 122.967 11.6985C123.62 11.5516 124.278 11.432 124.942 11.345C125.806 11.2363 126.508 11.1546 127.046 11.0947C127.59 11.0349 127.982 10.9317 128.232 10.7903C128.482 10.6489 128.613 10.3986 128.613 10.0506V9.97449C128.613 9.0608 128.362 8.34825 127.862 7.84245C127.367 7.33666 126.617 7.0811 125.605 7.0811C124.561 7.0811 123.745 7.30953 123.152 7.76637C122.559 8.22322 122.141 8.71267 121.901 9.23477L119.824 8.48975C120.194 7.62501 120.688 6.95051 121.308 6.47191C121.928 5.98243 122.608 5.63986 123.348 5.44951C124.088 5.25372 124.816 5.15581 125.534 5.15581C125.991 5.15581 126.519 5.21022 127.112 5.31899C127.71 5.42776 128.286 5.64529 128.841 5.97704C129.407 6.31424 129.874 6.81461 130.244 7.489C130.614 8.16339 130.799 9.06619 130.799 10.1974V19.5791H128.613V17.6483H128.498C128.352 17.9583 128.107 18.2901 127.759 18.6436C127.411 18.9971 126.954 19.2962 126.377 19.5409C125.801 19.7911 125.099 19.9109 124.273 19.9109ZM124.604 17.9475C125.469 17.9475 126.203 17.7789 126.796 17.4363C127.394 17.0991 127.846 16.6585 128.15 16.12C128.455 15.5816 128.613 15.0161 128.613 14.4232V12.4219C128.52 12.5361 128.314 12.6339 127.998 12.7263C127.688 12.8133 127.334 12.8896 126.927 12.9603C126.524 13.0201 126.127 13.0798 125.746 13.1288C125.371 13.1723 125.061 13.205 124.827 13.2377C124.262 13.3138 123.729 13.4334 123.234 13.602C122.744 13.7597 122.353 14.0045 122.048 14.3308C121.749 14.6517 121.602 15.0922 121.602 15.6469C121.602 16.4083 121.885 16.9848 122.445 17.3709C123.016 17.7571 123.734 17.9475 124.604 17.9475ZM140.985 5.34077V7.19529H133.605V5.34077H140.985ZM135.759 1.93074H137.945V15.5001C137.945 16.1201 138.032 16.5824 138.212 16.8924C138.397 17.1915 138.631 17.3981 138.919 17.5015C139.207 17.5994 139.512 17.6483 139.838 17.6483C140.077 17.6483 140.273 17.6374 140.431 17.6156C140.583 17.583 140.708 17.5559 140.801 17.5396L141.247 19.503C141.094 19.5628 140.888 19.6171 140.621 19.6715C140.36 19.7313 140.023 19.764 139.615 19.764C138.995 19.764 138.391 19.6335 137.799 19.367C137.211 19.1005 136.722 18.6979 136.33 18.1541C135.949 17.6102 135.759 16.9196 135.759 16.0929V1.93074ZM144.276 19.5791V5.34077H146.462V19.5791H144.276ZM145.391 2.96402C144.961 2.96402 144.597 2.82259 144.287 2.52891C143.982 2.24066 143.83 1.89263 143.83 1.48473C143.83 1.07684 143.982 0.728802 144.287 0.435117C144.597 0.146869 144.961 0 145.391 0C145.815 0 146.179 0.146869 146.484 0.435117C146.788 0.728802 146.946 1.07684 146.946 1.48473C146.946 1.89263 146.788 2.24066 146.484 2.52891C146.179 2.82259 145.815 2.96402 145.391 2.96402ZM156.257 19.8782C154.968 19.8782 153.842 19.5682 152.874 18.9591C151.906 18.3445 151.156 17.4906 150.612 16.392C150.074 15.2879 149.801 14.0045 149.801 12.5361C149.801 11.0513 150.074 9.75684 150.612 8.64736C151.156 7.54332 151.906 6.68402 152.874 6.06946C153.842 5.46033 154.968 5.15581 156.257 5.15581C157.541 5.15581 158.667 5.46033 159.629 6.06946C160.603 6.68402 161.353 7.54332 161.892 8.64736C162.435 9.75684 162.707 11.0513 162.707 12.5361C162.707 14.0045 162.435 15.2879 161.892 16.392C161.353 17.4906 160.603 18.3445 159.629 18.9591C158.667 19.5682 157.541 19.8782 156.257 19.8782ZM156.257 17.9094C157.231 17.9094 158.036 17.6592 158.667 17.1589C159.297 16.6585 159.765 16.0004 160.064 15.1846C160.369 14.3688 160.521 13.4878 160.521 12.5361C160.521 11.5843 160.369 10.6923 160.064 9.87105C159.765 9.04982 159.297 8.38635 158.667 7.88056C158.036 7.37477 157.231 7.11921 156.257 7.11921C155.278 7.11921 154.473 7.37477 153.848 7.88056C153.217 8.38635 152.749 9.04982 152.445 9.87105C152.14 10.6923 151.993 11.5843 151.993 12.5361C151.993 13.4878 152.14 14.3688 152.445 15.1846C152.749 16.0004 153.217 16.6585 153.848 17.1589C154.473 17.6592 155.278 17.9094 156.257 17.9094ZM168.233 11.0132V19.5791H166.047V5.34077H168.162V7.56508H168.347C168.679 6.84174 169.185 6.25983 169.865 5.8193C170.544 5.37877 171.425 5.15581 172.497 5.15581C173.465 5.15581 174.308 5.35164 175.031 5.74866C175.755 6.13481 176.315 6.73307 176.717 7.52711C177.12 8.32114 177.321 9.32186 177.321 10.5292V19.5791H175.135V10.6814C175.135 9.56104 174.841 8.69097 174.259 8.06552C173.683 7.43464 172.883 7.11921 171.871 7.11921C171.17 7.11921 170.544 7.2714 169.995 7.57597C169.451 7.87509 169.022 8.32115 168.706 8.89765C168.391 9.47958 168.233 10.1865 168.233 11.0132Z" fill="url(#paint0_linear_676_4065)"/>
<defs>
<linearGradient id="paint0_linear_676_4065" x1="-0.66895" y1="-1.93072" x2="129.467" y2="64.8881" gradientUnits="userSpaceOnUse">
<stop stop-color="white"/>
<stop offset="0.541667" stop-color="#DCD4FF"/>
<stop offset="0.65625" stop-color="#E2CBFF"/>
<stop offset="0.786458" stop-color="#98BAFF"/>
</linearGradient>
</defs>
</svg>
