<svg width="85" height="21" viewBox="0 0 85 21" fill="none" xmlns="http://www.w3.org/2000/svg">
<g opacity="0.2">
<path d="M30.0541 7.11914H28.678L31.1851 0H32.7734L35.2859 7.11914H33.91L32.0065 1.45751H31.952L30.0541 7.11914ZM30.0974 4.32912H33.8502V5.36248H30.0974V4.32912ZM36.167 7.11914V1.77844H37.3854V2.67032H37.4451C37.543 2.36032 37.7061 2.12105 37.9454 1.95789C38.1847 1.78929 38.4566 1.70229 38.7612 1.70229C38.8319 1.70229 38.9081 1.70774 38.9952 1.71318C39.0822 1.71862 39.1528 1.72402 39.2127 1.74033V2.89332C39.1583 2.877 39.0766 2.86071 38.9569 2.84439C38.8427 2.82807 38.7342 2.82261 38.6308 2.82261C38.397 2.82261 38.1902 2.87157 38.0107 2.96947C37.8313 3.06736 37.6844 3.20333 37.5811 3.37737C37.4777 3.5514 37.4233 3.75262 37.4233 3.98104V7.11914H36.167ZM40.1047 7.11914V0H41.361V2.66494H41.4152C41.4805 2.53441 41.5729 2.393 41.6871 2.24615C41.8068 2.09931 41.97 1.97419 42.1712 1.87086C42.3725 1.76208 42.628 1.70774 42.9435 1.70774C43.3514 1.70774 43.7268 1.81649 44.0586 2.0286C44.3903 2.23526 44.6566 2.54524 44.847 2.95314C45.0482 3.36103 45.1463 3.86139 45.1463 4.4542C45.1463 5.04157 45.0482 5.54193 44.8579 5.94982C44.6621 6.36316 44.4012 6.67315 44.0694 6.8907C43.7377 7.1028 43.3623 7.21162 42.9435 7.21162C42.6389 7.21162 42.3834 7.16266 42.1821 7.05932C41.9809 6.95599 41.8177 6.83631 41.698 6.68947C41.5784 6.54806 41.4805 6.40666 41.4152 6.27613H41.3392V7.11914H40.1047ZM41.3392 4.44876C41.3392 4.79683 41.3882 5.09598 41.4861 5.35703C41.584 5.61809 41.7253 5.81931 41.9102 5.96616C42.1005 6.10756 42.3291 6.17827 42.5956 6.17827C42.873 6.17827 43.1067 6.10755 43.2916 5.96071C43.482 5.80843 43.6233 5.60175 43.7157 5.3407C43.8136 5.07965 43.8626 4.78051 43.8626 4.44876C43.8626 4.117 43.8138 3.82332 43.7213 3.5677C43.6234 3.30665 43.4819 3.10543 43.2969 2.96402C43.1066 2.81718 42.873 2.74102 42.5956 2.74102C42.3237 2.74102 42.0951 2.81173 41.9102 2.95314C41.7198 3.09454 41.5784 3.29576 41.4805 3.55137C41.3881 3.80155 41.3392 4.10612 41.3392 4.44876ZM48.5454 7.22244C48.0233 7.22244 47.5719 7.1083 47.1858 6.87987C46.8051 6.65145 46.5112 6.33056 46.2991 5.91723C46.087 5.50389 45.9839 5.01983 45.9839 4.47053C45.9839 3.92123 46.087 3.43717 46.2991 3.0184C46.5112 2.60506 46.8051 2.28417 47.1858 2.05575C47.5719 1.82189 48.0233 1.70774 48.5454 1.70774C49.0675 1.70774 49.5188 1.82189 49.8995 2.05575C50.2802 2.28417 50.5793 2.60506 50.7859 3.0184C50.998 3.43717 51.1014 3.92123 51.1014 4.47053C51.1014 5.01983 50.998 5.50389 50.7859 5.91723C50.5793 6.33056 50.2802 6.65145 49.8995 6.87987C49.5188 7.1083 49.0675 7.22244 48.5454 7.22244ZM48.5507 6.21631C48.8335 6.21631 49.0676 6.14021 49.2579 5.98249C49.4483 5.82477 49.5896 5.61264 49.682 5.35159C49.7799 5.0851 49.8289 4.79141 49.8289 4.46509C49.8289 4.13877 49.7799 3.84508 49.682 3.57859C49.5896 3.3121 49.4483 3.09997 49.2579 2.94225C49.0676 2.78453 48.8335 2.70842 48.5507 2.70842C48.2625 2.70842 48.0177 2.78453 47.8274 2.94225C47.637 3.09997 47.4956 3.3121 47.3977 3.57859C47.3052 3.84508 47.2617 4.13877 47.2617 4.46509C47.2617 4.79141 47.3052 5.0851 47.3977 5.35159C47.4956 5.61264 47.637 5.82477 47.8274 5.98249C48.0177 6.14021 48.2625 6.21631 48.5507 6.21631ZM52.1729 7.11914V1.77844H53.3911V2.67032H53.4455C53.5434 2.36032 53.7119 2.12105 53.9458 1.95789C54.1851 1.78929 54.457 1.70229 54.7616 1.70229C54.8323 1.70229 54.914 1.70774 54.9956 1.71318C55.0826 1.71862 55.1588 1.72402 55.2186 1.74033V2.89332C55.1642 2.877 55.0771 2.86071 54.9629 2.84439C54.8487 2.82807 54.74 2.82261 54.6312 2.82261C54.4028 2.82261 54.1961 2.87157 54.0111 2.96947C53.8317 3.06736 53.6904 3.20333 53.587 3.37737C53.4837 3.5514 53.4293 3.75262 53.4293 3.98104V7.11914H52.1729Z" fill="black"/>
<path d="M0 19.0841V13.5475H3.3447V14.1404H0.66894V16.0113H3.17076V16.6095H0.66894V18.4913H3.38294V19.0841H0ZM5.68878 19.182C5.42229 19.182 5.18308 19.1331 4.97098 19.0352C4.75343 18.9318 4.58487 18.785 4.45978 18.6C4.33469 18.4043 4.26937 18.1758 4.26937 17.9039C4.26937 17.6646 4.31819 17.4743 4.41065 17.3274C4.50311 17.1751 4.62843 17.0609 4.78615 16.9739C4.94387 16.8923 5.11775 16.8271 5.30266 16.7836C5.49845 16.7401 5.68883 16.7074 5.87919 16.6856C6.1348 16.653 6.33597 16.6258 6.49369 16.6095C6.65141 16.5932 6.77113 16.5606 6.84183 16.5225C6.91254 16.479 6.95071 16.4083 6.95071 16.305V16.2832C6.95071 16.0167 6.8798 15.81 6.73295 15.6632C6.58611 15.5109 6.36859 15.4402 6.0749 15.4402C5.77034 15.4402 5.53114 15.5055 5.3571 15.6415C5.1885 15.772 5.06346 15.9133 4.99275 16.0656L4.38914 15.8481C4.49791 15.598 4.63907 15.4021 4.81855 15.2607C5.00346 15.1193 5.1993 15.0215 5.41685 14.9616C5.63439 14.9073 5.84646 14.8746 6.05313 14.8746C6.18909 14.8746 6.34143 14.8909 6.51546 14.9235C6.6895 14.9562 6.85819 15.0214 7.02135 15.1193C7.18451 15.2172 7.32047 15.3641 7.42925 15.5599C7.53802 15.7557 7.5923 16.0167 7.5923 16.3484V19.0841H6.95071V18.5239H6.91805C6.87454 18.6109 6.80376 18.7088 6.70587 18.8122C6.60253 18.9155 6.46657 19.0025 6.29797 19.0732C6.13481 19.1439 5.92808 19.182 5.68878 19.182ZM5.78119 18.6055C6.03681 18.6055 6.24901 18.5565 6.42305 18.4586C6.59708 18.3607 6.72773 18.2302 6.81475 18.078C6.9072 17.9202 6.95071 17.7516 6.95071 17.583V16.9957C6.92352 17.0283 6.86365 17.0609 6.77119 17.0881C6.68418 17.1098 6.58067 17.1316 6.46102 17.1534C6.34137 17.1697 6.22723 17.186 6.11845 17.2023C6.00424 17.2132 5.91722 17.2241 5.84652 17.2349C5.68336 17.2567 5.52559 17.2894 5.38419 17.3383C5.24278 17.3873 5.12332 17.4579 5.0363 17.5558C4.94929 17.6483 4.90565 17.7734 4.90565 17.9365C4.90565 18.1595 4.98721 18.3281 5.15581 18.4423C5.31896 18.5511 5.53102 18.6055 5.78119 18.6055ZM11.6986 15.859L11.1221 16.0221C11.0895 15.9297 11.0351 15.8372 10.9644 15.7448C10.8937 15.6523 10.8012 15.5761 10.6815 15.5163C10.5619 15.4565 10.4097 15.4294 10.2248 15.4294C9.96916 15.4294 9.75683 15.4891 9.58823 15.6034C9.42507 15.7176 9.33808 15.8644 9.33808 16.0439C9.33808 16.2016 9.39807 16.3267 9.51228 16.4192C9.62649 16.5116 9.80583 16.5878 10.0506 16.653L10.6706 16.7999C11.0405 16.8924 11.3179 17.0283 11.4973 17.2132C11.6822 17.3981 11.7746 17.6374 11.7746 17.9257C11.7746 18.165 11.7039 18.3771 11.568 18.5674C11.432 18.7524 11.2418 18.8992 10.997 19.0079C10.7577 19.1167 10.4749 19.1711 10.1486 19.1711C9.72435 19.1711 9.37618 19.0787 9.09881 18.8938C8.82144 18.7088 8.64755 18.4424 8.57141 18.0888L9.17502 17.9365C9.23485 18.1595 9.34367 18.3281 9.5014 18.4423C9.66455 18.5511 9.87662 18.6055 10.1377 18.6055C10.4368 18.6055 10.6707 18.5457 10.8502 18.4206C11.0242 18.2901 11.1112 18.1378 11.1112 17.9583C11.1112 17.8169 11.0621 17.6918 10.9588 17.5994C10.8609 17.496 10.7034 17.4253 10.4967 17.3764L9.80599 17.2132C9.42529 17.1208 9.14246 16.9848 8.96842 16.7945C8.78895 16.6041 8.7018 16.3648 8.7018 16.0765C8.7018 15.8427 8.76699 15.636 8.89752 15.4565C9.03348 15.277 9.21296 15.1357 9.44138 15.0323C9.6698 14.929 9.93109 14.8746 10.2248 14.8746C10.6381 14.8746 10.9589 14.9671 11.1927 15.1465C11.432 15.326 11.5953 15.5653 11.6986 15.859ZM13.1451 20.6395C13.0363 20.6395 12.9386 20.6341 12.857 20.6124C12.77 20.5961 12.7101 20.5797 12.6775 20.5634L12.8405 20.0032C12.9982 20.0413 13.1343 20.0576 13.254 20.0467C13.3682 20.0359 13.477 19.9815 13.5695 19.889C13.6619 19.7911 13.7488 19.6388 13.8249 19.4322L13.9447 19.1059L12.4111 14.929H13.1016L14.2493 18.2411H14.2929L15.4348 14.929H16.131L14.3635 19.6878C14.2874 19.9053 14.1894 20.0793 14.0698 20.2207C13.9556 20.3622 13.8196 20.471 13.6619 20.5362C13.5096 20.6069 13.3355 20.6395 13.1451 20.6395ZM18.4969 20.7266C18.1923 20.7266 17.9259 20.6885 17.7029 20.6069C17.4799 20.5308 17.295 20.4274 17.1481 20.3023C17.0013 20.1772 16.887 20.0413 16.8 19.8944L17.3112 19.5409C17.3656 19.6116 17.4417 19.6987 17.5287 19.7966C17.6157 19.8945 17.7354 19.9815 17.8877 20.0522C18.0454 20.1283 18.2467 20.1664 18.4969 20.1664C18.8341 20.1664 19.1114 20.0848 19.3289 19.9217C19.5464 19.7585 19.6553 19.5083 19.6553 19.1602V18.3172H19.6008C19.5573 18.3934 19.4866 18.4858 19.3995 18.6C19.318 18.7088 19.1929 18.8067 19.0352 18.8938C18.8775 18.9753 18.66 19.0188 18.388 19.0188C18.0563 19.0188 17.7516 18.9372 17.4851 18.7795C17.2241 18.6218 17.012 18.3934 16.8597 18.0888C16.702 17.7843 16.626 17.4199 16.626 16.9848C16.626 16.5606 16.7021 16.1907 16.8544 15.8753C17.0013 15.5598 17.2077 15.3097 17.4742 15.1411C17.7407 14.9616 18.0508 14.8746 18.3989 14.8746C18.6708 14.8746 18.8884 14.9235 19.0461 15.0106C19.2038 15.103 19.3288 15.2009 19.4104 15.3151C19.4974 15.4293 19.5682 15.5163 19.6117 15.5925H19.677V14.929H20.2915V19.2037C20.2915 19.5627 20.2154 19.8509 20.0523 20.0739C19.8891 20.2969 19.6715 20.4655 19.3995 20.5688C19.133 20.6722 18.8287 20.7266 18.4969 20.7266ZM18.4751 18.4477C18.7307 18.4477 18.9481 18.3879 19.1276 18.2683C19.3016 18.1541 19.4377 17.9855 19.5302 17.7625C19.6226 17.5449 19.6662 17.2839 19.6662 16.9739C19.6662 16.6748 19.6226 16.4138 19.5302 16.1853C19.4432 15.9515 19.3072 15.772 19.1332 15.6469C18.9537 15.5164 18.7362 15.4511 18.4751 15.4511C18.2086 15.4511 17.9801 15.5163 17.8006 15.6577C17.6211 15.7937 17.4907 15.9786 17.3983 16.207C17.3113 16.4355 17.2676 16.6965 17.2676 16.9739C17.2676 17.2621 17.3111 17.5178 17.4036 17.7408C17.4906 17.9583 17.6267 18.1323 17.8062 18.2574C17.9857 18.3825 18.2086 18.4477 18.4751 18.4477ZM23.1468 19.1711C22.777 19.1711 22.4452 19.0841 22.1624 18.9046C21.8796 18.7252 21.6621 18.475 21.5043 18.1541C21.3466 17.8332 21.2651 17.4579 21.2651 17.0283C21.2651 16.5986 21.3466 16.2179 21.5043 15.8971C21.6621 15.5762 21.8796 15.3206 22.1624 15.1465C22.4452 14.9671 22.777 14.8746 23.1468 14.8746C23.5221 14.8746 23.8539 14.9671 24.1312 15.1465C24.4141 15.3206 24.6369 15.5762 24.7946 15.8971C24.9523 16.2179 25.0286 16.5986 25.0286 17.0283C25.0286 17.4579 24.9523 17.8332 24.7946 18.1541C24.6369 18.475 24.4141 18.7252 24.1312 18.9046C23.8539 19.0841 23.5221 19.1711 23.1468 19.1711ZM23.1468 18.6C23.4351 18.6 23.6688 18.5239 23.8537 18.377C24.0386 18.2302 24.1746 18.0399 24.2616 17.8006C24.3486 17.5667 24.3923 17.3056 24.3923 17.0283C24.3923 16.7509 24.3486 16.4953 24.2616 16.2506C24.1746 16.0113 24.0386 15.8209 23.8537 15.6741C23.6688 15.5218 23.4351 15.4511 23.1468 15.4511C22.864 15.4511 22.6301 15.5218 22.4452 15.6741C22.2603 15.8209 22.1243 16.0113 22.0373 16.2506C21.9503 16.4953 21.9069 16.7509 21.9069 17.0283C21.9069 17.3056 21.9503 17.5667 22.0373 17.8006C22.1243 18.0399 22.2603 18.2302 22.4452 18.377C22.6301 18.5239 22.864 18.6 23.1468 18.6ZM26.0077 19.0841V14.929H26.644V19.0841H26.0077ZM26.3285 14.2383C26.2034 14.2383 26.1001 14.1948 26.0077 14.1132C25.9207 14.0262 25.877 13.9229 25.877 13.8087C25.877 13.689 25.9207 13.5856 26.0077 13.4986C26.1001 13.417 26.2034 13.3735 26.3285 13.3735C26.4536 13.3735 26.5622 13.417 26.6493 13.4986C26.7363 13.5856 26.7852 13.689 26.7852 13.8087C26.7852 13.9229 26.7363 14.0262 26.6493 14.1132C26.5622 14.1948 26.4536 14.2383 26.3285 14.2383ZM28.4495 16.5878V19.0841H27.8132V14.929H28.4277V15.5816H28.4821C28.58 15.3695 28.7268 15.2009 28.928 15.0704C29.1238 14.9399 29.3795 14.8746 29.6949 14.8746C29.9778 14.8746 30.2224 14.9344 30.4345 15.0486C30.6412 15.1628 30.8097 15.3369 30.9239 15.5708C31.0436 15.7992 31.0982 16.0929 31.0982 16.4464V19.0841H30.4619V16.4899C30.4619 16.1635 30.3747 15.9079 30.2061 15.7284C30.0375 15.5435 29.8038 15.4511 29.5101 15.4511C29.3089 15.4511 29.124 15.4946 28.9663 15.5816C28.8031 15.6687 28.678 15.7992 28.591 15.9678C28.4986 16.1364 28.4495 16.343 28.4495 16.5878ZM33.9425 20.7266C33.6325 20.7266 33.3715 20.6885 33.1485 20.6069C32.9255 20.5308 32.7406 20.4274 32.5938 20.3023C32.4469 20.1772 32.3326 20.0413 32.2456 19.8944L32.7515 19.5409C32.8113 19.6116 32.8819 19.6987 32.9743 19.7966C33.0613 19.8945 33.1811 19.9815 33.3334 20.0522C33.4911 20.1283 33.6924 20.1664 33.9425 20.1664C34.2797 20.1664 34.557 20.0848 34.7745 19.9217C34.9921 19.7585 35.1009 19.5083 35.1009 19.1602V18.3172H35.0465C34.9975 18.3934 34.9325 18.4858 34.8454 18.6C34.7584 18.7088 34.6387 18.8067 34.4755 18.8938C34.3178 18.9753 34.1056 19.0188 33.8337 19.0188C33.4965 19.0188 33.1975 18.9372 32.931 18.7795C32.6645 18.6218 32.4578 18.3934 32.3001 18.0888C32.1478 17.7843 32.0717 17.4199 32.0717 16.9848C32.0717 16.5606 32.1477 16.1907 32.2945 15.8753C32.4468 15.5598 32.6537 15.3097 32.9201 15.1411C33.1866 14.9616 33.4965 14.8746 33.8446 14.8746C34.1165 14.8746 34.3287 14.9235 34.4864 15.0106C34.6496 15.103 34.769 15.2009 34.8561 15.3151C34.9431 15.4293 35.0084 15.5163 35.0574 15.5925H35.1227V14.929H35.7372V19.2037C35.7372 19.5627 35.6558 19.8509 35.4926 20.0739C35.3349 20.2969 35.1174 20.4655 34.8454 20.5688C34.5735 20.6722 34.2743 20.7266 33.9425 20.7266ZM33.9208 18.4477C34.1764 18.4477 34.3939 18.3879 34.5679 18.2683C34.7474 18.1541 34.8835 17.9855 34.9705 17.7625C35.063 17.5449 35.1118 17.2839 35.1118 16.9739C35.1118 16.6748 35.0628 16.4138 34.9758 16.1853C34.8834 15.9515 34.753 15.772 34.5735 15.6469C34.3995 15.5164 34.1818 15.4511 33.9208 15.4511C33.6488 15.4511 33.4257 15.5163 33.2463 15.6577C33.0668 15.7937 32.931 15.9786 32.8439 16.207C32.7515 16.4355 32.708 16.6965 32.708 16.9739C32.708 17.2621 32.7569 17.5178 32.8439 17.7408C32.9364 17.9583 33.0724 18.1323 33.2518 18.2574C33.4313 18.3825 33.6543 18.4477 33.9208 18.4477ZM40.2676 19.182C40.0065 19.182 39.7672 19.1331 39.5551 19.0352C39.3376 18.9318 39.169 18.785 39.0439 18.6C38.9134 18.4043 38.8535 18.1758 38.8535 17.9039C38.8535 17.6646 38.8972 17.4743 38.995 17.3274C39.0875 17.1751 39.2126 17.0609 39.3703 16.9739C39.528 16.8923 39.6964 16.8271 39.8868 16.7836C40.0771 16.7401 40.273 16.7074 40.4633 16.6856C40.7189 16.653 40.9204 16.6258 41.0781 16.6095C41.2358 16.5932 41.3498 16.5606 41.426 16.5225C41.4967 16.479 41.5348 16.4083 41.5348 16.305V16.2832C41.5348 16.0167 41.4642 15.81 41.3174 15.6632C41.1705 15.5109 40.953 15.4402 40.6593 15.4402C40.3547 15.4402 40.1153 15.5055 39.9412 15.6415C39.7672 15.772 39.6476 15.9133 39.5769 16.0656L38.9733 15.8481C39.082 15.598 39.2235 15.4021 39.4029 15.2607C39.5879 15.1193 39.7837 15.0215 40.0012 14.9616C40.2134 14.9073 40.4309 14.8746 40.6375 14.8746C40.7735 14.8746 40.9257 14.8909 41.0943 14.9235C41.2738 14.9562 41.4425 15.0214 41.6002 15.1193C41.7688 15.2172 41.9046 15.3641 42.0134 15.5599C42.1167 15.7557 42.1711 16.0167 42.1711 16.3484V19.0841H41.5348V18.5239H41.5022C41.4587 18.6109 41.388 18.7088 41.2847 18.8122C41.1868 18.9155 41.0507 19.0025 40.8821 19.0732C40.7135 19.1439 40.5123 19.182 40.2676 19.182ZM40.3656 18.6055C40.6212 18.6055 40.8331 18.5565 41.0072 18.4586C41.1812 18.3607 41.3119 18.2302 41.3989 18.078C41.4913 17.9202 41.5348 17.7516 41.5348 17.583V16.9957C41.5077 17.0283 41.4478 17.0609 41.3553 17.0881C41.2683 17.1098 41.1596 17.1316 41.0454 17.1534C40.9258 17.1697 40.8115 17.186 40.6973 17.2023C40.5885 17.2132 40.5014 17.2241 40.4307 17.2349C40.2675 17.2567 40.11 17.2894 39.9686 17.3383C39.8217 17.3873 39.7075 17.4579 39.6204 17.5558C39.5334 17.6483 39.4898 17.7734 39.4898 17.9365C39.4898 18.1595 39.5715 18.3281 39.7346 18.4423C39.9032 18.5511 40.1154 18.6055 40.3656 18.6055ZM43.9767 16.5878V19.0841H43.3404V14.929H43.9551V15.5816H44.0093C44.1072 15.3695 44.2541 15.2009 44.4499 15.0704C44.6511 14.9399 44.9067 14.8746 45.2221 14.8746C45.4995 14.8746 45.7443 14.9344 45.9564 15.0486C46.1685 15.1628 46.3317 15.3369 46.4514 15.5708C46.5656 15.7992 46.6253 16.0929 46.6253 16.4464V19.0841H45.989V16.4899C45.989 16.1635 45.9019 15.9079 45.7333 15.7284C45.5647 15.5435 45.331 15.4511 45.0373 15.4511C44.8306 15.4511 44.6513 15.4946 44.4881 15.5816C44.3304 15.6687 44.2051 15.7992 44.1126 15.9678C44.0202 16.1364 43.9767 16.343 43.9767 16.5878ZM49.3611 19.1711C49.013 19.1711 48.7085 19.0841 48.442 18.9101C48.181 18.7306 47.9688 18.4804 47.8219 18.1596C47.6696 17.8387 47.5989 17.4579 47.5989 17.0174C47.5989 16.5823 47.6696 16.2016 47.8219 15.8807C47.9688 15.5599 48.1808 15.3151 48.4473 15.1411C48.7138 14.9616 49.0185 14.8746 49.372 14.8746C49.6439 14.8746 49.8559 14.9235 50.0136 15.0106C50.1713 15.103 50.291 15.2009 50.3726 15.3151C50.4596 15.4293 50.525 15.5163 50.5739 15.5925H50.6228V13.5475H51.2646V19.0841H50.6445V18.4477H50.5739C50.525 18.5239 50.4596 18.6164 50.3726 18.7306C50.2856 18.8448 50.1604 18.9481 50.0027 19.0406C49.8395 19.1276 49.6276 19.1711 49.3611 19.1711ZM49.4479 18.6C49.7036 18.6 49.9211 18.5293 50.0951 18.3988C50.2746 18.2629 50.4052 18.0779 50.4977 17.8386C50.5901 17.5993 50.6337 17.322 50.6337 17.0066C50.6337 16.6966 50.59 16.4246 50.503 16.1961C50.4105 15.9569 50.2802 15.7774 50.1007 15.6469C49.9266 15.5164 49.7036 15.4511 49.4479 15.4511C49.176 15.4511 48.953 15.5218 48.7681 15.6577C48.5941 15.7937 48.4582 15.9841 48.3658 16.2179C48.2788 16.4518 48.2351 16.7129 48.2351 17.0066C48.2351 17.3057 48.2786 17.5722 48.3711 17.8115C48.4636 18.0508 48.5997 18.2465 48.7737 18.3879C48.9586 18.5293 49.1814 18.6 49.4479 18.6ZM58.0573 14.929L56.5237 19.0841H55.871L54.3374 14.929H55.0281L56.1756 18.2411H56.2191L57.3666 14.929H58.0573ZM60.4938 19.1711C60.0914 19.1711 59.7489 19.0841 59.4552 18.9046C59.167 18.7252 58.9439 18.4804 58.7916 18.1596C58.6339 17.8387 58.5576 17.4634 58.5576 17.0392C58.5576 16.615 58.6339 16.2397 58.7916 15.9134C58.9439 15.5871 59.167 15.3369 59.4443 15.152C59.7271 14.9671 60.0532 14.8746 60.4285 14.8746C60.646 14.8746 60.8582 14.9126 61.0703 14.9833C61.2825 15.0595 61.4728 15.1737 61.6469 15.3369C61.8155 15.4946 61.9567 15.7122 62.0601 15.9732C62.1634 16.2397 62.2125 16.566 62.2125 16.9521V17.2241H59.0091V16.6748H61.5653C61.5653 16.4355 61.5163 16.2288 61.4238 16.0439C61.3313 15.859 61.2008 15.7176 61.0268 15.6088C60.8582 15.5055 60.6569 15.4511 60.4285 15.4511C60.1729 15.4511 59.9554 15.5109 59.7704 15.6415C59.5855 15.7611 59.4442 15.9243 59.3463 16.1255C59.243 16.3267 59.1939 16.5388 59.1939 16.7672V17.1371C59.1939 17.4525 59.2485 17.719 59.3572 17.9365C59.466 18.1487 59.6182 18.3173 59.814 18.4315C60.0098 18.5403 60.2328 18.6 60.4938 18.6C60.6624 18.6 60.8147 18.5729 60.9453 18.5293C61.0867 18.4804 61.201 18.4042 61.3043 18.3118C61.4022 18.2139 61.4783 18.0943 61.5327 17.9474L62.1472 18.1214C62.0819 18.3281 61.9731 18.513 61.8208 18.6708C61.6685 18.8285 61.4782 18.9536 61.2552 19.0406C61.0267 19.1276 60.7766 19.1711 60.4938 19.1711ZM63.186 19.0841V14.929H63.8005V15.5599H63.8441C63.9202 15.3532 64.0562 15.1846 64.252 15.0595C64.4532 14.929 64.6761 14.8637 64.9262 14.8637C64.9697 14.8637 65.0297 14.8692 65.1004 14.8692C65.1712 14.8692 65.2256 14.8746 65.2582 14.8746V15.5272C65.2364 15.5218 65.1875 15.5109 65.1113 15.5001C65.0352 15.4892 64.9537 15.4837 64.8721 15.4837C64.6708 15.4837 64.4859 15.5272 64.3282 15.6088C64.1705 15.6904 64.0507 15.81 63.9583 15.9569C63.8658 16.1037 63.8223 16.2669 63.8223 16.4573V19.0841H63.186ZM68.9564 15.859L68.3854 16.0221C68.3473 15.9297 68.2984 15.8372 68.2277 15.7448C68.157 15.6523 68.0645 15.5761 67.9448 15.5163C67.8252 15.4565 67.6727 15.4294 67.4878 15.4294C67.2322 15.4294 67.0201 15.4891 66.8515 15.6034C66.6829 15.7176 66.6014 15.8644 66.6014 16.0439C66.6014 16.2016 66.6559 16.3267 66.7756 16.4192C66.8898 16.5116 67.0691 16.5878 67.3139 16.653L67.9284 16.7999C68.3036 16.8924 68.5812 17.0283 68.7606 17.2132C68.9455 17.3981 69.0326 17.6374 69.0326 17.9257C69.0326 18.165 68.9674 18.3771 68.826 18.5674C68.6954 18.7524 68.5051 18.8992 68.2603 19.0079C68.0156 19.1167 67.7327 19.1711 67.4119 19.1711C66.9877 19.1711 66.6395 19.0787 66.3621 18.8938C66.0847 18.7088 65.9054 18.4424 65.8347 18.0888L66.4383 17.9365C66.4982 18.1595 66.607 18.3281 66.7647 18.4423C66.9279 18.5511 67.1399 18.6055 67.401 18.6055C67.7001 18.6055 67.9339 18.5457 68.1079 18.4206C68.2874 18.2901 68.3745 18.1378 68.3745 17.9583C68.3745 17.8169 68.3254 17.6918 68.2221 17.5994C68.1242 17.496 67.9664 17.4253 67.7598 17.3764L67.0637 17.2132C66.683 17.1208 66.4056 16.9848 66.2262 16.7945C66.0521 16.6041 65.9598 16.3648 65.9598 16.0765C65.9598 15.8427 66.0303 15.636 66.1608 15.4565C66.2914 15.277 66.4763 15.1357 66.7047 15.0323C66.9331 14.929 67.1941 14.8746 67.4878 14.8746C67.8957 14.8746 68.2222 14.9671 68.456 15.1465C68.6899 15.326 68.8585 15.5653 68.9564 15.859ZM71.2189 19.182C70.9524 19.182 70.7129 19.1331 70.5008 19.0352C70.2833 18.9318 70.1147 18.785 69.9896 18.6C69.8645 18.4043 69.7992 18.1758 69.7992 17.9039C69.7992 17.6646 69.8483 17.4743 69.9408 17.3274C70.0332 17.1751 70.1583 17.0609 70.316 16.9739C70.4737 16.8923 70.6479 16.8271 70.8328 16.7836C71.0286 16.7401 71.219 16.7074 71.4093 16.6856C71.6649 16.653 71.8661 16.6258 72.0238 16.6095C72.1815 16.5932 72.3013 16.5606 72.372 16.5225C72.4427 16.479 72.4806 16.4083 72.4806 16.305V16.2832C72.4806 16.0167 72.4099 15.81 72.2631 15.6632C72.1162 15.5109 71.8987 15.4402 71.605 15.4402C71.3005 15.4402 71.061 15.5055 70.887 15.6415C70.7184 15.772 70.5933 15.9133 70.5226 16.0656L69.919 15.8481C70.0278 15.598 70.1691 15.4021 70.354 15.2607C70.5335 15.1193 70.7294 15.0215 70.947 14.9616C71.1645 14.9073 71.3766 14.8746 71.5833 14.8746C71.7192 14.8746 71.8716 14.8909 72.0456 14.9235C72.2196 14.9562 72.388 15.0214 72.5512 15.1193C72.7144 15.2172 72.8503 15.3641 72.9591 15.5599C73.0679 15.7557 73.1224 16.0167 73.1224 16.3484V19.0841H72.4806V18.5239H72.4479C72.4044 18.6109 72.3339 18.7088 72.236 18.8122C72.1327 18.9155 71.9967 19.0025 71.8281 19.0732C71.6649 19.1439 71.4582 19.182 71.2189 19.182ZM71.3113 18.6055C71.5669 18.6055 71.7791 18.5565 71.9532 18.4586C72.1272 18.3607 72.2576 18.2302 72.3446 18.078C72.4371 17.9202 72.4806 17.7516 72.4806 17.583V16.9957C72.4534 17.0283 72.3935 17.0609 72.301 17.0881C72.214 17.1098 72.1108 17.1316 71.9911 17.1534C71.8715 17.1697 71.7573 17.186 71.6486 17.2023C71.5344 17.2132 71.4473 17.2241 71.3766 17.2349C71.2135 17.2567 71.0557 17.2894 70.9143 17.3383C70.7729 17.3873 70.6586 17.4579 70.5662 17.5558C70.4791 17.6483 70.4358 17.7734 70.4358 17.9365C70.4358 18.1595 70.5173 18.3281 70.6859 18.4423C70.8491 18.5511 71.0611 18.6055 71.3113 18.6055ZM76.0919 14.929V15.4728H73.9382V14.929H76.0919ZM74.5636 13.9337H75.2055V17.8931C75.2055 18.0725 75.2325 18.2085 75.2814 18.301C75.3358 18.388 75.4067 18.4478 75.4883 18.4804C75.5753 18.5076 75.6622 18.5239 75.7546 18.5239C75.8253 18.5239 75.8851 18.5184 75.9286 18.513C75.9721 18.5021 76.0103 18.4967 76.0375 18.4913L76.1681 19.0623C76.1246 19.0786 76.0646 19.095 75.983 19.1113C75.9069 19.1276 75.809 19.1385 75.6893 19.1385C75.5098 19.1385 75.3359 19.1004 75.1619 19.0243C74.9879 18.9427 74.8464 18.8285 74.7322 18.6653C74.6235 18.5076 74.5636 18.3064 74.5636 18.0671V13.9337ZM77.049 19.0841V14.929H77.6908V19.0841H77.049ZM77.3753 14.2383C77.2502 14.2383 77.1416 14.1948 77.0545 14.1132C76.9675 14.0262 76.9186 13.9229 76.9186 13.8087C76.9186 13.689 76.9675 13.5856 77.0545 13.4986C77.1416 13.417 77.2502 13.3735 77.3753 13.3735C77.5004 13.3735 77.6037 13.417 77.6961 13.4986C77.7831 13.5856 77.8321 13.689 77.8321 13.8087C77.8321 13.9229 77.7831 14.0262 77.6961 14.1132C77.6037 14.1948 77.5004 14.2383 77.3753 14.2383ZM79.4963 13.5475V19.0841H78.8601V13.5475H79.4963ZM82.4061 19.1711C82.0036 19.1711 81.661 19.0841 81.3728 18.9046C81.0845 18.7252 80.8616 18.4804 80.7038 18.1596C80.5461 17.8387 80.4699 17.4634 80.4699 17.0392C80.4699 16.615 80.5461 16.2397 80.7038 15.9134C80.8616 15.5871 81.0789 15.3369 81.3563 15.152C81.6391 14.9671 81.9655 14.8746 82.3407 14.8746C82.5583 14.8746 82.7705 14.9126 82.9826 14.9833C83.1947 15.0595 83.3851 15.1737 83.5591 15.3369C83.7331 15.4946 83.869 15.7122 83.9723 15.9732C84.0757 16.2397 84.1247 16.566 84.1247 16.9521V17.2241H80.9269V16.6748H83.4776C83.4776 16.4355 83.4285 16.2288 83.336 16.0439C83.2436 15.859 83.1131 15.7176 82.939 15.6088C82.7704 15.5055 82.5692 15.4511 82.3407 15.4511C82.0851 15.4511 81.8676 15.5109 81.6827 15.6415C81.4978 15.7611 81.3565 15.9243 81.2586 16.1255C81.1553 16.3267 81.1062 16.5388 81.1062 16.7672V17.1371C81.1062 17.4525 81.1607 17.719 81.2695 17.9365C81.3782 18.1487 81.5304 18.3173 81.7262 18.4315C81.922 18.5403 82.1504 18.6 82.4061 18.6C82.5747 18.6 82.727 18.5729 82.8575 18.5293C82.9989 18.4804 83.1132 18.4042 83.2165 18.3118C83.3144 18.2139 83.3905 18.0943 83.4449 17.9474L84.0594 18.1214C83.9942 18.3281 83.8853 18.513 83.7331 18.6708C83.5808 18.8285 83.3904 18.9536 83.1674 19.0406C82.939 19.1276 82.6889 19.1711 82.4061 19.1711Z" fill="black"/>
</g>
</svg>
