<svg width="137" height="8" viewBox="0 0 137 8" fill="none" xmlns="http://www.w3.org/2000/svg">
<path d="M0.701604 5.71056H0L2.03364 0.174073H2.72462L4.7588 5.71056H4.05719L2.39799 1.04962H2.35497L0.701604 5.71056ZM0.962382 3.54599H3.79588V4.1443H0.962382V3.54599ZM8.31568 0.174073V5.71056H7.67356V0.174073H8.31568ZM11.171 5.79753C10.7957 5.79753 10.4638 5.71051 10.181 5.53104C9.90359 5.35156 9.68062 5.10145 9.52291 4.78057C9.36518 4.45969 9.28921 4.08439 9.28921 3.65474C9.28921 3.22509 9.36518 2.84434 9.52291 2.52346C9.68062 2.20258 9.90359 1.94703 10.181 1.773C10.4638 1.59352 10.7957 1.50107 11.171 1.50107C11.5462 1.50107 11.8723 1.59352 12.1551 1.773C12.4379 1.94703 12.6554 2.20258 12.8132 2.52346C12.9709 2.84434 13.0527 3.22509 13.0527 3.65474C13.0527 4.08439 12.9709 4.45969 12.8132 4.78057C12.6554 5.10145 12.4379 5.35156 12.1551 5.53104C11.8723 5.71051 11.5462 5.79753 11.171 5.79753ZM11.171 5.22658C11.4538 5.22658 11.6876 5.15035 11.8726 5.00351C12.0575 4.85667 12.1934 4.66628 12.2805 4.42698C12.3675 4.19312 12.4106 3.93211 12.4106 3.65474C12.4106 3.37737 12.3675 3.12179 12.2805 2.87705C12.1934 2.63775 12.0575 2.44737 11.8726 2.30053C11.6876 2.14825 11.4538 2.07759 11.171 2.07759C10.8827 2.07759 10.6484 2.14825 10.4635 2.30053C10.284 2.44737 10.1481 2.63775 10.0556 2.87705C9.9686 3.12179 9.92549 3.37737 9.92549 3.65474C9.92549 3.93211 9.9686 4.19312 10.0556 4.42698C10.1481 4.66628 10.284 4.85667 10.4635 5.00351C10.6484 5.15035 10.8827 5.22658 11.171 5.22658ZM15.7014 7.35303C15.3914 7.35303 15.1298 7.31498 14.9068 7.2334C14.6838 7.15726 14.4992 7.05389 14.3523 6.9288C14.2055 6.80371 14.0915 6.66775 14.0045 6.52091L14.5101 6.16745C14.5699 6.23815 14.6407 6.32515 14.7332 6.42305C14.8202 6.52094 14.9399 6.60795 15.0922 6.67865C15.2499 6.75479 15.4512 6.79284 15.7014 6.79284C16.0386 6.79284 16.3156 6.71128 16.5331 6.54813C16.7506 6.38497 16.8597 6.13471 16.8597 5.78664V4.94376H16.805C16.7561 5.0199 16.6908 5.11237 16.6037 5.22658C16.5222 5.33535 16.3972 5.43313 16.2341 5.52015C16.0764 5.60173 15.8644 5.64523 15.5925 5.64523C15.2607 5.64523 14.9561 5.56368 14.6896 5.40596C14.4231 5.24824 14.2164 5.01981 14.0586 4.71525C13.9064 4.41068 13.8303 4.04628 13.8303 3.61119C13.8303 3.18698 13.9065 2.81726 14.0533 2.50182C14.2056 2.18638 14.412 1.93615 14.6784 1.76755C14.9449 1.58808 15.255 1.50107 15.6031 1.50107C15.875 1.50107 16.0875 1.55001 16.2452 1.63703C16.4084 1.72949 16.5333 1.82742 16.6149 1.94163C16.7019 2.05584 16.7672 2.14286 16.8162 2.219H16.8815V1.55551H17.496V5.83019C17.496 6.18914 17.4143 6.47744 17.2512 6.70042C17.0935 6.92341 16.8757 7.09196 16.6037 7.19529C16.3318 7.29862 16.0331 7.35303 15.7014 7.35303ZM15.6796 5.07428C15.9352 5.07428 16.1525 5.01441 16.3265 4.89476C16.506 4.78055 16.6421 4.61199 16.7291 4.38901C16.8215 4.17146 16.8704 3.91044 16.8704 3.60043C16.8704 3.30131 16.8269 3.04015 16.7344 2.81173C16.6419 2.57787 16.5113 2.3984 16.3318 2.27331C16.1578 2.14278 15.9407 2.07759 15.6796 2.07759C15.4077 2.07759 15.1846 2.14279 15.0051 2.2842C14.8256 2.42016 14.6895 2.60508 14.6025 2.8335C14.51 3.06192 14.4665 3.32306 14.4665 3.60043C14.4665 3.88868 14.5155 4.14425 14.6025 4.36723C14.695 4.58478 14.8309 4.75879 15.0104 4.88387C15.1899 5.00896 15.4131 5.07428 15.6796 5.07428ZM20.8081 5.71056V1.55551H21.4443V5.71056H20.8081ZM21.1288 0.864789C21.0038 0.864789 20.9005 0.821291 20.8081 0.739711C20.721 0.652693 20.6774 0.549328 20.6774 0.435117C20.6774 0.315467 20.721 0.212096 20.8081 0.125078C20.9005 0.0434984 21.0038 0 21.1288 0C21.2539 0 21.3626 0.0434984 21.4496 0.125078C21.5421 0.212096 21.5856 0.315467 21.5856 0.435117C21.5856 0.549328 21.5421 0.652693 21.4496 0.739711C21.3626 0.821291 21.2539 0.864789 21.1288 0.864789ZM23.2501 3.21418V5.71056H22.6138V1.55551H23.2283V2.20811H23.2825C23.3804 1.99601 23.5274 1.82744 23.7287 1.69691C23.9244 1.56639 24.1801 1.50107 24.4956 1.50107C24.7784 1.50107 25.0228 1.56093 25.2349 1.67514C25.4416 1.78935 25.6104 1.96336 25.7246 2.19723C25.8442 2.42565 25.8988 2.71926 25.8988 3.07277V5.71056H25.262V3.11632C25.262 2.79 25.1806 2.53444 25.0065 2.35497C24.8379 2.17005 24.6039 2.07759 24.3102 2.07759C24.109 2.07759 23.9241 2.1211 23.7664 2.20811C23.6086 2.29513 23.4784 2.42564 23.3914 2.59423C23.2989 2.76283 23.2501 2.96944 23.2501 3.21418ZM29.2979 5.71056V0.174073H29.9342V2.219H29.9884C30.0319 2.14286 30.0974 2.05584 30.1844 1.94163C30.2659 1.82742 30.3852 1.72949 30.5429 1.63703C30.7006 1.55001 30.9184 1.50107 31.1903 1.50107C31.5384 1.50107 31.8485 1.58808 32.115 1.76755C32.3815 1.94159 32.5879 2.18639 32.7348 2.50726C32.8871 2.82814 32.9632 3.20876 32.9632 3.64385C32.9632 4.08438 32.8871 4.46514 32.7348 4.78602C32.5879 5.1069 32.3815 5.35701 32.115 5.53648C31.8485 5.71052 31.5441 5.79753 31.2015 5.79753C30.9295 5.79753 30.7171 5.75402 30.5593 5.66701C30.3962 5.57455 30.2713 5.47131 30.1897 5.3571C30.1027 5.24289 30.0319 5.15042 29.9884 5.07428H29.9124V5.71056H29.2979ZM29.9231 3.63296C29.9231 3.9484 29.9666 4.22579 30.059 4.46509C30.1515 4.70439 30.2876 4.88932 30.4616 5.02528C30.6411 5.15581 30.8587 5.22658 31.1144 5.22658C31.3808 5.22658 31.6037 5.1558 31.7777 5.0144C31.9626 4.87299 32.0932 4.67717 32.1856 4.43787C32.2781 4.19857 32.3216 3.93209 32.3216 3.63296C32.3216 3.33928 32.2781 3.07825 32.1856 2.84439C32.0986 2.61053 31.9679 2.42016 31.783 2.2842C31.609 2.14823 31.3808 2.07759 31.1144 2.07759C30.8533 2.07759 30.6358 2.14278 30.4563 2.27331C30.2823 2.40384 30.146 2.58332 30.059 2.82261C29.9666 3.05104 29.9231 3.32296 29.9231 3.63296ZM35.623 5.79753C35.2477 5.79753 34.9211 5.71051 34.6383 5.53104C34.3555 5.35156 34.138 5.10145 33.9803 4.78057C33.8225 4.45969 33.7413 4.08439 33.7413 3.65474C33.7413 3.22509 33.8225 2.84434 33.9803 2.52346C34.138 2.20258 34.3555 1.94703 34.6383 1.773C34.9211 1.59352 35.2477 1.50107 35.623 1.50107C35.9983 1.50107 36.3298 1.59352 36.6072 1.773C36.89 1.94703 37.1128 2.20258 37.2705 2.52346C37.4282 2.84434 37.5047 3.22509 37.5047 3.65474C37.5047 4.08439 37.4282 4.45969 37.2705 4.78057C37.1128 5.10145 36.89 5.35156 36.6072 5.53104C36.3298 5.71051 35.9983 5.79753 35.623 5.79753ZM35.623 5.22658C35.9112 5.22658 36.145 5.15035 36.3299 5.00351C36.5094 4.85667 36.6454 4.66628 36.7378 4.42698C36.8248 4.19312 36.8685 3.93211 36.8685 3.65474C36.8685 3.37737 36.8248 3.12179 36.7378 2.87705C36.6454 2.63775 36.5094 2.44737 36.3299 2.30053C36.145 2.14825 35.9112 2.07759 35.623 2.07759C35.3402 2.07759 35.1063 2.14825 34.9214 2.30053C34.7365 2.44737 34.6005 2.63775 34.5135 2.87705C34.4265 3.12179 34.3828 3.37737 34.3828 3.65474C34.3828 3.93211 34.4265 4.19312 34.5135 4.42698C34.6005 4.66628 34.7365 4.85667 34.9214 5.00351C35.1063 5.15035 35.3402 5.22658 35.623 5.22658ZM38.7879 1.55551L39.7779 3.25773L40.7732 1.55551H41.5131L40.1693 3.63296L41.5131 5.71056H40.7732L39.7779 4.10074L38.7879 5.71056H38.0486L39.37 3.63296L38.0486 1.55551H38.7879ZM45.7875 5.80841C45.521 5.80841 45.2821 5.75946 45.07 5.66156C44.8524 5.55823 44.6836 5.41149 44.5585 5.22658C44.4334 5.03079 44.3683 4.80235 44.3683 4.53042C44.3683 4.29112 44.4172 4.10073 44.5096 3.95389C44.6021 3.80161 44.7269 3.68745 44.8846 3.60043C45.0423 3.51885 45.2165 3.45354 45.4014 3.41003C45.5972 3.36652 45.7878 3.33393 45.9782 3.31217C46.2338 3.27954 46.4349 3.25227 46.5927 3.23596C46.7504 3.21964 46.8698 3.18706 46.9405 3.14899C47.0112 3.10548 47.0494 3.03469 47.0494 2.93136V2.90972C47.0494 2.64322 46.9785 2.43648 46.8317 2.28964C46.6848 2.13736 46.4673 2.0667 46.1736 2.0667C45.869 2.0667 45.6301 2.1319 45.4561 2.26786C45.2875 2.39839 45.1619 2.53981 45.0912 2.69209L44.4878 2.4746C44.5966 2.22442 44.738 2.02859 44.9175 1.88719C45.1024 1.74578 45.298 1.64786 45.5156 1.58804C45.7331 1.53365 45.9452 1.50107 46.1518 1.50107C46.2878 1.50107 46.4404 1.51743 46.6144 1.55006C46.7885 1.58269 46.9569 1.64788 47.1201 1.74578C47.2832 1.84367 47.4192 1.99055 47.528 2.18634C47.6367 2.38213 47.691 2.64316 47.691 2.97491V5.71056H47.0494V5.15036H47.0165C46.973 5.23738 46.9026 5.33529 46.7993 5.43863C46.7014 5.54196 46.5653 5.62897 46.3967 5.69967C46.2335 5.77037 46.0268 5.80841 45.7875 5.80841ZM45.8799 5.23202C46.1355 5.23202 46.348 5.18306 46.522 5.08517C46.6961 4.98727 46.8264 4.85664 46.9135 4.70436C47.0059 4.54664 47.0494 4.37809 47.0494 4.20949V3.62208C47.0222 3.65471 46.9624 3.68743 46.8699 3.71462C46.7829 3.73638 46.6794 3.75806 46.5597 3.77982C46.4401 3.79613 46.3259 3.8125 46.2172 3.82881C46.103 3.83969 46.0159 3.8506 45.9452 3.86148C45.7821 3.88323 45.6246 3.91583 45.4832 3.96478C45.3418 4.01373 45.2218 4.08438 45.1347 4.18227C45.0477 4.27473 45.0046 4.39979 45.0046 4.56295C45.0046 4.78593 45.0862 4.95462 45.2548 5.06884C45.4179 5.17761 45.6297 5.23202 45.8799 5.23202ZM48.8552 7.26606V1.55551H49.4697V2.219H49.5457C49.5946 2.14286 49.6601 2.05584 49.7416 1.94163C49.8232 1.82742 49.9484 1.72949 50.1007 1.63703C50.2638 1.55001 50.4756 1.50107 50.7476 1.50107C51.0956 1.50107 51.4058 1.58808 51.6722 1.76755C51.9387 1.94159 52.1451 2.18639 52.2974 2.50726C52.4442 2.82814 52.5204 3.20876 52.5204 3.64385C52.5204 4.08438 52.4442 4.46514 52.2974 4.78602C52.1451 5.1069 51.9387 5.35701 51.6722 5.53648C51.4112 5.71052 51.1014 5.79753 50.7587 5.79753C50.4922 5.79753 50.2743 5.75402 50.1166 5.66701C49.9535 5.57455 49.834 5.47131 49.747 5.3571C49.6599 5.24289 49.5946 5.15042 49.5457 5.07428H49.4915V7.26606H48.8552ZM49.4803 3.63296C49.4803 3.9484 49.5293 4.22579 49.6163 4.46509C49.7088 4.70439 49.8449 4.88932 50.0189 5.02528C50.1984 5.15581 50.416 5.22658 50.6716 5.22658C50.9381 5.22658 51.1608 5.1558 51.3403 5.0144C51.5198 4.87299 51.6559 4.67717 51.7429 4.43787C51.8353 4.19857 51.8842 3.93209 51.8842 3.63296C51.8842 3.33928 51.8352 3.07825 51.7482 2.84439C51.6557 2.61053 51.5251 2.42016 51.3456 2.2842C51.1661 2.14823 50.9436 2.07759 50.6716 2.07759C50.4106 2.07759 50.1931 2.14278 50.0136 2.27331C49.8395 2.40384 49.7033 2.58332 49.6163 2.82261C49.5238 3.05104 49.4803 3.32296 49.4803 3.63296ZM53.494 7.26606V1.55551H54.1085V2.219H54.185C54.2339 2.14286 54.2988 2.05584 54.3804 1.94163C54.462 1.82742 54.587 1.72949 54.7448 1.63703C54.9025 1.55001 55.1149 1.50107 55.3869 1.50107C55.7349 1.50107 56.0451 1.58808 56.3115 1.76755C56.578 1.94159 56.7844 2.18639 56.9367 2.50726C57.0835 2.82814 57.1597 3.20876 57.1597 3.64385C57.1597 4.08438 57.0835 4.46514 56.9367 4.78602C56.7844 5.1069 56.578 5.35701 56.3115 5.53648C56.0505 5.71052 55.7401 5.79753 55.3975 5.79753C55.131 5.79753 54.9191 5.75402 54.7559 5.66701C54.5982 5.57455 54.4733 5.47131 54.3863 5.3571C54.2992 5.24289 54.2339 5.15042 54.185 5.07428H54.1303V7.26606H53.494ZM54.1196 3.63296C54.1196 3.9484 54.1685 4.22579 54.2609 4.46509C54.3479 4.70439 54.484 4.88932 54.6635 5.02528C54.8375 5.15581 55.0548 5.22658 55.3104 5.22658C55.5769 5.22658 55.8001 5.1558 55.9796 5.0144C56.1591 4.87299 56.2952 4.67717 56.3822 4.43787C56.4746 4.19857 56.5235 3.93209 56.5235 3.63296C56.5235 3.33928 56.4745 3.07825 56.3875 2.84439C56.3005 2.61053 56.1644 2.42016 55.9849 2.2842C55.8054 2.14823 55.5823 2.07759 55.3104 2.07759C55.0493 2.07759 54.8322 2.14278 54.6582 2.27331C54.4787 2.40384 54.3481 2.58332 54.2556 2.82261C54.1631 3.05104 54.1196 3.32296 54.1196 3.63296ZM59.8737 5.79753C59.4767 5.79753 59.1284 5.71051 58.8402 5.53104C58.5519 5.35156 58.3292 5.1069 58.1715 4.78602C58.0138 4.46514 57.9373 4.08984 57.9373 3.66563C57.9373 3.24142 58.0138 2.86611 58.1715 2.5398C58.3292 2.21348 58.5464 1.96335 58.8237 1.77844C59.1065 1.59353 59.4331 1.50107 59.8084 1.50107C60.026 1.50107 60.2379 1.53911 60.45 1.60981C60.6621 1.68595 60.8528 1.80024 61.0268 1.9634C61.2008 2.12112 61.3367 2.33862 61.44 2.59968C61.5433 2.86617 61.5924 3.19252 61.5924 3.57866V3.85059H58.3946V3.30128H60.945C60.945 3.06198 60.8962 2.85523 60.8037 2.67032C60.7113 2.4854 60.5809 2.34411 60.4123 2.23533C60.2383 2.132 60.0423 2.07759 59.8084 2.07759C59.5528 2.07759 59.3353 2.13734 59.1504 2.26786C58.9654 2.38751 58.8239 2.55075 58.726 2.75198C58.6281 2.95321 58.5736 3.16527 58.5736 3.3937V3.76349C58.5736 4.07893 58.6284 4.3454 58.7372 4.56295C58.8514 4.77505 59.0036 4.94374 59.1939 5.05795C59.3897 5.16672 59.6181 5.22658 59.8737 5.22658C60.0423 5.22658 60.1945 5.19932 60.3305 5.15581C60.4665 5.10686 60.5863 5.03077 60.6842 4.93831C60.7821 4.84042 60.8582 4.72068 60.9126 4.57384L61.5271 4.74791C61.4618 4.95458 61.3527 5.1395 61.2005 5.29722C61.0482 5.45494 60.8578 5.57999 60.6348 5.66701C60.4064 5.75402 60.1565 5.79753 59.8737 5.79753ZM63.7897 5.80841C63.5232 5.80841 63.2837 5.75946 63.0716 5.66156C62.854 5.55823 62.6852 5.41149 62.5601 5.22658C62.435 5.03079 62.37 4.80235 62.37 4.53042C62.37 4.29112 62.4188 4.10073 62.5113 3.95389C62.6037 3.80161 62.729 3.68745 62.8868 3.60043C63.0445 3.51885 63.2186 3.45354 63.4035 3.41003C63.5993 3.36652 63.7894 3.33393 63.9798 3.31217C64.2354 3.27954 64.4366 3.25227 64.5943 3.23596C64.752 3.21964 64.8715 3.18706 64.9422 3.14899C65.0129 3.10548 65.0511 3.03469 65.0511 2.93136V2.90972C65.0511 2.64322 64.9807 2.43648 64.8338 2.28964C64.687 2.13736 64.4695 2.0667 64.1758 2.0667C63.8712 2.0667 63.6317 2.1319 63.4577 2.26786C63.2891 2.39839 63.1641 2.53981 63.0934 2.69209L62.4895 2.4746C62.5983 2.22442 62.7397 2.02859 62.9192 1.88719C63.1041 1.74578 63.3002 1.64786 63.5177 1.58804C63.7353 1.53365 63.9473 1.50107 64.154 1.50107C64.29 1.50107 64.442 1.51743 64.6161 1.55006C64.7901 1.58269 64.9585 1.64788 65.1217 1.74578C65.2849 1.84367 65.4208 1.99055 65.5296 2.18634C65.6384 2.38213 65.6932 2.64316 65.6932 2.97491V5.71056H65.0511V5.15036H65.0187C64.9752 5.23738 64.9042 5.33529 64.8009 5.43863C64.703 5.54196 64.5669 5.62897 64.3983 5.69967C64.2352 5.77037 64.029 5.80841 63.7897 5.80841ZM63.8821 5.23202C64.1377 5.23202 64.3496 5.18306 64.5237 5.08517C64.6977 4.98727 64.8281 4.85664 64.9151 4.70436C65.0075 4.54664 65.0511 4.37809 65.0511 4.20949V3.62208C65.0239 3.65471 64.964 3.68743 64.8715 3.71462C64.7845 3.73638 64.6815 3.75806 64.5619 3.77982C64.4422 3.79613 64.3281 3.8125 64.2193 3.82881C64.1051 3.83969 64.0181 3.8506 63.9474 3.86148C63.7842 3.88323 63.6262 3.91583 63.4848 3.96478C63.3434 4.01373 63.2239 4.08438 63.1369 4.18227C63.0499 4.27473 63.0063 4.39979 63.0063 4.56295C63.0063 4.78593 63.0878 4.95462 63.2564 5.06884C63.4196 5.17761 63.6319 5.23202 63.8821 5.23202ZM66.8568 5.71056V1.55551H67.4714V2.18634H67.5149C67.591 1.97967 67.7269 1.81112 67.9281 1.68603C68.1239 1.5555 68.3471 1.49018 68.5973 1.49018C68.6408 1.49018 68.7003 1.49562 68.771 1.49562C68.8417 1.49562 68.8961 1.50107 68.9287 1.50107V2.15367C68.9124 2.14824 68.8583 2.13733 68.7821 2.12645C68.706 2.11558 68.6242 2.11012 68.5426 2.11012C68.3414 2.11012 68.1619 2.15375 67.9987 2.23533C67.8465 2.31691 67.7215 2.4365 67.6291 2.58335C67.5366 2.73019 67.4931 2.89331 67.4931 3.08366V5.71056H66.8568ZM72.6274 2.48549L72.0559 2.64867C72.0179 2.55622 71.9689 2.46376 71.8982 2.3713C71.8275 2.27884 71.7353 2.20261 71.6156 2.14279C71.496 2.08296 71.3438 2.05582 71.1589 2.05582C70.9033 2.05582 70.6912 2.11568 70.5226 2.22989C70.354 2.3441 70.2725 2.49084 70.2725 2.67032C70.2725 2.82804 70.3319 2.95323 70.4461 3.04568C70.5603 3.13814 70.7399 3.21424 70.9847 3.27951L71.6045 3.42636C71.9743 3.51882 72.252 3.65479 72.4314 3.8397C72.6164 4.02461 72.7034 4.26395 72.7034 4.55219C72.7034 4.79149 72.638 5.00356 72.5021 5.19391C72.3661 5.37883 72.1759 5.5257 71.9311 5.63447C71.6864 5.74325 71.4033 5.79753 71.0824 5.79753C70.6582 5.79753 70.3103 5.70506 70.0329 5.52015C69.7556 5.33524 69.5762 5.06876 69.5055 4.71525L70.1089 4.56295C70.1687 4.78593 70.2778 4.95462 70.4355 5.06884C70.5987 5.17761 70.8107 5.23202 71.0718 5.23202C71.3709 5.23202 71.6047 5.17215 71.7787 5.04706C71.9582 4.91653 72.0453 4.7642 72.0453 4.58472C72.0453 4.44332 71.9962 4.31828 71.8929 4.22582C71.795 4.12249 71.6375 4.05183 71.4308 4.00289L70.7345 3.8397C70.3593 3.74724 70.0764 3.61127 69.897 3.42092C69.7229 3.23056 69.6362 2.99123 69.6362 2.70298C69.6362 2.46912 69.7011 2.26251 69.8316 2.08304C69.9622 1.90356 70.1471 1.76214 70.3755 1.65881C70.6039 1.55547 70.8652 1.50107 71.1589 1.50107C71.5722 1.50107 71.8932 1.59352 72.1271 1.773C72.361 1.95247 72.5295 2.1918 72.6274 2.48549ZM77.0272 5.80841C76.7661 5.80841 76.5265 5.75946 76.3144 5.66156C76.0969 5.55823 75.9286 5.41149 75.8035 5.22658C75.6784 5.03079 75.6128 4.80235 75.6128 4.53042C75.6128 4.29112 75.6622 4.10073 75.7546 3.95389C75.8471 3.80161 75.9719 3.68745 76.1296 3.60043C76.2873 3.51885 76.4615 3.45354 76.6464 3.41003C76.8422 3.36652 77.0323 3.33393 77.2226 3.31217C77.4782 3.27954 77.6799 3.25227 77.8377 3.23596C77.9954 3.21964 78.1148 3.18706 78.1855 3.14899C78.2562 3.10548 78.2944 3.03469 78.2944 2.93136V2.90972C78.2944 2.64322 78.2235 2.43648 78.0767 2.28964C77.9298 2.13736 77.7123 2.0667 77.4186 2.0667C77.1141 2.0667 76.8746 2.1319 76.7005 2.26786C76.532 2.39839 76.4069 2.53981 76.3362 2.69209L75.7329 2.4746C75.8416 2.22442 75.9831 2.02859 76.1625 1.88719C76.3474 1.74578 76.543 1.64786 76.7606 1.58804C76.9781 1.53365 77.1902 1.50107 77.3968 1.50107C77.5328 1.50107 77.6849 1.51743 77.8589 1.55006C78.033 1.58269 78.2019 1.64788 78.3651 1.74578C78.5282 1.84367 78.6642 1.99055 78.773 2.18634C78.8817 2.38213 78.9307 2.64316 78.9307 2.97491V5.71056H78.2944V5.15036H78.2615C78.218 5.23738 78.1476 5.33529 78.0443 5.43863C77.9464 5.54196 77.8103 5.62897 77.6417 5.69967C77.4785 5.77037 77.2719 5.80841 77.0272 5.80841ZM77.1249 5.23202C77.3805 5.23202 77.5925 5.18306 77.7665 5.08517C77.9405 4.98727 78.0714 4.85664 78.1585 4.70436C78.2509 4.54664 78.2944 4.37809 78.2944 4.20949V3.62208C78.2672 3.65471 78.2074 3.68743 78.1149 3.71462C78.0279 3.73638 77.9244 3.75806 77.8047 3.77982C77.6851 3.79613 77.5709 3.8125 77.4622 3.82881C77.348 3.83969 77.2609 3.8506 77.1902 3.86148C77.0271 3.88323 76.8696 3.91583 76.7282 3.96478C76.5868 4.01373 76.4668 4.08438 76.3798 4.18227C76.2927 4.27473 76.2491 4.39979 76.2491 4.56295C76.2491 4.78593 76.3307 4.95462 76.4993 5.06884C76.6624 5.17761 76.8747 5.23202 77.1249 5.23202ZM80.1868 5.71056V0.174073H80.8231V2.219H80.8778C80.9213 2.14286 80.9862 2.05584 81.0732 1.94163C81.1548 1.82742 81.2745 1.72949 81.4323 1.63703C81.59 1.55001 81.8078 1.50107 82.0797 1.50107C82.4278 1.50107 82.7379 1.58808 83.0044 1.76755C83.2709 1.94159 83.4773 2.18639 83.6242 2.50726C83.7765 2.82814 83.8526 3.20876 83.8526 3.64385C83.8526 4.08438 83.7765 4.46514 83.6242 4.78602C83.4773 5.1069 83.2709 5.35701 83.0044 5.53648C82.7379 5.71052 82.4329 5.79753 82.0903 5.79753C81.8184 5.79753 81.6064 5.75402 81.4487 5.66701C81.2856 5.57455 81.1661 5.47131 81.0791 5.3571C80.9921 5.24289 80.9213 5.15042 80.8778 5.07428H80.8013V5.71056H80.1868ZM80.8124 3.63296C80.8124 3.9484 80.856 4.22579 80.9484 4.46509C81.0409 4.70439 81.177 4.88932 81.351 5.02528C81.5305 5.15581 81.7476 5.22658 82.0032 5.22658C82.2697 5.22658 82.4931 5.1558 82.6671 5.0144C82.852 4.87299 82.9825 4.67717 83.075 4.43787C83.1675 4.19857 83.211 3.93209 83.211 3.63296C83.211 3.33928 83.1673 3.07825 83.0803 2.84439C82.9879 2.61053 82.8573 2.42016 82.6724 2.2842C82.4984 2.14823 82.2697 2.07759 82.0032 2.07759C81.7422 2.07759 81.5246 2.14278 81.3452 2.27331C81.1711 2.40384 81.0354 2.58332 80.9484 2.82261C80.856 3.05104 80.8124 3.32296 80.8124 3.63296ZM86.5118 5.79753C86.1366 5.79753 85.8105 5.71051 85.5277 5.53104C85.2449 5.35156 85.0274 5.10145 84.8696 4.78057C84.7119 4.45969 84.6301 4.08439 84.6301 3.65474C84.6301 3.22509 84.7119 2.84434 84.8696 2.52346C85.0274 2.20258 85.2449 1.94703 85.5277 1.773C85.8105 1.59352 86.1366 1.50107 86.5118 1.50107C86.8871 1.50107 87.2192 1.59352 87.4965 1.773C87.7794 1.94703 88.0022 2.20258 88.1599 2.52346C88.3176 2.84434 88.3936 3.22509 88.3936 3.65474C88.3936 4.08439 88.3176 4.45969 88.1599 4.78057C88.0022 5.10145 87.7794 5.35156 87.4965 5.53104C87.2192 5.71051 86.8871 5.79753 86.5118 5.79753ZM86.5118 5.22658C86.8001 5.22658 87.0344 5.15035 87.2193 5.00351C87.3988 4.85667 87.5347 4.66628 87.6272 4.42698C87.7142 4.19312 87.7573 3.93211 87.7573 3.65474C87.7573 3.37737 87.7142 3.12179 87.6272 2.87705C87.5347 2.63775 87.3988 2.44737 87.2193 2.30053C87.0344 2.14825 86.8001 2.07759 86.5118 2.07759C86.229 2.07759 85.9952 2.14825 85.8102 2.30053C85.6253 2.44737 85.4894 2.63775 85.4024 2.87705C85.3153 3.12179 85.2722 3.37737 85.2722 3.65474C85.2722 3.93211 85.3153 4.19312 85.4024 4.42698C85.4894 4.66628 85.6253 4.85667 85.8102 5.00351C85.9952 5.15035 86.229 5.22658 86.5118 5.22658ZM92.6197 1.55551L91.0805 5.71056H90.4331L88.8997 1.55551H89.5902L90.7379 4.86754H90.7815L91.9234 1.55551H92.6197ZM95.0506 5.79753C94.6536 5.79753 94.3058 5.71051 94.0176 5.53104C93.7293 5.35156 93.5061 5.1069 93.3484 4.78602C93.1961 4.46514 93.1147 4.08984 93.1147 3.66563C93.1147 3.24142 93.1961 2.86611 93.3484 2.5398C93.5061 2.21348 93.7237 1.96335 94.0011 1.77844C94.2839 1.59353 94.61 1.50107 94.9853 1.50107C95.2028 1.50107 95.4153 1.53911 95.6274 1.60981C95.8395 1.68595 96.0296 1.80024 96.2037 1.9634C96.3777 2.12112 96.5135 2.33862 96.6169 2.59968C96.7202 2.86617 96.7693 3.19252 96.7693 3.57866V3.85059H93.5714V3.30128H96.1219C96.1219 3.06198 96.0785 2.85523 95.9806 2.67032C95.8881 2.4854 95.7577 2.34411 95.5891 2.23533C95.4206 2.132 95.2191 2.07759 94.9853 2.07759C94.7351 2.07759 94.5121 2.13734 94.3272 2.26786C94.1423 2.38751 94.0008 2.55075 93.9029 2.75198C93.805 2.95321 93.7563 3.16527 93.7563 3.3937V3.76349C93.7563 4.07893 93.8107 4.3454 93.914 4.56295C94.0282 4.77505 94.1803 4.94374 94.3761 5.05795C94.5664 5.16672 94.795 5.22658 95.0506 5.22658C95.2192 5.22658 95.3714 5.19932 95.5074 5.15581C95.6433 5.10686 95.7632 5.03077 95.8611 4.93831C95.959 4.84042 96.0351 4.72068 96.0895 4.57384L96.7093 4.74791C96.644 4.95458 96.5356 5.1395 96.3779 5.29722C96.2256 5.45494 96.0352 5.57999 95.8122 5.66701C95.5892 5.75402 95.3334 5.79753 95.0506 5.79753ZM104.427 1.90352H103.758C103.714 1.71317 103.649 1.53917 103.546 1.39776C103.448 1.25092 103.333 1.12574 103.192 1.02784C103.051 0.924508 102.899 0.84841 102.73 0.799462C102.561 0.750514 102.382 0.72338 102.197 0.72338C101.865 0.72338 101.56 0.810382 101.289 0.978979C101.017 1.14758 100.799 1.39769 100.642 1.72945C100.484 2.05576 100.402 2.46365 100.402 2.94225C100.402 3.42085 100.484 3.8233 100.642 4.15505C100.799 4.48681 101.017 4.73705 101.289 4.90565C101.56 5.07425 101.865 5.16125 102.197 5.16125C102.382 5.16125 102.561 5.13412 102.73 5.08517C102.899 5.03078 103.051 4.95999 103.192 4.85666C103.333 4.75876 103.448 4.63371 103.546 4.48687C103.649 4.34002 103.714 4.17146 103.758 3.98111H104.427C104.378 4.26392 104.286 4.51404 104.15 4.74247C104.019 4.96545 103.85 5.15582 103.655 5.3081C103.453 5.46582 103.23 5.58543 102.985 5.66701C102.741 5.74315 102.48 5.78664 102.197 5.78664C101.724 5.78664 101.305 5.67249 100.941 5.43863C100.571 5.2102 100.283 4.88385 100.071 4.4542C99.8586 4.02999 99.7552 3.52418 99.7552 2.94225C99.7552 2.36032 99.8586 1.85464 100.071 1.42498C100.283 1.00077 100.571 0.674427 100.941 0.446004C101.305 0.212144 101.724 0.0978581 102.197 0.0978581C102.48 0.0978581 102.741 0.135913 102.985 0.217492C103.23 0.299071 103.453 0.418806 103.655 0.576526C103.85 0.728808 104.019 0.919181 104.15 1.14216C104.286 1.36515 104.378 1.62071 104.427 1.90352ZM106.064 3.21418V5.71056H105.422V0.174073H106.064V2.20811H106.119C106.211 1.99057 106.358 1.822 106.554 1.69691C106.749 1.56639 107.01 1.50107 107.336 1.50107C107.619 1.50107 107.869 1.56093 108.082 1.67514C108.294 1.78391 108.457 1.95792 108.577 2.19178C108.696 2.4202 108.756 2.71382 108.756 3.07277V5.71056H108.114V3.11632C108.114 2.78457 108.032 2.529 107.858 2.34952C107.69 2.17005 107.456 2.07759 107.152 2.07759C106.945 2.07759 106.76 2.1211 106.591 2.20811C106.428 2.29513 106.298 2.42564 106.2 2.59423C106.107 2.76283 106.064 2.96944 106.064 3.21418ZM111.143 5.80841C110.882 5.80841 110.643 5.75946 110.426 5.66156C110.214 5.55823 110.045 5.41149 109.914 5.22658C109.789 5.03079 109.73 4.80235 109.73 4.53042C109.73 4.29112 109.773 4.10073 109.866 3.95389C109.963 3.80161 110.089 3.68745 110.246 3.60043C110.399 3.51885 110.572 3.45354 110.763 3.41003C110.953 3.36652 111.144 3.33393 111.339 3.31217C111.59 3.27954 111.796 3.25227 111.954 3.23596C112.112 3.21964 112.226 3.18706 112.296 3.14899C112.373 3.10548 112.411 3.03469 112.411 2.93136V2.90972C112.411 2.64322 112.335 2.43648 112.193 2.28964C112.047 2.13736 111.829 2.0667 111.535 2.0667C111.231 2.0667 110.991 2.1319 110.817 2.26786C110.643 2.39839 110.524 2.53981 110.453 2.69209L109.849 2.4746C109.952 2.22442 110.099 2.02859 110.279 1.88719C110.464 1.74578 110.659 1.64786 110.871 1.58804C111.089 1.53365 111.301 1.50107 111.514 1.50107C111.644 1.50107 111.796 1.51743 111.97 1.55006C112.144 1.58269 112.313 1.64788 112.476 1.74578C112.639 1.84367 112.775 1.99055 112.884 2.18634C112.993 2.38213 113.047 2.64316 113.047 2.97491V5.71056H112.411V5.15036H112.378C112.335 5.23738 112.264 5.33529 112.16 5.43863C112.063 5.54196 111.927 5.62897 111.758 5.69967C111.589 5.77037 111.388 5.80841 111.143 5.80841ZM111.242 5.23202C111.492 5.23202 111.709 5.18306 111.878 5.08517C112.057 4.98727 112.188 4.85664 112.275 4.70436C112.367 4.54664 112.411 4.37809 112.411 4.20949V3.62208C112.383 3.65471 112.324 3.68743 112.231 3.71462C112.139 3.73638 112.035 3.75806 111.916 3.77982C111.801 3.79613 111.687 3.8125 111.573 3.82881C111.464 3.83969 111.377 3.8506 111.306 3.86148C111.138 3.88323 110.986 3.91583 110.839 3.96478C110.698 4.01373 110.584 4.08438 110.497 4.18227C110.409 4.27473 110.366 4.39979 110.366 4.56295C110.366 4.78593 110.448 4.95462 110.611 5.06884C110.779 5.17761 110.986 5.23202 111.242 5.23202ZM116.016 1.55551V2.09937H113.869V1.55551H116.016ZM114.494 0.560194H115.13V4.51953C115.13 4.699 115.157 4.83497 115.212 4.92743C115.266 5.01444 115.331 5.07418 115.418 5.10681C115.5 5.134 115.593 5.15036 115.685 5.15036C115.756 5.15036 115.81 5.14491 115.859 5.13947C115.902 5.1286 115.935 5.12314 115.962 5.1177L116.093 5.68878C116.049 5.7051 115.989 5.72146 115.913 5.73778C115.837 5.75409 115.739 5.765 115.62 5.765C115.44 5.765 115.26 5.72681 115.086 5.65067C114.918 5.56909 114.777 5.45493 114.663 5.29177C114.548 5.13405 114.494 4.93277 114.494 4.69347V0.560194ZM119.122 5.71056V1.55551H119.758V5.71056H119.122ZM119.443 0.864789C119.318 0.864789 119.214 0.821291 119.122 0.739711C119.035 0.652693 118.992 0.549328 118.992 0.435117C118.992 0.315467 119.035 0.212096 119.122 0.125078C119.214 0.0434984 119.318 0 119.443 0C119.568 0 119.677 0.0434984 119.764 0.125078C119.856 0.212096 119.9 0.315467 119.9 0.435117C119.9 0.549328 119.856 0.652693 119.764 0.739711C119.677 0.821291 119.568 0.864789 119.443 0.864789ZM121.564 3.21418V5.71056H120.928V1.55551H121.542V2.20811H121.597C121.695 1.99601 121.841 1.82744 122.042 1.69691C122.238 1.56639 122.494 1.50107 122.809 1.50107C123.092 1.50107 123.337 1.56093 123.549 1.67514C123.756 1.78935 123.924 1.96336 124.038 2.19723C124.158 2.42565 124.213 2.71926 124.213 3.07277V5.71056H123.576V3.11632C123.576 2.79 123.495 2.53444 123.321 2.35497C123.152 2.17005 122.918 2.07759 122.625 2.07759C122.423 2.07759 122.238 2.1211 122.081 2.20811C121.918 2.29513 121.792 2.42564 121.705 2.59423C121.613 2.76283 121.564 2.96944 121.564 3.21418ZM125.382 7.26606V1.55551H125.997V2.219H126.073C126.121 2.14286 126.187 2.05584 126.269 1.94163C126.35 1.82742 126.475 1.72949 126.628 1.63703C126.791 1.55001 127.003 1.50107 127.274 1.50107C127.623 1.50107 127.933 1.58808 128.199 1.76755C128.466 1.94159 128.673 2.18639 128.825 2.50726C128.972 2.82814 129.047 3.20876 129.047 3.64385C129.047 4.08438 128.972 4.46514 128.825 4.78602C128.673 5.1069 128.466 5.35701 128.199 5.53648C127.938 5.71052 127.628 5.79753 127.286 5.79753C127.019 5.79753 126.801 5.75402 126.643 5.66701C126.48 5.57455 126.361 5.47131 126.274 5.3571C126.187 5.24289 126.121 5.15042 126.073 5.07428H126.018V7.26606H125.382ZM126.007 3.63296C126.007 3.9484 126.056 4.22579 126.148 4.46509C126.236 4.70439 126.372 4.88932 126.551 5.02528C126.725 5.15581 126.943 5.22658 127.199 5.22658C127.465 5.22658 127.688 5.1558 127.867 5.0144C128.047 4.87299 128.183 4.67717 128.27 4.43787C128.362 4.19857 128.411 3.93209 128.411 3.63296C128.411 3.33928 128.362 3.07825 128.275 2.84439C128.188 2.61053 128.052 2.42016 127.873 2.2842C127.694 2.14823 127.47 2.07759 127.199 2.07759C126.937 2.07759 126.72 2.14278 126.546 2.27331C126.366 2.40384 126.236 2.58332 126.143 2.82261C126.051 3.05104 126.007 3.32296 126.007 3.63296ZM132.637 4.01364V1.55551H133.279V5.71056H132.637V5.00895H132.594C132.496 5.22106 132.343 5.39509 132.142 5.54737C131.935 5.69421 131.675 5.765 131.365 5.765C131.104 5.765 130.87 5.71058 130.668 5.59637C130.467 5.47672 130.309 5.30814 130.195 5.07428C130.081 4.84042 130.021 4.55211 130.021 4.1986V1.55551H130.657V4.15505C130.657 4.45418 130.745 4.69896 130.913 4.87843C131.082 5.05791 131.304 5.15036 131.565 5.15036C131.723 5.15036 131.887 5.10686 132.05 5.02528C132.218 4.94371 132.354 4.81865 132.468 4.6555C132.582 4.4869 132.637 4.2747 132.637 4.01364ZM136.253 1.55551V2.09937H134.1V1.55551H136.253ZM134.725 0.560194H135.362V4.51953C135.362 4.699 135.389 4.83497 135.444 4.92743C135.498 5.01444 135.563 5.07418 135.65 5.10681C135.732 5.134 135.824 5.15036 135.916 5.15036C135.987 5.15036 136.041 5.14491 136.09 5.13947C136.134 5.1286 136.172 5.12314 136.199 5.1177L136.324 5.68878C136.281 5.7051 136.221 5.72146 136.145 5.73778C136.069 5.75409 135.971 5.765 135.851 5.765C135.672 5.765 135.492 5.72681 135.318 5.65067C135.15 5.56909 135.008 5.45493 134.894 5.29177C134.78 5.13405 134.725 4.93277 134.725 4.69347V0.560194Z" fill="#9747FF"/>
</svg>
