<svg width="82" height="10" viewBox="0 0 82 10" fill="none" xmlns="http://www.w3.org/2000/svg">
<path d="M0 7.34214V0.223002H0.864922V6.57528H4.17138V7.34214H0ZM7.56521 7.45089C7.08117 7.45089 6.66236 7.33668 6.29797 7.10825C5.93358 6.87983 5.65074 6.55901 5.44951 6.14567C5.24828 5.73234 5.14492 5.25372 5.14492 4.69898C5.14492 4.14424 5.24828 3.66017 5.44951 3.2414C5.65074 2.82806 5.93358 2.50717 6.29797 2.27875C6.66236 2.04489 7.08117 1.93074 7.56521 1.93074C8.04925 1.93074 8.46807 2.04489 8.83245 2.27875C9.1914 2.50717 9.47424 2.82806 9.68091 3.2414C9.88214 3.66017 9.98551 4.14424 9.98551 4.69898C9.98551 5.25372 9.88214 5.73234 9.68091 6.14567C9.47424 6.55901 9.1914 6.87983 8.83245 7.10825C8.46807 7.33668 8.04925 7.45089 7.56521 7.45089ZM7.56521 6.71669C7.9296 6.71669 8.23425 6.62422 8.46811 6.43387C8.70741 6.24896 8.8813 5.99879 8.99551 5.69422C9.10972 5.38966 9.16414 5.05793 9.16414 4.69898C9.16414 4.34547 9.10972 4.0083 8.99551 3.70374C8.8813 3.39373 8.70741 3.14355 8.46811 2.9532C8.23425 2.76285 7.9296 2.67038 7.56521 2.67038C7.20082 2.67038 6.89618 2.76285 6.66232 2.9532C6.42302 3.14355 6.24913 3.39373 6.13492 3.70374C6.02071 4.0083 5.96629 4.34547 5.96629 4.69898C5.96629 5.05793 6.02071 5.38966 6.13492 5.69422C6.24913 5.99879 6.42302 6.24896 6.66232 6.43387C6.89618 6.62422 7.20082 6.71669 7.56521 6.71669ZM13.39 9.45778C12.9984 9.45778 12.6558 9.40337 12.3676 9.30548C12.0848 9.20215 11.8454 9.07163 11.6551 8.90847C11.4702 8.74531 11.318 8.5713 11.2092 8.38638L11.8617 7.92405C11.9378 8.02194 12.0303 8.13615 12.1445 8.26124C12.2587 8.38633 12.4109 8.49515 12.6121 8.58761C12.8079 8.68551 13.0691 8.73446 13.39 8.73446C13.825 8.73446 14.1787 8.63109 14.4615 8.41898C14.7389 8.21231 14.8803 7.88604 14.8803 7.44007V6.35234H14.8094C14.7495 6.45024 14.6627 6.57528 14.5539 6.71669C14.4451 6.85809 14.2873 6.98322 14.0807 7.09743C13.874 7.2062 13.6021 7.26055 13.254 7.26055C12.8243 7.26055 12.4327 7.15725 12.0901 6.95058C11.7529 6.74935 11.4811 6.45022 11.2798 6.06408C11.084 5.6725 10.9861 5.19935 10.9861 4.64461C10.9861 4.09531 11.0839 3.62214 11.2743 3.21425C11.4646 2.80635 11.7365 2.49091 12.0792 2.26793C12.4218 2.04495 12.8189 1.93074 13.2649 1.93074C13.613 1.93074 13.8902 1.99053 14.0969 2.10475C14.2981 2.21896 14.456 2.34947 14.5648 2.49631C14.679 2.63771 14.766 2.75738 14.8258 2.84983H14.9074V2.00144H15.7014V7.49444C15.7014 7.95129 15.598 8.32652 15.3859 8.61476C15.1792 8.90301 14.902 9.11514 14.5539 9.25111C14.2058 9.38707 13.8196 9.45778 13.39 9.45778ZM13.3629 6.52091C13.6946 6.52091 13.972 6.44475 14.2004 6.2979C14.4234 6.14562 14.5973 5.9281 14.717 5.6453C14.8366 5.36249 14.8965 5.0253 14.8965 4.62828C14.8965 4.24757 14.8367 3.90494 14.7225 3.61126C14.6029 3.31757 14.4342 3.08914 14.2058 2.92054C13.9773 2.75194 13.7001 2.67038 13.3629 2.67038C13.0148 2.67038 12.7265 2.75739 12.4926 2.93143C12.2642 3.1109 12.0955 3.34473 11.9759 3.64385C11.8617 3.93754 11.8072 4.26933 11.8072 4.62828C11.8072 5.00354 11.8672 5.32982 11.9814 5.61263C12.1011 5.89544 12.2751 6.11848 12.5035 6.28164C12.7319 6.43936 13.0202 6.52091 13.3629 6.52091ZM19.9543 7.34214V2.00144H20.7757V7.34214H19.9543ZM20.3731 1.11494C20.2153 1.11494 20.0741 1.06053 19.9599 0.951759C19.8456 0.837548 19.7912 0.707032 19.7912 0.55475C19.7912 0.402469 19.8456 0.271958 19.9599 0.163185C20.0741 0.0544128 20.2153 0 20.3731 0C20.5308 0 20.6668 0.0544128 20.781 0.163185C20.9006 0.271958 20.9552 0.402469 20.9552 0.55475C20.9552 0.707032 20.9006 0.837548 20.781 0.951759C20.6668 1.06053 20.5308 1.11494 20.3731 1.11494ZM23.098 4.1279V7.34214H22.2766V2.00144H23.0706V2.83895H23.1415C23.2666 2.56702 23.4568 2.34949 23.7125 2.18089C23.9681 2.01774 24.2944 1.93074 24.6969 1.93074C25.0613 1.93074 25.3767 2.00683 25.6486 2.15367C25.9206 2.30052 26.1273 2.52349 26.2796 2.82261C26.4319 3.12174 26.508 3.49704 26.508 3.94845V7.34214H25.6866V4.00282C25.6866 3.58405 25.5778 3.25777 25.3602 3.02391C25.1427 2.79005 24.8436 2.67038 24.4629 2.67038C24.2019 2.67038 23.968 2.72474 23.7613 2.83895C23.5547 2.95316 23.3971 3.12178 23.2775 3.33932C23.1578 3.55687 23.098 3.8179 23.098 4.1279ZM31.9684 7.34214L30.3421 2.00144H31.2015L32.3598 6.09123H32.4143L33.5508 2.00144H34.432L35.5577 6.07497H35.6121L36.7652 2.00144H37.6298L35.9982 7.34214H35.1933L34.0241 3.2414H33.9425L32.7733 7.34214H31.9684ZM38.7122 7.34214V2.00144H39.5333V7.34214H38.7122ZM39.131 1.11494C38.9679 1.11494 38.8318 1.06053 38.7175 0.951759C38.6033 0.837548 38.5436 0.707032 38.5436 0.55475C38.5436 0.402469 38.6033 0.271958 38.7175 0.163185C38.8318 0.0544128 38.9679 0 39.131 0C39.2887 0 39.4247 0.0544128 39.5389 0.163185C39.6531 0.271958 39.7129 0.402469 39.7129 0.55475C39.7129 0.707032 39.6531 0.837548 39.5389 0.951759C39.4247 1.06053 39.2887 1.11494 39.131 1.11494ZM43.3568 2.00144V2.69754H40.5884V2.00144H43.3568ZM41.3989 0.723313H42.22V5.81386C42.22 6.04228 42.2527 6.21636 42.318 6.33601C42.3887 6.45022 42.4758 6.52632 42.5846 6.56439C42.6934 6.60246 42.8075 6.61883 42.9272 6.61883C43.0196 6.61883 43.0904 6.61338 43.1502 6.6025C43.2046 6.59162 43.2536 6.58616 43.2862 6.57528L43.4546 7.31492C43.4002 7.33668 43.3242 7.35849 43.2209 7.37481C43.123 7.402 42.9979 7.41285 42.8456 7.41285C42.6118 7.41285 42.3832 7.36389 42.1602 7.26055C41.9427 7.16266 41.7579 7.0104 41.6111 6.80917C41.4697 6.6025 41.3989 6.34686 41.3989 6.03686V0.723313ZM45.5267 4.1279V7.34214H44.7056V0.223002H45.5267V2.83895H45.5976C45.7227 2.56158 45.9075 2.34405 46.1577 2.18089C46.4133 2.01774 46.7504 1.93074 47.1692 1.93074C47.5336 1.93074 47.8492 2.00683 48.1265 2.15367C48.3985 2.29508 48.6104 2.51811 48.7572 2.81724C48.9149 3.11092 48.9912 3.4916 48.9912 3.94845V7.34214H48.1701V4.00282C48.1701 3.57861 48.0611 3.25232 47.8381 3.01846C47.6206 2.7846 47.3161 2.67038 46.9299 2.67038C46.6634 2.67038 46.4241 2.72474 46.2065 2.83895C45.9999 2.95316 45.8313 3.12178 45.7062 3.33932C45.5866 3.55687 45.5267 3.8179 45.5267 4.1279ZM53.353 7.34214V0.223002H55.7624C56.3171 0.223002 56.774 0.320863 57.1329 0.527531C57.4864 0.723321 57.7528 0.995242 57.9214 1.33244C58.0954 1.67507 58.1824 2.05583 58.1824 2.4746C58.1824 2.89338 58.0954 3.27407 57.9214 3.6167C57.7528 3.95933 57.4917 4.23671 57.1382 4.43794C56.7847 4.63917 56.328 4.74247 55.7733 4.74247H54.049V3.97567H55.7459C56.1266 3.97567 56.4367 3.91035 56.6706 3.77982C56.899 3.64929 57.0676 3.46982 57.1709 3.2414C57.2797 3.01842 57.3339 2.76285 57.3339 2.4746C57.3339 2.19179 57.2797 1.93616 57.1709 1.70774C57.0676 1.48475 56.8989 1.31073 56.665 1.18021C56.4311 1.04968 56.1212 0.989801 55.735 0.989801H54.2176V7.34214H53.353ZM60.2763 4.1279V7.34214H59.4552V0.223002H60.2763V2.83895H60.347C60.4721 2.56158 60.6624 2.34405 60.9126 2.18089C61.1628 2.01774 61.5 1.93074 61.9188 1.93074C62.2832 1.93074 62.6042 2.00683 62.8761 2.15367C63.1481 2.29508 63.3601 2.51811 63.5124 2.81724C63.6647 3.11092 63.7408 3.4916 63.7408 3.94845V7.34214H62.9194V4.00282C62.9194 3.57861 62.8107 3.25232 62.5877 3.01846C62.3702 2.7846 62.071 2.67038 61.6848 2.67038C61.4129 2.67038 61.1738 2.72474 60.9617 2.83895C60.7496 2.95316 60.5808 3.12178 60.4612 3.33932C60.3361 3.55687 60.2763 3.8179 60.2763 4.1279ZM67.4119 7.45089C66.9278 7.45089 66.5036 7.33668 66.1446 7.10825C65.7802 6.87983 65.4974 6.55901 65.2962 6.14567C65.0895 5.73234 64.9916 5.25372 64.9916 4.69898C64.9916 4.14424 65.0895 3.66017 65.2962 3.2414C65.4974 2.82806 65.7802 2.50717 66.1446 2.27875C66.5036 2.04489 66.9278 1.93074 67.4119 1.93074C67.8905 1.93074 68.3147 2.04489 68.6791 2.27875C69.0381 2.50717 69.3208 2.82806 69.522 3.2414C69.7287 3.66017 69.8319 4.14424 69.8319 4.69898C69.8319 5.25372 69.7287 5.73234 69.522 6.14567C69.3208 6.55901 69.0381 6.87983 68.6791 7.10825C68.3147 7.33668 67.8905 7.45089 67.4119 7.45089ZM67.4119 6.71669C67.7763 6.71669 68.0809 6.62422 68.3148 6.43387C68.5486 6.24896 68.728 5.99879 68.8422 5.69422C68.9509 5.38966 69.0108 5.05793 69.0108 4.69898C69.0108 4.34547 68.9509 4.0083 68.8422 3.70374C68.728 3.39373 68.5486 3.14355 68.3148 2.9532C68.0809 2.76285 67.7763 2.67038 67.4119 2.67038C67.0475 2.67038 66.7428 2.76285 66.509 2.9532C66.2697 3.14355 66.0958 3.39373 65.9816 3.70374C65.8674 4.0083 65.8129 4.34547 65.8129 4.69898C65.8129 5.05793 65.8674 5.38966 65.9816 5.69422C66.0958 5.99879 66.2697 6.24896 66.509 6.43387C66.7428 6.62422 67.0475 6.71669 67.4119 6.71669ZM71.904 4.1279V7.34214H71.0829V2.00144H71.877V2.83895H71.9476C72.0727 2.56702 72.2576 2.34949 72.5132 2.18089C72.7688 2.01774 73.1005 1.93074 73.503 1.93074C73.8619 1.93074 74.1829 2.00683 74.4494 2.15367C74.7213 2.30052 74.9334 2.52349 75.0857 2.82261C75.2325 3.12174 75.3088 3.49704 75.3088 3.94845V7.34214H74.4874V4.00282C74.4874 3.58405 74.3788 3.25777 74.1613 3.02391C73.9437 2.79005 73.6444 2.67038 73.2637 2.67038C73.0026 2.67038 72.7688 2.72474 72.5621 2.83895C72.3609 2.95316 72.1979 3.12178 72.0782 3.33932C71.964 3.55687 71.904 3.8179 71.904 4.1279ZM79.0505 7.45089C78.5338 7.45089 78.0877 7.34212 77.7179 7.1137C77.3481 6.88528 77.0601 6.56445 76.8588 6.15112C76.6576 5.74322 76.5595 5.25917 76.5595 4.71531C76.5595 4.16601 76.6576 3.68739 76.8588 3.26862C77.0601 2.84984 77.3428 2.5235 77.7017 2.28964C78.0607 2.05034 78.4848 1.93074 78.9634 1.93074C79.2407 1.93074 79.5181 1.97969 79.79 2.07215C80.062 2.1646 80.3069 2.31686 80.5299 2.52353C80.7529 2.7302 80.9269 3.00213 81.0629 3.34477C81.1934 3.6874 81.2586 4.10614 81.2586 4.60106V4.94914H77.1416V4.24215H80.4263C80.4263 3.93759 80.3666 3.67104 80.2415 3.43718C80.1273 3.19788 79.9589 3.01302 79.7359 2.87705C79.5183 2.73565 79.2625 2.67038 78.9634 2.67038C78.637 2.67038 78.3542 2.75194 78.1149 2.9151C77.8811 3.07282 77.6961 3.2795 77.571 3.54055C77.4405 3.79617 77.3809 4.07355 77.3809 4.36723V4.84039C77.3809 5.24285 77.4515 5.58548 77.5875 5.86285C77.7289 6.14022 77.9248 6.35229 78.1749 6.49913C78.4251 6.64597 78.7187 6.71669 79.0505 6.71669C79.2626 6.71669 79.4583 6.6841 79.6323 6.62427C79.8063 6.56445 79.9588 6.47199 80.0893 6.3469C80.2144 6.22181 80.3123 6.06948 80.383 5.88456L81.1771 6.10212C81.09 6.37405 80.9539 6.60795 80.7527 6.81461C80.5569 7.01584 80.3123 7.17356 80.024 7.28777C79.7358 7.39654 79.4094 7.45089 79.0505 7.45089Z" fill="black"/>
</svg>
