<svg width="37" height="13" viewBox="0 0 37 13" fill="none" xmlns="http://www.w3.org/2000/svg">
<path d="M0 9.95271V0.462336H1.71843V8.51146H5.9007V9.95271H0ZM10.4258 10.0941C9.72966 10.0941 9.1258 9.93641 8.62001 9.63185C8.10878 9.32729 7.71179 8.89764 7.42898 8.34834C7.15161 7.79904 7.01577 7.15726 7.01577 6.42305C7.01577 5.6834 7.15161 5.04161 7.42898 4.48687C7.71179 3.93213 8.10878 3.50248 8.62001 3.19791C9.1258 2.89335 9.72966 2.74109 10.4258 2.74109C11.1219 2.74109 11.7255 2.89335 12.2313 3.19791C12.7426 3.50248 13.1397 3.93213 13.417 4.48687C13.6944 5.04161 13.8358 5.6834 13.8358 6.42305C13.8358 7.15726 13.6944 7.79904 13.417 8.34834C13.1397 8.89764 12.7426 9.32729 12.2313 9.63185C11.7255 9.93641 11.1219 10.0941 10.4258 10.0941ZM10.4367 8.74535C10.812 8.74535 11.1274 8.64198 11.3776 8.43531C11.6332 8.22865 11.8236 7.94588 11.9432 7.59237C12.0737 7.23886 12.1333 6.84726 12.1333 6.4176C12.1333 5.98251 12.0737 5.58547 11.9432 5.23195C11.8236 4.87844 11.6332 4.59567 11.3776 4.38356C11.1274 4.1769 10.812 4.06815 10.4367 4.06815C10.0505 4.06815 9.72952 4.1769 9.46847 4.38356C9.21829 4.59567 9.02792 4.87844 8.90283 5.23195C8.77774 5.58547 8.71269 5.98251 8.71269 6.4176C8.71269 6.84726 8.77774 7.23886 8.90283 7.59237C9.02792 7.94588 9.21829 8.22865 9.46847 8.43531C9.72952 8.64198 10.0505 8.74535 10.4367 8.74535ZM18.3554 12.7699C17.7571 12.7699 17.235 12.6883 16.8053 12.5252C16.3702 12.362 16.0222 12.1499 15.7611 11.878C15.5001 11.6061 15.3152 11.3015 15.2173 10.9752L16.7238 10.6053C16.7945 10.7467 16.8923 10.8827 17.0228 11.0187C17.1533 11.1601 17.3273 11.2743 17.5449 11.3613C17.7679 11.4538 18.0507 11.5027 18.3824 11.5027C18.861 11.5027 19.2527 11.383 19.5682 11.1546C19.8782 10.9262 20.0358 10.5455 20.0358 10.0234V8.67465H19.9543C19.8673 8.84868 19.7366 9.02271 19.5735 9.20762C19.4103 9.3871 19.1874 9.53936 18.9154 9.66445C18.6489 9.78954 18.3118 9.84941 17.9039 9.84941C17.3546 9.84941 16.8596 9.72428 16.4136 9.46867C15.9731 9.20761 15.6196 8.82146 15.3585 8.30479C15.0975 7.79356 14.9671 7.1464 14.9671 6.36868C14.9671 5.58551 15.0975 4.92743 15.3585 4.38901C15.6196 3.85058 15.9732 3.44268 16.4192 3.15987C16.8651 2.8825 17.3599 2.74109 17.9092 2.74109C18.3226 2.74109 18.6653 2.8118 18.9372 2.9532C19.2091 3.09461 19.4266 3.26323 19.5844 3.45902C19.7475 3.65481 19.8673 3.83967 19.9543 4.00826H20.0467V2.83357H21.7001V10.0669C21.7001 10.676 21.5531 11.1818 21.2648 11.5789C20.9711 11.9759 20.5741 12.275 20.0738 12.4762C19.568 12.672 18.9971 12.7699 18.3554 12.7699ZM18.3716 8.53324C18.7251 8.53324 19.0296 8.44623 19.2798 8.27219C19.5299 8.1036 19.7205 7.85342 19.851 7.52711C19.9815 7.20623 20.0467 6.81463 20.0467 6.35779C20.0467 5.91182 19.9815 5.52022 19.851 5.18303C19.7259 4.84583 19.5355 4.58481 19.2853 4.3999C19.0352 4.20954 18.7305 4.11708 18.3716 4.11708C17.9963 4.11708 17.6862 4.21499 17.436 4.41078C17.1858 4.60114 16.9957 4.87305 16.8706 5.21025C16.7401 5.54744 16.6802 5.93357 16.6802 6.35779C16.6802 6.79832 16.7401 7.17901 16.8706 7.50533C17.0012 7.83165 17.1914 8.08184 17.4416 8.26675C17.6918 8.44623 18.0017 8.53324 18.3716 8.53324ZM26.6546 9.95271V2.83357H28.335V9.95271H26.6546ZM27.4975 1.82199C27.2364 1.82199 27.0081 1.73492 26.8123 1.56088C26.622 1.38141 26.5295 1.1639 26.5295 0.913718C26.5295 0.658103 26.622 0.445967 26.8123 0.271931C27.0081 0.0924566 27.2364 0 27.4975 0C27.7694 0 27.9978 0.0924566 28.1882 0.271931C28.3785 0.445967 28.471 0.658103 28.471 0.913718C28.471 1.1639 28.3785 1.38141 28.1882 1.56088C27.9978 1.73492 27.7694 1.82199 27.4975 1.82199ZM31.7397 5.78126V9.95271H30.0593V2.83357H31.6635V4.04093H31.7451C31.9082 3.64391 32.1747 3.32847 32.5282 3.09461C32.8926 2.85531 33.3387 2.74109 33.8716 2.74109C34.3611 2.74109 34.7907 2.8444 35.1551 3.0565C35.5195 3.26317 35.8079 3.56776 36.0091 3.97022C36.2103 4.36724 36.3136 4.8513 36.3081 5.41692V9.95271H34.6277V5.67796C34.6277 5.2048 34.5079 4.82951 34.2578 4.56301C34.013 4.29108 33.6759 4.16056 33.2463 4.16056C32.9526 4.16056 32.6915 4.22581 32.4631 4.3509C32.2347 4.48143 32.0552 4.66635 31.9301 4.90565C31.7996 5.14495 31.7397 5.43863 31.7397 5.78126Z" fill="black"/>
</svg>
