<svg width="64" height="9" viewBox="0 0 64 9" fill="none" xmlns="http://www.w3.org/2000/svg">
<path d="M0.804906 6.52635H0L2.32775 0.195849H3.11632L5.43863 6.52635H4.63916L2.74653 1.19647H2.69754L0.804906 6.52635ZM1.10406 4.05175H4.34001V4.73158H1.10406V4.05175ZM7.05932 3.67107V6.52635H6.32506V1.77844H7.03211V2.52346H7.09199C7.2062 2.27873 7.37477 2.08847 7.60319 1.94163C7.82617 1.79478 8.11992 1.71856 8.47886 1.71856C8.79974 1.71856 9.08245 1.78388 9.32174 1.91441C9.56104 2.04493 9.75141 2.24077 9.88194 2.50726C10.0179 2.77376 10.0832 3.10543 10.0832 3.50789V6.52635H9.35441V3.56233C9.35441 3.18706 9.2565 2.89876 9.06615 2.68665C8.87036 2.47998 8.60388 2.3713 8.26668 2.3713C8.03282 2.3713 7.82621 2.42557 7.64674 2.52346C7.46183 2.6268 7.3204 2.77367 7.21707 2.96402C7.10829 3.15981 7.05932 3.3937 7.05932 3.67107ZM12.8134 6.6351C12.5143 6.6351 12.2424 6.58068 11.9976 6.46647C11.7529 6.35226 11.5571 6.18914 11.4102 5.9716C11.2688 5.75405 11.1982 5.48758 11.1982 5.17758C11.1982 4.90565 11.247 4.68813 11.3558 4.51953C11.4646 4.34549 11.606 4.21497 11.7855 4.11708C11.9649 4.01918 12.1608 3.9484 12.3783 3.89945C12.5959 3.8505 12.8188 3.81245 13.0364 3.77982C13.3246 3.74719 13.5585 3.72005 13.738 3.69829C13.9174 3.67654 14.0534 3.64394 14.135 3.59499C14.2166 3.55148 14.2601 3.46436 14.2601 3.35014V3.32306C14.2601 3.0185 14.1785 2.78461 14.0099 2.61601C13.8467 2.44741 13.5965 2.36041 13.2593 2.36041C12.9112 2.36041 12.6393 2.43651 12.4381 2.58879C12.2423 2.74107 12.1063 2.90418 12.0247 3.07821L11.3341 2.82806C11.4538 2.53981 11.6223 2.31684 11.8236 2.15912C12.0357 1.99596 12.2587 1.88181 12.5034 1.81655C12.7536 1.75128 12.9984 1.71856 13.2377 1.71856C13.3899 1.71856 13.564 1.73493 13.7597 1.773C13.961 1.81107 14.1512 1.88172 14.3361 1.99049C14.5265 2.1047 14.6788 2.27339 14.8039 2.49638C14.929 2.71936 14.9889 3.02388 14.9889 3.39914V6.52635H14.2601V5.88463H14.222C14.173 5.98796 14.0915 6.09666 13.9772 6.21631C13.863 6.33052 13.7053 6.43388 13.5149 6.51546C13.3246 6.59704 13.0908 6.6351 12.8134 6.6351ZM12.9276 5.98249C13.2159 5.98249 13.4551 5.92807 13.6563 5.81386C13.8575 5.69965 14.0044 5.55277 14.1078 5.3733C14.2111 5.19382 14.2601 5.00358 14.2601 4.80779V4.13885C14.2274 4.17692 14.1621 4.20952 14.0588 4.24215C13.9554 4.26935 13.8358 4.29648 13.6999 4.31824C13.5639 4.33999 13.4334 4.3618 13.3083 4.37812C13.1778 4.389 13.0798 4.39991 12.9983 4.41078C12.8079 4.43798 12.6339 4.47604 12.4707 4.53586C12.3076 4.58481 12.1716 4.66636 12.0737 4.77513C11.9758 4.8839 11.9269 5.03078 11.9269 5.21569C11.9269 5.4713 12.0193 5.66156 12.2042 5.79208C12.3946 5.91717 12.6339 5.98249 12.9276 5.98249ZM17.05 0.195849V6.52635H16.3213V0.195849H17.05ZM18.8557 8.30479C18.7306 8.30479 18.6219 8.29389 18.524 8.27757C18.4261 8.25582 18.3608 8.23957 18.3227 8.21782L18.5077 7.57597C18.6871 7.62491 18.8448 7.64128 18.9807 7.62496C19.1167 7.61409 19.2365 7.55422 19.3398 7.44545C19.4486 7.33667 19.5463 7.16266 19.6334 6.92336L19.7693 6.55357L18.0127 1.77844H18.8068L20.1175 5.5637H20.1665L21.4771 1.77844H22.2657L20.2534 7.21707C20.161 7.4618 20.0521 7.6684 19.9162 7.82612C19.7802 7.98928 19.628 8.10902 19.4485 8.1906C19.2745 8.26674 19.0787 8.30479 18.8557 8.30479ZM23.0924 6.52635V5.9716L25.7899 2.50726V2.45827H23.1794V1.77844H26.7253V2.36041L24.1095 5.79753V5.84652H26.8124V6.52635H23.0924ZM29.7928 6.62421C29.336 6.62421 28.9388 6.52641 28.6071 6.31975C28.2808 6.11852 28.0252 5.83568 27.8457 5.47129C27.6663 5.10146 27.5792 4.67719 27.5792 4.18771C27.5792 3.70368 27.6663 3.2741 27.8457 2.90427C28.0252 2.53445 28.2754 2.24071 28.5909 2.03404C28.9118 1.82193 29.2869 1.71856 29.7166 1.71856C29.9668 1.71856 30.2116 1.75662 30.4509 1.84364C30.6902 1.92521 30.9131 2.05586 31.1089 2.24078C31.3047 2.42569 31.4625 2.67035 31.5821 2.97491C31.6963 3.27404 31.7561 3.64933 31.7561 4.08986V4.3999H28.0959V3.76893H31.0165C31.0165 3.50244 30.9621 3.26323 30.8533 3.05113C30.75 2.84446 30.5977 2.67578 30.4019 2.55613C30.2115 2.43648 29.9831 2.3713 29.7166 2.3713C29.4283 2.3713 29.1782 2.44739 28.9661 2.58879C28.754 2.73019 28.5908 2.91512 28.4766 3.14354C28.3678 3.37196 28.3081 3.62207 28.3081 3.88312V4.3019C28.3081 4.66085 28.3678 4.96551 28.4929 5.21569C28.618 5.46043 28.792 5.65079 29.015 5.77588C29.238 5.90641 29.4991 5.9716 29.7928 5.9716C29.9832 5.9716 30.1572 5.94446 30.3094 5.89007C30.4672 5.83569 30.6031 5.754 30.7173 5.64523C30.8316 5.53102 30.9186 5.39517 30.9784 5.22658L31.6854 5.42774C31.6093 5.66704 31.4842 5.87366 31.3102 6.05857C31.1362 6.23804 30.9185 6.37402 30.6575 6.47735C30.4018 6.57525 30.1137 6.62421 29.7928 6.62421ZM35.313 6.52635V1.77844H36.0418V6.52635H35.313ZM35.6827 0.989867C35.5413 0.989867 35.4217 0.940909 35.3184 0.843013C35.2151 0.745118 35.1661 0.630833 35.1661 0.494867C35.1661 0.358901 35.2151 0.244749 35.3184 0.146853C35.4217 0.0489582 35.5413 0 35.6827 0C35.8242 0 35.9493 0.0489582 36.0472 0.146853C36.1506 0.244749 36.205 0.358901 36.205 0.494867C36.205 0.630833 36.1506 0.745118 36.0472 0.843013C35.9493 0.940909 35.8242 0.989867 35.6827 0.989867ZM37.3797 6.52635V1.77844H38.0813V2.52346H38.1465C38.2444 2.26785 38.4021 2.07214 38.6251 1.93074C38.8427 1.78933 39.1091 1.71856 39.4191 1.71856C39.7291 1.71856 39.9902 1.78933 40.2023 1.93074C40.4089 2.07214 40.5722 2.26785 40.6918 2.52346H40.7407C40.8603 2.27873 41.0453 2.08303 41.29 1.93618C41.5293 1.78934 41.823 1.71856 42.1602 1.71856C42.5844 1.71856 42.9325 1.84907 43.2044 2.11557C43.4709 2.38206 43.6069 2.78997 43.6069 3.35014V6.52635H42.8782V3.35014C42.8782 3.00207 42.7857 2.74652 42.5899 2.59968C42.3996 2.4474 42.1766 2.3713 41.9155 2.3713C41.5838 2.3713 41.3226 2.47453 41.1377 2.67576C40.9582 2.87699 40.8658 3.12725 40.8658 3.43725V6.52635H40.1208V3.27406C40.1208 3.00757 40.0337 2.79005 39.8597 2.62145C39.6857 2.4583 39.4573 2.3713 39.1853 2.3713C38.995 2.3713 38.8155 2.42557 38.6523 2.52346C38.4892 2.6268 38.3587 2.76821 38.2553 2.94225C38.1574 3.12172 38.1085 3.32846 38.1085 3.56233V6.52635H37.3797ZM46.3371 6.6351C46.0379 6.6351 45.766 6.58068 45.5213 6.46647C45.2765 6.35226 45.0807 6.18914 44.9339 5.9716C44.7924 5.75405 44.7218 5.48758 44.7218 5.17758C44.7218 4.90565 44.7708 4.68813 44.8795 4.51953C44.9883 4.34549 45.1297 4.21497 45.3092 4.11708C45.4887 4.01918 45.6844 3.9484 45.9019 3.89945C46.1195 3.8505 46.3425 3.81245 46.56 3.77982C46.8482 3.74719 47.0821 3.72005 47.2616 3.69829C47.4465 3.67654 47.577 3.64394 47.6586 3.59499C47.7402 3.55148 47.7837 3.46436 47.7837 3.35014V3.32306C47.7837 3.0185 47.7021 2.78461 47.5335 2.61601C47.3704 2.44741 47.1203 2.36041 46.7831 2.36041C46.435 2.36041 46.1631 2.43651 45.9673 2.58879C45.766 2.74107 45.6301 2.90418 45.5485 3.07821L44.8578 2.82806C44.9774 2.53981 45.146 2.31684 45.3472 2.15912C45.5593 1.99596 45.7823 1.88181 46.027 1.81655C46.2772 1.75128 46.522 1.71856 46.7613 1.71856C46.9136 1.71856 47.0876 1.73493 47.2834 1.773C47.4846 1.81107 47.675 1.88172 47.8599 1.99049C48.0503 2.1047 48.2025 2.27339 48.3275 2.49638C48.4526 2.71936 48.5125 3.02388 48.5125 3.39914V6.52635H47.7837V5.88463H47.7457C47.6968 5.98796 47.6152 6.09666 47.501 6.21631C47.3868 6.33052 47.2345 6.43388 47.0387 6.51546C46.8483 6.59704 46.6144 6.6351 46.3371 6.6351ZM46.4513 5.98249C46.7395 5.98249 46.9788 5.92807 47.1801 5.81386C47.3813 5.69965 47.5282 5.55277 47.6315 5.3733C47.7349 5.19382 47.7837 5.00358 47.7837 4.80779V4.13885C47.7565 4.17692 47.6859 4.20952 47.5825 4.24215C47.4792 4.26935 47.3596 4.29648 47.2236 4.31824C47.0877 4.33999 46.957 4.3618 46.8319 4.37812C46.7068 4.389 46.6036 4.39991 46.522 4.41078C46.3371 4.43798 46.1576 4.47604 45.9945 4.53586C45.8313 4.58481 45.6954 4.66636 45.5975 4.77513C45.4996 4.8839 45.4506 5.03078 45.4506 5.21569C45.4506 5.4713 45.5431 5.66156 45.728 5.79208C45.9184 5.91717 46.1576 5.98249 46.4513 5.98249ZM51.7594 8.40265C51.4113 8.40265 51.1068 8.35914 50.8511 8.26668C50.601 8.17966 50.3889 8.06551 50.2203 7.91867C50.0517 7.77183 49.9211 7.61949 49.8177 7.45089L50.3997 7.04299C50.465 7.13001 50.552 7.23337 50.6499 7.34214C50.7532 7.45635 50.8892 7.55427 51.0632 7.63585C51.2427 7.72287 51.4765 7.76093 51.7594 7.76093C52.1455 7.76093 52.4609 7.66847 52.7111 7.48355C52.9613 7.29864 53.0809 7.01034 53.0809 6.61332V5.65067H53.0212C52.9668 5.73769 52.8907 5.84107 52.7928 5.9716C52.6949 6.09669 52.5589 6.20552 52.374 6.30886C52.1891 6.40131 51.9443 6.45027 51.6397 6.45027C51.2536 6.45027 50.911 6.36325 50.6064 6.17834C50.3019 5.99886 50.0625 5.7377 49.8831 5.38963C49.709 5.04156 49.622 4.62288 49.622 4.12796C49.622 3.64393 49.709 3.21967 49.8776 2.86072C50.0516 2.49633 50.2855 2.2135 50.5955 2.01771C50.9001 1.81648 51.2481 1.71856 51.6506 1.71856C51.9606 1.71856 52.2054 1.76752 52.3849 1.87085C52.5698 1.97419 52.7112 2.08847 52.8037 2.219C52.907 2.34409 52.9831 2.45277 53.032 2.53435H53.1081V1.77844H53.8152V6.66232C53.8152 7.07021 53.7227 7.40201 53.5324 7.65763C53.3529 7.91324 53.1028 8.10361 52.7928 8.22326C52.4828 8.34291 52.1401 8.40265 51.7594 8.40265ZM51.7376 5.79753C52.0313 5.79753 52.2761 5.73233 52.4773 5.59637C52.6785 5.4604 52.8309 5.27002 52.9396 5.01984C53.043 4.76966 53.0972 4.46515 53.0972 4.11708C53.0972 3.77444 53.043 3.46979 52.9396 3.20874C52.8363 2.94768 52.684 2.74652 52.4827 2.59423C52.2815 2.44739 52.0313 2.3713 51.7376 2.3713C51.4276 2.3713 51.172 2.45285 50.9653 2.61057C50.7587 2.76285 50.6063 2.9749 50.503 3.23595C50.4051 3.50245 50.3508 3.7962 50.3508 4.11708C50.3508 4.44339 50.4051 4.737 50.5084 4.99262C50.6118 5.2428 50.7641 5.43864 50.9708 5.58548C51.1774 5.72688 51.433 5.79753 51.7376 5.79753ZM57.1382 6.62421C56.6814 6.62421 56.2843 6.52641 55.9525 6.31975C55.6262 6.11852 55.3706 5.83568 55.1912 5.47129C55.0117 5.10146 54.9247 4.67719 54.9247 4.18771C54.9247 3.70368 55.0117 3.2741 55.1912 2.90427C55.3706 2.53445 55.6207 2.24071 55.9362 2.03404C56.2625 1.82193 56.6378 1.71856 57.062 1.71856C57.3122 1.71856 57.557 1.75662 57.7963 1.84364C58.0356 1.92521 58.2585 2.05586 58.4543 2.24078C58.6501 2.42569 58.8078 2.67035 58.9274 2.97491C59.0471 3.27404 59.1015 3.64933 59.1015 4.08986V4.3999H55.4468V3.76893H58.3619C58.3619 3.50244 58.3075 3.26323 58.1987 3.05113C58.0954 2.84446 57.9431 2.67578 57.7473 2.55613C57.5569 2.43648 57.3285 2.3713 57.062 2.3713C56.7738 2.3713 56.5237 2.44739 56.3115 2.58879C56.0994 2.73019 55.9362 2.91512 55.822 3.14354C55.7132 3.37196 55.6535 3.62207 55.6535 3.88312V4.3019C55.6535 4.66085 55.7187 4.96551 55.8383 5.21569C55.9634 5.46043 56.1374 5.65079 56.3604 5.77588C56.5834 5.90641 56.8445 5.9716 57.1382 5.9716C57.3286 5.9716 57.5026 5.94446 57.6549 5.89007C57.8126 5.83569 57.9486 5.754 58.0628 5.64523C58.177 5.53102 58.264 5.39517 58.3238 5.22658L59.0309 5.42774C58.9547 5.66704 58.8295 5.87366 58.6555 6.05857C58.4815 6.23804 58.2639 6.37402 58.0083 6.47735C57.7473 6.57525 57.4591 6.62421 57.1382 6.62421ZM63.572 2.84439L62.9194 3.02935C62.8759 2.92058 62.816 2.81176 62.7345 2.70842C62.6583 2.60509 62.5496 2.51809 62.4137 2.45283C62.2777 2.38212 62.1037 2.34952 61.8916 2.34952C61.6033 2.34952 61.3586 2.41472 61.1682 2.55068C60.9779 2.68121 60.8799 2.8499 60.8799 3.05113C60.8799 3.23604 60.9453 3.37733 61.0758 3.48067C61.2118 3.58944 61.4184 3.67645 61.6957 3.74715L62.4028 3.91578C62.827 4.01912 63.1424 4.1769 63.3491 4.38901C63.5558 4.60111 63.6591 4.87304 63.6591 5.2048C63.6591 5.47673 63.5829 5.72139 63.4252 5.93349C63.2729 6.1456 63.0554 6.31429 62.778 6.43938C62.5006 6.56447 62.1743 6.62421 61.8045 6.62421C61.3204 6.62421 60.9234 6.52096 60.6026 6.30886C60.2871 6.10219 60.086 5.79209 60.0044 5.38963L60.695 5.21569C60.7602 5.4713 60.8854 5.66156 61.0703 5.79208C61.2553 5.91717 61.4945 5.98249 61.7936 5.98249C62.1362 5.98249 62.4027 5.91184 62.6039 5.765C62.8052 5.61815 62.9085 5.44401 62.9085 5.24278C62.9085 5.07418 62.8487 4.93821 62.7345 4.82943C62.6203 4.71522 62.4408 4.62822 62.2015 4.57384L61.4129 4.38901C60.9778 4.28567 60.6569 4.12788 60.4557 3.91034C60.249 3.69279 60.1511 3.41542 60.1511 3.0891C60.1511 2.82261 60.2273 2.58328 60.3742 2.38205C60.5265 2.17539 60.7385 2.01228 60.9996 1.89263C61.2606 1.77842 61.5598 1.71856 61.8916 1.71856C62.3647 1.71856 62.7346 1.82193 63.0011 2.0286C63.2676 2.23526 63.4633 2.5072 63.572 2.84439Z" fill="black"/>
</svg>
