<svg width="9" height="9" viewBox="0 0 9 9" fill="none" xmlns="http://www.w3.org/2000/svg">
<path d="M1.52829 5.10137C1.22916 5.10137 0.930005 5.1885 0.679828 5.3571C0.429651 5.5257 0.23384 5.765 0.11419 6.04237C-2.12411e-05 6.32518 -0.0271666 6.62968 0.0272197 6.9288C0.0870446 7.22249 0.233898 7.49439 0.446004 7.71193C0.663549 7.92404 0.935449 8.07089 1.22913 8.13072C1.52826 8.1851 1.8382 8.15796 2.11557 8.04375C2.39294 7.9241 2.63224 7.72829 2.80084 7.47811C2.96944 7.22793 3.06188 6.92878 3.06188 6.62965C3.06188 6.22176 2.89881 5.83562 2.61057 5.54737C2.32232 5.25912 1.93618 5.10137 1.52829 5.10137ZM1.52829 7.47811C1.35969 7.47811 1.19647 7.42916 1.05506 7.3367C0.919096 7.2388 0.810419 7.1083 0.745155 6.95602C0.679892 6.7983 0.663528 6.62962 0.69616 6.46102C0.728792 6.29786 0.810334 6.14569 0.929984 6.02604C1.04963 5.90639 1.1965 5.83016 1.3651 5.79753C1.52826 5.75946 1.70224 5.78125 1.85452 5.84108C2.01224 5.90634 2.14288 6.01516 2.23533 6.15656C2.32779 6.29797 2.38205 6.46105 2.38205 6.62965C2.38205 6.85264 2.28962 7.07023 2.1319 7.22795C1.96874 7.39111 1.75671 7.47811 1.52829 7.47811ZM0.0978581 3.15987L0.707048 2.55068L0.0978581 1.94163C0.0380332 1.87636 0 1.78937 0 1.69691C0 1.6099 0.0380332 1.52278 0.0978581 1.45751C0.163122 1.39769 0.250113 1.35966 0.34257 1.35966C0.429588 1.35966 0.516707 1.39769 0.58197 1.45751L1.19103 2.0667L1.80022 1.45751C1.86548 1.39769 1.94703 1.35966 2.03948 1.35966C2.13194 1.35966 2.21893 1.39769 2.27875 1.45751C2.34402 1.52278 2.38205 1.6099 2.38205 1.69691C2.38205 1.78937 2.34402 1.87636 2.27875 1.94163L1.6697 2.55068L2.27875 3.15987C2.34402 3.22514 2.38205 3.30668 2.38205 3.39914C2.38205 3.4916 2.34402 3.57314 2.27875 3.63841C2.21893 3.70367 2.13194 3.74171 2.03948 3.74171C1.94703 3.74171 1.86548 3.70367 1.80022 3.63841L1.19103 3.02935L0.58197 3.63841C0.516707 3.70367 0.429588 3.74171 0.34257 3.74171C0.250113 3.74171 0.163122 3.70367 0.0978581 3.63841C0.0380332 3.57314 0 3.4916 0 3.39914C0 3.30668 0.0380332 3.22514 0.0978581 3.15987ZM8.06008 7.23884C8.09271 7.27147 8.1144 7.30408 8.13072 7.34759C8.14703 7.3911 8.15794 7.4346 8.15794 7.47811C8.15794 7.52162 8.14703 7.56512 8.13072 7.60863C8.1144 7.65214 8.09271 7.68475 8.06008 7.71738C8.02745 7.75001 7.9894 7.77728 7.94589 7.79359C7.90782 7.80991 7.86419 7.82068 7.82068 7.82068C7.77173 7.82068 7.72823 7.80991 7.69016 7.79359C7.64665 7.77728 7.6086 7.75001 7.57597 7.71738L6.96691 7.10832L6.35772 7.71738C6.2979 7.78264 6.21091 7.82068 6.11845 7.82068C6.026 7.82068 5.94445 7.78264 5.87919 7.71738C5.81392 7.65211 5.77588 7.57057 5.77588 7.47811C5.77588 7.38565 5.81392 7.30411 5.87919 7.23884L6.48824 6.62965L5.87919 6.0206C5.81392 5.95533 5.77588 5.86834 5.77588 5.77588C5.77588 5.68887 5.81392 5.60175 5.87919 5.53648C5.94445 5.47666 6.026 5.43863 6.11845 5.43863C6.21091 5.43863 6.2979 5.47666 6.35772 5.53648L6.96691 6.14567L7.57597 5.53648C7.64123 5.47666 7.72822 5.43863 7.82068 5.43863C7.9077 5.43863 7.99482 5.47666 8.06008 5.53648C8.1199 5.60175 8.15794 5.68887 8.15794 5.77588C8.15794 5.86834 8.1199 5.95533 8.06008 6.0206L7.45089 6.62965L8.06008 7.23884ZM6.14023 3.4318C5.87374 4.38356 5.06331 5.20475 4.1605 5.42774C4.1333 5.43318 4.10616 5.43863 4.07897 5.43863C3.99195 5.43863 3.91585 5.40604 3.85059 5.35166C3.79076 5.29727 3.74715 5.22105 3.74171 5.13947C3.73083 5.05789 3.75264 4.97635 3.79615 4.90565C3.8451 4.84039 3.91586 4.79144 3.992 4.76968C4.66095 4.60109 5.28639 3.96475 5.48218 3.25229C5.61814 2.76281 5.61806 2.02321 4.85666 1.2618L4.7588 1.15836V2.03948C4.7588 2.13194 4.72076 2.21349 4.66094 2.27875C4.59568 2.34402 4.50856 2.38205 4.42154 2.38205C4.32908 2.38205 4.24209 2.34402 4.17683 2.27875C4.117 2.21349 4.07897 2.13194 4.07897 2.03948V0.337258C4.07897 0.250241 4.117 0.163122 4.17683 0.0978581C4.24209 0.0380332 4.32908 0 4.42154 0H6.11845C6.21091 0 6.2979 0.0380332 6.35772 0.0978581C6.42298 0.163122 6.46102 0.250241 6.46102 0.337258C6.46102 0.429715 6.42298 0.516707 6.35772 0.58197C6.2979 0.641795 6.21091 0.679828 6.11845 0.679828H5.23733L5.34077 0.777686C6.11305 1.55541 6.39584 2.49636 6.14023 3.4318Z" fill="#94E9B8"/>
</svg>
