<svg width="11" height="10" viewBox="0 0 11 10" fill="none" xmlns="http://www.w3.org/2000/svg">
<path d="M10.6977 2.75742L5.59637 0.0381076C5.54742 0.0109144 5.49301 0 5.43863 0C5.38424 0 5.32983 0.0109144 5.28088 0.0381076L0.179517 2.75742C0.125131 2.78461 0.0814944 2.82811 0.0488626 2.8825C0.0162309 2.93688 0 2.99675 0 3.05657C0 3.1164 0.0162309 3.17626 0.0488626 3.23064C0.0814944 3.28503 0.125131 3.32853 0.179517 3.35572L1.35966 3.98655V6.04237C1.35966 6.21097 1.41939 6.36873 1.5336 6.49382C2.08834 7.11382 3.33388 8.15263 5.43863 8.15263C6.13477 8.1635 6.82547 8.03288 7.47811 7.7827V9.17502C7.47811 9.26748 7.51628 9.34903 7.5761 9.41429C7.64136 9.47955 7.72835 9.51228 7.81537 9.51228C7.90782 9.51228 7.99468 9.47955 8.05995 9.41429C8.11977 9.34903 8.15794 9.26748 8.15794 9.17502V7.45647C8.59847 7.20085 9.00102 6.87452 9.34365 6.49382C9.45786 6.36873 9.51759 6.21097 9.51759 6.04237V3.98655L10.6977 3.35572C10.7521 3.32853 10.7958 3.28503 10.8284 3.23064C10.861 3.17626 10.8773 3.1164 10.8773 3.05657C10.8773 2.99675 10.861 2.93688 10.8284 2.8825C10.7958 2.82811 10.7521 2.78461 10.6977 2.75742ZM5.43863 7.4728C3.60037 7.4728 2.51808 6.57536 2.03948 6.04237V4.34559L5.28088 6.07503C5.32983 6.10223 5.38424 6.11314 5.43863 6.11314C5.49301 6.11314 5.54742 6.10223 5.59637 6.07503L7.47811 5.07428V7.04313C6.94512 7.2933 6.2653 7.4728 5.43863 7.4728ZM8.83777 6.04237C8.63654 6.26535 8.40811 6.47208 8.15794 6.64612V4.70993L8.83777 4.34559V6.04237ZM7.98931 4.03011L7.97842 4.02466L5.60168 2.75742C5.5201 2.71391 5.42765 2.70845 5.34063 2.73564C5.25906 2.76284 5.18843 2.82269 5.14492 2.89883C5.10141 2.98041 5.09064 3.06741 5.11783 3.15443C5.14502 3.24145 5.1993 3.31221 5.28088 3.35572L7.26593 4.41623L5.43863 5.38976L1.06064 3.05657L5.43863 0.72338L9.81661 3.05657L7.98931 4.03011Z" fill="#92BFFF"/>
</svg>
