<svg width="211" height="8" viewBox="0 0 211 8" fill="none" xmlns="http://www.w3.org/2000/svg">
<path d="M3.99771 1.99049C3.93788 1.81101 3.86138 1.64791 3.76349 1.50107C3.66559 1.35422 3.55144 1.22903 3.42092 1.1257C3.29039 1.0278 3.13807 0.946262 2.96947 0.891876C2.80631 0.83749 2.62152 0.81035 2.42029 0.81035C2.09398 0.81035 1.79464 0.897352 1.52271 1.06595C1.25622 1.23455 1.04415 1.48466 0.886432 1.81642C0.723273 2.14273 0.64743 2.55062 0.64743 3.02922C0.64743 3.50782 0.728712 3.91027 0.886432 4.24202C1.04959 4.57378 1.26724 4.82402 1.53917 4.99262C1.8111 5.16122 2.12121 5.24822 2.46385 5.24822C2.77929 5.24822 3.06212 5.17758 3.30142 5.04162C3.54615 4.90565 3.73653 4.71527 3.86705 4.46509C4.00846 4.21491 4.07366 3.92116 4.07366 3.57853L4.28026 3.62208H2.61628V3.02922H4.7264V3.62208C4.7264 4.07892 4.62848 4.47591 4.43269 4.8131C4.2369 5.1503 3.97003 5.41132 3.63283 5.59623C3.2902 5.78115 2.90437 5.87361 2.46385 5.87361C1.97437 5.87361 1.54478 5.75946 1.16952 5.5256C0.79969 5.29717 0.511528 4.97082 0.30486 4.54117C0.0981927 4.11696 0 3.61115 0 3.02922C0 2.58869 0.0545562 2.19715 0.174206 1.84908C0.293856 1.49557 0.462411 1.1965 0.674517 0.951759C0.892062 0.701583 1.14763 0.511204 1.44676 0.380677C1.74045 0.25015 2.06678 0.184828 2.42029 0.184828C2.71398 0.184828 2.98591 0.228332 3.23609 0.31535C3.4917 0.402368 3.71469 0.527552 3.91592 0.685272C4.11715 0.848431 4.28026 1.03868 4.41623 1.25622C4.54675 1.47921 4.63908 1.724 4.69347 1.99049H3.99771ZM7.52697 5.8845C7.12451 5.8845 6.7822 5.79748 6.49395 5.61801C6.20571 5.43853 5.98247 5.19387 5.82475 4.87299C5.66703 4.55211 5.59106 4.17681 5.59106 3.7526C5.59106 3.32839 5.66703 2.95308 5.82475 2.62677C5.98247 2.30045 6.20012 2.05032 6.47749 1.86541C6.7603 1.6805 7.08638 1.58804 7.46165 1.58804C7.67919 1.58804 7.89166 1.62608 8.10376 1.69678C8.31587 1.77292 8.50599 1.88721 8.68002 2.05037C8.85406 2.20809 8.9899 2.4256 9.09323 2.68665C9.19657 2.95314 9.24566 3.27949 9.24566 3.66563V3.93756H6.04781V3.38825H8.59876C8.59876 3.14895 8.54941 2.9422 8.45696 2.75729C8.3645 2.57237 8.23425 2.43108 8.06021 2.3223C7.89161 2.21897 7.69007 2.16456 7.46165 2.16456C7.20603 2.16456 6.98851 2.22431 6.80359 2.35483C6.61868 2.47448 6.47766 2.63772 6.37976 2.83895C6.27643 3.04018 6.22733 3.25224 6.22733 3.48067V3.85046C6.22733 4.1659 6.28161 4.43237 6.39038 4.64992C6.49916 4.86202 6.65135 5.03071 6.84714 5.14492C7.04293 5.25369 7.27136 5.31355 7.52697 5.31355C7.69557 5.31355 7.84777 5.28629 7.98373 5.24278C8.1197 5.19383 8.23412 5.11774 8.33745 5.02528C8.43535 4.92739 8.51145 4.80765 8.56583 4.66081L9.18034 4.83488C9.11507 5.04155 9.00651 5.22647 8.85423 5.38419C8.70195 5.54191 8.51158 5.66696 8.28859 5.75398C8.06017 5.84099 7.80978 5.8845 7.52697 5.8845ZM12.025 1.64248V2.18634H9.87132V1.64248H12.025ZM10.4964 0.647165H11.1386V4.6065C11.1386 4.78597 11.1601 4.92194 11.2145 5.0144C11.2689 5.10141 11.3395 5.16115 11.4211 5.19378C11.5027 5.22097 11.5953 5.23733 11.6877 5.23733C11.7584 5.23733 11.8184 5.23188 11.8619 5.22644C11.9054 5.21557 11.9431 5.21011 11.9703 5.20467L12.1009 5.77575C12.0574 5.79207 11.9977 5.80843 11.9161 5.82475C11.84 5.84106 11.7421 5.85197 11.6224 5.85197C11.4429 5.85197 11.269 5.81378 11.095 5.73764C10.921 5.65606 10.7795 5.5419 10.6653 5.37874C10.5566 5.22102 10.4964 5.01974 10.4964 4.78044V0.647165ZM18.067 2.57246L17.496 2.73564C17.4579 2.64319 17.4037 2.55073 17.333 2.45827C17.2677 2.36581 17.1701 2.28958 17.0504 2.22976C16.9362 2.16993 16.7835 2.14279 16.5931 2.14279C16.3429 2.14279 16.1313 2.20265 15.9627 2.31686C15.7941 2.43107 15.7067 2.57781 15.7067 2.75729C15.7067 2.91501 15.7667 3.0402 15.8809 3.13265C15.9951 3.22511 16.18 3.30121 16.4248 3.36648L17.0393 3.51333C17.4091 3.60579 17.6866 3.74176 17.8715 3.92667C18.051 4.11158 18.1434 4.35092 18.1434 4.63916C18.1434 4.87846 18.0728 5.09053 17.9368 5.28088C17.8009 5.4658 17.6105 5.61267 17.3712 5.72144C17.1265 5.83022 16.8434 5.8845 16.5225 5.8845C16.0983 5.8845 15.7451 5.79204 15.4677 5.60712C15.1903 5.42221 15.0159 5.15573 14.9398 4.80222L15.5489 4.64992C15.6033 4.8729 15.7124 5.04159 15.8756 5.15581C16.0387 5.26458 16.2454 5.31899 16.5119 5.31899C16.8055 5.31899 17.0447 5.25912 17.2188 5.13403C17.3928 5.0035 17.4854 4.85117 17.4854 4.67169C17.4854 4.53029 17.4309 4.40525 17.333 4.31279C17.2296 4.20946 17.0772 4.1388 16.865 4.08986L16.1746 3.92667C15.7939 3.83421 15.5165 3.69824 15.337 3.50789C15.1576 3.31753 15.0704 3.0782 15.0704 2.78995C15.0704 2.55609 15.1359 2.34948 15.2664 2.17001C15.4024 1.99053 15.5818 1.84911 15.8103 1.74578C16.0441 1.64244 16.3049 1.58804 16.5931 1.58804C17.0065 1.58804 17.3275 1.68049 17.5613 1.85997C17.8006 2.03944 17.9691 2.27877 18.067 2.57246ZM19.1005 5.79753V1.64248H19.7203V2.29508H19.775C19.8621 2.0721 19.9978 1.89809 20.1936 1.77844C20.3839 1.65335 20.6179 1.58804 20.8898 1.58804C21.1618 1.58804 21.3902 1.65335 21.5697 1.77844C21.7546 1.89809 21.9014 2.0721 21.9993 2.29508H22.0429C22.1517 2.07754 22.3093 1.90897 22.5214 1.78389C22.7335 1.65336 22.9892 1.58804 23.2884 1.58804C23.6582 1.58804 23.9626 1.70763 24.2019 1.94149C24.4357 2.16992 24.5556 2.52885 24.5556 3.01833V5.79753H23.9135V3.01833C23.9135 2.71377 23.8319 2.49081 23.6633 2.36028C23.4947 2.22975 23.299 2.16456 23.0706 2.16456C22.7824 2.16456 22.5539 2.25157 22.3908 2.43105C22.2331 2.60509 22.1518 2.82261 22.1518 3.09455V5.79753H21.5043V2.95314C21.5043 2.71928 21.4282 2.5289 21.276 2.38205C21.1182 2.23521 20.9225 2.16456 20.6832 2.16456C20.5146 2.16456 20.3622 2.20807 20.2153 2.29508C20.0739 2.3821 19.9598 2.50715 19.8728 2.66487C19.7857 2.81715 19.7421 2.99662 19.7421 3.20329V5.79753H19.1005ZM26.943 5.89538C26.6819 5.89538 26.4424 5.84643 26.2249 5.74853C26.0128 5.6452 25.8391 5.49846 25.714 5.31355C25.5889 5.11776 25.5233 4.88932 25.5233 4.61739C25.5233 4.37809 25.5726 4.1877 25.6651 4.04086C25.763 3.88858 25.8878 3.77442 26.0401 3.6874C26.1978 3.60582 26.3718 3.54051 26.5622 3.497C26.7525 3.45349 26.9432 3.4209 27.139 3.39914C27.3891 3.36651 27.5957 3.33924 27.7535 3.32293C27.9112 3.30661 28.0253 3.27403 28.096 3.23596C28.1722 3.19245 28.2102 3.12166 28.2102 3.01833V2.99669C28.2102 2.7302 28.134 2.52345 27.9871 2.37661C27.8457 2.22433 27.6281 2.15367 27.3344 2.15367C27.0298 2.15367 26.7909 2.21887 26.6169 2.35483C26.4428 2.48536 26.3232 2.62678 26.2525 2.77906L25.6433 2.56157C25.7521 2.31139 25.8988 2.11556 26.0783 1.97416C26.2578 1.83275 26.4589 1.73483 26.671 1.67501C26.8886 1.62062 27.1005 1.58804 27.3126 1.58804C27.4432 1.58804 27.5959 1.6044 27.7699 1.63703C27.944 1.66966 28.1124 1.73485 28.2755 1.83275C28.4387 1.93064 28.5747 2.07752 28.6834 2.27331C28.7922 2.4691 28.8465 2.73013 28.8465 3.06188V5.79753H28.2102V5.23733H28.1778C28.1343 5.32435 28.058 5.42226 27.9601 5.5256C27.8567 5.62893 27.7261 5.71594 27.5575 5.78664C27.3889 5.85734 27.1823 5.89538 26.943 5.89538ZM27.0407 5.31899C27.2909 5.31899 27.5035 5.27003 27.6775 5.17214C27.8515 5.07424 27.9872 4.94361 28.0742 4.79133C28.1613 4.63361 28.2102 4.46506 28.2102 4.29646V3.70905C28.183 3.74168 28.1232 3.7744 28.0307 3.80159C27.9382 3.82335 27.8349 3.84503 27.7152 3.86679C27.601 3.8831 27.4869 3.89947 27.3726 3.91578C27.2639 3.92666 27.1713 3.93757 27.106 3.94845C26.9374 3.9702 26.7855 4.0028 26.6386 4.05175C26.4972 4.1007 26.3831 4.17135 26.2961 4.26924C26.2091 4.3617 26.1654 4.48676 26.1654 4.64992C26.1654 4.8729 26.2471 5.04159 26.4103 5.15581C26.5789 5.26458 26.7851 5.31899 27.0407 5.31899ZM30.0102 5.79753V1.64248H30.6252V2.27331H30.6687C30.7449 2.06664 30.8862 1.89809 31.082 1.773C31.2777 1.64247 31.5059 1.57715 31.7506 1.57715C31.7996 1.57715 31.8594 1.58259 31.9301 1.58259C32.0009 1.58259 32.0498 1.58804 32.0879 1.58804V2.24064C32.0661 2.23521 32.0174 2.2243 31.9413 2.21342C31.8652 2.20255 31.7835 2.19709 31.6965 2.19709C31.4952 2.19709 31.3156 2.24072 31.1579 2.3223C31.0002 2.40388 30.8754 2.52347 30.7829 2.67032C30.6959 2.81716 30.647 2.98028 30.647 3.17063V5.79753H30.0102ZM34.9108 1.64248V2.18634H32.7571V1.64248H34.9108ZM33.3881 0.647165H34.0243V4.6065C34.0243 4.78597 34.0513 4.92194 34.1003 5.0144C34.1547 5.10141 34.2253 5.16115 34.3069 5.19378C34.3939 5.22097 34.4811 5.23733 34.5735 5.23733C34.6442 5.23733 34.7042 5.23188 34.7477 5.22644C34.7912 5.21557 34.8289 5.21011 34.8561 5.20467L34.9867 5.77575C34.9432 5.79207 34.8833 5.80843 34.8072 5.82475C34.7256 5.84106 34.6278 5.85197 34.5082 5.85197C34.3287 5.85197 34.1548 5.81378 33.9808 5.73764C33.8067 5.65606 33.6653 5.5419 33.5511 5.37874C33.4423 5.22102 33.3881 5.01974 33.3881 4.78044V0.647165ZM37.5648 5.8845C37.1677 5.8845 36.8195 5.79748 36.5312 5.61801C36.243 5.43853 36.0202 5.19387 35.8625 4.87299C35.7102 4.55211 35.6283 4.17681 35.6283 3.7526C35.6283 3.32839 35.7102 2.95308 35.8625 2.62677C36.0202 2.30045 36.2378 2.05032 36.5206 1.86541C36.798 1.6805 37.1296 1.58804 37.4994 1.58804C37.717 1.58804 37.9343 1.62608 38.141 1.69678C38.3531 1.77292 38.5438 1.88721 38.7178 2.05037C38.8918 2.20809 39.0277 2.4256 39.131 2.68665C39.2343 2.95314 39.2888 3.27949 39.2888 3.66563V3.93756H36.0856V3.38825H38.636C38.636 3.14895 38.5926 2.9422 38.4947 2.75729C38.4077 2.57237 38.2719 2.43108 38.1033 2.3223C37.9347 2.21897 37.7333 2.16456 37.4994 2.16456C37.2492 2.16456 37.0263 2.22431 36.8414 2.35483C36.6565 2.47448 36.5149 2.63772 36.417 2.83895C36.3191 3.04018 36.2704 3.25224 36.2704 3.48067V3.85046C36.2704 4.1659 36.3247 4.43237 36.4335 4.64992C36.5423 4.86202 36.6944 5.03071 36.8902 5.14492C37.0806 5.25369 37.3091 5.31355 37.5648 5.31355C37.7334 5.31355 37.8855 5.28629 38.0215 5.24278C38.1575 5.19383 38.2773 5.11774 38.3752 5.02528C38.4731 4.92739 38.5492 4.80765 38.6036 4.66081L39.2234 4.83488C39.1582 5.04155 39.0496 5.22647 38.8973 5.38419C38.7396 5.54191 38.5543 5.66696 38.3258 5.75398C38.1029 5.84099 37.8476 5.8845 37.5648 5.8845ZM40.257 5.79753V1.64248H40.8715V2.27331H40.915C40.9912 2.06664 41.1325 1.89809 41.3282 1.773C41.524 1.64247 41.7522 1.57715 41.9969 1.57715C42.0459 1.57715 42.1057 1.58259 42.1764 1.58259C42.2471 1.58259 42.2961 1.58804 42.3342 1.58804V2.24064C42.3124 2.23521 42.2637 2.2243 42.1876 2.21342C42.1114 2.20255 42.0298 2.19709 41.9427 2.19709C41.7415 2.19709 41.5619 2.24072 41.4042 2.3223C41.2465 2.40388 41.1217 2.52347 41.0292 2.67032C40.9422 2.81716 40.8933 2.98028 40.8933 3.17063V5.79753H40.257ZM45.233 5.79753V1.64248H45.8475V2.27331H45.8911C45.9672 2.06664 46.1036 1.89809 46.3048 1.773C46.5006 1.64247 46.7233 1.57715 46.9735 1.57715C47.0224 1.57715 47.077 1.58259 47.1477 1.58259C47.2184 1.58259 47.2727 1.58804 47.3107 1.58804V2.24064C47.289 2.23521 47.2344 2.2243 47.1583 2.21342C47.0822 2.20255 47.0063 2.19709 46.9193 2.19709C46.7181 2.19709 46.5385 2.24072 46.3807 2.3223C46.223 2.40388 46.0977 2.52347 46.0052 2.67032C45.9128 2.81716 45.8693 2.98028 45.8693 3.17063V5.79753H45.233ZM49.6822 5.8845C49.2797 5.8845 48.937 5.79748 48.6433 5.61801C48.355 5.43853 48.1318 5.19387 47.9741 4.87299C47.8218 4.55211 47.7457 4.17681 47.7457 3.7526C47.7457 3.32839 47.8218 2.95308 47.9741 2.62677C48.1318 2.30045 48.3493 2.05032 48.6321 1.86541C48.9095 1.6805 49.2416 1.58804 49.6168 1.58804C49.8289 1.58804 50.0464 1.62608 50.2531 1.69678C50.4652 1.77292 50.6608 1.88721 50.8294 2.05037C51.0034 2.20809 51.1447 2.4256 51.2426 2.68665C51.3459 2.95314 51.4003 3.27949 51.4003 3.66563V3.93756H48.1972V3.38825H50.7481C50.7481 3.14895 50.7046 2.9422 50.6121 2.75729C50.5197 2.57237 50.3835 2.43108 50.2149 2.3223C50.0463 2.21897 49.8453 2.16456 49.6168 2.16456C49.3612 2.16456 49.1379 2.22431 48.9529 2.35483C48.7735 2.47448 48.6324 2.63772 48.5291 2.83895C48.4312 3.04018 48.382 3.25224 48.382 3.48067V3.85046C48.382 4.1659 48.4363 4.43237 48.545 4.64992C48.6538 4.86202 48.8065 5.03071 49.0023 5.14492C49.1981 5.25369 49.4211 5.31355 49.6822 5.31355C49.8453 5.31355 49.9971 5.28629 50.1331 5.24278C50.269 5.19383 50.3889 5.11774 50.4868 5.02528C50.5847 4.92739 50.6662 4.80765 50.7152 4.66081L51.3355 4.83488C51.2703 5.04155 51.1612 5.22647 51.0089 5.38419C50.8566 5.54191 50.6664 5.66696 50.4379 5.75398C50.215 5.84099 49.9595 5.8845 49.6822 5.8845ZM55.3109 2.57246L54.74 2.73564C54.7019 2.64319 54.6476 2.55073 54.5769 2.45827C54.5117 2.36581 54.4188 2.28958 54.2991 2.22976C54.1795 2.16993 54.0273 2.14279 53.8424 2.14279C53.5868 2.14279 53.3747 2.20265 53.2061 2.31686C53.0375 2.43107 52.956 2.57781 52.956 2.75729C52.956 2.91501 53.0101 3.0402 53.1243 3.13265C53.244 3.22511 53.4234 3.30121 53.6682 3.36648L54.2832 3.51333C54.6585 3.60579 54.93 3.74176 55.1149 3.92667C55.2944 4.11158 55.3869 4.35092 55.3869 4.63916C55.3869 4.87846 55.3162 5.09053 55.1803 5.28088C55.0443 5.4658 54.8594 5.61267 54.6146 5.72144C54.3699 5.83022 54.0873 5.8845 53.7664 5.8845C53.3422 5.8845 52.9885 5.79204 52.7111 5.60712C52.4337 5.42221 52.2599 5.15573 52.1837 4.80222L52.7929 4.64992C52.8473 4.8729 52.9559 5.04159 53.119 5.15581C53.2822 5.26458 53.4942 5.31899 53.7553 5.31899C54.049 5.31899 54.2887 5.25912 54.4627 5.13403C54.6422 5.0035 54.7288 4.85117 54.7288 4.67169C54.7288 4.53029 54.6748 4.40525 54.5769 4.31279C54.4736 4.20946 54.3211 4.1388 54.109 4.08986L53.418 3.92667C53.0373 3.83421 52.7599 3.69824 52.5805 3.50789C52.4064 3.31753 52.3144 3.0782 52.3144 2.78995C52.3144 2.55609 52.3797 2.34948 52.5157 2.17001C52.6462 1.99053 52.8257 1.84911 53.0595 1.74578C53.2879 1.64244 53.5487 1.58804 53.8424 1.58804C54.2503 1.58804 54.5768 1.68049 54.8106 1.85997C55.0445 2.03944 55.213 2.27877 55.3109 2.57246ZM56.3498 7.35303V1.64248H56.9643V2.30597H57.0402C57.0892 2.22983 57.1546 2.14281 57.2362 2.0286C57.3178 1.91439 57.443 1.81646 57.5953 1.724C57.7584 1.63698 57.9702 1.58804 58.2422 1.58804C58.5902 1.58804 58.9003 1.67505 59.1668 1.85452C59.4333 2.02856 59.6402 2.27336 59.7925 2.59423C59.9393 2.91511 60.0155 3.29573 60.0155 3.73082C60.0155 4.17135 59.9393 4.55211 59.7925 4.87299C59.6402 5.19387 59.4333 5.44398 59.1668 5.62345C58.9058 5.79749 58.5959 5.8845 58.2533 5.8845C57.9868 5.8845 57.7689 5.84099 57.6112 5.75398C57.448 5.66152 57.3285 5.55828 57.2415 5.44407C57.1545 5.32986 57.0892 5.23739 57.0402 5.16125H56.9861V7.35303H56.3498ZM56.9749 3.71993C56.9749 4.03538 57.0184 4.31276 57.1109 4.55206C57.2033 4.79136 57.3394 4.97629 57.5135 5.11225C57.6929 5.24278 57.9106 5.31355 58.1662 5.31355C58.4327 5.31355 58.6554 5.24277 58.8349 5.10137C59.0144 4.95996 59.1504 4.76414 59.2375 4.52484C59.3299 4.28554 59.3787 4.01906 59.3787 3.71993C59.3787 3.42625 59.3298 3.16522 59.2428 2.93136C59.1503 2.6975 59.0202 2.50713 58.8407 2.37117C58.6612 2.2352 58.4327 2.16456 58.1662 2.16456C57.9051 2.16456 57.6876 2.22975 57.5082 2.36028C57.3341 2.49081 57.1979 2.67029 57.1109 2.90958C57.0184 3.13801 56.9749 3.40993 56.9749 3.71993ZM62.6748 5.8845C62.2996 5.8845 61.973 5.79748 61.6902 5.61801C61.4073 5.43853 61.1845 5.18842 61.0268 4.86754C60.8691 4.54666 60.7931 4.17136 60.7931 3.74171C60.7931 3.31206 60.8691 2.93131 61.0268 2.61043C61.1845 2.28956 61.4073 2.034 61.6902 1.85997C61.973 1.68049 62.2996 1.58804 62.6748 1.58804C63.0501 1.58804 63.3762 1.68049 63.659 1.85997C63.9418 2.034 64.1593 2.28956 64.3171 2.61043C64.4748 2.93131 64.5566 3.31206 64.5566 3.74171C64.5566 4.17136 64.4748 4.54666 64.3171 4.86754C64.1593 5.18842 63.9418 5.43853 63.659 5.61801C63.3762 5.79748 63.0501 5.8845 62.6748 5.8845ZM62.6748 5.31355C62.9577 5.31355 63.1915 5.23732 63.3764 5.09048C63.5614 4.94364 63.6973 4.75325 63.7843 4.51395C63.8768 4.28009 63.9203 4.01908 63.9203 3.74171C63.9203 3.46434 63.8768 3.20876 63.7843 2.96402C63.6973 2.72472 63.5614 2.53434 63.3764 2.3875C63.1915 2.23522 62.9577 2.16456 62.6748 2.16456C62.392 2.16456 62.1582 2.23522 61.9732 2.3875C61.7883 2.53434 61.6524 2.72472 61.5653 2.96402C61.4729 3.20876 61.4294 3.46434 61.4294 3.74171C61.4294 4.01908 61.4729 4.28009 61.5653 4.51395C61.6524 4.75325 61.7883 4.94364 61.9732 5.09048C62.1582 5.23732 62.392 5.31355 62.6748 5.31355ZM66.1664 3.30115V5.79753H65.5301V1.64248H66.1499V2.29508H66.1988C66.2967 2.08298 66.4491 1.91441 66.6449 1.78389C66.8407 1.65336 67.1019 1.58804 67.4119 1.58804C67.6947 1.58804 67.9396 1.6479 68.1517 1.76211C68.3638 1.87632 68.5267 2.05034 68.6409 2.2842C68.7605 2.51262 68.8204 2.80623 68.8204 3.15974V5.79753H68.1788V3.20329C68.1788 2.87697 68.0972 2.62141 67.9286 2.44194C67.7546 2.25702 67.5262 2.16456 67.227 2.16456C67.0258 2.16456 66.8409 2.20807 66.6832 2.29508C66.5255 2.3821 66.4001 2.51261 66.3077 2.68121C66.2152 2.8498 66.1664 3.05641 66.1664 3.30115ZM72.9264 2.57246L72.3555 2.73564C72.3174 2.64319 72.2631 2.55073 72.1924 2.45827C72.1272 2.36581 72.0294 2.28958 71.9152 2.22976C71.7955 2.16993 71.6433 2.14279 71.4584 2.14279C71.2028 2.14279 70.9902 2.20265 70.8216 2.31686C70.653 2.43107 70.5662 2.57781 70.5662 2.75729C70.5662 2.91501 70.6262 3.0402 70.7404 3.13265C70.86 3.22511 71.0395 3.30121 71.2842 3.36648L71.8987 3.51333C72.2686 3.60579 72.5461 3.74176 72.731 3.92667C72.9105 4.11158 73.0029 4.35092 73.0029 4.63916C73.0029 4.87846 72.9323 5.09053 72.7963 5.28088C72.6604 5.4658 72.47 5.61267 72.2307 5.72144C71.9859 5.83022 71.7028 5.8845 71.382 5.8845C70.9577 5.8845 70.6045 5.79204 70.3272 5.60712C70.0498 5.42221 69.8754 5.15573 69.7992 4.80222L70.4084 4.64992C70.4628 4.8729 70.5719 5.04159 70.7351 5.15581C70.8982 5.26458 71.1103 5.31899 71.3713 5.31899C71.665 5.31899 71.9042 5.25912 72.0782 5.13403C72.2523 5.0035 72.3449 4.85117 72.3449 4.67169C72.3449 4.53029 72.2903 4.40525 72.1924 4.31279C72.0891 4.20946 71.9366 4.1388 71.7245 4.08986L71.0341 3.92667C70.6534 3.83421 70.376 3.69824 70.1965 3.50789C70.017 3.31753 69.9299 3.0782 69.9299 2.78995C69.9299 2.55609 69.9953 2.34948 70.1259 2.17001C70.2618 1.99053 70.4413 1.84911 70.6697 1.74578C70.9036 1.64244 71.1647 1.58804 71.4584 1.58804C71.8663 1.58804 72.1868 1.68049 72.4261 1.85997C72.66 2.03944 72.8285 2.27877 72.9264 2.57246ZM75.7058 5.8845C75.3033 5.8845 74.9606 5.79748 74.6669 5.61801C74.3787 5.43853 74.1558 5.19387 74.0035 4.87299C73.8458 4.55211 73.7699 4.17681 73.7699 3.7526C73.7699 3.32839 73.8458 2.95308 74.0035 2.62677C74.1558 2.30045 74.3735 2.05032 74.6563 1.86541C74.9391 1.6805 75.2652 1.58804 75.6404 1.58804C75.858 1.58804 76.0699 1.62608 76.282 1.69678C76.4887 1.77292 76.6848 1.88721 76.8588 2.05037C77.0274 2.20809 77.1687 2.4256 77.272 2.68665C77.3699 2.95314 77.4245 3.27949 77.4245 3.66563V3.93756H74.2208V3.38825H76.777C76.777 3.14895 76.7282 2.9422 76.6357 2.75729C76.5433 2.57237 76.4125 2.43108 76.2385 2.3223C76.0699 2.21897 75.8689 2.16456 75.6404 2.16456C75.3848 2.16456 75.1674 2.22431 74.9771 2.35483C74.7976 2.47448 74.6561 2.63772 74.5527 2.83895C74.4548 3.04018 74.4061 3.25224 74.4061 3.48067V3.85046C74.4061 4.1659 74.4604 4.43237 74.5692 4.64992C74.678 4.86202 74.8301 5.03071 75.0259 5.14492C75.2217 5.25369 75.4447 5.31355 75.7058 5.31355C75.8744 5.31355 76.0213 5.28629 76.1572 5.24278C76.2932 5.19383 76.4125 5.11774 76.5104 5.02528C76.6137 4.92739 76.6902 4.80765 76.7446 4.66081L77.3591 4.83488C77.2939 5.04155 77.1853 5.22647 77.033 5.38419C76.8807 5.54191 76.69 5.66696 76.4615 5.75398C76.2386 5.84099 75.9831 5.8845 75.7058 5.8845ZM81.3345 2.57246L80.7636 2.73564C80.7255 2.64319 80.6765 2.55073 80.6058 2.45827C80.5351 2.36581 80.4429 2.28958 80.3233 2.22976C80.2036 2.16993 80.0514 2.14279 79.8665 2.14279C79.6109 2.14279 79.3983 2.20265 79.2297 2.31686C79.0611 2.43107 78.9796 2.57781 78.9796 2.75729C78.9796 2.91501 79.0341 3.0402 79.1538 3.13265C79.268 3.22511 79.4476 3.30121 79.6923 3.36648L80.3068 3.51333C80.6821 3.60579 80.9596 3.74176 81.1391 3.92667C81.3186 4.11158 81.411 4.35092 81.411 4.63916C81.411 4.87846 81.3458 5.09053 81.2044 5.28088C81.0739 5.4658 80.8835 5.61267 80.6388 5.72144C80.394 5.83022 80.1109 5.8845 79.79 5.8845C79.3658 5.8845 79.0179 5.79204 78.7406 5.60712C78.4578 5.42221 78.2839 5.15573 78.2132 4.80222L78.8165 4.64992C78.8763 4.8729 78.9854 5.04159 79.1432 5.15581C79.3063 5.26458 79.5184 5.31899 79.7794 5.31899C80.0786 5.31899 80.3123 5.25912 80.4863 5.13403C80.6658 5.0035 80.753 4.85117 80.753 4.67169C80.753 4.53029 80.7039 4.40525 80.6005 4.31279C80.5026 4.20946 80.3451 4.1388 80.1385 4.08986L79.4422 3.92667C79.0615 3.83421 78.7841 3.69824 78.6046 3.50789C78.4306 3.31753 78.338 3.0782 78.338 2.78995C78.338 2.55609 78.4087 2.34948 78.5393 2.17001C78.6698 1.99053 78.8547 1.84911 79.0831 1.74578C79.3116 1.64244 79.5728 1.58804 79.8665 1.58804C80.2744 1.58804 80.6004 1.68049 80.8342 1.85997C81.0681 2.03944 81.2366 2.27877 81.3345 2.57246ZM83.3252 5.04162L83.2816 5.32975C83.249 5.53641 83.2056 5.75951 83.1403 5.99338C83.0805 6.22724 83.0154 6.44477 82.9502 6.65687C82.8795 6.86354 82.8248 7.02665 82.7813 7.15174H82.2974C82.3192 7.03209 82.3518 6.87976 82.3899 6.69485C82.4279 6.50449 82.466 6.29243 82.5041 6.05857C82.5421 5.82471 82.5746 5.58537 82.6018 5.34063L82.6347 5.04162H83.3252ZM89.2641 4.10061V1.64248H89.9062V5.79753H89.2641V5.09592H89.2205C89.1226 5.30803 88.9758 5.48206 88.7691 5.63434C88.5624 5.78118 88.3015 5.85197 87.9915 5.85197C87.7305 5.85197 87.4965 5.79755 87.2952 5.68334C87.094 5.56369 86.9368 5.39511 86.8226 5.16125C86.7083 4.92739 86.6483 4.63908 86.6483 4.28557V1.64248H87.2846V4.24202C87.2846 4.54115 87.3715 4.78593 87.5401 4.9654C87.7141 5.14488 87.9318 5.23733 88.1928 5.23733C88.356 5.23733 88.5135 5.19383 88.6767 5.11225C88.8453 5.03068 88.9815 4.90562 89.0957 4.74247C89.2099 4.57387 89.2641 4.36167 89.2641 4.10061ZM91.0699 7.35303V1.64248H91.6897V2.30597H91.7662C91.8097 2.22983 91.8746 2.14281 91.9616 2.0286C92.0432 1.91439 92.1629 1.81646 92.3207 1.724C92.4784 1.63698 92.6958 1.58804 92.9622 1.58804C93.3158 1.58804 93.6204 1.67505 93.8869 1.85452C94.1589 2.02856 94.3657 2.27336 94.5126 2.59423C94.6649 2.91511 94.741 3.29573 94.741 3.73082C94.741 4.17135 94.6649 4.55211 94.5126 4.87299C94.3657 5.19387 94.1593 5.44398 93.8928 5.62345C93.6263 5.79749 93.3215 5.8845 92.9734 5.8845C92.7069 5.8845 92.4949 5.84099 92.3371 5.75398C92.174 5.66152 92.049 5.55828 91.9675 5.44407C91.8805 5.32986 91.8097 5.23739 91.7662 5.16125H91.7115V7.35303H91.0699ZM91.7009 3.71993C91.7009 4.03538 91.7444 4.31276 91.8368 4.55206C91.9293 4.79136 92.0654 4.97629 92.2394 5.11225C92.4189 5.24278 92.6306 5.31355 92.8916 5.31355C93.1581 5.31355 93.3815 5.24277 93.5555 5.10137C93.735 4.95996 93.8709 4.76414 93.9634 4.52484C94.0559 4.28554 94.0994 4.01906 94.0994 3.71993C94.0994 3.42625 94.0559 3.16522 93.9634 2.93136C93.8764 2.6975 93.7403 2.50713 93.5608 2.37117C93.3868 2.2352 93.1581 2.16456 92.8916 2.16456C92.6306 2.16456 92.413 2.22975 92.2336 2.36028C92.0595 2.49081 91.9238 2.67029 91.8368 2.90958C91.7444 3.13801 91.7009 3.40993 91.7009 3.71993ZM96.3508 0.261043V5.79753H95.7145V0.261043H96.3508ZM99.206 5.8845C98.8308 5.8845 98.5047 5.79748 98.2219 5.61801C97.9391 5.43853 97.7157 5.18842 97.558 4.86754C97.4003 4.54666 97.3243 4.17136 97.3243 3.74171C97.3243 3.31206 97.4003 2.93131 97.558 2.61043C97.7157 2.28956 97.9391 2.034 98.2219 1.85997C98.5047 1.68049 98.8308 1.58804 99.206 1.58804C99.5813 1.58804 99.9074 1.68049 100.19 1.85997C100.473 2.034 100.691 2.28956 100.848 2.61043C101.006 2.93131 101.088 3.31206 101.088 3.74171C101.088 4.17136 101.006 4.54666 100.848 4.86754C100.691 5.18842 100.473 5.43853 100.19 5.61801C99.9074 5.79748 99.5813 5.8845 99.206 5.8845ZM99.206 5.31355C99.4889 5.31355 99.7227 5.23732 99.9077 5.09048C100.093 4.94364 100.229 4.75325 100.316 4.51395C100.408 4.28009 100.452 4.01908 100.452 3.74171C100.452 3.46434 100.408 3.20876 100.316 2.96402C100.229 2.72472 100.093 2.53434 99.9077 2.3875C99.7227 2.23522 99.4889 2.16456 99.206 2.16456C98.9232 2.16456 98.6894 2.23522 98.5044 2.3875C98.3195 2.53434 98.1836 2.72472 98.0965 2.96402C98.0041 3.20876 97.9606 3.46434 97.9606 3.74171C97.9606 4.01908 98.0041 4.28009 98.0965 4.51395C98.1836 4.75325 98.3195 4.94364 98.5044 5.09048C98.6894 5.23732 98.9232 5.31355 99.206 5.31355ZM103.285 5.89538C103.019 5.89538 102.784 5.84643 102.567 5.74853C102.355 5.6452 102.181 5.49846 102.056 5.31355C101.931 5.11776 101.865 4.88932 101.865 4.61739C101.865 4.37809 101.915 4.1877 102.007 4.04086C102.1 3.88858 102.224 3.77442 102.382 3.6874C102.54 3.60582 102.714 3.54051 102.904 3.497C103.095 3.45349 103.285 3.4209 103.481 3.39914C103.731 3.36651 103.938 3.33924 104.095 3.32293C104.253 3.30661 104.367 3.27403 104.438 3.23596C104.514 3.19245 104.552 3.12166 104.552 3.01833V2.99669C104.552 2.7302 104.476 2.52345 104.329 2.37661C104.188 2.22433 103.965 2.15367 103.671 2.15367C103.367 2.15367 103.133 2.21887 102.959 2.35483C102.785 2.48536 102.665 2.62678 102.595 2.77906L101.985 2.56157C102.094 2.31139 102.241 2.11556 102.42 1.97416C102.6 1.83275 102.801 1.73483 103.013 1.67501C103.231 1.62062 103.443 1.58804 103.649 1.58804C103.785 1.58804 103.937 1.6044 104.111 1.63703C104.285 1.66966 104.454 1.73485 104.618 1.83275C104.781 1.93064 104.917 2.07752 105.025 2.27331C105.134 2.4691 105.189 2.73013 105.189 3.06188V5.79753H104.552V5.23733H104.519C104.476 5.32435 104.4 5.42226 104.302 5.5256C104.199 5.62893 104.068 5.71594 103.9 5.78664C103.731 5.85734 103.524 5.89538 103.285 5.89538ZM103.383 5.31899C103.633 5.31899 103.845 5.27003 104.019 5.17214C104.193 5.07424 104.324 4.94361 104.416 4.79133C104.503 4.63361 104.552 4.46506 104.552 4.29646V3.70905C104.525 3.74168 104.465 3.7744 104.373 3.80159C104.28 3.82335 104.177 3.84503 104.057 3.86679C103.943 3.8831 103.823 3.89947 103.715 3.91578C103.606 3.92666 103.513 3.93757 103.448 3.94845C103.279 3.9702 103.128 4.0028 102.981 4.05175C102.839 4.1007 102.725 4.17135 102.638 4.26924C102.551 4.3617 102.507 4.48676 102.507 4.64992C102.507 4.8729 102.589 5.04159 102.752 5.15581C102.915 5.26458 103.127 5.31899 103.383 5.31899ZM107.918 5.8845C107.576 5.8845 107.271 5.79749 107.005 5.62345C106.738 5.44398 106.532 5.19387 106.38 4.87299C106.233 4.55211 106.157 4.17135 106.157 3.73082C106.157 3.29573 106.233 2.91511 106.38 2.59423C106.532 2.27336 106.738 2.02856 107.005 1.85452C107.271 1.67505 107.582 1.58804 107.93 1.58804C108.202 1.58804 108.413 1.63698 108.571 1.724C108.729 1.81646 108.854 1.91439 108.936 2.0286C109.017 2.14281 109.083 2.22983 109.132 2.30597H109.186V0.261043H109.822V5.79753H109.207V5.16125H109.132C109.083 5.23739 109.017 5.32986 108.93 5.44407C108.843 5.55828 108.724 5.66152 108.561 5.75398C108.403 5.84099 108.185 5.8845 107.918 5.8845ZM108.006 5.31355C108.261 5.31355 108.479 5.24278 108.658 5.11225C108.832 4.97629 108.968 4.79136 109.061 4.55206C109.153 4.31276 109.197 4.03538 109.197 3.71993C109.197 3.40993 109.153 3.13801 109.061 2.90958C108.974 2.67029 108.838 2.49081 108.664 2.36028C108.484 2.22975 108.267 2.16456 108.006 2.16456C107.739 2.16456 107.511 2.2352 107.332 2.37117C107.152 2.50713 107.016 2.6975 106.929 2.93136C106.842 3.16522 106.798 3.42625 106.798 3.71993C106.798 4.01906 106.842 4.28554 106.929 4.52484C107.021 4.76414 107.157 4.95996 107.337 5.10137C107.516 5.24277 107.739 5.31355 108.006 5.31355ZM115.07 1.64248V2.18634H112.835V1.64248H115.07ZM113.504 5.79753V1.07139C113.504 0.832094 113.558 0.636255 113.673 0.478535C113.781 0.315377 113.929 0.201213 114.108 0.119634C114.288 0.0380544 114.473 0 114.674 0C114.831 0 114.956 0.0107816 115.054 0.0379748C115.157 0.0651679 115.228 0.0869915 115.277 0.108746L115.092 0.658052C115.06 0.647175 115.016 0.636261 114.956 0.619945C114.902 0.603629 114.831 0.592725 114.739 0.592725C114.526 0.592725 114.374 0.647138 114.282 0.75591C114.189 0.859244 114.14 1.01702 114.14 1.22369V5.79753H113.504ZM115.968 5.79753V1.64248H116.604V5.79753H115.968ZM116.289 0.951759C116.169 0.951759 116.061 0.908261 115.968 0.826682C115.881 0.739664 115.837 0.636298 115.837 0.522087C115.837 0.402437 115.881 0.299066 115.968 0.212048C116.061 0.130469 116.169 0.0869702 116.289 0.0869702C116.414 0.0869702 116.523 0.130469 116.61 0.212048C116.702 0.299066 116.746 0.402437 116.746 0.522087C116.746 0.636298 116.702 0.739664 116.61 0.826682C116.523 0.908261 116.414 0.951759 116.289 0.951759ZM118.41 0.261043V5.79753H117.773V0.261043H118.41ZM121.32 5.8845C120.923 5.8845 120.574 5.79748 120.286 5.61801C119.998 5.43853 119.775 5.19387 119.617 4.87299C119.465 4.55211 119.383 4.17681 119.383 3.7526C119.383 3.32839 119.465 2.95308 119.617 2.62677C119.775 2.30045 119.993 2.05032 120.275 1.86541C120.553 1.6805 120.884 1.58804 121.254 1.58804C121.472 1.58804 121.689 1.62608 121.896 1.69678C122.108 1.77292 122.299 1.88721 122.473 2.05037C122.647 2.20809 122.783 2.4256 122.886 2.68665C122.989 2.95314 123.044 3.27949 123.044 3.66563V3.93756H119.84V3.38825H122.391C122.391 3.14895 122.347 2.9422 122.25 2.75729C122.163 2.57237 122.027 2.43108 121.858 2.3223C121.69 2.21897 121.488 2.16456 121.254 2.16456C121.004 2.16456 120.781 2.22431 120.596 2.35483C120.411 2.47448 120.27 2.63772 120.172 2.83895C120.074 3.04018 120.025 3.25224 120.025 3.48067V3.85046C120.025 4.1659 120.08 4.43237 120.188 4.64992C120.297 4.86202 120.449 5.03071 120.645 5.14492C120.835 5.25369 121.064 5.31355 121.32 5.31355C121.488 5.31355 121.64 5.28629 121.776 5.24278C121.912 5.19383 122.032 5.11774 122.13 5.02528C122.228 4.92739 122.304 4.80765 122.358 4.66081L122.978 4.83488C122.913 5.04155 122.804 5.22647 122.652 5.38419C122.494 5.54191 122.309 5.66696 122.081 5.75398C121.858 5.84099 121.602 5.8845 121.32 5.8845ZM126.954 2.57246L126.383 2.73564C126.345 2.64319 126.29 2.55073 126.22 2.45827C126.154 2.36581 126.057 2.28958 125.942 2.22976C125.823 2.16993 125.671 2.14279 125.486 2.14279C125.23 2.14279 125.018 2.20265 124.849 2.31686C124.681 2.43107 124.593 2.57781 124.593 2.75729C124.593 2.91501 124.653 3.0402 124.768 3.13265C124.887 3.22511 125.067 3.30121 125.311 3.36648L125.926 3.51333C126.296 3.60579 126.573 3.74176 126.758 3.92667C126.938 4.11158 127.03 4.35092 127.03 4.63916C127.03 4.87846 126.96 5.09053 126.824 5.28088C126.688 5.4658 126.497 5.61267 126.258 5.72144C126.013 5.83022 125.73 5.8845 125.409 5.8845C124.985 5.8845 124.632 5.79204 124.354 5.60712C124.077 5.42221 123.903 5.15573 123.826 4.80222L124.436 4.64992C124.49 4.8729 124.599 5.04159 124.762 5.15581C124.925 5.26458 125.137 5.31899 125.399 5.31899C125.692 5.31899 125.931 5.25912 126.105 5.13403C126.28 5.0035 126.372 4.85117 126.372 4.67169C126.372 4.53029 126.318 4.40525 126.22 4.31279C126.116 4.20946 125.964 4.1388 125.752 4.08986L125.061 3.92667C124.681 3.83421 124.403 3.69824 124.224 3.50789C124.044 3.31753 123.957 3.0782 123.957 2.78995C123.957 2.55609 124.023 2.34948 124.153 2.17001C124.289 1.99053 124.469 1.84911 124.697 1.74578C124.931 1.64244 125.192 1.58804 125.486 1.58804C125.894 1.58804 126.214 1.68049 126.453 1.85997C126.687 2.03944 126.856 2.27877 126.954 2.57246ZM131.354 5.89538C131.093 5.89538 130.853 5.84643 130.636 5.74853C130.424 5.6452 130.25 5.49846 130.124 5.31355C129.999 5.11776 129.934 4.88932 129.934 4.61739C129.934 4.37809 129.983 4.1877 130.076 4.04086C130.173 3.88858 130.299 3.77442 130.451 3.6874C130.609 3.60582 130.783 3.54051 130.973 3.497C131.163 3.45349 131.354 3.4209 131.549 3.39914C131.8 3.36651 132.006 3.33924 132.164 3.32293C132.322 3.30661 132.436 3.27403 132.507 3.23596C132.583 3.19245 132.621 3.12166 132.621 3.01833V2.99669C132.621 2.7302 132.545 2.52345 132.398 2.37661C132.257 2.22433 132.039 2.15367 131.745 2.15367C131.441 2.15367 131.201 2.21887 131.027 2.35483C130.853 2.48536 130.734 2.62678 130.663 2.77906L130.054 2.56157C130.163 2.31139 130.309 2.11556 130.489 1.97416C130.668 1.83275 130.87 1.73483 131.082 1.67501C131.3 1.62062 131.512 1.58804 131.724 1.58804C131.854 1.58804 132.006 1.6044 132.18 1.63703C132.354 1.66966 132.523 1.73485 132.686 1.83275C132.849 1.93064 132.985 2.07752 133.094 2.27331C133.203 2.4691 133.257 2.73013 133.257 3.06188V5.79753H132.621V5.23733H132.588C132.545 5.32435 132.474 5.42226 132.371 5.5256C132.268 5.62893 132.137 5.71594 131.968 5.78664C131.8 5.85734 131.593 5.89538 131.354 5.89538ZM131.452 5.31899C131.702 5.31899 131.914 5.27003 132.088 5.17214C132.262 5.07424 132.398 4.94361 132.485 4.79133C132.572 4.63361 132.621 4.46506 132.621 4.29646V3.70905C132.594 3.74168 132.534 3.7744 132.442 3.80159C132.349 3.82335 132.246 3.84503 132.126 3.86679C132.012 3.8831 131.898 3.89947 131.784 3.91578C131.675 3.92666 131.582 3.93757 131.517 3.94845C131.348 3.9702 131.196 4.0028 131.049 4.05175C130.908 4.1007 130.794 4.17135 130.707 4.26924C130.62 4.3617 130.576 4.48676 130.576 4.64992C130.576 4.8729 130.658 5.04159 130.821 5.15581C130.989 5.26458 131.196 5.31899 131.452 5.31899ZM135.057 3.30115V5.79753H134.421V1.64248H135.041V2.29508H135.09C135.188 2.08298 135.34 1.91441 135.536 1.78389C135.732 1.65336 135.993 1.58804 136.303 1.58804C136.586 1.58804 136.831 1.6479 137.043 1.76211C137.255 1.87632 137.418 2.05034 137.532 2.2842C137.652 2.51262 137.711 2.80623 137.711 3.15974V5.79753H137.07V3.20329C137.07 2.87697 136.988 2.62141 136.82 2.44194C136.646 2.25702 136.417 2.16456 136.118 2.16456C135.917 2.16456 135.732 2.20807 135.574 2.29508C135.416 2.3821 135.291 2.51261 135.199 2.68121C135.106 2.8498 135.057 3.05641 135.057 3.30115ZM140.442 5.8845C140.099 5.8845 139.794 5.79749 139.528 5.62345C139.261 5.44398 139.055 5.19387 138.908 4.87299C138.756 4.55211 138.68 4.17135 138.68 3.73082C138.68 3.29573 138.756 2.91511 138.908 2.59423C139.055 2.27336 139.261 2.02856 139.528 1.85452C139.794 1.67505 140.104 1.58804 140.452 1.58804C140.724 1.58804 140.936 1.63698 141.094 1.724C141.252 1.81646 141.377 1.91439 141.459 2.0286C141.541 2.14281 141.611 2.22983 141.654 2.30597H141.709V0.261043H142.345V5.79753H141.731V5.16125H141.654C141.611 5.23739 141.54 5.32986 141.453 5.44407C141.366 5.55828 141.247 5.66152 141.083 5.75398C140.926 5.84099 140.714 5.8845 140.442 5.8845ZM140.529 5.31355C140.785 5.31355 141.002 5.24278 141.181 5.11225C141.355 4.97629 141.491 4.79136 141.584 4.55206C141.676 4.31276 141.72 4.03538 141.72 3.71993C141.72 3.40993 141.676 3.13801 141.584 2.90958C141.497 2.67029 141.361 2.49081 141.187 2.36028C141.008 2.22975 140.79 2.16456 140.529 2.16456C140.262 2.16456 140.034 2.2352 139.854 2.37117C139.675 2.50713 139.544 2.6975 139.452 2.93136C139.365 3.16522 139.321 3.42625 139.321 3.71993C139.321 4.01906 139.365 4.28554 139.452 4.52484C139.544 4.76414 139.68 4.95996 139.86 5.10137C140.039 5.24277 140.262 5.31355 140.529 5.31355ZM145.745 5.79753V1.64248H146.386V5.79753H145.745ZM146.071 0.951759C145.946 0.951759 145.837 0.908261 145.75 0.826682C145.663 0.739664 145.619 0.636298 145.619 0.522087C145.619 0.402437 145.663 0.299066 145.75 0.212048C145.837 0.130469 145.946 0.0869702 146.071 0.0869702C146.196 0.0869702 146.299 0.130469 146.391 0.212048C146.478 0.299066 146.527 0.402437 146.527 0.522087C146.527 0.636298 146.478 0.739664 146.391 0.826682C146.299 0.908261 146.196 0.951759 146.071 0.951759ZM147.556 5.79753V1.64248H148.17V2.29508H148.224C148.311 2.0721 148.453 1.89809 148.643 1.77844C148.834 1.65335 149.067 1.58804 149.339 1.58804C149.611 1.58804 149.84 1.65335 150.025 1.77844C150.204 1.89809 150.351 2.0721 150.454 2.29508H150.497C150.601 2.07754 150.759 1.90897 150.977 1.78389C151.189 1.65336 151.444 1.58804 151.738 1.58804C152.107 1.58804 152.412 1.70763 152.651 1.94149C152.885 2.16992 153.005 2.52885 153.005 3.01833V5.79753H152.369V3.01833C152.369 2.71377 152.282 2.49081 152.113 2.36028C151.945 2.22975 151.749 2.16456 151.52 2.16456C151.232 2.16456 151.004 2.25157 150.846 2.43105C150.683 2.60509 150.601 2.82261 150.601 3.09455V5.79753H149.954V2.95314C149.954 2.71928 149.878 2.5289 149.725 2.38205C149.573 2.23521 149.372 2.16456 149.133 2.16456C148.964 2.16456 148.812 2.20807 148.665 2.29508C148.524 2.3821 148.409 2.50715 148.322 2.66487C148.235 2.81715 148.192 2.99662 148.192 3.20329V5.79753H147.556ZM155.392 5.89538C155.131 5.89538 154.892 5.84643 154.675 5.74853C154.463 5.6452 154.294 5.49846 154.163 5.31355C154.038 5.11776 153.978 4.88932 153.978 4.61739C153.978 4.37809 154.022 4.1877 154.114 4.04086C154.212 3.88858 154.337 3.77442 154.495 3.6874C154.647 3.60582 154.822 3.54051 155.012 3.497C155.202 3.45349 155.392 3.4209 155.588 3.39914C155.838 3.36651 156.045 3.33924 156.203 3.32293C156.36 3.30661 156.475 3.27403 156.545 3.23596C156.621 3.19245 156.66 3.12166 156.66 3.01833V2.99669C156.66 2.7302 156.584 2.52345 156.442 2.37661C156.295 2.22433 156.078 2.15367 155.784 2.15367C155.48 2.15367 155.24 2.21887 155.066 2.35483C154.892 2.48536 154.773 2.62678 154.702 2.77906L154.093 2.56157C154.201 2.31139 154.348 2.11556 154.528 1.97416C154.713 1.83275 154.908 1.73483 155.12 1.67501C155.338 1.62062 155.55 1.58804 155.762 1.58804C155.893 1.58804 156.045 1.6044 156.219 1.63703C156.393 1.66966 156.562 1.73485 156.725 1.83275C156.888 1.93064 157.024 2.07752 157.133 2.27331C157.241 2.4691 157.296 2.73013 157.296 3.06188V5.79753H156.66V5.23733H156.627C156.584 5.32435 156.513 5.42226 156.409 5.5256C156.306 5.62893 156.176 5.71594 156.007 5.78664C155.839 5.85734 155.637 5.89538 155.392 5.89538ZM155.491 5.31899C155.741 5.31899 155.958 5.27003 156.127 5.17214C156.306 5.07424 156.437 4.94361 156.524 4.79133C156.616 4.63361 156.66 4.46506 156.66 4.29646V3.70905C156.632 3.74168 156.572 3.7744 156.48 3.80159C156.388 3.82335 156.285 3.84503 156.165 3.86679C156.051 3.8831 155.936 3.89947 155.822 3.91578C155.713 3.92666 155.627 3.93757 155.556 3.94845C155.387 3.9702 155.235 4.0028 155.088 4.05175C154.947 4.1007 154.832 4.17135 154.745 4.26924C154.658 4.3617 154.615 4.48676 154.615 4.64992C154.615 4.8729 154.696 5.04159 154.86 5.15581C155.028 5.26458 155.235 5.31899 155.491 5.31899ZM160.14 7.44C159.83 7.44 159.564 7.40195 159.341 7.32037C159.124 7.24423 158.938 7.14086 158.786 7.01577C158.645 6.89069 158.525 6.75472 158.438 6.60788L158.949 6.25442C159.004 6.32512 159.08 6.41212 159.167 6.51002C159.254 6.60791 159.374 6.69492 159.531 6.76562C159.684 6.84176 159.885 6.87981 160.14 6.87981C160.472 6.87981 160.749 6.79825 160.967 6.6351C161.184 6.47194 161.293 6.22168 161.293 5.87361V5.03073H161.239C161.195 5.10687 161.125 5.19934 161.043 5.31355C160.956 5.42232 160.831 5.5201 160.673 5.60712C160.515 5.6887 160.298 5.7322 160.032 5.7322C159.694 5.7322 159.395 5.65065 159.129 5.49293C158.862 5.33521 158.65 5.10678 158.498 4.80222C158.345 4.49765 158.264 4.13325 158.264 3.69816C158.264 3.27395 158.34 2.90423 158.492 2.58879C158.639 2.27335 158.852 2.02312 159.118 1.85452C159.385 1.67505 159.689 1.58804 160.043 1.58804C160.309 1.58804 160.527 1.63698 160.684 1.724C160.842 1.81646 160.967 1.91439 161.054 2.0286C161.136 2.14281 161.206 2.22983 161.25 2.30597H161.315V1.64248H161.935V5.91716C161.935 6.27611 161.853 6.56441 161.69 6.78739C161.527 7.01038 161.315 7.17893 161.043 7.28226C160.771 7.38559 160.472 7.44 160.14 7.44ZM160.119 5.16125C160.374 5.16125 160.587 5.10138 160.766 4.98173C160.94 4.86752 161.076 4.69896 161.168 4.47598C161.261 4.25843 161.304 3.99741 161.304 3.6874C161.304 3.38828 161.261 3.12712 161.168 2.8987C161.081 2.66484 160.945 2.48537 160.771 2.36028C160.592 2.22975 160.374 2.16456 160.119 2.16456C159.847 2.16456 159.618 2.22976 159.439 2.37117C159.259 2.50713 159.129 2.69205 159.036 2.92047C158.949 3.1489 158.906 3.41003 158.906 3.6874C158.906 3.97565 158.949 4.23122 159.042 4.4542C159.134 4.67175 159.265 4.84576 159.444 4.97085C159.624 5.09593 159.847 5.16125 160.119 5.16125ZM164.845 5.8845C164.443 5.8845 164.1 5.79748 163.806 5.61801C163.518 5.43853 163.295 5.19387 163.137 4.87299C162.985 4.55211 162.909 4.17681 162.909 3.7526C162.909 3.32839 162.985 2.95308 163.137 2.62677C163.295 2.30045 163.512 2.05032 163.795 1.86541C164.072 1.6805 164.404 1.58804 164.78 1.58804C164.992 1.58804 165.209 1.62608 165.416 1.69678C165.628 1.77292 165.824 1.88721 165.992 2.05037C166.166 2.20809 166.308 2.4256 166.405 2.68665C166.509 2.95314 166.563 3.27949 166.563 3.66563V3.93756H163.36V3.38825H165.911C165.911 3.14895 165.867 2.9422 165.775 2.75729C165.683 2.57237 165.546 2.43108 165.378 2.3223C165.209 2.21897 165.008 2.16456 164.78 2.16456C164.524 2.16456 164.301 2.22431 164.116 2.35483C163.936 2.47448 163.795 2.63772 163.692 2.83895C163.594 3.04018 163.545 3.25224 163.545 3.48067V3.85046C163.545 4.1659 163.599 4.43237 163.708 4.64992C163.817 4.86202 163.969 5.03071 164.165 5.14492C164.361 5.25369 164.584 5.31355 164.845 5.31355C165.008 5.31355 165.16 5.28629 165.296 5.24278C165.432 5.19383 165.552 5.11774 165.65 5.02528C165.748 4.92739 165.829 4.80765 165.878 4.66081L166.498 4.83488C166.433 5.04155 166.324 5.22647 166.172 5.38419C166.02 5.54191 165.829 5.66696 165.601 5.75398C165.378 5.84099 165.122 5.8845 164.845 5.8845ZM170.474 2.57246L169.903 2.73564C169.865 2.64319 169.811 2.55073 169.74 2.45827C169.675 2.36581 169.582 2.28958 169.462 2.22976C169.342 2.16993 169.19 2.14279 169.005 2.14279C168.75 2.14279 168.538 2.20265 168.369 2.31686C168.2 2.43107 168.119 2.57781 168.119 2.75729C168.119 2.91501 168.173 3.0402 168.287 3.13265C168.407 3.22511 168.586 3.30121 168.831 3.36648L169.446 3.51333C169.821 3.60579 170.093 3.74176 170.278 3.92667C170.457 4.11158 170.55 4.35092 170.55 4.63916C170.55 4.87846 170.479 5.09053 170.343 5.28088C170.207 5.4658 170.022 5.61267 169.778 5.72144C169.533 5.83022 169.25 5.8845 168.929 5.8845C168.505 5.8845 168.151 5.79204 167.874 5.60712C167.597 5.42221 167.423 5.15573 167.347 4.80222L167.956 4.64992C168.01 4.8729 168.119 5.04159 168.282 5.15581C168.445 5.26458 168.657 5.31899 168.918 5.31899C169.212 5.31899 169.452 5.25912 169.626 5.13403C169.805 5.0035 169.892 4.85117 169.892 4.67169C169.892 4.53029 169.838 4.40525 169.74 4.31279C169.636 4.20946 169.484 4.1388 169.272 4.08986L168.581 3.92667C168.2 3.83421 167.923 3.69824 167.743 3.50789C167.569 3.31753 167.477 3.0782 167.477 2.78995C167.477 2.55609 167.543 2.34948 167.679 2.17001C167.809 1.99053 167.989 1.84911 168.222 1.74578C168.451 1.64244 168.712 1.58804 169.005 1.58804C169.413 1.58804 169.74 1.68049 169.973 1.85997C170.207 2.03944 170.376 2.27877 170.474 2.57246ZM172.464 5.04162L172.421 5.32975C172.388 5.53641 172.339 5.75951 172.28 5.99338C172.22 6.22724 172.154 6.44477 172.089 6.65687C172.018 6.86354 171.964 7.02665 171.921 7.15174H171.436C171.458 7.03209 171.491 6.87976 171.529 6.69485C171.567 6.50449 171.605 6.29243 171.643 6.05857C171.681 5.82471 171.714 5.58537 171.736 5.34063L171.768 5.04162H172.464ZM177.011 5.89538C176.744 5.89538 176.505 5.84643 176.293 5.74853C176.076 5.6452 175.907 5.49846 175.782 5.31355C175.657 5.11776 175.592 4.88932 175.592 4.61739C175.592 4.37809 175.64 4.1877 175.733 4.04086C175.825 3.88858 175.951 3.77442 176.108 3.6874C176.266 3.60582 176.44 3.54051 176.625 3.497C176.82 3.45349 177.011 3.4209 177.201 3.39914C177.457 3.36651 177.658 3.33924 177.816 3.32293C177.974 3.30661 178.093 3.27403 178.164 3.23596C178.235 3.19245 178.273 3.12166 178.273 3.01833V2.99669C178.273 2.7302 178.202 2.52345 178.055 2.37661C177.909 2.22433 177.691 2.15367 177.397 2.15367C177.092 2.15367 176.853 2.21887 176.679 2.35483C176.511 2.48536 176.386 2.62678 176.315 2.77906L175.711 2.56157C175.82 2.31139 175.961 2.11556 176.141 1.97416C176.326 1.83275 176.521 1.73483 176.739 1.67501C176.956 1.62062 177.169 1.58804 177.376 1.58804C177.512 1.58804 177.664 1.6044 177.838 1.63703C178.012 1.66966 178.18 1.73485 178.343 1.83275C178.507 1.93064 178.642 2.07752 178.751 2.27331C178.86 2.4691 178.914 2.73013 178.914 3.06188V5.79753H178.273V5.23733H178.24C178.197 5.32435 178.126 5.42226 178.023 5.5256C177.925 5.62893 177.789 5.71594 177.62 5.78664C177.457 5.85734 177.25 5.89538 177.011 5.89538ZM177.104 5.31899C177.359 5.31899 177.571 5.27003 177.745 5.17214C177.919 5.07424 178.05 4.94361 178.137 4.79133C178.229 4.63361 178.273 4.46506 178.273 4.29646V3.70905C178.246 3.74168 178.186 3.7744 178.093 3.80159C178.006 3.82335 177.903 3.84503 177.784 3.86679C177.664 3.8831 177.549 3.89947 177.44 3.91578C177.326 3.92666 177.239 3.93757 177.169 3.94845C177.005 3.9702 176.848 4.0028 176.706 4.05175C176.565 4.1007 176.446 4.17135 176.359 4.26924C176.272 4.3617 176.228 4.48676 176.228 4.64992C176.228 4.8729 176.309 5.04159 176.478 5.15581C176.641 5.26458 176.854 5.31899 177.104 5.31899ZM180.715 3.30115V5.79753H180.079V1.64248H180.693V2.29508H180.747C180.845 2.08298 180.992 1.91441 181.193 1.78389C181.389 1.65336 181.645 1.58804 181.96 1.58804C182.238 1.58804 182.488 1.6479 182.694 1.76211C182.906 1.87632 183.07 2.05034 183.189 2.2842C183.303 2.51262 183.363 2.80623 183.363 3.15974V5.79753H182.727V3.20329C182.727 2.87697 182.64 2.62141 182.471 2.44194C182.303 2.25702 182.069 2.16456 181.775 2.16456C181.569 2.16456 181.389 2.20807 181.226 2.29508C181.068 2.3821 180.943 2.51261 180.851 2.68121C180.758 2.8498 180.715 3.05641 180.715 3.30115ZM186.099 5.8845C185.751 5.8845 185.446 5.79749 185.18 5.62345C184.919 5.44398 184.712 5.19387 184.56 4.87299C184.413 4.55211 184.337 4.17135 184.337 3.73082C184.337 3.29573 184.413 2.91511 184.56 2.59423C184.712 2.27336 184.919 2.02856 185.185 1.85452C185.452 1.67505 185.762 1.58804 186.11 1.58804C186.382 1.58804 186.594 1.63698 186.751 1.724C186.909 1.81646 187.029 1.91439 187.11 2.0286C187.197 2.14281 187.263 2.22983 187.312 2.30597H187.366V0.261043H188.002V5.79753H187.388V5.16125H187.312C187.263 5.23739 187.197 5.32986 187.11 5.44407C187.023 5.55828 186.899 5.66152 186.741 5.75398C186.578 5.84099 186.365 5.8845 186.099 5.8845ZM186.186 5.31355C186.441 5.31355 186.659 5.24278 186.833 5.11225C187.013 4.97629 187.143 4.79136 187.236 4.55206C187.328 4.31276 187.377 4.03538 187.377 3.71993C187.377 3.40993 187.328 3.13801 187.241 2.90958C187.149 2.67029 187.018 2.49081 186.839 2.36028C186.665 2.22975 186.447 2.16456 186.186 2.16456C185.914 2.16456 185.691 2.2352 185.512 2.37117C185.332 2.50713 185.196 2.6975 185.109 2.93136C185.017 3.16522 184.973 3.42625 184.973 3.71993C184.973 4.01906 185.017 4.28554 185.109 4.52484C185.202 4.76414 185.338 4.95996 185.517 5.10137C185.697 5.24277 185.919 5.31355 186.186 5.31355ZM191.401 5.79753V1.64248H192.016V2.29508H192.071C192.158 2.0721 192.299 1.89809 192.489 1.77844C192.685 1.65335 192.913 1.58804 193.185 1.58804C193.457 1.58804 193.686 1.65335 193.871 1.77844C194.055 1.89809 194.197 2.0721 194.3 2.29508H194.344C194.447 2.07754 194.61 1.90897 194.822 1.78389C195.034 1.65336 195.29 1.58804 195.589 1.58804C195.959 1.58804 196.264 1.70763 196.497 1.94149C196.731 2.16992 196.851 2.52885 196.851 3.01833V5.79753H196.215V3.01833C196.215 2.71377 196.128 2.49081 195.965 2.36028C195.796 2.22975 195.6 2.16456 195.372 2.16456C195.078 2.16456 194.85 2.25157 194.692 2.43105C194.529 2.60509 194.453 2.82261 194.453 3.09455V5.79753H193.8V2.95314C193.8 2.71928 193.724 2.5289 193.572 2.38205C193.419 2.23521 193.224 2.16456 192.979 2.16456C192.816 2.16456 192.658 2.20807 192.517 2.29508C192.375 2.3821 192.255 2.50715 192.168 2.66487C192.081 2.81715 192.038 2.99662 192.038 3.20329V5.79753H191.401ZM199.706 5.8845C199.331 5.8845 199.005 5.79748 198.716 5.61801C198.439 5.43853 198.216 5.18842 198.058 4.86754C197.901 4.54666 197.825 4.17136 197.825 3.74171C197.825 3.31206 197.901 2.93131 198.058 2.61043C198.216 2.28956 198.439 2.034 198.716 1.85997C199.005 1.68049 199.331 1.58804 199.706 1.58804C200.082 1.58804 200.408 1.68049 200.691 1.85997C200.973 2.034 201.191 2.28956 201.349 2.61043C201.506 2.93131 201.588 3.31206 201.588 3.74171C201.588 4.17136 201.506 4.54666 201.349 4.86754C201.191 5.18842 200.973 5.43853 200.691 5.61801C200.408 5.79748 200.082 5.8845 199.706 5.8845ZM199.706 5.31355C199.989 5.31355 200.223 5.23732 200.408 5.09048C200.593 4.94364 200.729 4.75325 200.816 4.51395C200.908 4.28009 200.952 4.01908 200.952 3.74171C200.952 3.46434 200.908 3.20876 200.816 2.96402C200.729 2.72472 200.593 2.53434 200.408 2.3875C200.223 2.23522 199.989 2.16456 199.706 2.16456C199.424 2.16456 199.184 2.23522 199.005 2.3875C198.82 2.53434 198.684 2.72472 198.597 2.96402C198.504 3.20876 198.461 3.46434 198.461 3.74171C198.461 4.01908 198.504 4.28009 198.597 4.51395C198.684 4.75325 198.82 4.94364 199.005 5.09048C199.184 5.23732 199.424 5.31355 199.706 5.31355ZM202.562 5.79753V1.64248H203.176V2.27331H203.22C203.296 2.06664 203.432 1.89809 203.633 1.773C203.829 1.64247 204.052 1.57715 204.302 1.57715C204.351 1.57715 204.411 1.58259 204.482 1.58259C204.547 1.58259 204.601 1.58804 204.639 1.58804V2.24064C204.618 2.23521 204.568 2.2243 204.492 2.21342C204.416 2.20255 204.334 2.19709 204.247 2.19709C204.046 2.19709 203.867 2.24072 203.709 2.3223C203.552 2.40388 203.426 2.52347 203.334 2.67032C203.247 2.81716 203.198 2.98028 203.198 3.17063V5.79753H202.562ZM207.01 5.8845C206.608 5.8845 206.265 5.79748 205.971 5.61801C205.683 5.43853 205.466 5.19387 205.308 4.87299C205.15 4.55211 205.074 4.17681 205.074 3.7526C205.074 3.32839 205.15 2.95308 205.308 2.62677C205.466 2.30045 205.683 2.05032 205.961 1.86541C206.244 1.6805 206.57 1.58804 206.945 1.58804C207.163 1.58804 207.375 1.62608 207.587 1.69678C207.799 1.77292 207.989 1.88721 208.163 2.05037C208.337 2.20809 208.473 2.4256 208.577 2.68665C208.68 2.95314 208.729 3.27949 208.729 3.66563V3.93756H205.526V3.38825H208.082C208.082 3.14895 208.033 2.9422 207.94 2.75729C207.848 2.57237 207.718 2.43108 207.544 2.3223C207.375 2.21897 207.173 2.16456 206.945 2.16456C206.689 2.16456 206.472 2.22431 206.287 2.35483C206.102 2.47448 205.961 2.63772 205.863 2.83895C205.76 3.04018 205.711 3.25224 205.711 3.48067V3.85046C205.711 4.1659 205.765 4.43237 205.874 4.64992C205.983 4.86202 206.135 5.03071 206.331 5.14492C206.526 5.25369 206.749 5.31355 207.01 5.31355C207.179 5.31355 207.331 5.28629 207.462 5.24278C207.603 5.19383 207.717 5.11774 207.821 5.02528C207.919 4.92739 207.995 4.80765 208.049 4.66081L208.664 4.83488C208.598 5.04155 208.49 5.22647 208.338 5.38419C208.185 5.54191 207.995 5.66696 207.772 5.75398C207.544 5.84099 207.293 5.8845 207.01 5.8845ZM210.165 5.84108C210.034 5.84108 209.92 5.79213 209.822 5.69967C209.724 5.60177 209.681 5.48749 209.681 5.35152C209.681 5.221 209.724 5.10685 209.822 5.00895C209.92 4.9165 210.034 4.86754 210.165 4.86754C210.301 4.86754 210.415 4.9165 210.508 5.00895C210.606 5.10685 210.654 5.221 210.654 5.35152C210.654 5.44398 210.627 5.52553 210.584 5.59623C210.54 5.67237 210.48 5.73224 210.409 5.77575C210.339 5.81926 210.257 5.84108 210.165 5.84108Z" fill="black"/>
</svg>
